<?xml version="1.0" encoding="UTF-8" standalone="no"?>
<!DOCTYPE svg PUBLIC "-//W3C//DTD SVG 1.1//EN"
 "http://www.w3.org/Graphics/SVG/1.1/DTD/svg11.dtd">
<!-- Generated by graphviz version 2.40.1 (20161225.0304)
 -->
<!-- Title: ndiag Pages: 1 -->
<svg width="366pt" height="389pt"
 viewBox="0.00 0.00 366.00 389.40" xmlns="http://www.w3.org/2000/svg" xmlns:xlink="http://www.w3.org/1999/xlink">
<g id="graph0" class="graph" transform="scale(1 1) rotate(0) translate(4 385.4)">
<title>ndiag</title>
<polygon fill="#ffffff" stroke="transparent" points="-4,4 -4,-385.4 362,-385.4 362,4 -4,4"/>
<g id="clust3" class="cluster">
<title>cluster_app&#45;*</title>
<polygon fill="none" stroke="#000000" stroke-width="2" points="272,-8 272,-222.8 350,-222.8 350,-8 272,-8"/>
<text text-anchor="middle" x="311" y="-206.2" font-family="Arial" font-size="14.00" fill="#000000">app&#45;* (3)</text>
</g>
<g id="clust1" class="cluster">
<title>cluster_vip_group:lb</title>
<path fill="#4b75b9" fill-opacity="0.200000" stroke="#4b75b9" stroke-opacity="0.200000" d="M82,-129.5C82,-129.5 252,-129.5 252,-129.5 258,-129.5 264,-135.5 264,-141.5 264,-141.5 264,-361.4 264,-361.4 264,-367.4 258,-373.4 252,-373.4 252,-373.4 82,-373.4 82,-373.4 76,-373.4 70,-367.4 70,-361.4 70,-361.4 70,-141.5 70,-141.5 70,-135.5 76,-129.5 82,-129.5"/>
<text text-anchor="middle" x="167" y="-356.8" font-family="Arial" font-size="14.00" fill="#000000">vip_group:lb</text>
</g>
<g id="clust2" class="cluster">
<title>cluster_lb&#45;*</title>
<polygon fill="#ffffff" stroke="#333333" stroke-width="2" points="78,-230.8 78,-340.6 256,-340.6 256,-230.8 78,-230.8"/>
<text text-anchor="middle" x="167" y="-324" font-family="Arial" font-size="14.00" fill="#000000">lb&#45;* (2)</text>
</g>
<!-- lb&#45;*:nginx -->
<g id="node1" class="node">
<title>lb&#45;*:nginx</title>
<path fill="#ffffff" stroke="#4b75b9" stroke-width="3" stroke-opacity="0.400000" d="M235.5,-307.8C235.5,-307.8 198.5,-307.8 198.5,-307.8 192.5,-307.8 186.5,-301.8 186.5,-295.8 186.5,-295.8 186.5,-250.8 186.5,-250.8 186.5,-244.8 192.5,-238.8 198.5,-238.8 198.5,-238.8 235.5,-238.8 235.5,-238.8 241.5,-238.8 247.5,-244.8 247.5,-250.8 247.5,-250.8 247.5,-295.8 247.5,-295.8 247.5,-301.8 241.5,-307.8 235.5,-307.8"/>
<image xlink:href="/var/folders/fp/hk95_wsj7s18mmc9drvrxdp1tt294n/T/ndiag.065348/lb-l7.svg" width="45px" height="45px" preserveAspectRatio="xMinYMin meet" x="195" y="-303.3"/>
<text text-anchor="start" x="200.7728" y="-245.7" font-family="Arial" font-size="14.00" fill="#333333">nginx</text>
</g>
<!-- app&#45;*:nginx -->
<g id="node4" class="node">
<title>app&#45;*:nginx</title>
<path fill="#ffffff" stroke="#4b75b9" stroke-width="3" stroke-opacity="0.400000" d="M329.5,-190C329.5,-190 292.5,-190 292.5,-190 286.5,-190 280.5,-184 280.5,-178 280.5,-178 280.5,-133 280.5,-133 280.5,-127 286.5,-121 292.5,-121 292.5,-121 329.5,-121 329.5,-121 335.5,-121 341.5,-127 341.5,-133 341.5,-133 341.5,-178 341.5,-178 341.5,-184 335.5,-190 329.5,-190"/>
<image xlink:href="/var/folders/fp/hk95_wsj7s18mmc9drvrxdp1tt294n/T/ndiag.065348/proxy.svg" width="45px" height="45px" preserveAspectRatio="xMinYMin meet" x="289" y="-185.5"/>
<text text-anchor="start" x="294.7728" y="-127.9" font-family="Arial" font-size="14.00" fill="#333333">nginx</text>
</g>
<!-- lb&#45;*:nginx&#45;&gt;app&#45;*:nginx -->
<g id="edge3" class="edge">
<title>lb&#45;*:nginx&#45;&gt;app&#45;*:nginx</title>
<path fill="none" stroke="#333333" stroke-width="2" stroke-opacity="0.600000" d="M227.1667,-238.6683C227.1667,-212.4778 227.1667,-181 227.1667,-181 227.1667,-181 270.2596,-181 270.2596,-181"/>
<polygon fill="#333333" fill-opacity="0.600000" stroke="#333333" stroke-width="2" stroke-opacity="0.600000" points="270.2596,-184.5001 280.2596,-181 270.2596,-177.5001 270.2596,-184.5001"/>
</g>
<!-- lb&#45;*:keepalived -->
<g id="node2" class="node">
<title>lb&#45;*:keepalived</title>
<path fill="#ffffff" stroke="#4b75b9" stroke-width="3" stroke-opacity="0.400000" d="M156,-307.8C156,-307.8 98,-307.8 98,-307.8 92,-307.8 86,-301.8 86,-295.8 86,-295.8 86,-250.8 86,-250.8 86,-244.8 92,-238.8 98,-238.8 98,-238.8 156,-238.8 156,-238.8 162,-238.8 168,-244.8 168,-250.8 168,-250.8 168,-295.8 168,-295.8 168,-301.8 162,-307.8 156,-307.8"/>
<image xlink:href="/var/folders/fp/hk95_wsj7s18mmc9drvrxdp1tt294n/T/ndiag.065348/keepalived.svg" width="60px" height="45px" preserveAspectRatio="xMinYMin meet" x="97" y="-303.3"/>
<text text-anchor="start" x="93.5456" y="-245.7" font-family="Arial" font-size="14.00" fill="#333333">keepalived</text>
</g>
<!-- vip_group:lb:vip -->
<g id="node3" class="node">
<title>vip_group:lb:vip</title>
<path fill="#ffffff" stroke="#4b75b9" stroke-width="3" d="M142,-173.5C142,-173.5 112,-173.5 112,-173.5 106,-173.5 100,-167.5 100,-161.5 100,-161.5 100,-149.5 100,-149.5 100,-143.5 106,-137.5 112,-137.5 112,-137.5 142,-137.5 142,-137.5 148,-137.5 154,-143.5 154,-149.5 154,-149.5 154,-161.5 154,-161.5 154,-167.5 148,-173.5 142,-173.5"/>
<text text-anchor="middle" x="127" y="-151.3" font-family="Arial" font-size="14.00" fill="#333333">vip</text>
</g>
<!-- lb&#45;*:keepalived&#45;&gt;vip_group:lb:vip -->
<g id="edge5" class="edge">
<title>lb&#45;*:keepalived&#45;&gt;vip_group:lb:vip</title>
<path fill="none" stroke="#4b75b9" stroke-width="2" stroke-dasharray="5,2" d="M127,-238.5933C127,-238.5933 127,-181.6079 127,-181.6079"/>
<ellipse fill="#4b75b9" stroke="#4b75b9" stroke-width="2" cx="127" cy="-177.6079" rx="4" ry="4"/>
</g>
<!-- vip_group:lb:vip&#45;&gt;lb&#45;*:nginx -->
<g id="edge2" class="edge">
<title>vip_group:lb:vip&#45;&gt;lb&#45;*:nginx</title>
<path fill="none" stroke="#333333" stroke-width="2" stroke-opacity="0.600000" d="M154.0279,-155C177.1882,-155 206.8333,-155 206.8333,-155 206.8333,-155 206.8333,-228.7647 206.8333,-228.7647"/>
<polygon fill="#333333" fill-opacity="0.600000" stroke="#333333" stroke-width="2" stroke-opacity="0.600000" points="203.3334,-228.7647 206.8333,-238.7647 210.3334,-228.7648 203.3334,-228.7647"/>
</g>
<!-- app&#45;*:rails -->
<g id="node5" class="node">
<title>app&#45;*:rails</title>
<path fill="#ffffff" stroke="#4b75b9" stroke-width="3" stroke-opacity="0.400000" d="M329.5,-85C329.5,-85 292.5,-85 292.5,-85 286.5,-85 280.5,-79 280.5,-73 280.5,-73 280.5,-28 280.5,-28 280.5,-22 286.5,-16 292.5,-16 292.5,-16 329.5,-16 329.5,-16 335.5,-16 341.5,-22 341.5,-28 341.5,-28 341.5,-73 341.5,-73 341.5,-79 335.5,-85 329.5,-85"/>
<image xlink:href="/var/folders/fp/hk95_wsj7s18mmc9drvrxdp1tt294n/T/ndiag.065348/cube4.svg" width="45px" height="45px" preserveAspectRatio="xMinYMin meet" x="289" y="-80.5"/>
<text text-anchor="start" x="295.9488" y="-22.9" font-family="Arial" font-size="14.00" fill="#333333">Rails</text>
</g>
<!-- app&#45;*:nginx&#45;&gt;app&#45;*:rails -->
<g id="edge4" class="edge">
<title>app&#45;*:nginx&#45;&gt;app&#45;*:rails</title>
<path fill="none" stroke="#333333" stroke-width="2" stroke-opacity="0.600000" d="M311,-120.8281C311,-120.8281 311,-95.1355 311,-95.1355"/>
<polygon fill="#333333" fill-opacity="0.600000" stroke="#333333" stroke-width="2" stroke-opacity="0.600000" points="314.5001,-95.1355 311,-85.1355 307.5001,-95.1356 314.5001,-95.1355"/>
</g>
<!-- internet -->
<g id="node6" class="node">
<title>internet</title>
<path fill="none" stroke="#000000" stroke-width="2" d="M50,-307.8C50,-307.8 12,-307.8 12,-307.8 6,-307.8 0,-301.8 0,-295.8 0,-295.8 0,-250.8 0,-250.8 0,-244.8 6,-238.8 12,-238.8 12,-238.8 50,-238.8 50,-238.8 56,-238.8 62,-244.8 62,-250.8 62,-250.8 62,-295.8 62,-295.8 62,-301.8 56,-307.8 50,-307.8"/>
<image xlink:href="/var/folders/fp/hk95_wsj7s18mmc9drvrxdp1tt294n/T/ndiag.065348/cloud.svg" width="46px" height="45px" preserveAspectRatio="xMinYMin meet" x="8" y="-303.3"/>
<text text-anchor="start" x="7.6606" y="-245.7" font-family="Arial" font-size="14.00" fill="#333333">internet</text>
</g>
<!-- internet&#45;&gt;vip_group:lb:vip -->
<g id="edge1" class="edge">
<title>internet&#45;&gt;vip_group:lb:vip</title>
<path fill="none" stroke="#333333" stroke-width="2" stroke-opacity="0.600000" d="M31,-238.7647C31,-203.8469 31,-155 31,-155 31,-155 89.747,-155 89.747,-155"/>
<polygon fill="#333333" fill-opacity="0.600000" stroke="#333333" stroke-width="2" stroke-opacity="0.600000" points="89.7471,-158.5001 99.747,-155 89.747,-151.5001 89.7471,-158.5001"/>
</g>
</g>
</svg>
