<?xml version="1.0" encoding="UTF-8" standalone="no"?>
<!DOCTYPE svg PUBLIC "-//W3C//DTD SVG 1.1//EN"
 "http://www.w3.org/Graphics/SVG/1.1/DTD/svg11.dtd">
<!-- Generated by graphviz version 2.40.1 (20161225.0304)
 -->
<!-- Title: ndiag Pages: 1 -->
<svg width="350pt" height="218pt"
 viewBox="0.00 0.00 350.34 218.40" xmlns="http://www.w3.org/2000/svg" xmlns:xlink="http://www.w3.org/1999/xlink">
<g id="graph0" class="graph" transform="scale(1 1) rotate(0) translate(4 214.4)">
<title>ndiag</title>
<polygon fill="#ffffff" stroke="transparent" points="-4,4 -4,-214.4 346.3394,-214.4 346.3394,4 -4,4"/>
<g id="clust3" class="cluster">
<title>cluster_app&#45;*</title>
<polygon fill="none" stroke="#000000" stroke-width="2" points="264.3394,-8 264.3394,-84.8 334.3394,-84.8 334.3394,-8 264.3394,-8"/>
<text text-anchor="middle" x="299.3394" y="-68.2" font-family="Arial" font-size="14.00" fill="#000000">app&#45;* (3)</text>
</g>
<g id="clust1" class="cluster">
<title>cluster_vip_group:lb</title>
<path fill="#4b75b9" fill-opacity="0.200000" stroke="#4b75b9" stroke-opacity="0.200000" d="M82.3394,-8C82.3394,-8 244.3394,-8 244.3394,-8 250.3394,-8 256.3394,-14 256.3394,-20 256.3394,-20 256.3394,-190.4 256.3394,-190.4 256.3394,-196.4 250.3394,-202.4 244.3394,-202.4 244.3394,-202.4 82.3394,-202.4 82.3394,-202.4 76.3394,-202.4 70.3394,-196.4 70.3394,-190.4 70.3394,-190.4 70.3394,-20 70.3394,-20 70.3394,-14 76.3394,-8 82.3394,-8"/>
<text text-anchor="middle" x="163.3394" y="-185.8" font-family="Arial" font-size="14.00" fill="#000000">vip_group:lb</text>
</g>
<g id="clust2" class="cluster">
<title>cluster_lb&#45;*</title>
<polygon fill="#ffffff" stroke="#333333" stroke-width="2" points="78.3394,-92.8 78.3394,-169.6 248.3394,-169.6 248.3394,-92.8 78.3394,-92.8"/>
<text text-anchor="middle" x="163.3394" y="-153" font-family="Arial" font-size="14.00" fill="#000000">lb&#45;* (2)</text>
</g>
<!-- lb&#45;*:nginx -->
<g id="node1" class="node">
<title>lb&#45;*:nginx</title>
<path fill="#4b75b9" stroke="#ffffff" stroke-width="2" d="M228.3394,-136.8C228.3394,-136.8 198.3394,-136.8 198.3394,-136.8 192.3394,-136.8 186.3394,-130.8 186.3394,-124.8 186.3394,-124.8 186.3394,-112.8 186.3394,-112.8 186.3394,-106.8 192.3394,-100.8 198.3394,-100.8 198.3394,-100.8 228.3394,-100.8 228.3394,-100.8 234.3394,-100.8 240.3394,-106.8 240.3394,-112.8 240.3394,-112.8 240.3394,-124.8 240.3394,-124.8 240.3394,-130.8 234.3394,-136.8 228.3394,-136.8"/>
<text text-anchor="middle" x="213.3394" y="-114.6" font-family="Arial" font-size="14.00" fill="#ffffff">nginx</text>
</g>
<!-- app&#45;*:rails -->
<g id="node4" class="node">
<title>app&#45;*:rails</title>
<path fill="#4b75b9" stroke="#ffffff" stroke-width="2" d="M314.3394,-52C314.3394,-52 284.3394,-52 284.3394,-52 278.3394,-52 272.3394,-46 272.3394,-40 272.3394,-40 272.3394,-28 272.3394,-28 272.3394,-22 278.3394,-16 284.3394,-16 284.3394,-16 314.3394,-16 314.3394,-16 320.3394,-16 326.3394,-22 326.3394,-28 326.3394,-28 326.3394,-40 326.3394,-40 326.3394,-46 320.3394,-52 314.3394,-52"/>
<text text-anchor="middle" x="299.3394" y="-29.8" font-family="Arial" font-size="14.00" fill="#ffffff">rails</text>
</g>
<!-- lb&#45;*:nginx&#45;&gt;app&#45;*:rails -->
<g id="edge3" class="edge">
<title>lb&#45;*:nginx&#45;&gt;app&#45;*:rails</title>
<path fill="none" stroke="#333333" stroke-width="2" stroke-opacity="0.600000" d="M240.5503,-118C265.7457,-118 299.3394,-118 299.3394,-118 299.3394,-118 299.3394,-62.2267 299.3394,-62.2267"/>
<polygon fill="#333333" fill-opacity="0.600000" stroke="#333333" stroke-width="2" stroke-opacity="0.600000" points="302.8395,-62.2267 299.3394,-52.2267 295.8395,-62.2268 302.8395,-62.2267"/>
</g>
<!-- lb&#45;*:keepalived -->
<g id="node2" class="node">
<title>lb&#45;*:keepalived</title>
<path fill="#4b75b9" stroke="#ffffff" stroke-width="2" d="M156.7483,-136.8C156.7483,-136.8 97.9305,-136.8 97.9305,-136.8 91.9305,-136.8 85.9305,-130.8 85.9305,-124.8 85.9305,-124.8 85.9305,-112.8 85.9305,-112.8 85.9305,-106.8 91.9305,-100.8 97.9305,-100.8 97.9305,-100.8 156.7483,-100.8 156.7483,-100.8 162.7483,-100.8 168.7483,-106.8 168.7483,-112.8 168.7483,-112.8 168.7483,-124.8 168.7483,-124.8 168.7483,-130.8 162.7483,-136.8 156.7483,-136.8"/>
<text text-anchor="middle" x="127.3394" y="-114.6" font-family="Arial" font-size="14.00" fill="#ffffff">keepalived</text>
</g>
<!-- vip_group:lb:vip -->
<g id="node3" class="node">
<title>vip_group:lb:vip</title>
<path fill="#4b75b9" stroke="#ffffff" stroke-width="2" d="M142.3394,-52C142.3394,-52 112.3394,-52 112.3394,-52 106.3394,-52 100.3394,-46 100.3394,-40 100.3394,-40 100.3394,-28 100.3394,-28 100.3394,-22 106.3394,-16 112.3394,-16 112.3394,-16 142.3394,-16 142.3394,-16 148.3394,-16 154.3394,-22 154.3394,-28 154.3394,-28 154.3394,-40 154.3394,-40 154.3394,-46 148.3394,-52 142.3394,-52"/>
<text text-anchor="middle" x="127.3394" y="-29.8" font-family="Arial" font-size="14.00" fill="#ffffff">vip</text>
</g>
<!-- lb&#45;*:keepalived&#45;&gt;vip_group:lb:vip -->
<g id="edge4" class="edge">
<title>lb&#45;*:keepalived&#45;&gt;vip_group:lb:vip</title>
<path fill="none" stroke="#4b75b9" stroke-width="2" stroke-dasharray="5,2" d="M127.3394,-100.3997C127.3394,-100.3997 127.3394,-60.0731 127.3394,-60.0731"/>
<ellipse fill="#4b75b9" stroke="#4b75b9" stroke-width="2" cx="127.3394" cy="-56.0731" rx="4" ry="4"/>
</g>
<!-- vip_group:lb:vip&#45;&gt;lb&#45;*:nginx -->
<g id="edge2" class="edge">
<title>vip_group:lb:vip&#45;&gt;lb&#45;*:nginx</title>
<path fill="none" stroke="#333333" stroke-width="2" stroke-opacity="0.600000" d="M154.5503,-34C179.7457,-34 213.3394,-34 213.3394,-34 213.3394,-34 213.3394,-90.3997 213.3394,-90.3997"/>
<polygon fill="#333333" fill-opacity="0.600000" stroke="#333333" stroke-width="2" stroke-opacity="0.600000" points="209.8395,-90.3996 213.3394,-100.3997 216.8395,-90.3997 209.8395,-90.3996"/>
</g>
<!-- internet -->
<g id="node5" class="node">
<title>internet</title>
<path fill="none" stroke="#000000" stroke-width="2" d="M50.519,-136.8C50.519,-136.8 12.1598,-136.8 12.1598,-136.8 6.1598,-136.8 .1598,-130.8 .1598,-124.8 .1598,-124.8 .1598,-112.8 .1598,-112.8 .1598,-106.8 6.1598,-100.8 12.1598,-100.8 12.1598,-100.8 50.519,-100.8 50.519,-100.8 56.519,-100.8 62.519,-106.8 62.519,-112.8 62.519,-112.8 62.519,-124.8 62.519,-124.8 62.519,-130.8 56.519,-136.8 50.519,-136.8"/>
<text text-anchor="middle" x="31.3394" y="-114.6" font-family="Arial" font-size="14.00" fill="#000000">internet</text>
</g>
<!-- internet&#45;&gt;vip_group:lb:vip -->
<g id="edge1" class="edge">
<title>internet&#45;&gt;vip_group:lb:vip</title>
<path fill="none" stroke="#333333" stroke-width="2" stroke-opacity="0.600000" d="M31.3394,-100.3997C31.3394,-75.4593 31.3394,-34 31.3394,-34 31.3394,-34 90.0864,-34 90.0864,-34"/>
<polygon fill="#333333" fill-opacity="0.600000" stroke="#333333" stroke-width="2" stroke-opacity="0.600000" points="90.0865,-37.5001 100.0864,-34 90.0864,-30.5001 90.0865,-37.5001"/>
</g>
</g>
</svg>
