<?xml version="1.0" encoding="UTF-8" standalone="no"?>
<!DOCTYPE svg PUBLIC "-//W3C//DTD SVG 1.1//EN"
 "http://www.w3.org/Graphics/SVG/1.1/DTD/svg11.dtd">
<!-- Generated by graphviz version 2.40.1 (20161225.0304)
 -->
<!-- Title: ndiag Pages: 1 -->
<svg width="210pt" height="206pt"
 viewBox="0.00 0.00 210.00 205.60" xmlns="http://www.w3.org/2000/svg" xmlns:xlink="http://www.w3.org/1999/xlink">
<g id="graph0" class="graph" transform="scale(1 1) rotate(0) translate(4 201.6)">
<title>ndiag</title>
<polygon fill="#ffffff" stroke="transparent" points="-4,4 -4,-201.6 206,-201.6 206,4 -4,4"/>
<g id="clust1" class="cluster">
<title>cluster_vip_group:lb</title>
<path fill="#4b75b9" fill-opacity="0.200000" stroke="#4b75b9" stroke-opacity="0.200000" d="M20,-8C20,-8 182,-8 182,-8 188,-8 194,-14 194,-20 194,-20 194,-177.6 194,-177.6 194,-183.6 188,-189.6 182,-189.6 182,-189.6 20,-189.6 20,-189.6 14,-189.6 8,-183.6 8,-177.6 8,-177.6 8,-20 8,-20 8,-14 14,-8 20,-8"/>
<text text-anchor="middle" x="101" y="-173" font-family="Arial" font-size="14.00" fill="#000000">vip_group:lb</text>
</g>
<g id="clust2" class="cluster">
<title>cluster_lb&#45;*</title>
<polygon fill="#ffffff" stroke="#333333" stroke-width="2" points="16,-80 16,-156.8 186,-156.8 186,-80 16,-80"/>
<text text-anchor="middle" x="101" y="-140.2" font-family="Arial" font-size="14.00" fill="#000000">lb&#45;* (2)</text>
</g>
<!-- lb&#45;*:nginx -->
<g id="node1" class="node">
<title>lb&#45;*:nginx</title>
<path fill="#4b75b9" stroke="#ffffff" stroke-width="2" d="M166,-124C166,-124 136,-124 136,-124 130,-124 124,-118 124,-112 124,-112 124,-100 124,-100 124,-94 130,-88 136,-88 136,-88 166,-88 166,-88 172,-88 178,-94 178,-100 178,-100 178,-112 178,-112 178,-118 172,-124 166,-124"/>
<text text-anchor="middle" x="151" y="-101.8" font-family="Arial" font-size="14.00" fill="#ffffff">nginx</text>
</g>
<!-- lb&#45;*:keepalived -->
<g id="node2" class="node">
<title>lb&#45;*:keepalived</title>
<path fill="#4b75b9" stroke="#ffffff" stroke-width="2" d="M94.4089,-124C94.4089,-124 35.5911,-124 35.5911,-124 29.5911,-124 23.5911,-118 23.5911,-112 23.5911,-112 23.5911,-100 23.5911,-100 23.5911,-94 29.5911,-88 35.5911,-88 35.5911,-88 94.4089,-88 94.4089,-88 100.4089,-88 106.4089,-94 106.4089,-100 106.4089,-100 106.4089,-112 106.4089,-112 106.4089,-118 100.4089,-124 94.4089,-124"/>
<text text-anchor="middle" x="65" y="-101.8" font-family="Arial" font-size="14.00" fill="#ffffff">keepalived</text>
</g>
<!-- vip_group:lb:vip -->
<g id="node3" class="node">
<title>vip_group:lb:vip</title>
<path fill="#4b75b9" stroke="#ffffff" stroke-width="2" d="M123,-52C123,-52 93,-52 93,-52 87,-52 81,-46 81,-40 81,-40 81,-28 81,-28 81,-22 87,-16 93,-16 93,-16 123,-16 123,-16 129,-16 135,-22 135,-28 135,-28 135,-40 135,-40 135,-46 129,-52 123,-52"/>
<text text-anchor="middle" x="108" y="-29.8" font-family="Arial" font-size="14.00" fill="#ffffff">vip</text>
</g>
<!-- lb&#45;*:keepalived&#45;&gt;vip_group:lb:vip -->
<g id="edge2" class="edge">
<title>lb&#45;*:keepalived&#45;&gt;vip_group:lb:vip</title>
<path fill="none" stroke="#4b75b9" stroke-width="2" stroke-dasharray="5,2" d="M93.7272,-87.8314C93.7272,-87.8314 93.7272,-60.4133 93.7272,-60.4133"/>
<ellipse fill="#4b75b9" stroke="#4b75b9" stroke-width="2" cx="93.7272" cy="-56.4133" rx="4" ry="4"/>
</g>
<!-- vip_group:lb:vip&#45;&gt;lb&#45;*:nginx -->
<g id="edge1" class="edge">
<title>vip_group:lb:vip&#45;&gt;lb&#45;*:nginx</title>
<path fill="none" stroke="#333333" stroke-width="2" stroke-opacity="0.600000" d="M129.5,-52.1686C129.5,-52.1686 129.5,-77.5867 129.5,-77.5867"/>
<polygon fill="#333333" fill-opacity="0.600000" stroke="#333333" stroke-width="2" stroke-opacity="0.600000" points="126.0001,-77.5867 129.5,-87.5867 133.0001,-77.5868 126.0001,-77.5867"/>
</g>
</g>
</svg>
