<?xml version="1.0" encoding="UTF-8" standalone="no"?>
<!DOCTYPE svg PUBLIC "-//W3C//DTD SVG 1.1//EN"
 "http://www.w3.org/Graphics/SVG/1.1/DTD/svg11.dtd">
<!-- Generated by graphviz version 2.40.1 (20161225.0304)
 -->
<!-- Title: ndiag Pages: 1 -->
<svg width="218pt" height="515pt"
 viewBox="0.00 0.00 218.00 515.20" xmlns="http://www.w3.org/2000/svg" xmlns:xlink="http://www.w3.org/1999/xlink">
<g id="graph0" class="graph" transform="scale(1 1) rotate(0) translate(4 511.2)">
<title>ndiag</title>
<polygon fill="#ffffff" stroke="transparent" points="-4,4 -4,-511.2 214,-511.2 214,4 -4,4"/>
<g id="clust1" class="cluster">
<title>cluster_consul:dc1</title>
<path fill="#4b75b9" fill-opacity="0.200000" stroke="#4b75b9" stroke-opacity="0.200000" d="M20,-8C20,-8 190,-8 190,-8 196,-8 202,-14 202,-20 202,-20 202,-487.2 202,-487.2 202,-493.2 196,-499.2 190,-499.2 190,-499.2 20,-499.2 20,-499.2 14,-499.2 8,-493.2 8,-487.2 8,-487.2 8,-20 8,-20 8,-14 14,-8 20,-8"/>
<text text-anchor="middle" x="105" y="-482.6" font-family="Arial" font-size="14.00" fill="#000000">consul:dc1</text>
</g>
<g id="clust4" class="cluster">
<title>cluster_db&#45;*</title>
<polygon fill="#ffffff" stroke="#333333" stroke-width="2" points="86,-16 86,-125.8 194,-125.8 194,-16 86,-16"/>
<text text-anchor="middle" x="140" y="-109.2" font-family="Arial" font-size="14.00" fill="#000000">db&#45;* (2)</text>
</g>
<g id="clust3" class="cluster">
<title>cluster_app&#45;*</title>
<polygon fill="#ffffff" stroke="#333333" stroke-width="2" points="108,-133.8 108,-348.6 186,-348.6 186,-133.8 108,-133.8"/>
<text text-anchor="middle" x="147" y="-332" font-family="Arial" font-size="14.00" fill="#000000">app&#45;* (3)</text>
</g>
<g id="clust2" class="cluster">
<title>cluster_lb&#45;*</title>
<polygon fill="#ffffff" stroke="#333333" stroke-width="2" points="16,-356.6 16,-466.4 194,-466.4 194,-356.6 16,-356.6"/>
<text text-anchor="middle" x="105" y="-449.8" font-family="Arial" font-size="14.00" fill="#000000">lb&#45;* (2)</text>
</g>
<!-- lb&#45;*:nginx -->
<g id="node1" class="node">
<title>lb&#45;*:nginx</title>
<path fill="#ffffff" stroke="#4b75b9" stroke-width="3" stroke-opacity="0.400000" d="M173.5,-433.6C173.5,-433.6 136.5,-433.6 136.5,-433.6 130.5,-433.6 124.5,-427.6 124.5,-421.6 124.5,-421.6 124.5,-376.6 124.5,-376.6 124.5,-370.6 130.5,-364.6 136.5,-364.6 136.5,-364.6 173.5,-364.6 173.5,-364.6 179.5,-364.6 185.5,-370.6 185.5,-376.6 185.5,-376.6 185.5,-421.6 185.5,-421.6 185.5,-427.6 179.5,-433.6 173.5,-433.6"/>
<image xlink:href="/var/folders/fp/hk95_wsj7s18mmc9drvrxdp1tt294n/T/ndiag.096600/lb-l7.svg" width="45px" height="45px" preserveAspectRatio="xMinYMin meet" x="133" y="-429.1"/>
<text text-anchor="start" x="138.7728" y="-371.5" font-family="Arial" font-size="14.00" fill="#333333">nginx</text>
</g>
<!-- app&#45;*:nginx -->
<g id="node3" class="node">
<title>app&#45;*:nginx</title>
<path fill="#ffffff" stroke="#4b75b9" stroke-width="3" stroke-opacity="0.400000" d="M165.5,-315.8C165.5,-315.8 128.5,-315.8 128.5,-315.8 122.5,-315.8 116.5,-309.8 116.5,-303.8 116.5,-303.8 116.5,-258.8 116.5,-258.8 116.5,-252.8 122.5,-246.8 128.5,-246.8 128.5,-246.8 165.5,-246.8 165.5,-246.8 171.5,-246.8 177.5,-252.8 177.5,-258.8 177.5,-258.8 177.5,-303.8 177.5,-303.8 177.5,-309.8 171.5,-315.8 165.5,-315.8"/>
<image xlink:href="/var/folders/fp/hk95_wsj7s18mmc9drvrxdp1tt294n/T/ndiag.096600/proxy.svg" width="45px" height="45px" preserveAspectRatio="xMinYMin meet" x="125" y="-311.3"/>
<text text-anchor="start" x="130.7728" y="-253.7" font-family="Arial" font-size="14.00" fill="#333333">nginx</text>
</g>
<!-- lb&#45;*:nginx&#45;&gt;app&#45;*:nginx -->
<g id="edge1" class="edge">
<title>lb&#45;*:nginx&#45;&gt;app&#45;*:nginx</title>
<path fill="none" stroke="#333333" stroke-width="2" stroke-opacity="0.600000" d="M151,-364.3933C151,-364.3933 151,-326.1657 151,-326.1657"/>
<polygon fill="#333333" fill-opacity="0.600000" stroke="#333333" stroke-width="2" stroke-opacity="0.600000" points="154.5001,-326.1657 151,-316.1657 147.5001,-326.1658 154.5001,-326.1657"/>
</g>
<!-- lb&#45;*:keepalived -->
<g id="node2" class="node">
<title>lb&#45;*:keepalived</title>
<path fill="#ffffff" stroke="#4b75b9" stroke-width="3" stroke-opacity="0.400000" d="M94,-433.6C94,-433.6 36,-433.6 36,-433.6 30,-433.6 24,-427.6 24,-421.6 24,-421.6 24,-376.6 24,-376.6 24,-370.6 30,-364.6 36,-364.6 36,-364.6 94,-364.6 94,-364.6 100,-364.6 106,-370.6 106,-376.6 106,-376.6 106,-421.6 106,-421.6 106,-427.6 100,-433.6 94,-433.6"/>
<image xlink:href="/var/folders/fp/hk95_wsj7s18mmc9drvrxdp1tt294n/T/ndiag.096600/keepalived.svg" width="60px" height="45px" preserveAspectRatio="xMinYMin meet" x="35" y="-429.1"/>
<text text-anchor="start" x="31.5456" y="-371.5" font-family="Arial" font-size="14.00" fill="#333333">keepalived</text>
</g>
<!-- app&#45;*:rails -->
<g id="node4" class="node">
<title>app&#45;*:rails</title>
<path fill="#ffffff" stroke="#4b75b9" stroke-width="3" stroke-opacity="0.400000" d="M165.5,-210.8C165.5,-210.8 128.5,-210.8 128.5,-210.8 122.5,-210.8 116.5,-204.8 116.5,-198.8 116.5,-198.8 116.5,-153.8 116.5,-153.8 116.5,-147.8 122.5,-141.8 128.5,-141.8 128.5,-141.8 165.5,-141.8 165.5,-141.8 171.5,-141.8 177.5,-147.8 177.5,-153.8 177.5,-153.8 177.5,-198.8 177.5,-198.8 177.5,-204.8 171.5,-210.8 165.5,-210.8"/>
<image xlink:href="/var/folders/fp/hk95_wsj7s18mmc9drvrxdp1tt294n/T/ndiag.096600/cube4.svg" width="45px" height="45px" preserveAspectRatio="xMinYMin meet" x="125" y="-206.3"/>
<text text-anchor="start" x="131.9488" y="-148.7" font-family="Arial" font-size="14.00" fill="#333333">Rails</text>
</g>
<!-- app&#45;*:nginx&#45;&gt;app&#45;*:rails -->
<g id="edge2" class="edge">
<title>app&#45;*:nginx&#45;&gt;app&#45;*:rails</title>
<path fill="none" stroke="#333333" stroke-width="2" stroke-opacity="0.600000" d="M147,-246.6281C147,-246.6281 147,-220.9355 147,-220.9355"/>
<polygon fill="#333333" fill-opacity="0.600000" stroke="#333333" stroke-width="2" stroke-opacity="0.600000" points="150.5001,-220.9355 147,-210.9355 143.5001,-220.9356 150.5001,-220.9355"/>
</g>
<!-- db&#45;*:postgresql -->
<g id="node5" class="node">
<title>db&#45;*:postgresql</title>
<path fill="#ffffff" stroke="#4b75b9" stroke-width="3" stroke-opacity="0.400000" d="M174,-93C174,-93 106,-93 106,-93 100,-93 94,-87 94,-81 94,-81 94,-36 94,-36 94,-30 100,-24 106,-24 106,-24 174,-24 174,-24 180,-24 186,-30 186,-36 186,-36 186,-81 186,-81 186,-87 180,-93 174,-93"/>
<image xlink:href="/var/folders/fp/hk95_wsj7s18mmc9drvrxdp1tt294n/T/ndiag.096600/db.svg" width="60px" height="45px" preserveAspectRatio="xMinYMin meet" x="110" y="-88.5"/>
<text text-anchor="start" x="101.8773" y="-30.9" font-family="Arial" font-size="14.00" fill="#333333">PostgreSQL</text>
</g>
<!-- app&#45;*:rails&#45;&gt;db&#45;*:postgresql -->
<g id="edge3" class="edge">
<title>app&#45;*:rails&#45;&gt;db&#45;*:postgresql</title>
<path fill="none" stroke="#333333" stroke-width="2" stroke-opacity="0.600000" d="M147,-141.5933C147,-141.5933 147,-103.3657 147,-103.3657"/>
<polygon fill="#333333" fill-opacity="0.600000" stroke="#333333" stroke-width="2" stroke-opacity="0.600000" points="150.5001,-103.3657 147,-93.3657 143.5001,-103.3658 150.5001,-103.3657"/>
</g>
</g>
</svg>
