<?xml version="1.0" encoding="UTF-8" standalone="no"?>
<!DOCTYPE svg PUBLIC "-//W3C//DTD SVG 1.1//EN"
 "http://www.w3.org/Graphics/SVG/1.1/DTD/svg11.dtd">
<!-- Generated by graphviz version 2.40.1 (20161225.0304)
 -->
<!-- Title: ndiag Pages: 1 -->
<svg width="218pt" height="239pt"
 viewBox="0.00 0.00 218.00 238.60" xmlns="http://www.w3.org/2000/svg" xmlns:xlink="http://www.w3.org/1999/xlink">
<g id="graph0" class="graph" transform="scale(1 1) rotate(0) translate(4 234.6)">
<title>ndiag</title>
<polygon fill="#ffffff" stroke="transparent" points="-4,4 -4,-234.6 214,-234.6 214,4 -4,4"/>
<g id="clust1" class="cluster">
<title>cluster_vip_group:lb</title>
<path fill="#4b75b9" fill-opacity="0.200000" stroke="#4b75b9" stroke-opacity="0.200000" d="M20,-8C20,-8 190,-8 190,-8 196,-8 202,-14 202,-20 202,-20 202,-210.6 202,-210.6 202,-216.6 196,-222.6 190,-222.6 190,-222.6 20,-222.6 20,-222.6 14,-222.6 8,-216.6 8,-210.6 8,-210.6 8,-20 8,-20 8,-14 14,-8 20,-8"/>
<text text-anchor="middle" x="105" y="-206" font-family="Arial" font-size="14.00" fill="#000000">vip_group:lb</text>
</g>
<g id="clust2" class="cluster">
<title>cluster_lb&#45;*</title>
<polygon fill="#ffffff" stroke="#333333" stroke-width="2" points="16,-80 16,-189.8 194,-189.8 194,-80 16,-80"/>
<text text-anchor="middle" x="105" y="-173.2" font-family="Arial" font-size="14.00" fill="#000000">lb&#45;* (2)</text>
</g>
<!-- lb&#45;*:nginx -->
<g id="node1" class="node">
<title>lb&#45;*:nginx</title>
<path fill="#ffffff" stroke="#4b75b9" stroke-width="3" stroke-opacity="0.400000" d="M173.5,-157C173.5,-157 136.5,-157 136.5,-157 130.5,-157 124.5,-151 124.5,-145 124.5,-145 124.5,-100 124.5,-100 124.5,-94 130.5,-88 136.5,-88 136.5,-88 173.5,-88 173.5,-88 179.5,-88 185.5,-94 185.5,-100 185.5,-100 185.5,-145 185.5,-145 185.5,-151 179.5,-157 173.5,-157"/>
<image xlink:href="/var/folders/fp/hk95_wsj7s18mmc9drvrxdp1tt294n/T/ndiag.023826/lb-l7.svg" width="45px" height="45px" preserveAspectRatio="xMinYMin meet" x="133" y="-152.5"/>
<text text-anchor="start" x="138.7728" y="-94.9" font-family="Arial" font-size="14.00" fill="#333333">nginx</text>
</g>
<!-- lb&#45;*:keepalived -->
<g id="node2" class="node">
<title>lb&#45;*:keepalived</title>
<path fill="#ffffff" stroke="#4b75b9" stroke-width="3" stroke-opacity="0.400000" d="M94,-157C94,-157 36,-157 36,-157 30,-157 24,-151 24,-145 24,-145 24,-100 24,-100 24,-94 30,-88 36,-88 36,-88 94,-88 94,-88 100,-88 106,-94 106,-100 106,-100 106,-145 106,-145 106,-151 100,-157 94,-157"/>
<image xlink:href="/var/folders/fp/hk95_wsj7s18mmc9drvrxdp1tt294n/T/ndiag.023826/keepalived.svg" width="60px" height="45px" preserveAspectRatio="xMinYMin meet" x="35" y="-152.5"/>
<text text-anchor="start" x="31.5456" y="-94.9" font-family="Arial" font-size="14.00" fill="#333333">keepalived</text>
</g>
<!-- vip_group:lb:vip -->
<g id="node3" class="node">
<title>vip_group:lb:vip</title>
<path fill="#ffffff" stroke="#4b75b9" stroke-width="3" d="M125,-52C125,-52 95,-52 95,-52 89,-52 83,-46 83,-40 83,-40 83,-28 83,-28 83,-22 89,-16 95,-16 95,-16 125,-16 125,-16 131,-16 137,-22 137,-28 137,-28 137,-40 137,-40 137,-46 131,-52 125,-52"/>
<text text-anchor="middle" x="110" y="-29.8" font-family="Arial" font-size="14.00" fill="#333333">vip</text>
</g>
<!-- lb&#45;*:keepalived&#45;&gt;vip_group:lb:vip -->
<g id="edge2" class="edge">
<title>lb&#45;*:keepalived&#45;&gt;vip_group:lb:vip</title>
<path fill="none" stroke="#4b75b9" stroke-width="2" stroke-dasharray="5,2" d="M94.5,-87.7765C94.5,-87.7765 94.5,-60.0777 94.5,-60.0777"/>
<ellipse fill="#4b75b9" stroke="#4b75b9" stroke-width="2" cx="94.5" cy="-56.0777" rx="4" ry="4"/>
</g>
<!-- vip_group:lb:vip&#45;&gt;lb&#45;*:nginx -->
<g id="edge1" class="edge">
<title>vip_group:lb:vip&#45;&gt;lb&#45;*:nginx</title>
<path fill="none" stroke="#333333" stroke-width="2" stroke-opacity="0.600000" d="M130.75,-52.3373C130.75,-52.3373 130.75,-77.7308 130.75,-77.7308"/>
<polygon fill="#333333" fill-opacity="0.600000" stroke="#333333" stroke-width="2" stroke-opacity="0.600000" points="127.2501,-77.7308 130.75,-87.7308 134.2501,-77.7309 127.2501,-77.7308"/>
</g>
</g>
</svg>
