<?xml version="1.0" encoding="UTF-8" standalone="no"?>
<!DOCTYPE svg PUBLIC "-//W3C//DTD SVG 1.1//EN"
 "http://www.w3.org/Graphics/SVG/1.1/DTD/svg11.dtd">
<!-- Generated by graphviz version 2.40.1 (20161225.0304)
 -->
<!-- Title: ndiag Pages: 1 -->
<svg width="132pt" height="252pt"
 viewBox="0.00 0.00 132.00 251.60" xmlns="http://www.w3.org/2000/svg" xmlns:xlink="http://www.w3.org/1999/xlink">
<g id="graph0" class="graph" transform="scale(1 1) rotate(0) translate(4 247.6)">
<title>ndiag</title>
<polygon fill="#ffffff" stroke="transparent" points="-4,4 -4,-247.6 128,-247.6 128,4 -4,4"/>
<g id="clust2" class="cluster">
<title>cluster_app&#45;*</title>
<polygon fill="none" stroke="#999999" stroke-width="2" points="23,-125.8 23,-235.6 101,-235.6 101,-125.8 23,-125.8"/>
<text text-anchor="middle" x="62" y="-219" font-family="Arial" font-size="14.00" fill="#666666">app&#45;* (3)</text>
</g>
<g id="clust1" class="cluster">
<title>cluster_db&#45;*</title>
<polygon fill="none" stroke="#000000" stroke-width="2" points="8,-8 8,-117.8 116,-117.8 116,-8 8,-8"/>
<text text-anchor="middle" x="62" y="-101.2" font-family="Arial" font-size="14.00" fill="#000000">db&#45;* (2)</text>
</g>
<!-- db&#45;*:postgresql -->
<g id="node1" class="node">
<title>db&#45;*:postgresql</title>
<path fill="#ffffff" stroke="#4b75b9" stroke-width="3" stroke-opacity="0.400000" d="M96,-85C96,-85 28,-85 28,-85 22,-85 16,-79 16,-73 16,-73 16,-28 16,-28 16,-22 22,-16 28,-16 28,-16 96,-16 96,-16 102,-16 108,-22 108,-28 108,-28 108,-73 108,-73 108,-79 102,-85 96,-85"/>
<image xlink:href="/var/folders/fp/hk95_wsj7s18mmc9drvrxdp1tt294n/T/ndiag.078573/db.svg" width="60px" height="45px" preserveAspectRatio="xMinYMin meet" x="32" y="-80.5"/>
<text text-anchor="start" x="23.8773" y="-22.9" font-family="Arial" font-size="14.00" fill="#333333">PostgreSQL</text>
</g>
<!-- app&#45;*:rails -->
<g id="node2" class="node">
<title>app&#45;*:rails</title>
<path fill="#ffffff" stroke="#4b75b9" stroke-width="3" stroke-opacity="0.400000" d="M80.5,-202.8C80.5,-202.8 43.5,-202.8 43.5,-202.8 37.5,-202.8 31.5,-196.8 31.5,-190.8 31.5,-190.8 31.5,-145.8 31.5,-145.8 31.5,-139.8 37.5,-133.8 43.5,-133.8 43.5,-133.8 80.5,-133.8 80.5,-133.8 86.5,-133.8 92.5,-139.8 92.5,-145.8 92.5,-145.8 92.5,-190.8 92.5,-190.8 92.5,-196.8 86.5,-202.8 80.5,-202.8"/>
<image xlink:href="/var/folders/fp/hk95_wsj7s18mmc9drvrxdp1tt294n/T/ndiag.078573/cube4.svg" width="45px" height="45px" preserveAspectRatio="xMinYMin meet" x="40" y="-198.3"/>
<text text-anchor="start" x="46.9488" y="-140.7" font-family="Arial" font-size="14.00" fill="#333333">Rails</text>
</g>
<!-- app&#45;*:rails&#45;&gt;db&#45;*:postgresql -->
<g id="edge1" class="edge">
<title>app&#45;*:rails&#45;&gt;db&#45;*:postgresql</title>
<path fill="none" stroke="#333333" stroke-width="2" stroke-opacity="0.600000" d="M62,-133.5933C62,-133.5933 62,-95.3657 62,-95.3657"/>
<polygon fill="#333333" fill-opacity="0.600000" stroke="#333333" stroke-width="2" stroke-opacity="0.600000" points="65.5001,-95.3657 62,-85.3657 58.5001,-95.3658 65.5001,-95.3657"/>
</g>
</g>
</svg>
