<?xml version="1.0" encoding="UTF-8" standalone="no"?>
<!DOCTYPE svg PUBLIC "-//W3C//DTD SVG 1.1//EN"
 "http://www.w3.org/Graphics/SVG/1.1/DTD/svg11.dtd">
<!-- Generated by graphviz version 2.40.1 (20161225.0304)
 -->
<!-- Title: ndiag Pages: 1 -->
<svg width="194pt" height="270pt"
 viewBox="0.00 0.00 194.00 270.40" xmlns="http://www.w3.org/2000/svg" xmlns:xlink="http://www.w3.org/1999/xlink">
<g id="graph0" class="graph" transform="scale(1 1) rotate(0) translate(4 266.4)">
<title>ndiag</title>
<polygon fill="#ffffff" stroke="transparent" points="-4,4 -4,-266.4 190,-266.4 190,4 -4,4"/>
<g id="clust3" class="cluster">
<title>cluster_app&#45;*</title>
<polygon fill="none" stroke="#999999" stroke-width="2" points="108,-8 108,-84.8 178,-84.8 178,-8 108,-8"/>
<text text-anchor="middle" x="143" y="-68.2" font-family="Arial" font-size="14.00" fill="#666666">app&#45;* (3)</text>
</g>
<g id="clust2" class="cluster">
<title>cluster_lb&#45;*</title>
<polygon fill="none" stroke="#000000" stroke-width="2" points="8,-92.8 8,-169.6 178,-169.6 178,-92.8 8,-92.8"/>
<text text-anchor="middle" x="93" y="-153" font-family="Arial" font-size="14.00" fill="#000000">lb&#45;* (2)</text>
</g>
<g id="clust1" class="cluster">
<title>cluster_vip_group:lb</title>
<path fill="#4b75b9" fill-opacity="0.200000" stroke="#4b75b9" stroke-opacity="0.200000" d="M62,-177.6C62,-177.6 130,-177.6 130,-177.6 136,-177.6 142,-183.6 142,-189.6 142,-189.6 142,-242.4 142,-242.4 142,-248.4 136,-254.4 130,-254.4 130,-254.4 62,-254.4 62,-254.4 56,-254.4 50,-248.4 50,-242.4 50,-242.4 50,-189.6 50,-189.6 50,-183.6 56,-177.6 62,-177.6"/>
<text text-anchor="middle" x="96" y="-237.8" font-family="Arial" font-size="14.00" fill="#000000">vip_group:lb</text>
</g>
<!-- vip_group:lb:vip -->
<g id="node1" class="node">
<title>vip_group:lb:vip</title>
<path fill="#4b75b9" stroke="#ffffff" stroke-width="2" d="M107,-221.6C107,-221.6 77,-221.6 77,-221.6 71,-221.6 65,-215.6 65,-209.6 65,-209.6 65,-197.6 65,-197.6 65,-191.6 71,-185.6 77,-185.6 77,-185.6 107,-185.6 107,-185.6 113,-185.6 119,-191.6 119,-197.6 119,-197.6 119,-209.6 119,-209.6 119,-215.6 113,-221.6 107,-221.6"/>
<text text-anchor="middle" x="92" y="-199.4" font-family="Arial" font-size="14.00" fill="#ffffff">vip</text>
</g>
<!-- lb&#45;*:nginx -->
<g id="node2" class="node">
<title>lb&#45;*:nginx</title>
<path fill="#4b75b9" stroke="#ffffff" stroke-width="2" d="M158,-136.8C158,-136.8 128,-136.8 128,-136.8 122,-136.8 116,-130.8 116,-124.8 116,-124.8 116,-112.8 116,-112.8 116,-106.8 122,-100.8 128,-100.8 128,-100.8 158,-100.8 158,-100.8 164,-100.8 170,-106.8 170,-112.8 170,-112.8 170,-124.8 170,-124.8 170,-130.8 164,-136.8 158,-136.8"/>
<text text-anchor="middle" x="143" y="-114.6" font-family="Arial" font-size="14.00" fill="#ffffff">nginx</text>
</g>
<!-- vip_group:lb:vip&#45;&gt;lb&#45;*:nginx -->
<g id="edge1" class="edge">
<title>vip_group:lb:vip&#45;&gt;lb&#45;*:nginx</title>
<path fill="none" stroke="#333333" stroke-width="2" stroke-opacity="0.600000" d="M107.2272,-185.4464C107.2272,-160.3193 107.2272,-118 107.2272,-118 107.2272,-118 108.0932,-118 108.0932,-118"/>
<polygon fill="#333333" fill-opacity="0.600000" stroke="#333333" stroke-width="2" stroke-opacity="0.600000" points="105.8868,-121.5001 115.8868,-118 105.8868,-114.5001 105.8868,-121.5001"/>
</g>
<!-- app&#45;*:rails -->
<g id="node4" class="node">
<title>app&#45;*:rails</title>
<path fill="#4b75b9" stroke="#ffffff" stroke-width="2" d="M158,-52C158,-52 128,-52 128,-52 122,-52 116,-46 116,-40 116,-40 116,-28 116,-28 116,-22 122,-16 128,-16 128,-16 158,-16 158,-16 164,-16 170,-22 170,-28 170,-28 170,-40 170,-40 170,-46 164,-52 158,-52"/>
<text text-anchor="middle" x="143" y="-29.8" font-family="Arial" font-size="14.00" fill="#ffffff">rails</text>
</g>
<!-- lb&#45;*:nginx&#45;&gt;app&#45;*:rails -->
<g id="edge2" class="edge">
<title>lb&#45;*:nginx&#45;&gt;app&#45;*:rails</title>
<path fill="none" stroke="#333333" stroke-width="2" stroke-opacity="0.600000" d="M143,-100.3997C143,-100.3997 143,-62.0731 143,-62.0731"/>
<polygon fill="#333333" fill-opacity="0.600000" stroke="#333333" stroke-width="2" stroke-opacity="0.600000" points="146.5001,-62.0731 143,-52.0731 139.5001,-62.0731 146.5001,-62.0731"/>
</g>
<!-- lb&#45;*:keepalived -->
<g id="node3" class="node">
<title>lb&#45;*:keepalived</title>
<path fill="#4b75b9" stroke="#ffffff" stroke-width="2" d="M86.4089,-136.8C86.4089,-136.8 27.5911,-136.8 27.5911,-136.8 21.5911,-136.8 15.5911,-130.8 15.5911,-124.8 15.5911,-124.8 15.5911,-112.8 15.5911,-112.8 15.5911,-106.8 21.5911,-100.8 27.5911,-100.8 27.5911,-100.8 86.4089,-100.8 86.4089,-100.8 92.4089,-100.8 98.4089,-106.8 98.4089,-112.8 98.4089,-112.8 98.4089,-124.8 98.4089,-124.8 98.4089,-130.8 92.4089,-136.8 86.4089,-136.8"/>
<text text-anchor="middle" x="57" y="-114.6" font-family="Arial" font-size="14.00" fill="#ffffff">keepalived</text>
</g>
<!-- lb&#45;*:keepalived&#45;&gt;vip_group:lb:vip -->
<g id="edge3" class="edge">
<title>lb&#45;*:keepalived&#45;&gt;vip_group:lb:vip</title>
<path fill="none" stroke="#4b75b9" stroke-width="2" stroke-dasharray="5,2" d="M81.7272,-137.2003C81.7272,-137.2003 81.7272,-177.5269 81.7272,-177.5269"/>
<ellipse fill="#4b75b9" stroke="#4b75b9" stroke-width="2" cx="81.7272" cy="-181.5269" rx="4" ry="4"/>
</g>
</g>
</svg>
