<?xml version="1.0" encoding="UTF-8" standalone="no"?>
<!DOCTYPE svg PUBLIC "-//W3C//DTD SVG 1.1//EN"
 "http://www.w3.org/Graphics/SVG/1.1/DTD/svg11.dtd">
<!-- Generated by graphviz version 2.40.1 (20161225.0304)
 -->
<!-- Title: ndiag Pages: 1 -->
<svg width="202pt" height="336pt"
 viewBox="0.00 0.00 202.00 336.40" xmlns="http://www.w3.org/2000/svg" xmlns:xlink="http://www.w3.org/1999/xlink">
<g id="graph0" class="graph" transform="scale(1 1) rotate(0) translate(4 332.4)">
<title>ndiag</title>
<polygon fill="#ffffff" stroke="transparent" points="-4,4 -4,-332.4 198,-332.4 198,4 -4,4"/>
<g id="clust3" class="cluster">
<title>cluster_app&#45;*</title>
<polygon fill="none" stroke="#999999" stroke-width="2" points="108,-8 108,-117.8 186,-117.8 186,-8 108,-8"/>
<text text-anchor="middle" x="147" y="-101.2" font-family="Arial" font-size="14.00" fill="#666666">app&#45;* (3)</text>
</g>
<g id="clust2" class="cluster">
<title>cluster_lb&#45;*</title>
<polygon fill="none" stroke="#000000" stroke-width="2" points="8,-125.8 8,-235.6 186,-235.6 186,-125.8 8,-125.8"/>
<text text-anchor="middle" x="97" y="-219" font-family="Arial" font-size="14.00" fill="#000000">lb&#45;* (2)</text>
</g>
<g id="clust1" class="cluster">
<title>cluster_vip_group:lb</title>
<path fill="#4b75b9" fill-opacity="0.200000" stroke="#4b75b9" stroke-opacity="0.200000" d="M66,-243.6C66,-243.6 134,-243.6 134,-243.6 140,-243.6 146,-249.6 146,-255.6 146,-255.6 146,-308.4 146,-308.4 146,-314.4 140,-320.4 134,-320.4 134,-320.4 66,-320.4 66,-320.4 60,-320.4 54,-314.4 54,-308.4 54,-308.4 54,-255.6 54,-255.6 54,-249.6 60,-243.6 66,-243.6"/>
<text text-anchor="middle" x="100" y="-303.8" font-family="Arial" font-size="14.00" fill="#000000">vip_group:lb</text>
</g>
<!-- vip_group:lb:vip -->
<g id="node1" class="node">
<title>vip_group:lb:vip</title>
<path fill="#ffffff" stroke="#4b75b9" stroke-width="3" d="M111,-287.6C111,-287.6 81,-287.6 81,-287.6 75,-287.6 69,-281.6 69,-275.6 69,-275.6 69,-263.6 69,-263.6 69,-257.6 75,-251.6 81,-251.6 81,-251.6 111,-251.6 111,-251.6 117,-251.6 123,-257.6 123,-263.6 123,-263.6 123,-275.6 123,-275.6 123,-281.6 117,-287.6 111,-287.6"/>
<text text-anchor="middle" x="96" y="-265.4" font-family="Arial" font-size="14.00" fill="#333333">vip</text>
</g>
<!-- lb&#45;*:nginx -->
<g id="node2" class="node">
<title>lb&#45;*:nginx</title>
<path fill="#ffffff" stroke="#4b75b9" stroke-width="3" stroke-opacity="0.400000" d="M165.5,-202.8C165.5,-202.8 128.5,-202.8 128.5,-202.8 122.5,-202.8 116.5,-196.8 116.5,-190.8 116.5,-190.8 116.5,-145.8 116.5,-145.8 116.5,-139.8 122.5,-133.8 128.5,-133.8 128.5,-133.8 165.5,-133.8 165.5,-133.8 171.5,-133.8 177.5,-139.8 177.5,-145.8 177.5,-145.8 177.5,-190.8 177.5,-190.8 177.5,-196.8 171.5,-202.8 165.5,-202.8"/>
<image xlink:href="/var/folders/fp/hk95_wsj7s18mmc9drvrxdp1tt294n/T/ndiag.074091/lb-l7.svg" width="45px" height="45px" preserveAspectRatio="xMinYMin meet" x="125" y="-198.3"/>
<text text-anchor="start" x="130.7728" y="-140.7" font-family="Arial" font-size="14.00" fill="#333333">nginx</text>
</g>
<!-- vip_group:lb:vip&#45;&gt;lb&#45;*:nginx -->
<g id="edge1" class="edge">
<title>vip_group:lb:vip&#45;&gt;lb&#45;*:nginx</title>
<path fill="none" stroke="#333333" stroke-width="2" stroke-opacity="0.600000" d="M107.25,-251.436C107.25,-222.2122 107.25,-168 107.25,-168 107.25,-168 108.1719,-168 108.1719,-168"/>
<polygon fill="#333333" fill-opacity="0.600000" stroke="#333333" stroke-width="2" stroke-opacity="0.600000" points="106.4694,-171.5001 116.4694,-168 106.4693,-164.5001 106.4694,-171.5001"/>
</g>
<!-- app&#45;*:nginx -->
<g id="node4" class="node">
<title>app&#45;*:nginx</title>
<path fill="#ffffff" stroke="#4b75b9" stroke-width="3" stroke-opacity="0.400000" d="M165.5,-85C165.5,-85 128.5,-85 128.5,-85 122.5,-85 116.5,-79 116.5,-73 116.5,-73 116.5,-28 116.5,-28 116.5,-22 122.5,-16 128.5,-16 128.5,-16 165.5,-16 165.5,-16 171.5,-16 177.5,-22 177.5,-28 177.5,-28 177.5,-73 177.5,-73 177.5,-79 171.5,-85 165.5,-85"/>
<image xlink:href="/var/folders/fp/hk95_wsj7s18mmc9drvrxdp1tt294n/T/ndiag.074091/proxy.svg" width="45px" height="45px" preserveAspectRatio="xMinYMin meet" x="125" y="-80.5"/>
<text text-anchor="start" x="130.7728" y="-22.9" font-family="Arial" font-size="14.00" fill="#333333">nginx</text>
</g>
<!-- lb&#45;*:nginx&#45;&gt;app&#45;*:nginx -->
<g id="edge2" class="edge">
<title>lb&#45;*:nginx&#45;&gt;app&#45;*:nginx</title>
<path fill="none" stroke="#333333" stroke-width="2" stroke-opacity="0.600000" d="M147,-133.5933C147,-133.5933 147,-95.3657 147,-95.3657"/>
<polygon fill="#333333" fill-opacity="0.600000" stroke="#333333" stroke-width="2" stroke-opacity="0.600000" points="150.5001,-95.3657 147,-85.3657 143.5001,-95.3658 150.5001,-95.3657"/>
</g>
<!-- lb&#45;*:keepalived -->
<g id="node3" class="node">
<title>lb&#45;*:keepalived</title>
<path fill="#ffffff" stroke="#4b75b9" stroke-width="3" stroke-opacity="0.400000" d="M86,-202.8C86,-202.8 28,-202.8 28,-202.8 22,-202.8 16,-196.8 16,-190.8 16,-190.8 16,-145.8 16,-145.8 16,-139.8 22,-133.8 28,-133.8 28,-133.8 86,-133.8 86,-133.8 92,-133.8 98,-139.8 98,-145.8 98,-145.8 98,-190.8 98,-190.8 98,-196.8 92,-202.8 86,-202.8"/>
<image xlink:href="/var/folders/fp/hk95_wsj7s18mmc9drvrxdp1tt294n/T/ndiag.074091/keepalived.svg" width="60px" height="45px" preserveAspectRatio="xMinYMin meet" x="27" y="-198.3"/>
<text text-anchor="start" x="23.5456" y="-140.7" font-family="Arial" font-size="14.00" fill="#333333">keepalived</text>
</g>
<!-- lb&#45;*:keepalived&#45;&gt;vip_group:lb:vip -->
<g id="edge3" class="edge">
<title>lb&#45;*:keepalived&#45;&gt;vip_group:lb:vip</title>
<path fill="none" stroke="#4b75b9" stroke-width="2" stroke-dasharray="5,2" d="M83.5,-202.8784C83.5,-202.8784 83.5,-243.3744 83.5,-243.3744"/>
<ellipse fill="#4b75b9" stroke="#4b75b9" stroke-width="2" cx="83.5" cy="-247.3744" rx="4" ry="4"/>
</g>
</g>
</svg>
