<?xml version="1.0" encoding="UTF-8" standalone="no"?>
<!DOCTYPE svg PUBLIC "-//W3C//DTD SVG 1.1//EN"
 "http://www.w3.org/Graphics/SVG/1.1/DTD/svg11.dtd">
<!-- Generated by graphviz version 2.40.1 (20161225.0304)
 -->
<!-- Title: ndiag Pages: 1 -->
<svg width="202pt" height="510pt"
 viewBox="0.00 0.00 202.00 510.40" xmlns="http://www.w3.org/2000/svg" xmlns:xlink="http://www.w3.org/1999/xlink">
<g id="graph0" class="graph" transform="scale(1 1) rotate(0) translate(4 506.4)">
<title>ndiag</title>
<polygon fill="#ffffff" stroke="transparent" points="-4,4 -4,-506.4 198,-506.4 198,4 -4,4"/>
<g id="clust3" class="cluster">
<title>cluster_app&#45;*</title>
<polygon fill="none" stroke="#000000" stroke-width="2" points="108,-8 108,-222.8 186,-222.8 186,-8 108,-8"/>
<text text-anchor="middle" x="147" y="-206.2" font-family="Arial" font-size="14.00" fill="#000000">app&#45;* (3)</text>
</g>
<g id="clust2" class="cluster">
<title>cluster_lb&#45;*</title>
<polygon fill="none" stroke="#000000" stroke-width="2" points="8,-230.8 8,-340.6 186,-340.6 186,-230.8 8,-230.8"/>
<text text-anchor="middle" x="97" y="-324" font-family="Arial" font-size="14.00" fill="#000000">lb&#45;* (2)</text>
</g>
<g id="clust1" class="cluster">
<title>cluster_vip_group:lb</title>
<path fill="#4b75b9" fill-opacity="0.200000" stroke="#4b75b9" stroke-opacity="0.200000" d="M66,-348.6C66,-348.6 134,-348.6 134,-348.6 140,-348.6 146,-354.6 146,-360.6 146,-360.6 146,-413.4 146,-413.4 146,-419.4 140,-425.4 134,-425.4 134,-425.4 66,-425.4 66,-425.4 60,-425.4 54,-419.4 54,-413.4 54,-413.4 54,-360.6 54,-360.6 54,-354.6 60,-348.6 66,-348.6"/>
<text text-anchor="middle" x="100" y="-408.8" font-family="Arial" font-size="14.00" fill="#000000">vip_group:lb</text>
</g>
<!-- vip_group:lb:vip -->
<g id="node1" class="node">
<title>vip_group:lb:vip</title>
<path fill="#ffffff" stroke="#4b75b9" stroke-width="3" d="M111,-392.6C111,-392.6 81,-392.6 81,-392.6 75,-392.6 69,-386.6 69,-380.6 69,-380.6 69,-368.6 69,-368.6 69,-362.6 75,-356.6 81,-356.6 81,-356.6 111,-356.6 111,-356.6 117,-356.6 123,-362.6 123,-368.6 123,-368.6 123,-380.6 123,-380.6 123,-386.6 117,-392.6 111,-392.6"/>
<text text-anchor="middle" x="96" y="-370.4" font-family="Arial" font-size="14.00" fill="#333333">vip</text>
</g>
<!-- lb&#45;*:nginx -->
<g id="node2" class="node">
<title>lb&#45;*:nginx</title>
<path fill="#ffffff" stroke="#4b75b9" stroke-width="3" stroke-opacity="0.400000" d="M165.5,-307.8C165.5,-307.8 128.5,-307.8 128.5,-307.8 122.5,-307.8 116.5,-301.8 116.5,-295.8 116.5,-295.8 116.5,-250.8 116.5,-250.8 116.5,-244.8 122.5,-238.8 128.5,-238.8 128.5,-238.8 165.5,-238.8 165.5,-238.8 171.5,-238.8 177.5,-244.8 177.5,-250.8 177.5,-250.8 177.5,-295.8 177.5,-295.8 177.5,-301.8 171.5,-307.8 165.5,-307.8"/>
<image xlink:href="/var/folders/fp/hk95_wsj7s18mmc9drvrxdp1tt294n/T/ndiag.008458/lb-l7.svg" width="45px" height="45px" preserveAspectRatio="xMinYMin meet" x="125" y="-303.3"/>
<text text-anchor="start" x="130.7728" y="-245.7" font-family="Arial" font-size="14.00" fill="#333333">nginx</text>
</g>
<!-- vip_group:lb:vip&#45;&gt;lb&#45;*:nginx -->
<g id="edge2" class="edge">
<title>vip_group:lb:vip&#45;&gt;lb&#45;*:nginx</title>
<path fill="none" stroke="#333333" stroke-width="2" stroke-opacity="0.600000" d="M107.25,-356.436C107.25,-327.2122 107.25,-273 107.25,-273 107.25,-273 108.1719,-273 108.1719,-273"/>
<polygon fill="#333333" fill-opacity="0.600000" stroke="#333333" stroke-width="2" stroke-opacity="0.600000" points="106.4694,-276.5001 116.4694,-273 106.4693,-269.5001 106.4694,-276.5001"/>
</g>
<!-- app&#45;*:nginx -->
<g id="node4" class="node">
<title>app&#45;*:nginx</title>
<path fill="#ffffff" stroke="#4b75b9" stroke-width="3" stroke-opacity="0.400000" d="M165.5,-190C165.5,-190 128.5,-190 128.5,-190 122.5,-190 116.5,-184 116.5,-178 116.5,-178 116.5,-133 116.5,-133 116.5,-127 122.5,-121 128.5,-121 128.5,-121 165.5,-121 165.5,-121 171.5,-121 177.5,-127 177.5,-133 177.5,-133 177.5,-178 177.5,-178 177.5,-184 171.5,-190 165.5,-190"/>
<image xlink:href="/var/folders/fp/hk95_wsj7s18mmc9drvrxdp1tt294n/T/ndiag.008458/proxy.svg" width="45px" height="45px" preserveAspectRatio="xMinYMin meet" x="125" y="-185.5"/>
<text text-anchor="start" x="130.7728" y="-127.9" font-family="Arial" font-size="14.00" fill="#333333">nginx</text>
</g>
<!-- lb&#45;*:nginx&#45;&gt;app&#45;*:nginx -->
<g id="edge3" class="edge">
<title>lb&#45;*:nginx&#45;&gt;app&#45;*:nginx</title>
<path fill="none" stroke="#333333" stroke-width="2" stroke-opacity="0.600000" d="M147,-238.5933C147,-238.5933 147,-200.3657 147,-200.3657"/>
<polygon fill="#333333" fill-opacity="0.600000" stroke="#333333" stroke-width="2" stroke-opacity="0.600000" points="150.5001,-200.3657 147,-190.3657 143.5001,-200.3658 150.5001,-200.3657"/>
</g>
<!-- lb&#45;*:keepalived -->
<g id="node3" class="node">
<title>lb&#45;*:keepalived</title>
<path fill="#ffffff" stroke="#4b75b9" stroke-width="3" stroke-opacity="0.400000" d="M86,-307.8C86,-307.8 28,-307.8 28,-307.8 22,-307.8 16,-301.8 16,-295.8 16,-295.8 16,-250.8 16,-250.8 16,-244.8 22,-238.8 28,-238.8 28,-238.8 86,-238.8 86,-238.8 92,-238.8 98,-244.8 98,-250.8 98,-250.8 98,-295.8 98,-295.8 98,-301.8 92,-307.8 86,-307.8"/>
<image xlink:href="/var/folders/fp/hk95_wsj7s18mmc9drvrxdp1tt294n/T/ndiag.008458/keepalived.svg" width="60px" height="45px" preserveAspectRatio="xMinYMin meet" x="27" y="-303.3"/>
<text text-anchor="start" x="23.5456" y="-245.7" font-family="Arial" font-size="14.00" fill="#333333">keepalived</text>
</g>
<!-- lb&#45;*:keepalived&#45;&gt;vip_group:lb:vip -->
<g id="edge5" class="edge">
<title>lb&#45;*:keepalived&#45;&gt;vip_group:lb:vip</title>
<path fill="none" stroke="#4b75b9" stroke-width="2" stroke-dasharray="5,2" d="M83.5,-307.8784C83.5,-307.8784 83.5,-348.3744 83.5,-348.3744"/>
<ellipse fill="#4b75b9" stroke="#4b75b9" stroke-width="2" cx="83.5" cy="-352.3744" rx="4" ry="4"/>
</g>
<!-- app&#45;*:rails -->
<g id="node5" class="node">
<title>app&#45;*:rails</title>
<path fill="#ffffff" stroke="#4b75b9" stroke-width="3" stroke-opacity="0.400000" d="M165.5,-85C165.5,-85 128.5,-85 128.5,-85 122.5,-85 116.5,-79 116.5,-73 116.5,-73 116.5,-28 116.5,-28 116.5,-22 122.5,-16 128.5,-16 128.5,-16 165.5,-16 165.5,-16 171.5,-16 177.5,-22 177.5,-28 177.5,-28 177.5,-73 177.5,-73 177.5,-79 171.5,-85 165.5,-85"/>
<image xlink:href="/var/folders/fp/hk95_wsj7s18mmc9drvrxdp1tt294n/T/ndiag.008458/cube4.svg" width="45px" height="45px" preserveAspectRatio="xMinYMin meet" x="125" y="-80.5"/>
<text text-anchor="start" x="131.9488" y="-22.9" font-family="Arial" font-size="14.00" fill="#333333">Rails</text>
</g>
<!-- app&#45;*:nginx&#45;&gt;app&#45;*:rails -->
<g id="edge4" class="edge">
<title>app&#45;*:nginx&#45;&gt;app&#45;*:rails</title>
<path fill="none" stroke="#333333" stroke-width="2" stroke-opacity="0.600000" d="M147,-120.8281C147,-120.8281 147,-95.1355 147,-95.1355"/>
<polygon fill="#333333" fill-opacity="0.600000" stroke="#333333" stroke-width="2" stroke-opacity="0.600000" points="150.5001,-95.1355 147,-85.1355 143.5001,-95.1356 150.5001,-95.1355"/>
</g>
<!-- internet -->
<g id="node6" class="node">
<title>internet</title>
<path fill="none" stroke="#000000" stroke-width="2" d="M115,-502.4C115,-502.4 77,-502.4 77,-502.4 71,-502.4 65,-496.4 65,-490.4 65,-490.4 65,-445.4 65,-445.4 65,-439.4 71,-433.4 77,-433.4 77,-433.4 115,-433.4 115,-433.4 121,-433.4 127,-439.4 127,-445.4 127,-445.4 127,-490.4 127,-490.4 127,-496.4 121,-502.4 115,-502.4"/>
<image xlink:href="/var/folders/fp/hk95_wsj7s18mmc9drvrxdp1tt294n/T/ndiag.008458/cloud.svg" width="46px" height="45px" preserveAspectRatio="xMinYMin meet" x="73" y="-497.9"/>
<text text-anchor="start" x="72.6606" y="-440.3" font-family="Arial" font-size="14.00" fill="#333333">internet</text>
</g>
<!-- internet&#45;&gt;vip_group:lb:vip -->
<g id="edge1" class="edge">
<title>internet&#45;&gt;vip_group:lb:vip</title>
<path fill="none" stroke="#333333" stroke-width="2" stroke-opacity="0.600000" d="M96,-433.1585C96,-433.1585 96,-402.6203 96,-402.6203"/>
<polygon fill="#333333" fill-opacity="0.600000" stroke="#333333" stroke-width="2" stroke-opacity="0.600000" points="99.5001,-402.6202 96,-392.6203 92.5001,-402.6203 99.5001,-402.6202"/>
</g>
</g>
</svg>
