<?xml version="1.0" encoding="UTF-8" standalone="no"?>
<!DOCTYPE svg PUBLIC "-//W3C//DTD SVG 1.1//EN"
 "http://www.w3.org/Graphics/SVG/1.1/DTD/svg11.dtd">
<!-- Generated by graphviz version 2.40.1 (20161225.0304)
 -->
<!-- Title: ndiag Pages: 1 -->
<svg width="132pt" height="270pt"
 viewBox="0.00 0.00 132.00 270.40" xmlns="http://www.w3.org/2000/svg" xmlns:xlink="http://www.w3.org/1999/xlink">
<g id="graph0" class="graph" transform="scale(1 1) rotate(0) translate(4 266.4)">
<title>ndiag</title>
<polygon fill="#ffffff" stroke="transparent" points="-4,4 -4,-266.4 128,-266.4 128,4 -4,4"/>
<g id="clust3" class="cluster">
<title>cluster_db&#45;*</title>
<polygon fill="none" stroke="#000000" stroke-width="2" points="8,-8 8,-84.8 116,-84.8 116,-8 8,-8"/>
<text text-anchor="middle" x="62" y="-68.2" font-family="Arial" font-size="14.00" fill="#000000">db&#45;* (2)</text>
</g>
<g id="clust2" class="cluster">
<title>cluster_app&#45;*</title>
<polygon fill="none" stroke="#000000" stroke-width="2" points="27,-92.8 27,-169.6 97,-169.6 97,-92.8 27,-92.8"/>
<text text-anchor="middle" x="62" y="-153" font-family="Arial" font-size="14.00" fill="#000000">app&#45;* (3)</text>
</g>
<g id="clust1" class="cluster">
<title>cluster_lb&#45;*</title>
<polygon fill="none" stroke="#000000" stroke-width="2" points="27,-177.6 27,-254.4 97,-254.4 97,-177.6 27,-177.6"/>
<text text-anchor="middle" x="62" y="-237.8" font-family="Arial" font-size="14.00" fill="#000000">lb&#45;* (2)</text>
</g>
<!-- lb&#45;*:nginx -->
<g id="node1" class="node">
<title>lb&#45;*:nginx</title>
<path fill="#4b75b9" stroke="#ffffff" stroke-width="2" d="M77,-221.6C77,-221.6 47,-221.6 47,-221.6 41,-221.6 35,-215.6 35,-209.6 35,-209.6 35,-197.6 35,-197.6 35,-191.6 41,-185.6 47,-185.6 47,-185.6 77,-185.6 77,-185.6 83,-185.6 89,-191.6 89,-197.6 89,-197.6 89,-209.6 89,-209.6 89,-215.6 83,-221.6 77,-221.6"/>
<text text-anchor="middle" x="62" y="-199.4" font-family="Arial" font-size="14.00" fill="#ffffff">nginx</text>
</g>
<!-- app&#45;*:rails -->
<g id="node2" class="node">
<title>app&#45;*:rails</title>
<path fill="#4b75b9" stroke="#ffffff" stroke-width="2" d="M77,-136.8C77,-136.8 47,-136.8 47,-136.8 41,-136.8 35,-130.8 35,-124.8 35,-124.8 35,-112.8 35,-112.8 35,-106.8 41,-100.8 47,-100.8 47,-100.8 77,-100.8 77,-100.8 83,-100.8 89,-106.8 89,-112.8 89,-112.8 89,-124.8 89,-124.8 89,-130.8 83,-136.8 77,-136.8"/>
<text text-anchor="middle" x="62" y="-114.6" font-family="Arial" font-size="14.00" fill="#ffffff">rails</text>
</g>
<!-- lb&#45;*:nginx&#45;&gt;app&#45;*:rails -->
<g id="edge1" class="edge">
<title>lb&#45;*:nginx&#45;&gt;app&#45;*:rails</title>
<path fill="none" stroke="#333333" stroke-width="2" stroke-opacity="0.600000" d="M62,-185.1997C62,-185.1997 62,-146.8731 62,-146.8731"/>
<polygon fill="#333333" fill-opacity="0.600000" stroke="#333333" stroke-width="2" stroke-opacity="0.600000" points="65.5001,-146.8731 62,-136.8731 58.5001,-146.8731 65.5001,-146.8731"/>
</g>
<!-- db&#45;*:postgresql -->
<g id="node3" class="node">
<title>db&#45;*:postgresql</title>
<path fill="#4b75b9" stroke="#ffffff" stroke-width="2" d="M96.2457,-52C96.2457,-52 27.7543,-52 27.7543,-52 21.7543,-52 15.7543,-46 15.7543,-40 15.7543,-40 15.7543,-28 15.7543,-28 15.7543,-22 21.7543,-16 27.7543,-16 27.7543,-16 96.2457,-16 96.2457,-16 102.2457,-16 108.2457,-22 108.2457,-28 108.2457,-28 108.2457,-40 108.2457,-40 108.2457,-46 102.2457,-52 96.2457,-52"/>
<text text-anchor="middle" x="62" y="-29.8" font-family="Arial" font-size="14.00" fill="#ffffff">PostgreSQL</text>
</g>
<!-- app&#45;*:rails&#45;&gt;db&#45;*:postgresql -->
<g id="edge2" class="edge">
<title>app&#45;*:rails&#45;&gt;db&#45;*:postgresql</title>
<path fill="none" stroke="#333333" stroke-width="2" stroke-opacity="0.600000" d="M62,-100.3997C62,-100.3997 62,-62.0731 62,-62.0731"/>
<polygon fill="#333333" fill-opacity="0.600000" stroke="#333333" stroke-width="2" stroke-opacity="0.600000" points="65.5001,-62.0731 62,-52.0731 58.5001,-62.0731 65.5001,-62.0731"/>
</g>
</g>
</svg>
