<?xml version="1.0" encoding="UTF-8" standalone="no"?><!-- Generated by graphviz version 12.1.2 (20240928.0832)
 --><!-- Title: ndiag Pages: 1 --><svg width="398pt" height="416pt" viewBox="0.00 0.00 398.35 416.00" xmlns="http://www.w3.org/2000/svg" xmlns:xlink="http://www.w3.org/1999/xlink"><g id="graph0" class="graph" transform="scale(1 1) rotate(0) translate(4 412)"><title>ndiag</title><polygon fill="white" stroke="none" points="-4,4 -4,-412 394.35,-412 394.35,4 -4,4"></polygon><g id="clust1" class="cluster"><title>cluster_consul:dc1</title><path fill="#ffffff" stroke="#1f91be" stroke-width="2" d="M20,-8C20,-8 308,-8 308,-8 314,-8 320,-14 320,-20 320,-20 320,-388 320,-388 320,-394 314,-400 308,-400 308,-400 20,-400 20,-400 14,-400 8,-394 8,-388 8,-388 8,-20 8,-20 8,-14 14,-8 20,-8"></path><text text-anchor="middle" x="164" y="-383.4" font-family="Arial" font-size="14.00" fill="#333333">Consul:dc1</text></g><g id="clust2" class="cluster"><title>cluster_app</title><polygon fill="#ffffff" stroke="#333333" stroke-width="2" points="16,-100.8 16,-249.6 108,-249.6 108,-100.8 16,-100.8"></polygon><text text-anchor="middle" x="62" y="-233" font-family="Arial" font-size="14.00" fill="#333333">app (3)</text></g><g id="clust3" class="cluster"><title>cluster_db</title><polygon fill="#ffffff" stroke="#333333" stroke-width="2" points="16,-16 16,-92.8 124,-92.8 124,-16 16,-16"></polygon><text text-anchor="middle" x="70" y="-76.2" font-family="Arial" font-size="14.00" fill="#333333">db (2)</text></g><g id="clust4" class="cluster"><title>cluster_vip_group:lb</title><path fill="#ffffff" stroke="#b2cf3e" stroke-width="2" d="M128,-172.8C128,-172.8 300,-172.8 300,-172.8 306,-172.8 312,-178.8 312,-184.8 312,-184.8 312,-355.2 312,-355.2 312,-361.2 306,-367.2 300,-367.2 300,-367.2 128,-367.2 128,-367.2 122,-367.2 116,-361.2 116,-355.2 116,-355.2 116,-184.8 116,-184.8 116,-178.8 122,-172.8 128,-172.8"></path><text text-anchor="middle" x="214" y="-350.6" font-family="Arial" font-size="14.00" fill="#333333">vip_group:lb</text></g><g id="clust5" class="cluster"><title>cluster_lb</title><polygon fill="#ffffff" stroke="#333333" stroke-width="2" points="124,-257.6 124,-334.4 304,-334.4 304,-257.6 124,-257.6"></polygon><text text-anchor="middle" x="214" y="-317.8" font-family="Arial" font-size="14.00" fill="#333333">lb (2)</text></g><!-- app:nginx --><g id="node1" class="node"><title>app:nginx</title><path fill="#ffffff" stroke="#4b75b9" stroke-width="3" d="M84.17,-216.8C84.17,-216.8 47.83,-216.8 47.83,-216.8 41.83,-216.8 35.83,-210.8 35.83,-204.8 35.83,-204.8 35.83,-192.8 35.83,-192.8 35.83,-186.8 41.83,-180.8 47.83,-180.8 47.83,-180.8 84.17,-180.8 84.17,-180.8 90.17,-180.8 96.17,-186.8 96.17,-192.8 96.17,-192.8 96.17,-204.8 96.17,-204.8 96.17,-210.8 90.17,-216.8 84.17,-216.8"></path><text text-anchor="middle" x="66" y="-194.6" font-family="Arial" font-size="14.00" fill="#333333">NGINX</text></g><!-- app:rails app --><g id="node2" class="node"><title>app:rails app</title><path fill="#ffffff" stroke="#4b75b9" stroke-width="3" d="M87.96,-144.8C87.96,-144.8 36.04,-144.8 36.04,-144.8 30.04,-144.8 24.04,-138.8 24.04,-132.8 24.04,-132.8 24.04,-120.8 24.04,-120.8 24.04,-114.8 30.04,-108.8 36.04,-108.8 36.04,-108.8 87.96,-108.8 87.96,-108.8 93.96,-108.8 99.96,-114.8 99.96,-120.8 99.96,-120.8 99.96,-132.8 99.96,-132.8 99.96,-138.8 93.96,-144.8 87.96,-144.8"></path><text text-anchor="middle" x="62" y="-122.6" font-family="Arial" font-size="14.00" fill="#333333">Rails App</text></g><!-- app:nginx&#45;&gt;app:rails app --><g id="edge-3" class="edge"><title>app:nginx-&gt;app:rails app</title><path fill="none" stroke="#333333" stroke-width="2" stroke-opacity="0.600000" d="M66,-180.63C66,-180.63 66,-156.73 66,-156.73"></path><polygon fill="#333333" fill-opacity="0.600000" stroke="#333333" stroke-width="2" stroke-opacity="0.600000" points="69.5,-158.24 66,-148.24 62.5,-158.24 69.5,-158.24"></polygon></g><!-- db:postgresql --><g id="node3" class="node"><title>db:postgresql</title><path fill="#ffffff" stroke="#4b75b9" stroke-width="3" d="M104.13,-60C104.13,-60 35.87,-60 35.87,-60 29.87,-60 23.87,-54 23.87,-48 23.87,-48 23.87,-36 23.87,-36 23.87,-30 29.87,-24 35.87,-24 35.87,-24 104.13,-24 104.13,-24 110.13,-24 116.13,-30 116.13,-36 116.13,-36 116.13,-48 116.13,-48 116.13,-54 110.13,-60 104.13,-60"></path><text text-anchor="middle" x="70" y="-37.8" font-family="Arial" font-size="14.00" fill="#333333">PostgreSQL</text></g><!-- app:rails app&#45;&gt;db:postgresql --><g id="edge-4" class="edge"><title>app:rails app-&gt;db:postgresql</title><path fill="none" stroke="#333333" stroke-width="2" stroke-opacity="0.600000" d="M62,-108.4C62,-108.4 62,-71.88 62,-71.88"></path><polygon fill="#333333" fill-opacity="0.600000" stroke="#333333" stroke-width="2" stroke-opacity="0.600000" points="65.5,-73.39 62,-63.39 58.5,-73.39 65.5,-73.39"></polygon></g><!-- lb:nginx --><g id="node4" class="node"><title>lb:nginx</title><path fill="#ffffff" stroke="#4b75b9" stroke-width="3" d="M180.17,-301.6C180.17,-301.6 143.83,-301.6 143.83,-301.6 137.83,-301.6 131.83,-295.6 131.83,-289.6 131.83,-289.6 131.83,-277.6 131.83,-277.6 131.83,-271.6 137.83,-265.6 143.83,-265.6 143.83,-265.6 180.17,-265.6 180.17,-265.6 186.17,-265.6 192.17,-271.6 192.17,-277.6 192.17,-277.6 192.17,-289.6 192.17,-289.6 192.17,-295.6 186.17,-301.6 180.17,-301.6"></path><text text-anchor="middle" x="162" y="-279.4" font-family="Arial" font-size="14.00" fill="#333333">NGINX</text></g><!-- lb:nginx&#45;&gt;app:nginx --><g id="edge-2" class="edge"><title>lb:nginx-&gt;app:nginx</title><path fill="none" stroke="#333333" stroke-width="2" stroke-opacity="0.600000" d="M151.94,-265.32C151.94,-242.05 151.94,-204.8 151.94,-204.8 151.94,-204.8 108.06,-204.8 108.06,-204.8"></path><polygon fill="#333333" fill-opacity="0.600000" stroke="#333333" stroke-width="2" stroke-opacity="0.600000" points="109.57,-201.3 99.57,-204.8 109.57,-208.3 109.57,-201.3"></polygon></g><!-- lb:keepalived --><g id="node5" class="node"><title>lb:keepalived</title><path fill="#ffffff" stroke="#4b75b9" stroke-width="3" d="M283.64,-301.6C283.64,-301.6 222.36,-301.6 222.36,-301.6 216.36,-301.6 210.36,-295.6 210.36,-289.6 210.36,-289.6 210.36,-277.6 210.36,-277.6 210.36,-271.6 216.36,-265.6 222.36,-265.6 222.36,-265.6 283.64,-265.6 283.64,-265.6 289.64,-265.6 295.64,-271.6 295.64,-277.6 295.64,-277.6 295.64,-289.6 295.64,-289.6 295.64,-295.6 289.64,-301.6 283.64,-301.6"></path><text text-anchor="middle" x="253" y="-279.4" font-family="Arial" font-size="14.00" fill="#333333">Keepalived</text></g><!-- vip_group:lb:vip --><g id="node6" class="node"><title>vip_group:lb:vip</title><path fill="#ffffff" stroke="#4b75b9" stroke-width="3" d="M268,-216.8C268,-216.8 238,-216.8 238,-216.8 232,-216.8 226,-210.8 226,-204.8 226,-204.8 226,-192.8 226,-192.8 226,-186.8 232,-180.8 238,-180.8 238,-180.8 268,-180.8 268,-180.8 274,-180.8 280,-186.8 280,-192.8 280,-192.8 280,-204.8 280,-204.8 280,-210.8 274,-216.8 268,-216.8"></path><text text-anchor="middle" x="253" y="-194.6" font-family="Arial" font-size="14.00" fill="#333333">vip</text></g><!-- lb:keepalived&#45;&gt;vip_group:lb:vip --><g id="edge-5" class="edge"><title>lb:keepalived-&gt;vip_group:lb:vip</title><path fill="none" stroke="#4b75b9" stroke-width="2" stroke-dasharray="5,2" d="M253,-265.2C253,-265.2 253,-226.16 253,-226.16"></path><ellipse fill="#4b75b9" stroke="#4b75b9" stroke-width="2" cx="253" cy="-222.16" rx="4" ry="4"></ellipse></g><!-- vip_group:lb:vip&#45;&gt;lb:nginx --><g id="edge-1" class="edge"><title>vip_group:lb:vip-&gt;lb:nginx</title><path fill="none" stroke="#333333" stroke-width="2" stroke-opacity="0.600000" d="M225.6,-192.8C202.11,-192.8 172.06,-192.8 172.06,-192.8 172.06,-192.8 172.06,-253.71 172.06,-253.71"></path><polygon fill="#333333" fill-opacity="0.600000" stroke="#333333" stroke-width="2" stroke-opacity="0.600000" points="168.56,-252.2 172.06,-262.2 175.56,-252.2 168.56,-252.2"></polygon></g><!-- internet --><g id="node7" class="node"><title>internet</title><path fill="none" stroke="black" stroke-width="2" d="M378.35,-301.6C378.35,-301.6 339.65,-301.6 339.65,-301.6 333.65,-301.6 327.65,-295.6 327.65,-289.6 327.65,-289.6 327.65,-277.6 327.65,-277.6 327.65,-271.6 333.65,-265.6 339.65,-265.6 339.65,-265.6 378.35,-265.6 378.35,-265.6 384.35,-265.6 390.35,-271.6 390.35,-277.6 390.35,-277.6 390.35,-289.6 390.35,-289.6 390.35,-295.6 384.35,-301.6 378.35,-301.6"></path><text text-anchor="middle" x="359" y="-279.4" font-family="Arial" font-size="14.00">internet</text></g><!-- internet&#45;&gt;vip_group:lb:vip --><g id="edge-0" class="edge"><title>internet-&gt;vip_group:lb:vip</title><path fill="none" stroke="#333333" stroke-width="2" stroke-opacity="0.600000" d="M359,-265.2C359,-240.26 359,-198.8 359,-198.8 359,-198.8 291.81,-198.8 291.81,-198.8"></path><polygon fill="#333333" fill-opacity="0.600000" stroke="#333333" stroke-width="2" stroke-opacity="0.600000" points="293.32,-195.3 283.32,-198.8 293.32,-202.3 293.32,-195.3"></polygon></g></g></svg>