<?xml version="1.0" encoding="UTF-8" standalone="no"?>
<!DOCTYPE svg PUBLIC "-//W3C//DTD SVG 1.1//EN"
 "http://www.w3.org/Graphics/SVG/1.1/DTD/svg11.dtd">
<!-- Generated by graphviz version 2.40.1 (20161225.0304)
 -->
<!-- Title: ndiag Pages: 1 -->
<svg width="808pt" height="971pt"
 viewBox="0.00 0.00 808.03 971.00" xmlns="http://www.w3.org/2000/svg" xmlns:xlink="http://www.w3.org/1999/xlink">
<g id="graph0" class="graph" transform="scale(1 1) rotate(0) translate(4 967)">
<title>ndiag</title>
<polygon fill="#ffffff" stroke="transparent" points="-4,4 -4,-967 804.0272,-967 804.0272,4 -4,4"/>
<g id="clust14" class="cluster">
<title>cluster_ndiag</title>
<polygon fill="none" stroke="#000000" stroke-width="2" points="460.9796,-212 460.9796,-322 537.9796,-322 537.9796,-212 460.9796,-212"/>
<text text-anchor="middle" x="499.4796" y="-305.4" font-family="Arial" font-size="14.00" fill="#000000">ndiag</text>
</g>
<g id="clust11" class="cluster">
<title>cluster_type:output</title>
<path fill="#4b75b9" fill-opacity="0.200000" stroke="#4b75b9" stroke-opacity="0.200000" d="M557.9796,-132C557.9796,-132 780.0272,-132 780.0272,-132 786.0272,-132 792.0272,-138 792.0272,-144 792.0272,-144 792.0272,-539 792.0272,-539 792.0272,-545 786.0272,-551 780.0272,-551 780.0272,-551 557.9796,-551 557.9796,-551 551.9796,-551 545.9796,-545 545.9796,-539 545.9796,-539 545.9796,-144 545.9796,-144 545.9796,-138 551.9796,-132 557.9796,-132"/>
<text text-anchor="middle" x="669.0034" y="-534.4" font-family="Arial" font-size="14.00" fill="#000000">type:output</text>
</g>
<g id="clust12" class="cluster">
<title>cluster_file:generated documents</title>
<path fill="#4b75b9" fill-opacity="0.200000" stroke="#4b75b9" stroke-opacity="0.200000" d="M565.9796,-140C565.9796,-140 772.0272,-140 772.0272,-140 778.0272,-140 784.0272,-146 784.0272,-152 784.0272,-152 784.0272,-506 784.0272,-506 784.0272,-512 778.0272,-518 772.0272,-518 772.0272,-518 565.9796,-518 565.9796,-518 559.9796,-518 553.9796,-512 553.9796,-506 553.9796,-506 553.9796,-152 553.9796,-152 553.9796,-146 559.9796,-140 565.9796,-140"/>
<text text-anchor="middle" x="669.0034" y="-501.4" font-family="Arial" font-size="14.00" fill="#000000">file:generated documents</text>
</g>
<g id="clust13" class="cluster">
<title>cluster_documents</title>
<polygon fill="#ffffff" stroke="#333333" stroke-width="2" points="561.9796,-148 561.9796,-485 776.0272,-485 776.0272,-148 561.9796,-148"/>
<image xlink:href="/var/folders/fp/hk95_wsj7s18mmc9drvrxdp1tt294n/T/ndiag.034304/doc.svg" width="60px" height="45px" preserveAspectRatio="xMinYMin meet" x="639.003" y="-480.5"/>
<text text-anchor="start" x="634.7713" y="-422.9" font-family="Arial" font-size="14.00" fill="#000000">documents</text>
</g>
<g id="clust1" class="cluster">
<title>cluster_type:input</title>
<path fill="#4b75b9" fill-opacity="0.200000" stroke="#4b75b9" stroke-opacity="0.200000" d="M20,-8C20,-8 440.9796,-8 440.9796,-8 446.9796,-8 452.9796,-14 452.9796,-20 452.9796,-20 452.9796,-943 452.9796,-943 452.9796,-949 446.9796,-955 440.9796,-955 440.9796,-955 20,-955 20,-955 14,-955 8,-949 8,-943 8,-943 8,-20 8,-20 8,-14 14,-8 20,-8"/>
<text text-anchor="middle" x="230.4898" y="-938.4" font-family="Arial" font-size="14.00" fill="#000000">type:input</text>
</g>
<g id="clust9" class="cluster">
<title>cluster_file:ndiag.descriptions/*.md</title>
<path fill="#4b75b9" fill-opacity="0.200000" stroke="#4b75b9" stroke-opacity="0.200000" d="M28,-16C28,-16 200,-16 200,-16 206,-16 212,-22 212,-28 212,-28 212,-416 212,-416 212,-422 206,-428 200,-428 200,-428 28,-428 28,-428 22,-428 16,-422 16,-416 16,-416 16,-28 16,-28 16,-22 22,-16 28,-16"/>
<text text-anchor="middle" x="114" y="-411.4" font-family="Arial" font-size="14.00" fill="#000000">file:ndiag.descriptions/*.md</text>
</g>
<g id="clust10" class="cluster">
<title>cluster_descriptions</title>
<polygon fill="#ffffff" stroke="#333333" stroke-width="2" points="24,-24 24,-395 204,-395 204,-24 24,-24"/>
<text text-anchor="middle" x="114" y="-378.4" font-family="Arial" font-size="14.00" fill="#000000">descriptions</text>
</g>
<g id="clust4" class="cluster">
<title>cluster_file:ndiag.yml</title>
<path fill="#4b75b9" fill-opacity="0.200000" stroke="#4b75b9" stroke-opacity="0.200000" d="M232,-49C232,-49 432.9796,-49 432.9796,-49 438.9796,-49 444.9796,-55 444.9796,-61 444.9796,-61 444.9796,-910 444.9796,-910 444.9796,-916 438.9796,-922 432.9796,-922 432.9796,-922 232,-922 232,-922 226,-922 220,-916 220,-910 220,-910 220,-61 220,-61 220,-55 226,-49 232,-49"/>
<text text-anchor="middle" x="332.4898" y="-905.4" font-family="Arial" font-size="14.00" fill="#000000">file:ndiag.yml</text>
</g>
<g id="clust8" class="cluster">
<title>cluster_relations</title>
<polygon fill="#ffffff" stroke="#333333" stroke-width="2" points="228,-768 228,-889 436.9796,-889 436.9796,-768 228,-768"/>
<image xlink:href="/var/folders/fp/hk95_wsj7s18mmc9drvrxdp1tt294n/T/ndiag.034304/pen.svg" width="52px" height="45px" preserveAspectRatio="xMinYMin meet" x="306.49" y="-884.5"/>
<text text-anchor="start" x="306.0424" y="-826.9" font-family="Arial" font-size="14.00" fill="#000000">relations</text>
</g>
<g id="clust7" class="cluster">
<title>cluster_networks</title>
<polygon fill="#ffffff" stroke="#333333" stroke-width="2" points="231.5063,-477 231.5063,-760 433.4733,-760 433.4733,-477 231.5063,-477"/>
<image xlink:href="/var/folders/fp/hk95_wsj7s18mmc9drvrxdp1tt294n/T/ndiag.034304/pen.svg" width="56px" height="45px" preserveAspectRatio="xMinYMin meet" x="304.49" y="-755.5"/>
<text text-anchor="start" x="304.487" y="-697.9" font-family="Arial" font-size="14.00" fill="#000000">networks</text>
</g>
<g id="clust6" class="cluster">
<title>cluster_diagrams</title>
<polygon fill="#ffffff" stroke="#333333" stroke-width="2" points="288.879,-294 288.879,-469 376.1006,-469 376.1006,-294 288.879,-294"/>
<image xlink:href="/var/folders/fp/hk95_wsj7s18mmc9drvrxdp1tt294n/T/ndiag.034304/pen.svg" width="57px" height="45px" preserveAspectRatio="xMinYMin meet" x="304.49" y="-464.5"/>
<text text-anchor="start" x="304.2107" y="-406.9" font-family="Arial" font-size="14.00" fill="#000000">diagrams</text>
</g>
<g id="clust5" class="cluster">
<title>cluster_nodes</title>
<polygon fill="#ffffff" stroke="#333333" stroke-width="2" points="297.4898,-57 297.4898,-286 367.4898,-286 367.4898,-57 297.4898,-57"/>
<image xlink:href="/var/folders/fp/hk95_wsj7s18mmc9drvrxdp1tt294n/T/ndiag.034304/pen.svg" width="45px" height="45px" preserveAspectRatio="xMinYMin meet" x="310.49" y="-281.5"/>
<text text-anchor="start" x="313.9246" y="-223.9" font-family="Arial" font-size="14.00" fill="#000000">nodes</text>
</g>
<g id="clust2" class="cluster">
<title>cluster_file:nodes.yml</title>
<path fill="#4b75b9" fill-opacity="0.200000" stroke="#4b75b9" stroke-opacity="0.200000" d="M76,-436C76,-436 153,-436 153,-436 159,-436 165,-442 165,-448 165,-448 165,-910 165,-910 165,-916 159,-922 153,-922 153,-922 76,-922 76,-922 70,-922 64,-916 64,-910 64,-910 64,-448 64,-448 64,-442 70,-436 76,-436"/>
<text text-anchor="middle" x="114.5" y="-905.4" font-family="Arial" font-size="14.00" fill="#000000">file:nodes.yml</text>
</g>
<g id="clust3" class="cluster">
<title>cluster_real nodes</title>
<polygon fill="#ffffff" stroke="#333333" stroke-width="2" points="74,-444 74,-889 155,-889 155,-444 74,-444"/>
<image xlink:href="/var/folders/fp/hk95_wsj7s18mmc9drvrxdp1tt294n/T/ndiag.034304/gear.svg" width="60px" height="45px" preserveAspectRatio="xMinYMin meet" x="85" y="-884.5"/>
<text text-anchor="start" x="82.3233" y="-826.9" font-family="Arial" font-size="14.00" fill="#000000">real nodes</text>
</g>
<!-- real nodes:lb&#45;1 -->
<g id="node1" class="node">
<title>real nodes:lb&#45;1</title>
<path fill="#ffffff" stroke="#4b75b9" stroke-width="3" d="M129,-812C129,-812 99,-812 99,-812 93,-812 87,-806 87,-800 87,-800 87,-788 87,-788 87,-782 93,-776 99,-776 99,-776 129,-776 129,-776 135,-776 141,-782 141,-788 141,-788 141,-800 141,-800 141,-806 135,-812 129,-812"/>
<text text-anchor="middle" x="114" y="-789.8" font-family="Arial" font-size="14.00" fill="#333333">lb&#45;1</text>
</g>
<!-- nodes:lb&#45;* -->
<g id="node8" class="node">
<title>nodes:lb&#45;*</title>
<path fill="#ffffff" stroke="#4b75b9" stroke-width="3" d="M347.4898,-209C347.4898,-209 317.4898,-209 317.4898,-209 311.4898,-209 305.4898,-203 305.4898,-197 305.4898,-197 305.4898,-185 305.4898,-185 305.4898,-179 311.4898,-173 317.4898,-173 317.4898,-173 347.4898,-173 347.4898,-173 353.4898,-173 359.4898,-179 359.4898,-185 359.4898,-185 359.4898,-197 359.4898,-197 359.4898,-203 353.4898,-209 347.4898,-209"/>
<text text-anchor="middle" x="332.4898" y="-186.8" font-family="Arial" font-size="14.00" fill="#333333">lb&#45;*</text>
</g>
<!-- real nodes:lb&#45;1&#45;&gt;nodes:lb&#45;* -->
<g id="edge1" class="edge">
<title>real nodes:lb&#45;1&#45;&gt;nodes:lb&#45;*</title>
<path fill="none" stroke="#333333" stroke-width="2" stroke-opacity="0.600000" d="M141.1425,-794C175.7136,-794 231.0272,-794 231.0272,-794 231.0272,-794 231.0272,-200.5 231.0272,-200.5 231.0272,-200.5 295.2997,-200.5 295.2997,-200.5"/>
<polygon fill="#333333" fill-opacity="0.600000" stroke="#333333" stroke-width="2" stroke-opacity="0.600000" points="295.2997,-204.0001 305.2997,-200.5 295.2997,-197.0001 295.2997,-204.0001"/>
</g>
<!-- real nodes:lb&#45;2 -->
<g id="node2" class="node">
<title>real nodes:lb&#45;2</title>
<path fill="#ffffff" stroke="#4b75b9" stroke-width="3" d="M129,-758C129,-758 99,-758 99,-758 93,-758 87,-752 87,-746 87,-746 87,-734 87,-734 87,-728 93,-722 99,-722 99,-722 129,-722 129,-722 135,-722 141,-728 141,-734 141,-734 141,-746 141,-746 141,-752 135,-758 129,-758"/>
<text text-anchor="middle" x="114" y="-735.8" font-family="Arial" font-size="14.00" fill="#333333">lb&#45;2</text>
</g>
<!-- real nodes:lb&#45;2&#45;&gt;nodes:lb&#45;* -->
<g id="edge3" class="edge">
<title>real nodes:lb&#45;2&#45;&gt;nodes:lb&#45;*</title>
<path fill="none" stroke="#333333" stroke-width="2" stroke-opacity="0.600000" d="M141.1187,-740C174.2734,-740 226.0272,-740 226.0272,-740 226.0272,-740 226.0272,-194.5 226.0272,-194.5 226.0272,-194.5 295.3493,-194.5 295.3493,-194.5"/>
<polygon fill="#333333" fill-opacity="0.600000" stroke="#333333" stroke-width="2" stroke-opacity="0.600000" points="295.3494,-198.0001 305.3493,-194.5 295.3493,-191.0001 295.3494,-198.0001"/>
</g>
<!-- real nodes:app&#45;1 -->
<g id="node3" class="node">
<title>real nodes:app&#45;1</title>
<path fill="#ffffff" stroke="#4b75b9" stroke-width="3" d="M129,-704C129,-704 99,-704 99,-704 93,-704 87,-698 87,-692 87,-692 87,-680 87,-680 87,-674 93,-668 99,-668 99,-668 129,-668 129,-668 135,-668 141,-674 141,-680 141,-680 141,-692 141,-692 141,-698 135,-704 129,-704"/>
<text text-anchor="middle" x="114" y="-681.8" font-family="Arial" font-size="14.00" fill="#333333">app&#45;1</text>
</g>
<!-- nodes:app&#45;* -->
<g id="node9" class="node">
<title>nodes:app&#45;*</title>
<path fill="#ffffff" stroke="#4b75b9" stroke-width="3" d="M347.4898,-155C347.4898,-155 317.4898,-155 317.4898,-155 311.4898,-155 305.4898,-149 305.4898,-143 305.4898,-143 305.4898,-131 305.4898,-131 305.4898,-125 311.4898,-119 317.4898,-119 317.4898,-119 347.4898,-119 347.4898,-119 353.4898,-119 359.4898,-125 359.4898,-131 359.4898,-131 359.4898,-143 359.4898,-143 359.4898,-149 353.4898,-155 347.4898,-155"/>
<text text-anchor="middle" x="332.4898" y="-132.8" font-family="Arial" font-size="14.00" fill="#333333">app&#45;*</text>
</g>
<!-- real nodes:app&#45;1&#45;&gt;nodes:app&#45;* -->
<g id="edge4" class="edge">
<title>real nodes:app&#45;1&#45;&gt;nodes:app&#45;*</title>
<path fill="none" stroke="#333333" stroke-width="2" stroke-opacity="0.600000" d="M141.0075,-675.5C172.7134,-675.5 221.0272,-675.5 221.0272,-675.5 221.0272,-675.5 221.0272,-146.125 221.0272,-146.125 221.0272,-146.125 295.223,-146.125 295.223,-146.125"/>
<polygon fill="#333333" fill-opacity="0.600000" stroke="#333333" stroke-width="2" stroke-opacity="0.600000" points="295.223,-149.6251 305.223,-146.125 295.2229,-142.6251 295.223,-149.6251"/>
</g>
<!-- real nodes:app&#45;2 -->
<g id="node4" class="node">
<title>real nodes:app&#45;2</title>
<path fill="#ffffff" stroke="#4b75b9" stroke-width="3" d="M129,-650C129,-650 99,-650 99,-650 93,-650 87,-644 87,-638 87,-638 87,-626 87,-626 87,-620 93,-614 99,-614 99,-614 129,-614 129,-614 135,-614 141,-620 141,-626 141,-626 141,-638 141,-638 141,-644 135,-650 129,-650"/>
<text text-anchor="middle" x="114" y="-627.8" font-family="Arial" font-size="14.00" fill="#333333">app&#45;2</text>
</g>
<!-- real nodes:app&#45;2&#45;&gt;nodes:app&#45;* -->
<g id="edge6" class="edge">
<title>real nodes:app&#45;2&#45;&gt;nodes:app&#45;*</title>
<path fill="none" stroke="#333333" stroke-width="2" stroke-opacity="0.600000" d="M141.0736,-621.5C171.2996,-621.5 216.0272,-621.5 216.0272,-621.5 216.0272,-621.5 216.0272,-137.25 216.0272,-137.25 216.0272,-137.25 295.4782,-137.25 295.4782,-137.25"/>
<polygon fill="#333333" fill-opacity="0.600000" stroke="#333333" stroke-width="2" stroke-opacity="0.600000" points="295.4782,-140.7501 305.4782,-137.25 295.4782,-133.7501 295.4782,-140.7501"/>
</g>
<!-- real nodes:app&#45;3 -->
<g id="node5" class="node">
<title>real nodes:app&#45;3</title>
<path fill="#ffffff" stroke="#4b75b9" stroke-width="3" d="M129,-596C129,-596 99,-596 99,-596 93,-596 87,-590 87,-584 87,-584 87,-572 87,-572 87,-566 93,-560 99,-560 99,-560 129,-560 129,-560 135,-560 141,-566 141,-572 141,-572 141,-584 141,-584 141,-590 135,-596 129,-596"/>
<text text-anchor="middle" x="114" y="-573.8" font-family="Arial" font-size="14.00" fill="#333333">app&#45;3</text>
</g>
<!-- real nodes:app&#45;3&#45;&gt;nodes:app&#45;* -->
<g id="edge7" class="edge">
<title>real nodes:app&#45;3&#45;&gt;nodes:app&#45;*</title>
<path fill="none" stroke="#333333" stroke-width="2" stroke-opacity="0.600000" d="M141.0275,-567.5C169.737,-567.5 211.0272,-567.5 211.0272,-567.5 211.0272,-567.5 211.0272,-128.375 211.0272,-128.375 211.0272,-128.375 295.2312,-128.375 295.2312,-128.375"/>
<polygon fill="#333333" fill-opacity="0.600000" stroke="#333333" stroke-width="2" stroke-opacity="0.600000" points="295.2313,-131.8751 305.2312,-128.375 295.2312,-124.8751 295.2313,-131.8751"/>
</g>
<!-- real nodes:db&#45;1 -->
<g id="node6" class="node">
<title>real nodes:db&#45;1</title>
<path fill="#ffffff" stroke="#4b75b9" stroke-width="3" d="M129,-542C129,-542 99,-542 99,-542 93,-542 87,-536 87,-530 87,-530 87,-518 87,-518 87,-512 93,-506 99,-506 99,-506 129,-506 129,-506 135,-506 141,-512 141,-518 141,-518 141,-530 141,-530 141,-536 135,-542 129,-542"/>
<text text-anchor="middle" x="114" y="-519.8" font-family="Arial" font-size="14.00" fill="#333333">db&#45;1</text>
</g>
<!-- nodes:db&#45;* -->
<g id="node10" class="node">
<title>nodes:db&#45;*</title>
<path fill="#ffffff" stroke="#4b75b9" stroke-width="3" d="M347.4898,-101C347.4898,-101 317.4898,-101 317.4898,-101 311.4898,-101 305.4898,-95 305.4898,-89 305.4898,-89 305.4898,-77 305.4898,-77 305.4898,-71 311.4898,-65 317.4898,-65 317.4898,-65 347.4898,-65 347.4898,-65 353.4898,-65 359.4898,-71 359.4898,-77 359.4898,-77 359.4898,-89 359.4898,-89 359.4898,-95 353.4898,-101 347.4898,-101"/>
<text text-anchor="middle" x="332.4898" y="-78.8" font-family="Arial" font-size="14.00" fill="#333333">db&#45;*</text>
</g>
<!-- real nodes:db&#45;1&#45;&gt;nodes:db&#45;* -->
<g id="edge8" class="edge">
<title>real nodes:db&#45;1&#45;&gt;nodes:db&#45;*</title>
<path fill="none" stroke="#333333" stroke-width="2" stroke-opacity="0.600000" d="M141.1135,-513.5C168.2592,-513.5 206.0272,-513.5 206.0272,-513.5 206.0272,-513.5 206.0272,-89 206.0272,-89 206.0272,-89 295.3604,-89 295.3604,-89"/>
<polygon fill="#333333" fill-opacity="0.600000" stroke="#333333" stroke-width="2" stroke-opacity="0.600000" points="295.3604,-92.5001 305.3604,-89 295.3604,-85.5001 295.3604,-92.5001"/>
</g>
<!-- real nodes:db&#45;2 -->
<g id="node7" class="node">
<title>real nodes:db&#45;2</title>
<path fill="#ffffff" stroke="#4b75b9" stroke-width="3" d="M129,-488C129,-488 99,-488 99,-488 93,-488 87,-482 87,-476 87,-476 87,-464 87,-464 87,-458 93,-452 99,-452 99,-452 129,-452 129,-452 135,-452 141,-458 141,-464 141,-464 141,-476 141,-476 141,-482 135,-488 129,-488"/>
<text text-anchor="middle" x="114" y="-465.8" font-family="Arial" font-size="14.00" fill="#333333">db&#45;2</text>
</g>
<!-- real nodes:db&#45;2&#45;&gt;nodes:db&#45;* -->
<g id="edge10" class="edge">
<title>real nodes:db&#45;2&#45;&gt;nodes:db&#45;*</title>
<path fill="none" stroke="#333333" stroke-width="2" stroke-opacity="0.600000" d="M141.0589,-468.5C166.6059,-468.5 201.0272,-468.5 201.0272,-468.5 201.0272,-468.5 201.0272,-77 201.0272,-77 201.0272,-77 295.2507,-77 295.2507,-77"/>
<polygon fill="#333333" fill-opacity="0.600000" stroke="#333333" stroke-width="2" stroke-opacity="0.600000" points="295.2507,-80.5001 305.2507,-77 295.2506,-73.5001 295.2507,-80.5001"/>
</g>
<!-- ndiag:internal -->
<g id="node27" class="node">
<title>ndiag:internal</title>
<path fill="#ffffff" stroke="#4b75b9" stroke-width="3" stroke-opacity="0.400000" d="M517.9796,-289.5C517.9796,-289.5 480.9796,-289.5 480.9796,-289.5 474.9796,-289.5 468.9796,-283.5 468.9796,-277.5 468.9796,-277.5 468.9796,-232.5 468.9796,-232.5 468.9796,-226.5 474.9796,-220.5 480.9796,-220.5 480.9796,-220.5 517.9796,-220.5 517.9796,-220.5 523.9796,-220.5 529.9796,-226.5 529.9796,-232.5 529.9796,-232.5 529.9796,-277.5 529.9796,-277.5 529.9796,-283.5 523.9796,-289.5 517.9796,-289.5"/>
<image xlink:href="/var/folders/fp/hk95_wsj7s18mmc9drvrxdp1tt294n/T/ndiag.034304/hex2.svg" width="45px" height="45px" preserveAspectRatio="xMinYMin meet" x="477.48" y="-285"/>
<text text-anchor="start" x="477.0322" y="-227.4" font-family="Arial" font-size="14.00" fill="#333333">internal</text>
</g>
<!-- nodes:lb&#45;*&#45;&gt;ndiag:internal -->
<g id="edge2" class="edge">
<title>nodes:lb&#45;*&#45;&gt;ndiag:internal</title>
<path fill="none" stroke="#333333" stroke-width="2" stroke-opacity="0.600000" d="M359.5504,-200.5C402.1432,-200.5 480.0272,-200.5 480.0272,-200.5 480.0272,-200.5 480.0272,-210.4843 480.0272,-210.4843"/>
<polygon fill="#333333" fill-opacity="0.600000" stroke="#333333" stroke-width="2" stroke-opacity="0.600000" points="476.5273,-210.4843 480.0272,-220.4843 483.5273,-210.4844 476.5273,-210.4843"/>
</g>
<!-- nodes:app&#45;*&#45;&gt;ndiag:internal -->
<g id="edge5" class="edge">
<title>nodes:app&#45;*&#45;&gt;ndiag:internal</title>
<path fill="none" stroke="#333333" stroke-width="2" stroke-opacity="0.600000" d="M359.5714,-137C404.6137,-137 490.0272,-137 490.0272,-137 490.0272,-137 490.0272,-210.2343 490.0272,-210.2343"/>
<polygon fill="#333333" fill-opacity="0.600000" stroke="#333333" stroke-width="2" stroke-opacity="0.600000" points="486.5273,-210.2343 490.0272,-220.2343 493.5273,-210.2344 486.5273,-210.2343"/>
</g>
<!-- nodes:db&#45;*&#45;&gt;ndiag:internal -->
<g id="edge9" class="edge">
<title>nodes:db&#45;*&#45;&gt;ndiag:internal</title>
<path fill="none" stroke="#333333" stroke-width="2" stroke-opacity="0.600000" d="M359.7805,-83C407.2542,-83 500.0272,-83 500.0272,-83 500.0272,-83 500.0272,-210.1932 500.0272,-210.1932"/>
<polygon fill="#333333" fill-opacity="0.600000" stroke="#333333" stroke-width="2" stroke-opacity="0.600000" points="496.5273,-210.1932 500.0272,-220.1932 503.5273,-210.1933 496.5273,-210.1932"/>
</g>
<!-- diagrams:overview -->
<g id="node11" class="node">
<title>diagrams:overview</title>
<path fill="#ffffff" stroke="#4b75b9" stroke-width="3" d="M356.2117,-392C356.2117,-392 308.7679,-392 308.7679,-392 302.7679,-392 296.7679,-386 296.7679,-380 296.7679,-380 296.7679,-368 296.7679,-368 296.7679,-362 302.7679,-356 308.7679,-356 308.7679,-356 356.2117,-356 356.2117,-356 362.2117,-356 368.2117,-362 368.2117,-368 368.2117,-368 368.2117,-380 368.2117,-380 368.2117,-386 362.2117,-392 356.2117,-392"/>
<text text-anchor="middle" x="332.4898" y="-369.8" font-family="Arial" font-size="14.00" fill="#333333">overview</text>
</g>
<!-- diagrams:overview&#45;&gt;ndiag:internal -->
<g id="edge11" class="edge">
<title>diagrams:overview&#45;&gt;ndiag:internal</title>
<path fill="none" stroke="#333333" stroke-width="2" stroke-opacity="0.600000" d="M364.0272,-355.7669C364.0272,-329.4394 364.0272,-283.9 364.0272,-283.9 364.0272,-283.9 458.7434,-283.9 458.7434,-283.9"/>
<polygon fill="#333333" fill-opacity="0.600000" stroke="#333333" stroke-width="2" stroke-opacity="0.600000" points="458.7434,-287.4001 468.7434,-283.9 458.7433,-280.4001 458.7434,-287.4001"/>
</g>
<!-- diagrams:http&#45;lb -->
<g id="node12" class="node">
<title>diagrams:http&#45;lb</title>
<path fill="#ffffff" stroke="#4b75b9" stroke-width="3" d="M347.8861,-338C347.8861,-338 317.0935,-338 317.0935,-338 311.0935,-338 305.0935,-332 305.0935,-326 305.0935,-326 305.0935,-314 305.0935,-314 305.0935,-308 311.0935,-302 317.0935,-302 317.0935,-302 347.8861,-302 347.8861,-302 353.8861,-302 359.8861,-308 359.8861,-314 359.8861,-314 359.8861,-326 359.8861,-326 359.8861,-332 353.8861,-338 347.8861,-338"/>
<text text-anchor="middle" x="332.4898" y="-315.8" font-family="Arial" font-size="14.00" fill="#333333">http&#45;lb</text>
</g>
<!-- diagrams:http&#45;lb&#45;&gt;ndiag:internal -->
<g id="edge12" class="edge">
<title>diagrams:http&#45;lb&#45;&gt;ndiag:internal</title>
<path fill="none" stroke="#333333" stroke-width="2" stroke-opacity="0.600000" d="M333.0272,-301.9166C333.0272,-291.7581 333.0272,-281.1 333.0272,-281.1 333.0272,-281.1 458.9497,-281.1 458.9497,-281.1"/>
<polygon fill="#333333" fill-opacity="0.600000" stroke="#333333" stroke-width="2" stroke-opacity="0.600000" points="458.9497,-284.6001 468.9497,-281.1 458.9496,-277.6001 458.9497,-284.6001"/>
</g>
<!-- networks:internet&#45;&gt;group:lb:vip -->
<g id="node13" class="node">
<title>networks:internet&#45;&gt;group:lb:vip</title>
<path fill="#ffffff" stroke="#4b75b9" stroke-width="3" d="M394.3545,-683C394.3545,-683 270.6251,-683 270.6251,-683 264.6251,-683 258.6251,-677 258.6251,-671 258.6251,-671 258.6251,-659 258.6251,-659 258.6251,-653 264.6251,-647 270.6251,-647 270.6251,-647 394.3545,-647 394.3545,-647 400.3545,-647 406.3545,-653 406.3545,-659 406.3545,-659 406.3545,-671 406.3545,-671 406.3545,-677 400.3545,-683 394.3545,-683"/>
<text text-anchor="middle" x="332.4898" y="-660.8" font-family="Arial" font-size="14.00" fill="#333333">internet&#45;&gt;group:lb:vip</text>
</g>
<!-- networks:internet&#45;&gt;group:lb:vip&#45;&gt;ndiag:internal -->
<g id="edge13" class="edge">
<title>networks:internet&#45;&gt;group:lb:vip&#45;&gt;ndiag:internal</title>
<path fill="none" stroke="#333333" stroke-width="2" stroke-opacity="0.600000" d="M406.4618,-665C451.3428,-665 500.0272,-665 500.0272,-665 500.0272,-665 500.0272,-299.603 500.0272,-299.603"/>
<polygon fill="#333333" fill-opacity="0.600000" stroke="#333333" stroke-width="2" stroke-opacity="0.600000" points="503.5273,-299.603 500.0272,-289.603 496.5273,-299.6031 503.5273,-299.603"/>
</g>
<!-- networks:group:lb:vip&#45;&gt;lb&#45;*:nginx -->
<g id="node14" class="node">
<title>networks:group:lb:vip&#45;&gt;lb&#45;*:nginx</title>
<path fill="#ffffff" stroke="#4b75b9" stroke-width="3" d="M400.0157,-629C400.0157,-629 264.9639,-629 264.9639,-629 258.9639,-629 252.9639,-623 252.9639,-617 252.9639,-617 252.9639,-605 252.9639,-605 252.9639,-599 258.9639,-593 264.9639,-593 264.9639,-593 400.0157,-593 400.0157,-593 406.0157,-593 412.0157,-599 412.0157,-605 412.0157,-605 412.0157,-617 412.0157,-617 412.0157,-623 406.0157,-629 400.0157,-629"/>
<text text-anchor="middle" x="332.4898" y="-606.8" font-family="Arial" font-size="14.00" fill="#333333">group:lb:vip&#45;&gt;lb&#45;*:nginx</text>
</g>
<!-- networks:group:lb:vip&#45;&gt;lb&#45;*:nginx&#45;&gt;ndiag:internal -->
<g id="edge14" class="edge">
<title>networks:group:lb:vip&#45;&gt;lb&#45;*:nginx&#45;&gt;ndiag:internal</title>
<path fill="none" stroke="#333333" stroke-width="2" stroke-opacity="0.600000" d="M412.1816,-611C451.2558,-611 490.0272,-611 490.0272,-611 490.0272,-611 490.0272,-299.783 490.0272,-299.783"/>
<polygon fill="#333333" fill-opacity="0.600000" stroke="#333333" stroke-width="2" stroke-opacity="0.600000" points="493.5273,-299.7829 490.0272,-289.783 486.5273,-299.783 493.5273,-299.7829"/>
</g>
<!-- networks:lb&#45;*:nginx&#45;&gt;app&#45;*:rails -->
<g id="node15" class="node">
<title>networks:lb&#45;*:nginx&#45;&gt;app&#45;*:rails</title>
<path fill="#ffffff" stroke="#4b75b9" stroke-width="3" d="M395.6645,-575C395.6645,-575 269.3151,-575 269.3151,-575 263.3151,-575 257.3151,-569 257.3151,-563 257.3151,-563 257.3151,-551 257.3151,-551 257.3151,-545 263.3151,-539 269.3151,-539 269.3151,-539 395.6645,-539 395.6645,-539 401.6645,-539 407.6645,-545 407.6645,-551 407.6645,-551 407.6645,-563 407.6645,-563 407.6645,-569 401.6645,-575 395.6645,-575"/>
<text text-anchor="middle" x="332.4898" y="-552.8" font-family="Arial" font-size="14.00" fill="#333333">lb&#45;*:nginx&#45;&gt;app&#45;*:rails</text>
</g>
<!-- networks:lb&#45;*:nginx&#45;&gt;app&#45;*:rails&#45;&gt;ndiag:internal -->
<g id="edge15" class="edge">
<title>networks:lb&#45;*:nginx&#45;&gt;app&#45;*:rails&#45;&gt;ndiag:internal</title>
<path fill="none" stroke="#333333" stroke-width="2" stroke-opacity="0.600000" d="M407.9873,-557C444.2865,-557 480.0272,-557 480.0272,-557 480.0272,-557 480.0272,-299.6432 480.0272,-299.6432"/>
<polygon fill="#333333" fill-opacity="0.600000" stroke="#333333" stroke-width="2" stroke-opacity="0.600000" points="483.5273,-299.6432 480.0272,-289.6432 476.5273,-299.6433 483.5273,-299.6432"/>
</g>
<!-- networks:app&#45;*:rails&#45;&gt;db&#45;*:postgresql -->
<g id="node16" class="node">
<title>networks:app&#45;*:rails&#45;&gt;db&#45;*:postgresql</title>
<path fill="#ffffff" stroke="#4b75b9" stroke-width="3" d="M413.4568,-521C413.4568,-521 251.5228,-521 251.5228,-521 245.5228,-521 239.5228,-515 239.5228,-509 239.5228,-509 239.5228,-497 239.5228,-497 239.5228,-491 245.5228,-485 251.5228,-485 251.5228,-485 413.4568,-485 413.4568,-485 419.4568,-485 425.4568,-491 425.4568,-497 425.4568,-497 425.4568,-509 425.4568,-509 425.4568,-515 419.4568,-521 413.4568,-521"/>
<text text-anchor="middle" x="332.4898" y="-498.8" font-family="Arial" font-size="14.00" fill="#333333">app&#45;*:rails&#45;&gt;db&#45;*:postgresql</text>
</g>
<!-- networks:app&#45;*:rails&#45;&gt;db&#45;*:postgresql&#45;&gt;ndiag:internal -->
<g id="edge16" class="edge">
<title>networks:app&#45;*:rails&#45;&gt;db&#45;*:postgresql&#45;&gt;ndiag:internal</title>
<path fill="none" stroke="#333333" stroke-width="2" stroke-opacity="0.600000" d="M397.0272,-484.9304C397.0272,-432.9449 397.0272,-286.7 397.0272,-286.7 397.0272,-286.7 458.7405,-286.7 458.7405,-286.7"/>
<polygon fill="#333333" fill-opacity="0.600000" stroke="#333333" stroke-width="2" stroke-opacity="0.600000" points="458.7405,-290.2001 468.7405,-286.7 458.7405,-283.2001 458.7405,-290.2001"/>
</g>
<!-- relations:lb&#45;*:keepalived&#45;&gt;group:lb:vip -->
<g id="node17" class="node">
<title>relations:lb&#45;*:keepalived&#45;&gt;group:lb:vip</title>
<path fill="#ffffff" stroke="#4b75b9" stroke-width="3" d="M416.9694,-812C416.9694,-812 248.0102,-812 248.0102,-812 242.0102,-812 236.0102,-806 236.0102,-800 236.0102,-800 236.0102,-788 236.0102,-788 236.0102,-782 242.0102,-776 248.0102,-776 248.0102,-776 416.9694,-776 416.9694,-776 422.9694,-776 428.9694,-782 428.9694,-788 428.9694,-788 428.9694,-800 428.9694,-800 428.9694,-806 422.9694,-812 416.9694,-812"/>
<text text-anchor="middle" x="332.4898" y="-789.8" font-family="Arial" font-size="14.00" fill="#333333">lb&#45;*:keepalived&#45;&gt;group:lb:vip</text>
</g>
<!-- relations:lb&#45;*:keepalived&#45;&gt;group:lb:vip&#45;&gt;ndiag:internal -->
<g id="edge17" class="edge">
<title>relations:lb&#45;*:keepalived&#45;&gt;group:lb:vip&#45;&gt;ndiag:internal</title>
<path fill="none" stroke="#333333" stroke-width="2" stroke-opacity="0.600000" d="M429.0515,-794C470.6918,-794 510.0272,-794 510.0272,-794 510.0272,-794 510.0272,-299.5368 510.0272,-299.5368"/>
<polygon fill="#333333" fill-opacity="0.600000" stroke="#333333" stroke-width="2" stroke-opacity="0.600000" points="513.5273,-299.5368 510.0272,-289.5368 506.5273,-299.5368 513.5273,-299.5368"/>
</g>
<!-- descriptions:component descriptions -->
<g id="node18" class="node">
<title>descriptions:component descriptions</title>
<path fill="#ffffff" stroke="#4b75b9" stroke-width="3" stroke-opacity="0.400000" d="M183.5,-362.5C183.5,-362.5 44.5,-362.5 44.5,-362.5 38.5,-362.5 32.5,-356.5 32.5,-350.5 32.5,-350.5 32.5,-305.5 32.5,-305.5 32.5,-299.5 38.5,-293.5 44.5,-293.5 44.5,-293.5 183.5,-293.5 183.5,-293.5 189.5,-293.5 195.5,-299.5 195.5,-305.5 195.5,-305.5 195.5,-350.5 195.5,-350.5 195.5,-356.5 189.5,-362.5 183.5,-362.5"/>
<image xlink:href="/var/folders/fp/hk95_wsj7s18mmc9drvrxdp1tt294n/T/ndiag.034304/write.svg" width="60px" height="45px" preserveAspectRatio="xMinYMin meet" x="84.5" y="-358"/>
<text text-anchor="start" x="40.5926" y="-300.4" font-family="Arial" font-size="14.00" fill="#333333">component descriptions</text>
</g>
<!-- descriptions:component descriptions&#45;&gt;ndiag:internal -->
<g id="edge18" class="edge">
<title>descriptions:component descriptions&#45;&gt;ndiag:internal</title>
<path fill="none" stroke="#333333" stroke-width="2" stroke-opacity="0.600000" d="M193.0272,-293.4817C193.0272,-285.0009 193.0272,-278.3 193.0272,-278.3 193.0272,-278.3 458.9754,-278.3 458.9754,-278.3"/>
<polygon fill="#333333" fill-opacity="0.600000" stroke="#333333" stroke-width="2" stroke-opacity="0.600000" points="458.9754,-281.8001 468.9754,-278.3 458.9754,-274.8001 458.9754,-281.8001"/>
</g>
<!-- descriptions:diagram descriptions -->
<g id="node19" class="node">
<title>descriptions:diagram descriptions</title>
<path fill="#ffffff" stroke="#4b75b9" stroke-width="3" stroke-opacity="0.400000" d="M174.5,-275.5C174.5,-275.5 53.5,-275.5 53.5,-275.5 47.5,-275.5 41.5,-269.5 41.5,-263.5 41.5,-263.5 41.5,-218.5 41.5,-218.5 41.5,-212.5 47.5,-206.5 53.5,-206.5 53.5,-206.5 174.5,-206.5 174.5,-206.5 180.5,-206.5 186.5,-212.5 186.5,-218.5 186.5,-218.5 186.5,-263.5 186.5,-263.5 186.5,-269.5 180.5,-275.5 174.5,-275.5"/>
<image xlink:href="/var/folders/fp/hk95_wsj7s18mmc9drvrxdp1tt294n/T/ndiag.034304/write.svg" width="60px" height="45px" preserveAspectRatio="xMinYMin meet" x="84.5" y="-271"/>
<text text-anchor="start" x="49.9369" y="-213.4" font-family="Arial" font-size="14.00" fill="#333333">diagram descriptions</text>
</g>
<!-- descriptions:diagram descriptions&#45;&gt;ndiag:internal -->
<g id="edge19" class="edge">
<title>descriptions:diagram descriptions&#45;&gt;ndiag:internal</title>
<path fill="none" stroke="#333333" stroke-width="2" stroke-opacity="0.600000" d="M186.5058,-257.1667C186.5058,-257.1667 458.6593,-257.1667 458.6593,-257.1667"/>
<polygon fill="#333333" fill-opacity="0.600000" stroke="#333333" stroke-width="2" stroke-opacity="0.600000" points="458.6593,-260.6668 468.6593,-257.1667 458.6592,-253.6668 458.6593,-260.6668"/>
</g>
<!-- descriptions:layer group descriptions -->
<g id="node20" class="node">
<title>descriptions:layer group descriptions</title>
<path fill="#ffffff" stroke="#4b75b9" stroke-width="3" stroke-opacity="0.400000" d="M184,-188.5C184,-188.5 44,-188.5 44,-188.5 38,-188.5 32,-182.5 32,-176.5 32,-176.5 32,-131.5 32,-131.5 32,-125.5 38,-119.5 44,-119.5 44,-119.5 184,-119.5 184,-119.5 190,-119.5 196,-125.5 196,-131.5 196,-131.5 196,-176.5 196,-176.5 196,-182.5 190,-188.5 184,-188.5"/>
<image xlink:href="/var/folders/fp/hk95_wsj7s18mmc9drvrxdp1tt294n/T/ndiag.034304/write.svg" width="60px" height="45px" preserveAspectRatio="xMinYMin meet" x="84" y="-184"/>
<text text-anchor="start" x="39.709" y="-126.4" font-family="Arial" font-size="14.00" fill="#333333">layer group descriptions</text>
</g>
<!-- descriptions:layer group descriptions&#45;&gt;ndiag:internal -->
<g id="edge20" class="edge">
<title>descriptions:layer group descriptions&#45;&gt;ndiag:internal</title>
<path fill="none" stroke="#333333" stroke-width="2" stroke-opacity="0.600000" d="M190.0272,-188.505C190.0272,-211.9915 190.0272,-238.8333 190.0272,-238.8333 190.0272,-238.8333 458.9612,-238.8333 458.9612,-238.8333"/>
<polygon fill="#333333" fill-opacity="0.600000" stroke="#333333" stroke-width="2" stroke-opacity="0.600000" points="458.9613,-242.3334 468.9612,-238.8333 458.9612,-235.3334 458.9613,-242.3334"/>
</g>
<!-- descriptions:tag group descriptions -->
<g id="node21" class="node">
<title>descriptions:tag group descriptions</title>
<path fill="#ffffff" stroke="#4b75b9" stroke-width="3" stroke-opacity="0.400000" d="M178.5,-101.5C178.5,-101.5 49.5,-101.5 49.5,-101.5 43.5,-101.5 37.5,-95.5 37.5,-89.5 37.5,-89.5 37.5,-44.5 37.5,-44.5 37.5,-38.5 43.5,-32.5 49.5,-32.5 49.5,-32.5 178.5,-32.5 178.5,-32.5 184.5,-32.5 190.5,-38.5 190.5,-44.5 190.5,-44.5 190.5,-89.5 190.5,-89.5 190.5,-95.5 184.5,-101.5 178.5,-101.5"/>
<image xlink:href="/var/folders/fp/hk95_wsj7s18mmc9drvrxdp1tt294n/T/ndiag.034304/write.svg" width="60px" height="45px" preserveAspectRatio="xMinYMin meet" x="84.5" y="-97"/>
<text text-anchor="start" x="45.6473" y="-39.4" font-family="Arial" font-size="14.00" fill="#333333">tag group descriptions</text>
</g>
<!-- descriptions:tag group descriptions&#45;&gt;ndiag:internal -->
<g id="edge21" class="edge">
<title>descriptions:tag group descriptions&#45;&gt;ndiag:internal</title>
<path fill="none" stroke="#333333" stroke-width="2" stroke-opacity="0.600000" d="M190.8276,-48.75C305.9945,-48.75 510.0272,-48.75 510.0272,-48.75 510.0272,-48.75 510.0272,-210.4784 510.0272,-210.4784"/>
<polygon fill="#333333" fill-opacity="0.600000" stroke="#333333" stroke-width="2" stroke-opacity="0.600000" points="506.5273,-210.4784 510.0272,-220.4784 513.5273,-210.4784 506.5273,-210.4784"/>
</g>
<!-- documents:index document -->
<g id="node22" class="node">
<title>documents:index document</title>
<path fill="#ffffff" stroke="#4b75b9" stroke-width="3" d="M714.3128,-408C714.3128,-408 623.694,-408 623.694,-408 617.694,-408 611.694,-402 611.694,-396 611.694,-396 611.694,-384 611.694,-384 611.694,-378 617.694,-372 623.694,-372 623.694,-372 714.3128,-372 714.3128,-372 720.3128,-372 726.3128,-378 726.3128,-384 726.3128,-384 726.3128,-396 726.3128,-396 726.3128,-402 720.3128,-408 714.3128,-408"/>
<text text-anchor="middle" x="669.0034" y="-385.8" font-family="Arial" font-size="14.00" fill="#333333">index document</text>
</g>
<!-- documents:layer group based document -->
<g id="node23" class="node">
<title>documents:layer group based document</title>
<path fill="#ffffff" stroke="#4b75b9" stroke-width="3" d="M753.8936,-354C753.8936,-354 584.1132,-354 584.1132,-354 578.1132,-354 572.1132,-348 572.1132,-342 572.1132,-342 572.1132,-330 572.1132,-330 572.1132,-324 578.1132,-318 584.1132,-318 584.1132,-318 753.8936,-318 753.8936,-318 759.8936,-318 765.8936,-324 765.8936,-330 765.8936,-330 765.8936,-342 765.8936,-342 765.8936,-348 759.8936,-354 753.8936,-354"/>
<text text-anchor="middle" x="669.0034" y="-331.8" font-family="Arial" font-size="14.00" fill="#333333">layer group based document</text>
</g>
<!-- documents:layer based document -->
<g id="node24" class="node">
<title>documents:layer based document</title>
<path fill="#ffffff" stroke="#4b75b9" stroke-width="3" d="M733.7119,-300C733.7119,-300 604.2949,-300 604.2949,-300 598.2949,-300 592.2949,-294 592.2949,-288 592.2949,-288 592.2949,-276 592.2949,-276 592.2949,-270 598.2949,-264 604.2949,-264 604.2949,-264 733.7119,-264 733.7119,-264 739.7119,-264 745.7119,-270 745.7119,-276 745.7119,-276 745.7119,-288 745.7119,-288 745.7119,-294 739.7119,-300 733.7119,-300"/>
<text text-anchor="middle" x="669.0034" y="-277.8" font-family="Arial" font-size="14.00" fill="#333333">layer based document</text>
</g>
<!-- documents:tag(relation) based document -->
<g id="node25" class="node">
<title>documents:tag(relation) based document</title>
<path fill="#ffffff" stroke="#4b75b9" stroke-width="3" d="M756.051,-246C756.051,-246 581.9558,-246 581.9558,-246 575.9558,-246 569.9558,-240 569.9558,-234 569.9558,-234 569.9558,-222 569.9558,-222 569.9558,-216 575.9558,-210 581.9558,-210 581.9558,-210 756.051,-210 756.051,-210 762.051,-210 768.051,-216 768.051,-222 768.051,-222 768.051,-234 768.051,-234 768.051,-240 762.051,-246 756.051,-246"/>
<text text-anchor="middle" x="669.0034" y="-223.8" font-family="Arial" font-size="14.00" fill="#333333">tag(relation) based document</text>
</g>
<!-- documents:custom document -->
<g id="node26" class="node">
<title>documents:custom document</title>
<path fill="#ffffff" stroke="#4b75b9" stroke-width="3" d="M720.4755,-192C720.4755,-192 617.5313,-192 617.5313,-192 611.5313,-192 605.5313,-186 605.5313,-180 605.5313,-180 605.5313,-168 605.5313,-168 605.5313,-162 611.5313,-156 617.5313,-156 617.5313,-156 720.4755,-156 720.4755,-156 726.4755,-156 732.4755,-162 732.4755,-168 732.4755,-168 732.4755,-180 732.4755,-180 732.4755,-186 726.4755,-192 720.4755,-192"/>
<text text-anchor="middle" x="669.0034" y="-169.8" font-family="Arial" font-size="14.00" fill="#333333">custom document</text>
</g>
<!-- ndiag:internal&#45;&gt;documents:index document -->
<g id="edge22" class="edge">
<title>ndiag:internal&#45;&gt;documents:index document</title>
<path fill="none" stroke="#333333" stroke-width="2" stroke-opacity="0.600000" d="M520.0272,-289.7033C520.0272,-327.3057 520.0272,-382 520.0272,-382 520.0272,-382 601.4053,-382 601.4053,-382"/>
<polygon fill="#333333" fill-opacity="0.600000" stroke="#333333" stroke-width="2" stroke-opacity="0.600000" points="601.4053,-385.5001 611.4053,-382 601.4053,-378.5001 601.4053,-385.5001"/>
</g>
<!-- ndiag:internal&#45;&gt;documents:layer based document -->
<g id="edge24" class="edge">
<title>ndiag:internal&#45;&gt;documents:layer based document</title>
<path fill="none" stroke="#333333" stroke-width="2" stroke-opacity="0.600000" d="M530.1791,-276.75C530.1791,-276.75 581.9747,-276.75 581.9747,-276.75"/>
<polygon fill="#333333" fill-opacity="0.600000" stroke="#333333" stroke-width="2" stroke-opacity="0.600000" points="581.9747,-280.2501 591.9747,-276.75 581.9746,-273.2501 581.9747,-280.2501"/>
</g>
<!-- ndiag:internal&#45;&gt;documents:tag(relation) based document -->
<g id="edge25" class="edge">
<title>ndiag:internal&#45;&gt;documents:tag(relation) based document</title>
<path fill="none" stroke="#333333" stroke-width="2" stroke-opacity="0.600000" d="M530.1791,-233.25C530.1791,-233.25 559.9739,-233.25 559.9739,-233.25"/>
<polygon fill="#333333" fill-opacity="0.600000" stroke="#333333" stroke-width="2" stroke-opacity="0.600000" points="559.974,-236.7501 569.9739,-233.25 559.9739,-229.7501 559.974,-236.7501"/>
</g>
<!-- ndiag:internal&#45;&gt;documents:custom document -->
<g id="edge23" class="edge">
<title>ndiag:internal&#45;&gt;documents:custom document</title>
<path fill="none" stroke="#333333" stroke-width="2" stroke-opacity="0.600000" d="M520.0272,-220.4487C520.0272,-201.7755 520.0272,-182.5 520.0272,-182.5 520.0272,-182.5 595.392,-182.5 595.392,-182.5"/>
<polygon fill="#333333" fill-opacity="0.600000" stroke="#333333" stroke-width="2" stroke-opacity="0.600000" points="595.392,-186.0001 605.392,-182.5 595.3919,-179.0001 595.392,-186.0001"/>
</g>
</g>
</svg>
