<?xml version="1.0" encoding="UTF-8" standalone="no"?>
<!DOCTYPE svg PUBLIC "-//W3C//DTD SVG 1.1//EN"
 "http://www.w3.org/Graphics/SVG/1.1/DTD/svg11.dtd">
<!-- Generated by graphviz version 2.40.1 (20161225.0304)
 -->
<!-- Title: ndiag Pages: 1 -->
<svg width="554pt" height="971pt"
 viewBox="0.00 0.00 553.98 971.00" xmlns="http://www.w3.org/2000/svg" xmlns:xlink="http://www.w3.org/1999/xlink">
<g id="graph0" class="graph" transform="scale(1 1) rotate(0) translate(4 967)">
<title>ndiag</title>
<polygon fill="#ffffff" stroke="transparent" points="-4,4 -4,-967 549.9796,-967 549.9796,4 -4,4"/>
<g id="clust13" class="cluster">
<title>cluster_ndiag</title>
<polygon fill="none" stroke="#000000" stroke-width="2" points="460.9796,-212 460.9796,-322 537.9796,-322 537.9796,-212 460.9796,-212"/>
<text text-anchor="middle" x="499.4796" y="-305.4" font-family="Arial" font-size="14.00" fill="#000000">ndiag</text>
</g>
<g id="clust1" class="cluster">
<title>cluster_type:input</title>
<path fill="#4b75b9" fill-opacity="0.200000" stroke="#4b75b9" stroke-opacity="0.200000" d="M20,-8C20,-8 440.9796,-8 440.9796,-8 446.9796,-8 452.9796,-14 452.9796,-20 452.9796,-20 452.9796,-943 452.9796,-943 452.9796,-949 446.9796,-955 440.9796,-955 440.9796,-955 20,-955 20,-955 14,-955 8,-949 8,-943 8,-943 8,-20 8,-20 8,-14 14,-8 20,-8"/>
<text text-anchor="middle" x="230.4898" y="-938.4" font-family="Arial" font-size="14.00" fill="#000000">type:input</text>
</g>
<g id="clust9" class="cluster">
<title>cluster_file:ndiag.descriptions/*.md</title>
<path fill="#4b75b9" fill-opacity="0.200000" stroke="#4b75b9" stroke-opacity="0.200000" d="M28,-16C28,-16 200,-16 200,-16 206,-16 212,-22 212,-28 212,-28 212,-416 212,-416 212,-422 206,-428 200,-428 200,-428 28,-428 28,-428 22,-428 16,-422 16,-416 16,-416 16,-28 16,-28 16,-22 22,-16 28,-16"/>
<text text-anchor="middle" x="114" y="-411.4" font-family="Arial" font-size="14.00" fill="#000000">file:ndiag.descriptions/*.md</text>
</g>
<g id="clust10" class="cluster">
<title>cluster_descriptions</title>
<polygon fill="#ffffff" stroke="#333333" stroke-width="2" points="24,-24 24,-395 204,-395 204,-24 24,-24"/>
<text text-anchor="middle" x="114" y="-378.4" font-family="Arial" font-size="14.00" fill="#000000">descriptions</text>
</g>
<g id="clust4" class="cluster">
<title>cluster_file:ndiag.yml</title>
<path fill="#4b75b9" fill-opacity="0.200000" stroke="#4b75b9" stroke-opacity="0.200000" d="M232,-49C232,-49 432.9796,-49 432.9796,-49 438.9796,-49 444.9796,-55 444.9796,-61 444.9796,-61 444.9796,-910 444.9796,-910 444.9796,-916 438.9796,-922 432.9796,-922 432.9796,-922 232,-922 232,-922 226,-922 220,-916 220,-910 220,-910 220,-61 220,-61 220,-55 226,-49 232,-49"/>
<text text-anchor="middle" x="332.4898" y="-905.4" font-family="Arial" font-size="14.00" fill="#000000">file:ndiag.yml</text>
</g>
<g id="clust8" class="cluster">
<title>cluster_relations</title>
<polygon fill="#ffffff" stroke="#333333" stroke-width="2" points="228,-768 228,-889 436.9796,-889 436.9796,-768 228,-768"/>
<image xlink:href="/var/folders/fp/hk95_wsj7s18mmc9drvrxdp1tt294n/T/ndiag.062375/pen.svg" width="52px" height="45px" preserveAspectRatio="xMinYMin meet" x="306.49" y="-884.5"/>
<text text-anchor="start" x="306.0424" y="-826.9" font-family="Arial" font-size="14.00" fill="#000000">relations</text>
</g>
<g id="clust7" class="cluster">
<title>cluster_networks</title>
<polygon fill="#ffffff" stroke="#333333" stroke-width="2" points="231.5063,-477 231.5063,-760 433.4733,-760 433.4733,-477 231.5063,-477"/>
<image xlink:href="/var/folders/fp/hk95_wsj7s18mmc9drvrxdp1tt294n/T/ndiag.062375/pen.svg" width="56px" height="45px" preserveAspectRatio="xMinYMin meet" x="304.49" y="-755.5"/>
<text text-anchor="start" x="304.487" y="-697.9" font-family="Arial" font-size="14.00" fill="#000000">networks</text>
</g>
<g id="clust6" class="cluster">
<title>cluster_diagrams</title>
<polygon fill="#ffffff" stroke="#333333" stroke-width="2" points="288.879,-294 288.879,-469 376.1006,-469 376.1006,-294 288.879,-294"/>
<image xlink:href="/var/folders/fp/hk95_wsj7s18mmc9drvrxdp1tt294n/T/ndiag.062375/pen.svg" width="57px" height="45px" preserveAspectRatio="xMinYMin meet" x="304.49" y="-464.5"/>
<text text-anchor="start" x="304.2107" y="-406.9" font-family="Arial" font-size="14.00" fill="#000000">diagrams</text>
</g>
<g id="clust5" class="cluster">
<title>cluster_nodes</title>
<polygon fill="#ffffff" stroke="#333333" stroke-width="2" points="297.4898,-57 297.4898,-286 367.4898,-286 367.4898,-57 297.4898,-57"/>
<image xlink:href="/var/folders/fp/hk95_wsj7s18mmc9drvrxdp1tt294n/T/ndiag.062375/pen.svg" width="45px" height="45px" preserveAspectRatio="xMinYMin meet" x="310.49" y="-281.5"/>
<text text-anchor="start" x="313.9246" y="-223.9" font-family="Arial" font-size="14.00" fill="#000000">nodes</text>
</g>
<g id="clust2" class="cluster">
<title>cluster_file:nodes.yml</title>
<path fill="#4b75b9" fill-opacity="0.200000" stroke="#4b75b9" stroke-opacity="0.200000" d="M76,-436C76,-436 153,-436 153,-436 159,-436 165,-442 165,-448 165,-448 165,-910 165,-910 165,-916 159,-922 153,-922 153,-922 76,-922 76,-922 70,-922 64,-916 64,-910 64,-910 64,-448 64,-448 64,-442 70,-436 76,-436"/>
<text text-anchor="middle" x="114.5" y="-905.4" font-family="Arial" font-size="14.00" fill="#000000">file:nodes.yml</text>
</g>
<g id="clust3" class="cluster">
<title>cluster_real nodes</title>
<polygon fill="#ffffff" stroke="#333333" stroke-width="2" points="74,-444 74,-889 155,-889 155,-444 74,-444"/>
<image xlink:href="/var/folders/fp/hk95_wsj7s18mmc9drvrxdp1tt294n/T/ndiag.062375/gear.svg" width="60px" height="45px" preserveAspectRatio="xMinYMin meet" x="85" y="-884.5"/>
<text text-anchor="start" x="82.3233" y="-826.9" font-family="Arial" font-size="14.00" fill="#000000">real nodes</text>
</g>
<!-- real nodes:lb&#45;1 -->
<g id="node1" class="node">
<title>real nodes:lb&#45;1</title>
<path fill="#ffffff" stroke="#4b75b9" stroke-width="3" d="M129,-812C129,-812 99,-812 99,-812 93,-812 87,-806 87,-800 87,-800 87,-788 87,-788 87,-782 93,-776 99,-776 99,-776 129,-776 129,-776 135,-776 141,-782 141,-788 141,-788 141,-800 141,-800 141,-806 135,-812 129,-812"/>
<text text-anchor="middle" x="114" y="-789.8" font-family="Arial" font-size="14.00" fill="#333333">lb&#45;1</text>
</g>
<!-- nodes:lb&#45;* -->
<g id="node8" class="node">
<title>nodes:lb&#45;*</title>
<path fill="#ffffff" stroke="#4b75b9" stroke-width="3" d="M347.4898,-209C347.4898,-209 317.4898,-209 317.4898,-209 311.4898,-209 305.4898,-203 305.4898,-197 305.4898,-197 305.4898,-185 305.4898,-185 305.4898,-179 311.4898,-173 317.4898,-173 317.4898,-173 347.4898,-173 347.4898,-173 353.4898,-173 359.4898,-179 359.4898,-185 359.4898,-185 359.4898,-197 359.4898,-197 359.4898,-203 353.4898,-209 347.4898,-209"/>
<text text-anchor="middle" x="332.4898" y="-186.8" font-family="Arial" font-size="14.00" fill="#333333">lb&#45;*</text>
</g>
<!-- real nodes:lb&#45;1&#45;&gt;nodes:lb&#45;* -->
<g id="edge1" class="edge">
<title>real nodes:lb&#45;1&#45;&gt;nodes:lb&#45;*</title>
<path fill="none" stroke="#333333" stroke-width="2" stroke-opacity="0.600000" d="M141.0669,-794C175.8985,-794 231.9796,-794 231.9796,-794 231.9796,-794 231.9796,-200.5 231.9796,-200.5 231.9796,-200.5 295.2903,-200.5 295.2903,-200.5"/>
<polygon fill="#333333" fill-opacity="0.600000" stroke="#333333" stroke-width="2" stroke-opacity="0.600000" points="295.2903,-204.0001 305.2903,-200.5 295.2903,-197.0001 295.2903,-204.0001"/>
</g>
<!-- real nodes:lb&#45;2 -->
<g id="node2" class="node">
<title>real nodes:lb&#45;2</title>
<path fill="#ffffff" stroke="#4b75b9" stroke-width="3" d="M129,-758C129,-758 99,-758 99,-758 93,-758 87,-752 87,-746 87,-746 87,-734 87,-734 87,-728 93,-722 99,-722 99,-722 129,-722 129,-722 135,-722 141,-728 141,-734 141,-734 141,-746 141,-746 141,-752 135,-758 129,-758"/>
<text text-anchor="middle" x="114" y="-735.8" font-family="Arial" font-size="14.00" fill="#333333">lb&#45;2</text>
</g>
<!-- real nodes:lb&#45;2&#45;&gt;nodes:lb&#45;* -->
<g id="edge3" class="edge">
<title>real nodes:lb&#45;2&#45;&gt;nodes:lb&#45;*</title>
<path fill="none" stroke="#333333" stroke-width="2" stroke-opacity="0.600000" d="M141.0614,-740C174.4854,-740 226.9796,-740 226.9796,-740 226.9796,-740 226.9796,-194.5 226.9796,-194.5 226.9796,-194.5 295.3183,-194.5 295.3183,-194.5"/>
<polygon fill="#333333" fill-opacity="0.600000" stroke="#333333" stroke-width="2" stroke-opacity="0.600000" points="295.3183,-198.0001 305.3183,-194.5 295.3183,-191.0001 295.3183,-198.0001"/>
</g>
<!-- real nodes:app&#45;1 -->
<g id="node3" class="node">
<title>real nodes:app&#45;1</title>
<path fill="#ffffff" stroke="#4b75b9" stroke-width="3" d="M129,-704C129,-704 99,-704 99,-704 93,-704 87,-698 87,-692 87,-692 87,-680 87,-680 87,-674 93,-668 99,-668 99,-668 129,-668 129,-668 135,-668 141,-674 141,-680 141,-680 141,-692 141,-692 141,-698 135,-704 129,-704"/>
<text text-anchor="middle" x="114" y="-681.8" font-family="Arial" font-size="14.00" fill="#333333">app&#45;1</text>
</g>
<!-- nodes:app&#45;* -->
<g id="node9" class="node">
<title>nodes:app&#45;*</title>
<path fill="#ffffff" stroke="#4b75b9" stroke-width="3" d="M347.4898,-155C347.4898,-155 317.4898,-155 317.4898,-155 311.4898,-155 305.4898,-149 305.4898,-143 305.4898,-143 305.4898,-131 305.4898,-131 305.4898,-125 311.4898,-119 317.4898,-119 317.4898,-119 347.4898,-119 347.4898,-119 353.4898,-119 359.4898,-125 359.4898,-131 359.4898,-131 359.4898,-143 359.4898,-143 359.4898,-149 353.4898,-155 347.4898,-155"/>
<text text-anchor="middle" x="332.4898" y="-132.8" font-family="Arial" font-size="14.00" fill="#333333">app&#45;*</text>
</g>
<!-- real nodes:app&#45;1&#45;&gt;nodes:app&#45;* -->
<g id="edge4" class="edge">
<title>real nodes:app&#45;1&#45;&gt;nodes:app&#45;*</title>
<path fill="none" stroke="#333333" stroke-width="2" stroke-opacity="0.600000" d="M141.2478,-675.5C173.2359,-675.5 221.9796,-675.5 221.9796,-675.5 221.9796,-675.5 221.9796,-146.125 221.9796,-146.125 221.9796,-146.125 295.456,-146.125 295.456,-146.125"/>
<polygon fill="#333333" fill-opacity="0.600000" stroke="#333333" stroke-width="2" stroke-opacity="0.600000" points="295.456,-149.6251 305.456,-146.125 295.4559,-142.6251 295.456,-149.6251"/>
</g>
<!-- real nodes:app&#45;2 -->
<g id="node4" class="node">
<title>real nodes:app&#45;2</title>
<path fill="#ffffff" stroke="#4b75b9" stroke-width="3" d="M129,-650C129,-650 99,-650 99,-650 93,-650 87,-644 87,-638 87,-638 87,-626 87,-626 87,-620 93,-614 99,-614 99,-614 129,-614 129,-614 135,-614 141,-620 141,-626 141,-626 141,-638 141,-638 141,-644 135,-650 129,-650"/>
<text text-anchor="middle" x="114" y="-627.8" font-family="Arial" font-size="14.00" fill="#333333">app&#45;2</text>
</g>
<!-- real nodes:app&#45;2&#45;&gt;nodes:app&#45;* -->
<g id="edge6" class="edge">
<title>real nodes:app&#45;2&#45;&gt;nodes:app&#45;*</title>
<path fill="none" stroke="#333333" stroke-width="2" stroke-opacity="0.600000" d="M141.0567,-621.5C171.5678,-621.5 216.9796,-621.5 216.9796,-621.5 216.9796,-621.5 216.9796,-137.25 216.9796,-137.25 216.9796,-137.25 295.4078,-137.25 295.4078,-137.25"/>
<polygon fill="#333333" fill-opacity="0.600000" stroke="#333333" stroke-width="2" stroke-opacity="0.600000" points="295.4078,-140.7501 305.4078,-137.25 295.4078,-133.7501 295.4078,-140.7501"/>
</g>
<!-- real nodes:app&#45;3 -->
<g id="node5" class="node">
<title>real nodes:app&#45;3</title>
<path fill="#ffffff" stroke="#4b75b9" stroke-width="3" d="M129,-596C129,-596 99,-596 99,-596 93,-596 87,-590 87,-584 87,-584 87,-572 87,-572 87,-566 93,-560 99,-560 99,-560 129,-560 129,-560 135,-560 141,-566 141,-572 141,-572 141,-584 141,-584 141,-590 135,-596 129,-596"/>
<text text-anchor="middle" x="114" y="-573.8" font-family="Arial" font-size="14.00" fill="#333333">app&#45;3</text>
</g>
<!-- real nodes:app&#45;3&#45;&gt;nodes:app&#45;* -->
<g id="edge7" class="edge">
<title>real nodes:app&#45;3&#45;&gt;nodes:app&#45;*</title>
<path fill="none" stroke="#333333" stroke-width="2" stroke-opacity="0.600000" d="M141.0327,-567.5C170.0341,-567.5 211.9796,-567.5 211.9796,-567.5 211.9796,-567.5 211.9796,-128.375 211.9796,-128.375 211.9796,-128.375 295.445,-128.375 295.445,-128.375"/>
<polygon fill="#333333" fill-opacity="0.600000" stroke="#333333" stroke-width="2" stroke-opacity="0.600000" points="295.445,-131.8751 305.445,-128.375 295.4449,-124.8751 295.445,-131.8751"/>
</g>
<!-- real nodes:db&#45;1 -->
<g id="node6" class="node">
<title>real nodes:db&#45;1</title>
<path fill="#ffffff" stroke="#4b75b9" stroke-width="3" d="M129,-542C129,-542 99,-542 99,-542 93,-542 87,-536 87,-530 87,-530 87,-518 87,-518 87,-512 93,-506 99,-506 99,-506 129,-506 129,-506 135,-506 141,-512 141,-518 141,-518 141,-530 141,-530 141,-536 135,-542 129,-542"/>
<text text-anchor="middle" x="114" y="-519.8" font-family="Arial" font-size="14.00" fill="#333333">db&#45;1</text>
</g>
<!-- nodes:db&#45;* -->
<g id="node10" class="node">
<title>nodes:db&#45;*</title>
<path fill="#ffffff" stroke="#4b75b9" stroke-width="3" d="M347.4898,-101C347.4898,-101 317.4898,-101 317.4898,-101 311.4898,-101 305.4898,-95 305.4898,-89 305.4898,-89 305.4898,-77 305.4898,-77 305.4898,-71 311.4898,-65 317.4898,-65 317.4898,-65 347.4898,-65 347.4898,-65 353.4898,-65 359.4898,-71 359.4898,-77 359.4898,-77 359.4898,-89 359.4898,-89 359.4898,-95 353.4898,-101 347.4898,-101"/>
<text text-anchor="middle" x="332.4898" y="-78.8" font-family="Arial" font-size="14.00" fill="#333333">db&#45;*</text>
</g>
<!-- real nodes:db&#45;1&#45;&gt;nodes:db&#45;* -->
<g id="edge8" class="edge">
<title>real nodes:db&#45;1&#45;&gt;nodes:db&#45;*</title>
<path fill="none" stroke="#333333" stroke-width="2" stroke-opacity="0.600000" d="M141.3941,-513.5C168.8207,-513.5 206.9796,-513.5 206.9796,-513.5 206.9796,-513.5 206.9796,-89 206.9796,-89 206.9796,-89 295.256,-89 295.256,-89"/>
<polygon fill="#333333" fill-opacity="0.600000" stroke="#333333" stroke-width="2" stroke-opacity="0.600000" points="295.256,-92.5001 305.256,-89 295.2559,-85.5001 295.256,-92.5001"/>
</g>
<!-- real nodes:db&#45;2 -->
<g id="node7" class="node">
<title>real nodes:db&#45;2</title>
<path fill="#ffffff" stroke="#4b75b9" stroke-width="3" d="M129,-488C129,-488 99,-488 99,-488 93,-488 87,-482 87,-476 87,-476 87,-464 87,-464 87,-458 93,-452 99,-452 99,-452 129,-452 129,-452 135,-452 141,-458 141,-464 141,-464 141,-476 141,-476 141,-482 135,-488 129,-488"/>
<text text-anchor="middle" x="114" y="-465.8" font-family="Arial" font-size="14.00" fill="#333333">db&#45;2</text>
</g>
<!-- real nodes:db&#45;2&#45;&gt;nodes:db&#45;* -->
<g id="edge10" class="edge">
<title>real nodes:db&#45;2&#45;&gt;nodes:db&#45;*</title>
<path fill="none" stroke="#333333" stroke-width="2" stroke-opacity="0.600000" d="M141.355,-468.5C167.1816,-468.5 201.9796,-468.5 201.9796,-468.5 201.9796,-468.5 201.9796,-77 201.9796,-77 201.9796,-77 295.448,-77 295.448,-77"/>
<polygon fill="#333333" fill-opacity="0.600000" stroke="#333333" stroke-width="2" stroke-opacity="0.600000" points="295.448,-80.5001 305.448,-77 295.448,-73.5001 295.448,-80.5001"/>
</g>
<!-- ndiag:internal -->
<g id="node22" class="node">
<title>ndiag:internal</title>
<path fill="#ffffff" stroke="#4b75b9" stroke-width="3" stroke-opacity="0.400000" d="M517.9796,-289.5C517.9796,-289.5 480.9796,-289.5 480.9796,-289.5 474.9796,-289.5 468.9796,-283.5 468.9796,-277.5 468.9796,-277.5 468.9796,-232.5 468.9796,-232.5 468.9796,-226.5 474.9796,-220.5 480.9796,-220.5 480.9796,-220.5 517.9796,-220.5 517.9796,-220.5 523.9796,-220.5 529.9796,-226.5 529.9796,-232.5 529.9796,-232.5 529.9796,-277.5 529.9796,-277.5 529.9796,-283.5 523.9796,-289.5 517.9796,-289.5"/>
<image xlink:href="/var/folders/fp/hk95_wsj7s18mmc9drvrxdp1tt294n/T/ndiag.062375/hex2.svg" width="45px" height="45px" preserveAspectRatio="xMinYMin meet" x="477.48" y="-285"/>
<text text-anchor="start" x="477.0322" y="-227.4" font-family="Arial" font-size="14.00" fill="#333333">internal</text>
</g>
<!-- nodes:lb&#45;*&#45;&gt;ndiag:internal -->
<g id="edge2" class="edge">
<title>nodes:lb&#45;*&#45;&gt;ndiag:internal</title>
<path fill="none" stroke="#333333" stroke-width="2" stroke-opacity="0.600000" d="M359.5613,-191C402.6401,-191 481.9796,-191 481.9796,-191 481.9796,-191 481.9796,-210.3776 481.9796,-210.3776"/>
<polygon fill="#333333" fill-opacity="0.600000" stroke="#333333" stroke-width="2" stroke-opacity="0.600000" points="478.4797,-210.3776 481.9796,-220.3776 485.4797,-210.3777 478.4797,-210.3776"/>
</g>
<!-- nodes:app&#45;*&#45;&gt;ndiag:internal -->
<g id="edge5" class="edge">
<title>nodes:app&#45;*&#45;&gt;ndiag:internal</title>
<path fill="none" stroke="#333333" stroke-width="2" stroke-opacity="0.600000" d="M359.5196,-137C405.4918,-137 493.9796,-137 493.9796,-137 493.9796,-137 493.9796,-210.2343 493.9796,-210.2343"/>
<polygon fill="#333333" fill-opacity="0.600000" stroke="#333333" stroke-width="2" stroke-opacity="0.600000" points="490.4797,-210.2343 493.9796,-220.2343 497.4797,-210.2344 490.4797,-210.2343"/>
</g>
<!-- nodes:db&#45;*&#45;&gt;ndiag:internal -->
<g id="edge9" class="edge">
<title>nodes:db&#45;*&#45;&gt;ndiag:internal</title>
<path fill="none" stroke="#333333" stroke-width="2" stroke-opacity="0.600000" d="M359.5976,-83C408.3916,-83 505.9796,-83 505.9796,-83 505.9796,-83 505.9796,-210.1932 505.9796,-210.1932"/>
<polygon fill="#333333" fill-opacity="0.600000" stroke="#333333" stroke-width="2" stroke-opacity="0.600000" points="502.4797,-210.1932 505.9796,-220.1932 509.4797,-210.1933 502.4797,-210.1932"/>
</g>
<!-- diagrams:overview -->
<g id="node11" class="node">
<title>diagrams:overview</title>
<path fill="#ffffff" stroke="#4b75b9" stroke-width="3" d="M356.2117,-392C356.2117,-392 308.7679,-392 308.7679,-392 302.7679,-392 296.7679,-386 296.7679,-380 296.7679,-380 296.7679,-368 296.7679,-368 296.7679,-362 302.7679,-356 308.7679,-356 308.7679,-356 356.2117,-356 356.2117,-356 362.2117,-356 368.2117,-362 368.2117,-368 368.2117,-368 368.2117,-380 368.2117,-380 368.2117,-386 362.2117,-392 356.2117,-392"/>
<text text-anchor="middle" x="332.4898" y="-369.8" font-family="Arial" font-size="14.00" fill="#333333">overview</text>
</g>
<!-- diagrams:overview&#45;&gt;ndiag:internal -->
<g id="edge11" class="edge">
<title>diagrams:overview&#45;&gt;ndiag:internal</title>
<path fill="none" stroke="#333333" stroke-width="2" stroke-opacity="0.600000" d="M364.9796,-355.7669C364.9796,-329.4394 364.9796,-283.9 364.9796,-283.9 364.9796,-283.9 458.9595,-283.9 458.9595,-283.9"/>
<polygon fill="#333333" fill-opacity="0.600000" stroke="#333333" stroke-width="2" stroke-opacity="0.600000" points="458.9595,-287.4001 468.9595,-283.9 458.9594,-280.4001 458.9595,-287.4001"/>
</g>
<!-- diagrams:http&#45;lb -->
<g id="node12" class="node">
<title>diagrams:http&#45;lb</title>
<path fill="#ffffff" stroke="#4b75b9" stroke-width="3" d="M347.8861,-338C347.8861,-338 317.0935,-338 317.0935,-338 311.0935,-338 305.0935,-332 305.0935,-326 305.0935,-326 305.0935,-314 305.0935,-314 305.0935,-308 311.0935,-302 317.0935,-302 317.0935,-302 347.8861,-302 347.8861,-302 353.8861,-302 359.8861,-308 359.8861,-314 359.8861,-314 359.8861,-326 359.8861,-326 359.8861,-332 353.8861,-338 347.8861,-338"/>
<text text-anchor="middle" x="332.4898" y="-315.8" font-family="Arial" font-size="14.00" fill="#333333">http&#45;lb</text>
</g>
<!-- diagrams:http&#45;lb&#45;&gt;ndiag:internal -->
<g id="edge12" class="edge">
<title>diagrams:http&#45;lb&#45;&gt;ndiag:internal</title>
<path fill="none" stroke="#333333" stroke-width="2" stroke-opacity="0.600000" d="M332.9796,-301.9166C332.9796,-291.7581 332.9796,-281.1 332.9796,-281.1 332.9796,-281.1 458.9409,-281.1 458.9409,-281.1"/>
<polygon fill="#333333" fill-opacity="0.600000" stroke="#333333" stroke-width="2" stroke-opacity="0.600000" points="458.941,-284.6001 468.9409,-281.1 458.9409,-277.6001 458.941,-284.6001"/>
</g>
<!-- networks:internet&#45;&gt;group:lb:vip -->
<g id="node13" class="node">
<title>networks:internet&#45;&gt;group:lb:vip</title>
<path fill="#ffffff" stroke="#4b75b9" stroke-width="3" d="M394.3545,-683C394.3545,-683 270.6251,-683 270.6251,-683 264.6251,-683 258.6251,-677 258.6251,-671 258.6251,-671 258.6251,-659 258.6251,-659 258.6251,-653 264.6251,-647 270.6251,-647 270.6251,-647 394.3545,-647 394.3545,-647 400.3545,-647 406.3545,-653 406.3545,-659 406.3545,-659 406.3545,-671 406.3545,-671 406.3545,-677 400.3545,-683 394.3545,-683"/>
<text text-anchor="middle" x="332.4898" y="-660.8" font-family="Arial" font-size="14.00" fill="#333333">internet&#45;&gt;group:lb:vip</text>
</g>
<!-- networks:internet&#45;&gt;group:lb:vip&#45;&gt;ndiag:internal -->
<g id="edge13" class="edge">
<title>networks:internet&#45;&gt;group:lb:vip&#45;&gt;ndiag:internal</title>
<path fill="none" stroke="#333333" stroke-width="2" stroke-opacity="0.600000" d="M406.5683,-665C453.7223,-665 505.9796,-665 505.9796,-665 505.9796,-665 505.9796,-299.603 505.9796,-299.603"/>
<polygon fill="#333333" fill-opacity="0.600000" stroke="#333333" stroke-width="2" stroke-opacity="0.600000" points="509.4797,-299.603 505.9796,-289.603 502.4797,-299.6031 509.4797,-299.603"/>
</g>
<!-- networks:group:lb:vip&#45;&gt;lb&#45;*:nginx -->
<g id="node14" class="node">
<title>networks:group:lb:vip&#45;&gt;lb&#45;*:nginx</title>
<path fill="#ffffff" stroke="#4b75b9" stroke-width="3" d="M400.0157,-629C400.0157,-629 264.9639,-629 264.9639,-629 258.9639,-629 252.9639,-623 252.9639,-617 252.9639,-617 252.9639,-605 252.9639,-605 252.9639,-599 258.9639,-593 264.9639,-593 264.9639,-593 400.0157,-593 400.0157,-593 406.0157,-593 412.0157,-599 412.0157,-605 412.0157,-605 412.0157,-617 412.0157,-617 412.0157,-623 406.0157,-629 400.0157,-629"/>
<text text-anchor="middle" x="332.4898" y="-606.8" font-family="Arial" font-size="14.00" fill="#333333">group:lb:vip&#45;&gt;lb&#45;*:nginx</text>
</g>
<!-- networks:group:lb:vip&#45;&gt;lb&#45;*:nginx&#45;&gt;ndiag:internal -->
<g id="edge14" class="edge">
<title>networks:group:lb:vip&#45;&gt;lb&#45;*:nginx&#45;&gt;ndiag:internal</title>
<path fill="none" stroke="#333333" stroke-width="2" stroke-opacity="0.600000" d="M412.2885,-611C452.9739,-611 493.9796,-611 493.9796,-611 493.9796,-611 493.9796,-299.783 493.9796,-299.783"/>
<polygon fill="#333333" fill-opacity="0.600000" stroke="#333333" stroke-width="2" stroke-opacity="0.600000" points="497.4797,-299.7829 493.9796,-289.783 490.4797,-299.783 497.4797,-299.7829"/>
</g>
<!-- networks:lb&#45;*:nginx&#45;&gt;app&#45;*:rails -->
<g id="node15" class="node">
<title>networks:lb&#45;*:nginx&#45;&gt;app&#45;*:rails</title>
<path fill="#ffffff" stroke="#4b75b9" stroke-width="3" d="M395.6645,-575C395.6645,-575 269.3151,-575 269.3151,-575 263.3151,-575 257.3151,-569 257.3151,-563 257.3151,-563 257.3151,-551 257.3151,-551 257.3151,-545 263.3151,-539 269.3151,-539 269.3151,-539 395.6645,-539 395.6645,-539 401.6645,-539 407.6645,-545 407.6645,-551 407.6645,-551 407.6645,-563 407.6645,-563 407.6645,-569 401.6645,-575 395.6645,-575"/>
<text text-anchor="middle" x="332.4898" y="-552.8" font-family="Arial" font-size="14.00" fill="#333333">lb&#45;*:nginx&#45;&gt;app&#45;*:rails</text>
</g>
<!-- networks:lb&#45;*:nginx&#45;&gt;app&#45;*:rails&#45;&gt;ndiag:internal -->
<g id="edge15" class="edge">
<title>networks:lb&#45;*:nginx&#45;&gt;app&#45;*:rails&#45;&gt;ndiag:internal</title>
<path fill="none" stroke="#333333" stroke-width="2" stroke-opacity="0.600000" d="M407.6727,-557C444.8986,-557 481.9796,-557 481.9796,-557 481.9796,-557 481.9796,-299.6432 481.9796,-299.6432"/>
<polygon fill="#333333" fill-opacity="0.600000" stroke="#333333" stroke-width="2" stroke-opacity="0.600000" points="485.4797,-299.6432 481.9796,-289.6432 478.4797,-299.6433 485.4797,-299.6432"/>
</g>
<!-- networks:app&#45;*:rails&#45;&gt;db&#45;*:postgresql -->
<g id="node16" class="node">
<title>networks:app&#45;*:rails&#45;&gt;db&#45;*:postgresql</title>
<path fill="#ffffff" stroke="#4b75b9" stroke-width="3" d="M413.4568,-521C413.4568,-521 251.5228,-521 251.5228,-521 245.5228,-521 239.5228,-515 239.5228,-509 239.5228,-509 239.5228,-497 239.5228,-497 239.5228,-491 245.5228,-485 251.5228,-485 251.5228,-485 413.4568,-485 413.4568,-485 419.4568,-485 425.4568,-491 425.4568,-497 425.4568,-497 425.4568,-509 425.4568,-509 425.4568,-515 419.4568,-521 413.4568,-521"/>
<text text-anchor="middle" x="332.4898" y="-498.8" font-family="Arial" font-size="14.00" fill="#333333">app&#45;*:rails&#45;&gt;db&#45;*:postgresql</text>
</g>
<!-- networks:app&#45;*:rails&#45;&gt;db&#45;*:postgresql&#45;&gt;ndiag:internal -->
<g id="edge16" class="edge">
<title>networks:app&#45;*:rails&#45;&gt;db&#45;*:postgresql&#45;&gt;ndiag:internal</title>
<path fill="none" stroke="#333333" stroke-width="2" stroke-opacity="0.600000" d="M396.9796,-484.9304C396.9796,-432.9449 396.9796,-286.7 396.9796,-286.7 396.9796,-286.7 458.7262,-286.7 458.7262,-286.7"/>
<polygon fill="#333333" fill-opacity="0.600000" stroke="#333333" stroke-width="2" stroke-opacity="0.600000" points="458.7263,-290.2001 468.7262,-286.7 458.7262,-283.2001 458.7263,-290.2001"/>
</g>
<!-- relations:lb&#45;*:keepalived&#45;&gt;group:lb:vip -->
<g id="node17" class="node">
<title>relations:lb&#45;*:keepalived&#45;&gt;group:lb:vip</title>
<path fill="#ffffff" stroke="#4b75b9" stroke-width="3" d="M416.9694,-812C416.9694,-812 248.0102,-812 248.0102,-812 242.0102,-812 236.0102,-806 236.0102,-800 236.0102,-800 236.0102,-788 236.0102,-788 236.0102,-782 242.0102,-776 248.0102,-776 248.0102,-776 416.9694,-776 416.9694,-776 422.9694,-776 428.9694,-782 428.9694,-788 428.9694,-788 428.9694,-800 428.9694,-800 428.9694,-806 422.9694,-812 416.9694,-812"/>
<text text-anchor="middle" x="332.4898" y="-789.8" font-family="Arial" font-size="14.00" fill="#333333">lb&#45;*:keepalived&#45;&gt;group:lb:vip</text>
</g>
<!-- relations:lb&#45;*:keepalived&#45;&gt;group:lb:vip&#45;&gt;ndiag:internal -->
<g id="edge17" class="edge">
<title>relations:lb&#45;*:keepalived&#45;&gt;group:lb:vip&#45;&gt;ndiag:internal</title>
<path fill="none" stroke="#333333" stroke-width="2" stroke-opacity="0.600000" d="M429.0377,-794C474.1085,-794 517.9796,-794 517.9796,-794 517.9796,-794 517.9796,-299.5368 517.9796,-299.5368"/>
<polygon fill="#333333" fill-opacity="0.600000" stroke="#333333" stroke-width="2" stroke-opacity="0.600000" points="521.4797,-299.5368 517.9796,-289.5368 514.4797,-299.5368 521.4797,-299.5368"/>
</g>
<!-- descriptions:component descriptions -->
<g id="node18" class="node">
<title>descriptions:component descriptions</title>
<path fill="#ffffff" stroke="#4b75b9" stroke-width="3" stroke-opacity="0.400000" d="M183.5,-362.5C183.5,-362.5 44.5,-362.5 44.5,-362.5 38.5,-362.5 32.5,-356.5 32.5,-350.5 32.5,-350.5 32.5,-305.5 32.5,-305.5 32.5,-299.5 38.5,-293.5 44.5,-293.5 44.5,-293.5 183.5,-293.5 183.5,-293.5 189.5,-293.5 195.5,-299.5 195.5,-305.5 195.5,-305.5 195.5,-350.5 195.5,-350.5 195.5,-356.5 189.5,-362.5 183.5,-362.5"/>
<image xlink:href="/var/folders/fp/hk95_wsj7s18mmc9drvrxdp1tt294n/T/ndiag.062375/write.svg" width="60px" height="45px" preserveAspectRatio="xMinYMin meet" x="84.5" y="-358"/>
<text text-anchor="start" x="40.5926" y="-300.4" font-family="Arial" font-size="14.00" fill="#333333">component descriptions</text>
</g>
<!-- descriptions:component descriptions&#45;&gt;ndiag:internal -->
<g id="edge18" class="edge">
<title>descriptions:component descriptions&#45;&gt;ndiag:internal</title>
<path fill="none" stroke="#333333" stroke-width="2" stroke-opacity="0.600000" d="M192.9796,-293.4817C192.9796,-285.0009 192.9796,-278.3 192.9796,-278.3 192.9796,-278.3 458.9707,-278.3 458.9707,-278.3"/>
<polygon fill="#333333" fill-opacity="0.600000" stroke="#333333" stroke-width="2" stroke-opacity="0.600000" points="458.9707,-281.8001 468.9707,-278.3 458.9706,-274.8001 458.9707,-281.8001"/>
</g>
<!-- descriptions:diagram descriptions -->
<g id="node19" class="node">
<title>descriptions:diagram descriptions</title>
<path fill="#ffffff" stroke="#4b75b9" stroke-width="3" stroke-opacity="0.400000" d="M174.5,-275.5C174.5,-275.5 53.5,-275.5 53.5,-275.5 47.5,-275.5 41.5,-269.5 41.5,-263.5 41.5,-263.5 41.5,-218.5 41.5,-218.5 41.5,-212.5 47.5,-206.5 53.5,-206.5 53.5,-206.5 174.5,-206.5 174.5,-206.5 180.5,-206.5 186.5,-212.5 186.5,-218.5 186.5,-218.5 186.5,-263.5 186.5,-263.5 186.5,-269.5 180.5,-275.5 174.5,-275.5"/>
<image xlink:href="/var/folders/fp/hk95_wsj7s18mmc9drvrxdp1tt294n/T/ndiag.062375/write.svg" width="60px" height="45px" preserveAspectRatio="xMinYMin meet" x="84.5" y="-271"/>
<text text-anchor="start" x="49.9369" y="-213.4" font-family="Arial" font-size="14.00" fill="#333333">diagram descriptions</text>
</g>
<!-- descriptions:diagram descriptions&#45;&gt;ndiag:internal -->
<g id="edge19" class="edge">
<title>descriptions:diagram descriptions&#45;&gt;ndiag:internal</title>
<path fill="none" stroke="#333333" stroke-width="2" stroke-opacity="0.600000" d="M186.5058,-257.1667C186.5058,-257.1667 458.6593,-257.1667 458.6593,-257.1667"/>
<polygon fill="#333333" fill-opacity="0.600000" stroke="#333333" stroke-width="2" stroke-opacity="0.600000" points="458.6593,-260.6668 468.6593,-257.1667 458.6592,-253.6668 458.6593,-260.6668"/>
</g>
<!-- descriptions:layer group descriptions -->
<g id="node20" class="node">
<title>descriptions:layer group descriptions</title>
<path fill="#ffffff" stroke="#4b75b9" stroke-width="3" stroke-opacity="0.400000" d="M184,-188.5C184,-188.5 44,-188.5 44,-188.5 38,-188.5 32,-182.5 32,-176.5 32,-176.5 32,-131.5 32,-131.5 32,-125.5 38,-119.5 44,-119.5 44,-119.5 184,-119.5 184,-119.5 190,-119.5 196,-125.5 196,-131.5 196,-131.5 196,-176.5 196,-176.5 196,-182.5 190,-188.5 184,-188.5"/>
<image xlink:href="/var/folders/fp/hk95_wsj7s18mmc9drvrxdp1tt294n/T/ndiag.062375/write.svg" width="60px" height="45px" preserveAspectRatio="xMinYMin meet" x="84" y="-184"/>
<text text-anchor="start" x="39.709" y="-126.4" font-family="Arial" font-size="14.00" fill="#333333">layer group descriptions</text>
</g>
<!-- descriptions:layer group descriptions&#45;&gt;ndiag:internal -->
<g id="edge20" class="edge">
<title>descriptions:layer group descriptions&#45;&gt;ndiag:internal</title>
<path fill="none" stroke="#333333" stroke-width="2" stroke-opacity="0.600000" d="M189.9796,-188.505C189.9796,-211.9915 189.9796,-238.8333 189.9796,-238.8333 189.9796,-238.8333 458.9565,-238.8333 458.9565,-238.8333"/>
<polygon fill="#333333" fill-opacity="0.600000" stroke="#333333" stroke-width="2" stroke-opacity="0.600000" points="458.9566,-242.3334 468.9565,-238.8333 458.9565,-235.3334 458.9566,-242.3334"/>
</g>
<!-- descriptions:tag group descriptions -->
<g id="node21" class="node">
<title>descriptions:tag group descriptions</title>
<path fill="#ffffff" stroke="#4b75b9" stroke-width="3" stroke-opacity="0.400000" d="M178.5,-101.5C178.5,-101.5 49.5,-101.5 49.5,-101.5 43.5,-101.5 37.5,-95.5 37.5,-89.5 37.5,-89.5 37.5,-44.5 37.5,-44.5 37.5,-38.5 43.5,-32.5 49.5,-32.5 49.5,-32.5 178.5,-32.5 178.5,-32.5 184.5,-32.5 190.5,-38.5 190.5,-44.5 190.5,-44.5 190.5,-89.5 190.5,-89.5 190.5,-95.5 184.5,-101.5 178.5,-101.5"/>
<image xlink:href="/var/folders/fp/hk95_wsj7s18mmc9drvrxdp1tt294n/T/ndiag.062375/write.svg" width="60px" height="45px" preserveAspectRatio="xMinYMin meet" x="84.5" y="-97"/>
<text text-anchor="start" x="45.6473" y="-39.4" font-family="Arial" font-size="14.00" fill="#333333">tag group descriptions</text>
</g>
<!-- descriptions:tag group descriptions&#45;&gt;ndiag:internal -->
<g id="edge21" class="edge">
<title>descriptions:tag group descriptions&#45;&gt;ndiag:internal</title>
<path fill="none" stroke="#333333" stroke-width="2" stroke-opacity="0.600000" d="M190.9364,-48.75C308.1473,-48.75 517.9796,-48.75 517.9796,-48.75 517.9796,-48.75 517.9796,-210.4784 517.9796,-210.4784"/>
<polygon fill="#333333" fill-opacity="0.600000" stroke="#333333" stroke-width="2" stroke-opacity="0.600000" points="514.4797,-210.4784 517.9796,-220.4784 521.4797,-210.4784 514.4797,-210.4784"/>
</g>
</g>
</svg>
