<?xml version="1.0" encoding="UTF-8" standalone="no"?>
<!DOCTYPE svg PUBLIC "-//W3C//DTD SVG 1.1//EN"
 "http://www.w3.org/Graphics/SVG/1.1/DTD/svg11.dtd">
<!-- Generated by graphviz version 2.40.1 (20161225.0304)
 -->
<!-- Title: ndiag Pages: 1 -->
<svg width="555pt" height="795pt"
 viewBox="0.00 0.00 555.46 795.00" xmlns="http://www.w3.org/2000/svg" xmlns:xlink="http://www.w3.org/1999/xlink">
<g id="graph0" class="graph" transform="scale(1 1) rotate(0) translate(4 791)">
<title>ndiag</title>
<polygon fill="#ffffff" stroke="transparent" points="-4,4 -4,-791 551.4564,-791 551.4564,4 -4,4"/>
<g id="clust13" class="cluster">
<title>cluster_ndiag</title>
<polygon fill="none" stroke="#000000" stroke-width="2" points="461.5616,-207 461.5616,-284 539.4564,-284 539.4564,-207 461.5616,-207"/>
<text text-anchor="middle" x="500.509" y="-267.4" font-family="Arial" font-size="14.00" fill="#000000">ndiag</text>
</g>
<g id="clust1" class="cluster">
<title>cluster_type:input</title>
<path fill="#4b75b9" fill-opacity="0.200000" stroke="#4b75b9" stroke-opacity="0.200000" d="M20,-8C20,-8 441.5616,-8 441.5616,-8 447.5616,-8 453.5616,-14 453.5616,-20 453.5616,-20 453.5616,-767 453.5616,-767 453.5616,-773 447.5616,-779 441.5616,-779 441.5616,-779 20,-779 20,-779 14,-779 8,-773 8,-767 8,-767 8,-20 8,-20 8,-14 14,-8 20,-8"/>
<text text-anchor="middle" x="230.7808" y="-762.4" font-family="Arial" font-size="14.00" fill="#000000">type:input</text>
</g>
<g id="clust9" class="cluster">
<title>cluster_file:ndiag.descriptions/*.md</title>
<path fill="#4b75b9" fill-opacity="0.200000" stroke="#4b75b9" stroke-opacity="0.200000" d="M28,-16C28,-16 200.582,-16 200.582,-16 206.582,-16 212.582,-22 212.582,-28 212.582,-28 212.582,-284 212.582,-284 212.582,-290 206.582,-296 200.582,-296 200.582,-296 28,-296 28,-296 22,-296 16,-290 16,-284 16,-284 16,-28 16,-28 16,-22 22,-16 28,-16"/>
<text text-anchor="middle" x="114.291" y="-279.4" font-family="Arial" font-size="14.00" fill="#000000">file:ndiag.descriptions/*.md</text>
</g>
<g id="clust10" class="cluster">
<title>cluster_descriptions</title>
<polygon fill="#ffffff" stroke="#333333" stroke-width="2" points="24,-24 24,-263 204.582,-263 204.582,-24 24,-24"/>
<text text-anchor="middle" x="114.291" y="-246.4" font-family="Arial" font-size="14.00" fill="#000000">descriptions</text>
</g>
<g id="clust4" class="cluster">
<title>cluster_file:ndiag.yml</title>
<path fill="#4b75b9" fill-opacity="0.200000" stroke="#4b75b9" stroke-opacity="0.200000" d="M232.582,-49C232.582,-49 433.5616,-49 433.5616,-49 439.5616,-49 445.5616,-55 445.5616,-61 445.5616,-61 445.5616,-734 445.5616,-734 445.5616,-740 439.5616,-746 433.5616,-746 433.5616,-746 232.582,-746 232.582,-746 226.582,-746 220.582,-740 220.582,-734 220.582,-734 220.582,-61 220.582,-61 220.582,-55 226.582,-49 232.582,-49"/>
<text text-anchor="middle" x="333.0718" y="-729.4" font-family="Arial" font-size="14.00" fill="#000000">file:ndiag.yml</text>
</g>
<g id="clust8" class="cluster">
<title>cluster_relations</title>
<polygon fill="#ffffff" stroke="#333333" stroke-width="2" points="228.582,-636 228.582,-713 437.5616,-713 437.5616,-636 228.582,-636"/>
<text text-anchor="middle" x="333.0718" y="-696.4" font-family="Arial" font-size="14.00" fill="#000000">relations</text>
</g>
<g id="clust7" class="cluster">
<title>cluster_networks</title>
<polygon fill="#ffffff" stroke="#333333" stroke-width="2" points="232.0883,-389 232.0883,-628 434.0553,-628 434.0553,-389 232.0883,-389"/>
<text text-anchor="middle" x="333.0718" y="-611.4" font-family="Arial" font-size="14.00" fill="#000000">networks</text>
</g>
<g id="clust6" class="cluster">
<title>cluster_diagrams</title>
<polygon fill="#ffffff" stroke="#333333" stroke-width="2" points="289.461,-250 289.461,-381 376.6826,-381 376.6826,-250 289.461,-250"/>
<text text-anchor="middle" x="333.0718" y="-364.4" font-family="Arial" font-size="14.00" fill="#000000">diagrams</text>
</g>
<g id="clust5" class="cluster">
<title>cluster_nodes</title>
<polygon fill="#ffffff" stroke="#333333" stroke-width="2" points="298.0718,-57 298.0718,-242 368.0718,-242 368.0718,-57 298.0718,-57"/>
<text text-anchor="middle" x="333.0718" y="-225.4" font-family="Arial" font-size="14.00" fill="#000000">nodes</text>
</g>
<g id="clust2" class="cluster">
<title>cluster_file:nodes.yml</title>
<path fill="#4b75b9" fill-opacity="0.200000" stroke="#4b75b9" stroke-opacity="0.200000" d="M76.291,-304C76.291,-304 153.291,-304 153.291,-304 159.291,-304 165.291,-310 165.291,-316 165.291,-316 165.291,-734 165.291,-734 165.291,-740 159.291,-746 153.291,-746 153.291,-746 76.291,-746 76.291,-746 70.291,-746 64.291,-740 64.291,-734 64.291,-734 64.291,-316 64.291,-316 64.291,-310 70.291,-304 76.291,-304"/>
<text text-anchor="middle" x="114.791" y="-729.4" font-family="Arial" font-size="14.00" fill="#000000">file:nodes.yml</text>
</g>
<g id="clust3" class="cluster">
<title>cluster_real nodes</title>
<polygon fill="#ffffff" stroke="#333333" stroke-width="2" points="74.291,-312 74.291,-713 155.291,-713 155.291,-312 74.291,-312"/>
<text text-anchor="middle" x="114.791" y="-696.4" font-family="Arial" font-size="14.00" fill="#000000">real nodes</text>
</g>
<!-- real nodes:lb&#45;1 -->
<g id="node1" class="node">
<title>real nodes:lb&#45;1</title>
<path fill="#4b75b9" stroke="#ffffff" stroke-width="2" d="M129.291,-680C129.291,-680 99.291,-680 99.291,-680 93.291,-680 87.291,-674 87.291,-668 87.291,-668 87.291,-656 87.291,-656 87.291,-650 93.291,-644 99.291,-644 99.291,-644 129.291,-644 129.291,-644 135.291,-644 141.291,-650 141.291,-656 141.291,-656 141.291,-668 141.291,-668 141.291,-674 135.291,-680 129.291,-680"/>
<text text-anchor="middle" x="114.291" y="-657.8" font-family="Arial" font-size="14.00" fill="#ffffff">lb&#45;1</text>
</g>
<!-- nodes:lb&#45;* -->
<g id="node8" class="node">
<title>nodes:lb&#45;*</title>
<path fill="#4b75b9" stroke="#ffffff" stroke-width="2" d="M348.0718,-209C348.0718,-209 318.0718,-209 318.0718,-209 312.0718,-209 306.0718,-203 306.0718,-197 306.0718,-197 306.0718,-185 306.0718,-185 306.0718,-179 312.0718,-173 318.0718,-173 318.0718,-173 348.0718,-173 348.0718,-173 354.0718,-173 360.0718,-179 360.0718,-185 360.0718,-185 360.0718,-197 360.0718,-197 360.0718,-203 354.0718,-209 348.0718,-209"/>
<text text-anchor="middle" x="333.0718" y="-186.8" font-family="Arial" font-size="14.00" fill="#ffffff">lb&#45;*</text>
</g>
<!-- real nodes:lb&#45;1&#45;&gt;nodes:lb&#45;* -->
<g id="edge1" class="edge">
<title>real nodes:lb&#45;1&#45;&gt;nodes:lb&#45;*</title>
<path fill="none" stroke="#333333" stroke-width="2" stroke-opacity="0.600000" d="M141.4005,-662C176.287,-662 232.4564,-662 232.4564,-662 232.4564,-662 232.4564,-204 232.4564,-204 232.4564,-204 295.8438,-204 295.8438,-204"/>
<polygon fill="#333333" fill-opacity="0.600000" stroke="#333333" stroke-width="2" stroke-opacity="0.600000" points="295.8439,-207.5001 305.8438,-204 295.8438,-200.5001 295.8439,-207.5001"/>
</g>
<!-- real nodes:lb&#45;2 -->
<g id="node2" class="node">
<title>real nodes:lb&#45;2</title>
<path fill="#4b75b9" stroke="#ffffff" stroke-width="2" d="M129.291,-626C129.291,-626 99.291,-626 99.291,-626 93.291,-626 87.291,-620 87.291,-614 87.291,-614 87.291,-602 87.291,-602 87.291,-596 93.291,-590 99.291,-590 99.291,-590 129.291,-590 129.291,-590 135.291,-590 141.291,-596 141.291,-602 141.291,-602 141.291,-614 141.291,-614 141.291,-620 135.291,-626 129.291,-626"/>
<text text-anchor="middle" x="114.291" y="-603.8" font-family="Arial" font-size="14.00" fill="#ffffff">lb&#45;2</text>
</g>
<!-- real nodes:lb&#45;2&#45;&gt;nodes:lb&#45;* -->
<g id="edge3" class="edge">
<title>real nodes:lb&#45;2&#45;&gt;nodes:lb&#45;*</title>
<path fill="none" stroke="#333333" stroke-width="2" stroke-opacity="0.600000" d="M141.3969,-610.5C174.8759,-610.5 227.4564,-610.5 227.4564,-610.5 227.4564,-610.5 227.4564,-199 227.4564,-199 227.4564,-199 295.8732,-199 295.8732,-199"/>
<polygon fill="#333333" fill-opacity="0.600000" stroke="#333333" stroke-width="2" stroke-opacity="0.600000" points="295.8732,-202.5001 305.8732,-199 295.8732,-195.5001 295.8732,-202.5001"/>
</g>
<!-- real nodes:app&#45;1 -->
<g id="node3" class="node">
<title>real nodes:app&#45;1</title>
<path fill="#4b75b9" stroke="#ffffff" stroke-width="2" d="M129.291,-572C129.291,-572 99.291,-572 99.291,-572 93.291,-572 87.291,-566 87.291,-560 87.291,-560 87.291,-548 87.291,-548 87.291,-542 93.291,-536 99.291,-536 99.291,-536 129.291,-536 129.291,-536 135.291,-536 141.291,-542 141.291,-548 141.291,-548 141.291,-560 141.291,-560 141.291,-566 135.291,-572 129.291,-572"/>
<text text-anchor="middle" x="114.291" y="-549.8" font-family="Arial" font-size="14.00" fill="#ffffff">app&#45;1</text>
</g>
<!-- nodes:app&#45;* -->
<g id="node9" class="node">
<title>nodes:app&#45;*</title>
<path fill="#4b75b9" stroke="#ffffff" stroke-width="2" d="M348.0718,-155C348.0718,-155 318.0718,-155 318.0718,-155 312.0718,-155 306.0718,-149 306.0718,-143 306.0718,-143 306.0718,-131 306.0718,-131 306.0718,-125 312.0718,-119 318.0718,-119 318.0718,-119 348.0718,-119 348.0718,-119 354.0718,-119 360.0718,-125 360.0718,-131 360.0718,-131 360.0718,-143 360.0718,-143 360.0718,-149 354.0718,-155 348.0718,-155"/>
<text text-anchor="middle" x="333.0718" y="-132.8" font-family="Arial" font-size="14.00" fill="#ffffff">app&#45;*</text>
</g>
<!-- real nodes:app&#45;1&#45;&gt;nodes:app&#45;* -->
<g id="edge4" class="edge">
<title>real nodes:app&#45;1&#45;&gt;nodes:app&#45;*</title>
<path fill="none" stroke="#333333" stroke-width="2" stroke-opacity="0.600000" d="M141.3067,-550C173.3445,-550 222.4564,-550 222.4564,-550 222.4564,-550 222.4564,-151.25 222.4564,-151.25 222.4564,-151.25 296.0122,-151.25 296.0122,-151.25"/>
<polygon fill="#333333" fill-opacity="0.600000" stroke="#333333" stroke-width="2" stroke-opacity="0.600000" points="296.0123,-154.7501 306.0122,-151.25 296.0122,-147.7501 296.0123,-154.7501"/>
</g>
<!-- real nodes:app&#45;2 -->
<g id="node4" class="node">
<title>real nodes:app&#45;2</title>
<path fill="#4b75b9" stroke="#ffffff" stroke-width="2" d="M129.291,-518C129.291,-518 99.291,-518 99.291,-518 93.291,-518 87.291,-512 87.291,-506 87.291,-506 87.291,-494 87.291,-494 87.291,-488 93.291,-482 99.291,-482 99.291,-482 129.291,-482 129.291,-482 135.291,-482 141.291,-488 141.291,-494 141.291,-494 141.291,-506 141.291,-506 141.291,-512 135.291,-518 129.291,-518"/>
<text text-anchor="middle" x="114.291" y="-495.8" font-family="Arial" font-size="14.00" fill="#ffffff">app&#45;2</text>
</g>
<!-- real nodes:app&#45;2&#45;&gt;nodes:app&#45;* -->
<g id="edge6" class="edge">
<title>real nodes:app&#45;2&#45;&gt;nodes:app&#45;*</title>
<path fill="none" stroke="#333333" stroke-width="2" stroke-opacity="0.600000" d="M141.3965,-496C171.9626,-496 217.4564,-496 217.4564,-496 217.4564,-496 217.4564,-147.5 217.4564,-147.5 217.4564,-147.5 295.9651,-147.5 295.9651,-147.5"/>
<polygon fill="#333333" fill-opacity="0.600000" stroke="#333333" stroke-width="2" stroke-opacity="0.600000" points="295.9652,-151.0001 305.9651,-147.5 295.9651,-144.0001 295.9652,-151.0001"/>
</g>
<!-- real nodes:app&#45;3 -->
<g id="node5" class="node">
<title>real nodes:app&#45;3</title>
<path fill="#4b75b9" stroke="#ffffff" stroke-width="2" d="M129.291,-464C129.291,-464 99.291,-464 99.291,-464 93.291,-464 87.291,-458 87.291,-452 87.291,-452 87.291,-440 87.291,-440 87.291,-434 93.291,-428 99.291,-428 99.291,-428 129.291,-428 129.291,-428 135.291,-428 141.291,-434 141.291,-440 141.291,-440 141.291,-452 141.291,-452 141.291,-458 135.291,-464 129.291,-464"/>
<text text-anchor="middle" x="114.291" y="-441.8" font-family="Arial" font-size="14.00" fill="#ffffff">app&#45;3</text>
</g>
<!-- real nodes:app&#45;3&#45;&gt;nodes:app&#45;* -->
<g id="edge7" class="edge">
<title>real nodes:app&#45;3&#45;&gt;nodes:app&#45;*</title>
<path fill="none" stroke="#333333" stroke-width="2" stroke-opacity="0.600000" d="M141.375,-442C170.4314,-442 212.4564,-442 212.4564,-442 212.4564,-442 212.4564,-143.75 212.4564,-143.75 212.4564,-143.75 296.0033,-143.75 296.0033,-143.75"/>
<polygon fill="#333333" fill-opacity="0.600000" stroke="#333333" stroke-width="2" stroke-opacity="0.600000" points="296.0034,-147.2501 306.0033,-143.75 296.0033,-140.2501 296.0034,-147.2501"/>
</g>
<!-- real nodes:db&#45;1 -->
<g id="node6" class="node">
<title>real nodes:db&#45;1</title>
<path fill="#4b75b9" stroke="#ffffff" stroke-width="2" d="M129.291,-410C129.291,-410 99.291,-410 99.291,-410 93.291,-410 87.291,-404 87.291,-398 87.291,-398 87.291,-386 87.291,-386 87.291,-380 93.291,-374 99.291,-374 99.291,-374 129.291,-374 129.291,-374 135.291,-374 141.291,-380 141.291,-386 141.291,-386 141.291,-398 141.291,-398 141.291,-404 135.291,-410 129.291,-410"/>
<text text-anchor="middle" x="114.291" y="-387.8" font-family="Arial" font-size="14.00" fill="#ffffff">db&#45;1</text>
</g>
<!-- nodes:db&#45;* -->
<g id="node10" class="node">
<title>nodes:db&#45;*</title>
<path fill="#4b75b9" stroke="#ffffff" stroke-width="2" d="M348.0718,-101C348.0718,-101 318.0718,-101 318.0718,-101 312.0718,-101 306.0718,-95 306.0718,-89 306.0718,-89 306.0718,-77 306.0718,-77 306.0718,-71 312.0718,-65 318.0718,-65 318.0718,-65 348.0718,-65 348.0718,-65 354.0718,-65 360.0718,-71 360.0718,-77 360.0718,-77 360.0718,-89 360.0718,-89 360.0718,-95 354.0718,-101 348.0718,-101"/>
<text text-anchor="middle" x="333.0718" y="-78.8" font-family="Arial" font-size="14.00" fill="#ffffff">db&#45;*</text>
</g>
<!-- real nodes:db&#45;1&#45;&gt;nodes:db&#45;* -->
<g id="edge8" class="edge">
<title>real nodes:db&#45;1&#45;&gt;nodes:db&#45;*</title>
<path fill="none" stroke="#333333" stroke-width="2" stroke-opacity="0.600000" d="M141.7398,-385.5C169.2213,-385.5 207.4564,-385.5 207.4564,-385.5 207.4564,-385.5 207.4564,-96 207.4564,-96 207.4564,-96 295.8151,-96 295.8151,-96"/>
<polygon fill="#333333" fill-opacity="0.600000" stroke="#333333" stroke-width="2" stroke-opacity="0.600000" points="295.8152,-99.5001 305.8151,-96 295.8151,-92.5001 295.8152,-99.5001"/>
</g>
<!-- real nodes:db&#45;2 -->
<g id="node7" class="node">
<title>real nodes:db&#45;2</title>
<path fill="#4b75b9" stroke="#ffffff" stroke-width="2" d="M129.291,-356C129.291,-356 99.291,-356 99.291,-356 93.291,-356 87.291,-350 87.291,-344 87.291,-344 87.291,-332 87.291,-332 87.291,-326 93.291,-320 99.291,-320 99.291,-320 129.291,-320 129.291,-320 135.291,-320 141.291,-326 141.291,-332 141.291,-332 141.291,-344 141.291,-344 141.291,-350 135.291,-356 129.291,-356"/>
<text text-anchor="middle" x="114.291" y="-333.8" font-family="Arial" font-size="14.00" fill="#ffffff">db&#45;2</text>
</g>
<!-- real nodes:db&#45;2&#45;&gt;nodes:db&#45;* -->
<g id="edge10" class="edge">
<title>real nodes:db&#45;2&#45;&gt;nodes:db&#45;*</title>
<path fill="none" stroke="#333333" stroke-width="2" stroke-opacity="0.600000" d="M141.7038,-334C167.585,-334 202.4564,-334 202.4564,-334 202.4564,-334 202.4564,-91 202.4564,-91 202.4564,-91 296.0082,-91 296.0082,-91"/>
<polygon fill="#333333" fill-opacity="0.600000" stroke="#333333" stroke-width="2" stroke-opacity="0.600000" points="296.0082,-94.5001 306.0082,-91 296.0082,-87.5001 296.0082,-94.5001"/>
</g>
<!-- ndiag:internal -->
<g id="node22" class="node">
<title>ndiag:internal</title>
<path fill="#4b75b9" stroke="#ffffff" stroke-width="2" d="M519.4039,-251C519.4039,-251 481.6141,-251 481.6141,-251 475.6141,-251 469.6141,-245 469.6141,-239 469.6141,-239 469.6141,-227 469.6141,-227 469.6141,-221 475.6141,-215 481.6141,-215 481.6141,-215 519.4039,-215 519.4039,-215 525.4039,-215 531.4039,-221 531.4039,-227 531.4039,-227 531.4039,-239 531.4039,-239 531.4039,-245 525.4039,-251 519.4039,-251"/>
<text text-anchor="middle" x="500.509" y="-228.8" font-family="Arial" font-size="14.00" fill="#ffffff">internal</text>
</g>
<!-- nodes:lb&#45;*&#45;&gt;ndiag:internal -->
<g id="edge2" class="edge">
<title>nodes:lb&#45;*&#45;&gt;ndiag:internal</title>
<path fill="none" stroke="#333333" stroke-width="2" stroke-opacity="0.600000" d="M342.4564,-209.2015C342.4564,-215.028 342.4564,-220 342.4564,-220 342.4564,-220 459.2829,-220 459.2829,-220"/>
<polygon fill="#333333" fill-opacity="0.600000" stroke="#333333" stroke-width="2" stroke-opacity="0.600000" points="459.2829,-223.5001 469.2829,-220 459.2829,-216.5001 459.2829,-223.5001"/>
</g>
<!-- nodes:app&#45;*&#45;&gt;ndiag:internal -->
<g id="edge5" class="edge">
<title>nodes:app&#45;*&#45;&gt;ndiag:internal</title>
<path fill="none" stroke="#333333" stroke-width="2" stroke-opacity="0.600000" d="M360.1272,-137C405.1258,-137 490.4564,-137 490.4564,-137 490.4564,-137 490.4564,-204.9431 490.4564,-204.9431"/>
<polygon fill="#333333" fill-opacity="0.600000" stroke="#333333" stroke-width="2" stroke-opacity="0.600000" points="486.9565,-204.9431 490.4564,-214.9431 493.9565,-204.9432 486.9565,-204.9431"/>
</g>
<!-- nodes:db&#45;*&#45;&gt;ndiag:internal -->
<g id="edge9" class="edge">
<title>nodes:db&#45;*&#45;&gt;ndiag:internal</title>
<path fill="none" stroke="#333333" stroke-width="2" stroke-opacity="0.600000" d="M360.1646,-83C410.0671,-83 511.4564,-83 511.4564,-83 511.4564,-83 511.4564,-204.9065 511.4564,-204.9065"/>
<polygon fill="#333333" fill-opacity="0.600000" stroke="#333333" stroke-width="2" stroke-opacity="0.600000" points="507.9565,-204.9065 511.4564,-214.9065 514.9565,-204.9065 507.9565,-204.9065"/>
</g>
<!-- diagrams:overview -->
<g id="node11" class="node">
<title>diagrams:overview</title>
<path fill="#4b75b9" stroke="#ffffff" stroke-width="2" d="M356.7937,-348C356.7937,-348 309.3499,-348 309.3499,-348 303.3499,-348 297.3499,-342 297.3499,-336 297.3499,-336 297.3499,-324 297.3499,-324 297.3499,-318 303.3499,-312 309.3499,-312 309.3499,-312 356.7937,-312 356.7937,-312 362.7937,-312 368.7937,-318 368.7937,-324 368.7937,-324 368.7937,-336 368.7937,-336 368.7937,-342 362.7937,-348 356.7937,-348"/>
<text text-anchor="middle" x="333.0718" y="-325.8" font-family="Arial" font-size="14.00" fill="#ffffff">overview</text>
</g>
<!-- diagrams:overview&#45;&gt;ndiag:internal -->
<g id="edge11" class="edge">
<title>diagrams:overview&#45;&gt;ndiag:internal</title>
<path fill="none" stroke="#333333" stroke-width="2" stroke-opacity="0.600000" d="M365.4564,-311.8883C365.4564,-285.7362 365.4564,-240.5 365.4564,-240.5 365.4564,-240.5 459.5252,-240.5 459.5252,-240.5"/>
<polygon fill="#333333" fill-opacity="0.600000" stroke="#333333" stroke-width="2" stroke-opacity="0.600000" points="459.5252,-244.0001 469.5252,-240.5 459.5252,-237.0001 459.5252,-244.0001"/>
</g>
<!-- diagrams:http&#45;lb -->
<g id="node12" class="node">
<title>diagrams:http&#45;lb</title>
<path fill="#4b75b9" stroke="#ffffff" stroke-width="2" d="M348.4681,-294C348.4681,-294 317.6755,-294 317.6755,-294 311.6755,-294 305.6755,-288 305.6755,-282 305.6755,-282 305.6755,-270 305.6755,-270 305.6755,-264 311.6755,-258 317.6755,-258 317.6755,-258 348.4681,-258 348.4681,-258 354.4681,-258 360.4681,-264 360.4681,-270 360.4681,-270 360.4681,-282 360.4681,-282 360.4681,-288 354.4681,-294 348.4681,-294"/>
<text text-anchor="middle" x="333.0718" y="-271.8" font-family="Arial" font-size="14.00" fill="#ffffff">http&#45;lb</text>
</g>
<!-- diagrams:http&#45;lb&#45;&gt;ndiag:internal -->
<g id="edge12" class="edge">
<title>diagrams:http&#45;lb&#45;&gt;ndiag:internal</title>
<path fill="none" stroke="#333333" stroke-width="2" stroke-opacity="0.600000" d="M324.4564,-257.5327C324.4564,-246.7507 324.4564,-235.25 324.4564,-235.25 324.4564,-235.25 459.4396,-235.25 459.4396,-235.25"/>
<polygon fill="#333333" fill-opacity="0.600000" stroke="#333333" stroke-width="2" stroke-opacity="0.600000" points="459.4396,-238.7501 469.4396,-235.25 459.4396,-231.7501 459.4396,-238.7501"/>
</g>
<!-- networks:internet&#45;&gt;group:lb:vip -->
<g id="node13" class="node">
<title>networks:internet&#45;&gt;group:lb:vip</title>
<path fill="#4b75b9" stroke="#ffffff" stroke-width="2" d="M394.9365,-595C394.9365,-595 271.2071,-595 271.2071,-595 265.2071,-595 259.2071,-589 259.2071,-583 259.2071,-583 259.2071,-571 259.2071,-571 259.2071,-565 265.2071,-559 271.2071,-559 271.2071,-559 394.9365,-559 394.9365,-559 400.9365,-559 406.9365,-565 406.9365,-571 406.9365,-571 406.9365,-583 406.9365,-583 406.9365,-589 400.9365,-595 394.9365,-595"/>
<text text-anchor="middle" x="333.0718" y="-572.8" font-family="Arial" font-size="14.00" fill="#ffffff">internet&#45;&gt;group:lb:vip</text>
</g>
<!-- networks:internet&#45;&gt;group:lb:vip&#45;&gt;ndiag:internal -->
<g id="edge13" class="edge">
<title>networks:internet&#45;&gt;group:lb:vip&#45;&gt;ndiag:internal</title>
<path fill="none" stroke="#333333" stroke-width="2" stroke-opacity="0.600000" d="M407.0266,-577C454.5551,-577 507.4564,-577 507.4564,-577 507.4564,-577 507.4564,-261.0106 507.4564,-261.0106"/>
<polygon fill="#333333" fill-opacity="0.600000" stroke="#333333" stroke-width="2" stroke-opacity="0.600000" points="510.9565,-261.0106 507.4564,-251.0106 503.9565,-261.0106 510.9565,-261.0106"/>
</g>
<!-- networks:group:lb:vip&#45;&gt;lb&#45;*:nginx -->
<g id="node14" class="node">
<title>networks:group:lb:vip&#45;&gt;lb&#45;*:nginx</title>
<path fill="#4b75b9" stroke="#ffffff" stroke-width="2" d="M400.5977,-541C400.5977,-541 265.5459,-541 265.5459,-541 259.5459,-541 253.5459,-535 253.5459,-529 253.5459,-529 253.5459,-517 253.5459,-517 253.5459,-511 259.5459,-505 265.5459,-505 265.5459,-505 400.5977,-505 400.5977,-505 406.5977,-505 412.5977,-511 412.5977,-517 412.5977,-517 412.5977,-529 412.5977,-529 412.5977,-535 406.5977,-541 400.5977,-541"/>
<text text-anchor="middle" x="333.0718" y="-518.8" font-family="Arial" font-size="14.00" fill="#ffffff">group:lb:vip&#45;&gt;lb&#45;*:nginx</text>
</g>
<!-- networks:group:lb:vip&#45;&gt;lb&#45;*:nginx&#45;&gt;ndiag:internal -->
<g id="edge14" class="edge">
<title>networks:group:lb:vip&#45;&gt;lb&#45;*:nginx&#45;&gt;ndiag:internal</title>
<path fill="none" stroke="#333333" stroke-width="2" stroke-opacity="0.600000" d="M412.8185,-523C453.4774,-523 494.4564,-523 494.4564,-523 494.4564,-523 494.4564,-261.1408 494.4564,-261.1408"/>
<polygon fill="#333333" fill-opacity="0.600000" stroke="#333333" stroke-width="2" stroke-opacity="0.600000" points="497.9565,-261.1408 494.4564,-251.1408 490.9565,-261.1408 497.9565,-261.1408"/>
</g>
<!-- networks:lb&#45;*:nginx&#45;&gt;app&#45;*:rails -->
<g id="node15" class="node">
<title>networks:lb&#45;*:nginx&#45;&gt;app&#45;*:rails</title>
<path fill="#4b75b9" stroke="#ffffff" stroke-width="2" d="M396.2465,-487C396.2465,-487 269.8971,-487 269.8971,-487 263.8971,-487 257.8971,-481 257.8971,-475 257.8971,-475 257.8971,-463 257.8971,-463 257.8971,-457 263.8971,-451 269.8971,-451 269.8971,-451 396.2465,-451 396.2465,-451 402.2465,-451 408.2465,-457 408.2465,-463 408.2465,-463 408.2465,-475 408.2465,-475 408.2465,-481 402.2465,-487 396.2465,-487"/>
<text text-anchor="middle" x="333.0718" y="-464.8" font-family="Arial" font-size="14.00" fill="#ffffff">lb&#45;*:nginx&#45;&gt;app&#45;*:rails</text>
</g>
<!-- networks:lb&#45;*:nginx&#45;&gt;app&#45;*:rails&#45;&gt;ndiag:internal -->
<g id="edge15" class="edge">
<title>networks:lb&#45;*:nginx&#45;&gt;app&#45;*:rails&#45;&gt;ndiag:internal</title>
<path fill="none" stroke="#333333" stroke-width="2" stroke-opacity="0.600000" d="M408.2017,-469C445.4014,-469 482.4564,-469 482.4564,-469 482.4564,-469 482.4564,-261.1267 482.4564,-261.1267"/>
<polygon fill="#333333" fill-opacity="0.600000" stroke="#333333" stroke-width="2" stroke-opacity="0.600000" points="485.9565,-261.1266 482.4564,-251.1267 478.9565,-261.1267 485.9565,-261.1266"/>
</g>
<!-- networks:app&#45;*:rails&#45;&gt;db&#45;*:postgresql -->
<g id="node16" class="node">
<title>networks:app&#45;*:rails&#45;&gt;db&#45;*:postgresql</title>
<path fill="#4b75b9" stroke="#ffffff" stroke-width="2" d="M414.0388,-433C414.0388,-433 252.1048,-433 252.1048,-433 246.1048,-433 240.1048,-427 240.1048,-421 240.1048,-421 240.1048,-409 240.1048,-409 240.1048,-403 246.1048,-397 252.1048,-397 252.1048,-397 414.0388,-397 414.0388,-397 420.0388,-397 426.0388,-403 426.0388,-409 426.0388,-409 426.0388,-421 426.0388,-421 426.0388,-427 420.0388,-433 414.0388,-433"/>
<text text-anchor="middle" x="333.0718" y="-410.8" font-family="Arial" font-size="14.00" fill="#ffffff">app&#45;*:rails&#45;&gt;db&#45;*:postgresql</text>
</g>
<!-- networks:app&#45;*:rails&#45;&gt;db&#45;*:postgresql&#45;&gt;ndiag:internal -->
<g id="edge16" class="edge">
<title>networks:app&#45;*:rails&#45;&gt;db&#45;*:postgresql&#45;&gt;ndiag:internal</title>
<path fill="none" stroke="#333333" stroke-width="2" stroke-opacity="0.600000" d="M397.4564,-396.8873C397.4564,-353.2254 397.4564,-245.75 397.4564,-245.75 397.4564,-245.75 459.5898,-245.75 459.5898,-245.75"/>
<polygon fill="#333333" fill-opacity="0.600000" stroke="#333333" stroke-width="2" stroke-opacity="0.600000" points="459.5899,-249.2501 469.5898,-245.75 459.5898,-242.2501 459.5899,-249.2501"/>
</g>
<!-- relations:lb&#45;*:keepalived&#45;&gt;group:lb:vip -->
<g id="node17" class="node">
<title>relations:lb&#45;*:keepalived&#45;&gt;group:lb:vip</title>
<path fill="#4b75b9" stroke="#ffffff" stroke-width="2" d="M417.5514,-680C417.5514,-680 248.5922,-680 248.5922,-680 242.5922,-680 236.5922,-674 236.5922,-668 236.5922,-668 236.5922,-656 236.5922,-656 236.5922,-650 242.5922,-644 248.5922,-644 248.5922,-644 417.5514,-644 417.5514,-644 423.5514,-644 429.5514,-650 429.5514,-656 429.5514,-656 429.5514,-668 429.5514,-668 429.5514,-674 423.5514,-680 417.5514,-680"/>
<text text-anchor="middle" x="333.0718" y="-657.8" font-family="Arial" font-size="14.00" fill="#ffffff">lb&#45;*:keepalived&#45;&gt;group:lb:vip</text>
</g>
<!-- relations:lb&#45;*:keepalived&#45;&gt;group:lb:vip&#45;&gt;ndiag:internal -->
<g id="edge17" class="edge">
<title>relations:lb&#45;*:keepalived&#45;&gt;group:lb:vip&#45;&gt;ndiag:internal</title>
<path fill="none" stroke="#333333" stroke-width="2" stroke-opacity="0.600000" d="M429.8127,-662C475.1964,-662 519.4564,-662 519.4564,-662 519.4564,-662 519.4564,-261.1596 519.4564,-261.1596"/>
<polygon fill="#333333" fill-opacity="0.600000" stroke="#333333" stroke-width="2" stroke-opacity="0.600000" points="522.9565,-261.1595 519.4564,-251.1596 515.9565,-261.1596 522.9565,-261.1595"/>
</g>
<!-- descriptions:component descriptions -->
<g id="node18" class="node">
<title>descriptions:component descriptions</title>
<path fill="#4b75b9" stroke="#ffffff" stroke-width="2" d="M184.1059,-230C184.1059,-230 44.4761,-230 44.4761,-230 38.4761,-230 32.4761,-224 32.4761,-218 32.4761,-218 32.4761,-206 32.4761,-206 32.4761,-200 38.4761,-194 44.4761,-194 44.4761,-194 184.1059,-194 184.1059,-194 190.1059,-194 196.1059,-200 196.1059,-206 196.1059,-206 196.1059,-218 196.1059,-218 196.1059,-224 190.1059,-230 184.1059,-230"/>
<text text-anchor="middle" x="114.291" y="-207.8" font-family="Arial" font-size="14.00" fill="#ffffff">component descriptions</text>
</g>
<!-- descriptions:component descriptions&#45;&gt;ndiag:internal -->
<g id="edge18" class="edge">
<title>descriptions:component descriptions&#45;&gt;ndiag:internal</title>
<path fill="none" stroke="#333333" stroke-width="2" stroke-opacity="0.600000" d="M196.1979,-225C196.1979,-225 459.3628,-225 459.3628,-225"/>
<polygon fill="#333333" fill-opacity="0.600000" stroke="#333333" stroke-width="2" stroke-opacity="0.600000" points="459.3628,-228.5001 469.3628,-225 459.3628,-221.5001 459.3628,-228.5001"/>
</g>
<!-- descriptions:diagram descriptions -->
<g id="node19" class="node">
<title>descriptions:diagram descriptions</title>
<path fill="#4b75b9" stroke="#ffffff" stroke-width="2" d="M174.9173,-176C174.9173,-176 53.6647,-176 53.6647,-176 47.6647,-176 41.6647,-170 41.6647,-164 41.6647,-164 41.6647,-152 41.6647,-152 41.6647,-146 47.6647,-140 53.6647,-140 53.6647,-140 174.9173,-140 174.9173,-140 180.9173,-140 186.9173,-146 186.9173,-152 186.9173,-152 186.9173,-164 186.9173,-164 186.9173,-170 180.9173,-176 174.9173,-176"/>
<text text-anchor="middle" x="114.291" y="-153.8" font-family="Arial" font-size="14.00" fill="#ffffff">diagram descriptions</text>
</g>
<!-- descriptions:diagram descriptions&#45;&gt;ndiag:internal -->
<g id="edge19" class="edge">
<title>descriptions:diagram descriptions&#45;&gt;ndiag:internal</title>
<path fill="none" stroke="#333333" stroke-width="2" stroke-opacity="0.600000" d="M187.0713,-164C293.8562,-164 480.4564,-164 480.4564,-164 480.4564,-164 480.4564,-204.8711 480.4564,-204.8711"/>
<polygon fill="#333333" fill-opacity="0.600000" stroke="#333333" stroke-width="2" stroke-opacity="0.600000" points="476.9565,-204.871 480.4564,-214.8711 483.9565,-204.8711 476.9565,-204.871"/>
</g>
<!-- descriptions:layer group descriptions -->
<g id="node20" class="node">
<title>descriptions:layer group descriptions</title>
<path fill="#4b75b9" stroke="#ffffff" stroke-width="2" d="M184.3735,-122C184.3735,-122 44.2085,-122 44.2085,-122 38.2085,-122 32.2085,-116 32.2085,-110 32.2085,-110 32.2085,-98 32.2085,-98 32.2085,-92 38.2085,-86 44.2085,-86 44.2085,-86 184.3735,-86 184.3735,-86 190.3735,-86 196.3735,-92 196.3735,-98 196.3735,-98 196.3735,-110 196.3735,-110 196.3735,-116 190.3735,-122 184.3735,-122"/>
<text text-anchor="middle" x="114.291" y="-99.8" font-family="Arial" font-size="14.00" fill="#ffffff">layer group descriptions</text>
</g>
<!-- descriptions:layer group descriptions&#45;&gt;ndiag:internal -->
<g id="edge20" class="edge">
<title>descriptions:layer group descriptions&#45;&gt;ndiag:internal</title>
<path fill="none" stroke="#333333" stroke-width="2" stroke-opacity="0.600000" d="M196.3988,-110C310.0477,-110 501.4564,-110 501.4564,-110 501.4564,-110 501.4564,-204.8509 501.4564,-204.8509"/>
<polygon fill="#333333" fill-opacity="0.600000" stroke="#333333" stroke-width="2" stroke-opacity="0.600000" points="497.9565,-204.8509 501.4564,-214.8509 504.9565,-204.851 497.9565,-204.8509"/>
</g>
<!-- descriptions:tag group descriptions -->
<g id="node21" class="node">
<title>descriptions:tag group descriptions</title>
<path fill="#4b75b9" stroke="#ffffff" stroke-width="2" d="M178.9967,-68C178.9967,-68 49.5853,-68 49.5853,-68 43.5853,-68 37.5853,-62 37.5853,-56 37.5853,-56 37.5853,-44 37.5853,-44 37.5853,-38 43.5853,-32 49.5853,-32 49.5853,-32 178.9967,-32 178.9967,-32 184.9967,-32 190.9967,-38 190.9967,-44 190.9967,-44 190.9967,-56 190.9967,-56 190.9967,-62 184.9967,-68 178.9967,-68"/>
<text text-anchor="middle" x="114.291" y="-45.8" font-family="Arial" font-size="14.00" fill="#ffffff">tag group descriptions</text>
</g>
<!-- descriptions:tag group descriptions&#45;&gt;ndiag:internal -->
<g id="edge21" class="edge">
<title>descriptions:tag group descriptions&#45;&gt;ndiag:internal</title>
<path fill="none" stroke="#333333" stroke-width="2" stroke-opacity="0.600000" d="M191.3544,-48.5C309.3959,-48.5 521.4564,-48.5 521.4564,-48.5 521.4564,-48.5 521.4564,-204.9734 521.4564,-204.9734"/>
<polygon fill="#333333" fill-opacity="0.600000" stroke="#333333" stroke-width="2" stroke-opacity="0.600000" points="517.9565,-204.9734 521.4564,-214.9734 524.9565,-204.9735 517.9565,-204.9734"/>
</g>
</g>
</svg>
