<?xml version="1.0" encoding="UTF-8" standalone="no"?>
<!DOCTYPE svg PUBLIC "-//W3C//DTD SVG 1.1//EN"
 "http://www.w3.org/Graphics/SVG/1.1/DTD/svg11.dtd">
<!-- Generated by graphviz version 2.40.1 (20161225.0304)
 -->
<!-- Title: ndiag Pages: 1 -->
<svg width="355pt" height="389pt"
 viewBox="0.00 0.00 355.05 389.00" xmlns="http://www.w3.org/2000/svg" xmlns:xlink="http://www.w3.org/1999/xlink">
<g id="graph0" class="graph" transform="scale(1 1) rotate(0) translate(4 385)">
<title>ndiag</title>
<polygon fill="#ffffff" stroke="transparent" points="-4,4 -4,-385 351.0476,-385 351.0476,4 -4,4"/>
<g id="clust8" class="cluster">
<title>cluster_ndiag</title>
<polygon fill="none" stroke="#000000" stroke-width="2" points="8,-88 8,-198 85,-198 85,-88 8,-88"/>
<text text-anchor="middle" x="46.5" y="-181.4" font-family="Arial" font-size="14.00" fill="#000000">ndiag</text>
</g>
<g id="clust5" class="cluster">
<title>cluster_type:output</title>
<path fill="#4b75b9" fill-opacity="0.200000" stroke="#4b75b9" stroke-opacity="0.200000" d="M105,-8C105,-8 327.0476,-8 327.0476,-8 333.0476,-8 339.0476,-14 339.0476,-20 339.0476,-20 339.0476,-361 339.0476,-361 339.0476,-367 333.0476,-373 327.0476,-373 327.0476,-373 105,-373 105,-373 99,-373 93,-367 93,-361 93,-361 93,-20 93,-20 93,-14 99,-8 105,-8"/>
<text text-anchor="middle" x="216.0238" y="-356.4" font-family="Arial" font-size="14.00" fill="#000000">type:output</text>
</g>
<g id="clust6" class="cluster">
<title>cluster_file:generated documents</title>
<path fill="#4b75b9" fill-opacity="0.200000" stroke="#4b75b9" stroke-opacity="0.200000" d="M113,-16C113,-16 319.0476,-16 319.0476,-16 325.0476,-16 331.0476,-22 331.0476,-28 331.0476,-28 331.0476,-328 331.0476,-328 331.0476,-334 325.0476,-340 319.0476,-340 319.0476,-340 113,-340 113,-340 107,-340 101,-334 101,-328 101,-328 101,-28 101,-28 101,-22 107,-16 113,-16"/>
<text text-anchor="middle" x="216.0238" y="-323.4" font-family="Arial" font-size="14.00" fill="#000000">file:generated documents</text>
</g>
<g id="clust7" class="cluster">
<title>cluster_documents</title>
<polygon fill="#ffffff" stroke="#333333" stroke-width="2" points="109,-24 109,-307 323.0476,-307 323.0476,-24 109,-24"/>
<image xlink:href="/var/folders/fp/hk95_wsj7s18mmc9drvrxdp1tt294n/T/ndiag.000999/doc.svg" width="60px" height="45px" preserveAspectRatio="xMinYMin meet" x="186.024" y="-302.5"/>
<text text-anchor="start" x="181.7917" y="-244.9" font-family="Arial" font-size="14.00" fill="#000000">documents</text>
</g>
<!-- documents:index document -->
<g id="node1" class="node">
<title>documents:index document</title>
<path fill="#ffffff" stroke="#4b75b9" stroke-width="3" d="M261.3332,-230C261.3332,-230 170.7144,-230 170.7144,-230 164.7144,-230 158.7144,-224 158.7144,-218 158.7144,-218 158.7144,-206 158.7144,-206 158.7144,-200 164.7144,-194 170.7144,-194 170.7144,-194 261.3332,-194 261.3332,-194 267.3332,-194 273.3332,-200 273.3332,-206 273.3332,-206 273.3332,-218 273.3332,-218 273.3332,-224 267.3332,-230 261.3332,-230"/>
<text text-anchor="middle" x="216.0238" y="-207.8" font-family="Arial" font-size="14.00" fill="#333333">index document</text>
</g>
<!-- documents:layer based document -->
<g id="node2" class="node">
<title>documents:layer based document</title>
<path fill="#ffffff" stroke="#4b75b9" stroke-width="3" d="M280.7323,-176C280.7323,-176 151.3153,-176 151.3153,-176 145.3153,-176 139.3153,-170 139.3153,-164 139.3153,-164 139.3153,-152 139.3153,-152 139.3153,-146 145.3153,-140 151.3153,-140 151.3153,-140 280.7323,-140 280.7323,-140 286.7323,-140 292.7323,-146 292.7323,-152 292.7323,-152 292.7323,-164 292.7323,-164 292.7323,-170 286.7323,-176 280.7323,-176"/>
<text text-anchor="middle" x="216.0238" y="-153.8" font-family="Arial" font-size="14.00" fill="#333333">layer based document</text>
</g>
<!-- documents:tag(relation) based document -->
<g id="node3" class="node">
<title>documents:tag(relation) based document</title>
<path fill="#ffffff" stroke="#4b75b9" stroke-width="3" d="M303.0714,-122C303.0714,-122 128.9762,-122 128.9762,-122 122.9762,-122 116.9762,-116 116.9762,-110 116.9762,-110 116.9762,-98 116.9762,-98 116.9762,-92 122.9762,-86 128.9762,-86 128.9762,-86 303.0714,-86 303.0714,-86 309.0714,-86 315.0714,-92 315.0714,-98 315.0714,-98 315.0714,-110 315.0714,-110 315.0714,-116 309.0714,-122 303.0714,-122"/>
<text text-anchor="middle" x="216.0238" y="-99.8" font-family="Arial" font-size="14.00" fill="#333333">tag(relation) based document</text>
</g>
<!-- documents:custom document -->
<g id="node4" class="node">
<title>documents:custom document</title>
<path fill="#ffffff" stroke="#4b75b9" stroke-width="3" d="M267.4959,-68C267.4959,-68 164.5517,-68 164.5517,-68 158.5517,-68 152.5517,-62 152.5517,-56 152.5517,-56 152.5517,-44 152.5517,-44 152.5517,-38 158.5517,-32 164.5517,-32 164.5517,-32 267.4959,-32 267.4959,-32 273.4959,-32 279.4959,-38 279.4959,-44 279.4959,-44 279.4959,-56 279.4959,-56 279.4959,-62 273.4959,-68 267.4959,-68"/>
<text text-anchor="middle" x="216.0238" y="-45.8" font-family="Arial" font-size="14.00" fill="#333333">custom document</text>
</g>
<!-- ndiag:internal -->
<g id="node5" class="node">
<title>ndiag:internal</title>
<path fill="#ffffff" stroke="#4b75b9" stroke-width="3" stroke-opacity="0.400000" d="M65,-165.5C65,-165.5 28,-165.5 28,-165.5 22,-165.5 16,-159.5 16,-153.5 16,-153.5 16,-108.5 16,-108.5 16,-102.5 22,-96.5 28,-96.5 28,-96.5 65,-96.5 65,-96.5 71,-96.5 77,-102.5 77,-108.5 77,-108.5 77,-153.5 77,-153.5 77,-159.5 71,-165.5 65,-165.5"/>
<image xlink:href="/var/folders/fp/hk95_wsj7s18mmc9drvrxdp1tt294n/T/ndiag.000999/hex2.svg" width="45px" height="45px" preserveAspectRatio="xMinYMin meet" x="24.5" y="-161"/>
<text text-anchor="start" x="24.0526" y="-103.4" font-family="Arial" font-size="14.00" fill="#333333">internal</text>
</g>
<!-- ndiag:internal&#45;&gt;documents:index document -->
<g id="edge1" class="edge">
<title>ndiag:internal&#45;&gt;documents:index document</title>
<path fill="none" stroke="#333333" stroke-width="2" stroke-opacity="0.600000" d="M47.0476,-165.8214C47.0476,-187.7751 47.0476,-212 47.0476,-212 47.0476,-212 148.3444,-212 148.3444,-212"/>
<polygon fill="#333333" fill-opacity="0.600000" stroke="#333333" stroke-width="2" stroke-opacity="0.600000" points="148.3444,-215.5001 158.3444,-212 148.3444,-208.5001 148.3444,-215.5001"/>
</g>
<!-- ndiag:internal&#45;&gt;documents:layer based document -->
<g id="edge3" class="edge">
<title>ndiag:internal&#45;&gt;documents:layer based document</title>
<path fill="none" stroke="#333333" stroke-width="2" stroke-opacity="0.600000" d="M77.1995,-152.75C77.1995,-152.75 128.9951,-152.75 128.9951,-152.75"/>
<polygon fill="#333333" fill-opacity="0.600000" stroke="#333333" stroke-width="2" stroke-opacity="0.600000" points="128.9951,-156.2501 138.9951,-152.75 128.995,-149.2501 128.9951,-156.2501"/>
</g>
<!-- ndiag:internal&#45;&gt;documents:tag(relation) based document -->
<g id="edge4" class="edge">
<title>ndiag:internal&#45;&gt;documents:tag(relation) based document</title>
<path fill="none" stroke="#333333" stroke-width="2" stroke-opacity="0.600000" d="M77.1995,-109.25C77.1995,-109.25 106.9943,-109.25 106.9943,-109.25"/>
<polygon fill="#333333" fill-opacity="0.600000" stroke="#333333" stroke-width="2" stroke-opacity="0.600000" points="106.9944,-112.7501 116.9943,-109.25 106.9943,-105.7501 106.9944,-112.7501"/>
</g>
<!-- ndiag:internal&#45;&gt;documents:custom document -->
<g id="edge2" class="edge">
<title>ndiag:internal&#45;&gt;documents:custom document</title>
<path fill="none" stroke="#333333" stroke-width="2" stroke-opacity="0.600000" d="M47.0476,-96.1786C47.0476,-74.2249 47.0476,-50 47.0476,-50 47.0476,-50 142.6225,-50 142.6225,-50"/>
<polygon fill="#333333" fill-opacity="0.600000" stroke="#333333" stroke-width="2" stroke-opacity="0.600000" points="142.6226,-53.5001 152.6225,-50 142.6225,-46.5001 142.6226,-53.5001"/>
</g>
</g>
</svg>
