<?xml version="1.0" encoding="UTF-8" standalone="no"?>
<!DOCTYPE svg PUBLIC "-//W3C//DTD SVG 1.1//EN"
 "http://www.w3.org/Graphics/SVG/1.1/DTD/svg11.dtd">
<!-- Generated by graphviz version 2.40.1 (20161225.0304)
 -->
<!-- Title: ndiag Pages: 1 -->
<svg width="356pt" height="345pt"
 viewBox="0.00 0.00 355.94 345.00" xmlns="http://www.w3.org/2000/svg" xmlns:xlink="http://www.w3.org/1999/xlink">
<g id="graph0" class="graph" transform="scale(1 1) rotate(0) translate(4 341)">
<title>ndiag</title>
<polygon fill="#ffffff" stroke="transparent" points="-4,4 -4,-341 351.9424,-341 351.9424,4 -4,4"/>
<g id="clust8" class="cluster">
<title>cluster_ndiag</title>
<polygon fill="none" stroke="#000000" stroke-width="2" points="8,-105 8,-182 85.8948,-182 85.8948,-105 8,-105"/>
<text text-anchor="middle" x="46.9474" y="-165.4" font-family="Arial" font-size="14.00" fill="#000000">ndiag</text>
</g>
<g id="clust5" class="cluster">
<title>cluster_type:output</title>
<path fill="#4b75b9" fill-opacity="0.200000" stroke="#4b75b9" stroke-opacity="0.200000" d="M105.8948,-8C105.8948,-8 327.9424,-8 327.9424,-8 333.9424,-8 339.9424,-14 339.9424,-20 339.9424,-20 339.9424,-317 339.9424,-317 339.9424,-323 333.9424,-329 327.9424,-329 327.9424,-329 105.8948,-329 105.8948,-329 99.8948,-329 93.8948,-323 93.8948,-317 93.8948,-317 93.8948,-20 93.8948,-20 93.8948,-14 99.8948,-8 105.8948,-8"/>
<text text-anchor="middle" x="216.9186" y="-312.4" font-family="Arial" font-size="14.00" fill="#000000">type:output</text>
</g>
<g id="clust6" class="cluster">
<title>cluster_file:generated documents</title>
<path fill="#4b75b9" fill-opacity="0.200000" stroke="#4b75b9" stroke-opacity="0.200000" d="M113.8948,-16C113.8948,-16 319.9424,-16 319.9424,-16 325.9424,-16 331.9424,-22 331.9424,-28 331.9424,-28 331.9424,-284 331.9424,-284 331.9424,-290 325.9424,-296 319.9424,-296 319.9424,-296 113.8948,-296 113.8948,-296 107.8948,-296 101.8948,-290 101.8948,-284 101.8948,-284 101.8948,-28 101.8948,-28 101.8948,-22 107.8948,-16 113.8948,-16"/>
<text text-anchor="middle" x="216.9186" y="-279.4" font-family="Arial" font-size="14.00" fill="#000000">file:generated documents</text>
</g>
<g id="clust7" class="cluster">
<title>cluster_documents</title>
<polygon fill="#ffffff" stroke="#333333" stroke-width="2" points="109.8948,-24 109.8948,-263 323.9424,-263 323.9424,-24 109.8948,-24"/>
<text text-anchor="middle" x="216.9186" y="-246.4" font-family="Arial" font-size="14.00" fill="#000000">documents</text>
</g>
<!-- documents:index document -->
<g id="node1" class="node">
<title>documents:index document</title>
<path fill="#4b75b9" stroke="#ffffff" stroke-width="2" d="M262.228,-230C262.228,-230 171.6092,-230 171.6092,-230 165.6092,-230 159.6092,-224 159.6092,-218 159.6092,-218 159.6092,-206 159.6092,-206 159.6092,-200 165.6092,-194 171.6092,-194 171.6092,-194 262.228,-194 262.228,-194 268.228,-194 274.228,-200 274.228,-206 274.228,-206 274.228,-218 274.228,-218 274.228,-224 268.228,-230 262.228,-230"/>
<text text-anchor="middle" x="216.9186" y="-207.8" font-family="Arial" font-size="14.00" fill="#ffffff">index document</text>
</g>
<!-- documents:layer based document -->
<g id="node2" class="node">
<title>documents:layer based document</title>
<path fill="#4b75b9" stroke="#ffffff" stroke-width="2" d="M281.6271,-176C281.6271,-176 152.2101,-176 152.2101,-176 146.2101,-176 140.2101,-170 140.2101,-164 140.2101,-164 140.2101,-152 140.2101,-152 140.2101,-146 146.2101,-140 152.2101,-140 152.2101,-140 281.6271,-140 281.6271,-140 287.6271,-140 293.6271,-146 293.6271,-152 293.6271,-152 293.6271,-164 293.6271,-164 293.6271,-170 287.6271,-176 281.6271,-176"/>
<text text-anchor="middle" x="216.9186" y="-153.8" font-family="Arial" font-size="14.00" fill="#ffffff">layer based document</text>
</g>
<!-- documents:tag(relation) based document -->
<g id="node3" class="node">
<title>documents:tag(relation) based document</title>
<path fill="#4b75b9" stroke="#ffffff" stroke-width="2" d="M303.9662,-122C303.9662,-122 129.871,-122 129.871,-122 123.871,-122 117.871,-116 117.871,-110 117.871,-110 117.871,-98 117.871,-98 117.871,-92 123.871,-86 129.871,-86 129.871,-86 303.9662,-86 303.9662,-86 309.9662,-86 315.9662,-92 315.9662,-98 315.9662,-98 315.9662,-110 315.9662,-110 315.9662,-116 309.9662,-122 303.9662,-122"/>
<text text-anchor="middle" x="216.9186" y="-99.8" font-family="Arial" font-size="14.00" fill="#ffffff">tag(relation) based document</text>
</g>
<!-- documents:custom document -->
<g id="node4" class="node">
<title>documents:custom document</title>
<path fill="#4b75b9" stroke="#ffffff" stroke-width="2" d="M268.3907,-68C268.3907,-68 165.4465,-68 165.4465,-68 159.4465,-68 153.4465,-62 153.4465,-56 153.4465,-56 153.4465,-44 153.4465,-44 153.4465,-38 159.4465,-32 165.4465,-32 165.4465,-32 268.3907,-32 268.3907,-32 274.3907,-32 280.3907,-38 280.3907,-44 280.3907,-44 280.3907,-56 280.3907,-56 280.3907,-62 274.3907,-68 268.3907,-68"/>
<text text-anchor="middle" x="216.9186" y="-45.8" font-family="Arial" font-size="14.00" fill="#ffffff">custom document</text>
</g>
<!-- ndiag:internal -->
<g id="node5" class="node">
<title>ndiag:internal</title>
<path fill="#4b75b9" stroke="#ffffff" stroke-width="2" d="M65.8423,-149C65.8423,-149 28.0525,-149 28.0525,-149 22.0525,-149 16.0525,-143 16.0525,-137 16.0525,-137 16.0525,-125 16.0525,-125 16.0525,-119 22.0525,-113 28.0525,-113 28.0525,-113 65.8423,-113 65.8423,-113 71.8423,-113 77.8423,-119 77.8423,-125 77.8423,-125 77.8423,-137 77.8423,-137 77.8423,-143 71.8423,-149 65.8423,-149"/>
<text text-anchor="middle" x="46.9474" y="-126.8" font-family="Arial" font-size="14.00" fill="#ffffff">internal</text>
</g>
<!-- ndiag:internal&#45;&gt;documents:index document -->
<g id="edge1" class="edge">
<title>ndiag:internal&#45;&gt;documents:index document</title>
<path fill="none" stroke="#333333" stroke-width="2" stroke-opacity="0.600000" d="M47.9424,-149.3802C47.9424,-173.2785 47.9424,-212 47.9424,-212 47.9424,-212 149.2392,-212 149.2392,-212"/>
<polygon fill="#333333" fill-opacity="0.600000" stroke="#333333" stroke-width="2" stroke-opacity="0.600000" points="149.2392,-215.5001 159.2392,-212 149.2392,-208.5001 149.2392,-215.5001"/>
</g>
<!-- ndiag:internal&#45;&gt;documents:layer based document -->
<g id="edge3" class="edge">
<title>ndiag:internal&#45;&gt;documents:layer based document</title>
<path fill="none" stroke="#333333" stroke-width="2" stroke-opacity="0.600000" d="M78.1227,-144.5C78.1227,-144.5 130.0063,-144.5 130.0063,-144.5"/>
<polygon fill="#333333" fill-opacity="0.600000" stroke="#333333" stroke-width="2" stroke-opacity="0.600000" points="130.0063,-148.0001 140.0063,-144.5 130.0062,-141.0001 130.0063,-148.0001"/>
</g>
<!-- ndiag:internal&#45;&gt;documents:tag(relation) based document -->
<g id="edge4" class="edge">
<title>ndiag:internal&#45;&gt;documents:tag(relation) based document</title>
<path fill="none" stroke="#333333" stroke-width="2" stroke-opacity="0.600000" d="M78.1227,-117.5C78.1227,-117.5 107.646,-117.5 107.646,-117.5"/>
<polygon fill="#333333" fill-opacity="0.600000" stroke="#333333" stroke-width="2" stroke-opacity="0.600000" points="107.6461,-121.0001 117.646,-117.5 107.646,-114.0001 107.6461,-121.0001"/>
</g>
<!-- ndiag:internal&#45;&gt;documents:custom document -->
<g id="edge2" class="edge">
<title>ndiag:internal&#45;&gt;documents:custom document</title>
<path fill="none" stroke="#333333" stroke-width="2" stroke-opacity="0.600000" d="M47.9424,-112.6198C47.9424,-88.7215 47.9424,-50 47.9424,-50 47.9424,-50 143.5173,-50 143.5173,-50"/>
<polygon fill="#333333" fill-opacity="0.600000" stroke="#333333" stroke-width="2" stroke-opacity="0.600000" points="143.5174,-53.5001 153.5173,-50 143.5173,-46.5001 143.5174,-53.5001"/>
</g>
</g>
</svg>
