<?xml version="1.0" encoding="UTF-8" standalone="no"?>
<!DOCTYPE svg PUBLIC "-//W3C//DTD SVG 1.1//EN"
 "http://www.w3.org/Graphics/SVG/1.1/DTD/svg11.dtd">
<!-- Generated by graphviz version 2.40.1 (20161225.0304)
 -->
<!-- Title: ndiag Pages: 1 -->
<svg width="208pt" height="199pt"
 viewBox="0.00 0.00 208.22 199.00" xmlns="http://www.w3.org/2000/svg" xmlns:xlink="http://www.w3.org/1999/xlink">
<g id="graph0" class="graph" transform="scale(1 1) rotate(0) translate(4 195)">
<title>ndiag</title>
<polygon fill="#ffffff" stroke="transparent" points="-4,4 -4,-195 204.2216,-195 204.2216,4 -4,4"/>
<g id="clust2" class="cluster">
<title>cluster_ndiag</title>
<polygon fill="none" stroke="#999999" stroke-width="2" points="115.2216,-22 115.2216,-132 192.2216,-132 192.2216,-22 115.2216,-22"/>
<text text-anchor="middle" x="153.7216" y="-115.4" font-family="Arial" font-size="14.00" fill="#666666">ndiag</text>
</g>
<g id="clust1" class="cluster">
<title>cluster_diagrams</title>
<polygon fill="none" stroke="#000000" stroke-width="2" points="8,-8 8,-183 95.2216,-183 95.2216,-8 8,-8"/>
<image xlink:href="/var/folders/fp/hk95_wsj7s18mmc9drvrxdp1tt294n/T/ndiag.013241/pen.svg" width="57px" height="45px" preserveAspectRatio="xMinYMin meet" x="23.6108" y="-178.5"/>
<text text-anchor="start" x="23.3317" y="-120.9" font-family="Arial" font-size="14.00" fill="#000000">diagrams</text>
</g>
<!-- diagrams:overview -->
<g id="node1" class="node">
<title>diagrams:overview</title>
<path fill="#ffffff" stroke="#4b75b9" stroke-width="3" d="M75.3327,-106C75.3327,-106 27.8889,-106 27.8889,-106 21.8889,-106 15.8889,-100 15.8889,-94 15.8889,-94 15.8889,-82 15.8889,-82 15.8889,-76 21.8889,-70 27.8889,-70 27.8889,-70 75.3327,-70 75.3327,-70 81.3327,-70 87.3327,-76 87.3327,-82 87.3327,-82 87.3327,-94 87.3327,-94 87.3327,-100 81.3327,-106 75.3327,-106"/>
<text text-anchor="middle" x="51.6108" y="-83.8" font-family="Arial" font-size="14.00" fill="#333333">overview</text>
</g>
<!-- ndiag:internal -->
<g id="node3" class="node">
<title>ndiag:internal</title>
<path fill="#ffffff" stroke="#4b75b9" stroke-width="3" stroke-opacity="0.400000" d="M172.2216,-99.5C172.2216,-99.5 135.2216,-99.5 135.2216,-99.5 129.2216,-99.5 123.2216,-93.5 123.2216,-87.5 123.2216,-87.5 123.2216,-42.5 123.2216,-42.5 123.2216,-36.5 129.2216,-30.5 135.2216,-30.5 135.2216,-30.5 172.2216,-30.5 172.2216,-30.5 178.2216,-30.5 184.2216,-36.5 184.2216,-42.5 184.2216,-42.5 184.2216,-87.5 184.2216,-87.5 184.2216,-93.5 178.2216,-99.5 172.2216,-99.5"/>
<image xlink:href="/var/folders/fp/hk95_wsj7s18mmc9drvrxdp1tt294n/T/ndiag.013241/hex2.svg" width="45px" height="45px" preserveAspectRatio="xMinYMin meet" x="131.722" y="-95"/>
<text text-anchor="start" x="131.2742" y="-37.4" font-family="Arial" font-size="14.00" fill="#333333">internal</text>
</g>
<!-- diagrams:overview&#45;&gt;ndiag:internal -->
<g id="edge1" class="edge">
<title>diagrams:overview&#45;&gt;ndiag:internal</title>
<path fill="none" stroke="#333333" stroke-width="2" stroke-opacity="0.600000" d="M87.3242,-84.75C87.3242,-84.75 112.9509,-84.75 112.9509,-84.75"/>
<polygon fill="#333333" fill-opacity="0.600000" stroke="#333333" stroke-width="2" stroke-opacity="0.600000" points="112.9509,-88.2501 122.9509,-84.75 112.9508,-81.2501 112.9509,-88.2501"/>
</g>
<!-- diagrams:http&#45;lb -->
<g id="node2" class="node">
<title>diagrams:http&#45;lb</title>
<path fill="#ffffff" stroke="#4b75b9" stroke-width="3" d="M67.0071,-52C67.0071,-52 36.2145,-52 36.2145,-52 30.2145,-52 24.2145,-46 24.2145,-40 24.2145,-40 24.2145,-28 24.2145,-28 24.2145,-22 30.2145,-16 36.2145,-16 36.2145,-16 67.0071,-16 67.0071,-16 73.0071,-16 79.0071,-22 79.0071,-28 79.0071,-28 79.0071,-40 79.0071,-40 79.0071,-46 73.0071,-52 67.0071,-52"/>
<text text-anchor="middle" x="51.6108" y="-29.8" font-family="Arial" font-size="14.00" fill="#333333">http&#45;lb</text>
</g>
<!-- diagrams:http&#45;lb&#45;&gt;ndiag:internal -->
<g id="edge2" class="edge">
<title>diagrams:http&#45;lb&#45;&gt;ndiag:internal</title>
<path fill="none" stroke="#333333" stroke-width="2" stroke-opacity="0.600000" d="M79.2435,-41.25C79.2435,-41.25 113.192,-41.25 113.192,-41.25"/>
<polygon fill="#333333" fill-opacity="0.600000" stroke="#333333" stroke-width="2" stroke-opacity="0.600000" points="113.192,-44.7501 123.192,-41.25 113.1919,-37.7501 113.192,-44.7501"/>
</g>
</g>
</svg>
