<?xml version="1.0" encoding="UTF-8" standalone="no"?>
<!DOCTYPE svg PUBLIC "-//W3C//DTD SVG 1.1//EN"
 "http://www.w3.org/Graphics/SVG/1.1/DTD/svg11.dtd">
<!-- Generated by graphviz version 2.40.1 (20161225.0304)
 -->
<!-- Title: ndiag Pages: 1 -->
<svg width="324pt" height="263pt"
 viewBox="0.00 0.00 323.86 263.00" xmlns="http://www.w3.org/2000/svg" xmlns:xlink="http://www.w3.org/1999/xlink">
<g id="graph0" class="graph" transform="scale(1 1) rotate(0) translate(4 259)">
<title>ndiag</title>
<polygon fill="#ffffff" stroke="transparent" points="-4,4 -4,-259 319.8618,-259 319.8618,4 -4,4"/>
<g id="clust2" class="cluster">
<title>cluster_ndiag</title>
<polygon fill="none" stroke="#999999" stroke-width="2" points="229.967,-89 229.967,-166 307.8618,-166 307.8618,-89 229.967,-89"/>
<text text-anchor="middle" x="268.9144" y="-149.4" font-family="Arial" font-size="14.00" fill="#666666">ndiag (1)</text>
</g>
<g id="clust1" class="cluster">
<title>cluster_networks</title>
<polygon fill="none" stroke="#000000" stroke-width="2" points="8,-8 8,-247 209.967,-247 209.967,-8 8,-8"/>
<text text-anchor="middle" x="108.9835" y="-230.4" font-family="Arial" font-size="14.00" fill="#000000">networks (1)</text>
</g>
<!-- networks:internet&#45;&gt;group:lb:vip -->
<g id="node1" class="node">
<title>networks:internet&#45;&gt;group:lb:vip</title>
<path fill="#4b75b9" stroke="#ffffff" stroke-width="2" d="M170.8482,-214C170.8482,-214 47.1188,-214 47.1188,-214 41.1188,-214 35.1188,-208 35.1188,-202 35.1188,-202 35.1188,-190 35.1188,-190 35.1188,-184 41.1188,-178 47.1188,-178 47.1188,-178 170.8482,-178 170.8482,-178 176.8482,-178 182.8482,-184 182.8482,-190 182.8482,-190 182.8482,-202 182.8482,-202 182.8482,-208 176.8482,-214 170.8482,-214"/>
<text text-anchor="middle" x="108.9835" y="-191.8" font-family="Arial" font-size="14.00" fill="#ffffff">internet&#45;&gt;group:lb:vip</text>
</g>
<!-- ndiag:internal -->
<g id="node5" class="node">
<title>ndiag:internal</title>
<path fill="#4b75b9" stroke="#ffffff" stroke-width="2" d="M287.8093,-133C287.8093,-133 250.0195,-133 250.0195,-133 244.0195,-133 238.0195,-127 238.0195,-121 238.0195,-121 238.0195,-109 238.0195,-109 238.0195,-103 244.0195,-97 250.0195,-97 250.0195,-97 287.8093,-97 287.8093,-97 293.8093,-97 299.8093,-103 299.8093,-109 299.8093,-109 299.8093,-121 299.8093,-121 299.8093,-127 293.8093,-133 287.8093,-133"/>
<text text-anchor="middle" x="268.9144" y="-110.8" font-family="Arial" font-size="14.00" fill="#ffffff">internal</text>
</g>
<!-- networks:internet&#45;&gt;group:lb:vip&#45;&gt;ndiag:internal -->
<g id="edge1" class="edge">
<title>networks:internet&#45;&gt;group:lb:vip&#45;&gt;ndiag:internal</title>
<path fill="none" stroke="#333333" stroke-width="2" stroke-opacity="0.600000" d="M183.3007,-196C225.4537,-196 269.8618,-196 269.8618,-196 269.8618,-196 269.8618,-143.3802 269.8618,-143.3802"/>
<polygon fill="#333333" fill-opacity="0.600000" stroke="#333333" stroke-width="2" stroke-opacity="0.600000" points="273.3619,-143.3801 269.8618,-133.3802 266.3619,-143.3802 273.3619,-143.3801"/>
</g>
<!-- networks:group:lb:vip&#45;&gt;lb&#45;*:nginx -->
<g id="node2" class="node">
<title>networks:group:lb:vip&#45;&gt;lb&#45;*:nginx</title>
<path fill="#4b75b9" stroke="#ffffff" stroke-width="2" d="M176.5094,-160C176.5094,-160 41.4576,-160 41.4576,-160 35.4576,-160 29.4576,-154 29.4576,-148 29.4576,-148 29.4576,-136 29.4576,-136 29.4576,-130 35.4576,-124 41.4576,-124 41.4576,-124 176.5094,-124 176.5094,-124 182.5094,-124 188.5094,-130 188.5094,-136 188.5094,-136 188.5094,-148 188.5094,-148 188.5094,-154 182.5094,-160 176.5094,-160"/>
<text text-anchor="middle" x="108.9835" y="-137.8" font-family="Arial" font-size="14.00" fill="#ffffff">group:lb:vip&#45;&gt;lb&#45;*:nginx</text>
</g>
<!-- networks:group:lb:vip&#45;&gt;lb&#45;*:nginx&#45;&gt;ndiag:internal -->
<g id="edge2" class="edge">
<title>networks:group:lb:vip&#45;&gt;lb&#45;*:nginx&#45;&gt;ndiag:internal</title>
<path fill="none" stroke="#333333" stroke-width="2" stroke-opacity="0.600000" d="M188.949,-128.5C188.949,-128.5 227.6985,-128.5 227.6985,-128.5"/>
<polygon fill="#333333" fill-opacity="0.600000" stroke="#333333" stroke-width="2" stroke-opacity="0.600000" points="227.6985,-132.0001 237.6985,-128.5 227.6984,-125.0001 227.6985,-132.0001"/>
</g>
<!-- networks:lb&#45;*:nginx&#45;&gt;app&#45;*:rails -->
<g id="node3" class="node">
<title>networks:lb&#45;*:nginx&#45;&gt;app&#45;*:rails</title>
<path fill="#4b75b9" stroke="#ffffff" stroke-width="2" d="M172.1582,-106C172.1582,-106 45.8088,-106 45.8088,-106 39.8088,-106 33.8088,-100 33.8088,-94 33.8088,-94 33.8088,-82 33.8088,-82 33.8088,-76 39.8088,-70 45.8088,-70 45.8088,-70 172.1582,-70 172.1582,-70 178.1582,-70 184.1582,-76 184.1582,-82 184.1582,-82 184.1582,-94 184.1582,-94 184.1582,-100 178.1582,-106 172.1582,-106"/>
<text text-anchor="middle" x="108.9835" y="-83.8" font-family="Arial" font-size="14.00" fill="#ffffff">lb&#45;*:nginx&#45;&gt;app&#45;*:rails</text>
</g>
<!-- networks:lb&#45;*:nginx&#45;&gt;app&#45;*:rails&#45;&gt;ndiag:internal -->
<g id="edge3" class="edge">
<title>networks:lb&#45;*:nginx&#45;&gt;app&#45;*:rails&#45;&gt;ndiag:internal</title>
<path fill="none" stroke="#333333" stroke-width="2" stroke-opacity="0.600000" d="M184.2659,-103C184.2659,-103 227.9152,-103 227.9152,-103"/>
<polygon fill="#333333" fill-opacity="0.600000" stroke="#333333" stroke-width="2" stroke-opacity="0.600000" points="227.9152,-106.5001 237.9152,-103 227.9151,-99.5001 227.9152,-106.5001"/>
</g>
<!-- networks:app&#45;*:rails&#45;&gt;db&#45;*:postgresql -->
<g id="node4" class="node">
<title>networks:app&#45;*:rails&#45;&gt;db&#45;*:postgresql</title>
<path fill="#4b75b9" stroke="#ffffff" stroke-width="2" d="M189.9505,-52C189.9505,-52 28.0165,-52 28.0165,-52 22.0165,-52 16.0165,-46 16.0165,-40 16.0165,-40 16.0165,-28 16.0165,-28 16.0165,-22 22.0165,-16 28.0165,-16 28.0165,-16 189.9505,-16 189.9505,-16 195.9505,-16 201.9505,-22 201.9505,-28 201.9505,-28 201.9505,-40 201.9505,-40 201.9505,-46 195.9505,-52 189.9505,-52"/>
<text text-anchor="middle" x="108.9835" y="-29.8" font-family="Arial" font-size="14.00" fill="#ffffff">app&#45;*:rails&#45;&gt;db&#45;*:postgresql</text>
</g>
<!-- networks:app&#45;*:rails&#45;&gt;db&#45;*:postgresql&#45;&gt;ndiag:internal -->
<g id="edge4" class="edge">
<title>networks:app&#45;*:rails&#45;&gt;db&#45;*:postgresql&#45;&gt;ndiag:internal</title>
<path fill="none" stroke="#333333" stroke-width="2" stroke-opacity="0.600000" d="M195.8618,-52.0348C195.8618,-71.5762 195.8618,-100 195.8618,-100 195.8618,-100 227.9335,-100 227.9335,-100"/>
<polygon fill="#333333" fill-opacity="0.600000" stroke="#333333" stroke-width="2" stroke-opacity="0.600000" points="227.9336,-103.5001 237.9335,-100 227.9335,-96.5001 227.9336,-103.5001"/>
</g>
</g>
</svg>
