<?xml version="1.0" encoding="UTF-8" standalone="no"?>
<!DOCTYPE svg PUBLIC "-//W3C//DTD SVG 1.1//EN"
 "http://www.w3.org/Graphics/SVG/1.1/DTD/svg11.dtd">
<!-- Generated by graphviz version 2.40.1 (20161225.0304)
 -->
<!-- Title: ndiag Pages: 1 -->
<svg width="190pt" height="469pt"
 viewBox="0.00 0.00 190.00 469.00" xmlns="http://www.w3.org/2000/svg" xmlns:xlink="http://www.w3.org/1999/xlink">
<g id="graph0" class="graph" transform="scale(1 1) rotate(0) translate(4 465)">
<title>ndiag</title>
<polygon fill="#ffffff" stroke="transparent" points="-4,4 -4,-465 186,-465 186,4 -4,4"/>
<g id="clust2" class="cluster">
<title>cluster_nodes</title>
<polygon fill="none" stroke="#999999" stroke-width="2" points="104,-116 104,-345 174,-345 174,-116 104,-116"/>
<image xlink:href="/var/folders/fp/hk95_wsj7s18mmc9drvrxdp1tt294n/T/ndiag.044504/pen.svg" width="45px" height="45px" preserveAspectRatio="xMinYMin meet" x="117" y="-340.5"/>
<text text-anchor="start" x="120.4348" y="-282.9" font-family="Arial" font-size="14.00" fill="#666666">nodes</text>
</g>
<g id="clust1" class="cluster">
<title>cluster_real nodes</title>
<polygon fill="none" stroke="#000000" stroke-width="2" points="3,-8 3,-453 84,-453 84,-8 3,-8"/>
<image xlink:href="/var/folders/fp/hk95_wsj7s18mmc9drvrxdp1tt294n/T/ndiag.044504/gear.svg" width="60px" height="45px" preserveAspectRatio="xMinYMin meet" x="14" y="-448.5"/>
<text text-anchor="start" x="11.3233" y="-390.9" font-family="Arial" font-size="14.00" fill="#000000">real nodes</text>
</g>
<!-- real nodes:lb&#45;1 -->
<g id="node1" class="node">
<title>real nodes:lb&#45;1</title>
<path fill="#ffffff" stroke="#4b75b9" stroke-width="3" d="M58,-376C58,-376 28,-376 28,-376 22,-376 16,-370 16,-364 16,-364 16,-352 16,-352 16,-346 22,-340 28,-340 28,-340 58,-340 58,-340 64,-340 70,-346 70,-352 70,-352 70,-364 70,-364 70,-370 64,-376 58,-376"/>
<text text-anchor="middle" x="43" y="-353.8" font-family="Arial" font-size="14.00" fill="#333333">lb&#45;1</text>
</g>
<!-- nodes:lb&#45;* -->
<g id="node8" class="node">
<title>nodes:lb&#45;*</title>
<path fill="#ffffff" stroke="#4b75b9" stroke-width="3" d="M154,-268C154,-268 124,-268 124,-268 118,-268 112,-262 112,-256 112,-256 112,-244 112,-244 112,-238 118,-232 124,-232 124,-232 154,-232 154,-232 160,-232 166,-238 166,-244 166,-244 166,-256 166,-256 166,-262 160,-268 154,-268"/>
<text text-anchor="middle" x="139" y="-245.8" font-family="Arial" font-size="14.00" fill="#333333">lb&#45;*</text>
</g>
<!-- real nodes:lb&#45;1&#45;&gt;nodes:lb&#45;* -->
<g id="edge1" class="edge">
<title>real nodes:lb&#45;1&#45;&gt;nodes:lb&#45;*</title>
<path fill="none" stroke="#333333" stroke-width="2" stroke-opacity="0.600000" d="M70.0401,-358C101.1509,-358 148,-358 148,-358 148,-358 148,-278.3207 148,-278.3207"/>
<polygon fill="#333333" fill-opacity="0.600000" stroke="#333333" stroke-width="2" stroke-opacity="0.600000" points="151.5001,-278.3207 148,-268.3207 144.5001,-278.3208 151.5001,-278.3207"/>
</g>
<!-- real nodes:lb&#45;2 -->
<g id="node2" class="node">
<title>real nodes:lb&#45;2</title>
<path fill="#ffffff" stroke="#4b75b9" stroke-width="3" d="M58,-322C58,-322 28,-322 28,-322 22,-322 16,-316 16,-310 16,-310 16,-298 16,-298 16,-292 22,-286 28,-286 28,-286 58,-286 58,-286 64,-286 70,-292 70,-298 70,-298 70,-310 70,-310 70,-316 64,-322 58,-322"/>
<text text-anchor="middle" x="43" y="-299.8" font-family="Arial" font-size="14.00" fill="#333333">lb&#45;2</text>
</g>
<!-- real nodes:lb&#45;2&#45;&gt;nodes:lb&#45;* -->
<g id="edge2" class="edge">
<title>real nodes:lb&#45;2&#45;&gt;nodes:lb&#45;*</title>
<path fill="none" stroke="#333333" stroke-width="2" stroke-opacity="0.600000" d="M70.0504,-304C95.5895,-304 130,-304 130,-304 130,-304 130,-278.2819 130,-278.2819"/>
<polygon fill="#333333" fill-opacity="0.600000" stroke="#333333" stroke-width="2" stroke-opacity="0.600000" points="133.5001,-278.2819 130,-268.2819 126.5001,-278.282 133.5001,-278.2819"/>
</g>
<!-- real nodes:app&#45;1 -->
<g id="node3" class="node">
<title>real nodes:app&#45;1</title>
<path fill="#ffffff" stroke="#4b75b9" stroke-width="3" d="M58,-268C58,-268 28,-268 28,-268 22,-268 16,-262 16,-256 16,-256 16,-244 16,-244 16,-238 22,-232 28,-232 28,-232 58,-232 58,-232 64,-232 70,-238 70,-244 70,-244 70,-256 70,-256 70,-262 64,-268 58,-268"/>
<text text-anchor="middle" x="43" y="-245.8" font-family="Arial" font-size="14.00" fill="#333333">app&#45;1</text>
</g>
<!-- nodes:app&#45;* -->
<g id="node9" class="node">
<title>nodes:app&#45;*</title>
<path fill="#ffffff" stroke="#4b75b9" stroke-width="3" d="M154,-214C154,-214 124,-214 124,-214 118,-214 112,-208 112,-202 112,-202 112,-190 112,-190 112,-184 118,-178 124,-178 124,-178 154,-178 154,-178 160,-178 166,-184 166,-190 166,-190 166,-202 166,-202 166,-208 160,-214 154,-214"/>
<text text-anchor="middle" x="139" y="-191.8" font-family="Arial" font-size="14.00" fill="#333333">app&#45;*</text>
</g>
<!-- real nodes:app&#45;1&#45;&gt;nodes:app&#45;* -->
<g id="edge3" class="edge">
<title>real nodes:app&#45;1&#45;&gt;nodes:app&#45;*</title>
<path fill="none" stroke="#333333" stroke-width="2" stroke-opacity="0.600000" d="M70.1777,-250C84.0343,-250 98,-250 98,-250 98,-250 98,-205 98,-205 98,-205 101.8807,-205 101.8807,-205"/>
<polygon fill="#333333" fill-opacity="0.600000" stroke="#333333" stroke-width="2" stroke-opacity="0.600000" points="101.8808,-208.5001 111.8807,-205 101.8807,-201.5001 101.8808,-208.5001"/>
</g>
<!-- real nodes:app&#45;2 -->
<g id="node4" class="node">
<title>real nodes:app&#45;2</title>
<path fill="#ffffff" stroke="#4b75b9" stroke-width="3" d="M58,-214C58,-214 28,-214 28,-214 22,-214 16,-208 16,-202 16,-202 16,-190 16,-190 16,-184 22,-178 28,-178 28,-178 58,-178 58,-178 64,-178 70,-184 70,-190 70,-190 70,-202 70,-202 70,-208 64,-214 58,-214"/>
<text text-anchor="middle" x="43" y="-191.8" font-family="Arial" font-size="14.00" fill="#333333">app&#45;2</text>
</g>
<!-- real nodes:app&#45;2&#45;&gt;nodes:app&#45;* -->
<g id="edge4" class="edge">
<title>real nodes:app&#45;2&#45;&gt;nodes:app&#45;*</title>
<path fill="none" stroke="#333333" stroke-width="2" stroke-opacity="0.600000" d="M70.253,-196C70.253,-196 101.6789,-196 101.6789,-196"/>
<polygon fill="#333333" fill-opacity="0.600000" stroke="#333333" stroke-width="2" stroke-opacity="0.600000" points="101.6789,-199.5001 111.6789,-196 101.6789,-192.5001 101.6789,-199.5001"/>
</g>
<!-- real nodes:app&#45;3 -->
<g id="node5" class="node">
<title>real nodes:app&#45;3</title>
<path fill="#ffffff" stroke="#4b75b9" stroke-width="3" d="M58,-160C58,-160 28,-160 28,-160 22,-160 16,-154 16,-148 16,-148 16,-136 16,-136 16,-130 22,-124 28,-124 28,-124 58,-124 58,-124 64,-124 70,-130 70,-136 70,-136 70,-148 70,-148 70,-154 64,-160 58,-160"/>
<text text-anchor="middle" x="43" y="-137.8" font-family="Arial" font-size="14.00" fill="#333333">app&#45;3</text>
</g>
<!-- real nodes:app&#45;3&#45;&gt;nodes:app&#45;* -->
<g id="edge5" class="edge">
<title>real nodes:app&#45;3&#45;&gt;nodes:app&#45;*</title>
<path fill="none" stroke="#333333" stroke-width="2" stroke-opacity="0.600000" d="M70.1193,-142C77.7439,-142 84,-142 84,-142 84,-142 84,-187 84,-187 84,-187 101.8223,-187 101.8223,-187"/>
<polygon fill="#333333" fill-opacity="0.600000" stroke="#333333" stroke-width="2" stroke-opacity="0.600000" points="101.8223,-190.5001 111.8223,-187 101.8222,-183.5001 101.8223,-190.5001"/>
</g>
<!-- real nodes:db&#45;1 -->
<g id="node6" class="node">
<title>real nodes:db&#45;1</title>
<path fill="#ffffff" stroke="#4b75b9" stroke-width="3" d="M58,-106C58,-106 28,-106 28,-106 22,-106 16,-100 16,-94 16,-94 16,-82 16,-82 16,-76 22,-70 28,-70 28,-70 58,-70 58,-70 64,-70 70,-76 70,-82 70,-82 70,-94 70,-94 70,-100 64,-106 58,-106"/>
<text text-anchor="middle" x="43" y="-83.8" font-family="Arial" font-size="14.00" fill="#333333">db&#45;1</text>
</g>
<!-- nodes:db&#45;* -->
<g id="node10" class="node">
<title>nodes:db&#45;*</title>
<path fill="#ffffff" stroke="#4b75b9" stroke-width="3" d="M154,-160C154,-160 124,-160 124,-160 118,-160 112,-154 112,-148 112,-148 112,-136 112,-136 112,-130 118,-124 124,-124 124,-124 154,-124 154,-124 160,-124 166,-130 166,-136 166,-136 166,-148 166,-148 166,-154 160,-160 154,-160"/>
<text text-anchor="middle" x="139" y="-137.8" font-family="Arial" font-size="14.00" fill="#333333">db&#45;*</text>
</g>
<!-- real nodes:db&#45;1&#45;&gt;nodes:db&#45;* -->
<g id="edge6" class="edge">
<title>real nodes:db&#45;1&#45;&gt;nodes:db&#45;*</title>
<path fill="none" stroke="#333333" stroke-width="2" stroke-opacity="0.600000" d="M70.0504,-88C95.5895,-88 130,-88 130,-88 130,-88 130,-113.7181 130,-113.7181"/>
<polygon fill="#333333" fill-opacity="0.600000" stroke="#333333" stroke-width="2" stroke-opacity="0.600000" points="126.5001,-113.718 130,-123.7181 133.5001,-113.7181 126.5001,-113.718"/>
</g>
<!-- real nodes:db&#45;2 -->
<g id="node7" class="node">
<title>real nodes:db&#45;2</title>
<path fill="#ffffff" stroke="#4b75b9" stroke-width="3" d="M58,-52C58,-52 28,-52 28,-52 22,-52 16,-46 16,-40 16,-40 16,-28 16,-28 16,-22 22,-16 28,-16 28,-16 58,-16 58,-16 64,-16 70,-22 70,-28 70,-28 70,-40 70,-40 70,-46 64,-52 58,-52"/>
<text text-anchor="middle" x="43" y="-29.8" font-family="Arial" font-size="14.00" fill="#333333">db&#45;2</text>
</g>
<!-- real nodes:db&#45;2&#45;&gt;nodes:db&#45;* -->
<g id="edge7" class="edge">
<title>real nodes:db&#45;2&#45;&gt;nodes:db&#45;*</title>
<path fill="none" stroke="#333333" stroke-width="2" stroke-opacity="0.600000" d="M70.0401,-34C101.1509,-34 148,-34 148,-34 148,-34 148,-113.6793 148,-113.6793"/>
<polygon fill="#333333" fill-opacity="0.600000" stroke="#333333" stroke-width="2" stroke-opacity="0.600000" points="144.5001,-113.6792 148,-123.6793 151.5001,-113.6793 144.5001,-113.6792"/>
</g>
</g>
</svg>
