<?xml version="1.0" encoding="UTF-8" standalone="no"?>
<!DOCTYPE svg PUBLIC "-//W3C//DTD SVG 1.1//EN"
 "http://www.w3.org/Graphics/SVG/1.1/DTD/svg11.dtd">
<!-- Generated by graphviz version 12.1.2 (20240928.0832)
 -->
<!-- Title: ndiag Pages: 1 -->
<svg width="505pt" height="348pt" viewBox="0.00 0.00 504.60 348.00" xmlns="http://www.w3.org/2000/svg" xmlns:xlink="http://www.w3.org/1999/xlink">
<g id="graph0" class="graph" transform="scale(1 1) rotate(0) translate(4 344)">
<title>ndiag</title>
<polygon fill="white" stroke="none" points="-4,4 -4,-344 500.6,-344 500.6,4 -4,4"></polygon>
<g id="clust1" class="cluster">
<title>cluster_ndiag</title>
<polygon fill="none" stroke="black" stroke-width="2" points="213.16,-116 213.16,-193 291.07,-193 291.07,-116 213.16,-116"></polygon>
<text text-anchor="middle" x="252.12" y="-176.4" font-family="Arial" font-size="14.00">ndiag</text>
</g>
<g id="clust2" class="cluster">
<title>cluster_input files</title>
<polygon fill="none" stroke="#999999" stroke-width="2" points="311.07,-255 311.07,-332 488.6,-332 488.6,-255 311.07,-255"></polygon>
<text text-anchor="middle" x="399.84" y="-315.4" font-family="Arial" font-size="14.00" fill="#666666">input files</text>
</g>
<g id="clust3" class="cluster">
<title>cluster_documents</title>
<polygon fill="none" stroke="#999999" stroke-width="2" points="311.46,-8 311.46,-247 488.21,-247 488.21,-8 311.46,-8"></polygon>
<text text-anchor="middle" x="399.84" y="-230.4" font-family="Arial" font-size="14.00" fill="#666666">documents</text>
</g>
<!-- ndiag:internal -->
<g id="node1" class="node">
<title>ndiag:internal</title>
<path fill="#ffffff" stroke="#4b75b9" stroke-width="3" d="M271.07,-160C271.07,-160 233.16,-160 233.16,-160 227.16,-160 221.16,-154 221.16,-148 221.16,-148 221.16,-136 221.16,-136 221.16,-130 227.16,-124 233.16,-124 233.16,-124 271.07,-124 271.07,-124 277.07,-124 283.07,-130 283.07,-136 283.07,-136 283.07,-148 283.07,-148 283.07,-154 277.07,-160 271.07,-160"></path>
<text text-anchor="middle" x="252.12" y="-137.8" font-family="Arial" font-size="14.00" fill="#333333">internal</text>
</g>
<!-- input files:ndiag.descriptions/*.md -->
<g id="node2" class="node">
<title>input files:ndiag.descriptions/*.md</title>
<path fill="#ffffff" stroke="#4b75b9" stroke-width="3" d="M468.6,-299C468.6,-299 331.07,-299 331.07,-299 325.07,-299 319.07,-293 319.07,-287 319.07,-287 319.07,-275 319.07,-275 319.07,-269 325.07,-263 331.07,-263 331.07,-263 468.6,-263 468.6,-263 474.6,-263 480.6,-269 480.6,-275 480.6,-275 480.6,-287 480.6,-287 480.6,-293 474.6,-299 468.6,-299"></path>
<text text-anchor="middle" x="399.84" y="-276.8" font-family="Arial" font-size="14.00" fill="#333333">ndiag.descriptions/*.md</text>
</g>
<!-- ndiag:internal&#45;&gt;input files:ndiag.descriptions/*.md -->
<g id="edge3" class="edge">
<title>ndiag:internal-&gt;input files:ndiag.descriptions/*.md</title>
<path fill="none" stroke="#333333" stroke-width="2" stroke-opacity="0.600000" d="M241.8,-171.97C241.8,-171.97 241.8,-281 241.8,-281 241.8,-281 307.45,-281 307.45,-281"></path>
<polygon fill="#333333" fill-opacity="0.600000" stroke="#333333" stroke-width="2" stroke-opacity="0.600000" points="245.3,-173.49 241.8,-163.49 238.3,-173.49 245.3,-173.49"></polygon>
<polygon fill="#333333" fill-opacity="0.600000" stroke="#333333" stroke-width="2" stroke-opacity="0.600000" points="305.94,-284.5 315.94,-281 305.94,-277.5 305.94,-284.5"></polygon>
</g>
<!-- documents:index document -->
<g id="node3" class="node">
<title>documents:index document</title>
<path fill="#ffffff" stroke="#4b75b9" stroke-width="3" d="M445.26,-52C445.26,-52 354.41,-52 354.41,-52 348.41,-52 342.41,-46 342.41,-40 342.41,-40 342.41,-28 342.41,-28 342.41,-22 348.41,-16 354.41,-16 354.41,-16 445.26,-16 445.26,-16 451.26,-16 457.26,-22 457.26,-28 457.26,-28 457.26,-40 457.26,-40 457.26,-46 451.26,-52 445.26,-52"></path>
<text text-anchor="middle" x="399.84" y="-29.8" font-family="Arial" font-size="14.00" fill="#333333">index document</text>
</g>
<!-- ndiag:internal&#45;&gt;documents:index document -->
<g id="edge4" class="edge">
<title>ndiag:internal-&gt;documents:index document</title>
<path fill="none" stroke="#333333" stroke-width="2" stroke-opacity="0.600000" d="M241.8,-123.68C241.8,-92.87 241.8,-34 241.8,-34 241.8,-34 330.82,-34 330.82,-34"></path>
<polygon fill="#333333" fill-opacity="0.600000" stroke="#333333" stroke-width="2" stroke-opacity="0.600000" points="329.31,-37.5 339.31,-34 329.31,-30.5 329.31,-37.5"></polygon>
</g>
<!-- documents:custom documents -->
<g id="node4" class="node">
<title>documents:custom documents</title>
<path fill="#ffffff" stroke="#4b75b9" stroke-width="3" d="M454.58,-106C454.58,-106 345.09,-106 345.09,-106 339.09,-106 333.09,-100 333.09,-94 333.09,-94 333.09,-82 333.09,-82 333.09,-76 339.09,-70 345.09,-70 345.09,-70 454.58,-70 454.58,-70 460.58,-70 466.58,-76 466.58,-82 466.58,-82 466.58,-94 466.58,-94 466.58,-100 460.58,-106 454.58,-106"></path>
<text text-anchor="middle" x="399.84" y="-83.8" font-family="Arial" font-size="14.00" fill="#333333">custom documents</text>
</g>
<!-- ndiag:internal&#45;&gt;documents:custom documents -->
<g id="edge5" class="edge">
<title>ndiag:internal-&gt;documents:custom documents</title>
<path fill="none" stroke="#333333" stroke-width="2" stroke-opacity="0.600000" d="M262.43,-123.65C262.43,-112.93 262.43,-101.5 262.43,-101.5 262.43,-101.5 321.23,-101.5 321.23,-101.5"></path>
<polygon fill="#333333" fill-opacity="0.600000" stroke="#333333" stroke-width="2" stroke-opacity="0.600000" points="319.72,-105 329.72,-101.5 319.72,-98 319.72,-105"></polygon>
</g>
<!-- documents:layer based documents -->
<g id="node5" class="node">
<title>documents:layer based documents</title>
<path fill="#ffffff" stroke="#4b75b9" stroke-width="3" d="M468.21,-160C468.21,-160 331.46,-160 331.46,-160 325.46,-160 319.46,-154 319.46,-148 319.46,-148 319.46,-136 319.46,-136 319.46,-130 325.46,-124 331.46,-124 331.46,-124 468.21,-124 468.21,-124 474.21,-124 480.21,-130 480.21,-136 480.21,-136 480.21,-148 480.21,-148 480.21,-154 474.21,-160 468.21,-160"></path>
<text text-anchor="middle" x="399.84" y="-137.8" font-family="Arial" font-size="14.00" fill="#333333">layer based documents</text>
</g>
<!-- ndiag:internal&#45;&gt;documents:layer based documents -->
<g id="edge6" class="edge">
<title>ndiag:internal-&gt;documents:layer based documents</title>
<path fill="none" stroke="#333333" stroke-width="2" stroke-opacity="0.600000" d="M283.44,-142C283.44,-142 307.5,-142 307.5,-142"></path>
<polygon fill="#333333" fill-opacity="0.600000" stroke="#333333" stroke-width="2" stroke-opacity="0.600000" points="305.99,-145.5 315.99,-142 305.99,-138.5 305.99,-145.5"></polygon>
</g>
<!-- documents:label based documents -->
<g id="node6" class="node">
<title>documents:label based documents</title>
<path fill="#ffffff" stroke="#4b75b9" stroke-width="3" d="M467.83,-214C467.83,-214 331.84,-214 331.84,-214 325.84,-214 319.84,-208 319.84,-202 319.84,-202 319.84,-190 319.84,-190 319.84,-184 325.84,-178 331.84,-178 331.84,-178 467.83,-178 467.83,-178 473.83,-178 479.83,-184 479.83,-190 479.83,-190 479.83,-202 479.83,-202 479.83,-208 473.83,-214 467.83,-214"></path>
<text text-anchor="middle" x="399.84" y="-191.8" font-family="Arial" font-size="14.00" fill="#333333">label based documents</text>
</g>
<!-- ndiag:internal&#45;&gt;documents:label based documents -->
<g id="edge7" class="edge">
<title>ndiag:internal-&gt;documents:label based documents</title>
<path fill="none" stroke="#333333" stroke-width="2" stroke-opacity="0.600000" d="M262.43,-160.35C262.43,-171.07 262.43,-182.5 262.43,-182.5 262.43,-182.5 308,-182.5 308,-182.5"></path>
<polygon fill="#333333" fill-opacity="0.600000" stroke="#333333" stroke-width="2" stroke-opacity="0.600000" points="306.48,-186 316.48,-182.5 306.48,-179 306.48,-186"></polygon>
</g>
<!-- input files:ndiag.yml -->
<g id="node7" class="node">
<title>input files:ndiag.yml</title>
<ellipse fill="none" stroke="black" cx="92.58" cy="-169" rx="91.5" ry="18"></ellipse>
<text text-anchor="middle" x="92.58" y="-164.8" font-family="Times,serif" font-size="14.00">input files:ndiag.yml</text>
</g>
<!-- input files:ndiag.yml&#45;&gt;ndiag:internal -->
<g id="edge1" class="edge">
<title>input files:ndiag.yml-&gt;ndiag:internal</title>
<path fill="none" stroke="#333333" stroke-width="2" stroke-opacity="0.600000" d="M155.17,-155.5C155.17,-155.5 209.33,-155.5 209.33,-155.5"></path>
<polygon fill="#333333" fill-opacity="0.600000" stroke="#333333" stroke-width="2" stroke-opacity="0.600000" points="207.81,-159 217.81,-155.5 207.81,-152 207.81,-159"></polygon>
</g>
<!-- input files:nodes.yml -->
<g id="node8" class="node">
<title>input files:nodes.yml</title>
<ellipse fill="none" stroke="black" cx="92.58" cy="-115" rx="92.58" ry="18"></ellipse>
<text text-anchor="middle" x="92.58" y="-110.8" font-family="Times,serif" font-size="14.00">input files:nodes.yml</text>
</g>
<!-- input files:nodes.yml&#45;&gt;ndiag:internal -->
<g id="edge2" class="edge">
<title>input files:nodes.yml-&gt;ndiag:internal</title>
<path fill="none" stroke="#333333" stroke-width="2" stroke-opacity="0.600000" d="M156.09,-128.5C156.09,-128.5 209.27,-128.5 209.27,-128.5"></path>
<polygon fill="#333333" fill-opacity="0.600000" stroke="#333333" stroke-width="2" stroke-opacity="0.600000" points="207.76,-132 217.76,-128.5 207.76,-125 207.76,-132"></polygon>
</g>
</g>
</svg>
