<?xml version="1.0" encoding="UTF-8" standalone="no"?>
<!DOCTYPE svg PUBLIC "-//W3C//DTD SVG 1.1//EN"
 "http://www.w3.org/Graphics/SVG/1.1/DTD/svg11.dtd">
<!-- Generated by graphviz version 2.40.1 (20161225.0304)
 -->
<!-- Title: ndiag Pages: 1 -->
<svg width="565pt" height="927pt"
 viewBox="0.00 0.00 564.92 927.00" xmlns="http://www.w3.org/2000/svg" xmlns:xlink="http://www.w3.org/1999/xlink">
<g id="graph0" class="graph" transform="scale(1 1) rotate(0) translate(4 923)">
<title>ndiag</title>
<polygon fill="#ffffff" stroke="transparent" points="-4,4 -4,-923 560.922,-923 560.922,4 -4,4"/>
<g id="clust7" class="cluster">
<title>cluster_documents</title>
<polygon fill="none" stroke="#999999" stroke-width="2" points="334.8744,-340 334.8744,-579 548.922,-579 548.922,-340 334.8744,-340"/>
<text text-anchor="middle" x="441.8982" y="-562.4" font-family="Arial" font-size="14.00" fill="#666666">documents (1)</text>
</g>
<g id="clust6" class="cluster">
<title>cluster_descriptions</title>
<polygon fill="none" stroke="#999999" stroke-width="2" points="22.1988,-8 22.1988,-247 202.7808,-247 202.7808,-8 22.1988,-8"/>
<text text-anchor="middle" x="112.4898" y="-230.4" font-family="Arial" font-size="14.00" fill="#666666">descriptions (1)</text>
</g>
<g id="clust5" class="cluster">
<title>cluster_relations</title>
<polygon fill="none" stroke="#999999" stroke-width="2" points="8,-255 8,-332 216.9796,-332 216.9796,-255 8,-255"/>
<text text-anchor="middle" x="112.4898" y="-315.4" font-family="Arial" font-size="14.00" fill="#666666">relations (1)</text>
</g>
<g id="clust4" class="cluster">
<title>cluster_networks</title>
<polygon fill="none" stroke="#999999" stroke-width="2" points="11.5063,-340 11.5063,-579 213.4733,-579 213.4733,-340 11.5063,-340"/>
<text text-anchor="middle" x="112.4898" y="-562.4" font-family="Arial" font-size="14.00" fill="#666666">networks (1)</text>
</g>
<g id="clust3" class="cluster">
<title>cluster_diagrams</title>
<polygon fill="none" stroke="#999999" stroke-width="2" points="65.879,-587 65.879,-718 160.1006,-718 160.1006,-587 65.879,-587"/>
<text text-anchor="middle" x="112.9898" y="-701.4" font-family="Arial" font-size="14.00" fill="#666666">diagrams (1)</text>
</g>
<g id="clust2" class="cluster">
<title>cluster_nodes</title>
<polygon fill="none" stroke="#999999" stroke-width="2" points="75.4898,-726 75.4898,-911 150.4898,-911 150.4898,-726 75.4898,-726"/>
<text text-anchor="middle" x="112.9898" y="-894.4" font-family="Arial" font-size="14.00" fill="#666666">nodes (1)</text>
</g>
<g id="clust1" class="cluster">
<title>cluster_ndiag</title>
<polygon fill="none" stroke="#000000" stroke-width="2" points="236.9796,-421 236.9796,-498 314.8744,-498 314.8744,-421 236.9796,-421"/>
<text text-anchor="middle" x="275.927" y="-481.4" font-family="Arial" font-size="14.00" fill="#000000">ndiag (1)</text>
</g>
<!-- ndiag:internal -->
<g id="node1" class="node">
<title>ndiag:internal</title>
<path fill="#4b75b9" stroke="#ffffff" stroke-width="2" d="M294.8219,-465C294.8219,-465 257.0321,-465 257.0321,-465 251.0321,-465 245.0321,-459 245.0321,-453 245.0321,-453 245.0321,-441 245.0321,-441 245.0321,-435 251.0321,-429 257.0321,-429 257.0321,-429 294.8219,-429 294.8219,-429 300.8219,-429 306.8219,-435 306.8219,-441 306.8219,-441 306.8219,-453 306.8219,-453 306.8219,-459 300.8219,-465 294.8219,-465"/>
<text text-anchor="middle" x="275.927" y="-442.8" font-family="Arial" font-size="14.00" fill="#ffffff">internal</text>
</g>
<!-- documents:index document -->
<g id="node16" class="node">
<title>documents:index document</title>
<path fill="#4b75b9" stroke="#ffffff" stroke-width="2" d="M487.2076,-546C487.2076,-546 396.5888,-546 396.5888,-546 390.5888,-546 384.5888,-540 384.5888,-534 384.5888,-534 384.5888,-522 384.5888,-522 384.5888,-516 390.5888,-510 396.5888,-510 396.5888,-510 487.2076,-510 487.2076,-510 493.2076,-510 499.2076,-516 499.2076,-522 499.2076,-522 499.2076,-534 499.2076,-534 499.2076,-540 493.2076,-546 487.2076,-546"/>
<text text-anchor="middle" x="441.8982" y="-523.8" font-family="Arial" font-size="14.00" fill="#ffffff">index document</text>
</g>
<!-- ndiag:internal&#45;&gt;documents:index document -->
<g id="edge15" class="edge">
<title>ndiag:internal&#45;&gt;documents:index document</title>
<path fill="none" stroke="#333333" stroke-width="2" stroke-opacity="0.600000" d="M299.922,-465.1554C299.922,-487.3519 299.922,-522 299.922,-522 299.922,-522 374.5603,-522 374.5603,-522"/>
<polygon fill="#333333" fill-opacity="0.600000" stroke="#333333" stroke-width="2" stroke-opacity="0.600000" points="374.5603,-525.5001 384.5603,-522 374.5603,-518.5001 374.5603,-525.5001"/>
</g>
<!-- documents:layer based document -->
<g id="node17" class="node">
<title>documents:layer based document</title>
<path fill="#4b75b9" stroke="#ffffff" stroke-width="2" d="M506.6067,-492C506.6067,-492 377.1897,-492 377.1897,-492 371.1897,-492 365.1897,-486 365.1897,-480 365.1897,-480 365.1897,-468 365.1897,-468 365.1897,-462 371.1897,-456 377.1897,-456 377.1897,-456 506.6067,-456 506.6067,-456 512.6067,-456 518.6067,-462 518.6067,-468 518.6067,-468 518.6067,-480 518.6067,-480 518.6067,-486 512.6067,-492 506.6067,-492"/>
<text text-anchor="middle" x="441.8982" y="-469.8" font-family="Arial" font-size="14.00" fill="#ffffff">layer based document</text>
</g>
<!-- ndiag:internal&#45;&gt;documents:layer based document -->
<g id="edge17" class="edge">
<title>ndiag:internal&#45;&gt;documents:layer based document</title>
<path fill="none" stroke="#333333" stroke-width="2" stroke-opacity="0.600000" d="M307.1449,-460.5C307.1449,-460.5 354.9688,-460.5 354.9688,-460.5"/>
<polygon fill="#333333" fill-opacity="0.600000" stroke="#333333" stroke-width="2" stroke-opacity="0.600000" points="354.9688,-464.0001 364.9688,-460.5 354.9687,-457.0001 354.9688,-464.0001"/>
</g>
<!-- documents:tag(relation) based document -->
<g id="node18" class="node">
<title>documents:tag(relation) based document</title>
<path fill="#4b75b9" stroke="#ffffff" stroke-width="2" d="M528.9458,-438C528.9458,-438 354.8506,-438 354.8506,-438 348.8506,-438 342.8506,-432 342.8506,-426 342.8506,-426 342.8506,-414 342.8506,-414 342.8506,-408 348.8506,-402 354.8506,-402 354.8506,-402 528.9458,-402 528.9458,-402 534.9458,-402 540.9458,-408 540.9458,-414 540.9458,-414 540.9458,-426 540.9458,-426 540.9458,-432 534.9458,-438 528.9458,-438"/>
<text text-anchor="middle" x="441.8982" y="-415.8" font-family="Arial" font-size="14.00" fill="#ffffff">tag(relation) based document</text>
</g>
<!-- ndiag:internal&#45;&gt;documents:tag(relation) based document -->
<g id="edge18" class="edge">
<title>ndiag:internal&#45;&gt;documents:tag(relation) based document</title>
<path fill="none" stroke="#333333" stroke-width="2" stroke-opacity="0.600000" d="M307.1449,-433.5C307.1449,-433.5 332.5802,-433.5 332.5802,-433.5"/>
<polygon fill="#333333" fill-opacity="0.600000" stroke="#333333" stroke-width="2" stroke-opacity="0.600000" points="332.5802,-437.0001 342.5802,-433.5 332.5801,-430.0001 332.5802,-437.0001"/>
</g>
<!-- documents:custom document -->
<g id="node19" class="node">
<title>documents:custom document</title>
<path fill="#4b75b9" stroke="#ffffff" stroke-width="2" d="M493.3703,-384C493.3703,-384 390.4261,-384 390.4261,-384 384.4261,-384 378.4261,-378 378.4261,-372 378.4261,-372 378.4261,-360 378.4261,-360 378.4261,-354 384.4261,-348 390.4261,-348 390.4261,-348 493.3703,-348 493.3703,-348 499.3703,-348 505.3703,-354 505.3703,-360 505.3703,-360 505.3703,-372 505.3703,-372 505.3703,-378 499.3703,-384 493.3703,-384"/>
<text text-anchor="middle" x="441.8982" y="-361.8" font-family="Arial" font-size="14.00" fill="#ffffff">custom document</text>
</g>
<!-- ndiag:internal&#45;&gt;documents:custom document -->
<g id="edge16" class="edge">
<title>ndiag:internal&#45;&gt;documents:custom document</title>
<path fill="none" stroke="#333333" stroke-width="2" stroke-opacity="0.600000" d="M298.922,-428.6198C298.922,-404.7215 298.922,-366 298.922,-366 298.922,-366 368.3541,-366 368.3541,-366"/>
<polygon fill="#333333" fill-opacity="0.600000" stroke="#333333" stroke-width="2" stroke-opacity="0.600000" points="368.3542,-369.5001 378.3541,-366 368.3541,-362.5001 368.3542,-369.5001"/>
</g>
<!-- nodes:lb&#45;* -->
<g id="node2" class="node">
<title>nodes:lb&#45;*</title>
<path fill="#4b75b9" stroke="#ffffff" stroke-width="2" d="M127.4898,-878C127.4898,-878 97.4898,-878 97.4898,-878 91.4898,-878 85.4898,-872 85.4898,-866 85.4898,-866 85.4898,-854 85.4898,-854 85.4898,-848 91.4898,-842 97.4898,-842 97.4898,-842 127.4898,-842 127.4898,-842 133.4898,-842 139.4898,-848 139.4898,-854 139.4898,-854 139.4898,-866 139.4898,-866 139.4898,-872 133.4898,-878 127.4898,-878"/>
<text text-anchor="middle" x="112.4898" y="-855.8" font-family="Arial" font-size="14.00" fill="#ffffff">lb&#45;*</text>
</g>
<!-- nodes:lb&#45;*&#45;&gt;ndiag:internal -->
<g id="edge1" class="edge">
<title>nodes:lb&#45;*&#45;&gt;ndiag:internal</title>
<path fill="none" stroke="#333333" stroke-width="2" stroke-opacity="0.600000" d="M139.7417,-860C189.9373,-860 291.922,-860 291.922,-860 291.922,-860 291.922,-475.0117 291.922,-475.0117"/>
<polygon fill="#333333" fill-opacity="0.600000" stroke="#333333" stroke-width="2" stroke-opacity="0.600000" points="295.4221,-475.0116 291.922,-465.0117 288.4221,-475.0117 295.4221,-475.0116"/>
</g>
<!-- nodes:app&#45;* -->
<g id="node3" class="node">
<title>nodes:app&#45;*</title>
<path fill="#4b75b9" stroke="#ffffff" stroke-width="2" d="M127.4898,-824C127.4898,-824 97.4898,-824 97.4898,-824 91.4898,-824 85.4898,-818 85.4898,-812 85.4898,-812 85.4898,-800 85.4898,-800 85.4898,-794 91.4898,-788 97.4898,-788 97.4898,-788 127.4898,-788 127.4898,-788 133.4898,-788 139.4898,-794 139.4898,-800 139.4898,-800 139.4898,-812 139.4898,-812 139.4898,-818 133.4898,-824 127.4898,-824"/>
<text text-anchor="middle" x="112.4898" y="-801.8" font-family="Arial" font-size="14.00" fill="#ffffff">app&#45;*</text>
</g>
<!-- nodes:app&#45;*&#45;&gt;ndiag:internal -->
<g id="edge2" class="edge">
<title>nodes:app&#45;*&#45;&gt;ndiag:internal</title>
<path fill="none" stroke="#333333" stroke-width="2" stroke-opacity="0.600000" d="M139.6537,-806C187.993,-806 283.922,-806 283.922,-806 283.922,-806 283.922,-475.2964 283.922,-475.2964"/>
<polygon fill="#333333" fill-opacity="0.600000" stroke="#333333" stroke-width="2" stroke-opacity="0.600000" points="287.4221,-475.2964 283.922,-465.2964 280.4221,-475.2965 287.4221,-475.2964"/>
</g>
<!-- nodes:db&#45;* -->
<g id="node4" class="node">
<title>nodes:db&#45;*</title>
<path fill="#4b75b9" stroke="#ffffff" stroke-width="2" d="M127.4898,-770C127.4898,-770 97.4898,-770 97.4898,-770 91.4898,-770 85.4898,-764 85.4898,-758 85.4898,-758 85.4898,-746 85.4898,-746 85.4898,-740 91.4898,-734 97.4898,-734 97.4898,-734 127.4898,-734 127.4898,-734 133.4898,-734 139.4898,-740 139.4898,-746 139.4898,-746 139.4898,-758 139.4898,-758 139.4898,-764 133.4898,-770 127.4898,-770"/>
<text text-anchor="middle" x="112.4898" y="-747.8" font-family="Arial" font-size="14.00" fill="#ffffff">db&#45;*</text>
</g>
<!-- nodes:db&#45;*&#45;&gt;ndiag:internal -->
<g id="edge3" class="edge">
<title>nodes:db&#45;*&#45;&gt;ndiag:internal</title>
<path fill="none" stroke="#333333" stroke-width="2" stroke-opacity="0.600000" d="M139.6424,-752C186.3458,-752 276.922,-752 276.922,-752 276.922,-752 276.922,-475.1657 276.922,-475.1657"/>
<polygon fill="#333333" fill-opacity="0.600000" stroke="#333333" stroke-width="2" stroke-opacity="0.600000" points="280.4221,-475.1657 276.922,-465.1657 273.4221,-475.1658 280.4221,-475.1657"/>
</g>
<!-- diagrams:overview -->
<g id="node5" class="node">
<title>diagrams:overview</title>
<path fill="#4b75b9" stroke="#ffffff" stroke-width="2" d="M136.2117,-685C136.2117,-685 88.7679,-685 88.7679,-685 82.7679,-685 76.7679,-679 76.7679,-673 76.7679,-673 76.7679,-661 76.7679,-661 76.7679,-655 82.7679,-649 88.7679,-649 88.7679,-649 136.2117,-649 136.2117,-649 142.2117,-649 148.2117,-655 148.2117,-661 148.2117,-661 148.2117,-673 148.2117,-673 148.2117,-679 142.2117,-685 136.2117,-685"/>
<text text-anchor="middle" x="112.4898" y="-662.8" font-family="Arial" font-size="14.00" fill="#ffffff">overview</text>
</g>
<!-- diagrams:overview&#45;&gt;ndiag:internal -->
<g id="edge4" class="edge">
<title>diagrams:overview&#45;&gt;ndiag:internal</title>
<path fill="none" stroke="#333333" stroke-width="2" stroke-opacity="0.600000" d="M148.3785,-667C194.5626,-667 268.922,-667 268.922,-667 268.922,-667 268.922,-475.0035 268.922,-475.0035"/>
<polygon fill="#333333" fill-opacity="0.600000" stroke="#333333" stroke-width="2" stroke-opacity="0.600000" points="272.4221,-475.0035 268.922,-465.0035 265.4221,-475.0036 272.4221,-475.0035"/>
</g>
<!-- diagrams:http&#45;lb -->
<g id="node6" class="node">
<title>diagrams:http&#45;lb</title>
<path fill="#4b75b9" stroke="#ffffff" stroke-width="2" d="M127.8861,-631C127.8861,-631 97.0935,-631 97.0935,-631 91.0935,-631 85.0935,-625 85.0935,-619 85.0935,-619 85.0935,-607 85.0935,-607 85.0935,-601 91.0935,-595 97.0935,-595 97.0935,-595 127.8861,-595 127.8861,-595 133.8861,-595 139.8861,-601 139.8861,-607 139.8861,-607 139.8861,-619 139.8861,-619 139.8861,-625 133.8861,-631 127.8861,-631"/>
<text text-anchor="middle" x="112.4898" y="-608.8" font-family="Arial" font-size="14.00" fill="#ffffff">http&#45;lb</text>
</g>
<!-- diagrams:http&#45;lb&#45;&gt;ndiag:internal -->
<g id="edge5" class="edge">
<title>diagrams:http&#45;lb&#45;&gt;ndiag:internal</title>
<path fill="none" stroke="#333333" stroke-width="2" stroke-opacity="0.600000" d="M140.0609,-613C182.9864,-613 260.922,-613 260.922,-613 260.922,-613 260.922,-475.0809 260.922,-475.0809"/>
<polygon fill="#333333" fill-opacity="0.600000" stroke="#333333" stroke-width="2" stroke-opacity="0.600000" points="264.4221,-475.0809 260.922,-465.0809 257.4221,-475.0809 264.4221,-475.0809"/>
</g>
<!-- networks:internet&#45;&gt;group:lb:vip -->
<g id="node7" class="node">
<title>networks:internet&#45;&gt;group:lb:vip</title>
<path fill="#4b75b9" stroke="#ffffff" stroke-width="2" d="M174.3545,-546C174.3545,-546 50.6251,-546 50.6251,-546 44.6251,-546 38.6251,-540 38.6251,-534 38.6251,-534 38.6251,-522 38.6251,-522 38.6251,-516 44.6251,-510 50.6251,-510 50.6251,-510 174.3545,-510 174.3545,-510 180.3545,-510 186.3545,-516 186.3545,-522 186.3545,-522 186.3545,-534 186.3545,-534 186.3545,-540 180.3545,-546 174.3545,-546"/>
<text text-anchor="middle" x="112.4898" y="-523.8" font-family="Arial" font-size="14.00" fill="#ffffff">internet&#45;&gt;group:lb:vip</text>
</g>
<!-- networks:internet&#45;&gt;group:lb:vip&#45;&gt;ndiag:internal -->
<g id="edge6" class="edge">
<title>networks:internet&#45;&gt;group:lb:vip&#45;&gt;ndiag:internal</title>
<path fill="none" stroke="#333333" stroke-width="2" stroke-opacity="0.600000" d="M186.4072,-534C220.2391,-534 252.922,-534 252.922,-534 252.922,-534 252.922,-475.0265 252.922,-475.0265"/>
<polygon fill="#333333" fill-opacity="0.600000" stroke="#333333" stroke-width="2" stroke-opacity="0.600000" points="256.4221,-475.0264 252.922,-465.0265 249.4221,-475.0265 256.4221,-475.0264"/>
</g>
<!-- networks:group:lb:vip&#45;&gt;lb&#45;*:nginx -->
<g id="node8" class="node">
<title>networks:group:lb:vip&#45;&gt;lb&#45;*:nginx</title>
<path fill="#4b75b9" stroke="#ffffff" stroke-width="2" d="M180.0157,-492C180.0157,-492 44.9639,-492 44.9639,-492 38.9639,-492 32.9639,-486 32.9639,-480 32.9639,-480 32.9639,-468 32.9639,-468 32.9639,-462 38.9639,-456 44.9639,-456 44.9639,-456 180.0157,-456 180.0157,-456 186.0157,-456 192.0157,-462 192.0157,-468 192.0157,-468 192.0157,-480 192.0157,-480 192.0157,-486 186.0157,-492 180.0157,-492"/>
<text text-anchor="middle" x="112.4898" y="-469.8" font-family="Arial" font-size="14.00" fill="#ffffff">group:lb:vip&#45;&gt;lb&#45;*:nginx</text>
</g>
<!-- networks:group:lb:vip&#45;&gt;lb&#45;*:nginx&#45;&gt;ndiag:internal -->
<g id="edge7" class="edge">
<title>networks:group:lb:vip&#45;&gt;lb&#45;*:nginx&#45;&gt;ndiag:internal</title>
<path fill="none" stroke="#333333" stroke-width="2" stroke-opacity="0.600000" d="M192.2933,-460.5C192.2933,-460.5 234.7227,-460.5 234.7227,-460.5"/>
<polygon fill="#333333" fill-opacity="0.600000" stroke="#333333" stroke-width="2" stroke-opacity="0.600000" points="234.7227,-464.0001 244.7227,-460.5 234.7226,-457.0001 234.7227,-464.0001"/>
</g>
<!-- networks:lb&#45;*:nginx&#45;&gt;app&#45;*:rails -->
<g id="node9" class="node">
<title>networks:lb&#45;*:nginx&#45;&gt;app&#45;*:rails</title>
<path fill="#4b75b9" stroke="#ffffff" stroke-width="2" d="M175.6645,-438C175.6645,-438 49.3151,-438 49.3151,-438 43.3151,-438 37.3151,-432 37.3151,-426 37.3151,-426 37.3151,-414 37.3151,-414 37.3151,-408 43.3151,-402 49.3151,-402 49.3151,-402 175.6645,-402 175.6645,-402 181.6645,-402 187.6645,-408 187.6645,-414 187.6645,-414 187.6645,-426 187.6645,-426 187.6645,-432 181.6645,-438 175.6645,-438"/>
<text text-anchor="middle" x="112.4898" y="-415.8" font-family="Arial" font-size="14.00" fill="#ffffff">lb&#45;*:nginx&#45;&gt;app&#45;*:rails</text>
</g>
<!-- networks:lb&#45;*:nginx&#45;&gt;app&#45;*:rails&#45;&gt;ndiag:internal -->
<g id="edge8" class="edge">
<title>networks:lb&#45;*:nginx&#45;&gt;app&#45;*:rails&#45;&gt;ndiag:internal</title>
<path fill="none" stroke="#333333" stroke-width="2" stroke-opacity="0.600000" d="M187.9891,-435C187.9891,-435 234.8371,-435 234.8371,-435"/>
<polygon fill="#333333" fill-opacity="0.600000" stroke="#333333" stroke-width="2" stroke-opacity="0.600000" points="234.8372,-438.5001 244.8371,-435 234.8371,-431.5001 234.8372,-438.5001"/>
</g>
<!-- networks:app&#45;*:rails&#45;&gt;db&#45;*:postgresql -->
<g id="node10" class="node">
<title>networks:app&#45;*:rails&#45;&gt;db&#45;*:postgresql</title>
<path fill="#4b75b9" stroke="#ffffff" stroke-width="2" d="M193.4568,-384C193.4568,-384 31.5228,-384 31.5228,-384 25.5228,-384 19.5228,-378 19.5228,-372 19.5228,-372 19.5228,-360 19.5228,-360 19.5228,-354 25.5228,-348 31.5228,-348 31.5228,-348 193.4568,-348 193.4568,-348 199.4568,-348 205.4568,-354 205.4568,-360 205.4568,-360 205.4568,-372 205.4568,-372 205.4568,-378 199.4568,-384 193.4568,-384"/>
<text text-anchor="middle" x="112.4898" y="-361.8" font-family="Arial" font-size="14.00" fill="#ffffff">app&#45;*:rails&#45;&gt;db&#45;*:postgresql</text>
</g>
<!-- networks:app&#45;*:rails&#45;&gt;db&#45;*:postgresql&#45;&gt;ndiag:internal -->
<g id="edge9" class="edge">
<title>networks:app&#45;*:rails&#45;&gt;db&#45;*:postgresql&#45;&gt;ndiag:internal</title>
<path fill="none" stroke="#333333" stroke-width="2" stroke-opacity="0.600000" d="M198.922,-384.0348C198.922,-403.5762 198.922,-432 198.922,-432 198.922,-432 234.6061,-432 234.6061,-432"/>
<polygon fill="#333333" fill-opacity="0.600000" stroke="#333333" stroke-width="2" stroke-opacity="0.600000" points="234.6062,-435.5001 244.6061,-432 234.6061,-428.5001 234.6062,-435.5001"/>
</g>
<!-- relations:lb&#45;*:keepalived&#45;&gt;group:lb:vip -->
<g id="node11" class="node">
<title>relations:lb&#45;*:keepalived&#45;&gt;group:lb:vip</title>
<path fill="#4b75b9" stroke="#ffffff" stroke-width="2" d="M196.9694,-299C196.9694,-299 28.0102,-299 28.0102,-299 22.0102,-299 16.0102,-293 16.0102,-287 16.0102,-287 16.0102,-275 16.0102,-275 16.0102,-269 22.0102,-263 28.0102,-263 28.0102,-263 196.9694,-263 196.9694,-263 202.9694,-263 208.9694,-269 208.9694,-275 208.9694,-275 208.9694,-287 208.9694,-287 208.9694,-293 202.9694,-299 196.9694,-299"/>
<text text-anchor="middle" x="112.4898" y="-276.8" font-family="Arial" font-size="14.00" fill="#ffffff">lb&#45;*:keepalived&#45;&gt;group:lb:vip</text>
</g>
<!-- relations:lb&#45;*:keepalived&#45;&gt;group:lb:vip&#45;&gt;ndiag:internal -->
<g id="edge10" class="edge">
<title>relations:lb&#45;*:keepalived&#45;&gt;group:lb:vip&#45;&gt;ndiag:internal</title>
<path fill="none" stroke="#333333" stroke-width="2" stroke-opacity="0.600000" d="M209.172,-281C234.0331,-281 253.922,-281 253.922,-281 253.922,-281 253.922,-418.9191 253.922,-418.9191"/>
<polygon fill="#333333" fill-opacity="0.600000" stroke="#333333" stroke-width="2" stroke-opacity="0.600000" points="250.4221,-418.9191 253.922,-428.9191 257.4221,-418.9191 250.4221,-418.9191"/>
</g>
<!-- descriptions:component descriptions -->
<g id="node12" class="node">
<title>descriptions:component descriptions</title>
<path fill="#4b75b9" stroke="#ffffff" stroke-width="2" d="M182.3047,-214C182.3047,-214 42.6749,-214 42.6749,-214 36.6749,-214 30.6749,-208 30.6749,-202 30.6749,-202 30.6749,-190 30.6749,-190 30.6749,-184 36.6749,-178 42.6749,-178 42.6749,-178 182.3047,-178 182.3047,-178 188.3047,-178 194.3047,-184 194.3047,-190 194.3047,-190 194.3047,-202 194.3047,-202 194.3047,-208 188.3047,-214 182.3047,-214"/>
<text text-anchor="middle" x="112.4898" y="-191.8" font-family="Arial" font-size="14.00" fill="#ffffff">component descriptions</text>
</g>
<!-- descriptions:component descriptions&#45;&gt;ndiag:internal -->
<g id="edge11" class="edge">
<title>descriptions:component descriptions&#45;&gt;ndiag:internal</title>
<path fill="none" stroke="#333333" stroke-width="2" stroke-opacity="0.600000" d="M194.3091,-196C229.592,-196 262.922,-196 262.922,-196 262.922,-196 262.922,-418.9487 262.922,-418.9487"/>
<polygon fill="#333333" fill-opacity="0.600000" stroke="#333333" stroke-width="2" stroke-opacity="0.600000" points="259.4221,-418.9487 262.922,-428.9487 266.4221,-418.9487 259.4221,-418.9487"/>
</g>
<!-- descriptions:diagram descriptions -->
<g id="node13" class="node">
<title>descriptions:diagram descriptions</title>
<path fill="#4b75b9" stroke="#ffffff" stroke-width="2" d="M173.1161,-160C173.1161,-160 51.8635,-160 51.8635,-160 45.8635,-160 39.8635,-154 39.8635,-148 39.8635,-148 39.8635,-136 39.8635,-136 39.8635,-130 45.8635,-124 51.8635,-124 51.8635,-124 173.1161,-124 173.1161,-124 179.1161,-124 185.1161,-130 185.1161,-136 185.1161,-136 185.1161,-148 185.1161,-148 185.1161,-154 179.1161,-160 173.1161,-160"/>
<text text-anchor="middle" x="112.4898" y="-137.8" font-family="Arial" font-size="14.00" fill="#ffffff">diagram descriptions</text>
</g>
<!-- descriptions:diagram descriptions&#45;&gt;ndiag:internal -->
<g id="edge12" class="edge">
<title>descriptions:diagram descriptions&#45;&gt;ndiag:internal</title>
<path fill="none" stroke="#333333" stroke-width="2" stroke-opacity="0.600000" d="M185.2076,-142C227.2562,-142 271.922,-142 271.922,-142 271.922,-142 271.922,-418.8343 271.922,-418.8343"/>
<polygon fill="#333333" fill-opacity="0.600000" stroke="#333333" stroke-width="2" stroke-opacity="0.600000" points="268.4221,-418.8342 271.922,-428.8343 275.4221,-418.8343 268.4221,-418.8342"/>
</g>
<!-- descriptions:layer group descriptions -->
<g id="node14" class="node">
<title>descriptions:layer group descriptions</title>
<path fill="#4b75b9" stroke="#ffffff" stroke-width="2" d="M182.5723,-106C182.5723,-106 42.4073,-106 42.4073,-106 36.4073,-106 30.4073,-100 30.4073,-94 30.4073,-94 30.4073,-82 30.4073,-82 30.4073,-76 36.4073,-70 42.4073,-70 42.4073,-70 182.5723,-70 182.5723,-70 188.5723,-70 194.5723,-76 194.5723,-82 194.5723,-82 194.5723,-94 194.5723,-94 194.5723,-100 188.5723,-106 182.5723,-106"/>
<text text-anchor="middle" x="112.4898" y="-83.8" font-family="Arial" font-size="14.00" fill="#ffffff">layer group descriptions</text>
</g>
<!-- descriptions:layer group descriptions&#45;&gt;ndiag:internal -->
<g id="edge13" class="edge">
<title>descriptions:layer group descriptions&#45;&gt;ndiag:internal</title>
<path fill="none" stroke="#333333" stroke-width="2" stroke-opacity="0.600000" d="M194.7322,-88C237.4878,-88 280.922,-88 280.922,-88 280.922,-88 280.922,-418.7036 280.922,-418.7036"/>
<polygon fill="#333333" fill-opacity="0.600000" stroke="#333333" stroke-width="2" stroke-opacity="0.600000" points="277.4221,-418.7035 280.922,-428.7036 284.4221,-418.7036 277.4221,-418.7035"/>
</g>
<!-- descriptions:tag group descriptions -->
<g id="node15" class="node">
<title>descriptions:tag group descriptions</title>
<path fill="#4b75b9" stroke="#ffffff" stroke-width="2" d="M177.1955,-52C177.1955,-52 47.7841,-52 47.7841,-52 41.7841,-52 35.7841,-46 35.7841,-40 35.7841,-40 35.7841,-28 35.7841,-28 35.7841,-22 41.7841,-16 47.7841,-16 47.7841,-16 177.1955,-16 177.1955,-16 183.1955,-16 189.1955,-22 189.1955,-28 189.1955,-28 189.1955,-40 189.1955,-40 189.1955,-46 183.1955,-52 177.1955,-52"/>
<text text-anchor="middle" x="112.4898" y="-29.8" font-family="Arial" font-size="14.00" fill="#ffffff">tag group descriptions</text>
</g>
<!-- descriptions:tag group descriptions&#45;&gt;ndiag:internal -->
<g id="edge14" class="edge">
<title>descriptions:tag group descriptions&#45;&gt;ndiag:internal</title>
<path fill="none" stroke="#333333" stroke-width="2" stroke-opacity="0.600000" d="M189.2822,-34C237.2353,-34 289.922,-34 289.922,-34 289.922,-34 289.922,-418.9883 289.922,-418.9883"/>
<polygon fill="#333333" fill-opacity="0.600000" stroke="#333333" stroke-width="2" stroke-opacity="0.600000" points="286.4221,-418.9883 289.922,-428.9883 293.4221,-418.9884 286.4221,-418.9883"/>
</g>
</g>
</svg>
