<?xml version="1.0" encoding="UTF-8" standalone="no"?>
<!DOCTYPE svg PUBLIC "-//W3C//DTD SVG 1.1//EN"
 "http://www.w3.org/Graphics/SVG/1.1/DTD/svg11.dtd">
<!-- Generated by graphviz version 2.40.1 (20161225.0304)
 -->
<!-- Title: ndiag Pages: 1 -->
<svg width="213pt" height="155pt"
 viewBox="0.00 0.00 213.12 155.00" xmlns="http://www.w3.org/2000/svg" xmlns:xlink="http://www.w3.org/1999/xlink">
<g id="graph0" class="graph" transform="scale(1 1) rotate(0) translate(4 151)">
<title>ndiag</title>
<polygon fill="#ffffff" stroke="transparent" points="-4,4 -4,-151 209.1164,-151 209.1164,4 -4,4"/>
<g id="clust2" class="cluster">
<title>cluster_ndiag</title>
<polygon fill="none" stroke="#999999" stroke-width="2" points="119.2216,-35 119.2216,-112 197.1164,-112 197.1164,-35 119.2216,-35"/>
<text text-anchor="middle" x="158.169" y="-95.4" font-family="Arial" font-size="14.00" fill="#666666">ndiag (1)</text>
</g>
<g id="clust1" class="cluster">
<title>cluster_diagrams</title>
<polygon fill="none" stroke="#000000" stroke-width="2" points="5,-8 5,-139 99.2216,-139 99.2216,-8 5,-8"/>
<text text-anchor="middle" x="52.1108" y="-122.4" font-family="Arial" font-size="14.00" fill="#000000">diagrams (1)</text>
</g>
<!-- diagrams:overview -->
<g id="node1" class="node">
<title>diagrams:overview</title>
<path fill="#4b75b9" stroke="#ffffff" stroke-width="2" d="M75.3327,-106C75.3327,-106 27.8889,-106 27.8889,-106 21.8889,-106 15.8889,-100 15.8889,-94 15.8889,-94 15.8889,-82 15.8889,-82 15.8889,-76 21.8889,-70 27.8889,-70 27.8889,-70 75.3327,-70 75.3327,-70 81.3327,-70 87.3327,-76 87.3327,-82 87.3327,-82 87.3327,-94 87.3327,-94 87.3327,-100 81.3327,-106 75.3327,-106"/>
<text text-anchor="middle" x="51.6108" y="-83.8" font-family="Arial" font-size="14.00" fill="#ffffff">overview</text>
</g>
<!-- ndiag:internal -->
<g id="node3" class="node">
<title>ndiag:internal</title>
<path fill="#4b75b9" stroke="#ffffff" stroke-width="2" d="M177.0639,-79C177.0639,-79 139.2741,-79 139.2741,-79 133.2741,-79 127.2741,-73 127.2741,-67 127.2741,-67 127.2741,-55 127.2741,-55 127.2741,-49 133.2741,-43 139.2741,-43 139.2741,-43 177.0639,-43 177.0639,-43 183.0639,-43 189.0639,-49 189.0639,-55 189.0639,-55 189.0639,-67 189.0639,-67 189.0639,-73 183.0639,-79 177.0639,-79"/>
<text text-anchor="middle" x="158.169" y="-56.8" font-family="Arial" font-size="14.00" fill="#ffffff">internal</text>
</g>
<!-- diagrams:overview&#45;&gt;ndiag:internal -->
<g id="edge1" class="edge">
<title>diagrams:overview&#45;&gt;ndiag:internal</title>
<path fill="none" stroke="#333333" stroke-width="2" stroke-opacity="0.600000" d="M87.3896,-74.5C87.3896,-74.5 116.9472,-74.5 116.9472,-74.5"/>
<polygon fill="#333333" fill-opacity="0.600000" stroke="#333333" stroke-width="2" stroke-opacity="0.600000" points="116.9472,-78.0001 126.9472,-74.5 116.9471,-71.0001 116.9472,-78.0001"/>
</g>
<!-- diagrams:http&#45;lb -->
<g id="node2" class="node">
<title>diagrams:http&#45;lb</title>
<path fill="#4b75b9" stroke="#ffffff" stroke-width="2" d="M67.0071,-52C67.0071,-52 36.2145,-52 36.2145,-52 30.2145,-52 24.2145,-46 24.2145,-40 24.2145,-40 24.2145,-28 24.2145,-28 24.2145,-22 30.2145,-16 36.2145,-16 36.2145,-16 67.0071,-16 67.0071,-16 73.0071,-16 79.0071,-22 79.0071,-28 79.0071,-28 79.0071,-40 79.0071,-40 79.0071,-46 73.0071,-52 67.0071,-52"/>
<text text-anchor="middle" x="51.6108" y="-29.8" font-family="Arial" font-size="14.00" fill="#ffffff">http&#45;lb</text>
</g>
<!-- diagrams:http&#45;lb&#45;&gt;ndiag:internal -->
<g id="edge2" class="edge">
<title>diagrams:http&#45;lb&#45;&gt;ndiag:internal</title>
<path fill="none" stroke="#333333" stroke-width="2" stroke-opacity="0.600000" d="M79.0522,-47.5C79.0522,-47.5 117.0548,-47.5 117.0548,-47.5"/>
<polygon fill="#333333" fill-opacity="0.600000" stroke="#333333" stroke-width="2" stroke-opacity="0.600000" points="117.0548,-51.0001 127.0548,-47.5 117.0547,-44.0001 117.0548,-51.0001"/>
</g>
</g>
</svg>
