<?xml version="1.0" encoding="UTF-8" standalone="no"?>
<!DOCTYPE svg PUBLIC "-//W3C//DTD SVG 1.1//EN"
 "http://www.w3.org/Graphics/SVG/1.1/DTD/svg11.dtd">
<!-- Generated by graphviz version 2.40.1 (20161225.0304)
 -->
<!-- Title: ndiag Pages: 1 -->
<svg width="335pt" height="361pt"
 viewBox="0.00 0.00 335.05 361.00" xmlns="http://www.w3.org/2000/svg" xmlns:xlink="http://www.w3.org/1999/xlink">
<g id="graph0" class="graph" transform="scale(1 1) rotate(0) translate(4 357)">
<title>ndiag</title>
<polygon fill="#ffffff" stroke="transparent" points="-4,4 -4,-357 331.0476,-357 331.0476,4 -4,4"/>
<g id="clust2" class="cluster">
<title>cluster_ndiag</title>
<polygon fill="none" stroke="#999999" stroke-width="2" points="8,-72 8,-182 85,-182 85,-72 8,-72"/>
<text text-anchor="middle" x="46.5" y="-165.4" font-family="Arial" font-size="14.00" fill="#666666">ndiag</text>
</g>
<g id="clust1" class="cluster">
<title>cluster_documents</title>
<polygon fill="none" stroke="#000000" stroke-width="2" points="105,-8 105,-345 319.0476,-345 319.0476,-8 105,-8"/>
<image xlink:href="/var/folders/fp/hk95_wsj7s18mmc9drvrxdp1tt294n/T/ndiag.022327/doc.svg" width="60px" height="45px" preserveAspectRatio="xMinYMin meet" x="182.024" y="-340.5"/>
<text text-anchor="start" x="177.7917" y="-282.9" font-family="Arial" font-size="14.00" fill="#000000">documents</text>
</g>
<!-- documents:index document -->
<g id="node1" class="node">
<title>documents:index document</title>
<path fill="#ffffff" stroke="#4b75b9" stroke-width="3" d="M257.3332,-268C257.3332,-268 166.7144,-268 166.7144,-268 160.7144,-268 154.7144,-262 154.7144,-256 154.7144,-256 154.7144,-244 154.7144,-244 154.7144,-238 160.7144,-232 166.7144,-232 166.7144,-232 257.3332,-232 257.3332,-232 263.3332,-232 269.3332,-238 269.3332,-244 269.3332,-244 269.3332,-256 269.3332,-256 269.3332,-262 263.3332,-268 257.3332,-268"/>
<text text-anchor="middle" x="212.0238" y="-245.8" font-family="Arial" font-size="14.00" fill="#333333">index document</text>
</g>
<!-- documents:layer group based document -->
<g id="node2" class="node">
<title>documents:layer group based document</title>
<path fill="#ffffff" stroke="#4b75b9" stroke-width="3" d="M296.914,-214C296.914,-214 127.1336,-214 127.1336,-214 121.1336,-214 115.1336,-208 115.1336,-202 115.1336,-202 115.1336,-190 115.1336,-190 115.1336,-184 121.1336,-178 127.1336,-178 127.1336,-178 296.914,-178 296.914,-178 302.914,-178 308.914,-184 308.914,-190 308.914,-190 308.914,-202 308.914,-202 308.914,-208 302.914,-214 296.914,-214"/>
<text text-anchor="middle" x="212.0238" y="-191.8" font-family="Arial" font-size="14.00" fill="#333333">layer group based document</text>
</g>
<!-- documents:layer based document -->
<g id="node3" class="node">
<title>documents:layer based document</title>
<path fill="#ffffff" stroke="#4b75b9" stroke-width="3" d="M276.7323,-160C276.7323,-160 147.3153,-160 147.3153,-160 141.3153,-160 135.3153,-154 135.3153,-148 135.3153,-148 135.3153,-136 135.3153,-136 135.3153,-130 141.3153,-124 147.3153,-124 147.3153,-124 276.7323,-124 276.7323,-124 282.7323,-124 288.7323,-130 288.7323,-136 288.7323,-136 288.7323,-148 288.7323,-148 288.7323,-154 282.7323,-160 276.7323,-160"/>
<text text-anchor="middle" x="212.0238" y="-137.8" font-family="Arial" font-size="14.00" fill="#333333">layer based document</text>
</g>
<!-- documents:tag(relation) based document -->
<g id="node4" class="node">
<title>documents:tag(relation) based document</title>
<path fill="#ffffff" stroke="#4b75b9" stroke-width="3" d="M299.0714,-106C299.0714,-106 124.9762,-106 124.9762,-106 118.9762,-106 112.9762,-100 112.9762,-94 112.9762,-94 112.9762,-82 112.9762,-82 112.9762,-76 118.9762,-70 124.9762,-70 124.9762,-70 299.0714,-70 299.0714,-70 305.0714,-70 311.0714,-76 311.0714,-82 311.0714,-82 311.0714,-94 311.0714,-94 311.0714,-100 305.0714,-106 299.0714,-106"/>
<text text-anchor="middle" x="212.0238" y="-83.8" font-family="Arial" font-size="14.00" fill="#333333">tag(relation) based document</text>
</g>
<!-- documents:custom document -->
<g id="node5" class="node">
<title>documents:custom document</title>
<path fill="#ffffff" stroke="#4b75b9" stroke-width="3" d="M263.4959,-52C263.4959,-52 160.5517,-52 160.5517,-52 154.5517,-52 148.5517,-46 148.5517,-40 148.5517,-40 148.5517,-28 148.5517,-28 148.5517,-22 154.5517,-16 160.5517,-16 160.5517,-16 263.4959,-16 263.4959,-16 269.4959,-16 275.4959,-22 275.4959,-28 275.4959,-28 275.4959,-40 275.4959,-40 275.4959,-46 269.4959,-52 263.4959,-52"/>
<text text-anchor="middle" x="212.0238" y="-29.8" font-family="Arial" font-size="14.00" fill="#333333">custom document</text>
</g>
<!-- ndiag:internal -->
<g id="node6" class="node">
<title>ndiag:internal</title>
<path fill="#ffffff" stroke="#4b75b9" stroke-width="3" stroke-opacity="0.400000" d="M65,-149.5C65,-149.5 28,-149.5 28,-149.5 22,-149.5 16,-143.5 16,-137.5 16,-137.5 16,-92.5 16,-92.5 16,-86.5 22,-80.5 28,-80.5 28,-80.5 65,-80.5 65,-80.5 71,-80.5 77,-86.5 77,-92.5 77,-92.5 77,-137.5 77,-137.5 77,-143.5 71,-149.5 65,-149.5"/>
<image xlink:href="/var/folders/fp/hk95_wsj7s18mmc9drvrxdp1tt294n/T/ndiag.022327/hex2.svg" width="45px" height="45px" preserveAspectRatio="xMinYMin meet" x="24.5" y="-145"/>
<text text-anchor="start" x="24.0526" y="-87.4" font-family="Arial" font-size="14.00" fill="#333333">internal</text>
</g>
<!-- ndiag:internal&#45;&gt;documents:index document -->
<g id="edge1" class="edge">
<title>ndiag:internal&#45;&gt;documents:index document</title>
<path fill="none" stroke="#333333" stroke-width="2" stroke-opacity="0.600000" d="M47.0476,-149.7659C47.0476,-189.7654 47.0476,-250 47.0476,-250 47.0476,-250 144.3231,-250 144.3231,-250"/>
<polygon fill="#333333" fill-opacity="0.600000" stroke="#333333" stroke-width="2" stroke-opacity="0.600000" points="144.3232,-253.5001 154.3231,-250 144.3231,-246.5001 144.3232,-253.5001"/>
</g>
<!-- ndiag:internal&#45;&gt;documents:layer based document -->
<g id="edge3" class="edge">
<title>ndiag:internal&#45;&gt;documents:layer based document</title>
<path fill="none" stroke="#333333" stroke-width="2" stroke-opacity="0.600000" d="M77.2458,-136.75C77.2458,-136.75 124.9833,-136.75 124.9833,-136.75"/>
<polygon fill="#333333" fill-opacity="0.600000" stroke="#333333" stroke-width="2" stroke-opacity="0.600000" points="124.9833,-140.2501 134.9833,-136.75 124.9832,-133.2501 124.9833,-140.2501"/>
</g>
<!-- ndiag:internal&#45;&gt;documents:tag(relation) based document -->
<g id="edge4" class="edge">
<title>ndiag:internal&#45;&gt;documents:tag(relation) based document</title>
<path fill="none" stroke="#333333" stroke-width="2" stroke-opacity="0.600000" d="M77.2458,-93.25C77.2458,-93.25 102.9456,-93.25 102.9456,-93.25"/>
<polygon fill="#333333" fill-opacity="0.600000" stroke="#333333" stroke-width="2" stroke-opacity="0.600000" points="102.9456,-96.7501 112.9456,-93.25 102.9455,-89.7501 102.9456,-96.7501"/>
</g>
<!-- ndiag:internal&#45;&gt;documents:custom document -->
<g id="edge2" class="edge">
<title>ndiag:internal&#45;&gt;documents:custom document</title>
<path fill="none" stroke="#333333" stroke-width="2" stroke-opacity="0.600000" d="M47.0476,-80.1786C47.0476,-58.2249 47.0476,-34 47.0476,-34 47.0476,-34 138.7115,-34 138.7115,-34"/>
<polygon fill="#333333" fill-opacity="0.600000" stroke="#333333" stroke-width="2" stroke-opacity="0.600000" points="138.7115,-37.5001 148.7115,-34 138.7115,-30.5001 138.7115,-37.5001"/>
</g>
</g>
</svg>
