<?xml version="1.0" encoding="UTF-8" standalone="no"?>
<!DOCTYPE svg PUBLIC "-//W3C//DTD SVG 1.1//EN"
 "http://www.w3.org/Graphics/SVG/1.1/DTD/svg11.dtd">
<!-- Generated by graphviz version 2.40.1 (20161225.0304)
 -->
<!-- Title: ndiag Pages: 1 -->
<svg width="336pt" height="317pt"
 viewBox="0.00 0.00 335.94 317.00" xmlns="http://www.w3.org/2000/svg" xmlns:xlink="http://www.w3.org/1999/xlink">
<g id="graph0" class="graph" transform="scale(1 1) rotate(0) translate(4 313)">
<title>ndiag</title>
<polygon fill="#ffffff" stroke="transparent" points="-4,4 -4,-313 331.9424,-313 331.9424,4 -4,4"/>
<g id="clust2" class="cluster">
<title>cluster_ndiag</title>
<polygon fill="none" stroke="#999999" stroke-width="2" points="8,-89 8,-166 85.8948,-166 85.8948,-89 8,-89"/>
<text text-anchor="middle" x="46.9474" y="-149.4" font-family="Arial" font-size="14.00" fill="#666666">ndiag (1)</text>
</g>
<g id="clust1" class="cluster">
<title>cluster_documents</title>
<polygon fill="none" stroke="#000000" stroke-width="2" points="105.8948,-8 105.8948,-301 319.9424,-301 319.9424,-8 105.8948,-8"/>
<text text-anchor="middle" x="212.9186" y="-284.4" font-family="Arial" font-size="14.00" fill="#000000">documents (1)</text>
</g>
<!-- documents:index document -->
<g id="node1" class="node">
<title>documents:index document</title>
<path fill="#4b75b9" stroke="#ffffff" stroke-width="2" d="M258.228,-268C258.228,-268 167.6092,-268 167.6092,-268 161.6092,-268 155.6092,-262 155.6092,-256 155.6092,-256 155.6092,-244 155.6092,-244 155.6092,-238 161.6092,-232 167.6092,-232 167.6092,-232 258.228,-232 258.228,-232 264.228,-232 270.228,-238 270.228,-244 270.228,-244 270.228,-256 270.228,-256 270.228,-262 264.228,-268 258.228,-268"/>
<text text-anchor="middle" x="212.9186" y="-245.8" font-family="Arial" font-size="14.00" fill="#ffffff">index document</text>
</g>
<!-- documents:layer group based document -->
<g id="node2" class="node">
<title>documents:layer group based document</title>
<path fill="#4b75b9" stroke="#ffffff" stroke-width="2" d="M297.8088,-214C297.8088,-214 128.0284,-214 128.0284,-214 122.0284,-214 116.0284,-208 116.0284,-202 116.0284,-202 116.0284,-190 116.0284,-190 116.0284,-184 122.0284,-178 128.0284,-178 128.0284,-178 297.8088,-178 297.8088,-178 303.8088,-178 309.8088,-184 309.8088,-190 309.8088,-190 309.8088,-202 309.8088,-202 309.8088,-208 303.8088,-214 297.8088,-214"/>
<text text-anchor="middle" x="212.9186" y="-191.8" font-family="Arial" font-size="14.00" fill="#ffffff">layer group based document</text>
</g>
<!-- documents:layer based document -->
<g id="node3" class="node">
<title>documents:layer based document</title>
<path fill="#4b75b9" stroke="#ffffff" stroke-width="2" d="M277.6271,-160C277.6271,-160 148.2101,-160 148.2101,-160 142.2101,-160 136.2101,-154 136.2101,-148 136.2101,-148 136.2101,-136 136.2101,-136 136.2101,-130 142.2101,-124 148.2101,-124 148.2101,-124 277.6271,-124 277.6271,-124 283.6271,-124 289.6271,-130 289.6271,-136 289.6271,-136 289.6271,-148 289.6271,-148 289.6271,-154 283.6271,-160 277.6271,-160"/>
<text text-anchor="middle" x="212.9186" y="-137.8" font-family="Arial" font-size="14.00" fill="#ffffff">layer based document</text>
</g>
<!-- documents:tag(relation) based document -->
<g id="node4" class="node">
<title>documents:tag(relation) based document</title>
<path fill="#4b75b9" stroke="#ffffff" stroke-width="2" d="M299.9662,-106C299.9662,-106 125.871,-106 125.871,-106 119.871,-106 113.871,-100 113.871,-94 113.871,-94 113.871,-82 113.871,-82 113.871,-76 119.871,-70 125.871,-70 125.871,-70 299.9662,-70 299.9662,-70 305.9662,-70 311.9662,-76 311.9662,-82 311.9662,-82 311.9662,-94 311.9662,-94 311.9662,-100 305.9662,-106 299.9662,-106"/>
<text text-anchor="middle" x="212.9186" y="-83.8" font-family="Arial" font-size="14.00" fill="#ffffff">tag(relation) based document</text>
</g>
<!-- documents:custom document -->
<g id="node5" class="node">
<title>documents:custom document</title>
<path fill="#4b75b9" stroke="#ffffff" stroke-width="2" d="M264.3907,-52C264.3907,-52 161.4465,-52 161.4465,-52 155.4465,-52 149.4465,-46 149.4465,-40 149.4465,-40 149.4465,-28 149.4465,-28 149.4465,-22 155.4465,-16 161.4465,-16 161.4465,-16 264.3907,-16 264.3907,-16 270.3907,-16 276.3907,-22 276.3907,-28 276.3907,-28 276.3907,-40 276.3907,-40 276.3907,-46 270.3907,-52 264.3907,-52"/>
<text text-anchor="middle" x="212.9186" y="-29.8" font-family="Arial" font-size="14.00" fill="#ffffff">custom document</text>
</g>
<!-- ndiag:internal -->
<g id="node6" class="node">
<title>ndiag:internal</title>
<path fill="#4b75b9" stroke="#ffffff" stroke-width="2" d="M65.8423,-133C65.8423,-133 28.0525,-133 28.0525,-133 22.0525,-133 16.0525,-127 16.0525,-121 16.0525,-121 16.0525,-109 16.0525,-109 16.0525,-103 22.0525,-97 28.0525,-97 28.0525,-97 65.8423,-97 65.8423,-97 71.8423,-97 77.8423,-103 77.8423,-109 77.8423,-109 77.8423,-121 77.8423,-121 77.8423,-127 71.8423,-133 65.8423,-133"/>
<text text-anchor="middle" x="46.9474" y="-110.8" font-family="Arial" font-size="14.00" fill="#ffffff">internal</text>
</g>
<!-- ndiag:internal&#45;&gt;documents:index document -->
<g id="edge1" class="edge">
<title>ndiag:internal&#45;&gt;documents:index document</title>
<path fill="none" stroke="#333333" stroke-width="2" stroke-opacity="0.600000" d="M47.9424,-133.2067C47.9424,-170.0559 47.9424,-250 47.9424,-250 47.9424,-250 145.2179,-250 145.2179,-250"/>
<polygon fill="#333333" fill-opacity="0.600000" stroke="#333333" stroke-width="2" stroke-opacity="0.600000" points="145.218,-253.5001 155.2179,-250 145.2179,-246.5001 145.218,-253.5001"/>
</g>
<!-- ndiag:internal&#45;&gt;documents:layer based document -->
<g id="edge3" class="edge">
<title>ndiag:internal&#45;&gt;documents:layer based document</title>
<path fill="none" stroke="#333333" stroke-width="2" stroke-opacity="0.600000" d="M78.1653,-128.5C78.1653,-128.5 125.9892,-128.5 125.9892,-128.5"/>
<polygon fill="#333333" fill-opacity="0.600000" stroke="#333333" stroke-width="2" stroke-opacity="0.600000" points="125.9892,-132.0001 135.9892,-128.5 125.9891,-125.0001 125.9892,-132.0001"/>
</g>
<!-- ndiag:internal&#45;&gt;documents:tag(relation) based document -->
<g id="edge4" class="edge">
<title>ndiag:internal&#45;&gt;documents:tag(relation) based document</title>
<path fill="none" stroke="#333333" stroke-width="2" stroke-opacity="0.600000" d="M78.1653,-101.5C78.1653,-101.5 103.6006,-101.5 103.6006,-101.5"/>
<polygon fill="#333333" fill-opacity="0.600000" stroke="#333333" stroke-width="2" stroke-opacity="0.600000" points="103.6006,-105.0001 113.6006,-101.5 103.6005,-98.0001 103.6006,-105.0001"/>
</g>
<!-- ndiag:internal&#45;&gt;documents:custom document -->
<g id="edge2" class="edge">
<title>ndiag:internal&#45;&gt;documents:custom document</title>
<path fill="none" stroke="#333333" stroke-width="2" stroke-opacity="0.600000" d="M47.9424,-96.6198C47.9424,-72.7215 47.9424,-34 47.9424,-34 47.9424,-34 139.6063,-34 139.6063,-34"/>
<polygon fill="#333333" fill-opacity="0.600000" stroke="#333333" stroke-width="2" stroke-opacity="0.600000" points="139.6063,-37.5001 149.6063,-34 139.6063,-30.5001 139.6063,-37.5001"/>
</g>
</g>
</svg>
