<?xml version="1.0" encoding="UTF-8" standalone="no"?>
<!DOCTYPE svg PUBLIC "-//W3C//DTD SVG 1.1//EN"
 "http://www.w3.org/Graphics/SVG/1.1/DTD/svg11.dtd">
<!-- Generated by graphviz version 12.1.2 (20240928.0832)
 -->
<!-- Title: ndiag Pages: 1 -->
<svg width="299pt" height="263pt" viewBox="0.00 0.00 298.67 263.00" xmlns="http://www.w3.org/2000/svg" xmlns:xlink="http://www.w3.org/1999/xlink">
<g id="graph0" class="graph" transform="scale(1 1) rotate(0) translate(4 259)">
<title>ndiag</title>
<polygon fill="white" stroke="none" points="-4,4 -4,-259 294.67,-259 294.67,4 -4,4"></polygon>
<g id="clust1" class="cluster">
<title>cluster_documents</title>
<polygon fill="none" stroke="black" stroke-width="2" points="105.92,-8 105.92,-247 282.67,-247 282.67,-8 105.92,-8"></polygon>
<text text-anchor="middle" x="194.29" y="-230.4" font-family="Arial" font-size="14.00">documents</text>
</g>
<g id="clust2" class="cluster">
<title>cluster_ndiag</title>
<polygon fill="none" stroke="#999999" stroke-width="2" points="8,-89 8,-166 85.92,-166 85.92,-89 8,-89"></polygon>
<text text-anchor="middle" x="46.96" y="-149.4" font-family="Arial" font-size="14.00" fill="#666666">ndiag</text>
</g>
<!-- documents:index document -->
<g id="node1" class="node">
<title>documents:index document</title>
<path fill="#ffffff" stroke="#4b75b9" stroke-width="3" d="M239.71,-52C239.71,-52 148.87,-52 148.87,-52 142.87,-52 136.87,-46 136.87,-40 136.87,-40 136.87,-28 136.87,-28 136.87,-22 142.87,-16 148.87,-16 148.87,-16 239.71,-16 239.71,-16 245.71,-16 251.71,-22 251.71,-28 251.71,-28 251.71,-40 251.71,-40 251.71,-46 245.71,-52 239.71,-52"></path>
<text text-anchor="middle" x="194.29" y="-29.8" font-family="Arial" font-size="14.00" fill="#333333">index document</text>
</g>
<!-- documents:custom documents -->
<g id="node2" class="node">
<title>documents:custom documents</title>
<path fill="#ffffff" stroke="#4b75b9" stroke-width="3" d="M249.04,-106C249.04,-106 139.54,-106 139.54,-106 133.54,-106 127.54,-100 127.54,-94 127.54,-94 127.54,-82 127.54,-82 127.54,-76 133.54,-70 139.54,-70 139.54,-70 249.04,-70 249.04,-70 255.04,-70 261.04,-76 261.04,-82 261.04,-82 261.04,-94 261.04,-94 261.04,-100 255.04,-106 249.04,-106"></path>
<text text-anchor="middle" x="194.29" y="-83.8" font-family="Arial" font-size="14.00" fill="#333333">custom documents</text>
</g>
<!-- documents:layer based documents -->
<g id="node3" class="node">
<title>documents:layer based documents</title>
<path fill="#ffffff" stroke="#4b75b9" stroke-width="3" d="M262.67,-160C262.67,-160 125.92,-160 125.92,-160 119.92,-160 113.92,-154 113.92,-148 113.92,-148 113.92,-136 113.92,-136 113.92,-130 119.92,-124 125.92,-124 125.92,-124 262.67,-124 262.67,-124 268.67,-124 274.67,-130 274.67,-136 274.67,-136 274.67,-148 274.67,-148 274.67,-154 268.67,-160 262.67,-160"></path>
<text text-anchor="middle" x="194.29" y="-137.8" font-family="Arial" font-size="14.00" fill="#333333">layer based documents</text>
</g>
<!-- documents:label based documents -->
<g id="node4" class="node">
<title>documents:label based documents</title>
<path fill="#ffffff" stroke="#4b75b9" stroke-width="3" d="M262.29,-214C262.29,-214 126.3,-214 126.3,-214 120.3,-214 114.3,-208 114.3,-202 114.3,-202 114.3,-190 114.3,-190 114.3,-184 120.3,-178 126.3,-178 126.3,-178 262.29,-178 262.29,-178 268.29,-178 274.29,-184 274.29,-190 274.29,-190 274.29,-202 274.29,-202 274.29,-208 268.29,-214 262.29,-214"></path>
<text text-anchor="middle" x="194.29" y="-191.8" font-family="Arial" font-size="14.00" fill="#333333">label based documents</text>
</g>
<!-- ndiag:internal -->
<g id="node5" class="node">
<title>ndiag:internal</title>
<path fill="#ffffff" stroke="#4b75b9" stroke-width="3" d="M65.92,-133C65.92,-133 28,-133 28,-133 22,-133 16,-127 16,-121 16,-121 16,-109 16,-109 16,-103 22,-97 28,-97 28,-97 65.92,-97 65.92,-97 71.92,-97 77.92,-103 77.92,-109 77.92,-109 77.92,-121 77.92,-121 77.92,-127 71.92,-133 65.92,-133"></path>
<text text-anchor="middle" x="46.96" y="-110.8" font-family="Arial" font-size="14.00" fill="#333333">internal</text>
</g>
<!-- ndiag:internal&#45;&gt;documents:index document -->
<g id="edge1" class="edge">
<title>ndiag:internal-&gt;documents:index document</title>
<path fill="none" stroke="#333333" stroke-width="2" stroke-opacity="0.600000" d="M46.96,-96.62C46.96,-72.72 46.96,-34 46.96,-34 46.96,-34 124.97,-34 124.97,-34"></path>
<polygon fill="#333333" fill-opacity="0.600000" stroke="#333333" stroke-width="2" stroke-opacity="0.600000" points="123.46,-37.5 133.46,-34 123.46,-30.5 123.46,-37.5"></polygon>
</g>
<!-- ndiag:internal&#45;&gt;documents:custom documents -->
<g id="edge2" class="edge">
<title>ndiag:internal-&gt;documents:custom documents</title>
<path fill="none" stroke="#333333" stroke-width="2" stroke-opacity="0.600000" d="M78.2,-101.5C78.2,-101.5 115.81,-101.5 115.81,-101.5"></path>
<polygon fill="#333333" fill-opacity="0.600000" stroke="#333333" stroke-width="2" stroke-opacity="0.600000" points="114.29,-105 124.29,-101.5 114.29,-98 114.29,-105"></polygon>
</g>
<!-- ndiag:internal&#45;&gt;documents:layer based documents -->
<g id="edge3" class="edge">
<title>ndiag:internal-&gt;documents:layer based documents</title>
<path fill="none" stroke="#333333" stroke-width="2" stroke-opacity="0.600000" d="M78.2,-128.5C78.2,-128.5 102.17,-128.5 102.17,-128.5"></path>
<polygon fill="#333333" fill-opacity="0.600000" stroke="#333333" stroke-width="2" stroke-opacity="0.600000" points="100.65,-132 110.65,-128.5 100.65,-125 100.65,-132"></polygon>
</g>
<!-- ndiag:internal&#45;&gt;documents:label based documents -->
<g id="edge4" class="edge">
<title>ndiag:internal-&gt;documents:label based documents</title>
<path fill="none" stroke="#333333" stroke-width="2" stroke-opacity="0.600000" d="M46.96,-133.38C46.96,-157.28 46.96,-196 46.96,-196 46.96,-196 102.64,-196 102.64,-196"></path>
<polygon fill="#333333" fill-opacity="0.600000" stroke="#333333" stroke-width="2" stroke-opacity="0.600000" points="101.13,-199.5 111.13,-196 101.13,-192.5 101.13,-199.5"></polygon>
</g>
</g>
</svg>
