<?xml version="1.0" encoding="UTF-8" standalone="no"?>
<!DOCTYPE svg PUBLIC "-//W3C//DTD SVG 1.1//EN"
 "http://www.w3.org/Graphics/SVG/1.1/DTD/svg11.dtd">
<!-- Generated by graphviz version 2.40.1 (20161225.0304)
 -->
<!-- Title: ndiag Pages: 1 -->
<svg width="301pt" height="395pt"
 viewBox="0.00 0.00 301.00 395.00" xmlns="http://www.w3.org/2000/svg" xmlns:xlink="http://www.w3.org/1999/xlink">
<g id="graph0" class="graph" transform="scale(1 1) rotate(0) translate(4 391)">
<title>ndiag</title>
<polygon fill="#ffffff" stroke="transparent" points="-4,4 -4,-391 297,-391 297,4 -4,4"/>
<g id="clust2" class="cluster">
<title>cluster_ndiag</title>
<polygon fill="none" stroke="#999999" stroke-width="2" points="208,-138 208,-248 285,-248 285,-138 208,-138"/>
<text text-anchor="middle" x="246.5" y="-231.4" font-family="Arial" font-size="14.00" fill="#666666">ndiag</text>
</g>
<g id="clust1" class="cluster">
<title>cluster_descriptions</title>
<polygon fill="none" stroke="#000000" stroke-width="2" points="8,-8 8,-379 188,-379 188,-8 8,-8"/>
<text text-anchor="middle" x="98" y="-362.4" font-family="Arial" font-size="14.00" fill="#000000">descriptions</text>
</g>
<!-- descriptions:component descriptions -->
<g id="node1" class="node">
<title>descriptions:component descriptions</title>
<path fill="#ffffff" stroke="#4b75b9" stroke-width="3" stroke-opacity="0.400000" d="M167.5,-346.5C167.5,-346.5 28.5,-346.5 28.5,-346.5 22.5,-346.5 16.5,-340.5 16.5,-334.5 16.5,-334.5 16.5,-289.5 16.5,-289.5 16.5,-283.5 22.5,-277.5 28.5,-277.5 28.5,-277.5 167.5,-277.5 167.5,-277.5 173.5,-277.5 179.5,-283.5 179.5,-289.5 179.5,-289.5 179.5,-334.5 179.5,-334.5 179.5,-340.5 173.5,-346.5 167.5,-346.5"/>
<image xlink:href="/var/folders/fp/hk95_wsj7s18mmc9drvrxdp1tt294n/T/ndiag.023981/write.svg" width="60px" height="45px" preserveAspectRatio="xMinYMin meet" x="68.5" y="-342"/>
<text text-anchor="start" x="24.5926" y="-284.4" font-family="Arial" font-size="14.00" fill="#333333">component descriptions</text>
</g>
<!-- ndiag:internal -->
<g id="node5" class="node">
<title>ndiag:internal</title>
<path fill="#ffffff" stroke="#4b75b9" stroke-width="3" stroke-opacity="0.400000" d="M265,-215.5C265,-215.5 228,-215.5 228,-215.5 222,-215.5 216,-209.5 216,-203.5 216,-203.5 216,-158.5 216,-158.5 216,-152.5 222,-146.5 228,-146.5 228,-146.5 265,-146.5 265,-146.5 271,-146.5 277,-152.5 277,-158.5 277,-158.5 277,-203.5 277,-203.5 277,-209.5 271,-215.5 265,-215.5"/>
<image xlink:href="/var/folders/fp/hk95_wsj7s18mmc9drvrxdp1tt294n/T/ndiag.023981/hex2.svg" width="45px" height="45px" preserveAspectRatio="xMinYMin meet" x="224.5" y="-211"/>
<text text-anchor="start" x="224.0526" y="-153.4" font-family="Arial" font-size="14.00" fill="#333333">internal</text>
</g>
<!-- descriptions:component descriptions&#45;&gt;ndiag:internal -->
<g id="edge1" class="edge">
<title>descriptions:component descriptions&#45;&gt;ndiag:internal</title>
<path fill="none" stroke="#333333" stroke-width="2" stroke-opacity="0.600000" d="M175,-277.3831C175,-246.8475 175,-207.1667 175,-207.1667 175,-207.1667 205.7626,-207.1667 205.7626,-207.1667"/>
<polygon fill="#333333" fill-opacity="0.600000" stroke="#333333" stroke-width="2" stroke-opacity="0.600000" points="205.7627,-210.6668 215.7626,-207.1667 205.7626,-203.6668 205.7627,-210.6668"/>
</g>
<!-- descriptions:diagram descriptions -->
<g id="node2" class="node">
<title>descriptions:diagram descriptions</title>
<path fill="#ffffff" stroke="#4b75b9" stroke-width="3" stroke-opacity="0.400000" d="M158.5,-259.5C158.5,-259.5 37.5,-259.5 37.5,-259.5 31.5,-259.5 25.5,-253.5 25.5,-247.5 25.5,-247.5 25.5,-202.5 25.5,-202.5 25.5,-196.5 31.5,-190.5 37.5,-190.5 37.5,-190.5 158.5,-190.5 158.5,-190.5 164.5,-190.5 170.5,-196.5 170.5,-202.5 170.5,-202.5 170.5,-247.5 170.5,-247.5 170.5,-253.5 164.5,-259.5 158.5,-259.5"/>
<image xlink:href="/var/folders/fp/hk95_wsj7s18mmc9drvrxdp1tt294n/T/ndiag.023981/write.svg" width="60px" height="45px" preserveAspectRatio="xMinYMin meet" x="68.5" y="-255"/>
<text text-anchor="start" x="33.9369" y="-197.4" font-family="Arial" font-size="14.00" fill="#333333">diagram descriptions</text>
</g>
<!-- descriptions:diagram descriptions&#45;&gt;ndiag:internal -->
<g id="edge2" class="edge">
<title>descriptions:diagram descriptions&#45;&gt;ndiag:internal</title>
<path fill="none" stroke="#333333" stroke-width="2" stroke-opacity="0.600000" d="M170.5099,-198.8333C170.5099,-198.8333 205.9838,-198.8333 205.9838,-198.8333"/>
<polygon fill="#333333" fill-opacity="0.600000" stroke="#333333" stroke-width="2" stroke-opacity="0.600000" points="205.9838,-202.3334 215.9838,-198.8333 205.9838,-195.3334 205.9838,-202.3334"/>
</g>
<!-- descriptions:layer group descriptions -->
<g id="node3" class="node">
<title>descriptions:layer group descriptions</title>
<path fill="#ffffff" stroke="#4b75b9" stroke-width="3" stroke-opacity="0.400000" d="M168,-172.5C168,-172.5 28,-172.5 28,-172.5 22,-172.5 16,-166.5 16,-160.5 16,-160.5 16,-115.5 16,-115.5 16,-109.5 22,-103.5 28,-103.5 28,-103.5 168,-103.5 168,-103.5 174,-103.5 180,-109.5 180,-115.5 180,-115.5 180,-160.5 180,-160.5 180,-166.5 174,-172.5 168,-172.5"/>
<image xlink:href="/var/folders/fp/hk95_wsj7s18mmc9drvrxdp1tt294n/T/ndiag.023981/write.svg" width="60px" height="45px" preserveAspectRatio="xMinYMin meet" x="68" y="-168"/>
<text text-anchor="start" x="23.709" y="-110.4" font-family="Arial" font-size="14.00" fill="#333333">layer group descriptions</text>
</g>
<!-- descriptions:layer group descriptions&#45;&gt;ndiag:internal -->
<g id="edge3" class="edge">
<title>descriptions:layer group descriptions&#45;&gt;ndiag:internal</title>
<path fill="none" stroke="#333333" stroke-width="2" stroke-opacity="0.600000" d="M180.0681,-159.5C180.0681,-159.5 205.8461,-159.5 205.8461,-159.5"/>
<polygon fill="#333333" fill-opacity="0.600000" stroke="#333333" stroke-width="2" stroke-opacity="0.600000" points="205.8461,-163.0001 215.8461,-159.5 205.8461,-156.0001 205.8461,-163.0001"/>
</g>
<!-- descriptions:tag group descriptions -->
<g id="node4" class="node">
<title>descriptions:tag group descriptions</title>
<path fill="#ffffff" stroke="#4b75b9" stroke-width="3" stroke-opacity="0.400000" d="M162.5,-85.5C162.5,-85.5 33.5,-85.5 33.5,-85.5 27.5,-85.5 21.5,-79.5 21.5,-73.5 21.5,-73.5 21.5,-28.5 21.5,-28.5 21.5,-22.5 27.5,-16.5 33.5,-16.5 33.5,-16.5 162.5,-16.5 162.5,-16.5 168.5,-16.5 174.5,-22.5 174.5,-28.5 174.5,-28.5 174.5,-73.5 174.5,-73.5 174.5,-79.5 168.5,-85.5 162.5,-85.5"/>
<image xlink:href="/var/folders/fp/hk95_wsj7s18mmc9drvrxdp1tt294n/T/ndiag.023981/write.svg" width="60px" height="45px" preserveAspectRatio="xMinYMin meet" x="68.5" y="-81"/>
<text text-anchor="start" x="29.6473" y="-23.4" font-family="Arial" font-size="14.00" fill="#333333">tag group descriptions</text>
</g>
<!-- descriptions:tag group descriptions&#45;&gt;ndiag:internal -->
<g id="edge4" class="edge">
<title>descriptions:tag group descriptions&#45;&gt;ndiag:internal</title>
<path fill="none" stroke="#333333" stroke-width="2" stroke-opacity="0.600000" d="M174.6823,-51C211.1909,-51 247,-51 247,-51 247,-51 247,-136.1624 247,-136.1624"/>
<polygon fill="#333333" fill-opacity="0.600000" stroke="#333333" stroke-width="2" stroke-opacity="0.600000" points="243.5001,-136.1624 247,-146.1624 250.5001,-136.1624 243.5001,-136.1624"/>
</g>
</g>
</svg>
