<?xml version="1.0" encoding="UTF-8" standalone="no"?>
<!DOCTYPE svg PUBLIC "-//W3C//DTD SVG 1.1//EN"
 "http://www.w3.org/Graphics/SVG/1.1/DTD/svg11.dtd">
<!-- Generated by graphviz version 2.40.1 (20161225.0304)
 -->
<!-- Title: ndiag Pages: 1 -->
<svg width="330pt" height="162pt"
 viewBox="0.00 0.00 329.98 162.00" xmlns="http://www.w3.org/2000/svg" xmlns:xlink="http://www.w3.org/1999/xlink">
<g id="graph0" class="graph" transform="scale(1 1) rotate(0) translate(4 158)">
<title>ndiag</title>
<polygon fill="#ffffff" stroke="transparent" points="-4,4 -4,-158 325.9796,-158 325.9796,4 -4,4"/>
<g id="clust2" class="cluster">
<title>cluster_ndiag</title>
<polygon fill="none" stroke="#999999" stroke-width="2" points="236.9796,-8 236.9796,-118 313.9796,-118 313.9796,-8 236.9796,-8"/>
<text text-anchor="middle" x="275.4796" y="-101.4" font-family="Arial" font-size="14.00" fill="#666666">ndiag</text>
</g>
<g id="clust1" class="cluster">
<title>cluster_relations</title>
<polygon fill="none" stroke="#000000" stroke-width="2" points="8,-25 8,-146 216.9796,-146 216.9796,-25 8,-25"/>
<image xlink:href="/var/folders/fp/hk95_wsj7s18mmc9drvrxdp1tt294n/T/ndiag.036696/pen.svg" width="52px" height="45px" preserveAspectRatio="xMinYMin meet" x="86.4898" y="-141.5"/>
<text text-anchor="start" x="86.0424" y="-83.9" font-family="Arial" font-size="14.00" fill="#000000">relations</text>
</g>
<!-- relations:lb&#45;*:keepalived&#45;&gt;group:lb:vip -->
<g id="node1" class="node">
<title>relations:lb&#45;*:keepalived&#45;&gt;group:lb:vip</title>
<path fill="#ffffff" stroke="#4b75b9" stroke-width="3" d="M196.9694,-69C196.9694,-69 28.0102,-69 28.0102,-69 22.0102,-69 16.0102,-63 16.0102,-57 16.0102,-57 16.0102,-45 16.0102,-45 16.0102,-39 22.0102,-33 28.0102,-33 28.0102,-33 196.9694,-33 196.9694,-33 202.9694,-33 208.9694,-39 208.9694,-45 208.9694,-45 208.9694,-57 208.9694,-57 208.9694,-63 202.9694,-69 196.9694,-69"/>
<text text-anchor="middle" x="112.4898" y="-46.8" font-family="Arial" font-size="14.00" fill="#333333">lb&#45;*:keepalived&#45;&gt;group:lb:vip</text>
</g>
<!-- ndiag:internal -->
<g id="node2" class="node">
<title>ndiag:internal</title>
<path fill="#ffffff" stroke="#4b75b9" stroke-width="3" stroke-opacity="0.400000" d="M293.9796,-85.5C293.9796,-85.5 256.9796,-85.5 256.9796,-85.5 250.9796,-85.5 244.9796,-79.5 244.9796,-73.5 244.9796,-73.5 244.9796,-28.5 244.9796,-28.5 244.9796,-22.5 250.9796,-16.5 256.9796,-16.5 256.9796,-16.5 293.9796,-16.5 293.9796,-16.5 299.9796,-16.5 305.9796,-22.5 305.9796,-28.5 305.9796,-28.5 305.9796,-73.5 305.9796,-73.5 305.9796,-79.5 299.9796,-85.5 293.9796,-85.5"/>
<image xlink:href="/var/folders/fp/hk95_wsj7s18mmc9drvrxdp1tt294n/T/ndiag.036696/hex2.svg" width="45px" height="45px" preserveAspectRatio="xMinYMin meet" x="253.48" y="-81"/>
<text text-anchor="start" x="253.0322" y="-23.4" font-family="Arial" font-size="14.00" fill="#333333">internal</text>
</g>
<!-- relations:lb&#45;*:keepalived&#45;&gt;group:lb:vip&#45;&gt;ndiag:internal -->
<g id="edge1" class="edge">
<title>relations:lb&#45;*:keepalived&#45;&gt;group:lb:vip&#45;&gt;ndiag:internal</title>
<path fill="none" stroke="#333333" stroke-width="2" stroke-opacity="0.600000" d="M209.1854,-51C209.1854,-51 234.9181,-51 234.9181,-51"/>
<polygon fill="#333333" fill-opacity="0.600000" stroke="#333333" stroke-width="2" stroke-opacity="0.600000" points="234.9182,-54.5001 244.9181,-51 234.9181,-47.5001 234.9182,-54.5001"/>
</g>
</g>
</svg>
