<?xml version="1.0" encoding="UTF-8" standalone="no"?>
<!DOCTYPE svg PUBLIC "-//W3C//DTD SVG 1.1//EN"
 "http://www.w3.org/Graphics/SVG/1.1/DTD/svg11.dtd">
<!-- Generated by graphviz version 2.40.1 (20161225.0304)
 -->
<!-- Title: ndiag Pages: 1 -->
<svg width="311pt" height="425pt"
 viewBox="0.00 0.00 310.89 425.00" xmlns="http://www.w3.org/2000/svg" xmlns:xlink="http://www.w3.org/1999/xlink">
<g id="graph0" class="graph" transform="scale(1 1) rotate(0) translate(4 421)">
<title>ndiag</title>
<polygon fill="#ffffff" stroke="transparent" points="-4,4 -4,-421 306.8948,-421 306.8948,4 -4,4"/>
<g id="clust3" class="cluster">
<title>cluster_ndiag</title>
<polygon fill="none" stroke="#999999" stroke-width="2" points="217,-170 217,-247 294.8948,-247 294.8948,-170 217,-170"/>
<text text-anchor="middle" x="255.9474" y="-230.4" font-family="Arial" font-size="14.00" fill="#666666">ndiag (1)</text>
</g>
<g id="clust2" class="cluster">
<title>cluster_real nodes</title>
<polygon fill="none" stroke="#999999" stroke-width="2" points="0,-8 0,-409 102,-409 102,-8 0,-8"/>
<text text-anchor="middle" x="51" y="-392.4" font-family="Arial" font-size="14.00" fill="#666666">real nodes (1)</text>
</g>
<g id="clust1" class="cluster">
<title>cluster_nodes</title>
<polygon fill="none" stroke="#000000" stroke-width="2" points="122,-116 122,-301 197,-301 197,-116 122,-116"/>
<text text-anchor="middle" x="159.5" y="-284.4" font-family="Arial" font-size="14.00" fill="#000000">nodes (1)</text>
</g>
<!-- nodes:lb&#45;* -->
<g id="node1" class="node">
<title>nodes:lb&#45;*</title>
<path fill="#4b75b9" stroke="#ffffff" stroke-width="2" d="M174,-268C174,-268 144,-268 144,-268 138,-268 132,-262 132,-256 132,-256 132,-244 132,-244 132,-238 138,-232 144,-232 144,-232 174,-232 174,-232 180,-232 186,-238 186,-244 186,-244 186,-256 186,-256 186,-262 180,-268 174,-268"/>
<text text-anchor="middle" x="159" y="-245.8" font-family="Arial" font-size="14.00" fill="#ffffff">lb&#45;*</text>
</g>
<!-- ndiag:internal -->
<g id="node11" class="node">
<title>ndiag:internal</title>
<path fill="#4b75b9" stroke="#ffffff" stroke-width="2" d="M274.8423,-214C274.8423,-214 237.0525,-214 237.0525,-214 231.0525,-214 225.0525,-208 225.0525,-202 225.0525,-202 225.0525,-190 225.0525,-190 225.0525,-184 231.0525,-178 237.0525,-178 237.0525,-178 274.8423,-178 274.8423,-178 280.8423,-178 286.8423,-184 286.8423,-190 286.8423,-190 286.8423,-202 286.8423,-202 286.8423,-208 280.8423,-214 274.8423,-214"/>
<text text-anchor="middle" x="255.9474" y="-191.8" font-family="Arial" font-size="14.00" fill="#ffffff">internal</text>
</g>
<!-- nodes:lb&#45;*&#45;&gt;ndiag:internal -->
<g id="edge2" class="edge">
<title>nodes:lb&#45;*&#45;&gt;ndiag:internal</title>
<path fill="none" stroke="#333333" stroke-width="2" stroke-opacity="0.600000" d="M186.0093,-250C214.9856,-250 256.8948,-250 256.8948,-250 256.8948,-250 256.8948,-224.2819 256.8948,-224.2819"/>
<polygon fill="#333333" fill-opacity="0.600000" stroke="#333333" stroke-width="2" stroke-opacity="0.600000" points="260.3949,-224.2819 256.8948,-214.2819 253.3949,-224.282 260.3949,-224.2819"/>
</g>
<!-- nodes:app&#45;* -->
<g id="node2" class="node">
<title>nodes:app&#45;*</title>
<path fill="#4b75b9" stroke="#ffffff" stroke-width="2" d="M174,-214C174,-214 144,-214 144,-214 138,-214 132,-208 132,-202 132,-202 132,-190 132,-190 132,-184 138,-178 144,-178 144,-178 174,-178 174,-178 180,-178 186,-184 186,-190 186,-190 186,-202 186,-202 186,-208 180,-214 174,-214"/>
<text text-anchor="middle" x="159" y="-191.8" font-family="Arial" font-size="14.00" fill="#ffffff">app&#45;*</text>
</g>
<!-- nodes:app&#45;*&#45;&gt;ndiag:internal -->
<g id="edge5" class="edge">
<title>nodes:app&#45;*&#45;&gt;ndiag:internal</title>
<path fill="none" stroke="#333333" stroke-width="2" stroke-opacity="0.600000" d="M186.0053,-196C186.0053,-196 214.9811,-196 214.9811,-196"/>
<polygon fill="#333333" fill-opacity="0.600000" stroke="#333333" stroke-width="2" stroke-opacity="0.600000" points="214.9811,-199.5001 224.9811,-196 214.981,-192.5001 214.9811,-199.5001"/>
</g>
<!-- nodes:db&#45;* -->
<g id="node3" class="node">
<title>nodes:db&#45;*</title>
<path fill="#4b75b9" stroke="#ffffff" stroke-width="2" d="M174,-160C174,-160 144,-160 144,-160 138,-160 132,-154 132,-148 132,-148 132,-136 132,-136 132,-130 138,-124 144,-124 144,-124 174,-124 174,-124 180,-124 186,-130 186,-136 186,-136 186,-148 186,-148 186,-154 180,-160 174,-160"/>
<text text-anchor="middle" x="159" y="-137.8" font-family="Arial" font-size="14.00" fill="#ffffff">db&#45;*</text>
</g>
<!-- nodes:db&#45;*&#45;&gt;ndiag:internal -->
<g id="edge9" class="edge">
<title>nodes:db&#45;*&#45;&gt;ndiag:internal</title>
<path fill="none" stroke="#333333" stroke-width="2" stroke-opacity="0.600000" d="M186.0093,-142C214.9856,-142 256.8948,-142 256.8948,-142 256.8948,-142 256.8948,-167.7181 256.8948,-167.7181"/>
<polygon fill="#333333" fill-opacity="0.600000" stroke="#333333" stroke-width="2" stroke-opacity="0.600000" points="253.3949,-167.718 256.8948,-177.7181 260.3949,-167.7181 253.3949,-167.718"/>
</g>
<!-- real nodes:lb&#45;1 -->
<g id="node4" class="node">
<title>real nodes:lb&#45;1</title>
<path fill="#4b75b9" stroke="#ffffff" stroke-width="2" d="M66,-376C66,-376 36,-376 36,-376 30,-376 24,-370 24,-364 24,-364 24,-352 24,-352 24,-346 30,-340 36,-340 36,-340 66,-340 66,-340 72,-340 78,-346 78,-352 78,-352 78,-364 78,-364 78,-370 72,-376 66,-376"/>
<text text-anchor="middle" x="51" y="-353.8" font-family="Arial" font-size="14.00" fill="#ffffff">lb&#45;1</text>
</g>
<!-- real nodes:lb&#45;1&#45;&gt;nodes:lb&#45;* -->
<g id="edge1" class="edge">
<title>real nodes:lb&#45;1&#45;&gt;nodes:lb&#45;*</title>
<path fill="none" stroke="#333333" stroke-width="2" stroke-opacity="0.600000" d="M78.0474,-358C112.854,-358 168.8948,-358 168.8948,-358 168.8948,-358 168.8948,-278.3207 168.8948,-278.3207"/>
<polygon fill="#333333" fill-opacity="0.600000" stroke="#333333" stroke-width="2" stroke-opacity="0.600000" points="172.3949,-278.3207 168.8948,-268.3207 165.3949,-278.3208 172.3949,-278.3207"/>
</g>
<!-- real nodes:lb&#45;2 -->
<g id="node5" class="node">
<title>real nodes:lb&#45;2</title>
<path fill="#4b75b9" stroke="#ffffff" stroke-width="2" d="M66,-322C66,-322 36,-322 36,-322 30,-322 24,-316 24,-310 24,-310 24,-298 24,-298 24,-292 30,-286 36,-286 36,-286 66,-286 66,-286 72,-286 78,-292 78,-298 78,-298 78,-310 78,-310 78,-316 72,-322 66,-322"/>
<text text-anchor="middle" x="51" y="-299.8" font-family="Arial" font-size="14.00" fill="#ffffff">lb&#45;2</text>
</g>
<!-- real nodes:lb&#45;2&#45;&gt;nodes:lb&#45;* -->
<g id="edge3" class="edge">
<title>real nodes:lb&#45;2&#45;&gt;nodes:lb&#45;*</title>
<path fill="none" stroke="#333333" stroke-width="2" stroke-opacity="0.600000" d="M78.033,-304C107.6172,-304 150.8948,-304 150.8948,-304 150.8948,-304 150.8948,-278.2819 150.8948,-278.2819"/>
<polygon fill="#333333" fill-opacity="0.600000" stroke="#333333" stroke-width="2" stroke-opacity="0.600000" points="154.3949,-278.2819 150.8948,-268.2819 147.3949,-278.282 154.3949,-278.2819"/>
</g>
<!-- real nodes:app&#45;1 -->
<g id="node6" class="node">
<title>real nodes:app&#45;1</title>
<path fill="#4b75b9" stroke="#ffffff" stroke-width="2" d="M66,-268C66,-268 36,-268 36,-268 30,-268 24,-262 24,-256 24,-256 24,-244 24,-244 24,-238 30,-232 36,-232 36,-232 66,-232 66,-232 72,-232 78,-238 78,-244 78,-244 78,-256 78,-256 78,-262 72,-268 66,-268"/>
<text text-anchor="middle" x="51" y="-245.8" font-family="Arial" font-size="14.00" fill="#ffffff">app&#45;1</text>
</g>
<!-- real nodes:app&#45;1&#45;&gt;nodes:app&#45;* -->
<g id="edge4" class="edge">
<title>real nodes:app&#45;1&#45;&gt;nodes:app&#45;*</title>
<path fill="none" stroke="#333333" stroke-width="2" stroke-opacity="0.600000" d="M78.0971,-250C95.5117,-250 114.8948,-250 114.8948,-250 114.8948,-250 114.8948,-205 114.8948,-205 114.8948,-205 121.8209,-205 121.8209,-205"/>
<polygon fill="#333333" fill-opacity="0.600000" stroke="#333333" stroke-width="2" stroke-opacity="0.600000" points="121.8209,-208.5001 131.8209,-205 121.8208,-201.5001 121.8209,-208.5001"/>
</g>
<!-- real nodes:app&#45;2 -->
<g id="node7" class="node">
<title>real nodes:app&#45;2</title>
<path fill="#4b75b9" stroke="#ffffff" stroke-width="2" d="M66,-214C66,-214 36,-214 36,-214 30,-214 24,-208 24,-202 24,-202 24,-190 24,-190 24,-184 30,-178 36,-178 36,-178 66,-178 66,-178 72,-178 78,-184 78,-190 78,-190 78,-202 78,-202 78,-208 72,-214 66,-214"/>
<text text-anchor="middle" x="51" y="-191.8" font-family="Arial" font-size="14.00" fill="#ffffff">app&#45;2</text>
</g>
<!-- real nodes:app&#45;2&#45;&gt;nodes:app&#45;* -->
<g id="edge6" class="edge">
<title>real nodes:app&#45;2&#45;&gt;nodes:app&#45;*</title>
<path fill="none" stroke="#333333" stroke-width="2" stroke-opacity="0.600000" d="M78.253,-196C78.253,-196 121.7558,-196 121.7558,-196"/>
<polygon fill="#333333" fill-opacity="0.600000" stroke="#333333" stroke-width="2" stroke-opacity="0.600000" points="121.7558,-199.5001 131.7558,-196 121.7557,-192.5001 121.7558,-199.5001"/>
</g>
<!-- real nodes:app&#45;3 -->
<g id="node8" class="node">
<title>real nodes:app&#45;3</title>
<path fill="#4b75b9" stroke="#ffffff" stroke-width="2" d="M66,-160C66,-160 36,-160 36,-160 30,-160 24,-154 24,-148 24,-148 24,-136 24,-136 24,-130 30,-124 36,-124 36,-124 66,-124 66,-124 72,-124 78,-130 78,-136 78,-136 78,-148 78,-148 78,-154 72,-160 66,-160"/>
<text text-anchor="middle" x="51" y="-137.8" font-family="Arial" font-size="14.00" fill="#ffffff">app&#45;3</text>
</g>
<!-- real nodes:app&#45;3&#45;&gt;nodes:app&#45;* -->
<g id="edge7" class="edge">
<title>real nodes:app&#45;3&#45;&gt;nodes:app&#45;*</title>
<path fill="none" stroke="#333333" stroke-width="2" stroke-opacity="0.600000" d="M78.2276,-142C88.1102,-142 96.8948,-142 96.8948,-142 96.8948,-142 96.8948,-187 96.8948,-187 96.8948,-187 121.9404,-187 121.9404,-187"/>
<polygon fill="#333333" fill-opacity="0.600000" stroke="#333333" stroke-width="2" stroke-opacity="0.600000" points="121.9405,-190.5001 131.9404,-187 121.9404,-183.5001 121.9405,-190.5001"/>
</g>
<!-- real nodes:db&#45;1 -->
<g id="node9" class="node">
<title>real nodes:db&#45;1</title>
<path fill="#4b75b9" stroke="#ffffff" stroke-width="2" d="M66,-106C66,-106 36,-106 36,-106 30,-106 24,-100 24,-94 24,-94 24,-82 24,-82 24,-76 30,-70 36,-70 36,-70 66,-70 66,-70 72,-70 78,-76 78,-82 78,-82 78,-94 78,-94 78,-100 72,-106 66,-106"/>
<text text-anchor="middle" x="51" y="-83.8" font-family="Arial" font-size="14.00" fill="#ffffff">db&#45;1</text>
</g>
<!-- real nodes:db&#45;1&#45;&gt;nodes:db&#45;* -->
<g id="edge8" class="edge">
<title>real nodes:db&#45;1&#45;&gt;nodes:db&#45;*</title>
<path fill="none" stroke="#333333" stroke-width="2" stroke-opacity="0.600000" d="M78.033,-88C107.6172,-88 150.8948,-88 150.8948,-88 150.8948,-88 150.8948,-113.7181 150.8948,-113.7181"/>
<polygon fill="#333333" fill-opacity="0.600000" stroke="#333333" stroke-width="2" stroke-opacity="0.600000" points="147.3949,-113.718 150.8948,-123.7181 154.3949,-113.7181 147.3949,-113.718"/>
</g>
<!-- real nodes:db&#45;2 -->
<g id="node10" class="node">
<title>real nodes:db&#45;2</title>
<path fill="#4b75b9" stroke="#ffffff" stroke-width="2" d="M66,-52C66,-52 36,-52 36,-52 30,-52 24,-46 24,-40 24,-40 24,-28 24,-28 24,-22 30,-16 36,-16 36,-16 66,-16 66,-16 72,-16 78,-22 78,-28 78,-28 78,-40 78,-40 78,-46 72,-52 66,-52"/>
<text text-anchor="middle" x="51" y="-29.8" font-family="Arial" font-size="14.00" fill="#ffffff">db&#45;2</text>
</g>
<!-- real nodes:db&#45;2&#45;&gt;nodes:db&#45;* -->
<g id="edge10" class="edge">
<title>real nodes:db&#45;2&#45;&gt;nodes:db&#45;*</title>
<path fill="none" stroke="#333333" stroke-width="2" stroke-opacity="0.600000" d="M78.0474,-34C112.854,-34 168.8948,-34 168.8948,-34 168.8948,-34 168.8948,-113.6793 168.8948,-113.6793"/>
<polygon fill="#333333" fill-opacity="0.600000" stroke="#333333" stroke-width="2" stroke-opacity="0.600000" points="165.3949,-113.6792 168.8948,-123.6793 172.3949,-113.6793 165.3949,-113.6792"/>
</g>
</g>
</svg>
