<?xml version="1.0" encoding="UTF-8" standalone="no"?><!-- Generated by graphviz version 12.1.2 (20240928.0832)
 --><!-- Title: ndiag Pages: 1 --><svg width="253pt" height="101pt" viewBox="0.00 0.00 252.76 101.00" xmlns="http://www.w3.org/2000/svg" xmlns:xlink="http://www.w3.org/1999/xlink"><g id="graph0" class="graph" transform="scale(1 1) rotate(0) translate(4 97)"><title>ndiag</title><polygon fill="white" stroke="none" points="-4,4 -4,-97 248.76,-97 248.76,4 -4,4"></polygon><g id="clust1" class="cluster"><title>cluster_ndiag</title><polygon fill="none" stroke="black" stroke-width="2" points="8,-8 8,-85 85.92,-85 85.92,-8 8,-8"></polygon><text text-anchor="middle" x="46.96" y="-68.4" font-family="Arial" font-size="14.00">ndiag</text></g><g id="clust2" class="cluster"><title>cluster_documents</title><polygon fill="none" stroke="black" stroke-width="2" points="105.92,-8 105.92,-85 236.76,-85 236.76,-8 105.92,-8"></polygon><text text-anchor="middle" x="171.34" y="-68.4" font-family="Arial" font-size="14.00">documents</text></g><!-- ndiag:internal --><g id="node1" class="node"><title>ndiag:internal</title><path fill="#ffffff" stroke="#4b75b9" stroke-width="3" d="M65.92,-52C65.92,-52 28,-52 28,-52 22,-52 16,-46 16,-40 16,-40 16,-28 16,-28 16,-22 22,-16 28,-16 28,-16 65.92,-16 65.92,-16 71.92,-16 77.92,-22 77.92,-28 77.92,-28 77.92,-40 77.92,-40 77.92,-46 71.92,-52 65.92,-52"></path><text text-anchor="middle" x="46.96" y="-29.8" font-family="Arial" font-size="14.00" fill="#333333">internal</text></g><!-- documents:index document --><g id="node2" class="node"><title>documents:index document</title><path fill="#ffffff" stroke="#4b75b9" stroke-width="3" d="M216.76,-52C216.76,-52 125.92,-52 125.92,-52 119.92,-52 113.92,-46 113.92,-40 113.92,-40 113.92,-28 113.92,-28 113.92,-22 119.92,-16 125.92,-16 125.92,-16 216.76,-16 216.76,-16 222.76,-16 228.76,-22 228.76,-28 228.76,-28 228.76,-40 228.76,-40 228.76,-46 222.76,-52 216.76,-52"></path><text text-anchor="middle" x="171.34" y="-29.8" font-family="Arial" font-size="14.00" fill="#333333">index document</text></g><!-- ndiag:internal&#45;&gt;documents:index document --><g id="edge-0" class="edge"><title>ndiag:internal-&gt;documents:index document</title><path fill="none" stroke="#333333" stroke-width="2" stroke-opacity="0.600000" d="M78.34,-34C78.34,-34 102.29,-34 102.29,-34"></path><polygon fill="#333333" fill-opacity="0.600000" stroke="#333333" stroke-width="2" stroke-opacity="0.600000" points="100.77,-37.5 110.77,-34 100.77,-30.5 100.77,-37.5"></polygon></g></g></svg>