<?xml version="1.0" encoding="UTF-8" standalone="no"?>
<!DOCTYPE svg PUBLIC "-//W3C//DTD SVG 1.1//EN"
 "http://www.w3.org/Graphics/SVG/1.1/DTD/svg11.dtd">
<!-- Generated by graphviz version 12.1.2 (20240928.0832)
 -->
<!-- Title: ndiag Pages: 1 -->
<svg width="307pt" height="178pt" viewBox="0.00 0.00 307.07 178.00" xmlns="http://www.w3.org/2000/svg" xmlns:xlink="http://www.w3.org/1999/xlink">
<g id="graph0" class="graph" transform="scale(1 1) rotate(0) translate(4 174)">
<title>ndiag</title>
<polygon fill="white" stroke="none" points="-4,4 -4,-174 303.07,-174 303.07,4 -4,4"></polygon>
<g id="clust1" class="cluster">
<title>cluster_input files</title>
<polygon fill="none" stroke="black" stroke-width="2" points="55.51,-8 55.51,-85 130.65,-85 130.65,-8 55.51,-8"></polygon>
<text text-anchor="middle" x="93.08" y="-68.4" font-family="Arial" font-size="14.00">input files</text>
</g>
<g id="clust2" class="cluster">
<title>cluster_ndiag</title>
<polygon fill="none" stroke="black" stroke-width="2" points="213.16,-85 213.16,-162 291.07,-162 291.07,-85 213.16,-85"></polygon>
<text text-anchor="middle" x="252.12" y="-145.4" font-family="Arial" font-size="14.00">ndiag</text>
</g>
<!-- none -->
<g id="node1" class="node">
<title>none</title>
<text text-anchor="middle" x="92.58" y="-29.8" font-family="Times,serif" font-size="14.00">none</text>
</g>
<!-- ndiag:internal -->
<g id="node2" class="node">
<title>ndiag:internal</title>
<path fill="#ffffff" stroke="#4b75b9" stroke-width="3" d="M271.07,-129C271.07,-129 233.16,-129 233.16,-129 227.16,-129 221.16,-123 221.16,-117 221.16,-117 221.16,-105 221.16,-105 221.16,-99 227.16,-93 233.16,-93 233.16,-93 271.07,-93 271.07,-93 277.07,-93 283.07,-99 283.07,-105 283.07,-105 283.07,-117 283.07,-117 283.07,-123 277.07,-129 271.07,-129"></path>
<text text-anchor="middle" x="252.12" y="-106.8" font-family="Arial" font-size="14.00" fill="#333333">internal</text>
</g>
<!-- input files:nodes.yml -->
<g id="node3" class="node">
<title>input files:nodes.yml</title>
<ellipse fill="none" stroke="black" cx="92.58" cy="-111" rx="92.58" ry="18"></ellipse>
<text text-anchor="middle" x="92.58" y="-106.8" font-family="Times,serif" font-size="14.00">input files:nodes.yml</text>
</g>
<!-- input files:nodes.yml&#45;&gt;ndiag:internal -->
<g id="edge-0" class="edge">
<title>input files:nodes.yml-&gt;ndiag:internal</title>
<path fill="none" stroke="#333333" stroke-width="2" stroke-opacity="0.600000" d="M185.38,-111C185.38,-111 209.4,-111 209.4,-111"></path>
<polygon fill="#333333" fill-opacity="0.600000" stroke="#333333" stroke-width="2" stroke-opacity="0.600000" points="207.88,-114.5 217.88,-111 207.88,-107.5 207.88,-114.5"></polygon>
</g>
</g>
</svg>
