<?xml version="1.0" encoding="UTF-8" standalone="no"?><!-- Generated by graphviz version 12.1.2 (20240928.0832)
 --><!-- Title: ndiag Pages: 1 --><svg width="413pt" height="186pt" viewBox="0.00 0.00 412.74 186.00" xmlns="http://www.w3.org/2000/svg" xmlns:xlink="http://www.w3.org/1999/xlink"><g id="graph0" class="graph" transform="scale(1 1) rotate(0) translate(4 182)"><title>ndiag</title><polygon fill="white" stroke="none" points="-4,4 -4,-182 408.74,-182 408.74,4 -4,4"></polygon><g id="clust1" class="cluster"><title>cluster_input files</title><polygon fill="none" stroke="black" stroke-width="2" points="9.89,-8 9.89,-85 85.03,-85 85.03,-8 9.89,-8"></polygon><text text-anchor="middle" x="47.46" y="-68.4" font-family="Arial" font-size="14.00">input files</text></g><g id="clust2" class="cluster"><title>cluster_ndiag</title><polygon fill="none" stroke="black" stroke-width="2" points="8,-93 8,-170 85.92,-170 85.92,-93 8,-93"></polygon><text text-anchor="middle" x="46.96" y="-153.4" font-family="Arial" font-size="14.00">ndiag</text></g><!-- none --><g id="node1" class="node"><title>none</title><text text-anchor="middle" x="46.96" y="-29.8" font-family="Times,serif" font-size="14.00">none</text></g><!-- ndiag:internal --><g id="node2" class="node"><title>ndiag:internal</title><path fill="#ffffff" stroke="#4b75b9" stroke-width="3" d="M65.92,-137C65.92,-137 28,-137 28,-137 22,-137 16,-131 16,-125 16,-125 16,-113 16,-113 16,-107 22,-101 28,-101 28,-101 65.92,-101 65.92,-101 71.92,-101 77.92,-107 77.92,-113 77.92,-113 77.92,-125 77.92,-125 77.92,-131 71.92,-137 65.92,-137"></path><text text-anchor="middle" x="46.96" y="-114.8" font-family="Arial" font-size="14.00" fill="#333333">internal</text></g><!-- input files:ndiag.descriptions/*.md --><g id="node3" class="node"><title>input files:ndiag.descriptions/*.md</title><ellipse fill="none" stroke="black" cx="259.33" cy="-119" rx="145.41" ry="18"></ellipse><text text-anchor="middle" x="259.33" y="-114.8" font-family="Times,serif" font-size="14.00">input files:ndiag.descriptions/*.md</text></g><!-- ndiag:internal&#45;&gt;input files:ndiag.descriptions/*.md --><g id="edge-0" class="edge"><title>ndiag:internal-&gt;input files:ndiag.descriptions/*.md</title><path fill="none" stroke="#333333" stroke-width="2" stroke-opacity="0.600000" d="M78.29,-119C78.29,-119 102.32,-119 102.32,-119"></path><polygon fill="#333333" fill-opacity="0.600000" stroke="#333333" stroke-width="2" stroke-opacity="0.600000" points="100.8,-122.5 110.8,-119 100.8,-115.5 100.8,-122.5"></polygon></g></g></svg>