<?xml version="1.0" encoding="UTF-8" standalone="no"?><!-- Generated by graphviz version 12.1.2 (20240928.0832)
 --><!-- Title: ndiag Pages: 1 --><svg width="512pt" height="304pt" viewBox="0.00 0.00 512.19 304.00" xmlns="http://www.w3.org/2000/svg" xmlns:xlink="http://www.w3.org/1999/xlink"><g id="graph0" class="graph" transform="scale(1 1) rotate(0) translate(4 300)"><title>ndiag</title><polygon fill="white" stroke="none" points="-4,4 -4,-300 508.19,-300 508.19,4 -4,4"></polygon><g id="clust1" class="cluster"><title>cluster_type:input</title><path fill="#ffffff" stroke="#1f91be" stroke-width="2" d="M20,-35C20,-35 189.52,-35 189.52,-35 195.52,-35 201.52,-41 201.52,-47 201.52,-47 201.52,-249 201.52,-249 201.52,-255 195.52,-261 189.52,-261 189.52,-261 20,-261 20,-261 14,-261 8,-255 8,-249 8,-249 8,-47 8,-47 8,-41 14,-35 20,-35"></path><text text-anchor="middle" x="104.76" y="-244.4" font-family="Arial" font-size="14.00" fill="#333333">type:input</text></g><g id="clust2" class="cluster"><title>cluster_input files</title><polygon fill="#ffffff" stroke="#333333" stroke-width="2" points="16,-43 16,-228 193.52,-228 193.52,-43 16,-43"></polygon><text text-anchor="middle" x="104.76" y="-211.4" font-family="Arial" font-size="14.00" fill="#333333">input files</text></g><g id="clust3" class="cluster"><title>cluster_type:output</title><path fill="#ffffff" stroke="#1f91be" stroke-width="2" d="M315.44,-8C315.44,-8 484.19,-8 484.19,-8 490.19,-8 496.19,-14 496.19,-20 496.19,-20 496.19,-276 496.19,-276 496.19,-282 490.19,-288 484.19,-288 484.19,-288 315.44,-288 315.44,-288 309.44,-288 303.44,-282 303.44,-276 303.44,-276 303.44,-20 303.44,-20 303.44,-14 309.44,-8 315.44,-8"></path><text text-anchor="middle" x="399.82" y="-271.4" font-family="Arial" font-size="14.00" fill="#333333">type:output</text></g><g id="clust4" class="cluster"><title>cluster_documents</title><polygon fill="#ffffff" stroke="#333333" stroke-width="2" points="311.44,-16 311.44,-255 488.19,-255 488.19,-16 311.44,-16"></polygon><text text-anchor="middle" x="399.82" y="-238.4" font-family="Arial" font-size="14.00" fill="#333333">documents</text></g><g id="clust5" class="cluster"><title>cluster_ndiag</title><polygon fill="none" stroke="black" stroke-width="2" points="213.52,-97 213.52,-174 291.44,-174 291.44,-97 213.52,-97"></polygon><text text-anchor="middle" x="252.48" y="-157.4" font-family="Arial" font-size="14.00">ndiag</text></g><!-- input files:ndiag.yml --><g id="node1" class="node"><title>input files:ndiag.yml</title><path fill="#ffffff" stroke="#4b75b9" stroke-width="3" d="M130.72,-87C130.72,-87 78.8,-87 78.8,-87 72.8,-87 66.8,-81 66.8,-75 66.8,-75 66.8,-63 66.8,-63 66.8,-57 72.8,-51 78.8,-51 78.8,-51 130.72,-51 130.72,-51 136.72,-51 142.72,-57 142.72,-63 142.72,-63 142.72,-75 142.72,-75 142.72,-81 136.72,-87 130.72,-87"></path><text text-anchor="middle" x="104.76" y="-64.8" font-family="Arial" font-size="14.00" fill="#333333">ndiag.yml</text></g><!-- ndiag:internal --><g id="node8" class="node"><title>ndiag:internal</title><path fill="#ffffff" stroke="#4b75b9" stroke-width="3" d="M271.44,-141C271.44,-141 233.52,-141 233.52,-141 227.52,-141 221.52,-135 221.52,-129 221.52,-129 221.52,-117 221.52,-117 221.52,-111 227.52,-105 233.52,-105 233.52,-105 271.44,-105 271.44,-105 277.44,-105 283.44,-111 283.44,-117 283.44,-117 283.44,-129 283.44,-129 283.44,-135 277.44,-141 271.44,-141"></path><text text-anchor="middle" x="252.48" y="-118.8" font-family="Arial" font-size="14.00" fill="#333333">internal</text></g><!-- input files:ndiag.yml&#45;&gt;ndiag:internal --><g id="edge-0" class="edge"><title>input files:ndiag.yml-&gt;ndiag:internal</title><path fill="none" stroke="#333333" stroke-width="2" stroke-opacity="0.600000" d="M143.04,-82.5C183.69,-82.5 242.16,-82.5 242.16,-82.5 242.16,-82.5 242.16,-93.13 242.16,-93.13"></path><polygon fill="#333333" fill-opacity="0.600000" stroke="#333333" stroke-width="2" stroke-opacity="0.600000" points="238.66,-91.62 242.16,-101.62 245.66,-91.62 238.66,-91.62"></polygon></g><!-- input files:nodes.yml --><g id="node2" class="node"><title>input files:nodes.yml</title><path fill="#ffffff" stroke="#4b75b9" stroke-width="3" d="M132.67,-141C132.67,-141 76.86,-141 76.86,-141 70.86,-141 64.86,-135 64.86,-129 64.86,-129 64.86,-117 64.86,-117 64.86,-111 70.86,-105 76.86,-105 76.86,-105 132.67,-105 132.67,-105 138.67,-105 144.67,-111 144.67,-117 144.67,-117 144.67,-129 144.67,-129 144.67,-135 138.67,-141 132.67,-141"></path><text text-anchor="middle" x="104.76" y="-118.8" font-family="Arial" font-size="14.00" fill="#333333">nodes.yml</text></g><!-- input files:nodes.yml&#45;&gt;ndiag:internal --><g id="edge-1" class="edge"><title>input files:nodes.yml-&gt;ndiag:internal</title><path fill="none" stroke="#333333" stroke-width="2" stroke-opacity="0.600000" d="M145.13,-123C145.13,-123 209.55,-123 209.55,-123"></path><polygon fill="#333333" fill-opacity="0.600000" stroke="#333333" stroke-width="2" stroke-opacity="0.600000" points="208.04,-126.5 218.04,-123 208.04,-119.5 208.04,-126.5"></polygon></g><!-- input files:ndiag.descriptions/*.md --><g id="node3" class="node"><title>input files:ndiag.descriptions/*.md</title><path fill="#ffffff" stroke="#4b75b9" stroke-width="3" d="M173.52,-195C173.52,-195 36,-195 36,-195 30,-195 24,-189 24,-183 24,-183 24,-171 24,-171 24,-165 30,-159 36,-159 36,-159 173.52,-159 173.52,-159 179.52,-159 185.52,-165 185.52,-171 185.52,-171 185.52,-183 185.52,-183 185.52,-189 179.52,-195 173.52,-195"></path><text text-anchor="middle" x="104.76" y="-172.8" font-family="Arial" font-size="14.00" fill="#333333">ndiag.descriptions/*.md</text></g><!-- documents:index document --><g id="node4" class="node"><title>documents:index document</title><path fill="#ffffff" stroke="#4b75b9" stroke-width="3" d="M445.24,-60C445.24,-60 354.4,-60 354.4,-60 348.4,-60 342.4,-54 342.4,-48 342.4,-48 342.4,-36 342.4,-36 342.4,-30 348.4,-24 354.4,-24 354.4,-24 445.24,-24 445.24,-24 451.24,-24 457.24,-30 457.24,-36 457.24,-36 457.24,-48 457.24,-48 457.24,-54 451.24,-60 445.24,-60"></path><text text-anchor="middle" x="399.82" y="-37.8" font-family="Arial" font-size="14.00" fill="#333333">index document</text></g><!-- documents:custom documents --><g id="node5" class="node"><title>documents:custom documents</title><path fill="#ffffff" stroke="#4b75b9" stroke-width="3" d="M454.56,-114C454.56,-114 345.07,-114 345.07,-114 339.07,-114 333.07,-108 333.07,-102 333.07,-102 333.07,-90 333.07,-90 333.07,-84 339.07,-78 345.07,-78 345.07,-78 454.56,-78 454.56,-78 460.56,-78 466.56,-84 466.56,-90 466.56,-90 466.56,-102 466.56,-102 466.56,-108 460.56,-114 454.56,-114"></path><text text-anchor="middle" x="399.82" y="-91.8" font-family="Arial" font-size="14.00" fill="#333333">custom documents</text></g><!-- documents:layer based documents --><g id="node6" class="node"><title>documents:layer based documents</title><path fill="#ffffff" stroke="#4b75b9" stroke-width="3" d="M468.19,-168C468.19,-168 331.44,-168 331.44,-168 325.44,-168 319.44,-162 319.44,-156 319.44,-156 319.44,-144 319.44,-144 319.44,-138 325.44,-132 331.44,-132 331.44,-132 468.19,-132 468.19,-132 474.19,-132 480.19,-138 480.19,-144 480.19,-144 480.19,-156 480.19,-156 480.19,-162 474.19,-168 468.19,-168"></path><text text-anchor="middle" x="399.82" y="-145.8" font-family="Arial" font-size="14.00" fill="#333333">layer based documents</text></g><!-- documents:label based documents --><g id="node7" class="node"><title>documents:label based documents</title><path fill="#ffffff" stroke="#4b75b9" stroke-width="3" d="M467.81,-222C467.81,-222 331.82,-222 331.82,-222 325.82,-222 319.82,-216 319.82,-210 319.82,-210 319.82,-198 319.82,-198 319.82,-192 325.82,-186 331.82,-186 331.82,-186 467.81,-186 467.81,-186 473.81,-186 479.81,-192 479.81,-198 479.81,-198 479.81,-210 479.81,-210 479.81,-216 473.81,-222 467.81,-222"></path><text text-anchor="middle" x="399.82" y="-199.8" font-family="Arial" font-size="14.00" fill="#333333">label based documents</text></g><!-- ndiag:internal&#45;&gt;input files:ndiag.descriptions/*.md --><g id="edge-2" class="edge"><title>ndiag:internal-&gt;input files:ndiag.descriptions/*.md</title><path fill="none" stroke="#333333" stroke-width="2" stroke-opacity="0.600000" d="M242.16,-152.87C242.16,-152.87 242.16,-163.5 242.16,-163.5 242.16,-163.5 197.39,-163.5 197.39,-163.5"></path><polygon fill="#333333" fill-opacity="0.600000" stroke="#333333" stroke-width="2" stroke-opacity="0.600000" points="245.66,-154.38 242.16,-144.38 238.66,-154.38 245.66,-154.38"></polygon><polygon fill="#333333" fill-opacity="0.600000" stroke="#333333" stroke-width="2" stroke-opacity="0.600000" points="198.91,-160 188.91,-163.5 198.91,-167 198.91,-160"></polygon></g><!-- ndiag:internal&#45;&gt;documents:index document --><g id="edge-3" class="edge"><title>ndiag:internal-&gt;documents:index document</title><path fill="none" stroke="#333333" stroke-width="2" stroke-opacity="0.600000" d="M262.8,-104.56C262.8,-84.57 262.8,-55.5 262.8,-55.5 262.8,-55.5 330.59,-55.5 330.59,-55.5"></path><polygon fill="#333333" fill-opacity="0.600000" stroke="#333333" stroke-width="2" stroke-opacity="0.600000" points="329.08,-59 339.08,-55.5 329.08,-52 329.08,-59"></polygon></g><!-- ndiag:internal&#45;&gt;documents:custom documents --><g id="edge-4" class="edge"><title>ndiag:internal-&gt;documents:custom documents</title><path fill="none" stroke="#333333" stroke-width="2" stroke-opacity="0.600000" d="M283.73,-109.5C283.73,-109.5 321.33,-109.5 321.33,-109.5"></path><polygon fill="#333333" fill-opacity="0.600000" stroke="#333333" stroke-width="2" stroke-opacity="0.600000" points="319.82,-113 329.82,-109.5 319.82,-106 319.82,-113"></polygon></g><!-- ndiag:internal&#45;&gt;documents:layer based documents --><g id="edge-5" class="edge"><title>ndiag:internal-&gt;documents:layer based documents</title><path fill="none" stroke="#333333" stroke-width="2" stroke-opacity="0.600000" d="M283.73,-136.5C283.73,-136.5 307.69,-136.5 307.69,-136.5"></path><polygon fill="#333333" fill-opacity="0.600000" stroke="#333333" stroke-width="2" stroke-opacity="0.600000" points="306.18,-140 316.18,-136.5 306.18,-133 306.18,-140"></polygon></g><!-- ndiag:internal&#45;&gt;documents:label based documents --><g id="edge-6" class="edge"><title>ndiag:internal-&gt;documents:label based documents</title><path fill="none" stroke="#333333" stroke-width="2" stroke-opacity="0.600000" d="M262.8,-141.44C262.8,-161.43 262.8,-190.5 262.8,-190.5 262.8,-190.5 308.2,-190.5 308.2,-190.5"></path><polygon fill="#333333" fill-opacity="0.600000" stroke="#333333" stroke-width="2" stroke-opacity="0.600000" points="306.69,-194 316.69,-190.5 306.69,-187 306.69,-194"></polygon></g></g></svg>