<?xml version="1.0" encoding="UTF-8" standalone="no"?><!-- Generated by graphviz version 2.40.1 (20161225.0304)
 --><!-- Title: ndiag Pages: 1 --><svg width="132pt" height="186pt" viewBox="0.00 0.00 132.00 185.60" xmlns="http://www.w3.org/2000/svg" xmlns:xlink="http://www.w3.org/1999/xlink"><g id="graph0" class="graph" transform="scale(1 1) rotate(0) translate(4 181.6)"><title>ndiag</title><polygon fill="#ffffff" stroke="transparent" points="-4,4 -4,-181.6 128,-181.6 128,4 -4,4"></polygon><g id="clust2" class="cluster"><title>cluster_app</title><polygon fill="none" stroke="#999999" stroke-width="2" points="16,-92.8 16,-169.6 108,-169.6 108,-92.8 16,-92.8"></polygon><text text-anchor="middle" x="62" y="-153" font-family="Arial" font-size="14.00" fill="#666666">app</text></g><g id="clust1" class="cluster"><title>cluster_db</title><polygon fill="none" stroke="#000000" stroke-width="2" points="8,-8 8,-84.8 116,-84.8 116,-8 8,-8"></polygon><text text-anchor="middle" x="62" y="-68.2" font-family="Arial" font-size="14.00" fill="#000000">db</text></g><!-- db:postgresql --><g id="node1" class="node"><title>db:postgresql</title><path fill="#ffffff" stroke="#4b75b9" stroke-width="3" d="M96.2457,-52C96.2457,-52 27.7543,-52 27.7543,-52 21.7543,-52 15.7543,-46 15.7543,-40 15.7543,-40 15.7543,-28 15.7543,-28 15.7543,-22 21.7543,-16 27.7543,-16 27.7543,-16 96.2457,-16 96.2457,-16 102.2457,-16 108.2457,-22 108.2457,-28 108.2457,-28 108.2457,-40 108.2457,-40 108.2457,-46 102.2457,-52 96.2457,-52"></path><text text-anchor="middle" x="62" y="-29.8" font-family="Arial" font-size="14.00" fill="#333333">PostgreSQL</text></g><!-- app:rails app --><g id="node2" class="node"><title>app:rails app</title><path fill="#ffffff" stroke="#4b75b9" stroke-width="3" d="M87.8949,-136.8C87.8949,-136.8 36.1051,-136.8 36.1051,-136.8 30.1051,-136.8 24.1051,-130.8 24.1051,-124.8 24.1051,-124.8 24.1051,-112.8 24.1051,-112.8 24.1051,-106.8 30.1051,-100.8 36.1051,-100.8 36.1051,-100.8 87.8949,-100.8 87.8949,-100.8 93.8949,-100.8 99.8949,-106.8 99.8949,-112.8 99.8949,-112.8 99.8949,-124.8 99.8949,-124.8 99.8949,-130.8 93.8949,-136.8 87.8949,-136.8"></path><text text-anchor="middle" x="62" y="-114.6" font-family="Arial" font-size="14.00" fill="#333333">Rails App</text></g><!-- app:rails app&#45;&gt;db:postgresql --><g id="edge1" class="edge"><title>app:rails app-&gt;db:postgresql</title><path fill="none" stroke="#333333" stroke-width="2" stroke-opacity="0.600000" d="M62,-100.3997C62,-100.3997 62,-62.0731 62,-62.0731"></path><polygon fill="#333333" fill-opacity="0.600000" stroke="#333333" stroke-width="2" stroke-opacity="0.600000" points="65.5001,-62.0731 62,-52.0731 58.5001,-62.0731 65.5001,-62.0731"></polygon></g></g></svg>