<?xml version="1.0" encoding="UTF-8" standalone="no"?><!-- Generated by graphviz version 12.1.2 (20240928.0832)
 --><!-- Title: ndiag Pages: 1 --><svg width="204pt" height="186pt" viewBox="0.00 0.00 204.00 185.60" xmlns="http://www.w3.org/2000/svg" xmlns:xlink="http://www.w3.org/1999/xlink"><g id="graph0" class="graph" transform="scale(1 1) rotate(0) translate(4 181.6)"><title>ndiag</title><polygon fill="white" stroke="none" points="-4,4 -4,-181.6 200,-181.6 200,4 -4,4"></polygon><g id="clust1" class="cluster"><title>cluster_lb</title><polygon fill="none" stroke="black" stroke-width="2" points="8,-92.8 8,-169.6 188,-169.6 188,-92.8 8,-92.8"></polygon><text text-anchor="middle" x="98" y="-153" font-family="Arial" font-size="14.00">lb</text></g><g id="clust2" class="cluster"><title>cluster_app</title><polygon fill="none" stroke="#999999" stroke-width="2" points="8,-8 8,-84.8 84,-84.8 84,-8 8,-8"></polygon><text text-anchor="middle" x="46" y="-68.2" font-family="Arial" font-size="14.00" fill="#666666">app</text></g><!-- lb:nginx --><g id="node1" class="node"><title>lb:nginx</title><path fill="#ffffff" stroke="#4b75b9" stroke-width="3" d="M64.17,-136.8C64.17,-136.8 27.83,-136.8 27.83,-136.8 21.83,-136.8 15.83,-130.8 15.83,-124.8 15.83,-124.8 15.83,-112.8 15.83,-112.8 15.83,-106.8 21.83,-100.8 27.83,-100.8 27.83,-100.8 64.17,-100.8 64.17,-100.8 70.17,-100.8 76.17,-106.8 76.17,-112.8 76.17,-112.8 76.17,-124.8 76.17,-124.8 76.17,-130.8 70.17,-136.8 64.17,-136.8"></path><text text-anchor="middle" x="46" y="-114.6" font-family="Arial" font-size="14.00" fill="#333333">NGINX</text></g><!-- app:nginx --><g id="node3" class="node"><title>app:nginx</title><path fill="#ffffff" stroke="#4b75b9" stroke-width="3" d="M64.17,-52C64.17,-52 27.83,-52 27.83,-52 21.83,-52 15.83,-46 15.83,-40 15.83,-40 15.83,-28 15.83,-28 15.83,-22 21.83,-16 27.83,-16 27.83,-16 64.17,-16 64.17,-16 70.17,-16 76.17,-22 76.17,-28 76.17,-28 76.17,-40 76.17,-40 76.17,-46 70.17,-52 64.17,-52"></path><text text-anchor="middle" x="46" y="-29.8" font-family="Arial" font-size="14.00" fill="#333333">NGINX</text></g><!-- lb:nginx&#45;&gt;app:nginx --><g id="edge2" class="edge"><title>lb:nginx-&gt;app:nginx</title><path fill="none" stroke="#333333" stroke-width="2" stroke-opacity="0.600000" d="M46,-100.4C46,-100.4 46,-63.88 46,-63.88"></path><polygon fill="#333333" fill-opacity="0.600000" stroke="#333333" stroke-width="2" stroke-opacity="0.600000" points="49.5,-65.39 46,-55.39 42.5,-65.39 49.5,-65.39"></polygon></g><!-- lb:keepalived --><g id="node2" class="node"><title>lb:keepalived</title><path fill="#ffffff" stroke="#4b75b9" stroke-width="3" d="M167.64,-136.8C167.64,-136.8 106.36,-136.8 106.36,-136.8 100.36,-136.8 94.36,-130.8 94.36,-124.8 94.36,-124.8 94.36,-112.8 94.36,-112.8 94.36,-106.8 100.36,-100.8 106.36,-100.8 106.36,-100.8 167.64,-100.8 167.64,-100.8 173.64,-100.8 179.64,-106.8 179.64,-112.8 179.64,-112.8 179.64,-124.8 179.64,-124.8 179.64,-130.8 173.64,-136.8 167.64,-136.8"></path><text text-anchor="middle" x="137" y="-114.6" font-family="Arial" font-size="14.00" fill="#333333">Keepalived</text></g><!-- vip --><g id="node4" class="node"><title>vip</title><path fill="none" stroke="black" stroke-width="2" d="M144,-52C144,-52 114,-52 114,-52 108,-52 102,-46 102,-40 102,-40 102,-28 102,-28 102,-22 108,-16 114,-16 114,-16 144,-16 144,-16 150,-16 156,-22 156,-28 156,-28 156,-40 156,-40 156,-46 150,-52 144,-52"></path><text text-anchor="middle" x="129" y="-29.8" font-family="Arial" font-size="14.00">vip</text></g><!-- lb:keepalived&#45;&gt;vip --><g id="edge3" class="edge"><title>lb:keepalived-&gt;vip</title><path fill="none" stroke="#4b75b9" stroke-width="2" stroke-dasharray="5,2" d="M129,-100.4C129,-100.4 129,-61.36 129,-61.36"></path><ellipse fill="#4b75b9" stroke="#4b75b9" stroke-width="2" cx="129" cy="-57.36" rx="4" ry="4"></ellipse></g><!-- vip&#45;&gt;lb:nginx --><g id="edge1" class="edge"><title>vip-&gt;lb:nginx</title><path fill="none" stroke="#333333" stroke-width="2" stroke-opacity="0.600000" d="M101.55,-34C92.76,-34 85.27,-34 85.27,-34 85.27,-34 85.27,-118.8 85.27,-118.8 85.27,-118.8 84.39,-118.8 84.39,-118.8"></path><polygon fill="#333333" fill-opacity="0.600000" stroke="#333333" stroke-width="2" stroke-opacity="0.600000" points="89.58,-115.3 79.58,-118.8 89.58,-122.3 89.58,-115.3"></polygon></g></g></svg>