<?xml version="1.0" encoding="UTF-8" standalone="no"?>
<!DOCTYPE svg PUBLIC "-//W3C//DTD SVG 1.1//EN"
 "http://www.w3.org/Graphics/SVG/1.1/DTD/svg11.dtd">
<!-- Generated by graphviz version 12.1.2 (20240928.0832)
 -->
<!-- Title: ndiag Pages: 1 -->
<svg width="174pt" height="101pt" viewBox="0.00 0.00 174.34 101.00" xmlns="http://www.w3.org/2000/svg" xmlns:xlink="http://www.w3.org/1999/xlink">
<g id="graph0" class="graph" transform="scale(1 1) rotate(0) translate(4 97)">
<title>ndiag</title>
<polygon fill="white" stroke="none" points="-4,4 -4,-97 170.34,-97 170.34,4 -4,4"></polygon>
<g id="clust1" class="cluster">
<title>cluster_lb</title>
<polygon fill="none" stroke="black" stroke-width="2" points="82,-8 82,-85 158.34,-85 158.34,-8 82,-8"></polygon>
<text text-anchor="middle" x="120.17" y="-68.4" font-family="Arial" font-size="14.00">lb</text>
</g>
<!-- lb:nginx -->
<g id="node1" class="node">
<title>lb:nginx</title>
<path fill="#ffffff" stroke="#4b75b9" stroke-width="3" d="M138.34,-52C138.34,-52 102,-52 102,-52 96,-52 90,-46 90,-40 90,-40 90,-28 90,-28 90,-22 96,-16 102,-16 102,-16 138.34,-16 138.34,-16 144.34,-16 150.34,-22 150.34,-28 150.34,-28 150.34,-40 150.34,-40 150.34,-46 144.34,-52 138.34,-52"></path>
<text text-anchor="middle" x="120.17" y="-29.8" font-family="Arial" font-size="14.00" fill="#333333">NGINX</text>
</g>
<!-- vip -->
<g id="node2" class="node">
<title>vip</title>
<path fill="none" stroke="black" stroke-width="2" d="M42,-52C42,-52 12,-52 12,-52 6,-52 0,-46 0,-40 0,-40 0,-28 0,-28 0,-22 6,-16 12,-16 12,-16 42,-16 42,-16 48,-16 54,-22 54,-28 54,-28 54,-40 54,-40 54,-46 48,-52 42,-52"></path>
<text text-anchor="middle" x="27" y="-29.8" font-family="Arial" font-size="14.00">vip</text>
</g>
<!-- vip&#45;&gt;lb:nginx -->
<g id="edge-0" class="edge">
<title>vip-&gt;lb:nginx</title>
<path fill="none" stroke="#333333" stroke-width="2" stroke-opacity="0.600000" d="M54.45,-34C54.45,-34 78.14,-34 78.14,-34"></path>
<polygon fill="#333333" fill-opacity="0.600000" stroke="#333333" stroke-width="2" stroke-opacity="0.600000" points="76.63,-37.5 86.63,-34 76.63,-30.5 76.63,-37.5"></polygon>
</g>
</g>
</svg>
