<?xml version="1.0" encoding="UTF-8" standalone="no"?>
<!DOCTYPE svg PUBLIC "-//W3C//DTD SVG 1.1//EN"
 "http://www.w3.org/Graphics/SVG/1.1/DTD/svg11.dtd">
<!-- Generated by graphviz version 12.1.2 (20240928.0832)
 -->
<!-- Title: ndiag Pages: 1 -->
<svg width="224pt" height="137pt" viewBox="0.00 0.00 224.11 137.00" xmlns="http://www.w3.org/2000/svg" xmlns:xlink="http://www.w3.org/1999/xlink">
<g id="graph0" class="graph" transform="scale(1 1) rotate(0) translate(4 133)">
<title>ndiag</title>
<polygon fill="white" stroke="none" points="-4,4 -4,-133 220.11,-133 220.11,4 -4,4"></polygon>
<g id="clust1" class="cluster">
<title>cluster_lb</title>
<polygon fill="none" stroke="black" stroke-width="2" points="28.06,-8 28.06,-85 98.06,-85 98.06,-8 28.06,-8"></polygon>
<text text-anchor="middle" x="63.06" y="-68.4" font-family="Arial" font-size="14.00">lb</text>
</g>
<!-- none -->
<g id="node1" class="node">
<title>none</title>
<text text-anchor="middle" x="63.06" y="-29.8" font-family="Times,serif" font-size="14.00">none</text>
</g>
<!-- vip -->
<g id="node2" class="node">
<title>vip</title>
<path fill="none" stroke="black" stroke-width="2" d="M204.11,-129C204.11,-129 174.11,-129 174.11,-129 168.11,-129 162.11,-123 162.11,-117 162.11,-117 162.11,-105 162.11,-105 162.11,-99 168.11,-93 174.11,-93 174.11,-93 204.11,-93 204.11,-93 210.11,-93 216.11,-99 216.11,-105 216.11,-105 216.11,-117 216.11,-117 216.11,-123 210.11,-129 204.11,-129"></path>
<text text-anchor="middle" x="189.11" y="-106.8" font-family="Arial" font-size="14.00">vip</text>
</g>
<!-- lb:keepalived -->
<g id="node3" class="node">
<title>lb:keepalived</title>
<ellipse fill="none" stroke="black" cx="63.06" cy="-111" rx="63.06" ry="18"></ellipse>
<text text-anchor="middle" x="63.06" y="-106.8" font-family="Times,serif" font-size="14.00">lb:keepalived</text>
</g>
<!-- lb:keepalived&#45;&gt;vip -->
<g id="edge-0" class="edge">
<title>lb:keepalived-&gt;vip</title>
<path fill="none" stroke="#4b75b9" stroke-width="2" stroke-dasharray="5,2" d="M126.45,-111C126.45,-111 152.64,-111 152.64,-111"></path>
<ellipse fill="#4b75b9" stroke="#4b75b9" stroke-width="2" cx="156.64" cy="-111" rx="4" ry="4"></ellipse>
</g>
</g>
</svg>
