<?xml version="1.0" encoding="UTF-8" standalone="no"?><!-- Generated by graphviz version 2.40.1 (20161225.0304)
 --><!-- Title: ndiag Pages: 1 --><svg width="174pt" height="101pt" viewBox="0.00 0.00 174.33 101.00" xmlns="http://www.w3.org/2000/svg" xmlns:xlink="http://www.w3.org/1999/xlink"><g id="graph0" class="graph" transform="scale(1 1) rotate(0) translate(4 97)"><title>ndiag</title><polygon fill="#ffffff" stroke="transparent" points="-4,4 -4,-97 170.331,-97 170.331,4 -4,4"></polygon><g id="clust1" class="cluster"><title>cluster_lb</title><polygon fill="none" stroke="#000000" stroke-width="2" points="82,-8 82,-85 158.331,-85 158.331,-8 82,-8"></polygon><text text-anchor="middle" x="120.1655" y="-68.4" font-family="Arial" font-size="14.00" fill="#000000">lb</text></g><!-- lb:nginx --><g id="node1" class="node"><title>lb:nginx</title><path fill="#ffffff" stroke="#4b75b9" stroke-width="3" d="M138.4974,-52C138.4974,-52 101.8336,-52 101.8336,-52 95.8336,-52 89.8336,-46 89.8336,-40 89.8336,-40 89.8336,-28 89.8336,-28 89.8336,-22 95.8336,-16 101.8336,-16 101.8336,-16 138.4974,-16 138.4974,-16 144.4974,-16 150.4974,-22 150.4974,-28 150.4974,-28 150.4974,-40 150.4974,-40 150.4974,-46 144.4974,-52 138.4974,-52"></path><text text-anchor="middle" x="120.1655" y="-29.8" font-family="Arial" font-size="14.00" fill="#333333">NGINX</text></g><!-- vip --><g id="node2" class="node"><title>vip</title><path fill="none" stroke="#000000" stroke-width="2" d="M42,-52C42,-52 12,-52 12,-52 6,-52 0,-46 0,-40 0,-40 0,-28 0,-28 0,-22 6,-16 12,-16 12,-16 42,-16 42,-16 48,-16 54,-22 54,-28 54,-28 54,-40 54,-40 54,-46 48,-52 42,-52"></path><text text-anchor="middle" x="27" y="-29.8" font-family="Arial" font-size="14.00" fill="#000000">vip</text></g><!-- vip&#45;&gt;lb:nginx --><g id="edge-0" class="edge"><title>vip-&gt;lb:nginx</title><path fill="none" stroke="#333333" stroke-width="2" stroke-opacity="0.600000" d="M54.4488,-34C54.4488,-34 79.9817,-34 79.9817,-34"></path><polygon fill="#333333" fill-opacity="0.600000" stroke="#333333" stroke-width="2" stroke-opacity="0.600000" points="79.9817,-37.5001 89.9817,-34 79.9816,-30.5001 79.9817,-37.5001"></polygon></g></g></svg>