<?xml version="1.0" encoding="UTF-8" standalone="no"?><!-- Generated by graphviz version 2.40.1 (20161225.0304)
 --><!-- Title: ndiag Pages: 1 --><svg width="161pt" height="44pt" viewBox="0.00 0.00 160.68 44.00" xmlns="http://www.w3.org/2000/svg" xmlns:xlink="http://www.w3.org/1999/xlink"><g id="graph0" class="graph" transform="scale(1 1) rotate(0) translate(4 40)"><title>ndiag</title><polygon fill="#ffffff" stroke="transparent" points="-4,4 -4,-40 156.6788,-40 156.6788,4 -4,4"></polygon><!-- internet --><g id="node1" class="node"><title>internet</title><path fill="none" stroke="#000000" stroke-width="2" d="M50.519,-36C50.519,-36 12.1598,-36 12.1598,-36 6.1598,-36 .1598,-30 .1598,-24 .1598,-24 .1598,-12 .1598,-12 .1598,-6 6.1598,0 12.1598,0 12.1598,0 50.519,0 50.519,0 56.519,0 62.519,-6 62.519,-12 62.519,-12 62.519,-24 62.519,-24 62.519,-30 56.519,-36 50.519,-36"></path><text text-anchor="middle" x="31.3394" y="-13.8" font-family="Arial" font-size="14.00" fill="#000000">internet</text></g><!-- vip --><g id="node2" class="node"><title>vip</title><path fill="none" stroke="#000000" stroke-width="2" d="M140.6788,-36C140.6788,-36 110.6788,-36 110.6788,-36 104.6788,-36 98.6788,-30 98.6788,-24 98.6788,-24 98.6788,-12 98.6788,-12 98.6788,-6 104.6788,0 110.6788,0 110.6788,0 140.6788,0 140.6788,0 146.6788,0 152.6788,-6 152.6788,-12 152.6788,-12 152.6788,-24 152.6788,-24 152.6788,-30 146.6788,-36 140.6788,-36"></path><text text-anchor="middle" x="125.6788" y="-13.8" font-family="Arial" font-size="14.00" fill="#000000">vip</text></g><!-- internet&#45;&gt;vip --><g id="edge-0" class="edge"><title>internet-&gt;vip</title><path fill="none" stroke="#333333" stroke-width="2" stroke-opacity="0.600000" d="M62.7531,-18C62.7531,-18 88.5106,-18 88.5106,-18"></path><polygon fill="#333333" fill-opacity="0.600000" stroke="#333333" stroke-width="2" stroke-opacity="0.600000" points="88.5106,-21.5001 98.5106,-18 88.5106,-14.5001 88.5106,-21.5001"></polygon></g></g></svg>