<?xml version="1.0" encoding="UTF-8" standalone="no"?><!-- Generated by graphviz version 2.40.1 (20161225.0304)
 --><!-- Title: ndiag Pages: 1 --><svg width="199pt" height="101pt" viewBox="0.00 0.00 199.25 101.00" xmlns="http://www.w3.org/2000/svg" xmlns:xlink="http://www.w3.org/1999/xlink"><g id="graph0" class="graph" transform="scale(1 1) rotate(0) translate(4 97)"><title>ndiag</title><polygon fill="#ffffff" stroke="transparent" points="-4,4 -4,-97 195.2454,-97 195.2454,4 -4,4"></polygon><g id="clust1" class="cluster"><title>cluster_lb</title><polygon fill="none" stroke="#000000" stroke-width="2" points="8,-8 8,-85 109.2454,-85 109.2454,-8 8,-8"></polygon><text text-anchor="middle" x="58.6227" y="-68.4" font-family="Arial" font-size="14.00" fill="#000000">lb</text></g><!-- lb:keepalived --><g id="node1" class="node"><title>lb:keepalived</title><path fill="#ffffff" stroke="#4b75b9" stroke-width="3" d="M89.3685,-52C89.3685,-52 27.8769,-52 27.8769,-52 21.8769,-52 15.8769,-46 15.8769,-40 15.8769,-40 15.8769,-28 15.8769,-28 15.8769,-22 21.8769,-16 27.8769,-16 27.8769,-16 89.3685,-16 89.3685,-16 95.3685,-16 101.3685,-22 101.3685,-28 101.3685,-28 101.3685,-40 101.3685,-40 101.3685,-46 95.3685,-52 89.3685,-52"></path><text text-anchor="middle" x="58.6227" y="-29.8" font-family="Arial" font-size="14.00" fill="#333333">Keepalived</text></g><!-- vip --><g id="node2" class="node"><title>vip</title><path fill="none" stroke="#000000" stroke-width="2" d="M179.2454,-52C179.2454,-52 149.2454,-52 149.2454,-52 143.2454,-52 137.2454,-46 137.2454,-40 137.2454,-40 137.2454,-28 137.2454,-28 137.2454,-22 143.2454,-16 149.2454,-16 149.2454,-16 179.2454,-16 179.2454,-16 185.2454,-16 191.2454,-22 191.2454,-28 191.2454,-28 191.2454,-40 191.2454,-40 191.2454,-46 185.2454,-52 179.2454,-52"></path><text text-anchor="middle" x="164.2454" y="-29.8" font-family="Arial" font-size="14.00" fill="#000000">vip</text></g><!-- lb:keepalived&#45;&gt;vip --><g id="edge-0" class="edge"><title>lb:keepalived-&gt;vip</title><path fill="none" stroke="#4b75b9" stroke-width="2" stroke-dasharray="5,2" d="M101.279,-34C101.279,-34 129.227,-34 129.227,-34"></path><ellipse fill="#4b75b9" stroke="#4b75b9" stroke-width="2" cx="133.227" cy="-34" rx="4" ry="4"></ellipse></g></g></svg>