<?xml version="1.0" encoding="UTF-8" standalone="no"?><!-- Generated by graphviz version 2.40.1 (20161225.0304)
 --><!-- Title: ndiag Pages: 1 --><svg width="340pt" height="342pt" viewBox="0.00 0.00 340.34 342.40" xmlns="http://www.w3.org/2000/svg" xmlns:xlink="http://www.w3.org/1999/xlink"><g id="graph0" class="graph" transform="scale(1 1) rotate(0) translate(4 338.4)"><title>ndiag</title><polygon fill="#ffffff" stroke="transparent" points="-4,4 -4,-338.4 336.3394,-338.4 336.3394,4 -4,4"></polygon><g id="clust3" class="cluster"><title>cluster_db</title><polygon fill="none" stroke="#000000" stroke-width="2" points="8,-8 8,-84.8 116,-84.8 116,-8 8,-8"></polygon><text text-anchor="middle" x="62" y="-68.2" font-family="Arial" font-size="14.00" fill="#000000">db</text></g><g id="clust2" class="cluster"><title>cluster_app</title><polygon fill="none" stroke="#000000" stroke-width="2" points="80,-92.8 80,-241.6 156,-241.6 156,-92.8 80,-92.8"></polygon><text text-anchor="middle" x="118" y="-225" font-family="Arial" font-size="14.00" fill="#000000">app</text></g><g id="clust1" class="cluster"><title>cluster_lb</title><polygon fill="none" stroke="#000000" stroke-width="2" points="80,-249.6 80,-326.4 260,-326.4 260,-249.6 80,-249.6"></polygon><text text-anchor="middle" x="170" y="-309.8" font-family="Arial" font-size="14.00" fill="#000000">lb</text></g><!-- lb:nginx --><g id="node1" class="node"><title>lb:nginx</title><path fill="#ffffff" stroke="#4b75b9" stroke-width="3" d="M136.3319,-293.6C136.3319,-293.6 99.6681,-293.6 99.6681,-293.6 93.6681,-293.6 87.6681,-287.6 87.6681,-281.6 87.6681,-281.6 87.6681,-269.6 87.6681,-269.6 87.6681,-263.6 93.6681,-257.6 99.6681,-257.6 99.6681,-257.6 136.3319,-257.6 136.3319,-257.6 142.3319,-257.6 148.3319,-263.6 148.3319,-269.6 148.3319,-269.6 148.3319,-281.6 148.3319,-281.6 148.3319,-287.6 142.3319,-293.6 136.3319,-293.6"></path><text text-anchor="middle" x="118" y="-271.4" font-family="Arial" font-size="14.00" fill="#333333">NGINX</text></g><!-- app:nginx --><g id="node3" class="node"><title>app:nginx</title><path fill="#ffffff" stroke="#4b75b9" stroke-width="3" d="M136.3319,-208.8C136.3319,-208.8 99.6681,-208.8 99.6681,-208.8 93.6681,-208.8 87.6681,-202.8 87.6681,-196.8 87.6681,-196.8 87.6681,-184.8 87.6681,-184.8 87.6681,-178.8 93.6681,-172.8 99.6681,-172.8 99.6681,-172.8 136.3319,-172.8 136.3319,-172.8 142.3319,-172.8 148.3319,-178.8 148.3319,-184.8 148.3319,-184.8 148.3319,-196.8 148.3319,-196.8 148.3319,-202.8 142.3319,-208.8 136.3319,-208.8"></path><text text-anchor="middle" x="118" y="-186.6" font-family="Arial" font-size="14.00" fill="#333333">NGINX</text></g><!-- lb:nginx&#45;&gt;app:nginx --><g id="edge-2" class="edge"><title>lb:nginx-&gt;app:nginx</title><path fill="none" stroke="#333333" stroke-width="2" stroke-opacity="0.600000" d="M118,-257.1997C118,-257.1997 118,-218.8731 118,-218.8731"></path><polygon fill="#333333" fill-opacity="0.600000" stroke="#333333" stroke-width="2" stroke-opacity="0.600000" points="121.5001,-218.8731 118,-208.8731 114.5001,-218.8731 121.5001,-218.8731"></polygon></g><!-- lb:keepalived --><g id="node2" class="node"><title>lb:keepalived</title><path fill="#ffffff" stroke="#4b75b9" stroke-width="3" d="M239.7458,-293.6C239.7458,-293.6 178.2542,-293.6 178.2542,-293.6 172.2542,-293.6 166.2542,-287.6 166.2542,-281.6 166.2542,-281.6 166.2542,-269.6 166.2542,-269.6 166.2542,-263.6 172.2542,-257.6 178.2542,-257.6 178.2542,-257.6 239.7458,-257.6 239.7458,-257.6 245.7458,-257.6 251.7458,-263.6 251.7458,-269.6 251.7458,-269.6 251.7458,-281.6 251.7458,-281.6 251.7458,-287.6 245.7458,-293.6 239.7458,-293.6"></path><text text-anchor="middle" x="209" y="-271.4" font-family="Arial" font-size="14.00" fill="#333333">Keepalived</text></g><!-- vip --><g id="node7" class="node"><title>vip</title><path fill="none" stroke="#000000" stroke-width="2" d="M224,-208.8C224,-208.8 194,-208.8 194,-208.8 188,-208.8 182,-202.8 182,-196.8 182,-196.8 182,-184.8 182,-184.8 182,-178.8 188,-172.8 194,-172.8 194,-172.8 224,-172.8 224,-172.8 230,-172.8 236,-178.8 236,-184.8 236,-184.8 236,-196.8 236,-196.8 236,-202.8 230,-208.8 224,-208.8"></path><text text-anchor="middle" x="209" y="-186.6" font-family="Arial" font-size="14.00" fill="#000000">vip</text></g><!-- lb:keepalived&#45;&gt;vip --><g id="edge-6" class="edge"><title>lb:keepalived-&gt;vip</title><path fill="none" stroke="#4b75b9" stroke-width="2" stroke-dasharray="5,2" d="M209,-257.1997C209,-257.1997 209,-216.8731 209,-216.8731"></path><ellipse fill="#4b75b9" stroke="#4b75b9" stroke-width="2" cx="209" cy="-212.8731" rx="4" ry="4"></ellipse></g><!-- app:app --><g id="node4" class="node"><title>app:app</title><path fill="#ffffff" stroke="#4b75b9" stroke-width="3" d="M133,-136.8C133,-136.8 103,-136.8 103,-136.8 97,-136.8 91,-130.8 91,-124.8 91,-124.8 91,-112.8 91,-112.8 91,-106.8 97,-100.8 103,-100.8 103,-100.8 133,-100.8 133,-100.8 139,-100.8 145,-106.8 145,-112.8 145,-112.8 145,-124.8 145,-124.8 145,-130.8 139,-136.8 133,-136.8"></path><text text-anchor="middle" x="118" y="-114.6" font-family="Arial" font-size="14.00" fill="#333333">App</text></g><!-- app:nginx&#45;&gt;app:app --><g id="edge-3" class="edge"><title>app:nginx-&gt;app:app</title><path fill="none" stroke="#333333" stroke-width="2" stroke-opacity="0.600000" d="M118,-172.6314C118,-172.6314 118,-147.2133 118,-147.2133"></path><polygon fill="#333333" fill-opacity="0.600000" stroke="#333333" stroke-width="2" stroke-opacity="0.600000" points="121.5001,-147.2132 118,-137.2133 114.5001,-147.2133 121.5001,-147.2132"></polygon></g><!-- db:postgresql --><g id="node5" class="node"><title>db:postgresql</title><path fill="#ffffff" stroke="#4b75b9" stroke-width="3" d="M96.2457,-52C96.2457,-52 27.7543,-52 27.7543,-52 21.7543,-52 15.7543,-46 15.7543,-40 15.7543,-40 15.7543,-28 15.7543,-28 15.7543,-22 21.7543,-16 27.7543,-16 27.7543,-16 96.2457,-16 96.2457,-16 102.2457,-16 108.2457,-22 108.2457,-28 108.2457,-28 108.2457,-40 108.2457,-40 108.2457,-46 102.2457,-52 96.2457,-52"></path><text text-anchor="middle" x="62" y="-29.8" font-family="Arial" font-size="14.00" fill="#333333">PostgreSQL</text></g><!-- app:app&#45;&gt;db:postgresql --><g id="edge-4" class="edge"><title>app:app-&gt;db:postgresql</title><path fill="none" stroke="#333333" stroke-width="2" stroke-opacity="0.600000" d="M99.5614,-100.3997C99.5614,-100.3997 99.5614,-62.0731 99.5614,-62.0731"></path><polygon fill="#333333" fill-opacity="0.600000" stroke="#333333" stroke-width="2" stroke-opacity="0.600000" points="103.0614,-62.0731 99.5614,-52.0731 96.0614,-62.0731 103.0614,-62.0731"></polygon></g><!-- payment api --><g id="node8" class="node"><title>payment api</title><path fill="none" stroke="#000000" stroke-width="2" d="M211.6905,-52C211.6905,-52 138.3095,-52 138.3095,-52 132.3095,-52 126.3095,-46 126.3095,-40 126.3095,-40 126.3095,-28 126.3095,-28 126.3095,-22 132.3095,-16 138.3095,-16 138.3095,-16 211.6905,-16 211.6905,-16 217.6905,-16 223.6905,-22 223.6905,-28 223.6905,-28 223.6905,-40 223.6905,-40 223.6905,-46 217.6905,-52 211.6905,-52"></path><text text-anchor="middle" x="175" y="-29.8" font-family="Arial" font-size="14.00" fill="#000000">Payment API</text></g><!-- app:app&#45;&gt;payment api --><g id="edge-5" class="edge"><title>app:app-&gt;payment api</title><path fill="none" stroke="#333333" stroke-width="2" stroke-opacity="0.600000" d="M135.5775,-100.3997C135.5775,-100.3997 135.5775,-62.0731 135.5775,-62.0731"></path><polygon fill="#333333" fill-opacity="0.600000" stroke="#333333" stroke-width="2" stroke-opacity="0.600000" points="139.0776,-62.0731 135.5775,-52.0731 132.0776,-62.0731 139.0776,-62.0731"></polygon></g><!-- internet --><g id="node6" class="node"><title>internet</title><path fill="none" stroke="#000000" stroke-width="2" d="M320.1796,-293.6C320.1796,-293.6 281.8204,-293.6 281.8204,-293.6 275.8204,-293.6 269.8204,-287.6 269.8204,-281.6 269.8204,-281.6 269.8204,-269.6 269.8204,-269.6 269.8204,-263.6 275.8204,-257.6 281.8204,-257.6 281.8204,-257.6 320.1796,-257.6 320.1796,-257.6 326.1796,-257.6 332.1796,-263.6 332.1796,-269.6 332.1796,-269.6 332.1796,-281.6 332.1796,-281.6 332.1796,-287.6 326.1796,-293.6 320.1796,-293.6"></path><text text-anchor="middle" x="301" y="-271.4" font-family="Arial" font-size="14.00" fill="#000000">internet</text></g><!-- internet&#45;&gt;vip --><g id="edge-0" class="edge"><title>internet-&gt;vip</title><path fill="none" stroke="#333333" stroke-width="2" stroke-opacity="0.600000" d="M301,-257.4464C301,-232.3193 301,-190 301,-190 301,-190 246.1054,-190 246.1054,-190"></path><polygon fill="#333333" fill-opacity="0.600000" stroke="#333333" stroke-width="2" stroke-opacity="0.600000" points="246.1055,-186.5001 236.1054,-190 246.1054,-193.5001 246.1055,-186.5001"></polygon></g><!-- vip&#45;&gt;lb:nginx --><g id="edge-1" class="edge"><title>vip-&gt;lb:nginx</title><path fill="none" stroke="#333333" stroke-width="2" stroke-opacity="0.600000" d="M181.9237,-190C169.4079,-190 157.2714,-190 157.2714,-190 157.2714,-190 157.2714,-275 157.2714,-275 157.2714,-275 156.3998,-275 156.3998,-275"></path><polygon fill="#333333" fill-opacity="0.600000" stroke="#333333" stroke-width="2" stroke-opacity="0.600000" points="158.5558,-271.5001 148.5558,-275 158.5558,-278.5001 158.5558,-271.5001"></polygon></g></g></svg>