<?xml version="1.0" encoding="UTF-8" standalone="no"?><!-- Generated by graphviz version 2.40.1 (20161225.0304)
 --><!-- Title: ndiag Pages: 1 --><svg width="284pt" height="342pt" viewBox="0.00 0.00 284.34 342.40" xmlns="http://www.w3.org/2000/svg" xmlns:xlink="http://www.w3.org/1999/xlink"><g id="graph0" class="graph" transform="scale(1 1) rotate(0) translate(4 338.4)"><title>ndiag</title><polygon fill="#ffffff" stroke="transparent" points="-4,4 -4,-338.4 280.3394,-338.4 280.3394,4 -4,4"></polygon><g id="clust3" class="cluster"><title>cluster_db</title><polygon fill="none" stroke="#000000" stroke-width="2" points="8,-8 8,-84.8 116,-84.8 116,-8 8,-8"></polygon><text text-anchor="middle" x="62" y="-68.2" font-family="Arial" font-size="14.00" fill="#000000">db</text></g><g id="clust2" class="cluster"><title>cluster_app</title><polygon fill="none" stroke="#000000" stroke-width="2" points="24,-92.8 24,-241.6 100,-241.6 100,-92.8 24,-92.8"></polygon><text text-anchor="middle" x="62" y="-225" font-family="Arial" font-size="14.00" fill="#000000">app</text></g><g id="clust1" class="cluster"><title>cluster_lb</title><polygon fill="none" stroke="#000000" stroke-width="2" points="24,-249.6 24,-326.4 204,-326.4 204,-249.6 24,-249.6"></polygon><text text-anchor="middle" x="114" y="-309.8" font-family="Arial" font-size="14.00" fill="#000000">lb</text></g><!-- lb:nginx --><g id="node1" class="node"><title>lb:nginx</title><path fill="#ffffff" stroke="#4b75b9" stroke-width="3" d="M80.3319,-293.6C80.3319,-293.6 43.6681,-293.6 43.6681,-293.6 37.6681,-293.6 31.6681,-287.6 31.6681,-281.6 31.6681,-281.6 31.6681,-269.6 31.6681,-269.6 31.6681,-263.6 37.6681,-257.6 43.6681,-257.6 43.6681,-257.6 80.3319,-257.6 80.3319,-257.6 86.3319,-257.6 92.3319,-263.6 92.3319,-269.6 92.3319,-269.6 92.3319,-281.6 92.3319,-281.6 92.3319,-287.6 86.3319,-293.6 80.3319,-293.6"></path><text text-anchor="middle" x="62" y="-271.4" font-family="Arial" font-size="14.00" fill="#333333">NGINX</text></g><!-- app:nginx --><g id="node3" class="node"><title>app:nginx</title><path fill="#ffffff" stroke="#4b75b9" stroke-width="3" d="M80.3319,-208.8C80.3319,-208.8 43.6681,-208.8 43.6681,-208.8 37.6681,-208.8 31.6681,-202.8 31.6681,-196.8 31.6681,-196.8 31.6681,-184.8 31.6681,-184.8 31.6681,-178.8 37.6681,-172.8 43.6681,-172.8 43.6681,-172.8 80.3319,-172.8 80.3319,-172.8 86.3319,-172.8 92.3319,-178.8 92.3319,-184.8 92.3319,-184.8 92.3319,-196.8 92.3319,-196.8 92.3319,-202.8 86.3319,-208.8 80.3319,-208.8"></path><text text-anchor="middle" x="62" y="-186.6" font-family="Arial" font-size="14.00" fill="#333333">NGINX</text></g><!-- lb:nginx&#45;&gt;app:nginx --><g id="edge-2" class="edge"><title>lb:nginx-&gt;app:nginx</title><path fill="none" stroke="#333333" stroke-width="2" stroke-opacity="0.600000" d="M62,-257.1997C62,-257.1997 62,-218.8731 62,-218.8731"></path><polygon fill="#333333" fill-opacity="0.600000" stroke="#333333" stroke-width="2" stroke-opacity="0.600000" points="65.5001,-218.8731 62,-208.8731 58.5001,-218.8731 65.5001,-218.8731"></polygon></g><!-- lb:keepalived --><g id="node2" class="node"><title>lb:keepalived</title><path fill="#ffffff" stroke="#4b75b9" stroke-width="3" d="M183.7458,-293.6C183.7458,-293.6 122.2542,-293.6 122.2542,-293.6 116.2542,-293.6 110.2542,-287.6 110.2542,-281.6 110.2542,-281.6 110.2542,-269.6 110.2542,-269.6 110.2542,-263.6 116.2542,-257.6 122.2542,-257.6 122.2542,-257.6 183.7458,-257.6 183.7458,-257.6 189.7458,-257.6 195.7458,-263.6 195.7458,-269.6 195.7458,-269.6 195.7458,-281.6 195.7458,-281.6 195.7458,-287.6 189.7458,-293.6 183.7458,-293.6"></path><text text-anchor="middle" x="153" y="-271.4" font-family="Arial" font-size="14.00" fill="#333333">Keepalived</text></g><!-- vip --><g id="node7" class="node"><title>vip</title><path fill="none" stroke="#000000" stroke-width="2" d="M168,-208.8C168,-208.8 138,-208.8 138,-208.8 132,-208.8 126,-202.8 126,-196.8 126,-196.8 126,-184.8 126,-184.8 126,-178.8 132,-172.8 138,-172.8 138,-172.8 168,-172.8 168,-172.8 174,-172.8 180,-178.8 180,-184.8 180,-184.8 180,-196.8 180,-196.8 180,-202.8 174,-208.8 168,-208.8"></path><text text-anchor="middle" x="153" y="-186.6" font-family="Arial" font-size="14.00" fill="#000000">vip</text></g><!-- lb:keepalived&#45;&gt;vip --><g id="edge-5" class="edge"><title>lb:keepalived-&gt;vip</title><path fill="none" stroke="#4b75b9" stroke-width="2" stroke-dasharray="5,2" d="M153,-257.1997C153,-257.1997 153,-216.8731 153,-216.8731"></path><ellipse fill="#4b75b9" stroke="#4b75b9" stroke-width="2" cx="153" cy="-212.8731" rx="4" ry="4"></ellipse></g><!-- app:app --><g id="node4" class="node"><title>app:app</title><path fill="#ffffff" stroke="#4b75b9" stroke-width="3" d="M77,-136.8C77,-136.8 47,-136.8 47,-136.8 41,-136.8 35,-130.8 35,-124.8 35,-124.8 35,-112.8 35,-112.8 35,-106.8 41,-100.8 47,-100.8 47,-100.8 77,-100.8 77,-100.8 83,-100.8 89,-106.8 89,-112.8 89,-112.8 89,-124.8 89,-124.8 89,-130.8 83,-136.8 77,-136.8"></path><text text-anchor="middle" x="62" y="-114.6" font-family="Arial" font-size="14.00" fill="#333333">App</text></g><!-- app:nginx&#45;&gt;app:app --><g id="edge-3" class="edge"><title>app:nginx-&gt;app:app</title><path fill="none" stroke="#333333" stroke-width="2" stroke-opacity="0.600000" d="M62,-172.6314C62,-172.6314 62,-147.2133 62,-147.2133"></path><polygon fill="#333333" fill-opacity="0.600000" stroke="#333333" stroke-width="2" stroke-opacity="0.600000" points="65.5001,-147.2132 62,-137.2133 58.5001,-147.2133 65.5001,-147.2132"></polygon></g><!-- db:postgresql --><g id="node5" class="node"><title>db:postgresql</title><path fill="#ffffff" stroke="#4b75b9" stroke-width="3" d="M96.2457,-52C96.2457,-52 27.7543,-52 27.7543,-52 21.7543,-52 15.7543,-46 15.7543,-40 15.7543,-40 15.7543,-28 15.7543,-28 15.7543,-22 21.7543,-16 27.7543,-16 27.7543,-16 96.2457,-16 96.2457,-16 102.2457,-16 108.2457,-22 108.2457,-28 108.2457,-28 108.2457,-40 108.2457,-40 108.2457,-46 102.2457,-52 96.2457,-52"></path><text text-anchor="middle" x="62" y="-29.8" font-family="Arial" font-size="14.00" fill="#333333">PostgreSQL</text></g><!-- app:app&#45;&gt;db:postgresql --><g id="edge-4" class="edge"><title>app:app-&gt;db:postgresql</title><path fill="none" stroke="#333333" stroke-width="2" stroke-opacity="0.600000" d="M62,-100.3997C62,-100.3997 62,-62.0731 62,-62.0731"></path><polygon fill="#333333" fill-opacity="0.600000" stroke="#333333" stroke-width="2" stroke-opacity="0.600000" points="65.5001,-62.0731 62,-52.0731 58.5001,-62.0731 65.5001,-62.0731"></polygon></g><!-- internet --><g id="node6" class="node"><title>internet</title><path fill="none" stroke="#000000" stroke-width="2" d="M264.1796,-293.6C264.1796,-293.6 225.8204,-293.6 225.8204,-293.6 219.8204,-293.6 213.8204,-287.6 213.8204,-281.6 213.8204,-281.6 213.8204,-269.6 213.8204,-269.6 213.8204,-263.6 219.8204,-257.6 225.8204,-257.6 225.8204,-257.6 264.1796,-257.6 264.1796,-257.6 270.1796,-257.6 276.1796,-263.6 276.1796,-269.6 276.1796,-269.6 276.1796,-281.6 276.1796,-281.6 276.1796,-287.6 270.1796,-293.6 264.1796,-293.6"></path><text text-anchor="middle" x="245" y="-271.4" font-family="Arial" font-size="14.00" fill="#000000">internet</text></g><!-- internet&#45;&gt;vip --><g id="edge-0" class="edge"><title>internet-&gt;vip</title><path fill="none" stroke="#333333" stroke-width="2" stroke-opacity="0.600000" d="M245,-257.4464C245,-232.3193 245,-190 245,-190 245,-190 190.1054,-190 190.1054,-190"></path><polygon fill="#333333" fill-opacity="0.600000" stroke="#333333" stroke-width="2" stroke-opacity="0.600000" points="190.1055,-186.5001 180.1054,-190 190.1054,-193.5001 190.1055,-186.5001"></polygon></g><!-- vip&#45;&gt;lb:nginx --><g id="edge-1" class="edge"><title>vip-&gt;lb:nginx</title><path fill="none" stroke="#333333" stroke-width="2" stroke-opacity="0.600000" d="M125.9527,-190C112.9484,-190 100.1441,-190 100.1441,-190 100.1441,-190 100.1441,-275 100.1441,-275 100.1441,-275 99.3722,-275 99.3722,-275"></path><polygon fill="#333333" fill-opacity="0.600000" stroke="#333333" stroke-width="2" stroke-opacity="0.600000" points="102.4251,-271.5001 92.4251,-275 102.425,-278.5001 102.4251,-271.5001"></polygon></g></g></svg>