<?xml version="1.0" encoding="UTF-8" standalone="no"?>
<!DOCTYPE svg PUBLIC "-//W3C//DTD SVG 1.1//EN"
 "http://www.w3.org/Graphics/SVG/1.1/DTD/svg11.dtd">
<!-- Generated by graphviz version 12.1.2 (20240928.0832)
 -->
<!-- Title: ndiag Pages: 1 -->
<svg width="340pt" height="342pt" viewBox="0.00 0.00 340.35 342.40" xmlns="http://www.w3.org/2000/svg" xmlns:xlink="http://www.w3.org/1999/xlink">
<g id="graph0" class="graph" transform="scale(1 1) rotate(0) translate(4 338.4)">
<title>ndiag</title>
<polygon fill="white" stroke="none" points="-4,4 -4,-338.4 336.35,-338.4 336.35,4 -4,4"></polygon>
<g id="clust1" class="cluster">
<title>cluster_lb</title>
<polygon fill="none" stroke="black" stroke-width="2" points="80,-249.6 80,-326.4 260,-326.4 260,-249.6 80,-249.6"></polygon>
<text text-anchor="middle" x="170" y="-309.8" font-family="Arial" font-size="14.00">lb</text>
</g>
<g id="clust2" class="cluster">
<title>cluster_app</title>
<polygon fill="none" stroke="black" stroke-width="2" points="80,-92.8 80,-241.6 156,-241.6 156,-92.8 80,-92.8"></polygon>
<text text-anchor="middle" x="118" y="-225" font-family="Arial" font-size="14.00">app</text>
</g>
<g id="clust3" class="cluster">
<title>cluster_db</title>
<polygon fill="none" stroke="black" stroke-width="2" points="8,-8 8,-84.8 116,-84.8 116,-8 8,-8"></polygon>
<text text-anchor="middle" x="62" y="-68.2" font-family="Arial" font-size="14.00">db</text>
</g>
<!-- lb:nginx -->
<g id="node1" class="node">
<title>lb:nginx</title>
<path fill="#ffffff" stroke="#4b75b9" stroke-width="3" d="M136.17,-293.6C136.17,-293.6 99.83,-293.6 99.83,-293.6 93.83,-293.6 87.83,-287.6 87.83,-281.6 87.83,-281.6 87.83,-269.6 87.83,-269.6 87.83,-263.6 93.83,-257.6 99.83,-257.6 99.83,-257.6 136.17,-257.6 136.17,-257.6 142.17,-257.6 148.17,-263.6 148.17,-269.6 148.17,-269.6 148.17,-281.6 148.17,-281.6 148.17,-287.6 142.17,-293.6 136.17,-293.6"></path>
<text text-anchor="middle" x="118" y="-271.4" font-family="Arial" font-size="14.00" fill="#333333">NGINX</text>
</g>
<!-- app:nginx -->
<g id="node3" class="node">
<title>app:nginx</title>
<path fill="#ffffff" stroke="#4b75b9" stroke-width="3" d="M136.17,-208.8C136.17,-208.8 99.83,-208.8 99.83,-208.8 93.83,-208.8 87.83,-202.8 87.83,-196.8 87.83,-196.8 87.83,-184.8 87.83,-184.8 87.83,-178.8 93.83,-172.8 99.83,-172.8 99.83,-172.8 136.17,-172.8 136.17,-172.8 142.17,-172.8 148.17,-178.8 148.17,-184.8 148.17,-184.8 148.17,-196.8 148.17,-196.8 148.17,-202.8 142.17,-208.8 136.17,-208.8"></path>
<text text-anchor="middle" x="118" y="-186.6" font-family="Arial" font-size="14.00" fill="#333333">NGINX</text>
</g>
<!-- lb:nginx&#45;&gt;app:nginx -->
<g id="edge-2" class="edge">
<title>lb:nginx-&gt;app:nginx</title>
<path fill="none" stroke="#333333" stroke-width="2" stroke-opacity="0.600000" d="M118,-257.2C118,-257.2 118,-220.68 118,-220.68"></path>
<polygon fill="#333333" fill-opacity="0.600000" stroke="#333333" stroke-width="2" stroke-opacity="0.600000" points="121.5,-222.19 118,-212.19 114.5,-222.19 121.5,-222.19"></polygon>
</g>
<!-- lb:keepalived -->
<g id="node2" class="node">
<title>lb:keepalived</title>
<path fill="#ffffff" stroke="#4b75b9" stroke-width="3" d="M239.64,-293.6C239.64,-293.6 178.36,-293.6 178.36,-293.6 172.36,-293.6 166.36,-287.6 166.36,-281.6 166.36,-281.6 166.36,-269.6 166.36,-269.6 166.36,-263.6 172.36,-257.6 178.36,-257.6 178.36,-257.6 239.64,-257.6 239.64,-257.6 245.64,-257.6 251.64,-263.6 251.64,-269.6 251.64,-269.6 251.64,-281.6 251.64,-281.6 251.64,-287.6 245.64,-293.6 239.64,-293.6"></path>
<text text-anchor="middle" x="209" y="-271.4" font-family="Arial" font-size="14.00" fill="#333333">Keepalived</text>
</g>
<!-- vip -->
<g id="node7" class="node">
<title>vip</title>
<path fill="none" stroke="black" stroke-width="2" d="M224,-208.8C224,-208.8 194,-208.8 194,-208.8 188,-208.8 182,-202.8 182,-196.8 182,-196.8 182,-184.8 182,-184.8 182,-178.8 188,-172.8 194,-172.8 194,-172.8 224,-172.8 224,-172.8 230,-172.8 236,-178.8 236,-184.8 236,-184.8 236,-196.8 236,-196.8 236,-202.8 230,-208.8 224,-208.8"></path>
<text text-anchor="middle" x="209" y="-186.6" font-family="Arial" font-size="14.00">vip</text>
</g>
<!-- lb:keepalived&#45;&gt;vip -->
<g id="edge-6" class="edge">
<title>lb:keepalived-&gt;vip</title>
<path fill="none" stroke="#4b75b9" stroke-width="2" stroke-dasharray="5,2" d="M209,-257.2C209,-257.2 209,-218.16 209,-218.16"></path>
<ellipse fill="#4b75b9" stroke="#4b75b9" stroke-width="2" cx="209" cy="-214.16" rx="4" ry="4"></ellipse>
</g>
<!-- app:app -->
<g id="node4" class="node">
<title>app:app</title>
<path fill="#ffffff" stroke="#4b75b9" stroke-width="3" d="M133,-136.8C133,-136.8 103,-136.8 103,-136.8 97,-136.8 91,-130.8 91,-124.8 91,-124.8 91,-112.8 91,-112.8 91,-106.8 97,-100.8 103,-100.8 103,-100.8 133,-100.8 133,-100.8 139,-100.8 145,-106.8 145,-112.8 145,-112.8 145,-124.8 145,-124.8 145,-130.8 139,-136.8 133,-136.8"></path>
<text text-anchor="middle" x="118" y="-114.6" font-family="Arial" font-size="14.00" fill="#333333">App</text>
</g>
<!-- app:nginx&#45;&gt;app:app -->
<g id="edge-3" class="edge">
<title>app:nginx-&gt;app:app</title>
<path fill="none" stroke="#333333" stroke-width="2" stroke-opacity="0.600000" d="M118,-172.63C118,-172.63 118,-148.73 118,-148.73"></path>
<polygon fill="#333333" fill-opacity="0.600000" stroke="#333333" stroke-width="2" stroke-opacity="0.600000" points="121.5,-150.24 118,-140.24 114.5,-150.24 121.5,-150.24"></polygon>
</g>
<!-- db:postgresql -->
<g id="node5" class="node">
<title>db:postgresql</title>
<path fill="#ffffff" stroke="#4b75b9" stroke-width="3" d="M96.13,-52C96.13,-52 27.87,-52 27.87,-52 21.87,-52 15.87,-46 15.87,-40 15.87,-40 15.87,-28 15.87,-28 15.87,-22 21.87,-16 27.87,-16 27.87,-16 96.13,-16 96.13,-16 102.13,-16 108.13,-22 108.13,-28 108.13,-28 108.13,-40 108.13,-40 108.13,-46 102.13,-52 96.13,-52"></path>
<text text-anchor="middle" x="62" y="-29.8" font-family="Arial" font-size="14.00" fill="#333333">PostgreSQL</text>
</g>
<!-- app:app&#45;&gt;db:postgresql -->
<g id="edge-4" class="edge">
<title>app:app-&gt;db:postgresql</title>
<path fill="none" stroke="#333333" stroke-width="2" stroke-opacity="0.600000" d="M99.57,-100.4C99.57,-100.4 99.57,-63.88 99.57,-63.88"></path>
<polygon fill="#333333" fill-opacity="0.600000" stroke="#333333" stroke-width="2" stroke-opacity="0.600000" points="103.07,-65.39 99.57,-55.39 96.07,-65.39 103.07,-65.39"></polygon>
</g>
<!-- payment api -->
<g id="node8" class="node">
<title>payment api</title>
<path fill="none" stroke="black" stroke-width="2" d="M211.85,-52C211.85,-52 138.15,-52 138.15,-52 132.15,-52 126.15,-46 126.15,-40 126.15,-40 126.15,-28 126.15,-28 126.15,-22 132.15,-16 138.15,-16 138.15,-16 211.85,-16 211.85,-16 217.85,-16 223.85,-22 223.85,-28 223.85,-28 223.85,-40 223.85,-40 223.85,-46 217.85,-52 211.85,-52"></path>
<text text-anchor="middle" x="175" y="-29.8" font-family="Arial" font-size="14.00">Payment API</text>
</g>
<!-- app:app&#45;&gt;payment api -->
<g id="edge-5" class="edge">
<title>app:app-&gt;payment api</title>
<path fill="none" stroke="#333333" stroke-width="2" stroke-opacity="0.600000" d="M135.57,-100.4C135.57,-100.4 135.57,-63.88 135.57,-63.88"></path>
<polygon fill="#333333" fill-opacity="0.600000" stroke="#333333" stroke-width="2" stroke-opacity="0.600000" points="139.07,-65.39 135.57,-55.39 132.07,-65.39 139.07,-65.39"></polygon>
</g>
<!-- internet -->
<g id="node6" class="node">
<title>internet</title>
<path fill="none" stroke="black" stroke-width="2" d="M320.35,-293.6C320.35,-293.6 281.65,-293.6 281.65,-293.6 275.65,-293.6 269.65,-287.6 269.65,-281.6 269.65,-281.6 269.65,-269.6 269.65,-269.6 269.65,-263.6 275.65,-257.6 281.65,-257.6 281.65,-257.6 320.35,-257.6 320.35,-257.6 326.35,-257.6 332.35,-263.6 332.35,-269.6 332.35,-269.6 332.35,-281.6 332.35,-281.6 332.35,-287.6 326.35,-293.6 320.35,-293.6"></path>
<text text-anchor="middle" x="301" y="-271.4" font-family="Arial" font-size="14.00">internet</text>
</g>
<!-- internet&#45;&gt;vip -->
<g id="edge-0" class="edge">
<title>internet-&gt;vip</title>
<path fill="none" stroke="#333333" stroke-width="2" stroke-opacity="0.600000" d="M301,-257.2C301,-232.26 301,-190.8 301,-190.8 301,-190.8 247.62,-190.8 247.62,-190.8"></path>
<polygon fill="#333333" fill-opacity="0.600000" stroke="#333333" stroke-width="2" stroke-opacity="0.600000" points="249.13,-187.3 239.13,-190.8 249.13,-194.3 249.13,-187.3"></polygon>
</g>
<!-- vip&#45;&gt;lb:nginx -->
<g id="edge-1" class="edge">
<title>vip-&gt;lb:nginx</title>
<path fill="none" stroke="#333333" stroke-width="2" stroke-opacity="0.600000" d="M181.62,-190.8C169.21,-190.8 157.27,-190.8 157.27,-190.8 157.27,-190.8 157.27,-275.6 157.27,-275.6 157.27,-275.6 156.39,-275.6 156.39,-275.6"></path>
<polygon fill="#333333" fill-opacity="0.600000" stroke="#333333" stroke-width="2" stroke-opacity="0.600000" points="161.58,-272.1 151.58,-275.6 161.58,-279.1 161.58,-272.1"></polygon>
</g>
</g>
</svg>
