<?xml version="1.0" encoding="UTF-8" standalone="no"?><!-- Generated by graphviz version 12.1.2 (20240928.0832)
 --><!-- Title: ndiag Pages: 1 --><svg width="709pt" height="101pt" viewBox="0.00 0.00 709.00 100.80" xmlns="http://www.w3.org/2000/svg" xmlns:xlink="http://www.w3.org/1999/xlink"><g id="graph0" class="graph" transform="scale(1 1) rotate(0) translate(4 96.8)"><title>ndiag</title><polygon fill="white" stroke="none" points="-4,4 -4,-96.8 705,-96.8 705,4 -4,4"></polygon><g id="clust1" class="cluster"><title>cluster_my-namespace</title><polygon fill="none" stroke="black" stroke-width="2" points="8,-8 8,-84.8 693,-84.8 693,-8 8,-8"></polygon><text text-anchor="middle" x="350.5" y="-68.2" font-family="Arial" font-size="14.00">my-namespace</text></g><!-- my&#45;namespace:your.domain.com --><g id="node1" class="node"><title>my-namespace:your.domain.com</title><path fill="#ffffff" stroke="#4b75b9" stroke-width="3" d="M127.69,-52C127.69,-52 28.31,-52 28.31,-52 22.31,-52 16.31,-46 16.31,-40 16.31,-40 16.31,-28 16.31,-28 16.31,-22 22.31,-16 28.31,-16 28.31,-16 127.69,-16 127.69,-16 133.69,-16 139.69,-22 139.69,-28 139.69,-28 139.69,-40 139.69,-40 139.69,-46 133.69,-52 127.69,-52"></path><text text-anchor="middle" x="78" y="-29.8" font-family="Arial" font-size="14.00" fill="#333333">your.domain.com</text></g><!-- my&#45;namespace:my&#45;svc --><g id="node2" class="node"><title>my-namespace:my-svc</title><path fill="#ffffff" stroke="#4b75b9" stroke-width="3" d="M206.16,-52C206.16,-52 169.84,-52 169.84,-52 163.84,-52 157.84,-46 157.84,-40 157.84,-40 157.84,-28 157.84,-28 157.84,-22 163.84,-16 169.84,-16 169.84,-16 206.16,-16 206.16,-16 212.16,-16 218.16,-22 218.16,-28 218.16,-28 218.16,-40 218.16,-40 218.16,-46 212.16,-52 206.16,-52"></path><text text-anchor="middle" x="188" y="-29.8" font-family="Arial" font-size="14.00" fill="#333333">my-svc</text></g><!-- my&#45;namespace:pod&#45;a --><g id="node3" class="node"><title>my-namespace:pod-a</title><path fill="#ffffff" stroke="#4b75b9" stroke-width="3" d="M278,-52C278,-52 248,-52 248,-52 242,-52 236,-46 236,-40 236,-40 236,-28 236,-28 236,-22 242,-16 248,-16 248,-16 278,-16 278,-16 284,-16 290,-22 290,-28 290,-28 290,-40 290,-40 290,-46 284,-52 278,-52"></path><text text-anchor="middle" x="263" y="-29.8" font-family="Arial" font-size="14.00" fill="#333333">pod-a</text></g><!-- my&#45;namespace:pod&#45;b --><g id="node4" class="node"><title>my-namespace:pod-b</title><path fill="#ffffff" stroke="#4b75b9" stroke-width="3" d="M350,-52C350,-52 320,-52 320,-52 314,-52 308,-46 308,-40 308,-40 308,-28 308,-28 308,-22 314,-16 320,-16 320,-16 350,-16 350,-16 356,-16 362,-22 362,-28 362,-28 362,-40 362,-40 362,-46 356,-52 350,-52"></path><text text-anchor="middle" x="335" y="-29.8" font-family="Arial" font-size="14.00" fill="#333333">pod-b</text></g><!-- my&#45;namespace:pod&#45;c --><g id="node5" class="node"><title>my-namespace:pod-c</title><path fill="#ffffff" stroke="#4b75b9" stroke-width="3" d="M422,-52C422,-52 392,-52 392,-52 386,-52 380,-46 380,-40 380,-40 380,-28 380,-28 380,-22 386,-16 392,-16 392,-16 422,-16 422,-16 428,-16 434,-22 434,-28 434,-28 434,-40 434,-40 434,-46 428,-52 422,-52"></path><text text-anchor="middle" x="407" y="-29.8" font-family="Arial" font-size="14.00" fill="#333333">pod-c</text></g><!-- my&#45;namespace:my&#45;hpa --><g id="node6" class="node"><title>my-namespace:my-hpa</title><path fill="#ffffff" stroke="#4b75b9" stroke-width="3" d="M502.34,-52C502.34,-52 463.66,-52 463.66,-52 457.66,-52 451.66,-46 451.66,-40 451.66,-40 451.66,-28 451.66,-28 451.66,-22 457.66,-16 463.66,-16 463.66,-16 502.34,-16 502.34,-16 508.34,-16 514.34,-22 514.34,-28 514.34,-28 514.34,-40 514.34,-40 514.34,-46 508.34,-52 502.34,-52"></path><text text-anchor="middle" x="483" y="-29.8" font-family="Arial" font-size="14.00" fill="#333333">my-hpa</text></g><!-- my&#45;namespace:my&#45;deploy --><g id="node7" class="node"><title>my-namespace:my-deploy</title><path fill="#ffffff" stroke="#4b75b9" stroke-width="3" d="M601.29,-52C601.29,-52 544.71,-52 544.71,-52 538.71,-52 532.71,-46 532.71,-40 532.71,-40 532.71,-28 532.71,-28 532.71,-22 538.71,-16 544.71,-16 544.71,-16 601.29,-16 601.29,-16 607.29,-16 613.29,-22 613.29,-28 613.29,-28 613.29,-40 613.29,-40 613.29,-46 607.29,-52 601.29,-52"></path><text text-anchor="middle" x="573" y="-29.8" font-family="Arial" font-size="14.00" fill="#333333">my-deploy</text></g><!-- my&#45;namespace:my&#45;rs --><g id="node8" class="node"><title>my-namespace:my-rs</title><path fill="#ffffff" stroke="#4b75b9" stroke-width="3" d="M673,-52C673,-52 643,-52 643,-52 637,-52 631,-46 631,-40 631,-40 631,-28 631,-28 631,-22 637,-16 643,-16 643,-16 673,-16 673,-16 679,-16 685,-22 685,-28 685,-28 685,-40 685,-40 685,-46 679,-52 673,-52"></path><text text-anchor="middle" x="658" y="-29.8" font-family="Arial" font-size="14.00" fill="#333333">my-rs</text></g></g></svg>