<?xml version="1.0" encoding="UTF-8" standalone="no"?><!-- Generated by graphviz version 12.1.2 (20240928.0832)
 --><!-- Title: ndiag Pages: 1 --><svg width="278pt" height="358pt" viewBox="0.00 0.00 278.00 357.60" xmlns="http://www.w3.org/2000/svg" xmlns:xlink="http://www.w3.org/1999/xlink"><g id="graph0" class="graph" transform="scale(1 1) rotate(0) translate(4 353.6)"><title>ndiag</title><polygon fill="white" stroke="none" points="-4,4 -4,-353.6 274,-353.6 274,4 -4,4"></polygon><g id="clust1" class="cluster"><title>cluster_k8s:my-cluster</title><path fill="#ffffff" stroke="#1f91be" stroke-width="2" d="M20,-8C20,-8 250,-8 250,-8 256,-8 262,-14 262,-20 262,-20 262,-329.6 262,-329.6 262,-335.6 256,-341.6 250,-341.6 250,-341.6 20,-341.6 20,-341.6 14,-341.6 8,-335.6 8,-329.6 8,-329.6 8,-20 8,-20 8,-14 14,-8 20,-8"></path><text text-anchor="middle" x="135" y="-325" font-family="Arial" font-size="14.00" fill="#333333">k8s:my-cluster</text></g><g id="clust2" class="cluster"><title>cluster_my-namespace</title><polygon fill="#ffffff" stroke="#333333" stroke-width="2" points="16,-16 16,-308.8 254,-308.8 254,-16 16,-16"></polygon><text text-anchor="middle" x="135" y="-292.2" font-family="Arial" font-size="14.00" fill="#333333">my-namespace</text></g><!-- my&#45;namespace:your.domain.com --><g id="node1" class="node"><title>my-namespace:your.domain.com</title><path fill="#ffffff" stroke="#4b75b9" stroke-width="3" d="M135.69,-204C135.69,-204 36.31,-204 36.31,-204 30.31,-204 24.31,-198 24.31,-192 24.31,-192 24.31,-180 24.31,-180 24.31,-174 30.31,-168 36.31,-168 36.31,-168 135.69,-168 135.69,-168 141.69,-168 147.69,-174 147.69,-180 147.69,-180 147.69,-192 147.69,-192 147.69,-198 141.69,-204 135.69,-204"></path><text text-anchor="middle" x="86" y="-181.8" font-family="Arial" font-size="14.00" fill="#333333">your.domain.com</text></g><!-- my&#45;namespace:my&#45;svc --><g id="node2" class="node"><title>my-namespace:my-svc</title><path fill="#ffffff" stroke="#4b75b9" stroke-width="3" d="M118.16,-132C118.16,-132 81.84,-132 81.84,-132 75.84,-132 69.84,-126 69.84,-120 69.84,-120 69.84,-108 69.84,-108 69.84,-102 75.84,-96 81.84,-96 81.84,-96 118.16,-96 118.16,-96 124.16,-96 130.16,-102 130.16,-108 130.16,-108 130.16,-120 130.16,-120 130.16,-126 124.16,-132 118.16,-132"></path><text text-anchor="middle" x="100" y="-109.8" font-family="Arial" font-size="14.00" fill="#333333">my-svc</text></g><!-- my&#45;namespace:your.domain.com&#45;&gt;my&#45;namespace:my&#45;svc --><g id="edge-0" class="edge"><title>my-namespace:your.domain.com-&gt;my-namespace:my-svc</title><path fill="none" stroke="#333333" stroke-width="2" stroke-opacity="0.600000" d="M100,-167.83C100,-167.83 100,-143.93 100,-143.93"></path><polygon fill="#333333" fill-opacity="0.600000" stroke="#333333" stroke-width="2" stroke-opacity="0.600000" points="103.5,-145.44 100,-135.44 96.5,-145.44 103.5,-145.44"></polygon></g><!-- my&#45;namespace:pod&#45;a --><g id="node3" class="node"><title>my-namespace:pod-a</title><path fill="#ffffff" stroke="#4b75b9" stroke-width="3" d="M150,-60C150,-60 120,-60 120,-60 114,-60 108,-54 108,-48 108,-48 108,-36 108,-36 108,-30 114,-24 120,-24 120,-24 150,-24 150,-24 156,-24 162,-30 162,-36 162,-36 162,-48 162,-48 162,-54 156,-60 150,-60"></path><text text-anchor="middle" x="135" y="-37.8" font-family="Arial" font-size="14.00" fill="#333333">pod-a</text></g><!-- my&#45;namespace:my&#45;svc&#45;&gt;my&#45;namespace:pod&#45;a --><g id="edge-1" class="edge"><title>my-namespace:my-svc-&gt;my-namespace:pod-a</title><path fill="none" stroke="#333333" stroke-width="2" stroke-opacity="0.600000" d="M115.39,-95.83C115.39,-95.83 115.39,-71.93 115.39,-71.93"></path><polygon fill="#333333" fill-opacity="0.600000" stroke="#333333" stroke-width="2" stroke-opacity="0.600000" points="118.89,-73.44 115.39,-63.44 111.89,-73.44 118.89,-73.44"></polygon></g><!-- my&#45;namespace:pod&#45;b --><g id="node4" class="node"><title>my-namespace:pod-b</title><path fill="#ffffff" stroke="#4b75b9" stroke-width="3" d="M222,-60C222,-60 192,-60 192,-60 186,-60 180,-54 180,-48 180,-48 180,-36 180,-36 180,-30 186,-24 192,-24 192,-24 222,-24 222,-24 228,-24 234,-30 234,-36 234,-36 234,-48 234,-48 234,-54 228,-60 222,-60"></path><text text-anchor="middle" x="207" y="-37.8" font-family="Arial" font-size="14.00" fill="#333333">pod-b</text></g><!-- my&#45;namespace:my&#45;svc&#45;&gt;my&#45;namespace:pod&#45;b --><g id="edge-2" class="edge"><title>my-namespace:my-svc-&gt;my-namespace:pod-b</title><path fill="none" stroke="#333333" stroke-width="2" stroke-opacity="0.600000" d="M122.77,-95.94C122.77,-84.56 122.77,-72 122.77,-72 122.77,-72 193,-72 193,-72 193,-72 193,-70.85 193,-70.85"></path><polygon fill="#333333" fill-opacity="0.600000" stroke="#333333" stroke-width="2" stroke-opacity="0.600000" points="196.5,-73.51 193,-63.51 189.5,-73.51 196.5,-73.51"></polygon></g><!-- my&#45;namespace:pod&#45;c --><g id="node5" class="node"><title>my-namespace:pod-c</title><path fill="#ffffff" stroke="#4b75b9" stroke-width="3" d="M78,-60C78,-60 48,-60 48,-60 42,-60 36,-54 36,-48 36,-48 36,-36 36,-36 36,-30 42,-24 48,-24 48,-24 78,-24 78,-24 84,-24 90,-30 90,-36 90,-36 90,-48 90,-48 90,-54 84,-60 78,-60"></path><text text-anchor="middle" x="63" y="-37.8" font-family="Arial" font-size="14.00" fill="#333333">pod-c</text></g><!-- my&#45;namespace:my&#45;svc&#45;&gt;my&#45;namespace:pod&#45;c --><g id="edge-3" class="edge"><title>my-namespace:my-svc-&gt;my-namespace:pod-c</title><path fill="none" stroke="#333333" stroke-width="2" stroke-opacity="0.600000" d="M76.56,-95.83C76.56,-95.83 76.56,-71.93 76.56,-71.93"></path><polygon fill="#333333" fill-opacity="0.600000" stroke="#333333" stroke-width="2" stroke-opacity="0.600000" points="80.06,-73.44 76.56,-63.44 73.06,-73.44 80.06,-73.44"></polygon></g><!-- my&#45;namespace:my&#45;hpa --><g id="node6" class="node"><title>my-namespace:my-hpa</title><path fill="#ffffff" stroke="#4b75b9" stroke-width="3" d="M225.34,-276C225.34,-276 186.66,-276 186.66,-276 180.66,-276 174.66,-270 174.66,-264 174.66,-264 174.66,-252 174.66,-252 174.66,-246 180.66,-240 186.66,-240 186.66,-240 225.34,-240 225.34,-240 231.34,-240 237.34,-246 237.34,-252 237.34,-252 237.34,-264 237.34,-264 237.34,-270 231.34,-276 225.34,-276"></path><text text-anchor="middle" x="206" y="-253.8" font-family="Arial" font-size="14.00" fill="#333333">my-hpa</text></g><!-- my&#45;namespace:my&#45;deploy --><g id="node7" class="node"><title>my-namespace:my-deploy</title><path fill="#ffffff" stroke="#4b75b9" stroke-width="3" d="M234.29,-204C234.29,-204 177.71,-204 177.71,-204 171.71,-204 165.71,-198 165.71,-192 165.71,-192 165.71,-180 165.71,-180 165.71,-174 171.71,-168 177.71,-168 177.71,-168 234.29,-168 234.29,-168 240.29,-168 246.29,-174 246.29,-180 246.29,-180 246.29,-192 246.29,-192 246.29,-198 240.29,-204 234.29,-204"></path><text text-anchor="middle" x="206" y="-181.8" font-family="Arial" font-size="14.00" fill="#333333">my-deploy</text></g><!-- my&#45;namespace:my&#45;hpa&#45;&gt;my&#45;namespace:my&#45;deploy --><g id="edge-4" class="edge"><title>my-namespace:my-hpa-&gt;my-namespace:my-deploy</title><path fill="none" stroke="#4b75b9" stroke-width="2" stroke-dasharray="5,2" d="M206,-239.83C206,-239.83 206,-213.41 206,-213.41"></path><ellipse fill="#4b75b9" stroke="#4b75b9" stroke-width="2" cx="206" cy="-209.41" rx="4" ry="4"></ellipse></g><!-- my&#45;namespace:my&#45;rs --><g id="node8" class="node"><title>my-namespace:my-rs</title><path fill="#ffffff" stroke="#4b75b9" stroke-width="3" d="M207,-132C207,-132 177,-132 177,-132 171,-132 165,-126 165,-120 165,-120 165,-108 165,-108 165,-102 171,-96 177,-96 177,-96 207,-96 207,-96 213,-96 219,-102 219,-108 219,-108 219,-120 219,-120 219,-126 213,-132 207,-132"></path><text text-anchor="middle" x="192" y="-109.8" font-family="Arial" font-size="14.00" fill="#333333">my-rs</text></g><!-- my&#45;namespace:my&#45;deploy&#45;&gt;my&#45;namespace:my&#45;rs --><g id="edge-5" class="edge"><title>my-namespace:my-deploy-&gt;my-namespace:my-rs</title><path fill="none" stroke="#4b75b9" stroke-width="2" stroke-dasharray="5,2" d="M192.36,-167.83C192.36,-167.83 192.36,-141.41 192.36,-141.41"></path><ellipse fill="#4b75b9" stroke="#4b75b9" stroke-width="2" cx="192.36" cy="-137.41" rx="4" ry="4"></ellipse></g><!-- my&#45;namespace:my&#45;rs&#45;&gt;my&#45;namespace:pod&#45;a --><g id="edge-6" class="edge"><title>my-namespace:my-rs-&gt;my-namespace:pod-a</title><path fill="none" stroke="#4b75b9" stroke-width="2" stroke-dasharray="5,2" d="M175,-95.83C175,-74.5 175,-42 175,-42 175,-42 171.34,-42 171.34,-42"></path><ellipse fill="#4b75b9" stroke="#4b75b9" stroke-width="2" cx="167.34" cy="-42" rx="4" ry="4"></ellipse></g><!-- my&#45;namespace:my&#45;rs&#45;&gt;my&#45;namespace:pod&#45;b --><g id="edge-7" class="edge"><title>my-namespace:my-rs-&gt;my-namespace:pod-b</title><path fill="none" stroke="#4b75b9" stroke-width="2" stroke-dasharray="5,2" d="M206,-95.83C206,-95.83 206,-69.41 206,-69.41"></path><ellipse fill="#4b75b9" stroke="#4b75b9" stroke-width="2" cx="206" cy="-65.41" rx="4" ry="4"></ellipse></g><!-- my&#45;namespace:my&#45;rs&#45;&gt;my&#45;namespace:pod&#45;c --><g id="edge-8" class="edge"><title>my-namespace:my-rs-&gt;my-namespace:pod-c</title><path fill="none" stroke="#4b75b9" stroke-width="2" stroke-dasharray="5,2" d="M170,-95.51C170,-89.34 170,-84 170,-84 170,-84 83.28,-84 83.28,-84 83.28,-84 83.28,-69.06 83.28,-69.06"></path><ellipse fill="#4b75b9" stroke="#4b75b9" stroke-width="2" cx="83.28" cy="-65.06" rx="4" ry="4"></ellipse></g></g></svg>