<?xml version="1.0" encoding="UTF-8" standalone="no"?>
<!DOCTYPE svg PUBLIC "-//W3C//DTD SVG 1.1//EN"
 "http://www.w3.org/Graphics/SVG/1.1/DTD/svg11.dtd">
<!-- Generated by graphviz version 12.1.2 (20240928.0832)
 -->
<!-- Title: ndiag Pages: 1 -->
<svg width="328pt" height="317pt" viewBox="0.00 0.00 327.90 316.80" xmlns="http://www.w3.org/2000/svg" xmlns:xlink="http://www.w3.org/1999/xlink">
<g id="graph0" class="graph" transform="scale(1 1) rotate(0) translate(4 312.8)">
<title>ndiag</title>
<polygon fill="white" stroke="none" points="-4,4 -4,-312.8 323.9,-312.8 323.9,4 -4,4"></polygon>
<g id="clust1" class="cluster">
<title>cluster_my-namespace</title>
<polygon fill="none" stroke="black" stroke-width="2" points="8,-8 8,-300.8 246,-300.8 246,-8 8,-8"></polygon>
<text text-anchor="middle" x="127" y="-284.2" font-family="Arial" font-size="14.00">my-namespace</text>
</g>
<!-- my&#45;namespace:your.domain.com -->
<g id="node1" class="node">
<title>my-namespace:your.domain.com</title>
<path fill="#ffffff" stroke="#4b75b9" stroke-width="3" d="M225.69,-196C225.69,-196 126.31,-196 126.31,-196 120.31,-196 114.31,-190 114.31,-184 114.31,-184 114.31,-172 114.31,-172 114.31,-166 120.31,-160 126.31,-160 126.31,-160 225.69,-160 225.69,-160 231.69,-160 237.69,-166 237.69,-172 237.69,-172 237.69,-184 237.69,-184 237.69,-190 231.69,-196 225.69,-196"></path>
<text text-anchor="middle" x="176" y="-173.8" font-family="Arial" font-size="14.00" fill="#333333">your.domain.com</text>
</g>
<!-- my&#45;namespace:my&#45;svc -->
<g id="node2" class="node">
<title>my-namespace:my-svc</title>
<path fill="#ffffff" stroke="#4b75b9" stroke-width="3" d="M179.16,-124C179.16,-124 142.84,-124 142.84,-124 136.84,-124 130.84,-118 130.84,-112 130.84,-112 130.84,-100 130.84,-100 130.84,-94 136.84,-88 142.84,-88 142.84,-88 179.16,-88 179.16,-88 185.16,-88 191.16,-94 191.16,-100 191.16,-100 191.16,-112 191.16,-112 191.16,-118 185.16,-124 179.16,-124"></path>
<text text-anchor="middle" x="161" y="-101.8" font-family="Arial" font-size="14.00" fill="#333333">my-svc</text>
</g>
<!-- my&#45;namespace:your.domain.com&#45;&gt;my&#45;namespace:my&#45;svc -->
<g id="edge2" class="edge">
<title>my-namespace:your.domain.com-&gt;my-namespace:my-svc</title>
<path fill="none" stroke="#333333" stroke-width="2" stroke-opacity="0.600000" d="M161,-159.83C161,-159.83 161,-135.93 161,-135.93"></path>
<polygon fill="#333333" fill-opacity="0.600000" stroke="#333333" stroke-width="2" stroke-opacity="0.600000" points="164.5,-137.44 161,-127.44 157.5,-137.44 164.5,-137.44"></polygon>
</g>
<!-- my&#45;namespace:pod&#45;a -->
<g id="node3" class="node">
<title>my-namespace:pod-a</title>
<path fill="#ffffff" stroke="#4b75b9" stroke-width="3" d="M145,-52C145,-52 115,-52 115,-52 109,-52 103,-46 103,-40 103,-40 103,-28 103,-28 103,-22 109,-16 115,-16 115,-16 145,-16 145,-16 151,-16 157,-22 157,-28 157,-28 157,-40 157,-40 157,-46 151,-52 145,-52"></path>
<text text-anchor="middle" x="130" y="-29.8" font-family="Arial" font-size="14.00" fill="#333333">pod-a</text>
</g>
<!-- my&#45;namespace:my&#45;svc&#45;&gt;my&#45;namespace:pod&#45;a -->
<g id="edge3" class="edge">
<title>my-namespace:my-svc-&gt;my-namespace:pod-a</title>
<path fill="none" stroke="#333333" stroke-width="2" stroke-opacity="0.600000" d="M148.28,-87.83C148.28,-87.83 148.28,-63.93 148.28,-63.93"></path>
<polygon fill="#333333" fill-opacity="0.600000" stroke="#333333" stroke-width="2" stroke-opacity="0.600000" points="151.78,-65.44 148.28,-55.44 144.78,-65.44 151.78,-65.44"></polygon>
</g>
<!-- my&#45;namespace:pod&#45;b -->
<g id="node4" class="node">
<title>my-namespace:pod-b</title>
<path fill="#ffffff" stroke="#4b75b9" stroke-width="3" d="M217,-52C217,-52 187,-52 187,-52 181,-52 175,-46 175,-40 175,-40 175,-28 175,-28 175,-22 181,-16 187,-16 187,-16 217,-16 217,-16 223,-16 229,-22 229,-28 229,-28 229,-40 229,-40 229,-46 223,-52 217,-52"></path>
<text text-anchor="middle" x="202" y="-29.8" font-family="Arial" font-size="14.00" fill="#333333">pod-b</text>
</g>
<!-- my&#45;namespace:my&#45;svc&#45;&gt;my&#45;namespace:pod&#45;b -->
<g id="edge4" class="edge">
<title>my-namespace:my-svc-&gt;my-namespace:pod-b</title>
<path fill="none" stroke="#333333" stroke-width="2" stroke-opacity="0.600000" d="M185.77,-87.83C185.77,-87.83 185.77,-63.93 185.77,-63.93"></path>
<polygon fill="#333333" fill-opacity="0.600000" stroke="#333333" stroke-width="2" stroke-opacity="0.600000" points="189.27,-65.44 185.77,-55.44 182.27,-65.44 189.27,-65.44"></polygon>
</g>
<!-- my&#45;namespace:pod&#45;c -->
<g id="node5" class="node">
<title>my-namespace:pod-c</title>
<path fill="#ffffff" stroke="#4b75b9" stroke-width="3" d="M73,-52C73,-52 43,-52 43,-52 37,-52 31,-46 31,-40 31,-40 31,-28 31,-28 31,-22 37,-16 43,-16 43,-16 73,-16 73,-16 79,-16 85,-22 85,-28 85,-28 85,-40 85,-40 85,-46 79,-52 73,-52"></path>
<text text-anchor="middle" x="58" y="-29.8" font-family="Arial" font-size="14.00" fill="#333333">pod-c</text>
</g>
<!-- my&#45;namespace:my&#45;svc&#45;&gt;my&#45;namespace:pod&#45;c -->
<g id="edge5" class="edge">
<title>my-namespace:my-svc-&gt;my-namespace:pod-c</title>
<path fill="none" stroke="#333333" stroke-width="2" stroke-opacity="0.600000" d="M139.56,-87.94C139.56,-76.56 139.56,-64 139.56,-64 139.56,-64 73,-64 73,-64 73,-64 73,-62.85 73,-62.85"></path>
<polygon fill="#333333" fill-opacity="0.600000" stroke="#333333" stroke-width="2" stroke-opacity="0.600000" points="76.5,-65.51 73,-55.51 69.5,-65.51 76.5,-65.51"></polygon>
</g>
<!-- my&#45;namespace:my&#45;hpa -->
<g id="node6" class="node">
<title>my-namespace:my-hpa</title>
<path fill="#ffffff" stroke="#4b75b9" stroke-width="3" d="M75.34,-268C75.34,-268 36.66,-268 36.66,-268 30.66,-268 24.66,-262 24.66,-256 24.66,-256 24.66,-244 24.66,-244 24.66,-238 30.66,-232 36.66,-232 36.66,-232 75.34,-232 75.34,-232 81.34,-232 87.34,-238 87.34,-244 87.34,-244 87.34,-256 87.34,-256 87.34,-262 81.34,-268 75.34,-268"></path>
<text text-anchor="middle" x="56" y="-245.8" font-family="Arial" font-size="14.00" fill="#333333">my-hpa</text>
</g>
<!-- my&#45;namespace:my&#45;deploy -->
<g id="node7" class="node">
<title>my-namespace:my-deploy</title>
<path fill="#ffffff" stroke="#4b75b9" stroke-width="3" d="M84.29,-196C84.29,-196 27.71,-196 27.71,-196 21.71,-196 15.71,-190 15.71,-184 15.71,-184 15.71,-172 15.71,-172 15.71,-166 21.71,-160 27.71,-160 27.71,-160 84.29,-160 84.29,-160 90.29,-160 96.29,-166 96.29,-172 96.29,-172 96.29,-184 96.29,-184 96.29,-190 90.29,-196 84.29,-196"></path>
<text text-anchor="middle" x="56" y="-173.8" font-family="Arial" font-size="14.00" fill="#333333">my-deploy</text>
</g>
<!-- my&#45;namespace:my&#45;hpa&#45;&gt;my&#45;namespace:my&#45;deploy -->
<g id="edge6" class="edge">
<title>my-namespace:my-hpa-&gt;my-namespace:my-deploy</title>
<path fill="none" stroke="#4b75b9" stroke-width="2" stroke-dasharray="5,2" d="M56,-231.83C56,-231.83 56,-205.41 56,-205.41"></path>
<ellipse fill="#4b75b9" stroke="#4b75b9" stroke-width="2" cx="56" cy="-201.41" rx="4" ry="4"></ellipse>
</g>
<!-- my&#45;namespace:my&#45;rs -->
<g id="node8" class="node">
<title>my-namespace:my-rs</title>
<path fill="#ffffff" stroke="#4b75b9" stroke-width="3" d="M79,-124C79,-124 49,-124 49,-124 43,-124 37,-118 37,-112 37,-112 37,-100 37,-100 37,-94 43,-88 49,-88 49,-88 79,-88 79,-88 85,-88 91,-94 91,-100 91,-100 91,-112 91,-112 91,-118 85,-124 79,-124"></path>
<text text-anchor="middle" x="64" y="-101.8" font-family="Arial" font-size="14.00" fill="#333333">my-rs</text>
</g>
<!-- my&#45;namespace:my&#45;deploy&#45;&gt;my&#45;namespace:my&#45;rs -->
<g id="edge7" class="edge">
<title>my-namespace:my-deploy-&gt;my-namespace:my-rs</title>
<path fill="none" stroke="#4b75b9" stroke-width="2" stroke-dasharray="5,2" d="M64,-159.83C64,-159.83 64,-133.41 64,-133.41"></path>
<ellipse fill="#4b75b9" stroke="#4b75b9" stroke-width="2" cx="64" cy="-129.41" rx="4" ry="4"></ellipse>
</g>
<!-- my&#45;namespace:my&#45;rs&#45;&gt;my&#45;namespace:pod&#45;a -->
<g id="edge8" class="edge">
<title>my-namespace:my-rs-&gt;my-namespace:pod-a</title>
<path fill="none" stroke="#4b75b9" stroke-width="2" stroke-dasharray="5,2" d="M91.26,-106C100.56,-106 108.66,-106 108.66,-106 108.66,-106 108.66,-61.17 108.66,-61.17"></path>
<ellipse fill="#4b75b9" stroke="#4b75b9" stroke-width="2" cx="108.66" cy="-57.17" rx="4" ry="4"></ellipse>
</g>
<!-- my&#45;namespace:my&#45;rs&#45;&gt;my&#45;namespace:pod&#45;b -->
<g id="edge9" class="edge">
<title>my-namespace:my-rs-&gt;my-namespace:pod-b</title>
<path fill="none" stroke="#4b75b9" stroke-width="2" stroke-dasharray="5,2" d="M61,-87.51C61,-81.34 61,-76 61,-76 61,-76 180.39,-76 180.39,-76 180.39,-76 180.39,-61.06 180.39,-61.06"></path>
<ellipse fill="#4b75b9" stroke="#4b75b9" stroke-width="2" cx="180.39" cy="-57.06" rx="4" ry="4"></ellipse>
</g>
<!-- my&#45;namespace:my&#45;rs&#45;&gt;my&#45;namespace:pod&#45;c -->
<g id="edge10" class="edge">
<title>my-namespace:my-rs-&gt;my-namespace:pod-c</title>
<path fill="none" stroke="#4b75b9" stroke-width="2" stroke-dasharray="5,2" d="M49,-87.83C49,-87.83 49,-61.41 49,-61.41"></path>
<ellipse fill="#4b75b9" stroke="#4b75b9" stroke-width="2" cx="49" cy="-57.41" rx="4" ry="4"></ellipse>
</g>
<!-- browser -->
<g id="node9" class="node">
<title>browser</title>
<path fill="none" stroke="black" stroke-width="2" d="M307.9,-268C307.9,-268 266.1,-268 266.1,-268 260.1,-268 254.1,-262 254.1,-256 254.1,-256 254.1,-244 254.1,-244 254.1,-238 260.1,-232 266.1,-232 266.1,-232 307.9,-232 307.9,-232 313.9,-232 319.9,-238 319.9,-244 319.9,-244 319.9,-256 319.9,-256 319.9,-262 313.9,-268 307.9,-268"></path>
<text text-anchor="middle" x="287" y="-245.8" font-family="Arial" font-size="14.00">browser</text>
</g>
<!-- browser&#45;&gt;my&#45;namespace:your.domain.com -->
<g id="edge1" class="edge">
<title>browser-&gt;my-namespace:your.domain.com</title>
<path fill="none" stroke="#333333" stroke-width="2" stroke-opacity="0.600000" d="M287,-231.83C287,-210.5 287,-178 287,-178 287,-178 249.5,-178 249.5,-178"></path>
<polygon fill="#333333" fill-opacity="0.600000" stroke="#333333" stroke-width="2" stroke-opacity="0.600000" points="251.02,-174.5 241.02,-178 251.02,-181.5 251.02,-174.5"></polygon>
</g>
</g>
</svg>
