<?xml version="1.0" encoding="UTF-8" standalone="no"?>
<!DOCTYPE svg PUBLIC "-//W3C//DTD SVG 1.1//EN"
 "http://www.w3.org/Graphics/SVG/1.1/DTD/svg11.dtd">
<!-- Generated by graphviz version 12.1.2 (20240928.0832)
 -->
<!-- Title: ndiag Pages: 1 -->
<svg width="384pt" height="101pt" viewBox="0.00 0.00 383.50 101.00" xmlns="http://www.w3.org/2000/svg" xmlns:xlink="http://www.w3.org/1999/xlink">
<g id="graph0" class="graph" transform="scale(1 1) rotate(0) translate(4 97)">
<title>ndiag</title>
<polygon fill="white" stroke="none" points="-4,4 -4,-97 379.5,-97 379.5,4 -4,4"></polygon>
<g id="clust1" class="cluster">
<title>cluster_my-namespace</title>
<polygon fill="none" stroke="black" stroke-width="2" points="8,-8 8,-85 147.38,-85 147.38,-8 8,-8"></polygon>
<text text-anchor="middle" x="77.69" y="-68.4" font-family="Arial" font-size="14.00">my-namespace</text>
</g>
<!-- my&#45;namespace:your.domain.com -->
<g id="node1" class="node">
<title>my-namespace:your.domain.com</title>
<path fill="#ffffff" stroke="#4b75b9" stroke-width="3" d="M127.38,-52C127.38,-52 28,-52 28,-52 22,-52 16,-46 16,-40 16,-40 16,-28 16,-28 16,-22 22,-16 28,-16 28,-16 127.38,-16 127.38,-16 133.38,-16 139.38,-22 139.38,-28 139.38,-28 139.38,-40 139.38,-40 139.38,-46 133.38,-52 127.38,-52"></path>
<text text-anchor="middle" x="77.69" y="-29.8" font-family="Arial" font-size="14.00" fill="#333333">your.domain.com</text>
</g>
<!-- my&#45;namespace:my&#45;svc -->
<g id="node2" class="node">
<title>my-namespace:my-svc</title>
<ellipse fill="none" stroke="black" cx="275.44" cy="-34" rx="100.06" ry="18"></ellipse>
<text text-anchor="middle" x="275.44" y="-29.8" font-family="Times,serif" font-size="14.00">my-namespace:my-svc</text>
</g>
<!-- my&#45;namespace:your.domain.com&#45;&gt;my&#45;namespace:my&#45;svc -->
<g id="edge-0" class="edge">
<title>my-namespace:your.domain.com-&gt;my-namespace:my-svc</title>
<path fill="none" stroke="#333333" stroke-width="2" stroke-opacity="0.600000" d="M139.72,-34C139.72,-34 163.72,-34 163.72,-34"></path>
<polygon fill="#333333" fill-opacity="0.600000" stroke="#333333" stroke-width="2" stroke-opacity="0.600000" points="162.2,-37.5 172.2,-34 162.2,-30.5 162.2,-37.5"></polygon>
</g>
</g>
</svg>
