<?xml version="1.0" encoding="UTF-8" standalone="no"?>
<!DOCTYPE svg PUBLIC "-//W3C//DTD SVG 1.1//EN"
 "http://www.w3.org/Graphics/SVG/1.1/DTD/svg11.dtd">
<!-- Generated by graphviz version 12.1.2 (20240928.0832)
 -->
<!-- Title: ndiag Pages: 1 -->
<svg width="249pt" height="101pt" viewBox="0.00 0.00 249.17 101.00" xmlns="http://www.w3.org/2000/svg" xmlns:xlink="http://www.w3.org/1999/xlink">
<g id="graph0" class="graph" transform="scale(1 1) rotate(0) translate(4 97)">
<title>ndiag</title>
<polygon fill="white" stroke="none" points="-4,4 -4,-97 245.17,-97 245.17,4 -4,4"></polygon>
<g id="clust1" class="cluster">
<title>cluster_my-namespace</title>
<polygon fill="none" stroke="black" stroke-width="2" points="93.79,-8 93.79,-85 233.17,-85 233.17,-8 93.79,-8"></polygon>
<text text-anchor="middle" x="163.48" y="-68.4" font-family="Arial" font-size="14.00">my-namespace</text>
</g>
<!-- my&#45;namespace:your.domain.com -->
<g id="node1" class="node">
<title>my-namespace:your.domain.com</title>
<path fill="#ffffff" stroke="#4b75b9" stroke-width="3" d="M213.17,-52C213.17,-52 113.79,-52 113.79,-52 107.79,-52 101.79,-46 101.79,-40 101.79,-40 101.79,-28 101.79,-28 101.79,-22 107.79,-16 113.79,-16 113.79,-16 213.17,-16 213.17,-16 219.17,-16 225.17,-22 225.17,-28 225.17,-28 225.17,-40 225.17,-40 225.17,-46 219.17,-52 213.17,-52"></path>
<text text-anchor="middle" x="163.48" y="-29.8" font-family="Arial" font-size="14.00" fill="#333333">your.domain.com</text>
</g>
<!-- browser -->
<g id="node2" class="node">
<title>browser</title>
<path fill="none" stroke="black" stroke-width="2" d="M53.79,-52C53.79,-52 12,-52 12,-52 6,-52 0,-46 0,-40 0,-40 0,-28 0,-28 0,-22 6,-16 12,-16 12,-16 53.79,-16 53.79,-16 59.79,-16 65.79,-22 65.79,-28 65.79,-28 65.79,-40 65.79,-40 65.79,-46 59.79,-52 53.79,-52"></path>
<text text-anchor="middle" x="32.9" y="-29.8" font-family="Arial" font-size="14.00">browser</text>
</g>
<!-- browser&#45;&gt;my&#45;namespace:your.domain.com -->
<g id="edge-0" class="edge">
<title>browser-&gt;my-namespace:your.domain.com</title>
<path fill="none" stroke="#333333" stroke-width="2" stroke-opacity="0.600000" d="M66.19,-34C66.19,-34 89.78,-34 89.78,-34"></path>
<polygon fill="#333333" fill-opacity="0.600000" stroke="#333333" stroke-width="2" stroke-opacity="0.600000" points="88.27,-37.5 98.27,-34 88.27,-30.5 88.27,-37.5"></polygon>
</g>
</g>
</svg>
