<?xml version="1.0" encoding="UTF-8" standalone="no"?><!-- Generated by graphviz version 12.1.2 (20240928.0832)
 --><!-- Title: ndiag Pages: 1 --><svg width="698pt" height="137pt" viewBox="0.00 0.00 697.53 137.00" xmlns="http://www.w3.org/2000/svg" xmlns:xlink="http://www.w3.org/1999/xlink"><g id="graph0" class="graph" transform="scale(1 1) rotate(0) translate(4 133)"><title>ndiag</title><polygon fill="white" stroke="none" points="-4,4 -4,-133 693.53,-133 693.53,4 -4,4"></polygon><g id="clust1" class="cluster"><title>cluster_my-namespace</title><polygon fill="none" stroke="black" stroke-width="2" points="45.78,-8 45.78,-85 157.48,-85 157.48,-8 45.78,-8"></polygon><text text-anchor="middle" x="101.63" y="-68.4" font-family="Arial" font-size="14.00">my-namespace</text></g><!-- none --><g id="node1" class="node"><title>none</title><text text-anchor="middle" x="101.13" y="-29.8" font-family="Times,serif" font-size="14.00">none</text></g><!-- my&#45;namespace:my&#45;hpa --><g id="node2" class="node"><title>my-namespace:my-hpa</title><ellipse fill="none" stroke="black" cx="101.13" cy="-111" rx="101.13" ry="18"></ellipse><text text-anchor="middle" x="101.13" y="-106.8" font-family="Times,serif" font-size="14.00">my-namespace:my-hpa</text></g><!-- my&#45;namespace:my&#45;deploy --><g id="node3" class="node"><title>my-namespace:my-deploy</title><ellipse fill="none" stroke="black" cx="351.74" cy="-111" rx="113.47" ry="18"></ellipse><text text-anchor="middle" x="351.74" y="-106.8" font-family="Times,serif" font-size="14.00">my-namespace:my-deploy</text></g><!-- my&#45;namespace:my&#45;hpa&#45;&gt;my&#45;namespace:my&#45;deploy --><g id="edge-0" class="edge"><title>my-namespace:my-hpa-&gt;my-namespace:my-deploy</title><path fill="none" stroke="#4b75b9" stroke-width="2" stroke-dasharray="5,2" d="M202.7,-111C202.7,-111 229.14,-111 229.14,-111"></path><ellipse fill="#4b75b9" stroke="#4b75b9" stroke-width="2" cx="233.14" cy="-111" rx="4" ry="4"></ellipse></g><!-- my&#45;namespace:my&#45;rs --><g id="node4" class="node"><title>my-namespace:my-rs</title><ellipse fill="none" stroke="black" cx="595.37" cy="-111" rx="94.16" ry="18"></ellipse><text text-anchor="middle" x="595.37" y="-106.8" font-family="Times,serif" font-size="14.00">my-namespace:my-rs</text></g><!-- my&#45;namespace:my&#45;deploy&#45;&gt;my&#45;namespace:my&#45;rs --><g id="edge-1" class="edge"><title>my-namespace:my-deploy-&gt;my-namespace:my-rs</title><path fill="none" stroke="#4b75b9" stroke-width="2" stroke-dasharray="5,2" d="M465.71,-111C465.71,-111 491.85,-111 491.85,-111"></path><ellipse fill="#4b75b9" stroke="#4b75b9" stroke-width="2" cx="495.85" cy="-111" rx="4" ry="4"></ellipse></g></g></svg>