<?xml version="1.0" encoding="UTF-8" standalone="no"?><!-- Generated by graphviz version 12.1.2 (20240928.0832)
 --><!-- Title: ndiag Pages: 1 --><svg width="344pt" height="358pt" viewBox="0.00 0.00 343.90 357.60" xmlns="http://www.w3.org/2000/svg" xmlns:xlink="http://www.w3.org/1999/xlink"><g id="graph0" class="graph" transform="scale(1 1) rotate(0) translate(4 353.6)"><title>ndiag</title><polygon fill="white" stroke="none" points="-4,4 -4,-353.6 339.9,-353.6 339.9,4 -4,4"></polygon><g id="clust1" class="cluster"><title>cluster_k8s:my-cluster</title><path fill="#ffffff" stroke="#1f91be" stroke-width="2" d="M20,-8C20,-8 250,-8 250,-8 256,-8 262,-14 262,-20 262,-20 262,-329.6 262,-329.6 262,-335.6 256,-341.6 250,-341.6 250,-341.6 20,-341.6 20,-341.6 14,-341.6 8,-335.6 8,-329.6 8,-329.6 8,-20 8,-20 8,-14 14,-8 20,-8"></path><text text-anchor="middle" x="135" y="-325" font-family="Arial" font-size="14.00" fill="#333333">k8s:my-cluster</text></g><g id="clust2" class="cluster"><title>cluster_my-namespace</title><polygon fill="#ffffff" stroke="#333333" stroke-width="2" points="16,-16 16,-308.8 254,-308.8 254,-16 16,-16"></polygon><text text-anchor="middle" x="135" y="-292.2" font-family="Arial" font-size="14.00" fill="#333333">my-namespace</text></g><!-- my&#45;namespace:your.domain.com --><g id="node1" class="node"><title>my-namespace:your.domain.com</title><path fill="#ffffff" stroke="#4b75b9" stroke-width="3" d="M233.69,-204C233.69,-204 134.31,-204 134.31,-204 128.31,-204 122.31,-198 122.31,-192 122.31,-192 122.31,-180 122.31,-180 122.31,-174 128.31,-168 134.31,-168 134.31,-168 233.69,-168 233.69,-168 239.69,-168 245.69,-174 245.69,-180 245.69,-180 245.69,-192 245.69,-192 245.69,-198 239.69,-204 233.69,-204"></path><text text-anchor="middle" x="184" y="-181.8" font-family="Arial" font-size="14.00" fill="#333333">your.domain.com</text></g><!-- my&#45;namespace:my&#45;svc --><g id="node2" class="node"><title>my-namespace:my-svc</title><path fill="#ffffff" stroke="#4b75b9" stroke-width="3" d="M187.16,-132C187.16,-132 150.84,-132 150.84,-132 144.84,-132 138.84,-126 138.84,-120 138.84,-120 138.84,-108 138.84,-108 138.84,-102 144.84,-96 150.84,-96 150.84,-96 187.16,-96 187.16,-96 193.16,-96 199.16,-102 199.16,-108 199.16,-108 199.16,-120 199.16,-120 199.16,-126 193.16,-132 187.16,-132"></path><text text-anchor="middle" x="169" y="-109.8" font-family="Arial" font-size="14.00" fill="#333333">my-svc</text></g><!-- my&#45;namespace:your.domain.com&#45;&gt;my&#45;namespace:my&#45;svc --><g id="edge-1" class="edge"><title>my-namespace:your.domain.com-&gt;my-namespace:my-svc</title><path fill="none" stroke="#333333" stroke-width="2" stroke-opacity="0.600000" d="M169,-167.83C169,-167.83 169,-143.93 169,-143.93"></path><polygon fill="#333333" fill-opacity="0.600000" stroke="#333333" stroke-width="2" stroke-opacity="0.600000" points="172.5,-145.44 169,-135.44 165.5,-145.44 172.5,-145.44"></polygon></g><!-- my&#45;namespace:pod&#45;a --><g id="node3" class="node"><title>my-namespace:pod-a</title><path fill="#ffffff" stroke="#4b75b9" stroke-width="3" d="M153,-60C153,-60 123,-60 123,-60 117,-60 111,-54 111,-48 111,-48 111,-36 111,-36 111,-30 117,-24 123,-24 123,-24 153,-24 153,-24 159,-24 165,-30 165,-36 165,-36 165,-48 165,-48 165,-54 159,-60 153,-60"></path><text text-anchor="middle" x="138" y="-37.8" font-family="Arial" font-size="14.00" fill="#333333">pod-a</text></g><!-- my&#45;namespace:my&#45;svc&#45;&gt;my&#45;namespace:pod&#45;a --><g id="edge-2" class="edge"><title>my-namespace:my-svc-&gt;my-namespace:pod-a</title><path fill="none" stroke="#333333" stroke-width="2" stroke-opacity="0.600000" d="M156.28,-95.83C156.28,-95.83 156.28,-71.93 156.28,-71.93"></path><polygon fill="#333333" fill-opacity="0.600000" stroke="#333333" stroke-width="2" stroke-opacity="0.600000" points="159.78,-73.44 156.28,-63.44 152.78,-73.44 159.78,-73.44"></polygon></g><!-- my&#45;namespace:pod&#45;b --><g id="node4" class="node"><title>my-namespace:pod-b</title><path fill="#ffffff" stroke="#4b75b9" stroke-width="3" d="M225,-60C225,-60 195,-60 195,-60 189,-60 183,-54 183,-48 183,-48 183,-36 183,-36 183,-30 189,-24 195,-24 195,-24 225,-24 225,-24 231,-24 237,-30 237,-36 237,-36 237,-48 237,-48 237,-54 231,-60 225,-60"></path><text text-anchor="middle" x="210" y="-37.8" font-family="Arial" font-size="14.00" fill="#333333">pod-b</text></g><!-- my&#45;namespace:my&#45;svc&#45;&gt;my&#45;namespace:pod&#45;b --><g id="edge-3" class="edge"><title>my-namespace:my-svc-&gt;my-namespace:pod-b</title><path fill="none" stroke="#333333" stroke-width="2" stroke-opacity="0.600000" d="M193.77,-95.83C193.77,-95.83 193.77,-71.93 193.77,-71.93"></path><polygon fill="#333333" fill-opacity="0.600000" stroke="#333333" stroke-width="2" stroke-opacity="0.600000" points="197.27,-73.44 193.77,-63.44 190.27,-73.44 197.27,-73.44"></polygon></g><!-- my&#45;namespace:pod&#45;c --><g id="node5" class="node"><title>my-namespace:pod-c</title><path fill="#ffffff" stroke="#4b75b9" stroke-width="3" d="M81,-60C81,-60 51,-60 51,-60 45,-60 39,-54 39,-48 39,-48 39,-36 39,-36 39,-30 45,-24 51,-24 51,-24 81,-24 81,-24 87,-24 93,-30 93,-36 93,-36 93,-48 93,-48 93,-54 87,-60 81,-60"></path><text text-anchor="middle" x="66" y="-37.8" font-family="Arial" font-size="14.00" fill="#333333">pod-c</text></g><!-- my&#45;namespace:my&#45;svc&#45;&gt;my&#45;namespace:pod&#45;c --><g id="edge-4" class="edge"><title>my-namespace:my-svc-&gt;my-namespace:pod-c</title><path fill="none" stroke="#333333" stroke-width="2" stroke-opacity="0.600000" d="M147.56,-95.94C147.56,-84.56 147.56,-72 147.56,-72 147.56,-72 81,-72 81,-72 81,-72 81,-70.85 81,-70.85"></path><polygon fill="#333333" fill-opacity="0.600000" stroke="#333333" stroke-width="2" stroke-opacity="0.600000" points="84.5,-73.51 81,-63.51 77.5,-73.51 84.5,-73.51"></polygon></g><!-- my&#45;namespace:my&#45;hpa --><g id="node6" class="node"><title>my-namespace:my-hpa</title><path fill="#ffffff" stroke="#4b75b9" stroke-width="3" d="M83.34,-276C83.34,-276 44.66,-276 44.66,-276 38.66,-276 32.66,-270 32.66,-264 32.66,-264 32.66,-252 32.66,-252 32.66,-246 38.66,-240 44.66,-240 44.66,-240 83.34,-240 83.34,-240 89.34,-240 95.34,-246 95.34,-252 95.34,-252 95.34,-264 95.34,-264 95.34,-270 89.34,-276 83.34,-276"></path><text text-anchor="middle" x="64" y="-253.8" font-family="Arial" font-size="14.00" fill="#333333">my-hpa</text></g><!-- my&#45;namespace:my&#45;deploy --><g id="node7" class="node"><title>my-namespace:my-deploy</title><path fill="#ffffff" stroke="#4b75b9" stroke-width="3" d="M92.29,-204C92.29,-204 35.71,-204 35.71,-204 29.71,-204 23.71,-198 23.71,-192 23.71,-192 23.71,-180 23.71,-180 23.71,-174 29.71,-168 35.71,-168 35.71,-168 92.29,-168 92.29,-168 98.29,-168 104.29,-174 104.29,-180 104.29,-180 104.29,-192 104.29,-192 104.29,-198 98.29,-204 92.29,-204"></path><text text-anchor="middle" x="64" y="-181.8" font-family="Arial" font-size="14.00" fill="#333333">my-deploy</text></g><!-- my&#45;namespace:my&#45;hpa&#45;&gt;my&#45;namespace:my&#45;deploy --><g id="edge-5" class="edge"><title>my-namespace:my-hpa-&gt;my-namespace:my-deploy</title><path fill="none" stroke="#4b75b9" stroke-width="2" stroke-dasharray="5,2" d="M64,-239.83C64,-239.83 64,-213.41 64,-213.41"></path><ellipse fill="#4b75b9" stroke="#4b75b9" stroke-width="2" cx="64" cy="-209.41" rx="4" ry="4"></ellipse></g><!-- my&#45;namespace:my&#45;rs --><g id="node8" class="node"><title>my-namespace:my-rs</title><path fill="#ffffff" stroke="#4b75b9" stroke-width="3" d="M87,-132C87,-132 57,-132 57,-132 51,-132 45,-126 45,-120 45,-120 45,-108 45,-108 45,-102 51,-96 57,-96 57,-96 87,-96 87,-96 93,-96 99,-102 99,-108 99,-108 99,-120 99,-120 99,-126 93,-132 87,-132"></path><text text-anchor="middle" x="72" y="-109.8" font-family="Arial" font-size="14.00" fill="#333333">my-rs</text></g><!-- my&#45;namespace:my&#45;deploy&#45;&gt;my&#45;namespace:my&#45;rs --><g id="edge-6" class="edge"><title>my-namespace:my-deploy-&gt;my-namespace:my-rs</title><path fill="none" stroke="#4b75b9" stroke-width="2" stroke-dasharray="5,2" d="M72,-167.83C72,-167.83 72,-141.41 72,-141.41"></path><ellipse fill="#4b75b9" stroke="#4b75b9" stroke-width="2" cx="72" cy="-137.41" rx="4" ry="4"></ellipse></g><!-- my&#45;namespace:my&#45;rs&#45;&gt;my&#45;namespace:pod&#45;a --><g id="edge-7" class="edge"><title>my-namespace:my-rs-&gt;my-namespace:pod-a</title><path fill="none" stroke="#4b75b9" stroke-width="2" stroke-dasharray="5,2" d="M99.26,-114C108.56,-114 116.66,-114 116.66,-114 116.66,-114 116.66,-69.17 116.66,-69.17"></path><ellipse fill="#4b75b9" stroke="#4b75b9" stroke-width="2" cx="116.66" cy="-65.17" rx="4" ry="4"></ellipse></g><!-- my&#45;namespace:my&#45;rs&#45;&gt;my&#45;namespace:pod&#45;b --><g id="edge-8" class="edge"><title>my-namespace:my-rs-&gt;my-namespace:pod-b</title><path fill="none" stroke="#4b75b9" stroke-width="2" stroke-dasharray="5,2" d="M69,-95.51C69,-89.34 69,-84 69,-84 69,-84 188.39,-84 188.39,-84 188.39,-84 188.39,-69.06 188.39,-69.06"></path><ellipse fill="#4b75b9" stroke="#4b75b9" stroke-width="2" cx="188.39" cy="-65.06" rx="4" ry="4"></ellipse></g><!-- my&#45;namespace:my&#45;rs&#45;&gt;my&#45;namespace:pod&#45;c --><g id="edge-9" class="edge"><title>my-namespace:my-rs-&gt;my-namespace:pod-c</title><path fill="none" stroke="#4b75b9" stroke-width="2" stroke-dasharray="5,2" d="M57,-95.83C57,-95.83 57,-69.41 57,-69.41"></path><ellipse fill="#4b75b9" stroke="#4b75b9" stroke-width="2" cx="57" cy="-65.41" rx="4" ry="4"></ellipse></g><!-- browser --><g id="node9" class="node"><title>browser</title><path fill="none" stroke="black" stroke-width="2" d="M323.9,-276C323.9,-276 282.1,-276 282.1,-276 276.1,-276 270.1,-270 270.1,-264 270.1,-264 270.1,-252 270.1,-252 270.1,-246 276.1,-240 282.1,-240 282.1,-240 323.9,-240 323.9,-240 329.9,-240 335.9,-246 335.9,-252 335.9,-252 335.9,-264 335.9,-264 335.9,-270 329.9,-276 323.9,-276"></path><text text-anchor="middle" x="303" y="-253.8" font-family="Arial" font-size="14.00">browser</text></g><!-- browser&#45;&gt;my&#45;namespace:your.domain.com --><g id="edge-0" class="edge"><title>browser-&gt;my-namespace:your.domain.com</title><path fill="none" stroke="#333333" stroke-width="2" stroke-opacity="0.600000" d="M303,-239.83C303,-218.5 303,-186 303,-186 303,-186 257.45,-186 257.45,-186"></path><polygon fill="#333333" fill-opacity="0.600000" stroke="#333333" stroke-width="2" stroke-opacity="0.600000" points="258.97,-182.5 248.97,-186 258.97,-189.5 258.97,-182.5"></polygon></g></g></svg>