<?xml version="1.0" encoding="UTF-8" standalone="no"?><!-- Generated by graphviz version 12.1.2 (20240928.0832)
 --><!-- Title: ndiag Pages: 1 --><svg width="770pt" height="157pt" viewBox="0.00 0.00 770.32 156.80" xmlns="http://www.w3.org/2000/svg" xmlns:xlink="http://www.w3.org/1999/xlink"><g id="graph0" class="graph" transform="scale(1 1) rotate(0) translate(4 152.8)"><title>ndiag</title><polygon fill="white" stroke="none" points="-4,4 -4,-152.8 766.32,-152.8 766.32,4 -4,4"></polygon><g id="clust1" class="cluster"><title>cluster_zone:platform</title><path fill="#ffffff" stroke="#1f91be" stroke-width="2" d="M20,-64C20,-64 355,-64 355,-64 361,-64 367,-70 367,-76 367,-76 367,-128.8 367,-128.8 367,-134.8 361,-140.8 355,-140.8 355,-140.8 20,-140.8 20,-140.8 14,-140.8 8,-134.8 8,-128.8 8,-128.8 8,-76 8,-76 8,-70 14,-64 20,-64"></path><text text-anchor="middle" x="187.5" y="-124.2" font-family="Arial" font-size="14.00" fill="#333333">zone:platform</text></g><!-- zone:platform:cloud load balancing --><g id="node1" class="node"><title>zone:platform:cloud load balancing</title><path fill="#ffffff" stroke="#4b75b9" stroke-width="3" d="M156.5,-108C156.5,-108 27.5,-108 27.5,-108 21.5,-108 15.5,-102 15.5,-96 15.5,-96 15.5,-84 15.5,-84 15.5,-78 21.5,-72 27.5,-72 27.5,-72 156.5,-72 156.5,-72 162.5,-72 168.5,-78 168.5,-84 168.5,-84 168.5,-96 168.5,-96 168.5,-102 162.5,-108 156.5,-108"></path><text text-anchor="middle" x="92" y="-85.8" font-family="Arial" font-size="14.00" fill="#333333">Cloud Load Balancing</text></g><!-- service instance:compute engine --><g id="node3" class="node"><title>service instance:compute engine</title><ellipse fill="none" stroke="black" cx="273" cy="-18" rx="136.52" ry="18"></ellipse><text text-anchor="middle" x="273" y="-13.8" font-family="Times,serif" font-size="14.00">service instance:compute engine</text></g><!-- zone:platform:cloud load balancing&#45;&gt;service instance:compute engine --><g id="edge-0" class="edge"><title>zone:platform:cloud load balancing-&gt;service instance:compute engine</title><path fill="none" stroke="#333333" stroke-width="2" stroke-opacity="0.600000" d="M152.49,-71.83C152.49,-71.83 152.49,-38.08 152.49,-38.08"></path><polygon fill="#333333" fill-opacity="0.600000" stroke="#333333" stroke-width="2" stroke-opacity="0.600000" points="155.99,-39.6 152.49,-29.6 148.99,-39.6 155.99,-39.6"></polygon></g><!-- zone:platform:persistent disk snapshot --><g id="node2" class="node"><title>zone:platform:persistent disk snapshot</title><path fill="#ffffff" stroke="#4b75b9" stroke-width="3" d="M347.2,-108C347.2,-108 198.8,-108 198.8,-108 192.8,-108 186.8,-102 186.8,-96 186.8,-96 186.8,-84 186.8,-84 186.8,-78 192.8,-72 198.8,-72 198.8,-72 347.2,-72 347.2,-72 353.2,-72 359.2,-78 359.2,-84 359.2,-84 359.2,-96 359.2,-96 359.2,-102 353.2,-108 347.2,-108"></path><text text-anchor="middle" x="273" y="-85.8" font-family="Arial" font-size="14.00" fill="#333333">Persistent Disk Snapshot</text></g><!-- service instance:compute engine&#45;&gt;zone:platform:persistent disk snapshot --><g id="edge-2" class="edge"><title>service instance:compute engine-&gt;zone:platform:persistent disk snapshot</title><path fill="none" stroke="#333333" stroke-width="2" stroke-opacity="0.600000" d="M273,-36.17C273,-36.17 273,-60.07 273,-60.07"></path><polygon fill="#333333" fill-opacity="0.600000" stroke="#333333" stroke-width="2" stroke-opacity="0.600000" points="269.5,-58.56 273,-68.56 276.5,-58.56 269.5,-58.56"></polygon></g><!-- heartbeat and snapshot system:compute engine --><g id="node4" class="node"><title>heartbeat and snapshot system:compute engine</title><ellipse fill="none" stroke="black" cx="570" cy="-90" rx="192.32" ry="18"></ellipse><text text-anchor="middle" x="570" y="-85.8" font-family="Times,serif" font-size="14.00">heartbeat and snapshot system:compute engine</text></g><!-- heartbeat and snapshot system:compute engine&#45;&gt;service instance:compute engine --><g id="edge-1" class="edge"><title>heartbeat and snapshot system:compute engine-&gt;service instance:compute engine</title><path fill="none" stroke="#333333" stroke-width="2" stroke-opacity="0.600000" d="M393.6,-71.05C393.6,-71.05 393.6,-37.9 393.6,-37.9"></path><polygon fill="#333333" fill-opacity="0.600000" stroke="#333333" stroke-width="2" stroke-opacity="0.600000" points="390.1,-69.54 393.6,-79.54 397.1,-69.54 390.1,-69.54"></polygon><polygon fill="#333333" fill-opacity="0.600000" stroke="#333333" stroke-width="2" stroke-opacity="0.600000" points="397.1,-39.41 393.6,-29.41 390.1,-39.41 397.1,-39.41"></polygon></g></g></svg>