<?xml version="1.0" encoding="UTF-8" standalone="no"?><!-- Generated by graphviz version 12.1.2 (20240928.0832)
 --><!-- Title: ndiag Pages: 1 --><svg width="242pt" height="186pt" viewBox="0.00 0.00 242.00 185.60" xmlns="http://www.w3.org/2000/svg" xmlns:xlink="http://www.w3.org/1999/xlink"><g id="graph0" class="graph" transform="scale(1 1) rotate(0) translate(4 181.6)"><title>ndiag</title><polygon fill="white" stroke="none" points="-4,4 -4,-181.6 238,-181.6 238,4 -4,4"></polygon><g id="clust1" class="cluster"><title>cluster_Heartbeat and Snapshot System</title><polygon fill="none" stroke="black" stroke-width="2" points="8,-92.8 8,-169.6 226,-169.6 226,-92.8 8,-92.8"></polygon><text text-anchor="middle" x="117" y="-153" font-family="Arial" font-size="14.00">Heartbeat and Snapshot System</text></g><g id="clust2" class="cluster"><title>cluster_Service Instance</title><polygon fill="none" stroke="#999999" stroke-width="2" points="8,-8 8,-84.8 144,-84.8 144,-8 8,-8"></polygon><text text-anchor="middle" x="76" y="-68.2" font-family="Arial" font-size="14.00" fill="#666666">Service Instance</text></g><!-- heartbeat and snapshot system:compute engine --><g id="node1" class="node"><title>heartbeat and snapshot system:compute engine</title><path fill="#ffffff" stroke="#4b75b9" stroke-width="3" d="M124.14,-136.8C124.14,-136.8 27.86,-136.8 27.86,-136.8 21.86,-136.8 15.86,-130.8 15.86,-124.8 15.86,-124.8 15.86,-112.8 15.86,-112.8 15.86,-106.8 21.86,-100.8 27.86,-100.8 27.86,-100.8 124.14,-100.8 124.14,-100.8 130.14,-100.8 136.14,-106.8 136.14,-112.8 136.14,-112.8 136.14,-124.8 136.14,-124.8 136.14,-130.8 130.14,-136.8 124.14,-136.8"></path><text text-anchor="middle" x="76" y="-114.6" font-family="Arial" font-size="14.00" fill="#333333">Compute Engine</text></g><!-- service instance:compute engine --><g id="node2" class="node"><title>service instance:compute engine</title><path fill="#ffffff" stroke="#4b75b9" stroke-width="3" d="M124.14,-52C124.14,-52 27.86,-52 27.86,-52 21.86,-52 15.86,-46 15.86,-40 15.86,-40 15.86,-28 15.86,-28 15.86,-22 21.86,-16 27.86,-16 27.86,-16 124.14,-16 124.14,-16 130.14,-16 136.14,-22 136.14,-28 136.14,-28 136.14,-40 136.14,-40 136.14,-46 130.14,-52 124.14,-52"></path><text text-anchor="middle" x="76" y="-29.8" font-family="Arial" font-size="14.00" fill="#333333">Compute Engine</text></g><!-- heartbeat and snapshot system:compute engine&#45;&gt;service instance:compute engine --><g id="edge1" class="edge"><title>heartbeat and snapshot system:compute engine-&gt;service instance:compute engine</title><path fill="none" stroke="#333333" stroke-width="2" stroke-opacity="0.600000" d="M76,-88.89C76,-88.89 76,-63.88 76,-63.88"></path><polygon fill="#333333" fill-opacity="0.600000" stroke="#333333" stroke-width="2" stroke-opacity="0.600000" points="72.5,-87.37 76,-97.37 79.5,-87.37 72.5,-87.37"></polygon><polygon fill="#333333" fill-opacity="0.600000" stroke="#333333" stroke-width="2" stroke-opacity="0.600000" points="79.5,-65.39 76,-55.39 72.5,-65.39 79.5,-65.39"></polygon></g></g></svg>