<?xml version="1.0" encoding="UTF-8" standalone="no"?><!-- Generated by graphviz version 12.1.2 (20240928.0832)
 --><!-- Title: ndiag Pages: 1 --><svg width="609pt" height="186pt" viewBox="0.00 0.00 609.00 185.60" xmlns="http://www.w3.org/2000/svg" xmlns:xlink="http://www.w3.org/1999/xlink"><g id="graph0" class="graph" transform="scale(1 1) rotate(0) translate(4 181.6)"><title>ndiag</title><polygon fill="white" stroke="none" points="-4,4 -4,-181.6 605,-181.6 605,4 -4,4"></polygon><g id="clust1" class="cluster"><title>cluster_zone:platform</title><path fill="#ffffff" stroke="#1f91be" stroke-width="2" d="M20,-92.8C20,-92.8 355,-92.8 355,-92.8 361,-92.8 367,-98.8 367,-104.8 367,-104.8 367,-157.6 367,-157.6 367,-163.6 361,-169.6 355,-169.6 355,-169.6 20,-169.6 20,-169.6 14,-169.6 8,-163.6 8,-157.6 8,-157.6 8,-104.8 8,-104.8 8,-98.8 14,-92.8 20,-92.8"></path><text text-anchor="middle" x="187.5" y="-153" font-family="Arial" font-size="14.00" fill="#333333">zone:platform</text></g><g id="clust4" class="cluster"><title>cluster_Service Instance</title><polygon fill="none" stroke="black" stroke-width="2" points="205,-8 205,-84.8 341,-84.8 341,-8 205,-8"></polygon><text text-anchor="middle" x="273" y="-68.2" font-family="Arial" font-size="14.00">Service Instance</text></g><g id="clust5" class="cluster"><title>cluster_Heartbeat and Snapshot System</title><polygon fill="none" stroke="#999999" stroke-width="2" points="375,-92.8 375,-169.6 593,-169.6 593,-92.8 375,-92.8"></polygon><text text-anchor="middle" x="484" y="-153" font-family="Arial" font-size="14.00" fill="#666666">Heartbeat and Snapshot System</text></g><!-- zone:platform:cloud load balancing --><g id="node1" class="node"><title>zone:platform:cloud load balancing</title><path fill="#ffffff" stroke="#4b75b9" stroke-width="3" d="M156.5,-136.8C156.5,-136.8 27.5,-136.8 27.5,-136.8 21.5,-136.8 15.5,-130.8 15.5,-124.8 15.5,-124.8 15.5,-112.8 15.5,-112.8 15.5,-106.8 21.5,-100.8 27.5,-100.8 27.5,-100.8 156.5,-100.8 156.5,-100.8 162.5,-100.8 168.5,-106.8 168.5,-112.8 168.5,-112.8 168.5,-124.8 168.5,-124.8 168.5,-130.8 162.5,-136.8 156.5,-136.8"></path><text text-anchor="middle" x="92" y="-114.6" font-family="Arial" font-size="14.00" fill="#333333">Cloud Load Balancing</text></g><!-- service instance:compute engine --><g id="node3" class="node"><title>service instance:compute engine</title><path fill="#ffffff" stroke="#4b75b9" stroke-width="3" d="M321.14,-52C321.14,-52 224.86,-52 224.86,-52 218.86,-52 212.86,-46 212.86,-40 212.86,-40 212.86,-28 212.86,-28 212.86,-22 218.86,-16 224.86,-16 224.86,-16 321.14,-16 321.14,-16 327.14,-16 333.14,-22 333.14,-28 333.14,-28 333.14,-40 333.14,-40 333.14,-46 327.14,-52 321.14,-52"></path><text text-anchor="middle" x="273" y="-29.8" font-family="Arial" font-size="14.00" fill="#333333">Compute Engine</text></g><!-- zone:platform:cloud load balancing&#45;&gt;service instance:compute engine --><g id="edge1" class="edge"><title>zone:platform:cloud load balancing-&gt;service instance:compute engine</title><path fill="none" stroke="#333333" stroke-width="2" stroke-opacity="0.600000" d="M92,-100.4C92,-75.46 92,-34 92,-34 92,-34 200.96,-34 200.96,-34"></path><polygon fill="#333333" fill-opacity="0.600000" stroke="#333333" stroke-width="2" stroke-opacity="0.600000" points="199.45,-37.5 209.45,-34 199.45,-30.5 199.45,-37.5"></polygon></g><!-- zone:platform:persistent disk snapshot --><g id="node2" class="node"><title>zone:platform:persistent disk snapshot</title><path fill="#ffffff" stroke="#4b75b9" stroke-width="3" d="M347.2,-136.8C347.2,-136.8 198.8,-136.8 198.8,-136.8 192.8,-136.8 186.8,-130.8 186.8,-124.8 186.8,-124.8 186.8,-112.8 186.8,-112.8 186.8,-106.8 192.8,-100.8 198.8,-100.8 198.8,-100.8 347.2,-100.8 347.2,-100.8 353.2,-100.8 359.2,-106.8 359.2,-112.8 359.2,-112.8 359.2,-124.8 359.2,-124.8 359.2,-130.8 353.2,-136.8 347.2,-136.8"></path><text text-anchor="middle" x="273" y="-114.6" font-family="Arial" font-size="14.00" fill="#333333">Persistent Disk Snapshot</text></g><!-- service instance:compute engine&#45;&gt;zone:platform:persistent disk snapshot --><g id="edge3" class="edge"><title>service instance:compute engine-&gt;zone:platform:persistent disk snapshot</title><path fill="none" stroke="#333333" stroke-width="2" stroke-opacity="0.600000" d="M273,-52.4C273,-52.4 273,-88.92 273,-88.92"></path><polygon fill="#333333" fill-opacity="0.600000" stroke="#333333" stroke-width="2" stroke-opacity="0.600000" points="269.5,-87.41 273,-97.41 276.5,-87.41 269.5,-87.41"></polygon></g><!-- heartbeat and snapshot system:compute engine --><g id="node4" class="node"><title>heartbeat and snapshot system:compute engine</title><path fill="#ffffff" stroke="#4b75b9" stroke-width="3" d="M491.14,-136.8C491.14,-136.8 394.86,-136.8 394.86,-136.8 388.86,-136.8 382.86,-130.8 382.86,-124.8 382.86,-124.8 382.86,-112.8 382.86,-112.8 382.86,-106.8 388.86,-100.8 394.86,-100.8 394.86,-100.8 491.14,-100.8 491.14,-100.8 497.14,-100.8 503.14,-106.8 503.14,-112.8 503.14,-112.8 503.14,-124.8 503.14,-124.8 503.14,-130.8 497.14,-136.8 491.14,-136.8"></path><text text-anchor="middle" x="443" y="-114.6" font-family="Arial" font-size="14.00" fill="#333333">Compute Engine</text></g><!-- heartbeat and snapshot system:compute engine&#45;&gt;service instance:compute engine --><g id="edge2" class="edge"><title>heartbeat and snapshot system:compute engine-&gt;service instance:compute engine</title><path fill="none" stroke="#333333" stroke-width="2" stroke-opacity="0.600000" d="M443,-88.89C443,-88.89 443,-34 443,-34 443,-34 344.93,-34 344.93,-34"></path><polygon fill="#333333" fill-opacity="0.600000" stroke="#333333" stroke-width="2" stroke-opacity="0.600000" points="439.5,-87.37 443,-97.37 446.5,-87.37 439.5,-87.37"></polygon><polygon fill="#333333" fill-opacity="0.600000" stroke="#333333" stroke-width="2" stroke-opacity="0.600000" points="346.44,-30.5 336.44,-34 346.44,-37.5 346.44,-30.5"></polygon></g></g></svg>