<?xml version="1.0" encoding="UTF-8" standalone="no"?><!-- Generated by graphviz version 12.1.2 (20240928.0832)
 --><!-- Title: ndiag Pages: 1 --><svg width="391pt" height="101pt" viewBox="0.00 0.00 390.63 101.00" xmlns="http://www.w3.org/2000/svg" xmlns:xlink="http://www.w3.org/1999/xlink"><g id="graph0" class="graph" transform="scale(1 1) rotate(0) translate(4 97)"><title>ndiag</title><polygon fill="white" stroke="none" points="-4,4 -4,-97 386.63,-97 386.63,4 -4,4"></polygon><g id="clust1" class="cluster"><title>cluster_Service Instance</title><polygon fill="none" stroke="black" stroke-width="2" points="8,-8 8,-85 144.29,-85 144.29,-8 8,-8"></polygon><text text-anchor="middle" x="76.14" y="-68.4" font-family="Arial" font-size="14.00">Service Instance</text></g><g id="clust2" class="cluster"><title>cluster_Heartbeat and Snapshot System</title><polygon fill="none" stroke="black" stroke-width="2" points="164.29,-8 164.29,-85 382.63,-85 382.63,-8 164.29,-8"></polygon><text text-anchor="middle" x="273.46" y="-68.4" font-family="Arial" font-size="14.00">Heartbeat and Snapshot System</text></g><!-- service instance:compute engine --><g id="node1" class="node"><title>service instance:compute engine</title><path fill="#ffffff" stroke="#4b75b9" stroke-width="3" d="M124.29,-52C124.29,-52 28,-52 28,-52 22,-52 16,-46 16,-40 16,-40 16,-28 16,-28 16,-22 22,-16 28,-16 28,-16 124.29,-16 124.29,-16 130.29,-16 136.29,-22 136.29,-28 136.29,-28 136.29,-40 136.29,-40 136.29,-46 130.29,-52 124.29,-52"></path><text text-anchor="middle" x="76.14" y="-29.8" font-family="Arial" font-size="14.00" fill="#333333">Compute Engine</text></g><!-- heartbeat and snapshot system:compute engine --><g id="node2" class="node"><title>heartbeat and snapshot system:compute engine</title><path fill="#ffffff" stroke="#4b75b9" stroke-width="3" d="M321.11,-52C321.11,-52 224.82,-52 224.82,-52 218.82,-52 212.82,-46 212.82,-40 212.82,-40 212.82,-28 212.82,-28 212.82,-22 218.82,-16 224.82,-16 224.82,-16 321.11,-16 321.11,-16 327.11,-16 333.11,-22 333.11,-28 333.11,-28 333.11,-40 333.11,-40 333.11,-46 327.11,-52 321.11,-52"></path><text text-anchor="middle" x="272.96" y="-29.8" font-family="Arial" font-size="14.00" fill="#333333">Compute Engine</text></g><!-- service instance:compute engine&#45;&gt;heartbeat and snapshot system:compute engine --><g id="edge-0" class="edge"><title>service instance:compute engine-&gt;heartbeat and snapshot system:compute engine</title><path fill="none" stroke="#333333" stroke-width="2" stroke-opacity="0.600000" d="M136.53,-28C136.53,-28 200.83,-28 200.83,-28"></path><polygon fill="#333333" fill-opacity="0.600000" stroke="#333333" stroke-width="2" stroke-opacity="0.600000" points="199.32,-31.5 209.32,-28 199.32,-24.5 199.32,-31.5"></polygon></g><!-- heartbeat and snapshot system:compute engine&#45;&gt;service instance:compute engine --><g id="edge-1" class="edge"><title>heartbeat and snapshot system:compute engine-&gt;service instance:compute engine</title><path fill="none" stroke="#333333" stroke-width="2" stroke-opacity="0.600000" d="M212.57,-40C212.57,-40 148.27,-40 148.27,-40"></path><polygon fill="#333333" fill-opacity="0.600000" stroke="#333333" stroke-width="2" stroke-opacity="0.600000" points="149.79,-36.5 139.79,-40 149.79,-43.5 149.79,-36.5"></polygon></g></g></svg>