<?xml version="1.0" encoding="UTF-8" standalone="no"?>
<!DOCTYPE svg PUBLIC "-//W3C//DTD SVG 1.1//EN"
 "http://www.w3.org/Graphics/SVG/1.1/DTD/svg11.dtd">
<!-- Generated by graphviz version 12.1.2 (20240928.0832)
 -->
<!-- Title: ndiag Pages: 1 -->
<svg width="401pt" height="101pt" viewBox="0.00 0.00 400.81 101.00" xmlns="http://www.w3.org/2000/svg" xmlns:xlink="http://www.w3.org/1999/xlink">
<g id="graph0" class="graph" transform="scale(1 1) rotate(0) translate(4 97)">
<title>ndiag</title>
<polygon fill="white" stroke="none" points="-4,4 -4,-97 396.81,-97 396.81,4 -4,4"></polygon>
<g id="clust1" class="cluster">
<title>cluster_zone:platform</title>
<path fill="#ffffff" stroke="#1f91be" stroke-width="2" d="M227.82,-8C227.82,-8 372.81,-8 372.81,-8 378.81,-8 384.81,-14 384.81,-20 384.81,-20 384.81,-73 384.81,-73 384.81,-79 378.81,-85 372.81,-85 372.81,-85 227.82,-85 227.82,-85 221.82,-85 215.82,-79 215.82,-73 215.82,-73 215.82,-20 215.82,-20 215.82,-14 221.82,-8 227.82,-8"></path>
<text text-anchor="middle" x="300.32" y="-68.4" font-family="Arial" font-size="14.00" fill="#333333">zone:platform</text>
</g>
<!-- zone:platform:cloud load balancing -->
<g id="node1" class="node">
<title>zone:platform:cloud load balancing</title>
<path fill="#ffffff" stroke="#4b75b9" stroke-width="3" d="M364.81,-52C364.81,-52 235.82,-52 235.82,-52 229.82,-52 223.82,-46 223.82,-40 223.82,-40 223.82,-28 223.82,-28 223.82,-22 229.82,-16 235.82,-16 235.82,-16 364.81,-16 364.81,-16 370.81,-16 376.81,-22 376.81,-28 376.81,-28 376.81,-40 376.81,-40 376.81,-46 370.81,-52 364.81,-52"></path>
<text text-anchor="middle" x="300.32" y="-29.8" font-family="Arial" font-size="14.00" fill="#333333">Cloud Load Balancing</text>
</g>
<!-- browser -->
<g id="node2" class="node">
<title>browser</title>
<path fill="none" stroke="black" stroke-width="2" d="M53.79,-52C53.79,-52 12,-52 12,-52 6,-52 0,-46 0,-40 0,-40 0,-28 0,-28 0,-22 6,-16 12,-16 12,-16 53.79,-16 53.79,-16 59.79,-16 65.79,-22 65.79,-28 65.79,-28 65.79,-40 65.79,-40 65.79,-46 59.79,-52 53.79,-52"></path>
<text text-anchor="middle" x="32.9" y="-29.8" font-family="Arial" font-size="14.00">browser</text>
</g>
<!-- cloud dns -->
<g id="node3" class="node">
<title>cloud dns</title>
<path fill="none" stroke="black" stroke-width="2" d="M175.82,-52C175.82,-52 113.79,-52 113.79,-52 107.79,-52 101.79,-46 101.79,-40 101.79,-40 101.79,-28 101.79,-28 101.79,-22 107.79,-16 113.79,-16 113.79,-16 175.82,-16 175.82,-16 181.82,-16 187.82,-22 187.82,-28 187.82,-28 187.82,-40 187.82,-40 187.82,-46 181.82,-52 175.82,-52"></path>
<text text-anchor="middle" x="144.81" y="-29.8" font-family="Arial" font-size="14.00">Cloud DNS</text>
</g>
<!-- browser&#45;&gt;cloud dns -->
<g id="edge-0" class="edge">
<title>browser-&gt;cloud dns</title>
<path fill="none" stroke="#333333" stroke-width="2" stroke-opacity="0.600000" d="M66.17,-34C66.17,-34 89.98,-34 89.98,-34"></path>
<polygon fill="#333333" fill-opacity="0.600000" stroke="#333333" stroke-width="2" stroke-opacity="0.600000" points="88.46,-37.5 98.46,-34 88.46,-30.5 88.46,-37.5"></polygon>
</g>
<!-- cloud dns&#45;&gt;zone:platform:cloud load balancing -->
<g id="edge-1" class="edge">
<title>cloud dns-&gt;zone:platform:cloud load balancing</title>
<path fill="none" stroke="#333333" stroke-width="2" stroke-opacity="0.600000" d="M188.12,-34C188.12,-34 212.07,-34 212.07,-34"></path>
<polygon fill="#333333" fill-opacity="0.600000" stroke="#333333" stroke-width="2" stroke-opacity="0.600000" points="210.55,-37.5 220.55,-34 210.55,-30.5 210.55,-37.5"></polygon>
</g>
</g>
</svg>
