<?xml version="1.0" encoding="UTF-8" standalone="no"?><!-- Generated by graphviz version 12.1.2 (20240928.0832)
 --><!-- Title: ndiag Pages: 1 --><svg width="349pt" height="101pt" viewBox="0.00 0.00 349.28 101.00" xmlns="http://www.w3.org/2000/svg" xmlns:xlink="http://www.w3.org/1999/xlink"><g id="graph0" class="graph" transform="scale(1 1) rotate(0) translate(4 97)"><title>ndiag</title><polygon fill="white" stroke="none" points="-4,4 -4,-97 345.28,-97 345.28,4 -4,4"></polygon><g id="clust1" class="cluster"><title>cluster_zone:platform</title><path fill="#ffffff" stroke="#1f91be" stroke-width="2" d="M20,-8C20,-8 164.99,-8 164.99,-8 170.99,-8 176.99,-14 176.99,-20 176.99,-20 176.99,-73 176.99,-73 176.99,-79 170.99,-85 164.99,-85 164.99,-85 20,-85 20,-85 14,-85 8,-79 8,-73 8,-73 8,-20 8,-20 8,-14 14,-8 20,-8"></path><text text-anchor="middle" x="92.5" y="-68.4" font-family="Arial" font-size="14.00" fill="#333333">zone:platform</text></g><g id="clust4" class="cluster"><title>cluster_Service Instance</title><polygon fill="none" stroke="black" stroke-width="2" points="196.99,-8 196.99,-85 333.28,-85 333.28,-8 196.99,-8"></polygon><text text-anchor="middle" x="265.14" y="-68.4" font-family="Arial" font-size="14.00">Service Instance</text></g><!-- zone:platform:cloud load balancing --><g id="node1" class="node"><title>zone:platform:cloud load balancing</title><path fill="#ffffff" stroke="#4b75b9" stroke-width="3" d="M156.99,-52C156.99,-52 28,-52 28,-52 22,-52 16,-46 16,-40 16,-40 16,-28 16,-28 16,-22 22,-16 28,-16 28,-16 156.99,-16 156.99,-16 162.99,-16 168.99,-22 168.99,-28 168.99,-28 168.99,-40 168.99,-40 168.99,-46 162.99,-52 156.99,-52"></path><text text-anchor="middle" x="92.5" y="-29.8" font-family="Arial" font-size="14.00" fill="#333333">Cloud Load Balancing</text></g><!-- service instance:compute engine --><g id="node2" class="node"><title>service instance:compute engine</title><path fill="#ffffff" stroke="#4b75b9" stroke-width="3" d="M313.28,-52C313.28,-52 216.99,-52 216.99,-52 210.99,-52 204.99,-46 204.99,-40 204.99,-40 204.99,-28 204.99,-28 204.99,-22 210.99,-16 216.99,-16 216.99,-16 313.28,-16 313.28,-16 319.28,-16 325.28,-22 325.28,-28 325.28,-28 325.28,-40 325.28,-40 325.28,-46 319.28,-52 313.28,-52"></path><text text-anchor="middle" x="265.14" y="-29.8" font-family="Arial" font-size="14.00" fill="#333333">Compute Engine</text></g><!-- zone:platform:cloud load balancing&#45;&gt;service instance:compute engine --><g id="edge-0" class="edge"><title>zone:platform:cloud load balancing-&gt;service instance:compute engine</title><path fill="none" stroke="#333333" stroke-width="2" stroke-opacity="0.600000" d="M169.48,-34C169.48,-34 193.11,-34 193.11,-34"></path><polygon fill="#333333" fill-opacity="0.600000" stroke="#333333" stroke-width="2" stroke-opacity="0.600000" points="191.6,-37.5 201.6,-34 191.6,-30.5 191.6,-37.5"></polygon></g></g></svg>