<?xml version="1.0" encoding="UTF-8" standalone="no"?>
<!DOCTYPE svg PUBLIC "-//W3C//DTD SVG 1.1//EN"
 "http://www.w3.org/Graphics/SVG/1.1/DTD/svg11.dtd">
<!-- Generated by graphviz version 12.1.2 (20240928.0832)
 -->
<!-- Title: ndiag Pages: 1 -->
<svg width="500pt" height="101pt" viewBox="0.00 0.00 499.53 101.00" xmlns="http://www.w3.org/2000/svg" xmlns:xlink="http://www.w3.org/1999/xlink">
<g id="graph0" class="graph" transform="scale(1 1) rotate(0) translate(4 97)">
<title>ndiag</title>
<polygon fill="white" stroke="none" points="-4,4 -4,-97 495.53,-97 495.53,4 -4,4"></polygon>
<g id="clust4" class="cluster">
<title>cluster_Service Instance</title>
<polygon fill="none" stroke="black" stroke-width="2" points="8,-8 8,-85 144.29,-85 144.29,-8 8,-8"></polygon>
<text text-anchor="middle" x="76.14" y="-68.4" font-family="Arial" font-size="14.00">Service Instance</text>
</g>
<!-- service instance:compute engine -->
<g id="node1" class="node">
<title>service instance:compute engine</title>
<path fill="#ffffff" stroke="#4b75b9" stroke-width="3" d="M124.29,-52C124.29,-52 28,-52 28,-52 22,-52 16,-46 16,-40 16,-40 16,-28 16,-28 16,-22 22,-16 28,-16 28,-16 124.29,-16 124.29,-16 130.29,-16 136.29,-22 136.29,-28 136.29,-28 136.29,-40 136.29,-40 136.29,-46 130.29,-52 124.29,-52"></path>
<text text-anchor="middle" x="76.14" y="-29.8" font-family="Arial" font-size="14.00" fill="#333333">Compute Engine</text>
</g>
<!-- zone:platform:persistent disk snapshot -->
<g id="node2" class="node">
<title>zone:platform:persistent disk snapshot</title>
<ellipse fill="none" stroke="black" cx="331.91" cy="-34" rx="159.62" ry="18"></ellipse>
<text text-anchor="middle" x="331.91" y="-29.8" font-family="Times,serif" font-size="14.00">zone:platform:persistent disk snapshot</text>
</g>
<!-- service instance:compute engine&#45;&gt;zone:platform:persistent disk snapshot -->
<g id="edge-0" class="edge">
<title>service instance:compute engine-&gt;zone:platform:persistent disk snapshot</title>
<path fill="none" stroke="#333333" stroke-width="2" stroke-opacity="0.600000" d="M136.76,-34C136.76,-34 160.29,-34 160.29,-34"></path>
<polygon fill="#333333" fill-opacity="0.600000" stroke="#333333" stroke-width="2" stroke-opacity="0.600000" points="158.78,-37.5 168.78,-34 158.78,-30.5 158.78,-37.5"></polygon>
</g>
</g>
</svg>
