<?xml version="1.0" encoding="UTF-8" standalone="no"?>
<!DOCTYPE svg PUBLIC "-//W3C//DTD SVG 1.1//EN"
 "http://www.w3.org/Graphics/SVG/1.1/DTD/svg11.dtd">
<!-- Generated by graphviz version 12.1.2 (20240928.0832)
 -->
<!-- Title: ndiag Pages: 1 -->
<svg width="434pt" height="472pt" viewBox="0.00 0.00 434.00 472.00" xmlns="http://www.w3.org/2000/svg" xmlns:xlink="http://www.w3.org/1999/xlink">
<g id="graph0" class="graph" transform="scale(1 1) rotate(0) translate(4 468)">
<title>ndiag</title>
<polygon fill="white" stroke="none" points="-4,4 -4,-468 430,-468 430,4 -4,4"></polygon>
<g id="clust1" class="cluster">
<title>cluster_zone:platform</title>
<path fill="#ffffff" stroke="#1f91be" stroke-width="2" d="M20,-8C20,-8 406,-8 406,-8 412,-8 418,-14 418,-20 418,-20 418,-336 418,-336 418,-342 412,-348 406,-348 406,-348 20,-348 20,-348 14,-348 8,-342 8,-336 8,-336 8,-20 8,-20 8,-14 14,-8 20,-8"></path>
<text text-anchor="middle" x="213" y="-331.4" font-family="Arial" font-size="14.00" fill="#333333">zone:platform</text>
</g>
<g id="clust2" class="cluster">
<title>cluster_instance-group:a</title>
<path fill="#ffffff" stroke="#b2cf3e" stroke-width="2" d="M185,-72C185,-72 313,-72 313,-72 319,-72 325,-78 325,-84 325,-84 325,-177.6 325,-177.6 325,-183.6 319,-189.6 313,-189.6 313,-189.6 185,-189.6 185,-189.6 179,-189.6 173,-183.6 173,-177.6 173,-177.6 173,-84 173,-84 173,-78 179,-72 185,-72"></path>
<text text-anchor="middle" x="249" y="-173" font-family="Arial" font-size="14.00" fill="#333333">instance-group:a</text>
</g>
<g id="clust3" class="cluster">
<title>cluster_service instance</title>
<polygon fill="#ffffff" stroke="#333333" stroke-width="2" points="181,-80 181,-156.8 317,-156.8 317,-80 181,-80"></polygon>
<text text-anchor="middle" x="249" y="-140.2" font-family="Arial" font-size="14.00" fill="#333333">Service Instance</text>
</g>
<g id="clust4" class="cluster">
<title>cluster_instance-group:b</title>
<path fill="#ffffff" stroke="#b2cf3e" stroke-width="2" d="M28,-197.6C28,-197.6 238,-197.6 238,-197.6 244,-197.6 250,-203.6 250,-209.6 250,-209.6 250,-303.2 250,-303.2 250,-309.2 244,-315.2 238,-315.2 238,-315.2 28,-315.2 28,-315.2 22,-315.2 16,-309.2 16,-303.2 16,-303.2 16,-209.6 16,-209.6 16,-203.6 22,-197.6 28,-197.6"></path>
<text text-anchor="middle" x="133" y="-298.6" font-family="Arial" font-size="14.00" fill="#333333">instance-group:b</text>
</g>
<g id="clust5" class="cluster">
<title>cluster_heartbeat and snapshot system</title>
<polygon fill="#ffffff" stroke="#333333" stroke-width="2" points="24,-205.6 24,-282.4 242,-282.4 242,-205.6 24,-205.6"></polygon>
<text text-anchor="middle" x="133" y="-265.8" font-family="Arial" font-size="14.00" fill="#333333">Heartbeat and Snapshot System</text>
</g>
<!-- zone:platform:cloud load balancing -->
<g id="node1" class="node">
<title>zone:platform:cloud load balancing</title>
<path fill="#ffffff" stroke="#4b75b9" stroke-width="3" d="M398.5,-249.6C398.5,-249.6 269.5,-249.6 269.5,-249.6 263.5,-249.6 257.5,-243.6 257.5,-237.6 257.5,-237.6 257.5,-225.6 257.5,-225.6 257.5,-219.6 263.5,-213.6 269.5,-213.6 269.5,-213.6 398.5,-213.6 398.5,-213.6 404.5,-213.6 410.5,-219.6 410.5,-225.6 410.5,-225.6 410.5,-237.6 410.5,-237.6 410.5,-243.6 404.5,-249.6 398.5,-249.6"></path>
<text text-anchor="middle" x="334" y="-227.4" font-family="Arial" font-size="14.00" fill="#333333">Cloud Load Balancing</text>
</g>
<!-- service instance:compute engine -->
<g id="node3" class="node">
<title>service instance:compute engine</title>
<path fill="#ffffff" stroke="#4b75b9" stroke-width="3" d="M297.14,-124C297.14,-124 200.86,-124 200.86,-124 194.86,-124 188.86,-118 188.86,-112 188.86,-112 188.86,-100 188.86,-100 188.86,-94 194.86,-88 200.86,-88 200.86,-88 297.14,-88 297.14,-88 303.14,-88 309.14,-94 309.14,-100 309.14,-100 309.14,-112 309.14,-112 309.14,-118 303.14,-124 297.14,-124"></path>
<text text-anchor="middle" x="249" y="-101.8" font-family="Arial" font-size="14.00" fill="#333333">Compute Engine</text>
</g>
<!-- zone:platform:cloud load balancing&#45;&gt;service instance:compute engine -->
<g id="edge-2" class="edge">
<title>zone:platform:cloud load balancing-&gt;service instance:compute engine</title>
<path fill="none" stroke="#333333" stroke-width="2" stroke-opacity="0.600000" d="M283.32,-213.34C283.32,-213.34 283.32,-135.8 283.32,-135.8"></path>
<polygon fill="#333333" fill-opacity="0.600000" stroke="#333333" stroke-width="2" stroke-opacity="0.600000" points="286.82,-137.31 283.32,-127.31 279.82,-137.31 286.82,-137.31"></polygon>
</g>
<!-- zone:platform:persistent disk snapshot -->
<g id="node2" class="node">
<title>zone:platform:persistent disk snapshot</title>
<path fill="#ffffff" stroke="#4b75b9" stroke-width="3" d="M323.2,-52C323.2,-52 174.8,-52 174.8,-52 168.8,-52 162.8,-46 162.8,-40 162.8,-40 162.8,-28 162.8,-28 162.8,-22 168.8,-16 174.8,-16 174.8,-16 323.2,-16 323.2,-16 329.2,-16 335.2,-22 335.2,-28 335.2,-28 335.2,-40 335.2,-40 335.2,-46 329.2,-52 323.2,-52"></path>
<text text-anchor="middle" x="249" y="-29.8" font-family="Arial" font-size="14.00" fill="#333333">Persistent Disk Snapshot</text>
</g>
<!-- service instance:compute engine&#45;&gt;zone:platform:persistent disk snapshot -->
<g id="edge-4" class="edge">
<title>service instance:compute engine-&gt;zone:platform:persistent disk snapshot</title>
<path fill="none" stroke="#333333" stroke-width="2" stroke-opacity="0.600000" d="M249,-87.83C249,-87.83 249,-63.93 249,-63.93"></path>
<polygon fill="#333333" fill-opacity="0.600000" stroke="#333333" stroke-width="2" stroke-opacity="0.600000" points="252.5,-65.44 249,-55.44 245.5,-65.44 252.5,-65.44"></polygon>
</g>
<!-- heartbeat and snapshot system:compute engine -->
<g id="node4" class="node">
<title>heartbeat and snapshot system:compute engine</title>
<path fill="#ffffff" stroke="#4b75b9" stroke-width="3" d="M222.14,-249.6C222.14,-249.6 125.86,-249.6 125.86,-249.6 119.86,-249.6 113.86,-243.6 113.86,-237.6 113.86,-237.6 113.86,-225.6 113.86,-225.6 113.86,-219.6 119.86,-213.6 125.86,-213.6 125.86,-213.6 222.14,-213.6 222.14,-213.6 228.14,-213.6 234.14,-219.6 234.14,-225.6 234.14,-225.6 234.14,-237.6 234.14,-237.6 234.14,-243.6 228.14,-249.6 222.14,-249.6"></path>
<text text-anchor="middle" x="174" y="-227.4" font-family="Arial" font-size="14.00" fill="#333333">Compute Engine</text>
</g>
<!-- heartbeat and snapshot system:compute engine&#45;&gt;service instance:compute engine -->
<g id="edge-3" class="edge">
<title>heartbeat and snapshot system:compute engine-&gt;service instance:compute engine</title>
<path fill="none" stroke="#333333" stroke-width="2" stroke-opacity="0.600000" d="M211.5,-201.82C211.5,-201.82 211.5,-135.8 211.5,-135.8"></path>
<polygon fill="#333333" fill-opacity="0.600000" stroke="#333333" stroke-width="2" stroke-opacity="0.600000" points="208,-200.31 211.5,-210.31 215,-200.31 208,-200.31"></polygon>
<polygon fill="#333333" fill-opacity="0.600000" stroke="#333333" stroke-width="2" stroke-opacity="0.600000" points="215,-137.31 211.5,-127.31 208,-137.31 215,-137.31"></polygon>
</g>
<!-- browser -->
<g id="node5" class="node">
<title>browser</title>
<path fill="none" stroke="black" stroke-width="2" d="M354.9,-464C354.9,-464 313.1,-464 313.1,-464 307.1,-464 301.1,-458 301.1,-452 301.1,-452 301.1,-440 301.1,-440 301.1,-434 307.1,-428 313.1,-428 313.1,-428 354.9,-428 354.9,-428 360.9,-428 366.9,-434 366.9,-440 366.9,-440 366.9,-452 366.9,-452 366.9,-458 360.9,-464 354.9,-464"></path>
<text text-anchor="middle" x="334" y="-441.8" font-family="Arial" font-size="14.00">browser</text>
</g>
<!-- cloud dns -->
<g id="node6" class="node">
<title>cloud dns</title>
<path fill="none" stroke="black" stroke-width="2" d="M365.01,-392C365.01,-392 302.99,-392 302.99,-392 296.99,-392 290.99,-386 290.99,-380 290.99,-380 290.99,-368 290.99,-368 290.99,-362 296.99,-356 302.99,-356 302.99,-356 365.01,-356 365.01,-356 371.01,-356 377.01,-362 377.01,-368 377.01,-368 377.01,-380 377.01,-380 377.01,-386 371.01,-392 365.01,-392"></path>
<text text-anchor="middle" x="334" y="-369.8" font-family="Arial" font-size="14.00">Cloud DNS</text>
</g>
<!-- browser&#45;&gt;cloud dns -->
<g id="edge-0" class="edge">
<title>browser-&gt;cloud dns</title>
<path fill="none" stroke="#333333" stroke-width="2" stroke-opacity="0.600000" d="M334,-427.83C334,-427.83 334,-403.93 334,-403.93"></path>
<polygon fill="#333333" fill-opacity="0.600000" stroke="#333333" stroke-width="2" stroke-opacity="0.600000" points="337.5,-405.44 334,-395.44 330.5,-405.44 337.5,-405.44"></polygon>
</g>
<!-- cloud dns&#45;&gt;zone:platform:cloud load balancing -->
<g id="edge-1" class="edge">
<title>cloud dns-&gt;zone:platform:cloud load balancing</title>
<path fill="none" stroke="#333333" stroke-width="2" stroke-opacity="0.600000" d="M334,-355.68C334,-355.68 334,-261.37 334,-261.37"></path>
<polygon fill="#333333" fill-opacity="0.600000" stroke="#333333" stroke-width="2" stroke-opacity="0.600000" points="337.5,-262.88 334,-252.88 330.5,-262.88 337.5,-262.88"></polygon>
</g>
</g>
</svg>
