<?xml version="1.0" encoding="UTF-8" standalone="no"?><!-- Generated by graphviz version 2.40.1 (20161225.0304)
 --><!-- Title: ndiag Pages: 1 --><svg width="220pt" height="383pt" viewBox="0.00 0.00 220.00 383.20" xmlns="http://www.w3.org/2000/svg" xmlns:xlink="http://www.w3.org/1999/xlink"><g id="graph0" class="graph" transform="scale(1 1) rotate(0) translate(4 379.2)"><title>ndiag</title><polygon fill="#ffffff" stroke="transparent" points="-4,4 -4,-379.2 216,-379.2 216,4 -4,4"></polygon><g id="clust1" class="cluster"><title>cluster_consul:dc1</title><path fill="#ffffff" stroke="#1f91be" stroke-width="2" d="M20,-8C20,-8 192,-8 192,-8 198,-8 204,-14 204,-20 204,-20 204,-355.2 204,-355.2 204,-361.2 198,-367.2 192,-367.2 192,-367.2 20,-367.2 20,-367.2 14,-367.2 8,-361.2 8,-355.2 8,-355.2 8,-20 8,-20 8,-14 14,-8 20,-8"></path><text text-anchor="middle" x="106" y="-350.6" font-family="Arial" font-size="14.00" fill="#333333">Consul:dc1</text></g><g id="clust4" class="cluster"><title>cluster_db</title><polygon fill="#ffffff" stroke="#333333" stroke-width="2" points="88,-16 88,-92.8 196,-92.8 196,-16 88,-16"></polygon><text text-anchor="middle" x="142" y="-76.2" font-family="Arial" font-size="14.00" fill="#333333">db</text></g><g id="clust3" class="cluster"><title>cluster_app</title><polygon fill="#ffffff" stroke="#333333" stroke-width="2" points="113,-100.8 113,-249.6 189,-249.6 189,-100.8 113,-100.8"></polygon><text text-anchor="middle" x="151" y="-233" font-family="Arial" font-size="14.00" fill="#333333">app</text></g><g id="clust2" class="cluster"><title>cluster_lb</title><polygon fill="#ffffff" stroke="#333333" stroke-width="2" points="16,-257.6 16,-334.4 196,-334.4 196,-257.6 16,-257.6"></polygon><text text-anchor="middle" x="106" y="-317.8" font-family="Arial" font-size="14.00" fill="#333333">lb</text></g><!-- lb:nginx --><g id="node1" class="node"><title>lb:nginx</title><path fill="#ffffff" stroke="#4b75b9" stroke-width="3" d="M176.3319,-301.6C176.3319,-301.6 139.6681,-301.6 139.6681,-301.6 133.6681,-301.6 127.6681,-295.6 127.6681,-289.6 127.6681,-289.6 127.6681,-277.6 127.6681,-277.6 127.6681,-271.6 133.6681,-265.6 139.6681,-265.6 139.6681,-265.6 176.3319,-265.6 176.3319,-265.6 182.3319,-265.6 188.3319,-271.6 188.3319,-277.6 188.3319,-277.6 188.3319,-289.6 188.3319,-289.6 188.3319,-295.6 182.3319,-301.6 176.3319,-301.6"></path><text text-anchor="middle" x="158" y="-279.4" font-family="Arial" font-size="14.00" fill="#333333">NGINX</text></g><!-- app:nginx --><g id="node3" class="node"><title>app:nginx</title><path fill="#ffffff" stroke="#4b75b9" stroke-width="3" d="M169.3319,-216.8C169.3319,-216.8 132.6681,-216.8 132.6681,-216.8 126.6681,-216.8 120.6681,-210.8 120.6681,-204.8 120.6681,-204.8 120.6681,-192.8 120.6681,-192.8 120.6681,-186.8 126.6681,-180.8 132.6681,-180.8 132.6681,-180.8 169.3319,-180.8 169.3319,-180.8 175.3319,-180.8 181.3319,-186.8 181.3319,-192.8 181.3319,-192.8 181.3319,-204.8 181.3319,-204.8 181.3319,-210.8 175.3319,-216.8 169.3319,-216.8"></path><text text-anchor="middle" x="151" y="-194.6" font-family="Arial" font-size="14.00" fill="#333333">NGINX</text></g><!-- lb:nginx&#45;&gt;app:nginx --><g id="edge-0" class="edge"><title>lb:nginx-&gt;app:nginx</title><path fill="none" stroke="#333333" stroke-width="2" stroke-opacity="0.600000" d="M154.5,-265.1997C154.5,-265.1997 154.5,-226.8731 154.5,-226.8731"></path><polygon fill="#333333" fill-opacity="0.600000" stroke="#333333" stroke-width="2" stroke-opacity="0.600000" points="158.0001,-226.8731 154.5,-216.8731 151.0001,-226.8731 158.0001,-226.8731"></polygon></g><!-- lb:keepalived --><g id="node2" class="node"><title>lb:keepalived</title><path fill="#ffffff" stroke="#4b75b9" stroke-width="3" d="M97.7458,-301.6C97.7458,-301.6 36.2542,-301.6 36.2542,-301.6 30.2542,-301.6 24.2542,-295.6 24.2542,-289.6 24.2542,-289.6 24.2542,-277.6 24.2542,-277.6 24.2542,-271.6 30.2542,-265.6 36.2542,-265.6 36.2542,-265.6 97.7458,-265.6 97.7458,-265.6 103.7458,-265.6 109.7458,-271.6 109.7458,-277.6 109.7458,-277.6 109.7458,-289.6 109.7458,-289.6 109.7458,-295.6 103.7458,-301.6 97.7458,-301.6"></path><text text-anchor="middle" x="67" y="-279.4" font-family="Arial" font-size="14.00" fill="#333333">Keepalived</text></g><!-- app:app --><g id="node4" class="node"><title>app:app</title><path fill="#ffffff" stroke="#4b75b9" stroke-width="3" d="M164,-144.8C164,-144.8 134,-144.8 134,-144.8 128,-144.8 122,-138.8 122,-132.8 122,-132.8 122,-120.8 122,-120.8 122,-114.8 128,-108.8 134,-108.8 134,-108.8 164,-108.8 164,-108.8 170,-108.8 176,-114.8 176,-120.8 176,-120.8 176,-132.8 176,-132.8 176,-138.8 170,-144.8 164,-144.8"></path><text text-anchor="middle" x="149" y="-122.6" font-family="Arial" font-size="14.00" fill="#333333">App</text></g><!-- app:nginx&#45;&gt;app:app --><g id="edge-1" class="edge"><title>app:nginx-&gt;app:app</title><path fill="none" stroke="#333333" stroke-width="2" stroke-opacity="0.600000" d="M149,-180.6314C149,-180.6314 149,-155.2133 149,-155.2133"></path><polygon fill="#333333" fill-opacity="0.600000" stroke="#333333" stroke-width="2" stroke-opacity="0.600000" points="152.5001,-155.2132 149,-145.2133 145.5001,-155.2133 152.5001,-155.2132"></polygon></g><!-- db:postgresql --><g id="node5" class="node"><title>db:postgresql</title><path fill="#ffffff" stroke="#4b75b9" stroke-width="3" d="M176.2457,-60C176.2457,-60 107.7543,-60 107.7543,-60 101.7543,-60 95.7543,-54 95.7543,-48 95.7543,-48 95.7543,-36 95.7543,-36 95.7543,-30 101.7543,-24 107.7543,-24 107.7543,-24 176.2457,-24 176.2457,-24 182.2457,-24 188.2457,-30 188.2457,-36 188.2457,-36 188.2457,-48 188.2457,-48 188.2457,-54 182.2457,-60 176.2457,-60"></path><text text-anchor="middle" x="142" y="-37.8" font-family="Arial" font-size="14.00" fill="#333333">PostgreSQL</text></g><!-- app:app&#45;&gt;db:postgresql --><g id="edge-2" class="edge"><title>app:app-&gt;db:postgresql</title><path fill="none" stroke="#333333" stroke-width="2" stroke-opacity="0.600000" d="M149,-108.3997C149,-108.3997 149,-70.0731 149,-70.0731"></path><polygon fill="#333333" fill-opacity="0.600000" stroke="#333333" stroke-width="2" stroke-opacity="0.600000" points="152.5001,-70.0731 149,-60.0731 145.5001,-70.0731 152.5001,-70.0731"></polygon></g></g></svg>