<?xml version="1.0" encoding="UTF-8" standalone="no"?><!-- Generated by graphviz version 2.40.1 (20161225.0304)
 --><!-- Title: ndiag Pages: 1 --><svg width="220pt" height="206pt" viewBox="0.00 0.00 220.00 205.60" xmlns="http://www.w3.org/2000/svg" xmlns:xlink="http://www.w3.org/1999/xlink"><g id="graph0" class="graph" transform="scale(1 1) rotate(0) translate(4 201.6)"><title>ndiag</title><polygon fill="#ffffff" stroke="transparent" points="-4,4 -4,-201.6 216,-201.6 216,4 -4,4"></polygon><g id="clust1" class="cluster"><title>cluster_vip_group:lb</title><path fill="#ffffff" stroke="#b2cf3e" stroke-width="2" d="M20,-8C20,-8 192,-8 192,-8 198,-8 204,-14 204,-20 204,-20 204,-177.6 204,-177.6 204,-183.6 198,-189.6 192,-189.6 192,-189.6 20,-189.6 20,-189.6 14,-189.6 8,-183.6 8,-177.6 8,-177.6 8,-20 8,-20 8,-14 14,-8 20,-8"></path><text text-anchor="middle" x="106" y="-173" font-family="Arial" font-size="14.00" fill="#333333">vip_group:lb</text></g><g id="clust2" class="cluster"><title>cluster_lb</title><polygon fill="#ffffff" stroke="#333333" stroke-width="2" points="16,-80 16,-156.8 196,-156.8 196,-80 16,-80"></polygon><text text-anchor="middle" x="106" y="-140.2" font-family="Arial" font-size="14.00" fill="#333333">lb</text></g><!-- lb:nginx --><g id="node1" class="node"><title>lb:nginx</title><path fill="#ffffff" stroke="#4b75b9" stroke-width="3" d="M176.3319,-124C176.3319,-124 139.6681,-124 139.6681,-124 133.6681,-124 127.6681,-118 127.6681,-112 127.6681,-112 127.6681,-100 127.6681,-100 127.6681,-94 133.6681,-88 139.6681,-88 139.6681,-88 176.3319,-88 176.3319,-88 182.3319,-88 188.3319,-94 188.3319,-100 188.3319,-100 188.3319,-112 188.3319,-112 188.3319,-118 182.3319,-124 176.3319,-124"></path><text text-anchor="middle" x="158" y="-101.8" font-family="Arial" font-size="14.00" fill="#333333">NGINX</text></g><!-- lb:keepalived --><g id="node2" class="node"><title>lb:keepalived</title><path fill="#ffffff" stroke="#4b75b9" stroke-width="3" d="M97.7458,-124C97.7458,-124 36.2542,-124 36.2542,-124 30.2542,-124 24.2542,-118 24.2542,-112 24.2542,-112 24.2542,-100 24.2542,-100 24.2542,-94 30.2542,-88 36.2542,-88 36.2542,-88 97.7458,-88 97.7458,-88 103.7458,-88 109.7458,-94 109.7458,-100 109.7458,-100 109.7458,-112 109.7458,-112 109.7458,-118 103.7458,-124 97.7458,-124"></path><text text-anchor="middle" x="67" y="-101.8" font-family="Arial" font-size="14.00" fill="#333333">Keepalived</text></g><!-- vip_group:lb:vip --><g id="node3" class="node"><title>vip_group:lb:vip</title><path fill="#ffffff" stroke="#4b75b9" stroke-width="3" d="M127,-52C127,-52 97,-52 97,-52 91,-52 85,-46 85,-40 85,-40 85,-28 85,-28 85,-22 91,-16 97,-16 97,-16 127,-16 127,-16 133,-16 139,-22 139,-28 139,-28 139,-40 139,-40 139,-46 133,-52 127,-52"></path><text text-anchor="middle" x="112" y="-29.8" font-family="Arial" font-size="14.00" fill="#333333">vip</text></g><!-- lb:keepalived&#45;&gt;vip_group:lb:vip --><g id="edge-1" class="edge"><title>lb:keepalived-&gt;vip_group:lb:vip</title><path fill="none" stroke="#4b75b9" stroke-width="2" stroke-dasharray="5,2" d="M97.3114,-87.8314C97.3114,-87.8314 97.3114,-60.4133 97.3114,-60.4133"></path><ellipse fill="#4b75b9" stroke="#4b75b9" stroke-width="2" cx="97.3114" cy="-56.4133" rx="4" ry="4"></ellipse></g><!-- vip_group:lb:vip&#45;&gt;lb:nginx --><g id="edge-0" class="edge"><title>vip_group:lb:vip-&gt;lb:nginx</title><path fill="none" stroke="#333333" stroke-width="2" stroke-opacity="0.600000" d="M133.4173,-52.1686C133.4173,-52.1686 133.4173,-77.5867 133.4173,-77.5867"></path><polygon fill="#333333" fill-opacity="0.600000" stroke="#333333" stroke-width="2" stroke-opacity="0.600000" points="129.9173,-77.5867 133.4173,-87.5867 136.9173,-77.5868 129.9173,-77.5867"></polygon></g></g></svg>