<?xml version="1.0" encoding="UTF-8" standalone="no"?><!-- Generated by graphviz version 2.40.1 (20161225.0304)
 --><!-- Title: ndiag Pages: 1 --><svg width="261pt" height="342pt" viewBox="0.00 0.00 261.00 342.40" xmlns="http://www.w3.org/2000/svg" xmlns:xlink="http://www.w3.org/1999/xlink"><g id="graph0" class="graph" transform="scale(1 1) rotate(0) translate(4 338.4)"><title>ndiag</title><polygon fill="#ffffff" stroke="transparent" points="-4,4 -4,-338.4 257,-338.4 257,4 -4,4"></polygon><g id="clust4" class="cluster"><title>cluster_db</title><polygon fill="none" stroke="#999999" stroke-width="2" points="137,-8 137,-84.8 245,-84.8 245,-8 137,-8"></polygon><text text-anchor="middle" x="191" y="-68.2" font-family="Arial" font-size="14.00" fill="#666666">db</text></g><g id="clust3" class="cluster"><title>cluster_lb</title><polygon fill="none" stroke="#999999" stroke-width="2" points="93,-249.6 93,-326.4 169,-326.4 169,-249.6 93,-249.6"></polygon><text text-anchor="middle" x="131" y="-309.8" font-family="Arial" font-size="14.00" fill="#666666">lb</text></g><g id="clust2" class="cluster"><title>cluster_app</title><polygon fill="none" stroke="#000000" stroke-width="2" points="93,-92.8 93,-241.6 169,-241.6 169,-92.8 93,-92.8"></polygon><text text-anchor="middle" x="131" y="-225" font-family="Arial" font-size="14.00" fill="#000000">app</text></g><g id="clust1" class="cluster"><title>cluster_service:payment</title><path fill="#ffffff" stroke="#f0ba32" stroke-width="2" d="M20,-8C20,-8 117,-8 117,-8 123,-8 129,-14 129,-20 129,-20 129,-72.8 129,-72.8 129,-78.8 123,-84.8 117,-84.8 117,-84.8 20,-84.8 20,-84.8 14,-84.8 8,-78.8 8,-72.8 8,-72.8 8,-20 8,-20 8,-14 14,-8 20,-8"></path><text text-anchor="middle" x="68.5" y="-68.2" font-family="Arial" font-size="14.00" fill="#333333">Service:Payment</text></g><!-- service:payment:payment api --><g id="node1" class="node"><title>service:payment:payment api</title><path fill="#ffffff" stroke="#4b75b9" stroke-width="3" d="M108.6905,-52C108.6905,-52 35.3095,-52 35.3095,-52 29.3095,-52 23.3095,-46 23.3095,-40 23.3095,-40 23.3095,-28 23.3095,-28 23.3095,-22 29.3095,-16 35.3095,-16 35.3095,-16 108.6905,-16 108.6905,-16 114.6905,-16 120.6905,-22 120.6905,-28 120.6905,-28 120.6905,-40 120.6905,-40 120.6905,-46 114.6905,-52 108.6905,-52"></path><text text-anchor="middle" x="72" y="-29.8" font-family="Arial" font-size="14.00" fill="#333333">Payment API</text></g><!-- app:nginx --><g id="node2" class="node"><title>app:nginx</title><path fill="#ffffff" stroke="#4b75b9" stroke-width="3" d="M149.3319,-208.8C149.3319,-208.8 112.6681,-208.8 112.6681,-208.8 106.6681,-208.8 100.6681,-202.8 100.6681,-196.8 100.6681,-196.8 100.6681,-184.8 100.6681,-184.8 100.6681,-178.8 106.6681,-172.8 112.6681,-172.8 112.6681,-172.8 149.3319,-172.8 149.3319,-172.8 155.3319,-172.8 161.3319,-178.8 161.3319,-184.8 161.3319,-184.8 161.3319,-196.8 161.3319,-196.8 161.3319,-202.8 155.3319,-208.8 149.3319,-208.8"></path><text text-anchor="middle" x="131" y="-186.6" font-family="Arial" font-size="14.00" fill="#333333">NGINX</text></g><!-- app:app --><g id="node3" class="node"><title>app:app</title><path fill="#ffffff" stroke="#4b75b9" stroke-width="3" d="M146,-136.8C146,-136.8 116,-136.8 116,-136.8 110,-136.8 104,-130.8 104,-124.8 104,-124.8 104,-112.8 104,-112.8 104,-106.8 110,-100.8 116,-100.8 116,-100.8 146,-100.8 146,-100.8 152,-100.8 158,-106.8 158,-112.8 158,-112.8 158,-124.8 158,-124.8 158,-130.8 152,-136.8 146,-136.8"></path><text text-anchor="middle" x="131" y="-114.6" font-family="Arial" font-size="14.00" fill="#333333">App</text></g><!-- app:nginx&#45;&gt;app:app --><g id="edge2" class="edge"><title>app:nginx-&gt;app:app</title><path fill="none" stroke="#333333" stroke-width="2" stroke-opacity="0.600000" d="M131,-172.6314C131,-172.6314 131,-147.2133 131,-147.2133"></path><polygon fill="#333333" fill-opacity="0.600000" stroke="#333333" stroke-width="2" stroke-opacity="0.600000" points="134.5001,-147.2132 131,-137.2133 127.5001,-147.2133 134.5001,-147.2132"></polygon></g><!-- app:app&#45;&gt;service:payment:payment api --><g id="edge4" class="edge"><title>app:app-&gt;service:payment:payment api</title><path fill="none" stroke="#333333" stroke-width="2" stroke-opacity="0.600000" d="M112.4225,-100.3997C112.4225,-100.3997 112.4225,-62.0731 112.4225,-62.0731"></path><polygon fill="#333333" fill-opacity="0.600000" stroke="#333333" stroke-width="2" stroke-opacity="0.600000" points="115.9226,-62.0731 112.4225,-52.0731 108.9226,-62.0731 115.9226,-62.0731"></polygon></g><!-- db:postgresql --><g id="node5" class="node"><title>db:postgresql</title><path fill="#ffffff" stroke="#4b75b9" stroke-width="3" d="M225.2457,-52C225.2457,-52 156.7543,-52 156.7543,-52 150.7543,-52 144.7543,-46 144.7543,-40 144.7543,-40 144.7543,-28 144.7543,-28 144.7543,-22 150.7543,-16 156.7543,-16 156.7543,-16 225.2457,-16 225.2457,-16 231.2457,-16 237.2457,-22 237.2457,-28 237.2457,-28 237.2457,-40 237.2457,-40 237.2457,-46 231.2457,-52 225.2457,-52"></path><text text-anchor="middle" x="191" y="-29.8" font-family="Arial" font-size="14.00" fill="#333333">PostgreSQL</text></g><!-- app:app&#45;&gt;db:postgresql --><g id="edge3" class="edge"><title>app:app-&gt;db:postgresql</title><path fill="none" stroke="#333333" stroke-width="2" stroke-opacity="0.600000" d="M151.4387,-100.3997C151.4387,-100.3997 151.4387,-62.0731 151.4387,-62.0731"></path><polygon fill="#333333" fill-opacity="0.600000" stroke="#333333" stroke-width="2" stroke-opacity="0.600000" points="154.9387,-62.0731 151.4387,-52.0731 147.9387,-62.0731 154.9387,-62.0731"></polygon></g><!-- lb:nginx --><g id="node4" class="node"><title>lb:nginx</title><path fill="#ffffff" stroke="#4b75b9" stroke-width="3" d="M149.3319,-293.6C149.3319,-293.6 112.6681,-293.6 112.6681,-293.6 106.6681,-293.6 100.6681,-287.6 100.6681,-281.6 100.6681,-281.6 100.6681,-269.6 100.6681,-269.6 100.6681,-263.6 106.6681,-257.6 112.6681,-257.6 112.6681,-257.6 149.3319,-257.6 149.3319,-257.6 155.3319,-257.6 161.3319,-263.6 161.3319,-269.6 161.3319,-269.6 161.3319,-281.6 161.3319,-281.6 161.3319,-287.6 155.3319,-293.6 149.3319,-293.6"></path><text text-anchor="middle" x="131" y="-271.4" font-family="Arial" font-size="14.00" fill="#333333">NGINX</text></g><!-- lb:nginx&#45;&gt;app:nginx --><g id="edge1" class="edge"><title>lb:nginx-&gt;app:nginx</title><path fill="none" stroke="#333333" stroke-width="2" stroke-opacity="0.600000" d="M131,-257.1997C131,-257.1997 131,-218.8731 131,-218.8731"></path><polygon fill="#333333" fill-opacity="0.600000" stroke="#333333" stroke-width="2" stroke-opacity="0.600000" points="134.5001,-218.8731 131,-208.8731 127.5001,-218.8731 134.5001,-218.8731"></polygon></g></g></svg>