<?xml version="1.0" encoding="UTF-8" standalone="no"?><!-- Generated by graphviz version 2.40.1 (20161225.0304)
 --><!-- Title: ndiag Pages: 1 --><svg width="204pt" height="270pt" viewBox="0.00 0.00 204.00 270.40" xmlns="http://www.w3.org/2000/svg" xmlns:xlink="http://www.w3.org/1999/xlink"><g id="graph0" class="graph" transform="scale(1 1) rotate(0) translate(4 266.4)"><title>ndiag</title><polygon fill="#ffffff" stroke="transparent" points="-4,4 -4,-266.4 200,-266.4 200,4 -4,4"></polygon><g id="clust3" class="cluster"><title>cluster_app</title><polygon fill="none" stroke="#999999" stroke-width="2" points="112,-8 112,-84.8 188,-84.8 188,-8 112,-8"></polygon><text text-anchor="middle" x="150" y="-68.2" font-family="Arial" font-size="14.00" fill="#666666">app</text></g><g id="clust2" class="cluster"><title>cluster_lb</title><polygon fill="none" stroke="#000000" stroke-width="2" points="8,-92.8 8,-169.6 188,-169.6 188,-92.8 8,-92.8"></polygon><text text-anchor="middle" x="98" y="-153" font-family="Arial" font-size="14.00" fill="#000000">lb</text></g><g id="clust1" class="cluster"><title>cluster_vip_group:lb</title><path fill="#ffffff" stroke="#b2cf3e" stroke-width="2" d="M68,-177.6C68,-177.6 136,-177.6 136,-177.6 142,-177.6 148,-183.6 148,-189.6 148,-189.6 148,-242.4 148,-242.4 148,-248.4 142,-254.4 136,-254.4 136,-254.4 68,-254.4 68,-254.4 62,-254.4 56,-248.4 56,-242.4 56,-242.4 56,-189.6 56,-189.6 56,-183.6 62,-177.6 68,-177.6"></path><text text-anchor="middle" x="102" y="-237.8" font-family="Arial" font-size="14.00" fill="#333333">vip_group:lb</text></g><!-- vip_group:lb:vip --><g id="node1" class="node"><title>vip_group:lb:vip</title><path fill="#ffffff" stroke="#4b75b9" stroke-width="3" d="M114,-221.6C114,-221.6 84,-221.6 84,-221.6 78,-221.6 72,-215.6 72,-209.6 72,-209.6 72,-197.6 72,-197.6 72,-191.6 78,-185.6 84,-185.6 84,-185.6 114,-185.6 114,-185.6 120,-185.6 126,-191.6 126,-197.6 126,-197.6 126,-209.6 126,-209.6 126,-215.6 120,-221.6 114,-221.6"></path><text text-anchor="middle" x="99" y="-199.4" font-family="Arial" font-size="14.00" fill="#333333">vip</text></g><!-- lb:nginx --><g id="node2" class="node"><title>lb:nginx</title><path fill="#ffffff" stroke="#4b75b9" stroke-width="3" d="M168.3319,-136.8C168.3319,-136.8 131.6681,-136.8 131.6681,-136.8 125.6681,-136.8 119.6681,-130.8 119.6681,-124.8 119.6681,-124.8 119.6681,-112.8 119.6681,-112.8 119.6681,-106.8 125.6681,-100.8 131.6681,-100.8 131.6681,-100.8 168.3319,-100.8 168.3319,-100.8 174.3319,-100.8 180.3319,-106.8 180.3319,-112.8 180.3319,-112.8 180.3319,-124.8 180.3319,-124.8 180.3319,-130.8 174.3319,-136.8 168.3319,-136.8"></path><text text-anchor="middle" x="150" y="-114.6" font-family="Arial" font-size="14.00" fill="#333333">NGINX</text></g><!-- vip_group:lb:vip&#45;&gt;lb:nginx --><g id="edge1" class="edge"><title>vip_group:lb:vip-&gt;lb:nginx</title><path fill="none" stroke="#333333" stroke-width="2" stroke-opacity="0.600000" d="M110.7286,-185.4464C110.7286,-160.3193 110.7286,-118 110.7286,-118 110.7286,-118 111.6002,-118 111.6002,-118"></path><polygon fill="#333333" fill-opacity="0.600000" stroke="#333333" stroke-width="2" stroke-opacity="0.600000" points="109.4442,-121.5001 119.4442,-118 109.4442,-114.5001 109.4442,-121.5001"></polygon></g><!-- app:nginx --><g id="node4" class="node"><title>app:nginx</title><path fill="#ffffff" stroke="#4b75b9" stroke-width="3" d="M168.3319,-52C168.3319,-52 131.6681,-52 131.6681,-52 125.6681,-52 119.6681,-46 119.6681,-40 119.6681,-40 119.6681,-28 119.6681,-28 119.6681,-22 125.6681,-16 131.6681,-16 131.6681,-16 168.3319,-16 168.3319,-16 174.3319,-16 180.3319,-22 180.3319,-28 180.3319,-28 180.3319,-40 180.3319,-40 180.3319,-46 174.3319,-52 168.3319,-52"></path><text text-anchor="middle" x="150" y="-29.8" font-family="Arial" font-size="14.00" fill="#333333">NGINX</text></g><!-- lb:nginx&#45;&gt;app:nginx --><g id="edge2" class="edge"><title>lb:nginx-&gt;app:nginx</title><path fill="none" stroke="#333333" stroke-width="2" stroke-opacity="0.600000" d="M150,-100.3997C150,-100.3997 150,-62.0731 150,-62.0731"></path><polygon fill="#333333" fill-opacity="0.600000" stroke="#333333" stroke-width="2" stroke-opacity="0.600000" points="153.5001,-62.0731 150,-52.0731 146.5001,-62.0731 153.5001,-62.0731"></polygon></g><!-- lb:keepalived --><g id="node3" class="node"><title>lb:keepalived</title><path fill="#ffffff" stroke="#4b75b9" stroke-width="3" d="M89.7458,-136.8C89.7458,-136.8 28.2542,-136.8 28.2542,-136.8 22.2542,-136.8 16.2542,-130.8 16.2542,-124.8 16.2542,-124.8 16.2542,-112.8 16.2542,-112.8 16.2542,-106.8 22.2542,-100.8 28.2542,-100.8 28.2542,-100.8 89.7458,-100.8 89.7458,-100.8 95.7458,-100.8 101.7458,-106.8 101.7458,-112.8 101.7458,-112.8 101.7458,-124.8 101.7458,-124.8 101.7458,-130.8 95.7458,-136.8 89.7458,-136.8"></path><text text-anchor="middle" x="59" y="-114.6" font-family="Arial" font-size="14.00" fill="#333333">Keepalived</text></g><!-- lb:keepalived&#45;&gt;vip_group:lb:vip --><g id="edge3" class="edge"><title>lb:keepalived-&gt;vip_group:lb:vip</title><path fill="none" stroke="#4b75b9" stroke-width="2" stroke-dasharray="5,2" d="M86.8114,-137.2003C86.8114,-137.2003 86.8114,-177.5269 86.8114,-177.5269"></path><ellipse fill="#4b75b9" stroke="#4b75b9" stroke-width="2" cx="86.8114" cy="-181.5269" rx="4" ry="4"></ellipse></g></g></svg>