<?xml version="1.0" encoding="UTF-8" standalone="no"?><!-- Generated by graphviz version 2.40.1 (20161225.0304)
 --><!-- Title: ndiag Pages: 1 --><svg width="191pt" height="101pt" viewBox="0.00 0.00 190.68 101.00" xmlns="http://www.w3.org/2000/svg" xmlns:xlink="http://www.w3.org/1999/xlink"><g id="graph0" class="graph" transform="scale(1 1) rotate(0) translate(4 97)"><title>ndiag</title><polygon fill="#ffffff" stroke="transparent" points="-4,4 -4,-97 186.6788,-97 186.6788,4 -4,4"></polygon><g id="clust1" class="cluster"><title>cluster_vip_group:lb</title><path fill="#ffffff" stroke="#b2cf3e" stroke-width="2" d="M102.6788,-8C102.6788,-8 170.6788,-8 170.6788,-8 176.6788,-8 182.6788,-14 182.6788,-20 182.6788,-20 182.6788,-73 182.6788,-73 182.6788,-79 176.6788,-85 170.6788,-85 170.6788,-85 102.6788,-85 102.6788,-85 96.6788,-85 90.6788,-79 90.6788,-73 90.6788,-73 90.6788,-20 90.6788,-20 90.6788,-14 96.6788,-8 102.6788,-8"></path><text text-anchor="middle" x="136.6788" y="-68.4" font-family="Arial" font-size="14.00" fill="#333333">vip_group:lb</text></g><!-- vip_group:lb:vip --><g id="node1" class="node"><title>vip_group:lb:vip</title><path fill="#ffffff" stroke="#4b75b9" stroke-width="3" d="M151.6788,-52C151.6788,-52 121.6788,-52 121.6788,-52 115.6788,-52 109.6788,-46 109.6788,-40 109.6788,-40 109.6788,-28 109.6788,-28 109.6788,-22 115.6788,-16 121.6788,-16 121.6788,-16 151.6788,-16 151.6788,-16 157.6788,-16 163.6788,-22 163.6788,-28 163.6788,-28 163.6788,-40 163.6788,-40 163.6788,-46 157.6788,-52 151.6788,-52"></path><text text-anchor="middle" x="136.6788" y="-29.8" font-family="Arial" font-size="14.00" fill="#333333">vip</text></g><!-- internet --><g id="node2" class="node"><title>internet</title><path fill="none" stroke="#000000" stroke-width="2" d="M50.519,-52C50.519,-52 12.1598,-52 12.1598,-52 6.1598,-52 .1598,-46 .1598,-40 .1598,-40 .1598,-28 .1598,-28 .1598,-22 6.1598,-16 12.1598,-16 12.1598,-16 50.519,-16 50.519,-16 56.519,-16 62.519,-22 62.519,-28 62.519,-28 62.519,-40 62.519,-40 62.519,-46 56.519,-52 50.519,-52"></path><text text-anchor="middle" x="31.3394" y="-29.8" font-family="Arial" font-size="14.00" fill="#000000">internet</text></g><!-- internet&#45;&gt;vip_group:lb:vip --><g id="edge-0" class="edge"><title>internet-&gt;vip_group:lb:vip</title><path fill="none" stroke="#333333" stroke-width="2" stroke-opacity="0.600000" d="M62.6595,-34C62.6595,-34 99.5823,-34 99.5823,-34"></path><polygon fill="#333333" fill-opacity="0.600000" stroke="#333333" stroke-width="2" stroke-opacity="0.600000" points="99.5823,-37.5001 109.5823,-34 99.5823,-30.5001 99.5823,-37.5001"></polygon></g></g></svg>