<?xml version="1.0" encoding="UTF-8" standalone="no"?><!-- Generated by graphviz version 2.40.1 (20161225.0304)
 --><!-- Title: ndiag Pages: 1 --><svg width="232pt" height="101pt" viewBox="0.00 0.00 231.69 101.00" xmlns="http://www.w3.org/2000/svg" xmlns:xlink="http://www.w3.org/1999/xlink"><g id="graph0" class="graph" transform="scale(1 1) rotate(0) translate(4 97)"><title>ndiag</title><polygon fill="#ffffff" stroke="transparent" points="-4,4 -4,-97 227.69,-97 227.69,4 -4,4"></polygon><g id="clust2" class="cluster"><title>cluster_app</title><polygon fill="none" stroke="#000000" stroke-width="2" points="8,-8 8,-85 78,-85 78,-8 8,-8"></polygon><text text-anchor="middle" x="43" y="-68.4" font-family="Arial" font-size="14.00" fill="#000000">app</text></g><g id="clust1" class="cluster"><title>cluster_service:payment</title><path fill="#ffffff" stroke="#f0ba32" stroke-width="2" d="M110,-8C110,-8 207.69,-8 207.69,-8 213.69,-8 219.69,-14 219.69,-20 219.69,-20 219.69,-73 219.69,-73 219.69,-79 213.69,-85 207.69,-85 207.69,-85 110,-85 110,-85 104,-85 98,-79 98,-73 98,-73 98,-20 98,-20 98,-14 104,-8 110,-8"></path><text text-anchor="middle" x="158.845" y="-68.4" font-family="Arial" font-size="14.00" fill="#333333">Service:Payment</text></g><!-- service:payment:payment api --><g id="node1" class="node"><title>service:payment:payment api</title><path fill="#ffffff" stroke="#4b75b9" stroke-width="3" d="M195.5355,-52C195.5355,-52 122.1545,-52 122.1545,-52 116.1545,-52 110.1545,-46 110.1545,-40 110.1545,-40 110.1545,-28 110.1545,-28 110.1545,-22 116.1545,-16 122.1545,-16 122.1545,-16 195.5355,-16 195.5355,-16 201.5355,-16 207.5355,-22 207.5355,-28 207.5355,-28 207.5355,-40 207.5355,-40 207.5355,-46 201.5355,-52 195.5355,-52"></path><text text-anchor="middle" x="158.845" y="-29.8" font-family="Arial" font-size="14.00" fill="#333333">Payment API</text></g><!-- app:app --><g id="node2" class="node"><title>app:app</title><path fill="#ffffff" stroke="#4b75b9" stroke-width="3" d="M58,-52C58,-52 28,-52 28,-52 22,-52 16,-46 16,-40 16,-40 16,-28 16,-28 16,-22 22,-16 28,-16 28,-16 58,-16 58,-16 64,-16 70,-22 70,-28 70,-28 70,-40 70,-40 70,-46 64,-52 58,-52"></path><text text-anchor="middle" x="43" y="-29.8" font-family="Arial" font-size="14.00" fill="#333333">App</text></g><!-- app:app&#45;&gt;service:payment:payment api --><g id="edge-0" class="edge"><title>app:app-&gt;service:payment:payment api</title><path fill="none" stroke="#333333" stroke-width="2" stroke-opacity="0.600000" d="M70.1605,-34C70.1605,-34 100.0612,-34 100.0612,-34"></path><polygon fill="#333333" fill-opacity="0.600000" stroke="#333333" stroke-width="2" stroke-opacity="0.600000" points="100.0613,-37.5001 110.0612,-34 100.0612,-30.5001 100.0613,-37.5001"></polygon></g></g></svg>