<?xml version="1.0" encoding="UTF-8" standalone="no"?><!-- Generated by graphviz version 12.1.2 (20240928.0832)
 --><!-- Title: ndiag Pages: 1 --><svg width="191pt" height="101pt" viewBox="0.00 0.00 190.97 101.00" xmlns="http://www.w3.org/2000/svg" xmlns:xlink="http://www.w3.org/1999/xlink"><g id="graph0" class="graph" transform="scale(1 1) rotate(0) translate(4 97)"><title>ndiag</title><polygon fill="white" stroke="none" points="-4,4 -4,-97 186.97,-97 186.97,4 -4,4"></polygon><g id="clust1" class="cluster"><title>cluster_vip_group:lb</title><path fill="#ffffff" stroke="#b2cf3e" stroke-width="2" d="M102.7,-8C102.7,-8 170.97,-8 170.97,-8 176.97,-8 182.97,-14 182.97,-20 182.97,-20 182.97,-73 182.97,-73 182.97,-79 176.97,-85 170.97,-85 170.97,-85 102.7,-85 102.7,-85 96.7,-85 90.7,-79 90.7,-73 90.7,-73 90.7,-20 90.7,-20 90.7,-14 96.7,-8 102.7,-8"></path><text text-anchor="middle" x="136.83" y="-68.4" font-family="Arial" font-size="14.00" fill="#333333">vip_group:lb</text></g><!-- vip_group:lb:vip --><g id="node1" class="node"><title>vip_group:lb:vip</title><path fill="#ffffff" stroke="#4b75b9" stroke-width="3" d="M151.33,-52C151.33,-52 121.33,-52 121.33,-52 115.33,-52 109.33,-46 109.33,-40 109.33,-40 109.33,-28 109.33,-28 109.33,-22 115.33,-16 121.33,-16 121.33,-16 151.33,-16 151.33,-16 157.33,-16 163.33,-22 163.33,-28 163.33,-28 163.33,-40 163.33,-40 163.33,-46 157.33,-52 151.33,-52"></path><text text-anchor="middle" x="136.33" y="-29.8" font-family="Arial" font-size="14.00" fill="#333333">vip</text></g><!-- internet --><g id="node2" class="node"><title>internet</title><path fill="none" stroke="black" stroke-width="2" d="M50.7,-52C50.7,-52 12,-52 12,-52 6,-52 0,-46 0,-40 0,-40 0,-28 0,-28 0,-22 6,-16 12,-16 12,-16 50.7,-16 50.7,-16 56.7,-16 62.7,-22 62.7,-28 62.7,-28 62.7,-40 62.7,-40 62.7,-46 56.7,-52 50.7,-52"></path><text text-anchor="middle" x="31.35" y="-29.8" font-family="Arial" font-size="14.00">internet</text></g><!-- internet&#45;&gt;vip_group:lb:vip --><g id="edge-0" class="edge"><title>internet-&gt;vip_group:lb:vip</title><path fill="none" stroke="#333333" stroke-width="2" stroke-opacity="0.600000" d="M63.13,-34C63.13,-34 97.4,-34 97.4,-34"></path><polygon fill="#333333" fill-opacity="0.600000" stroke="#333333" stroke-width="2" stroke-opacity="0.600000" points="95.89,-37.5 105.89,-34 95.89,-30.5 95.89,-37.5"></polygon></g></g></svg>