<?xml version="1.0" encoding="UTF-8" standalone="no"?><!-- Generated by graphviz version 2.40.1 (20161225.0304)
 --><!-- Title: ndiag Pages: 1 --><svg width="204pt" height="101pt" viewBox="0.00 0.00 204.33 101.00" xmlns="http://www.w3.org/2000/svg" xmlns:xlink="http://www.w3.org/1999/xlink"><g id="graph0" class="graph" transform="scale(1 1) rotate(0) translate(4 97)"><title>ndiag</title><polygon fill="#ffffff" stroke="transparent" points="-4,4 -4,-97 200.331,-97 200.331,4 -4,4"></polygon><g id="clust3" class="cluster"><title>cluster_lb</title><polygon fill="none" stroke="#000000" stroke-width="2" points="112,-8 112,-85 188.331,-85 188.331,-8 112,-8"></polygon><text text-anchor="middle" x="150.1655" y="-68.4" font-family="Arial" font-size="14.00" fill="#000000">lb</text></g><g id="clust1" class="cluster"><title>cluster_vip_group:lb</title><path fill="#ffffff" stroke="#b2cf3e" stroke-width="2" d="M12,-8C12,-8 80,-8 80,-8 86,-8 92,-14 92,-20 92,-20 92,-73 92,-73 92,-79 86,-85 80,-85 80,-85 12,-85 12,-85 6,-85 0,-79 0,-73 0,-73 0,-20 0,-20 0,-14 6,-8 12,-8"></path><text text-anchor="middle" x="46" y="-68.4" font-family="Arial" font-size="14.00" fill="#333333">vip_group:lb</text></g><!-- lb:nginx --><g id="node1" class="node"><title>lb:nginx</title><path fill="#ffffff" stroke="#4b75b9" stroke-width="3" d="M168.4974,-52C168.4974,-52 131.8336,-52 131.8336,-52 125.8336,-52 119.8336,-46 119.8336,-40 119.8336,-40 119.8336,-28 119.8336,-28 119.8336,-22 125.8336,-16 131.8336,-16 131.8336,-16 168.4974,-16 168.4974,-16 174.4974,-16 180.4974,-22 180.4974,-28 180.4974,-28 180.4974,-40 180.4974,-40 180.4974,-46 174.4974,-52 168.4974,-52"></path><text text-anchor="middle" x="150.1655" y="-29.8" font-family="Arial" font-size="14.00" fill="#333333">NGINX</text></g><!-- vip_group:lb:vip --><g id="node2" class="node"><title>vip_group:lb:vip</title><path fill="#ffffff" stroke="#4b75b9" stroke-width="3" d="M61,-52C61,-52 31,-52 31,-52 25,-52 19,-46 19,-40 19,-40 19,-28 19,-28 19,-22 25,-16 31,-16 31,-16 61,-16 61,-16 67,-16 73,-22 73,-28 73,-28 73,-40 73,-40 73,-46 67,-52 61,-52"></path><text text-anchor="middle" x="46" y="-29.8" font-family="Arial" font-size="14.00" fill="#333333">vip</text></g><!-- vip_group:lb:vip&#45;&gt;lb:nginx --><g id="edge-0" class="edge"><title>vip_group:lb:vip-&gt;lb:nginx</title><path fill="none" stroke="#333333" stroke-width="2" stroke-opacity="0.600000" d="M73.0963,-34C73.0963,-34 109.8999,-34 109.8999,-34"></path><polygon fill="#333333" fill-opacity="0.600000" stroke="#333333" stroke-width="2" stroke-opacity="0.600000" points="109.8999,-37.5001 119.8999,-34 109.8998,-30.5001 109.8999,-37.5001"></polygon></g></g></svg>