<?xml version="1.0" encoding="UTF-8" standalone="no"?><!-- Generated by graphviz version 2.40.1 (20161225.0304)
 --><!-- Title: ndiag Pages: 1 --><svg width="287pt" height="101pt" viewBox="0.00 0.00 286.66 101.00" xmlns="http://www.w3.org/2000/svg" xmlns:xlink="http://www.w3.org/1999/xlink"><g id="graph0" class="graph" transform="scale(1 1) rotate(0) translate(4 97)"><title>ndiag</title><polygon fill="#ffffff" stroke="transparent" points="-4,4 -4,-97 282.662,-97 282.662,4 -4,4"></polygon><g id="clust2" class="cluster"><title>cluster_app</title><polygon fill="none" stroke="#000000" stroke-width="2" points="104.331,-8 104.331,-85 270.662,-85 270.662,-8 104.331,-8"></polygon><text text-anchor="middle" x="187.4965" y="-68.4" font-family="Arial" font-size="14.00" fill="#000000">app</text></g><g id="clust1" class="cluster"><title>cluster_lb</title><polygon fill="none" stroke="#000000" stroke-width="2" points="8,-8 8,-85 84.331,-85 84.331,-8 8,-8"></polygon><text text-anchor="middle" x="46.1655" y="-68.4" font-family="Arial" font-size="14.00" fill="#000000">lb</text></g><!-- lb:nginx --><g id="node1" class="node"><title>lb:nginx</title><path fill="#ffffff" stroke="#4b75b9" stroke-width="3" d="M64.4974,-52C64.4974,-52 27.8336,-52 27.8336,-52 21.8336,-52 15.8336,-46 15.8336,-40 15.8336,-40 15.8336,-28 15.8336,-28 15.8336,-22 21.8336,-16 27.8336,-16 27.8336,-16 64.4974,-16 64.4974,-16 70.4974,-16 76.4974,-22 76.4974,-28 76.4974,-28 76.4974,-40 76.4974,-40 76.4974,-46 70.4974,-52 64.4974,-52"></path><text text-anchor="middle" x="46.1655" y="-29.8" font-family="Arial" font-size="14.00" fill="#333333">NGINX</text></g><!-- app:nginx --><g id="node2" class="node"><title>app:nginx</title><path fill="#ffffff" stroke="#4b75b9" stroke-width="3" d="M160.8284,-52C160.8284,-52 124.1646,-52 124.1646,-52 118.1646,-52 112.1646,-46 112.1646,-40 112.1646,-40 112.1646,-28 112.1646,-28 112.1646,-22 118.1646,-16 124.1646,-16 124.1646,-16 160.8284,-16 160.8284,-16 166.8284,-16 172.8284,-22 172.8284,-28 172.8284,-28 172.8284,-40 172.8284,-40 172.8284,-46 166.8284,-52 160.8284,-52"></path><text text-anchor="middle" x="142.4965" y="-29.8" font-family="Arial" font-size="14.00" fill="#333333">NGINX</text></g><!-- lb:nginx&#45;&gt;app:nginx --><g id="edge-0" class="edge"><title>lb:nginx-&gt;app:nginx</title><path fill="none" stroke="#333333" stroke-width="2" stroke-opacity="0.600000" d="M76.3809,-34C76.3809,-34 102.0571,-34 102.0571,-34"></path><polygon fill="#333333" fill-opacity="0.600000" stroke="#333333" stroke-width="2" stroke-opacity="0.600000" points="102.0571,-37.5001 112.0571,-34 102.057,-30.5001 102.0571,-37.5001"></polygon></g><!-- app:app --><g id="node3" class="node"><title>app:app</title><path fill="#ffffff" stroke="#4b75b9" stroke-width="3" d="M250.662,-52C250.662,-52 220.662,-52 220.662,-52 214.662,-52 208.662,-46 208.662,-40 208.662,-40 208.662,-28 208.662,-28 208.662,-22 214.662,-16 220.662,-16 220.662,-16 250.662,-16 250.662,-16 256.662,-16 262.662,-22 262.662,-28 262.662,-28 262.662,-40 262.662,-40 262.662,-46 256.662,-52 250.662,-52"></path><text text-anchor="middle" x="235.662" y="-29.8" font-family="Arial" font-size="14.00" fill="#333333">App</text></g><!-- app:nginx&#45;&gt;app:app --><g id="edge-1" class="edge"><title>app:nginx-&gt;app:app</title><path fill="none" stroke="#333333" stroke-width="2" stroke-opacity="0.600000" d="M172.7447,-34C172.7447,-34 198.3976,-34 198.3976,-34"></path><polygon fill="#333333" fill-opacity="0.600000" stroke="#333333" stroke-width="2" stroke-opacity="0.600000" points="198.3976,-37.5001 208.3976,-34 198.3976,-30.5001 198.3976,-37.5001"></polygon></g></g></svg>