<?xml version="1.0" encoding="UTF-8" standalone="no"?><!-- Generated by graphviz version 12.1.2 (20240928.0832)
 --><!-- Title: ndiag Pages: 1 --><svg width="205pt" height="101pt" viewBox="0.00 0.00 204.61 101.00" xmlns="http://www.w3.org/2000/svg" xmlns:xlink="http://www.w3.org/1999/xlink"><g id="graph0" class="graph" transform="scale(1 1) rotate(0) translate(4 97)"><title>ndiag</title><polygon fill="white" stroke="none" points="-4,4 -4,-97 200.61,-97 200.61,4 -4,4"></polygon><g id="clust1" class="cluster"><title>cluster_vip_group:lb</title><path fill="#ffffff" stroke="#b2cf3e" stroke-width="2" d="M12,-8C12,-8 80.28,-8 80.28,-8 86.28,-8 92.28,-14 92.28,-20 92.28,-20 92.28,-73 92.28,-73 92.28,-79 86.28,-85 80.28,-85 80.28,-85 12,-85 12,-85 6,-85 0,-79 0,-73 0,-73 0,-20 0,-20 0,-14 6,-8 12,-8"></path><text text-anchor="middle" x="46.14" y="-68.4" font-family="Arial" font-size="14.00" fill="#333333">vip_group:lb</text></g><g id="clust2" class="cluster"><title>cluster_lb</title><polygon fill="none" stroke="black" stroke-width="2" points="112.28,-8 112.28,-85 188.61,-85 188.61,-8 112.28,-8"></polygon><text text-anchor="middle" x="150.44" y="-68.4" font-family="Arial" font-size="14.00">lb</text></g><!-- vip_group:lb:vip --><g id="node1" class="node"><title>vip_group:lb:vip</title><path fill="#ffffff" stroke="#4b75b9" stroke-width="3" d="M60.64,-52C60.64,-52 30.64,-52 30.64,-52 24.64,-52 18.64,-46 18.64,-40 18.64,-40 18.64,-28 18.64,-28 18.64,-22 24.64,-16 30.64,-16 30.64,-16 60.64,-16 60.64,-16 66.64,-16 72.64,-22 72.64,-28 72.64,-28 72.64,-40 72.64,-40 72.64,-46 66.64,-52 60.64,-52"></path><text text-anchor="middle" x="45.64" y="-29.8" font-family="Arial" font-size="14.00" fill="#333333">vip</text></g><!-- lb:nginx --><g id="node2" class="node"><title>lb:nginx</title><path fill="#ffffff" stroke="#4b75b9" stroke-width="3" d="M168.61,-52C168.61,-52 132.28,-52 132.28,-52 126.28,-52 120.28,-46 120.28,-40 120.28,-40 120.28,-28 120.28,-28 120.28,-22 126.28,-16 132.28,-16 132.28,-16 168.61,-16 168.61,-16 174.61,-16 180.61,-22 180.61,-28 180.61,-28 180.61,-40 180.61,-40 180.61,-46 174.61,-52 168.61,-52"></path><text text-anchor="middle" x="150.44" y="-29.8" font-family="Arial" font-size="14.00" fill="#333333">NGINX</text></g><!-- vip_group:lb:vip&#45;&gt;lb:nginx --><g id="edge-0" class="edge"><title>vip_group:lb:vip-&gt;lb:nginx</title><path fill="none" stroke="#333333" stroke-width="2" stroke-opacity="0.600000" d="M72.9,-34C72.9,-34 108.48,-34 108.48,-34"></path><polygon fill="#333333" fill-opacity="0.600000" stroke="#333333" stroke-width="2" stroke-opacity="0.600000" points="106.97,-37.5 116.97,-34 106.97,-30.5 106.97,-37.5"></polygon></g></g></svg>