<?xml version="1.0" encoding="UTF-8" standalone="no"?><!-- Generated by graphviz version 12.1.2 (20240928.0832)
 --><!-- Title: ndiag Pages: 1 --><svg width="254pt" height="155pt" viewBox="0.00 0.00 254.39 155.00" xmlns="http://www.w3.org/2000/svg" xmlns:xlink="http://www.w3.org/1999/xlink"><g id="graph0" class="graph" transform="scale(1 1) rotate(0) translate(4 151)"><title>ndiag</title><polygon fill="white" stroke="none" points="-4,4 -4,-151 250.39,-151 250.39,4 -4,4"></polygon><g id="clust1" class="cluster"><title>cluster_vip_group:lb</title><path fill="#ffffff" stroke="#b2cf3e" stroke-width="2" d="M166.11,-8C166.11,-8 234.39,-8 234.39,-8 240.39,-8 246.39,-14 246.39,-20 246.39,-20 246.39,-73 246.39,-73 246.39,-79 240.39,-85 234.39,-85 234.39,-85 166.11,-85 166.11,-85 160.11,-85 154.11,-79 154.11,-73 154.11,-73 154.11,-20 154.11,-20 154.11,-14 160.11,-8 166.11,-8"></path><text text-anchor="middle" x="200.25" y="-68.4" font-family="Arial" font-size="14.00" fill="#333333">vip_group:lb</text></g><g id="clust2" class="cluster"><title>cluster_lb</title><polygon fill="none" stroke="black" stroke-width="2" points="28.06,-62 28.06,-139 98.06,-139 98.06,-62 28.06,-62"></polygon><text text-anchor="middle" x="63.06" y="-122.4" font-family="Arial" font-size="14.00">lb</text></g><!-- vip_group:lb:vip --><g id="node1" class="node"><title>vip_group:lb:vip</title><path fill="#ffffff" stroke="#4b75b9" stroke-width="3" d="M214.75,-52C214.75,-52 184.75,-52 184.75,-52 178.75,-52 172.75,-46 172.75,-40 172.75,-40 172.75,-28 172.75,-28 172.75,-22 178.75,-16 184.75,-16 184.75,-16 214.75,-16 214.75,-16 220.75,-16 226.75,-22 226.75,-28 226.75,-28 226.75,-40 226.75,-40 226.75,-46 220.75,-52 214.75,-52"></path><text text-anchor="middle" x="199.75" y="-29.8" font-family="Arial" font-size="14.00" fill="#333333">vip</text></g><!-- none --><g id="node2" class="node"><title>none</title><text text-anchor="middle" x="63.06" y="-83.8" font-family="Times,serif" font-size="14.00">none</text></g><!-- lb:keepalived --><g id="node3" class="node"><title>lb:keepalived</title><ellipse fill="none" stroke="black" cx="63.06" cy="-34" rx="63.06" ry="18"></ellipse><text text-anchor="middle" x="63.06" y="-29.8" font-family="Times,serif" font-size="14.00">lb:keepalived</text></g><!-- lb:keepalived&#45;&gt;vip_group:lb:vip --><g id="edge-0" class="edge"><title>lb:keepalived-&gt;vip_group:lb:vip</title><path fill="none" stroke="#4b75b9" stroke-width="2" stroke-dasharray="5,2" d="M126.6,-34C126.6,-34 163.56,-34 163.56,-34"></path><ellipse fill="#4b75b9" stroke="#4b75b9" stroke-width="2" cx="167.56" cy="-34" rx="4" ry="4"></ellipse></g></g></svg>