<?xml version="1.0" encoding="UTF-8" standalone="no"?><!-- Generated by graphviz version 12.1.2 (20240928.0832)
 --><!-- Title: ndiag Pages: 1 --><svg width="231pt" height="101pt" viewBox="0.00 0.00 231.26 101.00" xmlns="http://www.w3.org/2000/svg" xmlns:xlink="http://www.w3.org/1999/xlink"><g id="graph0" class="graph" transform="scale(1 1) rotate(0) translate(4 97)"><title>ndiag</title><polygon fill="white" stroke="none" points="-4,4 -4,-97 227.26,-97 227.26,4 -4,4"></polygon><g id="clust1" class="cluster"><title>cluster_service:payment</title><path fill="#ffffff" stroke="#f0ba32" stroke-width="2" d="M110,-8C110,-8 207.82,-8 207.82,-8 213.82,-8 219.82,-14 219.82,-20 219.82,-20 219.82,-73 219.82,-73 219.82,-79 213.82,-85 207.82,-85 207.82,-85 110,-85 110,-85 104,-85 98,-79 98,-73 98,-73 98,-20 98,-20 98,-14 104,-8 110,-8"></path><text text-anchor="middle" x="158.91" y="-68.4" font-family="Arial" font-size="14.00" fill="#333333">Service:Payment</text></g><g id="clust2" class="cluster"><title>cluster_app</title><polygon fill="none" stroke="black" stroke-width="2" points="8,-8 8,-85 78,-85 78,-8 8,-8"></polygon><text text-anchor="middle" x="43" y="-68.4" font-family="Arial" font-size="14.00">app</text></g><!-- service:payment:payment api --><g id="node1" class="node"><title>service:payment:payment api</title><path fill="#ffffff" stroke="#4b75b9" stroke-width="3" d="M195.26,-52C195.26,-52 121.56,-52 121.56,-52 115.56,-52 109.56,-46 109.56,-40 109.56,-40 109.56,-28 109.56,-28 109.56,-22 115.56,-16 121.56,-16 121.56,-16 195.26,-16 195.26,-16 201.26,-16 207.26,-22 207.26,-28 207.26,-28 207.26,-40 207.26,-40 207.26,-46 201.26,-52 195.26,-52"></path><text text-anchor="middle" x="158.41" y="-29.8" font-family="Arial" font-size="14.00" fill="#333333">Payment API</text></g><!-- app:app --><g id="node2" class="node"><title>app:app</title><path fill="#ffffff" stroke="#4b75b9" stroke-width="3" d="M58,-52C58,-52 28,-52 28,-52 22,-52 16,-46 16,-40 16,-40 16,-28 16,-28 16,-22 22,-16 28,-16 28,-16 58,-16 58,-16 64,-16 70,-22 70,-28 70,-28 70,-40 70,-40 70,-46 64,-52 58,-52"></path><text text-anchor="middle" x="43" y="-29.8" font-family="Arial" font-size="14.00" fill="#333333">App</text></g><!-- app:app&#45;&gt;service:payment:payment api --><g id="edge-0" class="edge"><title>app:app-&gt;service:payment:payment api</title><path fill="none" stroke="#333333" stroke-width="2" stroke-opacity="0.600000" d="M70.35,-34C70.35,-34 97.6,-34 97.6,-34"></path><polygon fill="#333333" fill-opacity="0.600000" stroke="#333333" stroke-width="2" stroke-opacity="0.600000" points="96.09,-37.5 106.09,-34 96.09,-30.5 96.09,-37.5"></polygon></g></g></svg>