<?xml version="1.0" encoding="UTF-8" standalone="no"?><!-- Generated by graphviz version 2.40.1 (20161225.0304)
 --><!-- Title: ndiag Pages: 1 --><svg width="309pt" height="342pt" viewBox="0.00 0.00 309.34 342.40" xmlns="http://www.w3.org/2000/svg" xmlns:xlink="http://www.w3.org/1999/xlink"><g id="graph0" class="graph" transform="scale(1 1) rotate(0) translate(4 338.4)"><title>ndiag</title><polygon fill="#ffffff" stroke="transparent" points="-4,4 -4,-338.4 305.3394,-338.4 305.3394,4 -4,4"></polygon><g id="clust6" class="cluster"><title>cluster_db</title><polygon fill="none" stroke="#000000" stroke-width="2" points="137,-8 137,-84.8 245,-84.8 245,-8 137,-8"></polygon><text text-anchor="middle" x="191" y="-68.2" font-family="Arial" font-size="14.00" fill="#000000">db</text></g><g id="clust5" class="cluster"><title>cluster_app</title><polygon fill="none" stroke="#000000" stroke-width="2" points="49,-92.8 49,-241.6 125,-241.6 125,-92.8 49,-92.8"></polygon><text text-anchor="middle" x="87" y="-225" font-family="Arial" font-size="14.00" fill="#000000">app</text></g><g id="clust4" class="cluster"><title>cluster_lb</title><polygon fill="none" stroke="#000000" stroke-width="2" points="49,-249.6 49,-326.4 229,-326.4 229,-249.6 49,-249.6"></polygon><text text-anchor="middle" x="139" y="-309.8" font-family="Arial" font-size="14.00" fill="#000000">lb</text></g><g id="clust3" class="cluster"><title>cluster_service:payment</title><path fill="#ffffff" stroke="#f0ba32" stroke-width="2" d="M20,-8C20,-8 117,-8 117,-8 123,-8 129,-14 129,-20 129,-20 129,-72.8 129,-72.8 129,-78.8 123,-84.8 117,-84.8 117,-84.8 20,-84.8 20,-84.8 14,-84.8 8,-78.8 8,-72.8 8,-72.8 8,-20 8,-20 8,-14 14,-8 20,-8"></path><text text-anchor="middle" x="68.5" y="-68.2" font-family="Arial" font-size="14.00" fill="#333333">Service:Payment</text></g><g id="clust1" class="cluster"><title>cluster_vip_group:lb</title><path fill="#ffffff" stroke="#b2cf3e" stroke-width="2" d="M150,-164.8C150,-164.8 218,-164.8 218,-164.8 224,-164.8 230,-170.8 230,-176.8 230,-176.8 230,-229.6 230,-229.6 230,-235.6 224,-241.6 218,-241.6 218,-241.6 150,-241.6 150,-241.6 144,-241.6 138,-235.6 138,-229.6 138,-229.6 138,-176.8 138,-176.8 138,-170.8 144,-164.8 150,-164.8"></path><text text-anchor="middle" x="184" y="-225" font-family="Arial" font-size="14.00" fill="#333333">vip_group:lb</text></g><!-- lb:nginx --><g id="node1" class="node"><title>lb:nginx</title><path fill="#ffffff" stroke="#4b75b9" stroke-width="3" d="M105.3319,-293.6C105.3319,-293.6 68.6681,-293.6 68.6681,-293.6 62.6681,-293.6 56.6681,-287.6 56.6681,-281.6 56.6681,-281.6 56.6681,-269.6 56.6681,-269.6 56.6681,-263.6 62.6681,-257.6 68.6681,-257.6 68.6681,-257.6 105.3319,-257.6 105.3319,-257.6 111.3319,-257.6 117.3319,-263.6 117.3319,-269.6 117.3319,-269.6 117.3319,-281.6 117.3319,-281.6 117.3319,-287.6 111.3319,-293.6 105.3319,-293.6"></path><text text-anchor="middle" x="87" y="-271.4" font-family="Arial" font-size="14.00" fill="#333333">NGINX</text></g><!-- app:nginx --><g id="node5" class="node"><title>app:nginx</title><path fill="#ffffff" stroke="#4b75b9" stroke-width="3" d="M105.3319,-208.8C105.3319,-208.8 68.6681,-208.8 68.6681,-208.8 62.6681,-208.8 56.6681,-202.8 56.6681,-196.8 56.6681,-196.8 56.6681,-184.8 56.6681,-184.8 56.6681,-178.8 62.6681,-172.8 68.6681,-172.8 68.6681,-172.8 105.3319,-172.8 105.3319,-172.8 111.3319,-172.8 117.3319,-178.8 117.3319,-184.8 117.3319,-184.8 117.3319,-196.8 117.3319,-196.8 117.3319,-202.8 111.3319,-208.8 105.3319,-208.8"></path><text text-anchor="middle" x="87" y="-186.6" font-family="Arial" font-size="14.00" fill="#333333">NGINX</text></g><!-- lb:nginx&#45;&gt;app:nginx --><g id="edge-2" class="edge"><title>lb:nginx-&gt;app:nginx</title><path fill="none" stroke="#333333" stroke-width="2" stroke-opacity="0.600000" d="M87,-257.1997C87,-257.1997 87,-218.8731 87,-218.8731"></path><polygon fill="#333333" fill-opacity="0.600000" stroke="#333333" stroke-width="2" stroke-opacity="0.600000" points="90.5001,-218.8731 87,-208.8731 83.5001,-218.8731 90.5001,-218.8731"></polygon></g><!-- lb:keepalived --><g id="node2" class="node"><title>lb:keepalived</title><path fill="#ffffff" stroke="#4b75b9" stroke-width="3" d="M208.7458,-293.6C208.7458,-293.6 147.2542,-293.6 147.2542,-293.6 141.2542,-293.6 135.2542,-287.6 135.2542,-281.6 135.2542,-281.6 135.2542,-269.6 135.2542,-269.6 135.2542,-263.6 141.2542,-257.6 147.2542,-257.6 147.2542,-257.6 208.7458,-257.6 208.7458,-257.6 214.7458,-257.6 220.7458,-263.6 220.7458,-269.6 220.7458,-269.6 220.7458,-281.6 220.7458,-281.6 220.7458,-287.6 214.7458,-293.6 208.7458,-293.6"></path><text text-anchor="middle" x="178" y="-271.4" font-family="Arial" font-size="14.00" fill="#333333">Keepalived</text></g><!-- vip_group:lb:vip --><g id="node3" class="node"><title>vip_group:lb:vip</title><path fill="#ffffff" stroke="#4b75b9" stroke-width="3" d="M193,-208.8C193,-208.8 163,-208.8 163,-208.8 157,-208.8 151,-202.8 151,-196.8 151,-196.8 151,-184.8 151,-184.8 151,-178.8 157,-172.8 163,-172.8 163,-172.8 193,-172.8 193,-172.8 199,-172.8 205,-178.8 205,-184.8 205,-184.8 205,-196.8 205,-196.8 205,-202.8 199,-208.8 193,-208.8"></path><text text-anchor="middle" x="178" y="-186.6" font-family="Arial" font-size="14.00" fill="#333333">vip</text></g><!-- lb:keepalived&#45;&gt;vip_group:lb:vip --><g id="edge-6" class="edge"><title>lb:keepalived-&gt;vip_group:lb:vip</title><path fill="none" stroke="#4b75b9" stroke-width="2" stroke-dasharray="5,2" d="M178,-257.1997C178,-257.1997 178,-216.8731 178,-216.8731"></path><ellipse fill="#4b75b9" stroke="#4b75b9" stroke-width="2" cx="178" cy="-212.8731" rx="4" ry="4"></ellipse></g><!-- vip_group:lb:vip&#45;&gt;lb:nginx --><g id="edge-1" class="edge"><title>vip_group:lb:vip-&gt;lb:nginx</title><path fill="none" stroke="#333333" stroke-width="2" stroke-opacity="0.600000" d="M150.7201,-190C139.0731,-190 128.1112,-190 128.1112,-190 128.1112,-190 128.1112,-275 128.1112,-275 128.1112,-275 127.031,-275 127.031,-275"></path><polygon fill="#333333" fill-opacity="0.600000" stroke="#333333" stroke-width="2" stroke-opacity="0.600000" points="127.3097,-271.5001 117.3097,-275 127.3096,-278.5001 127.3097,-271.5001"></polygon></g><!-- service:payment:payment api --><g id="node4" class="node"><title>service:payment:payment api</title><path fill="#ffffff" stroke="#4b75b9" stroke-width="3" d="M108.6905,-52C108.6905,-52 35.3095,-52 35.3095,-52 29.3095,-52 23.3095,-46 23.3095,-40 23.3095,-40 23.3095,-28 23.3095,-28 23.3095,-22 29.3095,-16 35.3095,-16 35.3095,-16 108.6905,-16 108.6905,-16 114.6905,-16 120.6905,-22 120.6905,-28 120.6905,-28 120.6905,-40 120.6905,-40 120.6905,-46 114.6905,-52 108.6905,-52"></path><text text-anchor="middle" x="72" y="-29.8" font-family="Arial" font-size="14.00" fill="#333333">Payment API</text></g><!-- app:app --><g id="node6" class="node"><title>app:app</title><path fill="#ffffff" stroke="#4b75b9" stroke-width="3" d="M102,-136.8C102,-136.8 72,-136.8 72,-136.8 66,-136.8 60,-130.8 60,-124.8 60,-124.8 60,-112.8 60,-112.8 60,-106.8 66,-100.8 72,-100.8 72,-100.8 102,-100.8 102,-100.8 108,-100.8 114,-106.8 114,-112.8 114,-112.8 114,-124.8 114,-124.8 114,-130.8 108,-136.8 102,-136.8"></path><text text-anchor="middle" x="87" y="-114.6" font-family="Arial" font-size="14.00" fill="#333333">App</text></g><!-- app:nginx&#45;&gt;app:app --><g id="edge-3" class="edge"><title>app:nginx-&gt;app:app</title><path fill="none" stroke="#333333" stroke-width="2" stroke-opacity="0.600000" d="M87,-172.6314C87,-172.6314 87,-147.2133 87,-147.2133"></path><polygon fill="#333333" fill-opacity="0.600000" stroke="#333333" stroke-width="2" stroke-opacity="0.600000" points="90.5001,-147.2132 87,-137.2133 83.5001,-147.2133 90.5001,-147.2132"></polygon></g><!-- app:app&#45;&gt;service:payment:payment api --><g id="edge-5" class="edge"><title>app:app-&gt;service:payment:payment api</title><path fill="none" stroke="#333333" stroke-width="2" stroke-opacity="0.600000" d="M87,-100.3997C87,-100.3997 87,-62.0731 87,-62.0731"></path><polygon fill="#333333" fill-opacity="0.600000" stroke="#333333" stroke-width="2" stroke-opacity="0.600000" points="90.5001,-62.0731 87,-52.0731 83.5001,-62.0731 90.5001,-62.0731"></polygon></g><!-- db:postgresql --><g id="node7" class="node"><title>db:postgresql</title><path fill="#ffffff" stroke="#4b75b9" stroke-width="3" d="M225.2457,-52C225.2457,-52 156.7543,-52 156.7543,-52 150.7543,-52 144.7543,-46 144.7543,-40 144.7543,-40 144.7543,-28 144.7543,-28 144.7543,-22 150.7543,-16 156.7543,-16 156.7543,-16 225.2457,-16 225.2457,-16 231.2457,-16 237.2457,-22 237.2457,-28 237.2457,-28 237.2457,-40 237.2457,-40 237.2457,-46 231.2457,-52 225.2457,-52"></path><text text-anchor="middle" x="191" y="-29.8" font-family="Arial" font-size="14.00" fill="#333333">PostgreSQL</text></g><!-- app:app&#45;&gt;db:postgresql --><g id="edge-4" class="edge"><title>app:app-&gt;db:postgresql</title><path fill="none" stroke="#333333" stroke-width="2" stroke-opacity="0.600000" d="M114.303,-118C141.1076,-118 178,-118 178,-118 178,-118 178,-62.2267 178,-62.2267"></path><polygon fill="#333333" fill-opacity="0.600000" stroke="#333333" stroke-width="2" stroke-opacity="0.600000" points="181.5001,-62.2267 178,-52.2267 174.5001,-62.2268 181.5001,-62.2267"></polygon></g><!-- internet --><g id="node8" class="node"><title>internet</title><path fill="none" stroke="#000000" stroke-width="2" d="M289.1796,-293.6C289.1796,-293.6 250.8204,-293.6 250.8204,-293.6 244.8204,-293.6 238.8204,-287.6 238.8204,-281.6 238.8204,-281.6 238.8204,-269.6 238.8204,-269.6 238.8204,-263.6 244.8204,-257.6 250.8204,-257.6 250.8204,-257.6 289.1796,-257.6 289.1796,-257.6 295.1796,-257.6 301.1796,-263.6 301.1796,-269.6 301.1796,-269.6 301.1796,-281.6 301.1796,-281.6 301.1796,-287.6 295.1796,-293.6 289.1796,-293.6"></path><text text-anchor="middle" x="270" y="-271.4" font-family="Arial" font-size="14.00" fill="#000000">internet</text></g><!-- internet&#45;&gt;vip_group:lb:vip --><g id="edge-0" class="edge"><title>internet-&gt;vip_group:lb:vip</title><path fill="none" stroke="#333333" stroke-width="2" stroke-opacity="0.600000" d="M270,-257.4464C270,-232.3193 270,-190 270,-190 270,-190 215.1054,-190 215.1054,-190"></path><polygon fill="#333333" fill-opacity="0.600000" stroke="#333333" stroke-width="2" stroke-opacity="0.600000" points="215.1055,-186.5001 205.1054,-190 215.1054,-193.5001 215.1055,-186.5001"></polygon></g></g></svg>