<?xml version="1.0" encoding="UTF-8" standalone="no"?><!-- Generated by graphviz version 2.40.1 (20161225.0304)
 --><!-- Title: ndiag Pages: 1 --><svg width="172pt" height="101pt" viewBox="0.00 0.00 172.00 100.80" xmlns="http://www.w3.org/2000/svg" xmlns:xlink="http://www.w3.org/1999/xlink"><g id="graph0" class="graph" transform="scale(1 1) rotate(0) translate(4 96.8)"><title>ndiag</title><polygon fill="#ffffff" stroke="transparent" points="-4,4 -4,-96.8 168,-96.8 168,4 -4,4"></polygon><g id="clust1" class="cluster"><title>cluster_app</title><polygon fill="none" stroke="#000000" stroke-width="2" points="8,-8 8,-84.8 156,-84.8 156,-8 8,-8"></polygon><text text-anchor="middle" x="82" y="-68.2" font-family="Arial" font-size="14.00" fill="#000000">app</text></g><!-- app:nginx --><g id="node1" class="node"><title>app:nginx</title><path fill="#ffffff" stroke="#4b75b9" stroke-width="3" d="M136.3319,-52C136.3319,-52 99.6681,-52 99.6681,-52 93.6681,-52 87.6681,-46 87.6681,-40 87.6681,-40 87.6681,-28 87.6681,-28 87.6681,-22 93.6681,-16 99.6681,-16 99.6681,-16 136.3319,-16 136.3319,-16 142.3319,-16 148.3319,-22 148.3319,-28 148.3319,-28 148.3319,-40 148.3319,-40 148.3319,-46 142.3319,-52 136.3319,-52"></path><text text-anchor="middle" x="118" y="-29.8" font-family="Arial" font-size="14.00" fill="#333333">NGINX</text></g><!-- app:app --><g id="node2" class="node"><title>app:app</title><path fill="#ffffff" stroke="#4b75b9" stroke-width="3" d="M58,-52C58,-52 28,-52 28,-52 22,-52 16,-46 16,-40 16,-40 16,-28 16,-28 16,-22 22,-16 28,-16 28,-16 58,-16 58,-16 64,-16 70,-22 70,-28 70,-28 70,-40 70,-40 70,-46 64,-52 58,-52"></path><text text-anchor="middle" x="43" y="-29.8" font-family="Arial" font-size="14.00" fill="#333333">App</text></g></g></svg>