<?xml version="1.0" encoding="UTF-8" standalone="no"?><!-- Generated by graphviz version 2.40.1 (20161225.0304)
 --><!-- Title: ndiag Pages: 1 --><svg width="132pt" height="101pt" viewBox="0.00 0.00 132.00 100.80" xmlns="http://www.w3.org/2000/svg" xmlns:xlink="http://www.w3.org/1999/xlink"><g id="graph0" class="graph" transform="scale(1 1) rotate(0) translate(4 96.8)"><title>ndiag</title><polygon fill="#ffffff" stroke="transparent" points="-4,4 -4,-96.8 128,-96.8 128,4 -4,4"></polygon><g id="clust1" class="cluster"><title>cluster_db</title><polygon fill="none" stroke="#000000" stroke-width="2" points="8,-8 8,-84.8 116,-84.8 116,-8 8,-8"></polygon><text text-anchor="middle" x="62" y="-68.2" font-family="Arial" font-size="14.00" fill="#000000">db</text></g><!-- db:postgresql --><g id="node1" class="node"><title>db:postgresql</title><path fill="#ffffff" stroke="#4b75b9" stroke-width="3" d="M96.2457,-52C96.2457,-52 27.7543,-52 27.7543,-52 21.7543,-52 15.7543,-46 15.7543,-40 15.7543,-40 15.7543,-28 15.7543,-28 15.7543,-22 21.7543,-16 27.7543,-16 27.7543,-16 96.2457,-16 96.2457,-16 102.2457,-16 108.2457,-22 108.2457,-28 108.2457,-28 108.2457,-40 108.2457,-40 108.2457,-46 102.2457,-52 96.2457,-52"></path><text text-anchor="middle" x="62" y="-29.8" font-family="Arial" font-size="14.00" fill="#333333">PostgreSQL</text></g></g></svg>