<?xml version="1.0" encoding="UTF-8" standalone="no"?>
<!DOCTYPE svg PUBLIC "-//W3C//DTD SVG 1.1//EN"
 "http://www.w3.org/Graphics/SVG/1.1/DTD/svg11.dtd">
<!-- Generated by graphviz version 12.1.2 (20240928.0832)
 -->
<!-- Title: ndiag Pages: 1 -->
<svg width="172pt" height="101pt" viewBox="0.00 0.00 172.00 100.80" xmlns="http://www.w3.org/2000/svg" xmlns:xlink="http://www.w3.org/1999/xlink">
<g id="graph0" class="graph" transform="scale(1 1) rotate(0) translate(4 96.8)">
<title>ndiag</title>
<polygon fill="white" stroke="none" points="-4,4 -4,-96.8 168,-96.8 168,4 -4,4"></polygon>
<g id="clust1" class="cluster">
<title>cluster_app</title>
<polygon fill="none" stroke="black" stroke-width="2" points="8,-8 8,-84.8 156,-84.8 156,-8 8,-8"></polygon>
<text text-anchor="middle" x="82" y="-68.2" font-family="Arial" font-size="14.00">app</text>
</g>
<!-- app:nginx -->
<g id="node1" class="node">
<title>app:nginx</title>
<path fill="#ffffff" stroke="#4b75b9" stroke-width="3" d="M64.17,-52C64.17,-52 27.83,-52 27.83,-52 21.83,-52 15.83,-46 15.83,-40 15.83,-40 15.83,-28 15.83,-28 15.83,-22 21.83,-16 27.83,-16 27.83,-16 64.17,-16 64.17,-16 70.17,-16 76.17,-22 76.17,-28 76.17,-28 76.17,-40 76.17,-40 76.17,-46 70.17,-52 64.17,-52"></path>
<text text-anchor="middle" x="46" y="-29.8" font-family="Arial" font-size="14.00" fill="#333333">NGINX</text>
</g>
<!-- app:app -->
<g id="node2" class="node">
<title>app:app</title>
<path fill="#ffffff" stroke="#4b75b9" stroke-width="3" d="M136,-52C136,-52 106,-52 106,-52 100,-52 94,-46 94,-40 94,-40 94,-28 94,-28 94,-22 100,-16 106,-16 106,-16 136,-16 136,-16 142,-16 148,-22 148,-28 148,-28 148,-40 148,-40 148,-46 142,-52 136,-52"></path>
<text text-anchor="middle" x="121" y="-29.8" font-family="Arial" font-size="14.00" fill="#333333">App</text>
</g>
</g>
</svg>
