<?xml version="1.0" encoding="UTF-8" standalone="no"?><!-- Generated by graphviz version 2.40.1 (20161225.0304)
 --><!-- Title: ndiag Pages: 1 --><svg width="100pt" height="101pt" viewBox="0.00 0.00 100.00 100.80" xmlns="http://www.w3.org/2000/svg" xmlns:xlink="http://www.w3.org/1999/xlink"><g id="graph0" class="graph" transform="scale(1 1) rotate(0) translate(4 96.8)"><title>ndiag</title><polygon fill="#ffffff" stroke="transparent" points="-4,4 -4,-96.8 96,-96.8 96,4 -4,4"></polygon><g id="clust1" class="cluster"><title>cluster_lb</title><polygon fill="none" stroke="#000000" stroke-width="2" points="8,-8 8,-84.8 84,-84.8 84,-8 8,-8"></polygon><text text-anchor="middle" x="46" y="-68.2" font-family="Arial" font-size="14.00" fill="#000000">lb</text></g><!-- lb:nginx --><g id="node1" class="node"><title>lb:nginx</title><path fill="#ffffff" stroke="#4b75b9" stroke-width="3" d="M64.3319,-52C64.3319,-52 27.6681,-52 27.6681,-52 21.6681,-52 15.6681,-46 15.6681,-40 15.6681,-40 15.6681,-28 15.6681,-28 15.6681,-22 21.6681,-16 27.6681,-16 27.6681,-16 64.3319,-16 64.3319,-16 70.3319,-16 76.3319,-22 76.3319,-28 76.3319,-28 76.3319,-40 76.3319,-40 76.3319,-46 70.3319,-52 64.3319,-52"></path><text text-anchor="middle" x="46" y="-29.8" font-family="Arial" font-size="14.00" fill="#333333">NGINX</text></g></g></svg>