<?xml version="1.0" encoding="UTF-8" standalone="no"?><!-- Generated by graphviz version 2.40.1 (20161225.0304)
 --><!-- Title: ndiag Pages: 1 --><svg width="194pt" height="101pt" viewBox="0.00 0.00 194.00 100.80" xmlns="http://www.w3.org/2000/svg" xmlns:xlink="http://www.w3.org/1999/xlink"><g id="graph0" class="graph" transform="scale(1 1) rotate(0) translate(4 96.8)"><title>ndiag</title><polygon fill="#ffffff" stroke="transparent" points="-4,4 -4,-96.8 190,-96.8 190,4 -4,4"></polygon><g id="clust1" class="cluster"><title>cluster_app</title><polygon fill="none" stroke="#000000" stroke-width="2" points="8,-8 8,-84.8 178,-84.8 178,-8 8,-8"></polygon><text text-anchor="middle" x="93" y="-68.2" font-family="Arial" font-size="14.00" fill="#000000">app</text></g><!-- app:nginx --><g id="node1" class="node"><title>app:nginx</title><path fill="#ffffff" stroke="#4b75b9" stroke-width="3" d="M158.3319,-52C158.3319,-52 121.6681,-52 121.6681,-52 115.6681,-52 109.6681,-46 109.6681,-40 109.6681,-40 109.6681,-28 109.6681,-28 109.6681,-22 115.6681,-16 121.6681,-16 121.6681,-16 158.3319,-16 158.3319,-16 164.3319,-16 170.3319,-22 170.3319,-28 170.3319,-28 170.3319,-40 170.3319,-40 170.3319,-46 164.3319,-52 158.3319,-52"></path><text text-anchor="middle" x="140" y="-29.8" font-family="Arial" font-size="14.00" fill="#333333">NGINX</text></g><!-- app:rails app --><g id="node2" class="node"><title>app:rails app</title><path fill="#ffffff" stroke="#4b75b9" stroke-width="3" d="M79.8949,-52C79.8949,-52 28.1051,-52 28.1051,-52 22.1051,-52 16.1051,-46 16.1051,-40 16.1051,-40 16.1051,-28 16.1051,-28 16.1051,-22 22.1051,-16 28.1051,-16 28.1051,-16 79.8949,-16 79.8949,-16 85.8949,-16 91.8949,-22 91.8949,-28 91.8949,-28 91.8949,-40 91.8949,-40 91.8949,-46 85.8949,-52 79.8949,-52"></path><text text-anchor="middle" x="54" y="-29.8" font-family="Arial" font-size="14.00" fill="#333333">Rails App</text></g></g></svg>