<?xml version="1.0" encoding="UTF-8" standalone="no"?><!-- Generated by graphviz version 12.1.2 (20240928.0832)
 --><!-- Title: ndiag Pages: 1 --><svg width="372pt" height="101pt" viewBox="0.00 0.00 372.00 100.80" xmlns="http://www.w3.org/2000/svg" xmlns:xlink="http://www.w3.org/1999/xlink"><g id="graph0" class="graph" transform="scale(1 1) rotate(0) translate(4 96.8)"><title>ndiag</title><polygon fill="white" stroke="none" points="-4,4 -4,-96.8 368,-96.8 368,4 -4,4"></polygon><g id="clust1" class="cluster"><title>cluster_lb</title><polygon fill="none" stroke="black" stroke-width="2" points="8,-8 8,-84.8 84,-84.8 84,-8 8,-8"></polygon><text text-anchor="middle" x="46" y="-68.2" font-family="Arial" font-size="14.00">lb</text></g><g id="clust2" class="cluster"><title>cluster_app</title><polygon fill="none" stroke="black" stroke-width="2" points="92,-8 92,-84.8 240,-84.8 240,-8 92,-8"></polygon><text text-anchor="middle" x="166" y="-68.2" font-family="Arial" font-size="14.00">app</text></g><g id="clust3" class="cluster"><title>cluster_db</title><polygon fill="none" stroke="black" stroke-width="2" points="248,-8 248,-84.8 356,-84.8 356,-8 248,-8"></polygon><text text-anchor="middle" x="302" y="-68.2" font-family="Arial" font-size="14.00">db</text></g><!-- lb:nginx --><g id="node1" class="node"><title>lb:nginx</title><path fill="#ffffff" stroke="#4b75b9" stroke-width="3" d="M64.17,-52C64.17,-52 27.83,-52 27.83,-52 21.83,-52 15.83,-46 15.83,-40 15.83,-40 15.83,-28 15.83,-28 15.83,-22 21.83,-16 27.83,-16 27.83,-16 64.17,-16 64.17,-16 70.17,-16 76.17,-22 76.17,-28 76.17,-28 76.17,-40 76.17,-40 76.17,-46 70.17,-52 64.17,-52"></path><text text-anchor="middle" x="46" y="-29.8" font-family="Arial" font-size="14.00" fill="#333333">NGINX</text></g><!-- app:nginx --><g id="node2" class="node"><title>app:nginx</title><path fill="#ffffff" stroke="#4b75b9" stroke-width="3" d="M148.17,-52C148.17,-52 111.83,-52 111.83,-52 105.83,-52 99.83,-46 99.83,-40 99.83,-40 99.83,-28 99.83,-28 99.83,-22 105.83,-16 111.83,-16 111.83,-16 148.17,-16 148.17,-16 154.17,-16 160.17,-22 160.17,-28 160.17,-28 160.17,-40 160.17,-40 160.17,-46 154.17,-52 148.17,-52"></path><text text-anchor="middle" x="130" y="-29.8" font-family="Arial" font-size="14.00" fill="#333333">NGINX</text></g><!-- app:app --><g id="node3" class="node"><title>app:app</title><path fill="#ffffff" stroke="#4b75b9" stroke-width="3" d="M220,-52C220,-52 190,-52 190,-52 184,-52 178,-46 178,-40 178,-40 178,-28 178,-28 178,-22 184,-16 190,-16 190,-16 220,-16 220,-16 226,-16 232,-22 232,-28 232,-28 232,-40 232,-40 232,-46 226,-52 220,-52"></path><text text-anchor="middle" x="205" y="-29.8" font-family="Arial" font-size="14.00" fill="#333333">App</text></g><!-- db:postgresql --><g id="node4" class="node"><title>db:postgresql</title><path fill="#ffffff" stroke="#4b75b9" stroke-width="3" d="M336.13,-52C336.13,-52 267.87,-52 267.87,-52 261.87,-52 255.87,-46 255.87,-40 255.87,-40 255.87,-28 255.87,-28 255.87,-22 261.87,-16 267.87,-16 267.87,-16 336.13,-16 336.13,-16 342.13,-16 348.13,-22 348.13,-28 348.13,-28 348.13,-40 348.13,-40 348.13,-46 342.13,-52 336.13,-52"></path><text text-anchor="middle" x="302" y="-29.8" font-family="Arial" font-size="14.00" fill="#333333">PostgreSQL</text></g></g></svg>