<?xml version="1.0" encoding="UTF-8" standalone="no"?><!-- Generated by graphviz version 2.40.1 (20161225.0304)
 --><!-- Title: ndiag Pages: 1 --><svg width="372pt" height="101pt" viewBox="0.00 0.00 372.00 100.80" xmlns="http://www.w3.org/2000/svg" xmlns:xlink="http://www.w3.org/1999/xlink"><g id="graph0" class="graph" transform="scale(1 1) rotate(0) translate(4 96.8)"><title>ndiag</title><polygon fill="#ffffff" stroke="transparent" points="-4,4 -4,-96.8 368,-96.8 368,4 -4,4"></polygon><g id="clust3" class="cluster"><title>cluster_db</title><polygon fill="none" stroke="#000000" stroke-width="2" points="248,-8 248,-84.8 356,-84.8 356,-8 248,-8"></polygon><text text-anchor="middle" x="302" y="-68.2" font-family="Arial" font-size="14.00" fill="#000000">db</text></g><g id="clust2" class="cluster"><title>cluster_app</title><polygon fill="none" stroke="#000000" stroke-width="2" points="92,-8 92,-84.8 240,-84.8 240,-8 92,-8"></polygon><text text-anchor="middle" x="166" y="-68.2" font-family="Arial" font-size="14.00" fill="#000000">app</text></g><g id="clust1" class="cluster"><title>cluster_lb</title><polygon fill="none" stroke="#000000" stroke-width="2" points="8,-8 8,-84.8 84,-84.8 84,-8 8,-8"></polygon><text text-anchor="middle" x="46" y="-68.2" font-family="Arial" font-size="14.00" fill="#000000">lb</text></g><!-- lb:nginx --><g id="node1" class="node"><title>lb:nginx</title><path fill="#ffffff" stroke="#4b75b9" stroke-width="3" d="M64.3319,-52C64.3319,-52 27.6681,-52 27.6681,-52 21.6681,-52 15.6681,-46 15.6681,-40 15.6681,-40 15.6681,-28 15.6681,-28 15.6681,-22 21.6681,-16 27.6681,-16 27.6681,-16 64.3319,-16 64.3319,-16 70.3319,-16 76.3319,-22 76.3319,-28 76.3319,-28 76.3319,-40 76.3319,-40 76.3319,-46 70.3319,-52 64.3319,-52"></path><text text-anchor="middle" x="46" y="-29.8" font-family="Arial" font-size="14.00" fill="#333333">NGINX</text></g><!-- app:nginx --><g id="node2" class="node"><title>app:nginx</title><path fill="#ffffff" stroke="#4b75b9" stroke-width="3" d="M220.3319,-52C220.3319,-52 183.6681,-52 183.6681,-52 177.6681,-52 171.6681,-46 171.6681,-40 171.6681,-40 171.6681,-28 171.6681,-28 171.6681,-22 177.6681,-16 183.6681,-16 183.6681,-16 220.3319,-16 220.3319,-16 226.3319,-16 232.3319,-22 232.3319,-28 232.3319,-28 232.3319,-40 232.3319,-40 232.3319,-46 226.3319,-52 220.3319,-52"></path><text text-anchor="middle" x="202" y="-29.8" font-family="Arial" font-size="14.00" fill="#333333">NGINX</text></g><!-- app:app --><g id="node3" class="node"><title>app:app</title><path fill="#ffffff" stroke="#4b75b9" stroke-width="3" d="M142,-52C142,-52 112,-52 112,-52 106,-52 100,-46 100,-40 100,-40 100,-28 100,-28 100,-22 106,-16 112,-16 112,-16 142,-16 142,-16 148,-16 154,-22 154,-28 154,-28 154,-40 154,-40 154,-46 148,-52 142,-52"></path><text text-anchor="middle" x="127" y="-29.8" font-family="Arial" font-size="14.00" fill="#333333">App</text></g><!-- db:postgresql --><g id="node4" class="node"><title>db:postgresql</title><path fill="#ffffff" stroke="#4b75b9" stroke-width="3" d="M336.2457,-52C336.2457,-52 267.7543,-52 267.7543,-52 261.7543,-52 255.7543,-46 255.7543,-40 255.7543,-40 255.7543,-28 255.7543,-28 255.7543,-22 261.7543,-16 267.7543,-16 267.7543,-16 336.2457,-16 336.2457,-16 342.2457,-16 348.2457,-22 348.2457,-28 348.2457,-28 348.2457,-40 348.2457,-40 348.2457,-46 342.2457,-52 336.2457,-52"></path><text text-anchor="middle" x="302" y="-29.8" font-family="Arial" font-size="14.00" fill="#333333">PostgreSQL</text></g></g></svg>