<?xml version="1.0" encoding="UTF-8" standalone="no"?><!-- Generated by graphviz version 2.40.1 (20161225.0304)
 --><!-- Title: ndiag Pages: 1 --><svg width="394pt" height="101pt" viewBox="0.00 0.00 394.00 100.80" xmlns="http://www.w3.org/2000/svg" xmlns:xlink="http://www.w3.org/1999/xlink"><g id="graph0" class="graph" transform="scale(1 1) rotate(0) translate(4 96.8)"><title>ndiag</title><polygon fill="#ffffff" stroke="transparent" points="-4,4 -4,-96.8 390,-96.8 390,4 -4,4"></polygon><g id="clust3" class="cluster"><title>cluster_db</title><polygon fill="none" stroke="#000000" stroke-width="2" points="270,-8 270,-84.8 378,-84.8 378,-8 270,-8"></polygon><text text-anchor="middle" x="324" y="-68.2" font-family="Arial" font-size="14.00" fill="#000000">db</text></g><g id="clust2" class="cluster"><title>cluster_app</title><polygon fill="none" stroke="#000000" stroke-width="2" points="92,-8 92,-84.8 262,-84.8 262,-8 92,-8"></polygon><text text-anchor="middle" x="177" y="-68.2" font-family="Arial" font-size="14.00" fill="#000000">app</text></g><g id="clust1" class="cluster"><title>cluster_lb</title><polygon fill="none" stroke="#000000" stroke-width="2" points="8,-8 8,-84.8 84,-84.8 84,-8 8,-8"></polygon><text text-anchor="middle" x="46" y="-68.2" font-family="Arial" font-size="14.00" fill="#000000">lb</text></g><!-- lb:nginx --><g id="node1" class="node"><title>lb:nginx</title><path fill="#ffffff" stroke="#4b75b9" stroke-width="3" d="M64.3319,-52C64.3319,-52 27.6681,-52 27.6681,-52 21.6681,-52 15.6681,-46 15.6681,-40 15.6681,-40 15.6681,-28 15.6681,-28 15.6681,-22 21.6681,-16 27.6681,-16 27.6681,-16 64.3319,-16 64.3319,-16 70.3319,-16 76.3319,-22 76.3319,-28 76.3319,-28 76.3319,-40 76.3319,-40 76.3319,-46 70.3319,-52 64.3319,-52"></path><text text-anchor="middle" x="46" y="-29.8" font-family="Arial" font-size="14.00" fill="#333333">NGINX</text></g><!-- app:nginx --><g id="node2" class="node"><title>app:nginx</title><path fill="#ffffff" stroke="#4b75b9" stroke-width="3" d="M242.3319,-52C242.3319,-52 205.6681,-52 205.6681,-52 199.6681,-52 193.6681,-46 193.6681,-40 193.6681,-40 193.6681,-28 193.6681,-28 193.6681,-22 199.6681,-16 205.6681,-16 205.6681,-16 242.3319,-16 242.3319,-16 248.3319,-16 254.3319,-22 254.3319,-28 254.3319,-28 254.3319,-40 254.3319,-40 254.3319,-46 248.3319,-52 242.3319,-52"></path><text text-anchor="middle" x="224" y="-29.8" font-family="Arial" font-size="14.00" fill="#333333">NGINX</text></g><!-- app:rails app --><g id="node3" class="node"><title>app:rails app</title><path fill="#ffffff" stroke="#4b75b9" stroke-width="3" d="M163.8949,-52C163.8949,-52 112.1051,-52 112.1051,-52 106.1051,-52 100.1051,-46 100.1051,-40 100.1051,-40 100.1051,-28 100.1051,-28 100.1051,-22 106.1051,-16 112.1051,-16 112.1051,-16 163.8949,-16 163.8949,-16 169.8949,-16 175.8949,-22 175.8949,-28 175.8949,-28 175.8949,-40 175.8949,-40 175.8949,-46 169.8949,-52 163.8949,-52"></path><text text-anchor="middle" x="138" y="-29.8" font-family="Arial" font-size="14.00" fill="#333333">Rails App</text></g><!-- db:postgresql --><g id="node4" class="node"><title>db:postgresql</title><path fill="#ffffff" stroke="#4b75b9" stroke-width="3" d="M358.2457,-52C358.2457,-52 289.7543,-52 289.7543,-52 283.7543,-52 277.7543,-46 277.7543,-40 277.7543,-40 277.7543,-28 277.7543,-28 277.7543,-22 283.7543,-16 289.7543,-16 289.7543,-16 358.2457,-16 358.2457,-16 364.2457,-16 370.2457,-22 370.2457,-28 370.2457,-28 370.2457,-40 370.2457,-40 370.2457,-46 364.2457,-52 358.2457,-52"></path><text text-anchor="middle" x="324" y="-29.8" font-family="Arial" font-size="14.00" fill="#333333">PostgreSQL</text></g></g></svg>