<?xml version="1.0" encoding="UTF-8" standalone="no"?>
<!DOCTYPE svg PUBLIC "-//W3C//DTD SVG 1.1//EN"
 "http://www.w3.org/Graphics/SVG/1.1/DTD/svg11.dtd">
<!-- Generated by graphviz version 12.1.2 (20240928.0832)
 -->
<!-- Title: ndiag Pages: 1 -->
<svg width="216pt" height="334pt" viewBox="0.00 0.00 216.00 334.40" xmlns="http://www.w3.org/2000/svg" xmlns:xlink="http://www.w3.org/1999/xlink">
<g id="graph0" class="graph" transform="scale(1 1) rotate(0) translate(4 330.4)">
<title>ndiag</title>
<polygon fill="white" stroke="none" points="-4,4 -4,-330.4 212,-330.4 212,4 -4,4"></polygon>
<g id="clust1" class="cluster">
<title>cluster_consul:dc1</title>
<path fill="#ffffff" stroke="#1f91be" stroke-width="2" d="M20,-8C20,-8 188,-8 188,-8 194,-8 200,-14 200,-20 200,-20 200,-270.4 200,-270.4 200,-276.4 194,-282.4 188,-282.4 188,-282.4 20,-282.4 20,-282.4 14,-282.4 8,-276.4 8,-270.4 8,-270.4 8,-20 8,-20 8,-14 14,-8 20,-8"></path>
<text text-anchor="middle" x="104" y="-265.8" font-family="Arial" font-size="14.00" fill="#333333">Consul:dc1</text>
</g>
<g id="clust2" class="cluster">
<title>cluster_app</title>
<polygon fill="#ffffff" stroke="#333333" stroke-width="2" points="16,-100.8 16,-249.6 92,-249.6 92,-100.8 16,-100.8"></polygon>
<text text-anchor="middle" x="54" y="-233" font-family="Arial" font-size="14.00" fill="#333333">app (3)</text>
</g>
<g id="clust3" class="cluster">
<title>cluster_db</title>
<polygon fill="#ffffff" stroke="#333333" stroke-width="2" points="16,-16 16,-92.8 124,-92.8 124,-16 16,-16"></polygon>
<text text-anchor="middle" x="70" y="-76.2" font-family="Arial" font-size="14.00" fill="#333333">db (2)</text>
</g>
<g id="clust4" class="cluster">
<title>cluster_vip_group:lb</title>
<path fill="#ffffff" stroke="#b2cf3e" stroke-width="2" d="M112,-172.8C112,-172.8 180,-172.8 180,-172.8 186,-172.8 192,-178.8 192,-184.8 192,-184.8 192,-237.6 192,-237.6 192,-243.6 186,-249.6 180,-249.6 180,-249.6 112,-249.6 112,-249.6 106,-249.6 100,-243.6 100,-237.6 100,-237.6 100,-184.8 100,-184.8 100,-178.8 106,-172.8 112,-172.8"></path>
<text text-anchor="middle" x="146" y="-233" font-family="Arial" font-size="14.00" fill="#333333">vip_group:lb</text>
</g>
<!-- app:nginx -->
<g id="node1" class="node">
<title>app:nginx</title>
<path fill="#ffffff" stroke="#4b75b9" stroke-width="3" d="M72.17,-216.8C72.17,-216.8 35.83,-216.8 35.83,-216.8 29.83,-216.8 23.83,-210.8 23.83,-204.8 23.83,-204.8 23.83,-192.8 23.83,-192.8 23.83,-186.8 29.83,-180.8 35.83,-180.8 35.83,-180.8 72.17,-180.8 72.17,-180.8 78.17,-180.8 84.17,-186.8 84.17,-192.8 84.17,-192.8 84.17,-204.8 84.17,-204.8 84.17,-210.8 78.17,-216.8 72.17,-216.8"></path>
<text text-anchor="middle" x="54" y="-194.6" font-family="Arial" font-size="14.00" fill="#333333">NGINX</text>
</g>
<!-- app:app -->
<g id="node2" class="node">
<title>app:app</title>
<path fill="#ffffff" stroke="#4b75b9" stroke-width="3" d="M70,-144.8C70,-144.8 40,-144.8 40,-144.8 34,-144.8 28,-138.8 28,-132.8 28,-132.8 28,-120.8 28,-120.8 28,-114.8 34,-108.8 40,-108.8 40,-108.8 70,-108.8 70,-108.8 76,-108.8 82,-114.8 82,-120.8 82,-120.8 82,-132.8 82,-132.8 82,-138.8 76,-144.8 70,-144.8"></path>
<text text-anchor="middle" x="55" y="-122.6" font-family="Arial" font-size="14.00" fill="#333333">App</text>
</g>
<!-- app:nginx&#45;&gt;app:app -->
<g id="edge-1" class="edge">
<title>app:nginx-&gt;app:app</title>
<path fill="none" stroke="#333333" stroke-width="2" stroke-opacity="0.600000" d="M55,-180.63C55,-180.63 55,-156.73 55,-156.73"></path>
<polygon fill="#333333" fill-opacity="0.600000" stroke="#333333" stroke-width="2" stroke-opacity="0.600000" points="58.5,-158.24 55,-148.24 51.5,-158.24 58.5,-158.24"></polygon>
</g>
<!-- db:postgresql -->
<g id="node3" class="node">
<title>db:postgresql</title>
<path fill="#ffffff" stroke="#4b75b9" stroke-width="3" d="M104.13,-60C104.13,-60 35.87,-60 35.87,-60 29.87,-60 23.87,-54 23.87,-48 23.87,-48 23.87,-36 23.87,-36 23.87,-30 29.87,-24 35.87,-24 35.87,-24 104.13,-24 104.13,-24 110.13,-24 116.13,-30 116.13,-36 116.13,-36 116.13,-48 116.13,-48 116.13,-54 110.13,-60 104.13,-60"></path>
<text text-anchor="middle" x="70" y="-37.8" font-family="Arial" font-size="14.00" fill="#333333">PostgreSQL</text>
</g>
<!-- app:app&#45;&gt;db:postgresql -->
<g id="edge-2" class="edge">
<title>app:app-&gt;db:postgresql</title>
<path fill="none" stroke="#333333" stroke-width="2" stroke-opacity="0.600000" d="M55,-108.4C55,-108.4 55,-71.88 55,-71.88"></path>
<polygon fill="#333333" fill-opacity="0.600000" stroke="#333333" stroke-width="2" stroke-opacity="0.600000" points="58.5,-73.39 55,-63.39 51.5,-73.39 58.5,-73.39"></polygon>
</g>
<!-- vip_group:lb:vip -->
<g id="node4" class="node">
<title>vip_group:lb:vip</title>
<path fill="#ffffff" stroke="#4b75b9" stroke-width="3" d="M161,-216.8C161,-216.8 131,-216.8 131,-216.8 125,-216.8 119,-210.8 119,-204.8 119,-204.8 119,-192.8 119,-192.8 119,-186.8 125,-180.8 131,-180.8 131,-180.8 161,-180.8 161,-180.8 167,-180.8 173,-186.8 173,-192.8 173,-192.8 173,-204.8 173,-204.8 173,-210.8 167,-216.8 161,-216.8"></path>
<text text-anchor="middle" x="146" y="-194.6" font-family="Arial" font-size="14.00" fill="#333333">vip</text>
</g>
<!-- lb:nginx -->
<g id="node5" class="node">
<title>lb:nginx</title>
<ellipse fill="none" stroke="black" cx="54" cy="-308.4" rx="43.23" ry="18"></ellipse>
<text text-anchor="middle" x="54" y="-304.2" font-family="Times,serif" font-size="14.00">lb:nginx</text>
</g>
<!-- lb:nginx&#45;&gt;app:nginx -->
<g id="edge-0" class="edge">
<title>lb:nginx-&gt;app:nginx</title>
<path fill="none" stroke="#333333" stroke-width="2" stroke-opacity="0.600000" d="M54,-290.3C54,-290.3 54,-228.8 54,-228.8"></path>
<polygon fill="#333333" fill-opacity="0.600000" stroke="#333333" stroke-width="2" stroke-opacity="0.600000" points="57.5,-230.32 54,-220.32 50.5,-230.32 57.5,-230.32"></polygon>
</g>
</g>
</svg>
