<?xml version="1.0" encoding="UTF-8" standalone="no"?>
<!DOCTYPE svg PUBLIC "-//W3C//DTD SVG 1.1//EN"
 "http://www.w3.org/Graphics/SVG/1.1/DTD/svg11.dtd">
<!-- Generated by graphviz version 12.1.2 (20240928.0832)
 -->
<!-- Title: ndiag Pages: 1 -->
<svg width="135pt" height="306pt" viewBox="0.00 0.00 135.06 306.40" xmlns="http://www.w3.org/2000/svg" xmlns:xlink="http://www.w3.org/1999/xlink">
<g id="graph0" class="graph" transform="scale(1 1) rotate(0) translate(4 302.4)">
<title>ndiag</title>
<polygon fill="white" stroke="none" points="-4,4 -4,-302.4 131.06,-302.4 131.06,4 -4,4"></polygon>
<g id="clust1" class="cluster">
<title>cluster_vip_group:lb</title>
<path fill="#ffffff" stroke="#b2cf3e" stroke-width="2" d="M39.06,-177.6C39.06,-177.6 107.06,-177.6 107.06,-177.6 113.06,-177.6 119.06,-183.6 119.06,-189.6 119.06,-189.6 119.06,-242.4 119.06,-242.4 119.06,-248.4 113.06,-254.4 107.06,-254.4 107.06,-254.4 39.06,-254.4 39.06,-254.4 33.06,-254.4 27.06,-248.4 27.06,-242.4 27.06,-242.4 27.06,-189.6 27.06,-189.6 27.06,-183.6 33.06,-177.6 39.06,-177.6"></path>
<text text-anchor="middle" x="73.06" y="-237.8" font-family="Arial" font-size="14.00" fill="#333333">vip_group:lb</text>
</g>
<g id="clust2" class="cluster">
<title>cluster_lb</title>
<polygon fill="none" stroke="black" stroke-width="2" points="25.06,-92.8 25.06,-169.6 101.06,-169.6 101.06,-92.8 25.06,-92.8"></polygon>
<text text-anchor="middle" x="63.06" y="-153" font-family="Arial" font-size="14.00">lb (2)</text>
</g>
<g id="clust3" class="cluster">
<title>cluster_app</title>
<polygon fill="none" stroke="#999999" stroke-width="2" points="25.06,-8 25.06,-84.8 101.06,-84.8 101.06,-8 25.06,-8"></polygon>
<text text-anchor="middle" x="63.06" y="-68.2" font-family="Arial" font-size="14.00" fill="#666666">app (3)</text>
</g>
<!-- vip_group:lb:vip -->
<g id="node1" class="node">
<title>vip_group:lb:vip</title>
<path fill="#ffffff" stroke="#4b75b9" stroke-width="3" d="M78.06,-221.6C78.06,-221.6 48.06,-221.6 48.06,-221.6 42.06,-221.6 36.06,-215.6 36.06,-209.6 36.06,-209.6 36.06,-197.6 36.06,-197.6 36.06,-191.6 42.06,-185.6 48.06,-185.6 48.06,-185.6 78.06,-185.6 78.06,-185.6 84.06,-185.6 90.06,-191.6 90.06,-197.6 90.06,-197.6 90.06,-209.6 90.06,-209.6 90.06,-215.6 84.06,-221.6 78.06,-221.6"></path>
<text text-anchor="middle" x="63.06" y="-199.4" font-family="Arial" font-size="14.00" fill="#333333">vip</text>
</g>
<!-- lb:nginx -->
<g id="node2" class="node">
<title>lb:nginx</title>
<path fill="#ffffff" stroke="#4b75b9" stroke-width="3" d="M81.22,-136.8C81.22,-136.8 44.89,-136.8 44.89,-136.8 38.89,-136.8 32.89,-130.8 32.89,-124.8 32.89,-124.8 32.89,-112.8 32.89,-112.8 32.89,-106.8 38.89,-100.8 44.89,-100.8 44.89,-100.8 81.22,-100.8 81.22,-100.8 87.22,-100.8 93.22,-106.8 93.22,-112.8 93.22,-112.8 93.22,-124.8 93.22,-124.8 93.22,-130.8 87.22,-136.8 81.22,-136.8"></path>
<text text-anchor="middle" x="63.06" y="-114.6" font-family="Arial" font-size="14.00" fill="#333333">NGINX</text>
</g>
<!-- vip_group:lb:vip&#45;&gt;lb:nginx -->
<g id="edge1" class="edge">
<title>vip_group:lb:vip-&gt;lb:nginx</title>
<path fill="none" stroke="#333333" stroke-width="2" stroke-opacity="0.600000" d="M63.06,-185.2C63.06,-185.2 63.06,-148.68 63.06,-148.68"></path>
<polygon fill="#333333" fill-opacity="0.600000" stroke="#333333" stroke-width="2" stroke-opacity="0.600000" points="66.56,-150.19 63.06,-140.19 59.56,-150.19 66.56,-150.19"></polygon>
</g>
<!-- app:nginx -->
<g id="node3" class="node">
<title>app:nginx</title>
<path fill="#ffffff" stroke="#4b75b9" stroke-width="3" d="M81.22,-52C81.22,-52 44.89,-52 44.89,-52 38.89,-52 32.89,-46 32.89,-40 32.89,-40 32.89,-28 32.89,-28 32.89,-22 38.89,-16 44.89,-16 44.89,-16 81.22,-16 81.22,-16 87.22,-16 93.22,-22 93.22,-28 93.22,-28 93.22,-40 93.22,-40 93.22,-46 87.22,-52 81.22,-52"></path>
<text text-anchor="middle" x="63.06" y="-29.8" font-family="Arial" font-size="14.00" fill="#333333">NGINX</text>
</g>
<!-- lb:nginx&#45;&gt;app:nginx -->
<g id="edge2" class="edge">
<title>lb:nginx-&gt;app:nginx</title>
<path fill="none" stroke="#333333" stroke-width="2" stroke-opacity="0.600000" d="M63.06,-100.4C63.06,-100.4 63.06,-63.88 63.06,-63.88"></path>
<polygon fill="#333333" fill-opacity="0.600000" stroke="#333333" stroke-width="2" stroke-opacity="0.600000" points="66.56,-65.39 63.06,-55.39 59.56,-65.39 66.56,-65.39"></polygon>
</g>
<!-- lb:keepalived -->
<g id="node4" class="node">
<title>lb:keepalived</title>
<ellipse fill="none" stroke="black" cx="63.06" cy="-280.4" rx="63.06" ry="18"></ellipse>
<text text-anchor="middle" x="63.06" y="-276.2" font-family="Times,serif" font-size="14.00">lb:keepalived</text>
</g>
<!-- lb:keepalived&#45;&gt;vip_group:lb:vip -->
<g id="edge3" class="edge">
<title>lb:keepalived-&gt;vip_group:lb:vip</title>
<path fill="none" stroke="#4b75b9" stroke-width="2" stroke-dasharray="5,2" d="M63.06,-262.2C63.06,-262.2 63.06,-230.94 63.06,-230.94"></path>
<ellipse fill="#4b75b9" stroke="#4b75b9" stroke-width="2" cx="63.06" cy="-226.94" rx="4" ry="4"></ellipse>
</g>
</g>
</svg>
