<?xml version="1.0" encoding="UTF-8" standalone="no"?><!-- Generated by graphviz version 12.1.2 (20240928.0832)
 --><!-- Title: ndiag Pages: 1 --><svg width="132pt" height="186pt" viewBox="0.00 0.00 132.00 185.60" xmlns="http://www.w3.org/2000/svg" xmlns:xlink="http://www.w3.org/1999/xlink"><g id="graph0" class="graph" transform="scale(1 1) rotate(0) translate(4 181.6)"><title>ndiag</title><polygon fill="white" stroke="none" points="-4,4 -4,-181.6 128,-181.6 128,4 -4,4"></polygon><g id="clust1" class="cluster"><title>cluster_db</title><polygon fill="none" stroke="black" stroke-width="2" points="8,-8 8,-84.8 116,-84.8 116,-8 8,-8"></polygon><text text-anchor="middle" x="62" y="-68.2" font-family="Arial" font-size="14.00">db (2)</text></g><g id="clust2" class="cluster"><title>cluster_app</title><polygon fill="none" stroke="#999999" stroke-width="2" points="27,-92.8 27,-169.6 97,-169.6 97,-92.8 27,-92.8"></polygon><text text-anchor="middle" x="62" y="-153" font-family="Arial" font-size="14.00" fill="#666666">app (3)</text></g><!-- db:postgresql --><g id="node1" class="node"><title>db:postgresql</title><path fill="#ffffff" stroke="#4b75b9" stroke-width="3" d="M96.13,-52C96.13,-52 27.87,-52 27.87,-52 21.87,-52 15.87,-46 15.87,-40 15.87,-40 15.87,-28 15.87,-28 15.87,-22 21.87,-16 27.87,-16 27.87,-16 96.13,-16 96.13,-16 102.13,-16 108.13,-22 108.13,-28 108.13,-28 108.13,-40 108.13,-40 108.13,-46 102.13,-52 96.13,-52"></path><text text-anchor="middle" x="62" y="-29.8" font-family="Arial" font-size="14.00" fill="#333333">PostgreSQL</text></g><!-- app:app --><g id="node2" class="node"><title>app:app</title><path fill="#ffffff" stroke="#4b75b9" stroke-width="3" d="M77,-136.8C77,-136.8 47,-136.8 47,-136.8 41,-136.8 35,-130.8 35,-124.8 35,-124.8 35,-112.8 35,-112.8 35,-106.8 41,-100.8 47,-100.8 47,-100.8 77,-100.8 77,-100.8 83,-100.8 89,-106.8 89,-112.8 89,-112.8 89,-124.8 89,-124.8 89,-130.8 83,-136.8 77,-136.8"></path><text text-anchor="middle" x="62" y="-114.6" font-family="Arial" font-size="14.00" fill="#333333">App</text></g><!-- app:app&#45;&gt;db:postgresql --><g id="edge1" class="edge"><title>app:app-&gt;db:postgresql</title><path fill="none" stroke="#333333" stroke-width="2" stroke-opacity="0.600000" d="M62,-100.4C62,-100.4 62,-63.88 62,-63.88"></path><polygon fill="#333333" fill-opacity="0.600000" stroke="#333333" stroke-width="2" stroke-opacity="0.600000" points="65.5,-65.39 62,-55.39 58.5,-65.39 65.5,-65.39"></polygon></g></g></svg>