<?xml version="1.0" encoding="UTF-8" standalone="no"?><!-- Generated by graphviz version 12.1.2 (20240928.0832)
 --><!-- Title: ndiag Pages: 1 --><svg width="449pt" height="416pt" viewBox="0.00 0.00 449.00 416.00" xmlns="http://www.w3.org/2000/svg" xmlns:xlink="http://www.w3.org/1999/xlink"><g id="graph0" class="graph" transform="scale(1 1) rotate(0) translate(4 412)"><title>ndiag</title><polygon fill="white" stroke="none" points="-4,4 -4,-412 445,-412 445,4 -4,4"></polygon><g id="clust1" class="cluster"><title>cluster_consul:dc1</title><path fill="#ffffff" stroke="#1f91be" stroke-width="2" d="M20,-8C20,-8 292,-8 292,-8 298,-8 304,-14 304,-20 304,-20 304,-388 304,-388 304,-394 298,-400 292,-400 292,-400 20,-400 20,-400 14,-400 8,-394 8,-388 8,-388 8,-20 8,-20 8,-14 14,-8 20,-8"></path><text text-anchor="middle" x="156" y="-383.4" font-family="Arial" font-size="14.00" fill="#333333">Consul:dc1</text></g><g id="clust2" class="cluster"><title>cluster_app</title><polygon fill="#ffffff" stroke="#333333" stroke-width="2" points="16,-100.8 16,-249.6 92,-249.6 92,-100.8 16,-100.8"></polygon><text text-anchor="middle" x="54" y="-233" font-family="Arial" font-size="14.00" fill="#333333">app (3)</text></g><g id="clust3" class="cluster"><title>cluster_db</title><polygon fill="#ffffff" stroke="#333333" stroke-width="2" points="16,-16 16,-92.8 124,-92.8 124,-16 16,-16"></polygon><text text-anchor="middle" x="70" y="-76.2" font-family="Arial" font-size="14.00" fill="#333333">db (2)</text></g><g id="clust4" class="cluster"><title>cluster_vip_group:lb</title><path fill="#ffffff" stroke="#b2cf3e" stroke-width="2" d="M112,-172.8C112,-172.8 284,-172.8 284,-172.8 290,-172.8 296,-178.8 296,-184.8 296,-184.8 296,-355.2 296,-355.2 296,-361.2 290,-367.2 284,-367.2 284,-367.2 112,-367.2 112,-367.2 106,-367.2 100,-361.2 100,-355.2 100,-355.2 100,-184.8 100,-184.8 100,-178.8 106,-172.8 112,-172.8"></path><text text-anchor="middle" x="198" y="-350.6" font-family="Arial" font-size="14.00" fill="#333333">vip_group:lb</text></g><g id="clust5" class="cluster"><title>cluster_lb</title><polygon fill="#ffffff" stroke="#333333" stroke-width="2" points="108,-257.6 108,-334.4 288,-334.4 288,-257.6 108,-257.6"></polygon><text text-anchor="middle" x="198" y="-317.8" font-family="Arial" font-size="14.00" fill="#333333">lb (2)</text></g><g id="clust6" class="cluster"><title>cluster_service:payment</title><path fill="#ffffff" stroke="#f0ba32" stroke-width="2" d="M324,-16C324,-16 421,-16 421,-16 427,-16 433,-22 433,-28 433,-28 433,-80.8 433,-80.8 433,-86.8 427,-92.8 421,-92.8 421,-92.8 324,-92.8 324,-92.8 318,-92.8 312,-86.8 312,-80.8 312,-80.8 312,-28 312,-28 312,-22 318,-16 324,-16"></path><text text-anchor="middle" x="372.5" y="-76.2" font-family="Arial" font-size="14.00" fill="#333333">Service:Payment</text></g><!-- app:nginx --><g id="node1" class="node"><title>app:nginx</title><path fill="#ffffff" stroke="#4b75b9" stroke-width="3" d="M72.17,-216.8C72.17,-216.8 35.83,-216.8 35.83,-216.8 29.83,-216.8 23.83,-210.8 23.83,-204.8 23.83,-204.8 23.83,-192.8 23.83,-192.8 23.83,-186.8 29.83,-180.8 35.83,-180.8 35.83,-180.8 72.17,-180.8 72.17,-180.8 78.17,-180.8 84.17,-186.8 84.17,-192.8 84.17,-192.8 84.17,-204.8 84.17,-204.8 84.17,-210.8 78.17,-216.8 72.17,-216.8"></path><text text-anchor="middle" x="54" y="-194.6" font-family="Arial" font-size="14.00" fill="#333333">NGINX</text></g><!-- app:app --><g id="node2" class="node"><title>app:app</title><path fill="#ffffff" stroke="#4b75b9" stroke-width="3" d="M72,-144.8C72,-144.8 42,-144.8 42,-144.8 36,-144.8 30,-138.8 30,-132.8 30,-132.8 30,-120.8 30,-120.8 30,-114.8 36,-108.8 42,-108.8 42,-108.8 72,-108.8 72,-108.8 78,-108.8 84,-114.8 84,-120.8 84,-120.8 84,-132.8 84,-132.8 84,-138.8 78,-144.8 72,-144.8"></path><text text-anchor="middle" x="57" y="-122.6" font-family="Arial" font-size="14.00" fill="#333333">App</text></g><!-- app:nginx&#45;&gt;app:app --><g id="edge-3" class="edge"><title>app:nginx-&gt;app:app</title><path fill="none" stroke="#333333" stroke-width="2" stroke-opacity="0.600000" d="M57,-180.63C57,-180.63 57,-156.73 57,-156.73"></path><polygon fill="#333333" fill-opacity="0.600000" stroke="#333333" stroke-width="2" stroke-opacity="0.600000" points="60.5,-158.24 57,-148.24 53.5,-158.24 60.5,-158.24"></polygon></g><!-- db:postgresql --><g id="node3" class="node"><title>db:postgresql</title><path fill="#ffffff" stroke="#4b75b9" stroke-width="3" d="M104.13,-60C104.13,-60 35.87,-60 35.87,-60 29.87,-60 23.87,-54 23.87,-48 23.87,-48 23.87,-36 23.87,-36 23.87,-30 29.87,-24 35.87,-24 35.87,-24 104.13,-24 104.13,-24 110.13,-24 116.13,-30 116.13,-36 116.13,-36 116.13,-48 116.13,-48 116.13,-54 110.13,-60 104.13,-60"></path><text text-anchor="middle" x="70" y="-37.8" font-family="Arial" font-size="14.00" fill="#333333">PostgreSQL</text></g><!-- app:app&#45;&gt;db:postgresql --><g id="edge-4" class="edge"><title>app:app-&gt;db:postgresql</title><path fill="none" stroke="#333333" stroke-width="2" stroke-opacity="0.600000" d="M57,-108.4C57,-108.4 57,-71.88 57,-71.88"></path><polygon fill="#333333" fill-opacity="0.600000" stroke="#333333" stroke-width="2" stroke-opacity="0.600000" points="60.5,-73.39 57,-63.39 53.5,-73.39 60.5,-73.39"></polygon></g><!-- service:payment:payment api --><g id="node7" class="node"><title>service:payment:payment api</title><path fill="#ffffff" stroke="#4b75b9" stroke-width="3" d="M405.85,-60C405.85,-60 332.15,-60 332.15,-60 326.15,-60 320.15,-54 320.15,-48 320.15,-48 320.15,-36 320.15,-36 320.15,-30 326.15,-24 332.15,-24 332.15,-24 405.85,-24 405.85,-24 411.85,-24 417.85,-30 417.85,-36 417.85,-36 417.85,-48 417.85,-48 417.85,-54 411.85,-60 405.85,-60"></path><text text-anchor="middle" x="369" y="-37.8" font-family="Arial" font-size="14.00" fill="#333333">Payment API</text></g><!-- app:app&#45;&gt;service:payment:payment api --><g id="edge-5" class="edge"><title>app:app-&gt;service:payment:payment api</title><path fill="none" stroke="#333333" stroke-width="2" stroke-opacity="0.600000" d="M84.31,-126.8C156.56,-126.8 347.25,-126.8 347.25,-126.8 347.25,-126.8 347.25,-71.91 347.25,-71.91"></path><polygon fill="#333333" fill-opacity="0.600000" stroke="#333333" stroke-width="2" stroke-opacity="0.600000" points="350.75,-73.43 347.25,-63.43 343.75,-73.43 350.75,-73.43"></polygon></g><!-- lb:nginx --><g id="node4" class="node"><title>lb:nginx</title><path fill="#ffffff" stroke="#4b75b9" stroke-width="3" d="M164.17,-301.6C164.17,-301.6 127.83,-301.6 127.83,-301.6 121.83,-301.6 115.83,-295.6 115.83,-289.6 115.83,-289.6 115.83,-277.6 115.83,-277.6 115.83,-271.6 121.83,-265.6 127.83,-265.6 127.83,-265.6 164.17,-265.6 164.17,-265.6 170.17,-265.6 176.17,-271.6 176.17,-277.6 176.17,-277.6 176.17,-289.6 176.17,-289.6 176.17,-295.6 170.17,-301.6 164.17,-301.6"></path><text text-anchor="middle" x="146" y="-279.4" font-family="Arial" font-size="14.00" fill="#333333">NGINX</text></g><!-- lb:nginx&#45;&gt;app:nginx --><g id="edge-2" class="edge"><title>lb:nginx-&gt;app:nginx</title><path fill="none" stroke="#333333" stroke-width="2" stroke-opacity="0.600000" d="M115.37,-283.6C88.6,-283.6 54,-283.6 54,-283.6 54,-283.6 54,-228.71 54,-228.71"></path><polygon fill="#333333" fill-opacity="0.600000" stroke="#333333" stroke-width="2" stroke-opacity="0.600000" points="57.5,-230.23 54,-220.23 50.5,-230.23 57.5,-230.23"></polygon></g><!-- lb:keepalived --><g id="node5" class="node"><title>lb:keepalived</title><path fill="#ffffff" stroke="#4b75b9" stroke-width="3" d="M267.64,-301.6C267.64,-301.6 206.36,-301.6 206.36,-301.6 200.36,-301.6 194.36,-295.6 194.36,-289.6 194.36,-289.6 194.36,-277.6 194.36,-277.6 194.36,-271.6 200.36,-265.6 206.36,-265.6 206.36,-265.6 267.64,-265.6 267.64,-265.6 273.64,-265.6 279.64,-271.6 279.64,-277.6 279.64,-277.6 279.64,-289.6 279.64,-289.6 279.64,-295.6 273.64,-301.6 267.64,-301.6"></path><text text-anchor="middle" x="237" y="-279.4" font-family="Arial" font-size="14.00" fill="#333333">Keepalived</text></g><!-- vip_group:lb:vip --><g id="node6" class="node"><title>vip_group:lb:vip</title><path fill="#ffffff" stroke="#4b75b9" stroke-width="3" d="M252,-216.8C252,-216.8 222,-216.8 222,-216.8 216,-216.8 210,-210.8 210,-204.8 210,-204.8 210,-192.8 210,-192.8 210,-186.8 216,-180.8 222,-180.8 222,-180.8 252,-180.8 252,-180.8 258,-180.8 264,-186.8 264,-192.8 264,-192.8 264,-204.8 264,-204.8 264,-210.8 258,-216.8 252,-216.8"></path><text text-anchor="middle" x="237" y="-194.6" font-family="Arial" font-size="14.00" fill="#333333">vip</text></g><!-- lb:keepalived&#45;&gt;vip_group:lb:vip --><g id="edge-6" class="edge"><title>lb:keepalived-&gt;vip_group:lb:vip</title><path fill="none" stroke="#4b75b9" stroke-width="2" stroke-dasharray="5,2" d="M237,-265.2C237,-265.2 237,-226.16 237,-226.16"></path><ellipse fill="#4b75b9" stroke="#4b75b9" stroke-width="2" cx="237" cy="-222.16" rx="4" ry="4"></ellipse></g><!-- vip_group:lb:vip&#45;&gt;lb:nginx --><g id="edge-1" class="edge"><title>vip_group:lb:vip-&gt;lb:nginx</title><path fill="none" stroke="#333333" stroke-width="2" stroke-opacity="0.600000" d="M209.74,-198.8C182.98,-198.8 146.15,-198.8 146.15,-198.8 146.15,-198.8 146.15,-253.69 146.15,-253.69"></path><polygon fill="#333333" fill-opacity="0.600000" stroke="#333333" stroke-width="2" stroke-opacity="0.600000" points="142.65,-252.17 146.15,-262.17 149.65,-252.17 142.65,-252.17"></polygon></g><!-- internet --><g id="node8" class="node"><title>internet</title><path fill="none" stroke="black" stroke-width="2" d="M362.35,-301.6C362.35,-301.6 323.65,-301.6 323.65,-301.6 317.65,-301.6 311.65,-295.6 311.65,-289.6 311.65,-289.6 311.65,-277.6 311.65,-277.6 311.65,-271.6 317.65,-265.6 323.65,-265.6 323.65,-265.6 362.35,-265.6 362.35,-265.6 368.35,-265.6 374.35,-271.6 374.35,-277.6 374.35,-277.6 374.35,-289.6 374.35,-289.6 374.35,-295.6 368.35,-301.6 362.35,-301.6"></path><text text-anchor="middle" x="343" y="-279.4" font-family="Arial" font-size="14.00">internet</text></g><!-- internet&#45;&gt;vip_group:lb:vip --><g id="edge-0" class="edge"><title>internet-&gt;vip_group:lb:vip</title><path fill="none" stroke="#333333" stroke-width="2" stroke-opacity="0.600000" d="M315.9,-265.2C315.9,-240.26 315.9,-198.8 315.9,-198.8 315.9,-198.8 275.67,-198.8 275.67,-198.8"></path><polygon fill="#333333" fill-opacity="0.600000" stroke="#333333" stroke-width="2" stroke-opacity="0.600000" points="277.18,-195.3 267.18,-198.8 277.18,-202.3 277.18,-195.3"></polygon></g></g></svg>