<?xml version="1.0" encoding="UTF-8" standalone="no"?>
<!DOCTYPE svg PUBLIC "-//W3C//DTD SVG 1.1//EN"
 "http://www.w3.org/Graphics/SVG/1.1/DTD/svg11.dtd">
<!-- Generated by graphviz version 12.1.2 (20240928.0832)
 -->
<!-- Title: ndiag Pages: 1 -->
<svg width="366pt" height="290pt" viewBox="0.00 0.00 366.35 290.40" xmlns="http://www.w3.org/2000/svg" xmlns:xlink="http://www.w3.org/1999/xlink">
<g id="graph0" class="graph" transform="scale(1 1) rotate(0) translate(4 286.4)">
<title>ndiag</title>
<polygon fill="white" stroke="none" points="-4,4 -4,-286.4 362.35,-286.4 362.35,4 -4,4"></polygon>
<g id="clust1" class="cluster">
<title>cluster_vip_group:lb</title>
<path fill="#ffffff" stroke="#b2cf3e" stroke-width="2" d="M82.35,-80C82.35,-80 254.35,-80 254.35,-80 260.35,-80 266.35,-86 266.35,-92 266.35,-92 266.35,-262.4 266.35,-262.4 266.35,-268.4 260.35,-274.4 254.35,-274.4 254.35,-274.4 82.35,-274.4 82.35,-274.4 76.35,-274.4 70.35,-268.4 70.35,-262.4 70.35,-262.4 70.35,-92 70.35,-92 70.35,-86 76.35,-80 82.35,-80"></path>
<text text-anchor="middle" x="168.35" y="-257.8" font-family="Arial" font-size="14.00" fill="#333333">vip_group:lb</text>
</g>
<g id="clust2" class="cluster">
<title>cluster_lb</title>
<polygon fill="#ffffff" stroke="#333333" stroke-width="2" points="78.35,-164.8 78.35,-241.6 258.35,-241.6 258.35,-164.8 78.35,-164.8"></polygon>
<text text-anchor="middle" x="168.35" y="-225" font-family="Arial" font-size="14.00" fill="#333333">lb (2)</text>
</g>
<g id="clust3" class="cluster">
<title>cluster_app</title>
<polygon fill="none" stroke="black" stroke-width="2" points="274.35,-8 274.35,-156.8 350.35,-156.8 350.35,-8 274.35,-8"></polygon>
<text text-anchor="middle" x="312.35" y="-140.2" font-family="Arial" font-size="14.00">app (3)</text>
</g>
<!-- lb:nginx -->
<g id="node1" class="node">
<title>lb:nginx</title>
<path fill="#ffffff" stroke="#4b75b9" stroke-width="3" d="M238.52,-208.8C238.52,-208.8 202.18,-208.8 202.18,-208.8 196.18,-208.8 190.18,-202.8 190.18,-196.8 190.18,-196.8 190.18,-184.8 190.18,-184.8 190.18,-178.8 196.18,-172.8 202.18,-172.8 202.18,-172.8 238.52,-172.8 238.52,-172.8 244.52,-172.8 250.52,-178.8 250.52,-184.8 250.52,-184.8 250.52,-196.8 250.52,-196.8 250.52,-202.8 244.52,-208.8 238.52,-208.8"></path>
<text text-anchor="middle" x="220.35" y="-186.6" font-family="Arial" font-size="14.00" fill="#333333">NGINX</text>
</g>
<!-- app:nginx -->
<g id="node4" class="node">
<title>app:nginx</title>
<path fill="#ffffff" stroke="#4b75b9" stroke-width="3" d="M330.52,-124C330.52,-124 294.18,-124 294.18,-124 288.18,-124 282.18,-118 282.18,-112 282.18,-112 282.18,-100 282.18,-100 282.18,-94 288.18,-88 294.18,-88 294.18,-88 330.52,-88 330.52,-88 336.52,-88 342.52,-94 342.52,-100 342.52,-100 342.52,-112 342.52,-112 342.52,-118 336.52,-124 330.52,-124"></path>
<text text-anchor="middle" x="312.35" y="-101.8" font-family="Arial" font-size="14.00" fill="#333333">NGINX</text>
</g>
<!-- lb:nginx&#45;&gt;app:nginx -->
<g id="edge-2" class="edge">
<title>lb:nginx-&gt;app:nginx</title>
<path fill="none" stroke="#333333" stroke-width="2" stroke-opacity="0.600000" d="M230.4,-172.52C230.4,-149.25 230.4,-112 230.4,-112 230.4,-112 270.32,-112 270.32,-112"></path>
<polygon fill="#333333" fill-opacity="0.600000" stroke="#333333" stroke-width="2" stroke-opacity="0.600000" points="268.81,-115.5 278.81,-112 268.81,-108.5 268.81,-115.5"></polygon>
</g>
<!-- lb:keepalived -->
<g id="node2" class="node">
<title>lb:keepalived</title>
<path fill="#ffffff" stroke="#4b75b9" stroke-width="3" d="M159.99,-208.8C159.99,-208.8 98.71,-208.8 98.71,-208.8 92.71,-208.8 86.71,-202.8 86.71,-196.8 86.71,-196.8 86.71,-184.8 86.71,-184.8 86.71,-178.8 92.71,-172.8 98.71,-172.8 98.71,-172.8 159.99,-172.8 159.99,-172.8 165.99,-172.8 171.99,-178.8 171.99,-184.8 171.99,-184.8 171.99,-196.8 171.99,-196.8 171.99,-202.8 165.99,-208.8 159.99,-208.8"></path>
<text text-anchor="middle" x="129.35" y="-186.6" font-family="Arial" font-size="14.00" fill="#333333">Keepalived</text>
</g>
<!-- vip_group:lb:vip -->
<g id="node3" class="node">
<title>vip_group:lb:vip</title>
<path fill="#ffffff" stroke="#4b75b9" stroke-width="3" d="M144.35,-124C144.35,-124 114.35,-124 114.35,-124 108.35,-124 102.35,-118 102.35,-112 102.35,-112 102.35,-100 102.35,-100 102.35,-94 108.35,-88 114.35,-88 114.35,-88 144.35,-88 144.35,-88 150.35,-88 156.35,-94 156.35,-100 156.35,-100 156.35,-112 156.35,-112 156.35,-118 150.35,-124 144.35,-124"></path>
<text text-anchor="middle" x="129.35" y="-101.8" font-family="Arial" font-size="14.00" fill="#333333">vip</text>
</g>
<!-- lb:keepalived&#45;&gt;vip_group:lb:vip -->
<g id="edge-4" class="edge">
<title>lb:keepalived-&gt;vip_group:lb:vip</title>
<path fill="none" stroke="#4b75b9" stroke-width="2" stroke-dasharray="5,2" d="M129.35,-172.4C129.35,-172.4 129.35,-133.36 129.35,-133.36"></path>
<ellipse fill="#4b75b9" stroke="#4b75b9" stroke-width="2" cx="129.35" cy="-129.36" rx="4" ry="4"></ellipse>
</g>
<!-- vip_group:lb:vip&#45;&gt;lb:nginx -->
<g id="edge-1" class="edge">
<title>vip_group:lb:vip-&gt;lb:nginx</title>
<path fill="none" stroke="#333333" stroke-width="2" stroke-opacity="0.600000" d="M156.75,-100C180.23,-100 210.29,-100 210.29,-100 210.29,-100 210.29,-160.91 210.29,-160.91"></path>
<polygon fill="#333333" fill-opacity="0.600000" stroke="#333333" stroke-width="2" stroke-opacity="0.600000" points="206.79,-159.4 210.29,-169.4 213.79,-159.4 206.79,-159.4"></polygon>
</g>
<!-- app:app -->
<g id="node5" class="node">
<title>app:app</title>
<path fill="#ffffff" stroke="#4b75b9" stroke-width="3" d="M327.35,-52C327.35,-52 297.35,-52 297.35,-52 291.35,-52 285.35,-46 285.35,-40 285.35,-40 285.35,-28 285.35,-28 285.35,-22 291.35,-16 297.35,-16 297.35,-16 327.35,-16 327.35,-16 333.35,-16 339.35,-22 339.35,-28 339.35,-28 339.35,-40 339.35,-40 339.35,-46 333.35,-52 327.35,-52"></path>
<text text-anchor="middle" x="312.35" y="-29.8" font-family="Arial" font-size="14.00" fill="#333333">App</text>
</g>
<!-- app:nginx&#45;&gt;app:app -->
<g id="edge-3" class="edge">
<title>app:nginx-&gt;app:app</title>
<path fill="none" stroke="#333333" stroke-width="2" stroke-opacity="0.600000" d="M312.35,-87.83C312.35,-87.83 312.35,-63.93 312.35,-63.93"></path>
<polygon fill="#333333" fill-opacity="0.600000" stroke="#333333" stroke-width="2" stroke-opacity="0.600000" points="315.85,-65.44 312.35,-55.44 308.85,-65.44 315.85,-65.44"></polygon>
</g>
<!-- internet -->
<g id="node6" class="node">
<title>internet</title>
<path fill="none" stroke="black" stroke-width="2" d="M50.7,-208.8C50.7,-208.8 12,-208.8 12,-208.8 6,-208.8 0,-202.8 0,-196.8 0,-196.8 0,-184.8 0,-184.8 0,-178.8 6,-172.8 12,-172.8 12,-172.8 50.7,-172.8 50.7,-172.8 56.7,-172.8 62.7,-178.8 62.7,-184.8 62.7,-184.8 62.7,-196.8 62.7,-196.8 62.7,-202.8 56.7,-208.8 50.7,-208.8"></path>
<text text-anchor="middle" x="31.35" y="-186.6" font-family="Arial" font-size="14.00">internet</text>
</g>
<!-- internet&#45;&gt;vip_group:lb:vip -->
<g id="edge-0" class="edge">
<title>internet-&gt;vip_group:lb:vip</title>
<path fill="none" stroke="#333333" stroke-width="2" stroke-opacity="0.600000" d="M31.35,-172.4C31.35,-147.46 31.35,-106 31.35,-106 31.35,-106 90.54,-106 90.54,-106"></path>
<polygon fill="#333333" fill-opacity="0.600000" stroke="#333333" stroke-width="2" stroke-opacity="0.600000" points="89.02,-109.5 99.02,-106 89.02,-102.5 89.02,-109.5"></polygon>
</g>
</g>
</svg>
