<?xml version="1.0" encoding="UTF-8" standalone="no"?>
<!DOCTYPE svg PUBLIC "-//W3C//DTD SVG 1.1//EN"
 "http://www.w3.org/Graphics/SVG/1.1/DTD/svg11.dtd">
<!-- Generated by graphviz version 2.40.1 (20161225.0304)
 -->
<!-- Title: ndiag Pages: 1 -->
<svg width="331pt" height="101pt"
 viewBox="0.00 0.00 330.87 101.00" xmlns="http://www.w3.org/2000/svg" xmlns:xlink="http://www.w3.org/1999/xlink">
<g id="graph0" class="graph" transform="scale(1 1) rotate(0) translate(4 97)">
<title>ndiag</title>
<polygon fill="#ffffff" stroke="transparent" points="-4,4 -4,-97 326.8744,-97 326.8744,4 -4,4"/>
<g id="clust2" class="cluster">
<title>cluster_ndiag</title>
<polygon fill="none" stroke="#999999" stroke-width="2" points="236.9796,-8 236.9796,-85 314.8744,-85 314.8744,-8 236.9796,-8"/>
<text text-anchor="middle" x="275.927" y="-68.4" font-family="Arial" font-size="14.00" fill="#666666">ndiag (1)</text>
</g>
<g id="clust1" class="cluster">
<title>cluster_relations</title>
<polygon fill="none" stroke="#000000" stroke-width="2" points="8,-8 8,-85 216.9796,-85 216.9796,-8 8,-8"/>
<text text-anchor="middle" x="112.4898" y="-68.4" font-family="Arial" font-size="14.00" fill="#000000">relations (1)</text>
</g>
<!-- relations:lb&#45;*:keepalived&#45;&gt;group:lb:vip -->
<g id="node1" class="node">
<title>relations:lb&#45;*:keepalived&#45;&gt;group:lb:vip</title>
<path fill="#4b75b9" stroke="#ffffff" stroke-width="2" d="M196.9694,-52C196.9694,-52 28.0102,-52 28.0102,-52 22.0102,-52 16.0102,-46 16.0102,-40 16.0102,-40 16.0102,-28 16.0102,-28 16.0102,-22 22.0102,-16 28.0102,-16 28.0102,-16 196.9694,-16 196.9694,-16 202.9694,-16 208.9694,-22 208.9694,-28 208.9694,-28 208.9694,-40 208.9694,-40 208.9694,-46 202.9694,-52 196.9694,-52"/>
<text text-anchor="middle" x="112.4898" y="-29.8" font-family="Arial" font-size="14.00" fill="#ffffff">lb&#45;*:keepalived&#45;&gt;group:lb:vip</text>
</g>
<!-- ndiag:internal -->
<g id="node2" class="node">
<title>ndiag:internal</title>
<path fill="#4b75b9" stroke="#ffffff" stroke-width="2" d="M294.8219,-52C294.8219,-52 257.0321,-52 257.0321,-52 251.0321,-52 245.0321,-46 245.0321,-40 245.0321,-40 245.0321,-28 245.0321,-28 245.0321,-22 251.0321,-16 257.0321,-16 257.0321,-16 294.8219,-16 294.8219,-16 300.8219,-16 306.8219,-22 306.8219,-28 306.8219,-28 306.8219,-40 306.8219,-40 306.8219,-46 300.8219,-52 294.8219,-52"/>
<text text-anchor="middle" x="275.927" y="-29.8" font-family="Arial" font-size="14.00" fill="#ffffff">internal</text>
</g>
<!-- relations:lb&#45;*:keepalived&#45;&gt;group:lb:vip&#45;&gt;ndiag:internal -->
<g id="edge1" class="edge">
<title>relations:lb&#45;*:keepalived&#45;&gt;group:lb:vip&#45;&gt;ndiag:internal</title>
<path fill="none" stroke="#333333" stroke-width="2" stroke-opacity="0.600000" d="M208.9793,-34C208.9793,-34 234.7001,-34 234.7001,-34"/>
<polygon fill="#333333" fill-opacity="0.600000" stroke="#333333" stroke-width="2" stroke-opacity="0.600000" points="234.7001,-37.5001 244.7001,-34 234.7,-30.5001 234.7001,-37.5001"/>
</g>
</g>
</svg>
