<?xml version="1.0" encoding="UTF-8" standalone="no"?>
<!DOCTYPE svg PUBLIC "-//W3C//DTD SVG 1.1//EN"
 "http://www.w3.org/Graphics/SVG/1.1/DTD/svg11.dtd">
<!-- Generated by graphviz version 2.40.1 (20161225.0304)
 -->
<!-- Title: ndiag Pages: 1 -->
<svg width="302pt" height="263pt"
 viewBox="0.00 0.00 302.48 263.00" xmlns="http://www.w3.org/2000/svg" xmlns:xlink="http://www.w3.org/1999/xlink">
<g id="graph0" class="graph" transform="scale(1 1) rotate(0) translate(4 259)">
<title>ndiag</title>
<polygon fill="#ffffff" stroke="transparent" points="-4,4 -4,-259 298.4768,-259 298.4768,4 -4,4"/>
<g id="clust2" class="cluster">
<title>cluster_ndiag</title>
<polygon fill="none" stroke="#999999" stroke-width="2" points="208.582,-89 208.582,-166 286.4768,-166 286.4768,-89 208.582,-89"/>
<text text-anchor="middle" x="247.5294" y="-149.4" font-family="Arial" font-size="14.00" fill="#666666">ndiag (1)</text>
</g>
<g id="clust1" class="cluster">
<title>cluster_descriptions</title>
<polygon fill="none" stroke="#000000" stroke-width="2" points="8,-8 8,-247 188.582,-247 188.582,-8 8,-8"/>
<text text-anchor="middle" x="98.291" y="-230.4" font-family="Arial" font-size="14.00" fill="#000000">descriptions (1)</text>
</g>
<!-- descriptions:component descriptions -->
<g id="node1" class="node">
<title>descriptions:component descriptions</title>
<path fill="#4b75b9" stroke="#ffffff" stroke-width="2" d="M168.1059,-214C168.1059,-214 28.4761,-214 28.4761,-214 22.4761,-214 16.4761,-208 16.4761,-202 16.4761,-202 16.4761,-190 16.4761,-190 16.4761,-184 22.4761,-178 28.4761,-178 28.4761,-178 168.1059,-178 168.1059,-178 174.1059,-178 180.1059,-184 180.1059,-190 180.1059,-190 180.1059,-202 180.1059,-202 180.1059,-208 174.1059,-214 168.1059,-214"/>
<text text-anchor="middle" x="98.291" y="-191.8" font-family="Arial" font-size="14.00" fill="#ffffff">component descriptions</text>
</g>
<!-- ndiag:internal -->
<g id="node5" class="node">
<title>ndiag:internal</title>
<path fill="#4b75b9" stroke="#ffffff" stroke-width="2" d="M266.4243,-133C266.4243,-133 228.6345,-133 228.6345,-133 222.6345,-133 216.6345,-127 216.6345,-121 216.6345,-121 216.6345,-109 216.6345,-109 216.6345,-103 222.6345,-97 228.6345,-97 228.6345,-97 266.4243,-97 266.4243,-97 272.4243,-97 278.4243,-103 278.4243,-109 278.4243,-109 278.4243,-121 278.4243,-121 278.4243,-127 272.4243,-133 266.4243,-133"/>
<text text-anchor="middle" x="247.5294" y="-110.8" font-family="Arial" font-size="14.00" fill="#ffffff">internal</text>
</g>
<!-- descriptions:component descriptions&#45;&gt;ndiag:internal -->
<g id="edge1" class="edge">
<title>descriptions:component descriptions&#45;&gt;ndiag:internal</title>
<path fill="none" stroke="#333333" stroke-width="2" stroke-opacity="0.600000" d="M176.4768,-177.9652C176.4768,-158.4238 176.4768,-130 176.4768,-130 176.4768,-130 206.5714,-130 206.5714,-130"/>
<polygon fill="#333333" fill-opacity="0.600000" stroke="#333333" stroke-width="2" stroke-opacity="0.600000" points="206.5714,-133.5001 216.5714,-130 206.5714,-126.5001 206.5714,-133.5001"/>
</g>
<!-- descriptions:diagram descriptions -->
<g id="node2" class="node">
<title>descriptions:diagram descriptions</title>
<path fill="#4b75b9" stroke="#ffffff" stroke-width="2" d="M158.9173,-160C158.9173,-160 37.6647,-160 37.6647,-160 31.6647,-160 25.6647,-154 25.6647,-148 25.6647,-148 25.6647,-136 25.6647,-136 25.6647,-130 31.6647,-124 37.6647,-124 37.6647,-124 158.9173,-124 158.9173,-124 164.9173,-124 170.9173,-130 170.9173,-136 170.9173,-136 170.9173,-148 170.9173,-148 170.9173,-154 164.9173,-160 158.9173,-160"/>
<text text-anchor="middle" x="98.291" y="-137.8" font-family="Arial" font-size="14.00" fill="#ffffff">diagram descriptions</text>
</g>
<!-- descriptions:diagram descriptions&#45;&gt;ndiag:internal -->
<g id="edge2" class="edge">
<title>descriptions:diagram descriptions&#45;&gt;ndiag:internal</title>
<path fill="none" stroke="#333333" stroke-width="2" stroke-opacity="0.600000" d="M171.1615,-127C171.1615,-127 206.4938,-127 206.4938,-127"/>
<polygon fill="#333333" fill-opacity="0.600000" stroke="#333333" stroke-width="2" stroke-opacity="0.600000" points="206.4939,-130.5001 216.4938,-127 206.4938,-123.5001 206.4939,-130.5001"/>
</g>
<!-- descriptions:layer group descriptions -->
<g id="node3" class="node">
<title>descriptions:layer group descriptions</title>
<path fill="#4b75b9" stroke="#ffffff" stroke-width="2" d="M168.3735,-106C168.3735,-106 28.2085,-106 28.2085,-106 22.2085,-106 16.2085,-100 16.2085,-94 16.2085,-94 16.2085,-82 16.2085,-82 16.2085,-76 22.2085,-70 28.2085,-70 28.2085,-70 168.3735,-70 168.3735,-70 174.3735,-70 180.3735,-76 180.3735,-82 180.3735,-82 180.3735,-94 180.3735,-94 180.3735,-100 174.3735,-106 168.3735,-106"/>
<text text-anchor="middle" x="98.291" y="-83.8" font-family="Arial" font-size="14.00" fill="#ffffff">layer group descriptions</text>
</g>
<!-- descriptions:layer group descriptions&#45;&gt;ndiag:internal -->
<g id="edge3" class="edge">
<title>descriptions:layer group descriptions&#45;&gt;ndiag:internal</title>
<path fill="none" stroke="#333333" stroke-width="2" stroke-opacity="0.600000" d="M180.7672,-101.5C180.7672,-101.5 206.3861,-101.5 206.3861,-101.5"/>
<polygon fill="#333333" fill-opacity="0.600000" stroke="#333333" stroke-width="2" stroke-opacity="0.600000" points="206.3861,-105.0001 216.3861,-101.5 206.3861,-98.0001 206.3861,-105.0001"/>
</g>
<!-- descriptions:tag group descriptions -->
<g id="node4" class="node">
<title>descriptions:tag group descriptions</title>
<path fill="#4b75b9" stroke="#ffffff" stroke-width="2" d="M162.9967,-52C162.9967,-52 33.5853,-52 33.5853,-52 27.5853,-52 21.5853,-46 21.5853,-40 21.5853,-40 21.5853,-28 21.5853,-28 21.5853,-22 27.5853,-16 33.5853,-16 33.5853,-16 162.9967,-16 162.9967,-16 168.9967,-16 174.9967,-22 174.9967,-28 174.9967,-28 174.9967,-40 174.9967,-40 174.9967,-46 168.9967,-52 162.9967,-52"/>
<text text-anchor="middle" x="98.291" y="-29.8" font-family="Arial" font-size="14.00" fill="#ffffff">tag group descriptions</text>
</g>
<!-- descriptions:tag group descriptions&#45;&gt;ndiag:internal -->
<g id="edge4" class="edge">
<title>descriptions:tag group descriptions&#45;&gt;ndiag:internal</title>
<path fill="none" stroke="#333333" stroke-width="2" stroke-opacity="0.600000" d="M175.1437,-34C212.0945,-34 248.4768,-34 248.4768,-34 248.4768,-34 248.4768,-86.6198 248.4768,-86.6198"/>
<polygon fill="#333333" fill-opacity="0.600000" stroke="#333333" stroke-width="2" stroke-opacity="0.600000" points="244.9769,-86.6198 248.4768,-96.6198 251.9769,-86.6199 244.9769,-86.6198"/>
</g>
</g>
</svg>
