<?xml version="1.0" encoding="UTF-8" standalone="no"?>
<!DOCTYPE svg PUBLIC "-//W3C//DTD SVG 1.1//EN"
 "http://www.w3.org/Graphics/SVG/1.1/DTD/svg11.dtd">
<!-- Generated by graphviz version 12.1.2 (20240928.0832)
 -->
<!-- Title: ndiag Pages: 1 -->
<svg width="505pt" height="112pt" viewBox="0.00 0.00 504.60 112.00" xmlns="http://www.w3.org/2000/svg" xmlns:xlink="http://www.w3.org/1999/xlink">
<g id="graph0" class="graph" transform="scale(1 1) rotate(0) translate(4 108)">
<title>ndiag</title>
<polygon fill="white" stroke="none" points="-4,4 -4,-108 500.6,-108 500.6,4 -4,4"></polygon>
<g id="clust1" class="cluster">
<title>cluster_input files</title>
<polygon fill="none" stroke="black" stroke-width="2" points="311.07,-19 311.07,-96 488.6,-96 488.6,-19 311.07,-19"></polygon>
<text text-anchor="middle" x="399.84" y="-79.4" font-family="Arial" font-size="14.00">input files</text>
</g>
<g id="clust2" class="cluster">
<title>cluster_ndiag</title>
<polygon fill="none" stroke="#999999" stroke-width="2" points="213.16,-19 213.16,-96 291.07,-96 291.07,-19 213.16,-19"></polygon>
<text text-anchor="middle" x="252.12" y="-79.4" font-family="Arial" font-size="14.00" fill="#666666">ndiag</text>
</g>
<!-- input files:ndiag.descriptions/*.md -->
<g id="node1" class="node">
<title>input files:ndiag.descriptions/*.md</title>
<path fill="#ffffff" stroke="#4b75b9" stroke-width="3" d="M468.6,-63C468.6,-63 331.07,-63 331.07,-63 325.07,-63 319.07,-57 319.07,-51 319.07,-51 319.07,-39 319.07,-39 319.07,-33 325.07,-27 331.07,-27 331.07,-27 468.6,-27 468.6,-27 474.6,-27 480.6,-33 480.6,-39 480.6,-39 480.6,-51 480.6,-51 480.6,-57 474.6,-63 468.6,-63"></path>
<text text-anchor="middle" x="399.84" y="-40.8" font-family="Arial" font-size="14.00" fill="#333333">ndiag.descriptions/*.md</text>
</g>
<!-- ndiag:internal -->
<g id="node2" class="node">
<title>ndiag:internal</title>
<path fill="#ffffff" stroke="#4b75b9" stroke-width="3" d="M271.07,-63C271.07,-63 233.16,-63 233.16,-63 227.16,-63 221.16,-57 221.16,-51 221.16,-51 221.16,-39 221.16,-39 221.16,-33 227.16,-27 233.16,-27 233.16,-27 271.07,-27 271.07,-27 277.07,-27 283.07,-33 283.07,-39 283.07,-39 283.07,-51 283.07,-51 283.07,-57 277.07,-63 271.07,-63"></path>
<text text-anchor="middle" x="252.12" y="-40.8" font-family="Arial" font-size="14.00" fill="#333333">internal</text>
</g>
<!-- ndiag:internal&#45;&gt;input files:ndiag.descriptions/*.md -->
<g id="edge3" class="edge">
<title>ndiag:internal-&gt;input files:ndiag.descriptions/*.md</title>
<path fill="none" stroke="#333333" stroke-width="2" stroke-opacity="0.600000" d="M294.96,-45C294.96,-45 307.2,-45 307.2,-45"></path>
<polygon fill="#333333" fill-opacity="0.600000" stroke="#333333" stroke-width="2" stroke-opacity="0.600000" points="296.47,-41.5 286.47,-45 296.47,-48.5 296.47,-41.5"></polygon>
<polygon fill="#333333" fill-opacity="0.600000" stroke="#333333" stroke-width="2" stroke-opacity="0.600000" points="305.68,-48.5 315.68,-45 305.68,-41.5 305.68,-48.5"></polygon>
</g>
<!-- input files:ndiag.yml -->
<g id="node3" class="node">
<title>input files:ndiag.yml</title>
<ellipse fill="none" stroke="black" cx="92.58" cy="-72" rx="91.5" ry="18"></ellipse>
<text text-anchor="middle" x="92.58" y="-67.8" font-family="Times,serif" font-size="14.00">input files:ndiag.yml</text>
</g>
<!-- input files:ndiag.yml&#45;&gt;ndiag:internal -->
<g id="edge1" class="edge">
<title>input files:ndiag.yml-&gt;ndiag:internal</title>
<path fill="none" stroke="#333333" stroke-width="2" stroke-opacity="0.600000" d="M155.17,-58.5C155.17,-58.5 209.33,-58.5 209.33,-58.5"></path>
<polygon fill="#333333" fill-opacity="0.600000" stroke="#333333" stroke-width="2" stroke-opacity="0.600000" points="207.81,-62 217.81,-58.5 207.81,-55 207.81,-62"></polygon>
</g>
<!-- input files:nodes.yml -->
<g id="node4" class="node">
<title>input files:nodes.yml</title>
<ellipse fill="none" stroke="black" cx="92.58" cy="-18" rx="92.58" ry="18"></ellipse>
<text text-anchor="middle" x="92.58" y="-13.8" font-family="Times,serif" font-size="14.00">input files:nodes.yml</text>
</g>
<!-- input files:nodes.yml&#45;&gt;ndiag:internal -->
<g id="edge2" class="edge">
<title>input files:nodes.yml-&gt;ndiag:internal</title>
<path fill="none" stroke="#333333" stroke-width="2" stroke-opacity="0.600000" d="M156.09,-31.5C156.09,-31.5 209.27,-31.5 209.27,-31.5"></path>
<polygon fill="#333333" fill-opacity="0.600000" stroke="#333333" stroke-width="2" stroke-opacity="0.600000" points="207.76,-35 217.76,-31.5 207.76,-28 207.76,-35"></polygon>
</g>
</g>
</svg>
