<?xml version="1.0" encoding="UTF-8" standalone="no"?>
<!DOCTYPE svg PUBLIC "-//W3C//DTD SVG 1.1//EN"
 "http://www.w3.org/Graphics/SVG/1.1/DTD/svg11.dtd">
<!-- Generated by graphviz version 2.40.1 (20161225.0304)
 -->
<!-- Title: ndiag Pages: 1 -->
<svg width="564pt" height="1235pt"
 viewBox="0.00 0.00 564.03 1235.00" xmlns="http://www.w3.org/2000/svg" xmlns:xlink="http://www.w3.org/1999/xlink">
<g id="graph0" class="graph" transform="scale(1 1) rotate(0) translate(4 1231)">
<title>ndiag</title>
<polygon fill="#ffffff" stroke="transparent" points="-4,4 -4,-1231 560.0272,-1231 560.0272,4 -4,4"/>
<g id="clust7" class="cluster">
<title>cluster_documents</title>
<polygon fill="none" stroke="#999999" stroke-width="2" points="333.9796,-516 333.9796,-799 548.0272,-799 548.0272,-516 333.9796,-516"/>
<image xlink:href="/var/folders/fp/hk95_wsj7s18mmc9drvrxdp1tt294n/T/ndiag.068246/doc.svg" width="60px" height="45px" preserveAspectRatio="xMinYMin meet" x="411.003" y="-794.5"/>
<text text-anchor="start" x="406.7713" y="-736.9" font-family="Arial" font-size="14.00" fill="#666666">documents</text>
</g>
<g id="clust6" class="cluster">
<title>cluster_descriptions</title>
<polygon fill="none" stroke="#999999" stroke-width="2" points="22.4898,-8 22.4898,-379 202.4898,-379 202.4898,-8 22.4898,-8"/>
<text text-anchor="middle" x="112.4898" y="-362.4" font-family="Arial" font-size="14.00" fill="#666666">descriptions</text>
</g>
<g id="clust5" class="cluster">
<title>cluster_relations</title>
<polygon fill="none" stroke="#999999" stroke-width="2" points="8,-387 8,-508 216.9796,-508 216.9796,-387 8,-387"/>
<image xlink:href="/var/folders/fp/hk95_wsj7s18mmc9drvrxdp1tt294n/T/ndiag.068246/pen.svg" width="52px" height="45px" preserveAspectRatio="xMinYMin meet" x="86.4898" y="-503.5"/>
<text text-anchor="start" x="86.0424" y="-445.9" font-family="Arial" font-size="14.00" fill="#666666">relations</text>
</g>
<g id="clust4" class="cluster">
<title>cluster_networks</title>
<polygon fill="none" stroke="#999999" stroke-width="2" points="11.5063,-516 11.5063,-799 213.4733,-799 213.4733,-516 11.5063,-516"/>
<image xlink:href="/var/folders/fp/hk95_wsj7s18mmc9drvrxdp1tt294n/T/ndiag.068246/pen.svg" width="56px" height="45px" preserveAspectRatio="xMinYMin meet" x="84.4898" y="-794.5"/>
<text text-anchor="start" x="84.487" y="-736.9" font-family="Arial" font-size="14.00" fill="#666666">networks</text>
</g>
<g id="clust3" class="cluster">
<title>cluster_diagrams</title>
<polygon fill="none" stroke="#999999" stroke-width="2" points="68.879,-807 68.879,-982 156.1006,-982 156.1006,-807 68.879,-807"/>
<image xlink:href="/var/folders/fp/hk95_wsj7s18mmc9drvrxdp1tt294n/T/ndiag.068246/pen.svg" width="57px" height="45px" preserveAspectRatio="xMinYMin meet" x="84.4898" y="-977.5"/>
<text text-anchor="start" x="84.2107" y="-919.9" font-family="Arial" font-size="14.00" fill="#666666">diagrams</text>
</g>
<g id="clust2" class="cluster">
<title>cluster_nodes</title>
<polygon fill="none" stroke="#999999" stroke-width="2" points="77.4898,-990 77.4898,-1219 147.4898,-1219 147.4898,-990 77.4898,-990"/>
<image xlink:href="/var/folders/fp/hk95_wsj7s18mmc9drvrxdp1tt294n/T/ndiag.068246/pen.svg" width="45px" height="45px" preserveAspectRatio="xMinYMin meet" x="90.4898" y="-1214.5"/>
<text text-anchor="start" x="93.9246" y="-1156.9" font-family="Arial" font-size="14.00" fill="#666666">nodes</text>
</g>
<g id="clust1" class="cluster">
<title>cluster_ndiag</title>
<polygon fill="none" stroke="#000000" stroke-width="2" points="236.9796,-580 236.9796,-690 313.9796,-690 313.9796,-580 236.9796,-580"/>
<text text-anchor="middle" x="275.4796" y="-673.4" font-family="Arial" font-size="14.00" fill="#000000">ndiag</text>
</g>
<!-- ndiag:internal -->
<g id="node1" class="node">
<title>ndiag:internal</title>
<path fill="#ffffff" stroke="#4b75b9" stroke-width="3" stroke-opacity="0.400000" d="M293.9796,-657.5C293.9796,-657.5 256.9796,-657.5 256.9796,-657.5 250.9796,-657.5 244.9796,-651.5 244.9796,-645.5 244.9796,-645.5 244.9796,-600.5 244.9796,-600.5 244.9796,-594.5 250.9796,-588.5 256.9796,-588.5 256.9796,-588.5 293.9796,-588.5 293.9796,-588.5 299.9796,-588.5 305.9796,-594.5 305.9796,-600.5 305.9796,-600.5 305.9796,-645.5 305.9796,-645.5 305.9796,-651.5 299.9796,-657.5 293.9796,-657.5"/>
<image xlink:href="/var/folders/fp/hk95_wsj7s18mmc9drvrxdp1tt294n/T/ndiag.068246/hex2.svg" width="45px" height="45px" preserveAspectRatio="xMinYMin meet" x="253.48" y="-653"/>
<text text-anchor="start" x="253.0322" y="-595.4" font-family="Arial" font-size="14.00" fill="#333333">internal</text>
</g>
<!-- documents:index document -->
<g id="node16" class="node">
<title>documents:index document</title>
<path fill="#ffffff" stroke="#4b75b9" stroke-width="3" d="M486.3128,-722C486.3128,-722 395.694,-722 395.694,-722 389.694,-722 383.694,-716 383.694,-710 383.694,-710 383.694,-698 383.694,-698 383.694,-692 389.694,-686 395.694,-686 395.694,-686 486.3128,-686 486.3128,-686 492.3128,-686 498.3128,-692 498.3128,-698 498.3128,-698 498.3128,-710 498.3128,-710 498.3128,-716 492.3128,-722 486.3128,-722"/>
<text text-anchor="middle" x="441.0034" y="-699.8" font-family="Arial" font-size="14.00" fill="#333333">index document</text>
</g>
<!-- ndiag:internal&#45;&gt;documents:index document -->
<g id="edge15" class="edge">
<title>ndiag:internal&#45;&gt;documents:index document</title>
<path fill="none" stroke="#333333" stroke-width="2" stroke-opacity="0.600000" d="M299.0272,-657.8652C299.0272,-677.451 299.0272,-698 299.0272,-698 299.0272,-698 373.6655,-698 373.6655,-698"/>
<polygon fill="#333333" fill-opacity="0.600000" stroke="#333333" stroke-width="2" stroke-opacity="0.600000" points="373.6655,-701.5001 383.6655,-698 373.6655,-694.5001 373.6655,-701.5001"/>
</g>
<!-- documents:layer based document -->
<g id="node17" class="node">
<title>documents:layer based document</title>
<path fill="#ffffff" stroke="#4b75b9" stroke-width="3" d="M505.7119,-668C505.7119,-668 376.2949,-668 376.2949,-668 370.2949,-668 364.2949,-662 364.2949,-656 364.2949,-656 364.2949,-644 364.2949,-644 364.2949,-638 370.2949,-632 376.2949,-632 376.2949,-632 505.7119,-632 505.7119,-632 511.7119,-632 517.7119,-638 517.7119,-644 517.7119,-644 517.7119,-656 517.7119,-656 517.7119,-662 511.7119,-668 505.7119,-668"/>
<text text-anchor="middle" x="441.0034" y="-645.8" font-family="Arial" font-size="14.00" fill="#333333">layer based document</text>
</g>
<!-- ndiag:internal&#45;&gt;documents:layer based document -->
<g id="edge17" class="edge">
<title>ndiag:internal&#45;&gt;documents:layer based document</title>
<path fill="none" stroke="#333333" stroke-width="2" stroke-opacity="0.600000" d="M306.2254,-644.75C306.2254,-644.75 353.9629,-644.75 353.9629,-644.75"/>
<polygon fill="#333333" fill-opacity="0.600000" stroke="#333333" stroke-width="2" stroke-opacity="0.600000" points="353.9629,-648.2501 363.9629,-644.75 353.9628,-641.2501 353.9629,-648.2501"/>
</g>
<!-- documents:tag(relation) based document -->
<g id="node18" class="node">
<title>documents:tag(relation) based document</title>
<path fill="#ffffff" stroke="#4b75b9" stroke-width="3" d="M528.051,-614C528.051,-614 353.9558,-614 353.9558,-614 347.9558,-614 341.9558,-608 341.9558,-602 341.9558,-602 341.9558,-590 341.9558,-590 341.9558,-584 347.9558,-578 353.9558,-578 353.9558,-578 528.051,-578 528.051,-578 534.051,-578 540.051,-584 540.051,-590 540.051,-590 540.051,-602 540.051,-602 540.051,-608 534.051,-614 528.051,-614"/>
<text text-anchor="middle" x="441.0034" y="-591.8" font-family="Arial" font-size="14.00" fill="#333333">tag(relation) based document</text>
</g>
<!-- ndiag:internal&#45;&gt;documents:tag(relation) based document -->
<g id="edge18" class="edge">
<title>ndiag:internal&#45;&gt;documents:tag(relation) based document</title>
<path fill="none" stroke="#333333" stroke-width="2" stroke-opacity="0.600000" d="M306.2254,-601.25C306.2254,-601.25 331.9252,-601.25 331.9252,-601.25"/>
<polygon fill="#333333" fill-opacity="0.600000" stroke="#333333" stroke-width="2" stroke-opacity="0.600000" points="331.9252,-604.7501 341.9252,-601.25 331.9251,-597.7501 331.9252,-604.7501"/>
</g>
<!-- documents:custom document -->
<g id="node19" class="node">
<title>documents:custom document</title>
<path fill="#ffffff" stroke="#4b75b9" stroke-width="3" d="M492.4755,-560C492.4755,-560 389.5313,-560 389.5313,-560 383.5313,-560 377.5313,-554 377.5313,-548 377.5313,-548 377.5313,-536 377.5313,-536 377.5313,-530 383.5313,-524 389.5313,-524 389.5313,-524 492.4755,-524 492.4755,-524 498.4755,-524 504.4755,-530 504.4755,-536 504.4755,-536 504.4755,-548 504.4755,-548 504.4755,-554 498.4755,-560 492.4755,-560"/>
<text text-anchor="middle" x="441.0034" y="-537.8" font-family="Arial" font-size="14.00" fill="#333333">custom document</text>
</g>
<!-- ndiag:internal&#45;&gt;documents:custom document -->
<g id="edge16" class="edge">
<title>ndiag:internal&#45;&gt;documents:custom document</title>
<path fill="none" stroke="#333333" stroke-width="2" stroke-opacity="0.600000" d="M298.0272,-588.1786C298.0272,-566.2249 298.0272,-542 298.0272,-542 298.0272,-542 367.4593,-542 367.4593,-542"/>
<polygon fill="#333333" fill-opacity="0.600000" stroke="#333333" stroke-width="2" stroke-opacity="0.600000" points="367.4594,-545.5001 377.4593,-542 367.4593,-538.5001 367.4594,-545.5001"/>
</g>
<!-- nodes:lb&#45;* -->
<g id="node2" class="node">
<title>nodes:lb&#45;*</title>
<path fill="#ffffff" stroke="#4b75b9" stroke-width="3" d="M127.4898,-1142C127.4898,-1142 97.4898,-1142 97.4898,-1142 91.4898,-1142 85.4898,-1136 85.4898,-1130 85.4898,-1130 85.4898,-1118 85.4898,-1118 85.4898,-1112 91.4898,-1106 97.4898,-1106 97.4898,-1106 127.4898,-1106 127.4898,-1106 133.4898,-1106 139.4898,-1112 139.4898,-1118 139.4898,-1118 139.4898,-1130 139.4898,-1130 139.4898,-1136 133.4898,-1142 127.4898,-1142"/>
<text text-anchor="middle" x="112.4898" y="-1119.8" font-family="Arial" font-size="14.00" fill="#333333">lb&#45;*</text>
</g>
<!-- nodes:lb&#45;*&#45;&gt;ndiag:internal -->
<g id="edge1" class="edge">
<title>nodes:lb&#45;*&#45;&gt;ndiag:internal</title>
<path fill="none" stroke="#333333" stroke-width="2" stroke-opacity="0.600000" d="M139.6058,-1124C189.5511,-1124 291.0272,-1124 291.0272,-1124 291.0272,-1124 291.0272,-667.8316 291.0272,-667.8316"/>
<polygon fill="#333333" fill-opacity="0.600000" stroke="#333333" stroke-width="2" stroke-opacity="0.600000" points="294.5273,-667.8315 291.0272,-657.8316 287.5273,-667.8316 294.5273,-667.8315"/>
</g>
<!-- nodes:app&#45;* -->
<g id="node3" class="node">
<title>nodes:app&#45;*</title>
<path fill="#ffffff" stroke="#4b75b9" stroke-width="3" d="M127.4898,-1088C127.4898,-1088 97.4898,-1088 97.4898,-1088 91.4898,-1088 85.4898,-1082 85.4898,-1076 85.4898,-1076 85.4898,-1064 85.4898,-1064 85.4898,-1058 91.4898,-1052 97.4898,-1052 97.4898,-1052 127.4898,-1052 127.4898,-1052 133.4898,-1052 139.4898,-1058 139.4898,-1064 139.4898,-1064 139.4898,-1076 139.4898,-1076 139.4898,-1082 133.4898,-1088 127.4898,-1088"/>
<text text-anchor="middle" x="112.4898" y="-1065.8" font-family="Arial" font-size="14.00" fill="#333333">app&#45;*</text>
</g>
<!-- nodes:app&#45;*&#45;&gt;ndiag:internal -->
<g id="edge2" class="edge">
<title>nodes:app&#45;*&#45;&gt;ndiag:internal</title>
<path fill="none" stroke="#333333" stroke-width="2" stroke-opacity="0.600000" d="M139.6704,-1070C188.0393,-1070 284.0272,-1070 284.0272,-1070 284.0272,-1070 284.0272,-667.7034 284.0272,-667.7034"/>
<polygon fill="#333333" fill-opacity="0.600000" stroke="#333333" stroke-width="2" stroke-opacity="0.600000" points="287.5273,-667.7034 284.0272,-657.7034 280.5273,-667.7034 287.5273,-667.7034"/>
</g>
<!-- nodes:db&#45;* -->
<g id="node4" class="node">
<title>nodes:db&#45;*</title>
<path fill="#ffffff" stroke="#4b75b9" stroke-width="3" d="M127.4898,-1034C127.4898,-1034 97.4898,-1034 97.4898,-1034 91.4898,-1034 85.4898,-1028 85.4898,-1022 85.4898,-1022 85.4898,-1010 85.4898,-1010 85.4898,-1004 91.4898,-998 97.4898,-998 97.4898,-998 127.4898,-998 127.4898,-998 133.4898,-998 139.4898,-1004 139.4898,-1010 139.4898,-1010 139.4898,-1022 139.4898,-1022 139.4898,-1028 133.4898,-1034 127.4898,-1034"/>
<text text-anchor="middle" x="112.4898" y="-1011.8" font-family="Arial" font-size="14.00" fill="#333333">db&#45;*</text>
</g>
<!-- nodes:db&#45;*&#45;&gt;ndiag:internal -->
<g id="edge3" class="edge">
<title>nodes:db&#45;*&#45;&gt;ndiag:internal</title>
<path fill="none" stroke="#333333" stroke-width="2" stroke-opacity="0.600000" d="M139.4947,-1016C185.9439,-1016 276.0272,-1016 276.0272,-1016 276.0272,-1016 276.0272,-667.5317 276.0272,-667.5317"/>
<polygon fill="#333333" fill-opacity="0.600000" stroke="#333333" stroke-width="2" stroke-opacity="0.600000" points="279.5273,-667.5317 276.0272,-657.5317 272.5273,-667.5317 279.5273,-667.5317"/>
</g>
<!-- diagrams:overview -->
<g id="node5" class="node">
<title>diagrams:overview</title>
<path fill="#ffffff" stroke="#4b75b9" stroke-width="3" d="M136.2117,-905C136.2117,-905 88.7679,-905 88.7679,-905 82.7679,-905 76.7679,-899 76.7679,-893 76.7679,-893 76.7679,-881 76.7679,-881 76.7679,-875 82.7679,-869 88.7679,-869 88.7679,-869 136.2117,-869 136.2117,-869 142.2117,-869 148.2117,-875 148.2117,-881 148.2117,-881 148.2117,-893 148.2117,-893 148.2117,-899 142.2117,-905 136.2117,-905"/>
<text text-anchor="middle" x="112.4898" y="-882.8" font-family="Arial" font-size="14.00" fill="#333333">overview</text>
</g>
<!-- diagrams:overview&#45;&gt;ndiag:internal -->
<g id="edge4" class="edge">
<title>diagrams:overview&#45;&gt;ndiag:internal</title>
<path fill="none" stroke="#333333" stroke-width="2" stroke-opacity="0.600000" d="M148.1732,-887C194.0932,-887 268.0272,-887 268.0272,-887 268.0272,-887 268.0272,-667.5134 268.0272,-667.5134"/>
<polygon fill="#333333" fill-opacity="0.600000" stroke="#333333" stroke-width="2" stroke-opacity="0.600000" points="271.5273,-667.5134 268.0272,-657.5134 264.5273,-667.5134 271.5273,-667.5134"/>
</g>
<!-- diagrams:http&#45;lb -->
<g id="node6" class="node">
<title>diagrams:http&#45;lb</title>
<path fill="#ffffff" stroke="#4b75b9" stroke-width="3" d="M127.8861,-851C127.8861,-851 97.0935,-851 97.0935,-851 91.0935,-851 85.0935,-845 85.0935,-839 85.0935,-839 85.0935,-827 85.0935,-827 85.0935,-821 91.0935,-815 97.0935,-815 97.0935,-815 127.8861,-815 127.8861,-815 133.8861,-815 139.8861,-821 139.8861,-827 139.8861,-827 139.8861,-839 139.8861,-839 139.8861,-845 133.8861,-851 127.8861,-851"/>
<text text-anchor="middle" x="112.4898" y="-828.8" font-family="Arial" font-size="14.00" fill="#333333">http&#45;lb</text>
</g>
<!-- diagrams:http&#45;lb&#45;&gt;ndiag:internal -->
<g id="edge5" class="edge">
<title>diagrams:http&#45;lb&#45;&gt;ndiag:internal</title>
<path fill="none" stroke="#333333" stroke-width="2" stroke-opacity="0.600000" d="M140.0804,-833C183.0363,-833 261.0272,-833 261.0272,-833 261.0272,-833 261.0272,-667.6772 261.0272,-667.6772"/>
<polygon fill="#333333" fill-opacity="0.600000" stroke="#333333" stroke-width="2" stroke-opacity="0.600000" points="264.5273,-667.6772 261.0272,-657.6772 257.5273,-667.6773 264.5273,-667.6772"/>
</g>
<!-- networks:internet&#45;&gt;group:lb:vip -->
<g id="node7" class="node">
<title>networks:internet&#45;&gt;group:lb:vip</title>
<path fill="#ffffff" stroke="#4b75b9" stroke-width="3" d="M174.3545,-722C174.3545,-722 50.6251,-722 50.6251,-722 44.6251,-722 38.6251,-716 38.6251,-710 38.6251,-710 38.6251,-698 38.6251,-698 38.6251,-692 44.6251,-686 50.6251,-686 50.6251,-686 174.3545,-686 174.3545,-686 180.3545,-686 186.3545,-692 186.3545,-698 186.3545,-698 186.3545,-710 186.3545,-710 186.3545,-716 180.3545,-722 174.3545,-722"/>
<text text-anchor="middle" x="112.4898" y="-699.8" font-family="Arial" font-size="14.00" fill="#333333">internet&#45;&gt;group:lb:vip</text>
</g>
<!-- networks:internet&#45;&gt;group:lb:vip&#45;&gt;ndiag:internal -->
<g id="edge6" class="edge">
<title>networks:internet&#45;&gt;group:lb:vip&#45;&gt;ndiag:internal</title>
<path fill="none" stroke="#333333" stroke-width="2" stroke-opacity="0.600000" d="M186.4625,-710C220.3198,-710 253.0272,-710 253.0272,-710 253.0272,-710 253.0272,-667.6347 253.0272,-667.6347"/>
<polygon fill="#333333" fill-opacity="0.600000" stroke="#333333" stroke-width="2" stroke-opacity="0.600000" points="256.5273,-667.6346 253.0272,-657.6347 249.5273,-667.6347 256.5273,-667.6346"/>
</g>
<!-- networks:group:lb:vip&#45;&gt;lb&#45;*:nginx -->
<g id="node8" class="node">
<title>networks:group:lb:vip&#45;&gt;lb&#45;*:nginx</title>
<path fill="#ffffff" stroke="#4b75b9" stroke-width="3" d="M180.0157,-668C180.0157,-668 44.9639,-668 44.9639,-668 38.9639,-668 32.9639,-662 32.9639,-656 32.9639,-656 32.9639,-644 32.9639,-644 32.9639,-638 38.9639,-632 44.9639,-632 44.9639,-632 180.0157,-632 180.0157,-632 186.0157,-632 192.0157,-638 192.0157,-644 192.0157,-644 192.0157,-656 192.0157,-656 192.0157,-662 186.0157,-668 180.0157,-668"/>
<text text-anchor="middle" x="112.4898" y="-645.8" font-family="Arial" font-size="14.00" fill="#333333">group:lb:vip&#45;&gt;lb&#45;*:nginx</text>
</g>
<!-- networks:group:lb:vip&#45;&gt;lb&#45;*:nginx&#45;&gt;ndiag:internal -->
<g id="edge7" class="edge">
<title>networks:group:lb:vip&#45;&gt;lb&#45;*:nginx&#45;&gt;ndiag:internal</title>
<path fill="none" stroke="#333333" stroke-width="2" stroke-opacity="0.600000" d="M192.0748,-644.75C192.0748,-644.75 234.7507,-644.75 234.7507,-644.75"/>
<polygon fill="#333333" fill-opacity="0.600000" stroke="#333333" stroke-width="2" stroke-opacity="0.600000" points="234.7507,-648.2501 244.7507,-644.75 234.7506,-641.2501 234.7507,-648.2501"/>
</g>
<!-- networks:lb&#45;*:nginx&#45;&gt;app&#45;*:rails -->
<g id="node9" class="node">
<title>networks:lb&#45;*:nginx&#45;&gt;app&#45;*:rails</title>
<path fill="#ffffff" stroke="#4b75b9" stroke-width="3" d="M175.6645,-614C175.6645,-614 49.3151,-614 49.3151,-614 43.3151,-614 37.3151,-608 37.3151,-602 37.3151,-602 37.3151,-590 37.3151,-590 37.3151,-584 43.3151,-578 49.3151,-578 49.3151,-578 175.6645,-578 175.6645,-578 181.6645,-578 187.6645,-584 187.6645,-590 187.6645,-590 187.6645,-602 187.6645,-602 187.6645,-608 181.6645,-614 175.6645,-614"/>
<text text-anchor="middle" x="112.4898" y="-591.8" font-family="Arial" font-size="14.00" fill="#333333">lb&#45;*:nginx&#45;&gt;app&#45;*:rails</text>
</g>
<!-- networks:lb&#45;*:nginx&#45;&gt;app&#45;*:rails&#45;&gt;ndiag:internal -->
<g id="edge8" class="edge">
<title>networks:lb&#45;*:nginx&#45;&gt;app&#45;*:rails&#45;&gt;ndiag:internal</title>
<path fill="none" stroke="#333333" stroke-width="2" stroke-opacity="0.600000" d="M187.7824,-605.5C187.7824,-605.5 234.8778,-605.5 234.8778,-605.5"/>
<polygon fill="#333333" fill-opacity="0.600000" stroke="#333333" stroke-width="2" stroke-opacity="0.600000" points="234.8778,-609.0001 244.8778,-605.5 234.8777,-602.0001 234.8778,-609.0001"/>
</g>
<!-- networks:app&#45;*:rails&#45;&gt;db&#45;*:postgresql -->
<g id="node10" class="node">
<title>networks:app&#45;*:rails&#45;&gt;db&#45;*:postgresql</title>
<path fill="#ffffff" stroke="#4b75b9" stroke-width="3" d="M193.4568,-560C193.4568,-560 31.5228,-560 31.5228,-560 25.5228,-560 19.5228,-554 19.5228,-548 19.5228,-548 19.5228,-536 19.5228,-536 19.5228,-530 25.5228,-524 31.5228,-524 31.5228,-524 193.4568,-524 193.4568,-524 199.4568,-524 205.4568,-530 205.4568,-536 205.4568,-536 205.4568,-548 205.4568,-548 205.4568,-554 199.4568,-560 193.4568,-560"/>
<text text-anchor="middle" x="112.4898" y="-537.8" font-family="Arial" font-size="14.00" fill="#333333">app&#45;*:rails&#45;&gt;db&#45;*:postgresql</text>
</g>
<!-- networks:app&#45;*:rails&#45;&gt;db&#45;*:postgresql&#45;&gt;ndiag:internal -->
<g id="edge9" class="edge">
<title>networks:app&#45;*:rails&#45;&gt;db&#45;*:postgresql&#45;&gt;ndiag:internal</title>
<path fill="none" stroke="#333333" stroke-width="2" stroke-opacity="0.600000" d="M199.0272,-560.0091C199.0272,-576.0494 199.0272,-597 199.0272,-597 199.0272,-597 234.824,-597 234.824,-597"/>
<polygon fill="#333333" fill-opacity="0.600000" stroke="#333333" stroke-width="2" stroke-opacity="0.600000" points="234.824,-600.5001 244.824,-597 234.824,-593.5001 234.824,-600.5001"/>
</g>
<!-- relations:lb&#45;*:keepalived&#45;&gt;group:lb:vip -->
<g id="node11" class="node">
<title>relations:lb&#45;*:keepalived&#45;&gt;group:lb:vip</title>
<path fill="#ffffff" stroke="#4b75b9" stroke-width="3" d="M196.9694,-431C196.9694,-431 28.0102,-431 28.0102,-431 22.0102,-431 16.0102,-425 16.0102,-419 16.0102,-419 16.0102,-407 16.0102,-407 16.0102,-401 22.0102,-395 28.0102,-395 28.0102,-395 196.9694,-395 196.9694,-395 202.9694,-395 208.9694,-401 208.9694,-407 208.9694,-407 208.9694,-419 208.9694,-419 208.9694,-425 202.9694,-431 196.9694,-431"/>
<text text-anchor="middle" x="112.4898" y="-408.8" font-family="Arial" font-size="14.00" fill="#333333">lb&#45;*:keepalived&#45;&gt;group:lb:vip</text>
</g>
<!-- relations:lb&#45;*:keepalived&#45;&gt;group:lb:vip&#45;&gt;ndiag:internal -->
<g id="edge10" class="edge">
<title>relations:lb&#45;*:keepalived&#45;&gt;group:lb:vip&#45;&gt;ndiag:internal</title>
<path fill="none" stroke="#333333" stroke-width="2" stroke-opacity="0.600000" d="M209.2439,-413C234.1235,-413 254.0272,-413 254.0272,-413 254.0272,-413 254.0272,-578.3228 254.0272,-578.3228"/>
<polygon fill="#333333" fill-opacity="0.600000" stroke="#333333" stroke-width="2" stroke-opacity="0.600000" points="250.5273,-578.3227 254.0272,-588.3228 257.5273,-578.3228 250.5273,-578.3227"/>
</g>
<!-- descriptions:component descriptions -->
<g id="node12" class="node">
<title>descriptions:component descriptions</title>
<path fill="#ffffff" stroke="#4b75b9" stroke-width="3" stroke-opacity="0.400000" d="M181.9898,-346.5C181.9898,-346.5 42.9898,-346.5 42.9898,-346.5 36.9898,-346.5 30.9898,-340.5 30.9898,-334.5 30.9898,-334.5 30.9898,-289.5 30.9898,-289.5 30.9898,-283.5 36.9898,-277.5 42.9898,-277.5 42.9898,-277.5 181.9898,-277.5 181.9898,-277.5 187.9898,-277.5 193.9898,-283.5 193.9898,-289.5 193.9898,-289.5 193.9898,-334.5 193.9898,-334.5 193.9898,-340.5 187.9898,-346.5 181.9898,-346.5"/>
<image xlink:href="/var/folders/fp/hk95_wsj7s18mmc9drvrxdp1tt294n/T/ndiag.068246/write.svg" width="60px" height="45px" preserveAspectRatio="xMinYMin meet" x="82.9898" y="-342"/>
<text text-anchor="start" x="39.0824" y="-284.4" font-family="Arial" font-size="14.00" fill="#333333">component descriptions</text>
</g>
<!-- descriptions:component descriptions&#45;&gt;ndiag:internal -->
<g id="edge11" class="edge">
<title>descriptions:component descriptions&#45;&gt;ndiag:internal</title>
<path fill="none" stroke="#333333" stroke-width="2" stroke-opacity="0.600000" d="M194.3663,-312C229.6739,-312 263.0272,-312 263.0272,-312 263.0272,-312 263.0272,-578.2296 263.0272,-578.2296"/>
<polygon fill="#333333" fill-opacity="0.600000" stroke="#333333" stroke-width="2" stroke-opacity="0.600000" points="259.5273,-578.2296 263.0272,-588.2296 266.5273,-578.2296 259.5273,-578.2296"/>
</g>
<!-- descriptions:diagram descriptions -->
<g id="node13" class="node">
<title>descriptions:diagram descriptions</title>
<path fill="#ffffff" stroke="#4b75b9" stroke-width="3" stroke-opacity="0.400000" d="M172.9898,-259.5C172.9898,-259.5 51.9898,-259.5 51.9898,-259.5 45.9898,-259.5 39.9898,-253.5 39.9898,-247.5 39.9898,-247.5 39.9898,-202.5 39.9898,-202.5 39.9898,-196.5 45.9898,-190.5 51.9898,-190.5 51.9898,-190.5 172.9898,-190.5 172.9898,-190.5 178.9898,-190.5 184.9898,-196.5 184.9898,-202.5 184.9898,-202.5 184.9898,-247.5 184.9898,-247.5 184.9898,-253.5 178.9898,-259.5 172.9898,-259.5"/>
<image xlink:href="/var/folders/fp/hk95_wsj7s18mmc9drvrxdp1tt294n/T/ndiag.068246/write.svg" width="60px" height="45px" preserveAspectRatio="xMinYMin meet" x="82.9898" y="-255"/>
<text text-anchor="start" x="48.4267" y="-197.4" font-family="Arial" font-size="14.00" fill="#333333">diagram descriptions</text>
</g>
<!-- descriptions:diagram descriptions&#45;&gt;ndiag:internal -->
<g id="edge12" class="edge">
<title>descriptions:diagram descriptions&#45;&gt;ndiag:internal</title>
<path fill="none" stroke="#333333" stroke-width="2" stroke-opacity="0.600000" d="M185.2556,-225C227.332,-225 272.0272,-225 272.0272,-225 272.0272,-225 272.0272,-578.3763 272.0272,-578.3763"/>
<polygon fill="#333333" fill-opacity="0.600000" stroke="#333333" stroke-width="2" stroke-opacity="0.600000" points="268.5273,-578.3763 272.0272,-588.3763 275.5273,-578.3764 268.5273,-578.3763"/>
</g>
<!-- descriptions:layer group descriptions -->
<g id="node14" class="node">
<title>descriptions:layer group descriptions</title>
<path fill="#ffffff" stroke="#4b75b9" stroke-width="3" stroke-opacity="0.400000" d="M182.4898,-172.5C182.4898,-172.5 42.4898,-172.5 42.4898,-172.5 36.4898,-172.5 30.4898,-166.5 30.4898,-160.5 30.4898,-160.5 30.4898,-115.5 30.4898,-115.5 30.4898,-109.5 36.4898,-103.5 42.4898,-103.5 42.4898,-103.5 182.4898,-103.5 182.4898,-103.5 188.4898,-103.5 194.4898,-109.5 194.4898,-115.5 194.4898,-115.5 194.4898,-160.5 194.4898,-160.5 194.4898,-166.5 188.4898,-172.5 182.4898,-172.5"/>
<image xlink:href="/var/folders/fp/hk95_wsj7s18mmc9drvrxdp1tt294n/T/ndiag.068246/write.svg" width="60px" height="45px" preserveAspectRatio="xMinYMin meet" x="82.4898" y="-168"/>
<text text-anchor="start" x="38.1988" y="-110.4" font-family="Arial" font-size="14.00" fill="#333333">layer group descriptions</text>
</g>
<!-- descriptions:layer group descriptions&#45;&gt;ndiag:internal -->
<g id="edge13" class="edge">
<title>descriptions:layer group descriptions&#45;&gt;ndiag:internal</title>
<path fill="none" stroke="#333333" stroke-width="2" stroke-opacity="0.600000" d="M194.7861,-138C237.1554,-138 280.0272,-138 280.0272,-138 280.0272,-138 280.0272,-578.12 280.0272,-578.12"/>
<polygon fill="#333333" fill-opacity="0.600000" stroke="#333333" stroke-width="2" stroke-opacity="0.600000" points="276.5273,-578.12 280.0272,-588.12 283.5273,-578.12 276.5273,-578.12"/>
</g>
<!-- descriptions:tag group descriptions -->
<g id="node15" class="node">
<title>descriptions:tag group descriptions</title>
<path fill="#ffffff" stroke="#4b75b9" stroke-width="3" stroke-opacity="0.400000" d="M176.9898,-85.5C176.9898,-85.5 47.9898,-85.5 47.9898,-85.5 41.9898,-85.5 35.9898,-79.5 35.9898,-73.5 35.9898,-73.5 35.9898,-28.5 35.9898,-28.5 35.9898,-22.5 41.9898,-16.5 47.9898,-16.5 47.9898,-16.5 176.9898,-16.5 176.9898,-16.5 182.9898,-16.5 188.9898,-22.5 188.9898,-28.5 188.9898,-28.5 188.9898,-73.5 188.9898,-73.5 188.9898,-79.5 182.9898,-85.5 176.9898,-85.5"/>
<image xlink:href="/var/folders/fp/hk95_wsj7s18mmc9drvrxdp1tt294n/T/ndiag.068246/write.svg" width="60px" height="45px" preserveAspectRatio="xMinYMin meet" x="82.9898" y="-81"/>
<text text-anchor="start" x="44.1371" y="-23.4" font-family="Arial" font-size="14.00" fill="#333333">tag group descriptions</text>
</g>
<!-- descriptions:tag group descriptions&#45;&gt;ndiag:internal -->
<g id="edge14" class="edge">
<title>descriptions:tag group descriptions&#45;&gt;ndiag:internal</title>
<path fill="none" stroke="#333333" stroke-width="2" stroke-opacity="0.600000" d="M189.1515,-51C236.7939,-51 289.0272,-51 289.0272,-51 289.0272,-51 289.0272,-578.0799 289.0272,-578.0799"/>
<polygon fill="#333333" fill-opacity="0.600000" stroke="#333333" stroke-width="2" stroke-opacity="0.600000" points="285.5273,-578.0799 289.0272,-588.0799 292.5273,-578.0799 285.5273,-578.0799"/>
</g>
</g>
</svg>
