<?xml version="1.0" encoding="UTF-8" standalone="no"?>
<!DOCTYPE svg PUBLIC "-//W3C//DTD SVG 1.1//EN"
 "http://www.w3.org/Graphics/SVG/1.1/DTD/svg11.dtd">
<!-- Generated by graphviz version 2.40.1 (20161225.0304)
 -->
<!-- Title: ndiag Pages: 1 -->
<svg width="323pt" height="307pt"
 viewBox="0.00 0.00 322.97 307.00" xmlns="http://www.w3.org/2000/svg" xmlns:xlink="http://www.w3.org/1999/xlink">
<g id="graph0" class="graph" transform="scale(1 1) rotate(0) translate(4 303)">
<title>ndiag</title>
<polygon fill="#ffffff" stroke="transparent" points="-4,4 -4,-303 318.967,-303 318.967,4 -4,4"/>
<g id="clust2" class="cluster">
<title>cluster_ndiag</title>
<polygon fill="none" stroke="#999999" stroke-width="2" points="229.967,-72 229.967,-182 306.967,-182 306.967,-72 229.967,-72"/>
<text text-anchor="middle" x="268.467" y="-165.4" font-family="Arial" font-size="14.00" fill="#666666">ndiag</text>
</g>
<g id="clust1" class="cluster">
<title>cluster_networks</title>
<polygon fill="none" stroke="#000000" stroke-width="2" points="8,-8 8,-291 209.967,-291 209.967,-8 8,-8"/>
<image xlink:href="/var/folders/fp/hk95_wsj7s18mmc9drvrxdp1tt294n/T/ndiag.070806/pen.svg" width="56px" height="45px" preserveAspectRatio="xMinYMin meet" x="80.9835" y="-286.5"/>
<text text-anchor="start" x="80.9807" y="-228.9" font-family="Arial" font-size="14.00" fill="#000000">networks</text>
</g>
<!-- networks:internet&#45;&gt;group:lb:vip -->
<g id="node1" class="node">
<title>networks:internet&#45;&gt;group:lb:vip</title>
<path fill="#ffffff" stroke="#4b75b9" stroke-width="3" d="M170.8482,-214C170.8482,-214 47.1188,-214 47.1188,-214 41.1188,-214 35.1188,-208 35.1188,-202 35.1188,-202 35.1188,-190 35.1188,-190 35.1188,-184 41.1188,-178 47.1188,-178 47.1188,-178 170.8482,-178 170.8482,-178 176.8482,-178 182.8482,-184 182.8482,-190 182.8482,-190 182.8482,-202 182.8482,-202 182.8482,-208 176.8482,-214 170.8482,-214"/>
<text text-anchor="middle" x="108.9835" y="-191.8" font-family="Arial" font-size="14.00" fill="#333333">internet&#45;&gt;group:lb:vip</text>
</g>
<!-- ndiag:internal -->
<g id="node5" class="node">
<title>ndiag:internal</title>
<path fill="#ffffff" stroke="#4b75b9" stroke-width="3" stroke-opacity="0.400000" d="M286.967,-149.5C286.967,-149.5 249.967,-149.5 249.967,-149.5 243.967,-149.5 237.967,-143.5 237.967,-137.5 237.967,-137.5 237.967,-92.5 237.967,-92.5 237.967,-86.5 243.967,-80.5 249.967,-80.5 249.967,-80.5 286.967,-80.5 286.967,-80.5 292.967,-80.5 298.967,-86.5 298.967,-92.5 298.967,-92.5 298.967,-137.5 298.967,-137.5 298.967,-143.5 292.967,-149.5 286.967,-149.5"/>
<image xlink:href="/var/folders/fp/hk95_wsj7s18mmc9drvrxdp1tt294n/T/ndiag.070806/hex2.svg" width="45px" height="45px" preserveAspectRatio="xMinYMin meet" x="246.467" y="-145"/>
<text text-anchor="start" x="246.0196" y="-87.4" font-family="Arial" font-size="14.00" fill="#333333">internal</text>
</g>
<!-- networks:internet&#45;&gt;group:lb:vip&#45;&gt;ndiag:internal -->
<g id="edge1" class="edge">
<title>networks:internet&#45;&gt;group:lb:vip&#45;&gt;ndiag:internal</title>
<path fill="none" stroke="#333333" stroke-width="2" stroke-opacity="0.600000" d="M182.8874,-196C224.8059,-196 268.967,-196 268.967,-196 268.967,-196 268.967,-159.8214 268.967,-159.8214"/>
<polygon fill="#333333" fill-opacity="0.600000" stroke="#333333" stroke-width="2" stroke-opacity="0.600000" points="272.4671,-159.8213 268.967,-149.8214 265.4671,-159.8214 272.4671,-159.8213"/>
</g>
<!-- networks:group:lb:vip&#45;&gt;lb&#45;*:nginx -->
<g id="node2" class="node">
<title>networks:group:lb:vip&#45;&gt;lb&#45;*:nginx</title>
<path fill="#ffffff" stroke="#4b75b9" stroke-width="3" d="M176.5094,-160C176.5094,-160 41.4576,-160 41.4576,-160 35.4576,-160 29.4576,-154 29.4576,-148 29.4576,-148 29.4576,-136 29.4576,-136 29.4576,-130 35.4576,-124 41.4576,-124 41.4576,-124 176.5094,-124 176.5094,-124 182.5094,-124 188.5094,-130 188.5094,-136 188.5094,-136 188.5094,-148 188.5094,-148 188.5094,-154 182.5094,-160 176.5094,-160"/>
<text text-anchor="middle" x="108.9835" y="-137.8" font-family="Arial" font-size="14.00" fill="#333333">group:lb:vip&#45;&gt;lb&#45;*:nginx</text>
</g>
<!-- networks:group:lb:vip&#45;&gt;lb&#45;*:nginx&#45;&gt;ndiag:internal -->
<g id="edge2" class="edge">
<title>networks:group:lb:vip&#45;&gt;lb&#45;*:nginx&#45;&gt;ndiag:internal</title>
<path fill="none" stroke="#333333" stroke-width="2" stroke-opacity="0.600000" d="M188.7253,-136.75C188.7253,-136.75 227.717,-136.75 227.717,-136.75"/>
<polygon fill="#333333" fill-opacity="0.600000" stroke="#333333" stroke-width="2" stroke-opacity="0.600000" points="227.717,-140.2501 237.717,-136.75 227.7169,-133.2501 227.717,-140.2501"/>
</g>
<!-- networks:lb&#45;*:nginx&#45;&gt;app&#45;*:rails -->
<g id="node3" class="node">
<title>networks:lb&#45;*:nginx&#45;&gt;app&#45;*:rails</title>
<path fill="#ffffff" stroke="#4b75b9" stroke-width="3" d="M172.1582,-106C172.1582,-106 45.8088,-106 45.8088,-106 39.8088,-106 33.8088,-100 33.8088,-94 33.8088,-94 33.8088,-82 33.8088,-82 33.8088,-76 39.8088,-70 45.8088,-70 45.8088,-70 172.1582,-70 172.1582,-70 178.1582,-70 184.1582,-76 184.1582,-82 184.1582,-82 184.1582,-94 184.1582,-94 184.1582,-100 178.1582,-106 172.1582,-106"/>
<text text-anchor="middle" x="108.9835" y="-83.8" font-family="Arial" font-size="14.00" fill="#333333">lb&#45;*:nginx&#45;&gt;app&#45;*:rails</text>
</g>
<!-- networks:lb&#45;*:nginx&#45;&gt;app&#45;*:rails&#45;&gt;ndiag:internal -->
<g id="edge3" class="edge">
<title>networks:lb&#45;*:nginx&#45;&gt;app&#45;*:rails&#45;&gt;ndiag:internal</title>
<path fill="none" stroke="#333333" stroke-width="2" stroke-opacity="0.600000" d="M184.5219,-97.5C184.5219,-97.5 227.7598,-97.5 227.7598,-97.5"/>
<polygon fill="#333333" fill-opacity="0.600000" stroke="#333333" stroke-width="2" stroke-opacity="0.600000" points="227.7598,-101.0001 237.7598,-97.5 227.7597,-94.0001 227.7598,-101.0001"/>
</g>
<!-- networks:app&#45;*:rails&#45;&gt;db&#45;*:postgresql -->
<g id="node4" class="node">
<title>networks:app&#45;*:rails&#45;&gt;db&#45;*:postgresql</title>
<path fill="#ffffff" stroke="#4b75b9" stroke-width="3" d="M189.9505,-52C189.9505,-52 28.0165,-52 28.0165,-52 22.0165,-52 16.0165,-46 16.0165,-40 16.0165,-40 16.0165,-28 16.0165,-28 16.0165,-22 22.0165,-16 28.0165,-16 28.0165,-16 189.9505,-16 189.9505,-16 195.9505,-16 201.9505,-22 201.9505,-28 201.9505,-28 201.9505,-40 201.9505,-40 201.9505,-46 195.9505,-52 189.9505,-52"/>
<text text-anchor="middle" x="108.9835" y="-29.8" font-family="Arial" font-size="14.00" fill="#333333">app&#45;*:rails&#45;&gt;db&#45;*:postgresql</text>
</g>
<!-- networks:app&#45;*:rails&#45;&gt;db&#45;*:postgresql&#45;&gt;ndiag:internal -->
<g id="edge4" class="edge">
<title>networks:app&#45;*:rails&#45;&gt;db&#45;*:postgresql&#45;&gt;ndiag:internal</title>
<path fill="none" stroke="#333333" stroke-width="2" stroke-opacity="0.600000" d="M195.967,-52.0091C195.967,-68.0494 195.967,-89 195.967,-89 195.967,-89 227.7205,-89 227.7205,-89"/>
<polygon fill="#333333" fill-opacity="0.600000" stroke="#333333" stroke-width="2" stroke-opacity="0.600000" points="227.7205,-92.5001 237.7205,-89 227.7204,-85.5001 227.7205,-92.5001"/>
</g>
</g>
</svg>
