<?xml version="1.0" encoding="UTF-8" standalone="no"?>
<!DOCTYPE svg PUBLIC "-//W3C//DTD SVG 1.1//EN"
 "http://www.w3.org/Graphics/SVG/1.1/DTD/svg11.dtd">
<!-- Generated by graphviz version 12.1.2 (20240928.0832)
 -->
<!-- Title: ndiag Pages: 1 -->
<svg width="305pt" height="178pt" viewBox="0.00 0.00 304.92 178.00" xmlns="http://www.w3.org/2000/svg" xmlns:xlink="http://www.w3.org/1999/xlink">
<g id="graph0" class="graph" transform="scale(1 1) rotate(0) translate(4 174)">
<title>ndiag</title>
<polygon fill="white" stroke="none" points="-4,4 -4,-174 300.92,-174 300.92,4 -4,4"></polygon>
<g id="clust1" class="cluster">
<title>cluster_input files</title>
<polygon fill="none" stroke="black" stroke-width="2" points="54.43,-8 54.43,-85 129.58,-85 129.58,-8 54.43,-8"></polygon>
<text text-anchor="middle" x="92" y="-68.4" font-family="Arial" font-size="14.00">input files</text>
</g>
<g id="clust2" class="cluster">
<title>cluster_ndiag</title>
<polygon fill="none" stroke="black" stroke-width="2" points="211.01,-85 211.01,-162 288.92,-162 288.92,-85 211.01,-85"></polygon>
<text text-anchor="middle" x="249.96" y="-145.4" font-family="Arial" font-size="14.00">ndiag</text>
</g>
<!-- none -->
<g id="node1" class="node">
<title>none</title>
<text text-anchor="middle" x="91.5" y="-29.8" font-family="Times,serif" font-size="14.00">none</text>
</g>
<!-- ndiag:internal -->
<g id="node2" class="node">
<title>ndiag:internal</title>
<path fill="#ffffff" stroke="#4b75b9" stroke-width="3" d="M268.92,-129C268.92,-129 231.01,-129 231.01,-129 225.01,-129 219.01,-123 219.01,-117 219.01,-117 219.01,-105 219.01,-105 219.01,-99 225.01,-93 231.01,-93 231.01,-93 268.92,-93 268.92,-93 274.92,-93 280.92,-99 280.92,-105 280.92,-105 280.92,-117 280.92,-117 280.92,-123 274.92,-129 268.92,-129"></path>
<text text-anchor="middle" x="249.96" y="-106.8" font-family="Arial" font-size="14.00" fill="#333333">internal</text>
</g>
<!-- input files:ndiag.yml -->
<g id="node3" class="node">
<title>input files:ndiag.yml</title>
<ellipse fill="none" stroke="black" cx="91.5" cy="-111" rx="91.5" ry="18"></ellipse>
<text text-anchor="middle" x="91.5" y="-106.8" font-family="Times,serif" font-size="14.00">input files:ndiag.yml</text>
</g>
<!-- input files:ndiag.yml&#45;&gt;ndiag:internal -->
<g id="edge-0" class="edge">
<title>input files:ndiag.yml-&gt;ndiag:internal</title>
<path fill="none" stroke="#333333" stroke-width="2" stroke-opacity="0.600000" d="M183.22,-111C183.22,-111 207.22,-111 207.22,-111"></path>
<polygon fill="#333333" fill-opacity="0.600000" stroke="#333333" stroke-width="2" stroke-opacity="0.600000" points="205.7,-114.5 215.7,-111 205.7,-107.5 205.7,-114.5"></polygon>
</g>
</g>
</svg>
