<?xml version="1.0" encoding="UTF-8" standalone="no"?>
<!DOCTYPE svg PUBLIC "-//W3C//DTD SVG 1.1//EN"
 "http://www.w3.org/Graphics/SVG/1.1/DTD/svg11.dtd">
<!-- Generated by graphviz version 12.1.2 (20240928.0832)
 -->
<!-- Title: ndiag Pages: 1 -->
<svg width="413pt" height="186pt" viewBox="0.00 0.00 412.73 186.00" xmlns="http://www.w3.org/2000/svg" xmlns:xlink="http://www.w3.org/1999/xlink">
<g id="graph0" class="graph" transform="scale(1 1) rotate(0) translate(4 182)">
<title>ndiag</title>
<polygon fill="white" stroke="none" points="-4,4 -4,-182 408.73,-182 408.73,4 -4,4"></polygon>
<g id="clust1" class="cluster">
<title>cluster_ndiag</title>
<polygon fill="none" stroke="black" stroke-width="2" points="8,-8 8,-85 85.92,-85 85.92,-8 8,-8"></polygon>
<text text-anchor="middle" x="46.96" y="-68.4" font-family="Arial" font-size="14.00">ndiag</text>
</g>
<g id="clust2" class="cluster">
<title>cluster_documents</title>
<polygon fill="none" stroke="black" stroke-width="2" points="5.22,-93 5.22,-170 89.7,-170 89.7,-93 5.22,-93"></polygon>
<text text-anchor="middle" x="47.46" y="-153.4" font-family="Arial" font-size="14.00">documents</text>
</g>
<!-- ndiag:internal -->
<g id="node1" class="node">
<title>ndiag:internal</title>
<path fill="#ffffff" stroke="#4b75b9" stroke-width="3" d="M65.92,-52C65.92,-52 28,-52 28,-52 22,-52 16,-46 16,-40 16,-40 16,-28 16,-28 16,-22 22,-16 28,-16 28,-16 65.92,-16 65.92,-16 71.92,-16 77.92,-22 77.92,-28 77.92,-28 77.92,-40 77.92,-40 77.92,-46 71.92,-52 65.92,-52"></path>
<text text-anchor="middle" x="46.96" y="-29.8" font-family="Arial" font-size="14.00" fill="#333333">internal</text>
</g>
<!-- documents:layer based documents -->
<g id="node3" class="node">
<title>documents:layer based documents</title>
<ellipse fill="none" stroke="black" cx="261.21" cy="-34" rx="143.51" ry="18"></ellipse>
<text text-anchor="middle" x="261.21" y="-29.8" font-family="Times,serif" font-size="14.00">documents:layer based documents</text>
</g>
<!-- ndiag:internal&#45;&gt;documents:layer based documents -->
<g id="edge-0" class="edge">
<title>ndiag:internal-&gt;documents:layer based documents</title>
<path fill="none" stroke="#333333" stroke-width="2" stroke-opacity="0.600000" d="M78.11,-34C78.11,-34 106.01,-34 106.01,-34"></path>
<polygon fill="#333333" fill-opacity="0.600000" stroke="#333333" stroke-width="2" stroke-opacity="0.600000" points="104.5,-37.5 114.5,-34 104.5,-30.5 104.5,-37.5"></polygon>
</g>
<!-- none -->
<g id="node2" class="node">
<title>none</title>
<text text-anchor="middle" x="46.96" y="-114.8" font-family="Times,serif" font-size="14.00">none</text>
</g>
</g>
</svg>
