<?xml version="1.0" encoding="UTF-8" standalone="no"?>
<!DOCTYPE svg PUBLIC "-//W3C//DTD SVG 1.1//EN"
 "http://www.w3.org/Graphics/SVG/1.1/DTD/svg11.dtd">
<!-- Generated by graphviz version 12.1.2 (20240928.0832)
 -->
<!-- Title: ndiag Pages: 1 -->
<svg width="413pt" height="178pt" viewBox="0.00 0.00 412.74 178.00" xmlns="http://www.w3.org/2000/svg" xmlns:xlink="http://www.w3.org/1999/xlink">
<g id="graph0" class="graph" transform="scale(1 1) rotate(0) translate(4 174)">
<title>ndiag</title>
<polygon fill="white" stroke="none" points="-4,4 -4,-174 408.74,-174 408.74,4 -4,4"></polygon>
<g id="clust1" class="cluster">
<title>cluster_input files</title>
<polygon fill="none" stroke="black" stroke-width="2" points="108.34,-8 108.34,-85 183.49,-85 183.49,-8 108.34,-8"></polygon>
<text text-anchor="middle" x="145.91" y="-68.4" font-family="Arial" font-size="14.00">input files</text>
</g>
<g id="clust2" class="cluster">
<title>cluster_ndiag</title>
<polygon fill="none" stroke="black" stroke-width="2" points="318.83,-85 318.83,-162 396.74,-162 396.74,-85 318.83,-85"></polygon>
<text text-anchor="middle" x="357.79" y="-145.4" font-family="Arial" font-size="14.00">ndiag</text>
</g>
<!-- none -->
<g id="node1" class="node">
<title>none</title>
<text text-anchor="middle" x="145.41" y="-29.8" font-family="Times,serif" font-size="14.00">none</text>
</g>
<!-- ndiag:internal -->
<g id="node2" class="node">
<title>ndiag:internal</title>
<path fill="#ffffff" stroke="#4b75b9" stroke-width="3" d="M376.74,-129C376.74,-129 338.83,-129 338.83,-129 332.83,-129 326.83,-123 326.83,-117 326.83,-117 326.83,-105 326.83,-105 326.83,-99 332.83,-93 338.83,-93 338.83,-93 376.74,-93 376.74,-93 382.74,-93 388.74,-99 388.74,-105 388.74,-105 388.74,-117 388.74,-117 388.74,-123 382.74,-129 376.74,-129"></path>
<text text-anchor="middle" x="357.79" y="-106.8" font-family="Arial" font-size="14.00" fill="#333333">internal</text>
</g>
<!-- input files:ndiag.descriptions/*.md -->
<g id="node3" class="node">
<title>input files:ndiag.descriptions/*.md</title>
<ellipse fill="none" stroke="black" cx="145.41" cy="-111" rx="145.41" ry="18"></ellipse>
<text text-anchor="middle" x="145.41" y="-106.8" font-family="Times,serif" font-size="14.00">input files:ndiag.descriptions/*.md</text>
</g>
<!-- input files:ndiag.descriptions/*.md&#45;&gt;ndiag:internal -->
<g id="edge-0" class="edge">
<title>input files:ndiag.descriptions/*.md-&gt;ndiag:internal</title>
<path fill="none" stroke="#333333" stroke-width="2" stroke-opacity="0.600000" d="M291.17,-111C291.17,-111 315,-111 315,-111"></path>
<polygon fill="#333333" fill-opacity="0.600000" stroke="#333333" stroke-width="2" stroke-opacity="0.600000" points="313.49,-114.5 323.49,-111 313.49,-107.5 313.49,-114.5"></polygon>
</g>
</g>
</svg>
