<?xml version="1.0" encoding="UTF-8" standalone="no"?>
<!DOCTYPE svg PUBLIC "-//W3C//DTD SVG 1.1//EN"
 "http://www.w3.org/Graphics/SVG/1.1/DTD/svg11.dtd">
<!-- Generated by graphviz version 12.1.2 (20240928.0832)
 -->
<!-- Title: ndiag Pages: 1 -->
<svg width="307pt" height="250pt" viewBox="0.00 0.00 307.44 250.00" xmlns="http://www.w3.org/2000/svg" xmlns:xlink="http://www.w3.org/1999/xlink">
<g id="graph0" class="graph" transform="scale(1 1) rotate(0) translate(4 246)">
<title>ndiag</title>
<polygon fill="white" stroke="none" points="-4,4 -4,-246 303.44,-246 303.44,4 -4,4"></polygon>
<g id="clust1" class="cluster">
<title>cluster_type:input</title>
<path fill="#ffffff" stroke="#1f91be" stroke-width="2" d="M20,-8C20,-8 189.52,-8 189.52,-8 195.52,-8 201.52,-14 201.52,-20 201.52,-20 201.52,-222 201.52,-222 201.52,-228 195.52,-234 189.52,-234 189.52,-234 20,-234 20,-234 14,-234 8,-228 8,-222 8,-222 8,-20 8,-20 8,-14 14,-8 20,-8"></path>
<text text-anchor="middle" x="104.76" y="-217.4" font-family="Arial" font-size="14.00" fill="#333333">type:input</text>
</g>
<g id="clust2" class="cluster">
<title>cluster_input files</title>
<polygon fill="#ffffff" stroke="#333333" stroke-width="2" points="16,-16 16,-201 193.52,-201 193.52,-16 16,-16"></polygon>
<text text-anchor="middle" x="104.76" y="-184.4" font-family="Arial" font-size="14.00" fill="#333333">input files</text>
</g>
<g id="clust4" class="cluster">
<title>cluster_ndiag</title>
<polygon fill="none" stroke="black" stroke-width="2" points="213.52,-70 213.52,-147 291.44,-147 291.44,-70 213.52,-70"></polygon>
<text text-anchor="middle" x="252.48" y="-130.4" font-family="Arial" font-size="14.00">ndiag</text>
</g>
<!-- input files:ndiag.yml -->
<g id="node1" class="node">
<title>input files:ndiag.yml</title>
<path fill="#ffffff" stroke="#4b75b9" stroke-width="3" d="M130.72,-60C130.72,-60 78.8,-60 78.8,-60 72.8,-60 66.8,-54 66.8,-48 66.8,-48 66.8,-36 66.8,-36 66.8,-30 72.8,-24 78.8,-24 78.8,-24 130.72,-24 130.72,-24 136.72,-24 142.72,-30 142.72,-36 142.72,-36 142.72,-48 142.72,-48 142.72,-54 136.72,-60 130.72,-60"></path>
<text text-anchor="middle" x="104.76" y="-37.8" font-family="Arial" font-size="14.00" fill="#333333">ndiag.yml</text>
</g>
<!-- ndiag:internal -->
<g id="node4" class="node">
<title>ndiag:internal</title>
<path fill="#ffffff" stroke="#4b75b9" stroke-width="3" d="M271.44,-114C271.44,-114 233.52,-114 233.52,-114 227.52,-114 221.52,-108 221.52,-102 221.52,-102 221.52,-90 221.52,-90 221.52,-84 227.52,-78 233.52,-78 233.52,-78 271.44,-78 271.44,-78 277.44,-78 283.44,-84 283.44,-90 283.44,-90 283.44,-102 283.44,-102 283.44,-108 277.44,-114 271.44,-114"></path>
<text text-anchor="middle" x="252.48" y="-91.8" font-family="Arial" font-size="14.00" fill="#333333">internal</text>
</g>
<!-- input files:ndiag.yml&#45;&gt;ndiag:internal -->
<g id="edge-0" class="edge">
<title>input files:ndiag.yml-&gt;ndiag:internal</title>
<path fill="none" stroke="#333333" stroke-width="2" stroke-opacity="0.600000" d="M143.19,-42C186.96,-42 252.48,-42 252.48,-42 252.48,-42 252.48,-66.2 252.48,-66.2"></path>
<polygon fill="#333333" fill-opacity="0.600000" stroke="#333333" stroke-width="2" stroke-opacity="0.600000" points="248.98,-64.69 252.48,-74.69 255.98,-64.69 248.98,-64.69"></polygon>
</g>
<!-- input files:nodes.yml -->
<g id="node2" class="node">
<title>input files:nodes.yml</title>
<path fill="#ffffff" stroke="#4b75b9" stroke-width="3" d="M132.67,-114C132.67,-114 76.86,-114 76.86,-114 70.86,-114 64.86,-108 64.86,-102 64.86,-102 64.86,-90 64.86,-90 64.86,-84 70.86,-78 76.86,-78 76.86,-78 132.67,-78 132.67,-78 138.67,-78 144.67,-84 144.67,-90 144.67,-90 144.67,-102 144.67,-102 144.67,-108 138.67,-114 132.67,-114"></path>
<text text-anchor="middle" x="104.76" y="-91.8" font-family="Arial" font-size="14.00" fill="#333333">nodes.yml</text>
</g>
<!-- input files:nodes.yml&#45;&gt;ndiag:internal -->
<g id="edge-1" class="edge">
<title>input files:nodes.yml-&gt;ndiag:internal</title>
<path fill="none" stroke="#333333" stroke-width="2" stroke-opacity="0.600000" d="M145.13,-90C145.13,-90 209.55,-90 209.55,-90"></path>
<polygon fill="#333333" fill-opacity="0.600000" stroke="#333333" stroke-width="2" stroke-opacity="0.600000" points="208.04,-93.5 218.04,-90 208.04,-86.5 208.04,-93.5"></polygon>
</g>
<!-- input files:ndiag.descriptions/*.md -->
<g id="node3" class="node">
<title>input files:ndiag.descriptions/*.md</title>
<path fill="#ffffff" stroke="#4b75b9" stroke-width="3" d="M173.52,-168C173.52,-168 36,-168 36,-168 30,-168 24,-162 24,-156 24,-156 24,-144 24,-144 24,-138 30,-132 36,-132 36,-132 173.52,-132 173.52,-132 179.52,-132 185.52,-138 185.52,-144 185.52,-144 185.52,-156 185.52,-156 185.52,-162 179.52,-168 173.52,-168"></path>
<text text-anchor="middle" x="104.76" y="-145.8" font-family="Arial" font-size="14.00" fill="#333333">ndiag.descriptions/*.md</text>
</g>
<!-- input files:ndiag.descriptions/*.md&#45;&gt;ndiag:internal -->
<g id="edge-2" class="edge">
<title>input files:ndiag.descriptions/*.md-&gt;ndiag:internal</title>
<path fill="none" stroke="#333333" stroke-width="2" stroke-opacity="0.600000" d="M165.09,-131.58C165.09,-118.04 165.09,-102 165.09,-102 165.09,-102 209.91,-102 209.91,-102"></path>
<polygon fill="#333333" fill-opacity="0.600000" stroke="#333333" stroke-width="2" stroke-opacity="0.600000" points="208.4,-105.5 218.4,-102 208.4,-98.5 208.4,-105.5"></polygon>
</g>
</g>
</svg>
