<?xml version="1.0" encoding="UTF-8" standalone="no"?><!-- Generated by graphviz version 12.1.2 (20240928.0832)
 --><!-- Title: ndiag Pages: 1 --><svg width="409pt" height="340pt" viewBox="0.00 0.00 408.94 340.00" xmlns="http://www.w3.org/2000/svg" xmlns:xlink="http://www.w3.org/1999/xlink"><g id="graph0" class="graph" transform="scale(1 1) rotate(0) translate(4 336)"><title>ndiag</title><polygon fill="white" stroke="none" points="-4,4 -4,-336 404.94,-336 404.94,4 -4,4"></polygon><g id="clust1" class="cluster"><title>cluster_type:input</title><path fill="#ffffff" stroke="#1f91be" stroke-width="2" d="M172.67,-206C172.67,-206 342.19,-206 342.19,-206 348.19,-206 354.19,-212 354.19,-218 354.19,-218 354.19,-312 354.19,-312 354.19,-318 348.19,-324 342.19,-324 342.19,-324 172.67,-324 172.67,-324 166.67,-324 160.67,-318 160.67,-312 160.67,-312 160.67,-218 160.67,-218 160.67,-212 166.67,-206 172.67,-206"></path><text text-anchor="middle" x="257.43" y="-307.4" font-family="Arial" font-size="14.00" fill="#333333">type:input</text></g><g id="clust2" class="cluster"><title>cluster_input files</title><polygon fill="#ffffff" stroke="#333333" stroke-width="2" points="168.67,-214 168.67,-291 346.19,-291 346.19,-214 168.67,-214"></polygon><text text-anchor="middle" x="257.43" y="-274.4" font-family="Arial" font-size="14.00" fill="#333333">input files</text></g><g id="clust4" class="cluster"><title>cluster_ndiag</title><polygon fill="none" stroke="black" stroke-width="2" points="8,-100 8,-177 85.92,-177 85.92,-100 8,-100"></polygon><text text-anchor="middle" x="46.96" y="-160.4" font-family="Arial" font-size="14.00">ndiag</text></g><!-- input files:ndiag.descriptions/*.md --><g id="node1" class="node"><title>input files:ndiag.descriptions/*.md</title><path fill="#ffffff" stroke="#4b75b9" stroke-width="3" d="M326.19,-258C326.19,-258 188.67,-258 188.67,-258 182.67,-258 176.67,-252 176.67,-246 176.67,-246 176.67,-234 176.67,-234 176.67,-228 182.67,-222 188.67,-222 188.67,-222 326.19,-222 326.19,-222 332.19,-222 338.19,-228 338.19,-234 338.19,-234 338.19,-246 338.19,-246 338.19,-252 332.19,-258 326.19,-258"></path><text text-anchor="middle" x="257.43" y="-235.8" font-family="Arial" font-size="14.00" fill="#333333">ndiag.descriptions/*.md</text></g><!-- ndiag:internal --><g id="node2" class="node"><title>ndiag:internal</title><path fill="#ffffff" stroke="#4b75b9" stroke-width="3" d="M65.92,-144C65.92,-144 28,-144 28,-144 22,-144 16,-138 16,-132 16,-132 16,-120 16,-120 16,-114 22,-108 28,-108 28,-108 65.92,-108 65.92,-108 71.92,-108 77.92,-114 77.92,-120 77.92,-120 77.92,-132 77.92,-132 77.92,-138 71.92,-144 65.92,-144"></path><text text-anchor="middle" x="46.96" y="-121.8" font-family="Arial" font-size="14.00" fill="#333333">internal</text></g><!-- ndiag:internal&#45;&gt;input files:ndiag.descriptions/*.md --><g id="edge-0" class="edge"><title>ndiag:internal-&gt;input files:ndiag.descriptions/*.md</title><path fill="none" stroke="#333333" stroke-width="2" stroke-opacity="0.600000" d="M36.64,-155.83C36.64,-155.83 36.64,-240 36.64,-240 36.64,-240 164.96,-240 164.96,-240"></path><polygon fill="#333333" fill-opacity="0.600000" stroke="#333333" stroke-width="2" stroke-opacity="0.600000" points="40.14,-157.34 36.64,-147.34 33.14,-157.34 40.14,-157.34"></polygon><polygon fill="#333333" fill-opacity="0.600000" stroke="#333333" stroke-width="2" stroke-opacity="0.600000" points="163.44,-243.5 173.44,-240 163.44,-236.5 163.44,-243.5"></polygon></g><!-- documents:index document --><g id="node3" class="node"><title>documents:index document</title><ellipse fill="none" stroke="black" cx="257.43" cy="-180" rx="117.51" ry="18"></ellipse><text text-anchor="middle" x="257.43" y="-175.8" font-family="Times,serif" font-size="14.00">documents:index document</text></g><!-- ndiag:internal&#45;&gt;documents:index document --><g id="edge-1" class="edge"><title>ndiag:internal-&gt;documents:index document</title><path fill="none" stroke="#333333" stroke-width="2" stroke-opacity="0.600000" d="M57.28,-144.28C57.28,-159.95 57.28,-180 57.28,-180 57.28,-180 128.04,-180 128.04,-180"></path><polygon fill="#333333" fill-opacity="0.600000" stroke="#333333" stroke-width="2" stroke-opacity="0.600000" points="126.53,-183.5 136.53,-180 126.53,-176.5 126.53,-183.5"></polygon></g><!-- documents:custom documents --><g id="node4" class="node"><title>documents:custom documents</title><ellipse fill="none" stroke="black" cx="257.43" cy="-126" rx="127.71" ry="18"></ellipse><text text-anchor="middle" x="257.43" y="-121.8" font-family="Times,serif" font-size="14.00">documents:custom documents</text></g><!-- ndiag:internal&#45;&gt;documents:custom documents --><g id="edge-2" class="edge"><title>ndiag:internal-&gt;documents:custom documents</title><path fill="none" stroke="#333333" stroke-width="2" stroke-opacity="0.600000" d="M78.01,-132C78.01,-132 124.76,-132 124.76,-132"></path><polygon fill="#333333" fill-opacity="0.600000" stroke="#333333" stroke-width="2" stroke-opacity="0.600000" points="123.25,-135.5 133.25,-132 123.25,-128.5 123.25,-135.5"></polygon></g><!-- documents:layer based documents --><g id="node5" class="node"><title>documents:layer based documents</title><ellipse fill="none" stroke="black" cx="257.43" cy="-72" rx="143.51" ry="18"></ellipse><text text-anchor="middle" x="257.43" y="-67.8" font-family="Times,serif" font-size="14.00">documents:layer based documents</text></g><!-- ndiag:internal&#45;&gt;documents:layer based documents --><g id="edge-3" class="edge"><title>ndiag:internal-&gt;documents:layer based documents</title><path fill="none" stroke="#333333" stroke-width="2" stroke-opacity="0.600000" d="M78.27,-120C98.79,-120 121.82,-120 121.82,-120 121.82,-120 121.82,-89.4 121.82,-89.4"></path><polygon fill="#333333" fill-opacity="0.600000" stroke="#333333" stroke-width="2" stroke-opacity="0.600000" points="125.32,-90.91 121.82,-80.91 118.32,-90.91 125.32,-90.91"></polygon></g><!-- documents:label based documents --><g id="node6" class="node"><title>documents:label based documents</title><ellipse fill="none" stroke="black" cx="257.43" cy="-18" rx="142.98" ry="18"></ellipse><text text-anchor="middle" x="257.43" y="-13.8" font-family="Times,serif" font-size="14.00">documents:label based documents</text></g><!-- ndiag:internal&#45;&gt;documents:label based documents --><g id="edge-4" class="edge"><title>ndiag:internal-&gt;documents:label based documents</title><path fill="none" stroke="#333333" stroke-width="2" stroke-opacity="0.600000" d="M46.96,-107.68C46.96,-76.87 46.96,-18 46.96,-18 46.96,-18 102.62,-18 102.62,-18"></path><polygon fill="#333333" fill-opacity="0.600000" stroke="#333333" stroke-width="2" stroke-opacity="0.600000" points="101.1,-21.5 111.1,-18 101.1,-14.5 101.1,-21.5"></polygon></g></g></svg>