<?xml version="1.0" encoding="UTF-8" standalone="no"?>
<!DOCTYPE svg PUBLIC "-//W3C//DTD SVG 1.1//EN"
 "http://www.w3.org/Graphics/SVG/1.1/DTD/svg11.dtd">
<!-- Generated by graphviz version 12.1.2 (20240928.0832)
 -->
<!-- Title: ndiag Pages: 1 -->
<svg width="116pt" height="101pt" viewBox="0.00 0.00 116.00 100.80" xmlns="http://www.w3.org/2000/svg" xmlns:xlink="http://www.w3.org/1999/xlink">
<g id="graph0" class="graph" transform="scale(1 1) rotate(0) translate(4 96.8)">
<title>ndiag</title>
<polygon fill="white" stroke="none" points="-4,4 -4,-96.8 112,-96.8 112,4 -4,4"></polygon>
<g id="clust1" class="cluster">
<title>cluster_app</title>
<polygon fill="none" stroke="black" stroke-width="2" points="8,-8 8,-84.8 100,-84.8 100,-8 8,-8"></polygon>
<text text-anchor="middle" x="54" y="-68.2" font-family="Arial" font-size="14.00">app (3)</text>
</g>
<!-- app:rails app -->
<g id="node1" class="node">
<title>app:rails app</title>
<path fill="#ffffff" stroke="#4b75b9" stroke-width="3" d="M79.96,-52C79.96,-52 28.04,-52 28.04,-52 22.04,-52 16.04,-46 16.04,-40 16.04,-40 16.04,-28 16.04,-28 16.04,-22 22.04,-16 28.04,-16 28.04,-16 79.96,-16 79.96,-16 85.96,-16 91.96,-22 91.96,-28 91.96,-28 91.96,-40 91.96,-40 91.96,-46 85.96,-52 79.96,-52"></path>
<text text-anchor="middle" x="54" y="-29.8" font-family="Arial" font-size="14.00" fill="#333333">Rails App</text>
</g>
</g>
</svg>
