<?xml version="1.0" encoding="UTF-8" standalone="no"?><!-- Generated by graphviz version 12.1.2 (20240928.0832)
 --><!-- Title: ndiag Pages: 1 --><svg width="214pt" height="378pt" viewBox="0.00 0.00 214.40 378.40" xmlns="http://www.w3.org/2000/svg" xmlns:xlink="http://www.w3.org/1999/xlink"><g id="graph0" class="graph" transform="scale(1 1) rotate(0) translate(4 374.4)"><title>ndiag</title><polygon fill="white" stroke="none" points="-4,4 -4,-374.4 210.4,-374.4 210.4,4 -4,4"></polygon><g id="clust1" class="cluster"><title>cluster_vip_group:lb</title><path fill="#ffffff" stroke="#b2cf3e" stroke-width="2" d="M59.35,-249.6C59.35,-249.6 127.35,-249.6 127.35,-249.6 133.35,-249.6 139.35,-255.6 139.35,-261.6 139.35,-261.6 139.35,-314.4 139.35,-314.4 139.35,-320.4 133.35,-326.4 127.35,-326.4 127.35,-326.4 59.35,-326.4 59.35,-326.4 53.35,-326.4 47.35,-320.4 47.35,-314.4 47.35,-314.4 47.35,-261.6 47.35,-261.6 47.35,-255.6 53.35,-249.6 59.35,-249.6"></path><text text-anchor="middle" x="93.35" y="-309.8" font-family="Arial" font-size="14.00" fill="#333333">vip_group:lb</text></g><g id="clust2" class="cluster"><title>cluster_lb</title><polygon fill="none" stroke="black" stroke-width="2" points="49.35,-164.8 49.35,-241.6 125.35,-241.6 125.35,-164.8 49.35,-164.8"></polygon><text text-anchor="middle" x="87.35" y="-225" font-family="Arial" font-size="14.00">lb (2)</text></g><g id="clust3" class="cluster"><title>cluster_app</title><polygon fill="none" stroke="black" stroke-width="2" points="41.35,-8 41.35,-156.8 133.35,-156.8 133.35,-8 41.35,-8"></polygon><text text-anchor="middle" x="87.35" y="-140.2" font-family="Arial" font-size="14.00">app (3)</text></g><!-- vip_group:lb:vip --><g id="node1" class="node"><title>vip_group:lb:vip</title><path fill="#ffffff" stroke="#4b75b9" stroke-width="3" d="M102.35,-293.6C102.35,-293.6 72.35,-293.6 72.35,-293.6 66.35,-293.6 60.35,-287.6 60.35,-281.6 60.35,-281.6 60.35,-269.6 60.35,-269.6 60.35,-263.6 66.35,-257.6 72.35,-257.6 72.35,-257.6 102.35,-257.6 102.35,-257.6 108.35,-257.6 114.35,-263.6 114.35,-269.6 114.35,-269.6 114.35,-281.6 114.35,-281.6 114.35,-287.6 108.35,-293.6 102.35,-293.6"></path><text text-anchor="middle" x="87.35" y="-271.4" font-family="Arial" font-size="14.00" fill="#333333">vip</text></g><!-- lb:nginx --><g id="node2" class="node"><title>lb:nginx</title><path fill="#ffffff" stroke="#4b75b9" stroke-width="3" d="M105.52,-208.8C105.52,-208.8 69.18,-208.8 69.18,-208.8 63.18,-208.8 57.18,-202.8 57.18,-196.8 57.18,-196.8 57.18,-184.8 57.18,-184.8 57.18,-178.8 63.18,-172.8 69.18,-172.8 69.18,-172.8 105.52,-172.8 105.52,-172.8 111.52,-172.8 117.52,-178.8 117.52,-184.8 117.52,-184.8 117.52,-196.8 117.52,-196.8 117.52,-202.8 111.52,-208.8 105.52,-208.8"></path><text text-anchor="middle" x="87.35" y="-186.6" font-family="Arial" font-size="14.00" fill="#333333">NGINX</text></g><!-- vip_group:lb:vip&#45;&gt;lb:nginx --><g id="edge-1" class="edge"><title>vip_group:lb:vip-&gt;lb:nginx</title><path fill="none" stroke="#333333" stroke-width="2" stroke-opacity="0.600000" d="M87.35,-257.2C87.35,-257.2 87.35,-220.68 87.35,-220.68"></path><polygon fill="#333333" fill-opacity="0.600000" stroke="#333333" stroke-width="2" stroke-opacity="0.600000" points="90.85,-222.19 87.35,-212.19 83.85,-222.19 90.85,-222.19"></polygon></g><!-- app:nginx --><g id="node3" class="node"><title>app:nginx</title><path fill="#ffffff" stroke="#4b75b9" stroke-width="3" d="M105.52,-124C105.52,-124 69.18,-124 69.18,-124 63.18,-124 57.18,-118 57.18,-112 57.18,-112 57.18,-100 57.18,-100 57.18,-94 63.18,-88 69.18,-88 69.18,-88 105.52,-88 105.52,-88 111.52,-88 117.52,-94 117.52,-100 117.52,-100 117.52,-112 117.52,-112 117.52,-118 111.52,-124 105.52,-124"></path><text text-anchor="middle" x="87.35" y="-101.8" font-family="Arial" font-size="14.00" fill="#333333">NGINX</text></g><!-- lb:nginx&#45;&gt;app:nginx --><g id="edge-2" class="edge"><title>lb:nginx-&gt;app:nginx</title><path fill="none" stroke="#333333" stroke-width="2" stroke-opacity="0.600000" d="M87.35,-172.4C87.35,-172.4 87.35,-135.88 87.35,-135.88"></path><polygon fill="#333333" fill-opacity="0.600000" stroke="#333333" stroke-width="2" stroke-opacity="0.600000" points="90.85,-137.39 87.35,-127.39 83.85,-137.39 90.85,-137.39"></polygon></g><!-- app:rails app --><g id="node4" class="node"><title>app:rails app</title><path fill="#ffffff" stroke="#4b75b9" stroke-width="3" d="M113.31,-52C113.31,-52 61.39,-52 61.39,-52 55.39,-52 49.39,-46 49.39,-40 49.39,-40 49.39,-28 49.39,-28 49.39,-22 55.39,-16 61.39,-16 61.39,-16 113.31,-16 113.31,-16 119.31,-16 125.31,-22 125.31,-28 125.31,-28 125.31,-40 125.31,-40 125.31,-46 119.31,-52 113.31,-52"></path><text text-anchor="middle" x="87.35" y="-29.8" font-family="Arial" font-size="14.00" fill="#333333">Rails App</text></g><!-- app:nginx&#45;&gt;app:rails app --><g id="edge-3" class="edge"><title>app:nginx-&gt;app:rails app</title><path fill="none" stroke="#333333" stroke-width="2" stroke-opacity="0.600000" d="M87.35,-87.83C87.35,-87.83 87.35,-63.93 87.35,-63.93"></path><polygon fill="#333333" fill-opacity="0.600000" stroke="#333333" stroke-width="2" stroke-opacity="0.600000" points="90.85,-65.44 87.35,-55.44 83.85,-65.44 90.85,-65.44"></polygon></g><!-- internet --><g id="node5" class="node"><title>internet</title><path fill="none" stroke="black" stroke-width="2" d="M50.7,-370.4C50.7,-370.4 12,-370.4 12,-370.4 6,-370.4 0,-364.4 0,-358.4 0,-358.4 0,-346.4 0,-346.4 0,-340.4 6,-334.4 12,-334.4 12,-334.4 50.7,-334.4 50.7,-334.4 56.7,-334.4 62.7,-340.4 62.7,-346.4 62.7,-346.4 62.7,-358.4 62.7,-358.4 62.7,-364.4 56.7,-370.4 50.7,-370.4"></path><text text-anchor="middle" x="31.35" y="-348.2" font-family="Arial" font-size="14.00">internet</text></g><!-- internet&#45;&gt;vip_group:lb:vip --><g id="edge-0" class="edge"><title>internet-&gt;vip_group:lb:vip</title><path fill="none" stroke="#333333" stroke-width="2" stroke-opacity="0.600000" d="M53.28,-334.2C53.28,-311.49 53.28,-275.6 53.28,-275.6 53.28,-275.6 53.94,-275.6 53.94,-275.6"></path><polygon fill="#333333" fill-opacity="0.600000" stroke="#333333" stroke-width="2" stroke-opacity="0.600000" points="46.83,-279.1 56.83,-275.6 46.83,-272.1 46.83,-279.1"></polygon></g><!-- lb:keepalived --><g id="node6" class="node"><title>lb:keepalived</title><ellipse fill="none" stroke="black" cx="143.35" cy="-352.4" rx="63.06" ry="18"></ellipse><text text-anchor="middle" x="143.35" y="-348.2" font-family="Times,serif" font-size="14.00">lb:keepalived</text></g><!-- lb:keepalived&#45;&gt;vip_group:lb:vip --><g id="edge-4" class="edge"><title>lb:keepalived-&gt;vip_group:lb:vip</title><path fill="none" stroke="#4b75b9" stroke-width="2" stroke-dasharray="5,2" d="M97.32,-339.72C97.32,-339.72 97.32,-303.05 97.32,-303.05"></path><ellipse fill="#4b75b9" stroke="#4b75b9" stroke-width="2" cx="97.32" cy="-299.05" rx="4" ry="4"></ellipse></g></g></svg>