<?xml version="1.0" encoding="UTF-8" standalone="no"?><!-- Generated by graphviz version 12.1.2 (20240928.0832)
 --><!-- Title: ndiag Pages: 1 --><svg width="160pt" height="188pt" viewBox="0.00 0.00 159.90 188.00" xmlns="http://www.w3.org/2000/svg" xmlns:xlink="http://www.w3.org/1999/xlink"><g id="graph0" class="graph" transform="scale(1 1) rotate(0) translate(4 184)"><title>ndiag</title><polygon fill="white" stroke="none" points="-4,4 -4,-184 155.9,-184 155.9,4 -4,4"></polygon><!-- vip_group:lb:vip --><g id="node1" class="node"><title>vip_group:lb:vip</title><ellipse fill="none" stroke="black" cx="75.95" cy="-90" rx="75.95" ry="18"></ellipse><text text-anchor="middle" x="75.95" y="-85.8" font-family="Times,serif" font-size="14.00">vip_group:lb:vip</text></g><!-- lb:nginx --><g id="node2" class="node"><title>lb:nginx</title><ellipse fill="none" stroke="black" cx="75.95" cy="-18" rx="43.23" ry="18"></ellipse><text text-anchor="middle" x="75.95" y="-13.8" font-family="Times,serif" font-size="14.00">lb:nginx</text></g><!-- vip_group:lb:vip&#45;&gt;lb:nginx --><g id="edge-0" class="edge"><title>vip_group:lb:vip-&gt;lb:nginx</title><path fill="none" stroke="#333333" stroke-width="2" stroke-opacity="0.600000" d="M75.95,-71.83C75.95,-71.83 75.95,-47.93 75.95,-47.93"></path><polygon fill="#333333" fill-opacity="0.600000" stroke="#333333" stroke-width="2" stroke-opacity="0.600000" points="79.45,-49.44 75.95,-39.44 72.45,-49.44 79.45,-49.44"></polygon></g><!-- lb:keepalived --><g id="node3" class="node"><title>lb:keepalived</title><ellipse fill="none" stroke="black" cx="75.95" cy="-162" rx="63.06" ry="18"></ellipse><text text-anchor="middle" x="75.95" y="-157.8" font-family="Times,serif" font-size="14.00">lb:keepalived</text></g><!-- lb:keepalived&#45;&gt;vip_group:lb:vip --><g id="edge-1" class="edge"><title>lb:keepalived-&gt;vip_group:lb:vip</title><path fill="none" stroke="#4b75b9" stroke-width="2" stroke-dasharray="5,2" d="M75.95,-143.83C75.95,-143.83 75.95,-117.41 75.95,-117.41"></path><ellipse fill="#4b75b9" stroke="#4b75b9" stroke-width="2" cx="75.95" cy="-113.41" rx="4" ry="4"></ellipse></g></g></svg>