<?xml version="1.0" encoding="UTF-8" standalone="no"?><!-- Generated by graphviz version 12.1.2 (20240928.0832)
 --><!-- Title: ndiag Pages: 1 --><svg width="232pt" height="334pt" viewBox="0.00 0.00 232.00 334.40" xmlns="http://www.w3.org/2000/svg" xmlns:xlink="http://www.w3.org/1999/xlink"><g id="graph0" class="graph" transform="scale(1 1) rotate(0) translate(4 330.4)"><title>ndiag</title><polygon fill="white" stroke="none" points="-4,4 -4,-330.4 228,-330.4 228,4 -4,4"></polygon><g id="clust1" class="cluster"><title>cluster_consul:dc1</title><path fill="#ffffff" stroke="#1f91be" stroke-width="2" d="M20,-8C20,-8 204,-8 204,-8 210,-8 216,-14 216,-20 216,-20 216,-270.4 216,-270.4 216,-276.4 210,-282.4 204,-282.4 204,-282.4 20,-282.4 20,-282.4 14,-282.4 8,-276.4 8,-270.4 8,-270.4 8,-20 8,-20 8,-14 14,-8 20,-8"></path><text text-anchor="middle" x="112" y="-265.8" font-family="Arial" font-size="14.00" fill="#333333">Consul:dc1</text></g><g id="clust2" class="cluster"><title>cluster_app</title><polygon fill="#ffffff" stroke="#333333" stroke-width="2" points="16,-100.8 16,-249.6 108,-249.6 108,-100.8 16,-100.8"></polygon><text text-anchor="middle" x="62" y="-233" font-family="Arial" font-size="14.00" fill="#333333">app (3)</text></g><g id="clust3" class="cluster"><title>cluster_db</title><polygon fill="#ffffff" stroke="#333333" stroke-width="2" points="16,-16 16,-92.8 124,-92.8 124,-16 16,-16"></polygon><text text-anchor="middle" x="70" y="-76.2" font-family="Arial" font-size="14.00" fill="#333333">db (2)</text></g><g id="clust4" class="cluster"><title>cluster_vip_group:lb</title><path fill="#ffffff" stroke="#b2cf3e" stroke-width="2" d="M128,-172.8C128,-172.8 196,-172.8 196,-172.8 202,-172.8 208,-178.8 208,-184.8 208,-184.8 208,-237.6 208,-237.6 208,-243.6 202,-249.6 196,-249.6 196,-249.6 128,-249.6 128,-249.6 122,-249.6 116,-243.6 116,-237.6 116,-237.6 116,-184.8 116,-184.8 116,-178.8 122,-172.8 128,-172.8"></path><text text-anchor="middle" x="162" y="-233" font-family="Arial" font-size="14.00" fill="#333333">vip_group:lb</text></g><!-- app:nginx --><g id="node1" class="node"><title>app:nginx</title><path fill="#ffffff" stroke="#4b75b9" stroke-width="3" d="M80.17,-216.8C80.17,-216.8 43.83,-216.8 43.83,-216.8 37.83,-216.8 31.83,-210.8 31.83,-204.8 31.83,-204.8 31.83,-192.8 31.83,-192.8 31.83,-186.8 37.83,-180.8 43.83,-180.8 43.83,-180.8 80.17,-180.8 80.17,-180.8 86.17,-180.8 92.17,-186.8 92.17,-192.8 92.17,-192.8 92.17,-204.8 92.17,-204.8 92.17,-210.8 86.17,-216.8 80.17,-216.8"></path><text text-anchor="middle" x="62" y="-194.6" font-family="Arial" font-size="14.00" fill="#333333">NGINX</text></g><!-- app:rails app --><g id="node2" class="node"><title>app:rails app</title><path fill="#ffffff" stroke="#4b75b9" stroke-width="3" d="M87.96,-144.8C87.96,-144.8 36.04,-144.8 36.04,-144.8 30.04,-144.8 24.04,-138.8 24.04,-132.8 24.04,-132.8 24.04,-120.8 24.04,-120.8 24.04,-114.8 30.04,-108.8 36.04,-108.8 36.04,-108.8 87.96,-108.8 87.96,-108.8 93.96,-108.8 99.96,-114.8 99.96,-120.8 99.96,-120.8 99.96,-132.8 99.96,-132.8 99.96,-138.8 93.96,-144.8 87.96,-144.8"></path><text text-anchor="middle" x="62" y="-122.6" font-family="Arial" font-size="14.00" fill="#333333">Rails App</text></g><!-- app:nginx&#45;&gt;app:rails app --><g id="edge-1" class="edge"><title>app:nginx-&gt;app:rails app</title><path fill="none" stroke="#333333" stroke-width="2" stroke-opacity="0.600000" d="M62,-180.63C62,-180.63 62,-156.73 62,-156.73"></path><polygon fill="#333333" fill-opacity="0.600000" stroke="#333333" stroke-width="2" stroke-opacity="0.600000" points="65.5,-158.24 62,-148.24 58.5,-158.24 65.5,-158.24"></polygon></g><!-- db:postgresql --><g id="node3" class="node"><title>db:postgresql</title><path fill="#ffffff" stroke="#4b75b9" stroke-width="3" d="M104.13,-60C104.13,-60 35.87,-60 35.87,-60 29.87,-60 23.87,-54 23.87,-48 23.87,-48 23.87,-36 23.87,-36 23.87,-30 29.87,-24 35.87,-24 35.87,-24 104.13,-24 104.13,-24 110.13,-24 116.13,-30 116.13,-36 116.13,-36 116.13,-48 116.13,-48 116.13,-54 110.13,-60 104.13,-60"></path><text text-anchor="middle" x="70" y="-37.8" font-family="Arial" font-size="14.00" fill="#333333">PostgreSQL</text></g><!-- app:rails app&#45;&gt;db:postgresql --><g id="edge-2" class="edge"><title>app:rails app-&gt;db:postgresql</title><path fill="none" stroke="#333333" stroke-width="2" stroke-opacity="0.600000" d="M62,-108.4C62,-108.4 62,-71.88 62,-71.88"></path><polygon fill="#333333" fill-opacity="0.600000" stroke="#333333" stroke-width="2" stroke-opacity="0.600000" points="65.5,-73.39 62,-63.39 58.5,-73.39 65.5,-73.39"></polygon></g><!-- vip_group:lb:vip --><g id="node4" class="node"><title>vip_group:lb:vip</title><path fill="#ffffff" stroke="#4b75b9" stroke-width="3" d="M177,-216.8C177,-216.8 147,-216.8 147,-216.8 141,-216.8 135,-210.8 135,-204.8 135,-204.8 135,-192.8 135,-192.8 135,-186.8 141,-180.8 147,-180.8 147,-180.8 177,-180.8 177,-180.8 183,-180.8 189,-186.8 189,-192.8 189,-192.8 189,-204.8 189,-204.8 189,-210.8 183,-216.8 177,-216.8"></path><text text-anchor="middle" x="162" y="-194.6" font-family="Arial" font-size="14.00" fill="#333333">vip</text></g><!-- lb:nginx --><g id="node5" class="node"><title>lb:nginx</title><ellipse fill="none" stroke="black" cx="62" cy="-308.4" rx="43.23" ry="18"></ellipse><text text-anchor="middle" x="62" y="-304.2" font-family="Times,serif" font-size="14.00">lb:nginx</text></g><!-- lb:nginx&#45;&gt;app:nginx --><g id="edge-0" class="edge"><title>lb:nginx-&gt;app:nginx</title><path fill="none" stroke="#333333" stroke-width="2" stroke-opacity="0.600000" d="M62,-290.3C62,-290.3 62,-228.8 62,-228.8"></path><polygon fill="#333333" fill-opacity="0.600000" stroke="#333333" stroke-width="2" stroke-opacity="0.600000" points="65.5,-230.32 62,-220.32 58.5,-230.32 65.5,-230.32"></polygon></g></g></svg>