<?xml version="1.0" encoding="UTF-8" standalone="no"?>
<!DOCTYPE svg PUBLIC "-//W3C//DTD SVG 1.1//EN"
 "http://www.w3.org/Graphics/SVG/1.1/DTD/svg11.dtd">
<!-- Generated by graphviz version 12.1.2 (20240928.0832)
 -->
<!-- Title: ndiag Pages: 1 -->
<svg width="204pt" height="270pt" viewBox="0.00 0.00 204.00 270.40" xmlns="http://www.w3.org/2000/svg" xmlns:xlink="http://www.w3.org/1999/xlink">
<g id="graph0" class="graph" transform="scale(1 1) rotate(0) translate(4 266.4)">
<title>ndiag</title>
<polygon fill="white" stroke="none" points="-4,4 -4,-266.4 200,-266.4 200,4 -4,4"></polygon>
<g id="clust1" class="cluster">
<title>cluster_vip_group:lb</title>
<path fill="#ffffff" stroke="#b2cf3e" stroke-width="2" d="M65,-177.6C65,-177.6 133,-177.6 133,-177.6 139,-177.6 145,-183.6 145,-189.6 145,-189.6 145,-242.4 145,-242.4 145,-248.4 139,-254.4 133,-254.4 133,-254.4 65,-254.4 65,-254.4 59,-254.4 53,-248.4 53,-242.4 53,-242.4 53,-189.6 53,-189.6 53,-183.6 59,-177.6 65,-177.6"></path>
<text text-anchor="middle" x="99" y="-237.8" font-family="Arial" font-size="14.00" fill="#333333">vip_group:lb</text>
</g>
<g id="clust2" class="cluster">
<title>cluster_lb</title>
<polygon fill="none" stroke="black" stroke-width="2" points="8,-92.8 8,-169.6 188,-169.6 188,-92.8 8,-92.8"></polygon>
<text text-anchor="middle" x="98" y="-153" font-family="Arial" font-size="14.00">lb (2)</text>
</g>
<g id="clust3" class="cluster">
<title>cluster_app</title>
<polygon fill="none" stroke="#999999" stroke-width="2" points="8,-8 8,-84.8 84,-84.8 84,-8 8,-8"></polygon>
<text text-anchor="middle" x="46" y="-68.2" font-family="Arial" font-size="14.00" fill="#666666">app (3)</text>
</g>
<!-- vip_group:lb:vip -->
<g id="node1" class="node">
<title>vip_group:lb:vip</title>
<path fill="#ffffff" stroke="#4b75b9" stroke-width="3" d="M104,-221.6C104,-221.6 74,-221.6 74,-221.6 68,-221.6 62,-215.6 62,-209.6 62,-209.6 62,-197.6 62,-197.6 62,-191.6 68,-185.6 74,-185.6 74,-185.6 104,-185.6 104,-185.6 110,-185.6 116,-191.6 116,-197.6 116,-197.6 116,-209.6 116,-209.6 116,-215.6 110,-221.6 104,-221.6"></path>
<text text-anchor="middle" x="89" y="-199.4" font-family="Arial" font-size="14.00" fill="#333333">vip</text>
</g>
<!-- lb:nginx -->
<g id="node2" class="node">
<title>lb:nginx</title>
<path fill="#ffffff" stroke="#4b75b9" stroke-width="3" d="M64.17,-136.8C64.17,-136.8 27.83,-136.8 27.83,-136.8 21.83,-136.8 15.83,-130.8 15.83,-124.8 15.83,-124.8 15.83,-112.8 15.83,-112.8 15.83,-106.8 21.83,-100.8 27.83,-100.8 27.83,-100.8 64.17,-100.8 64.17,-100.8 70.17,-100.8 76.17,-106.8 76.17,-112.8 76.17,-112.8 76.17,-124.8 76.17,-124.8 76.17,-130.8 70.17,-136.8 64.17,-136.8"></path>
<text text-anchor="middle" x="46" y="-114.6" font-family="Arial" font-size="14.00" fill="#333333">NGINX</text>
</g>
<!-- vip_group:lb:vip&#45;&gt;lb:nginx -->
<g id="edge1" class="edge">
<title>vip_group:lb:vip-&gt;lb:nginx</title>
<path fill="none" stroke="#333333" stroke-width="2" stroke-opacity="0.600000" d="M69.08,-185.2C69.08,-185.2 69.08,-148.68 69.08,-148.68"></path>
<polygon fill="#333333" fill-opacity="0.600000" stroke="#333333" stroke-width="2" stroke-opacity="0.600000" points="72.58,-150.19 69.08,-140.19 65.58,-150.19 72.58,-150.19"></polygon>
</g>
<!-- app:nginx -->
<g id="node4" class="node">
<title>app:nginx</title>
<path fill="#ffffff" stroke="#4b75b9" stroke-width="3" d="M64.17,-52C64.17,-52 27.83,-52 27.83,-52 21.83,-52 15.83,-46 15.83,-40 15.83,-40 15.83,-28 15.83,-28 15.83,-22 21.83,-16 27.83,-16 27.83,-16 64.17,-16 64.17,-16 70.17,-16 76.17,-22 76.17,-28 76.17,-28 76.17,-40 76.17,-40 76.17,-46 70.17,-52 64.17,-52"></path>
<text text-anchor="middle" x="46" y="-29.8" font-family="Arial" font-size="14.00" fill="#333333">NGINX</text>
</g>
<!-- lb:nginx&#45;&gt;app:nginx -->
<g id="edge2" class="edge">
<title>lb:nginx-&gt;app:nginx</title>
<path fill="none" stroke="#333333" stroke-width="2" stroke-opacity="0.600000" d="M46,-100.4C46,-100.4 46,-63.88 46,-63.88"></path>
<polygon fill="#333333" fill-opacity="0.600000" stroke="#333333" stroke-width="2" stroke-opacity="0.600000" points="49.5,-65.39 46,-55.39 42.5,-65.39 49.5,-65.39"></polygon>
</g>
<!-- lb:keepalived -->
<g id="node3" class="node">
<title>lb:keepalived</title>
<path fill="#ffffff" stroke="#4b75b9" stroke-width="3" d="M167.64,-136.8C167.64,-136.8 106.36,-136.8 106.36,-136.8 100.36,-136.8 94.36,-130.8 94.36,-124.8 94.36,-124.8 94.36,-112.8 94.36,-112.8 94.36,-106.8 100.36,-100.8 106.36,-100.8 106.36,-100.8 167.64,-100.8 167.64,-100.8 173.64,-100.8 179.64,-106.8 179.64,-112.8 179.64,-112.8 179.64,-124.8 179.64,-124.8 179.64,-130.8 173.64,-136.8 167.64,-136.8"></path>
<text text-anchor="middle" x="137" y="-114.6" font-family="Arial" font-size="14.00" fill="#333333">Keepalived</text>
</g>
<!-- lb:keepalived&#45;&gt;vip_group:lb:vip -->
<g id="edge3" class="edge">
<title>lb:keepalived-&gt;vip_group:lb:vip</title>
<path fill="none" stroke="#4b75b9" stroke-width="2" stroke-dasharray="5,2" d="M105.18,-137.2C105.18,-137.2 105.18,-176.24 105.18,-176.24"></path>
<ellipse fill="#4b75b9" stroke="#4b75b9" stroke-width="2" cx="105.18" cy="-180.24" rx="4" ry="4"></ellipse>
</g>
</g>
</svg>
