<?xml version="1.0" encoding="UTF-8" standalone="no"?>
<!DOCTYPE svg PUBLIC "-//W3C//DTD SVG 1.1//EN"
 "http://www.w3.org/Graphics/SVG/1.1/DTD/svg11.dtd">
<!-- Generated by graphviz version 12.1.2 (20240928.0832)
 -->
<!-- Title: ndiag Pages: 1 -->
<svg width="132pt" height="342pt" viewBox="0.00 0.00 132.00 342.40" xmlns="http://www.w3.org/2000/svg" xmlns:xlink="http://www.w3.org/1999/xlink">
<g id="graph0" class="graph" transform="scale(1 1) rotate(0) translate(4 338.4)">
<title>ndiag</title>
<polygon fill="white" stroke="none" points="-4,4 -4,-338.4 128,-338.4 128,4 -4,4"></polygon>
<g id="clust1" class="cluster">
<title>cluster_app</title>
<polygon fill="none" stroke="black" stroke-width="2" points="16,-92.8 16,-241.6 108,-241.6 108,-92.8 16,-92.8"></polygon>
<text text-anchor="middle" x="62" y="-225" font-family="Arial" font-size="14.00">app (3)</text>
</g>
<g id="clust2" class="cluster">
<title>cluster_lb</title>
<polygon fill="none" stroke="#999999" stroke-width="2" points="24,-249.6 24,-326.4 100,-326.4 100,-249.6 24,-249.6"></polygon>
<text text-anchor="middle" x="62" y="-309.8" font-family="Arial" font-size="14.00" fill="#666666">lb (2)</text>
</g>
<g id="clust3" class="cluster">
<title>cluster_db</title>
<polygon fill="none" stroke="#999999" stroke-width="2" points="8,-8 8,-84.8 116,-84.8 116,-8 8,-8"></polygon>
<text text-anchor="middle" x="62" y="-68.2" font-family="Arial" font-size="14.00" fill="#666666">db (2)</text>
</g>
<!-- app:nginx -->
<g id="node1" class="node">
<title>app:nginx</title>
<path fill="#ffffff" stroke="#4b75b9" stroke-width="3" d="M80.17,-208.8C80.17,-208.8 43.83,-208.8 43.83,-208.8 37.83,-208.8 31.83,-202.8 31.83,-196.8 31.83,-196.8 31.83,-184.8 31.83,-184.8 31.83,-178.8 37.83,-172.8 43.83,-172.8 43.83,-172.8 80.17,-172.8 80.17,-172.8 86.17,-172.8 92.17,-178.8 92.17,-184.8 92.17,-184.8 92.17,-196.8 92.17,-196.8 92.17,-202.8 86.17,-208.8 80.17,-208.8"></path>
<text text-anchor="middle" x="62" y="-186.6" font-family="Arial" font-size="14.00" fill="#333333">NGINX</text>
</g>
<!-- app:rails app -->
<g id="node2" class="node">
<title>app:rails app</title>
<path fill="#ffffff" stroke="#4b75b9" stroke-width="3" d="M87.96,-136.8C87.96,-136.8 36.04,-136.8 36.04,-136.8 30.04,-136.8 24.04,-130.8 24.04,-124.8 24.04,-124.8 24.04,-112.8 24.04,-112.8 24.04,-106.8 30.04,-100.8 36.04,-100.8 36.04,-100.8 87.96,-100.8 87.96,-100.8 93.96,-100.8 99.96,-106.8 99.96,-112.8 99.96,-112.8 99.96,-124.8 99.96,-124.8 99.96,-130.8 93.96,-136.8 87.96,-136.8"></path>
<text text-anchor="middle" x="62" y="-114.6" font-family="Arial" font-size="14.00" fill="#333333">Rails App</text>
</g>
<!-- app:nginx&#45;&gt;app:rails app -->
<g id="edge2" class="edge">
<title>app:nginx-&gt;app:rails app</title>
<path fill="none" stroke="#333333" stroke-width="2" stroke-opacity="0.600000" d="M62,-172.63C62,-172.63 62,-148.73 62,-148.73"></path>
<polygon fill="#333333" fill-opacity="0.600000" stroke="#333333" stroke-width="2" stroke-opacity="0.600000" points="65.5,-150.24 62,-140.24 58.5,-150.24 65.5,-150.24"></polygon>
</g>
<!-- db:postgresql -->
<g id="node4" class="node">
<title>db:postgresql</title>
<path fill="#ffffff" stroke="#4b75b9" stroke-width="3" d="M96.13,-52C96.13,-52 27.87,-52 27.87,-52 21.87,-52 15.87,-46 15.87,-40 15.87,-40 15.87,-28 15.87,-28 15.87,-22 21.87,-16 27.87,-16 27.87,-16 96.13,-16 96.13,-16 102.13,-16 108.13,-22 108.13,-28 108.13,-28 108.13,-40 108.13,-40 108.13,-46 102.13,-52 96.13,-52"></path>
<text text-anchor="middle" x="62" y="-29.8" font-family="Arial" font-size="14.00" fill="#333333">PostgreSQL</text>
</g>
<!-- app:rails app&#45;&gt;db:postgresql -->
<g id="edge3" class="edge">
<title>app:rails app-&gt;db:postgresql</title>
<path fill="none" stroke="#333333" stroke-width="2" stroke-opacity="0.600000" d="M62,-100.4C62,-100.4 62,-63.88 62,-63.88"></path>
<polygon fill="#333333" fill-opacity="0.600000" stroke="#333333" stroke-width="2" stroke-opacity="0.600000" points="65.5,-65.39 62,-55.39 58.5,-65.39 65.5,-65.39"></polygon>
</g>
<!-- lb:nginx -->
<g id="node3" class="node">
<title>lb:nginx</title>
<path fill="#ffffff" stroke="#4b75b9" stroke-width="3" d="M80.17,-293.6C80.17,-293.6 43.83,-293.6 43.83,-293.6 37.83,-293.6 31.83,-287.6 31.83,-281.6 31.83,-281.6 31.83,-269.6 31.83,-269.6 31.83,-263.6 37.83,-257.6 43.83,-257.6 43.83,-257.6 80.17,-257.6 80.17,-257.6 86.17,-257.6 92.17,-263.6 92.17,-269.6 92.17,-269.6 92.17,-281.6 92.17,-281.6 92.17,-287.6 86.17,-293.6 80.17,-293.6"></path>
<text text-anchor="middle" x="62" y="-271.4" font-family="Arial" font-size="14.00" fill="#333333">NGINX</text>
</g>
<!-- lb:nginx&#45;&gt;app:nginx -->
<g id="edge1" class="edge">
<title>lb:nginx-&gt;app:nginx</title>
<path fill="none" stroke="#333333" stroke-width="2" stroke-opacity="0.600000" d="M62,-257.2C62,-257.2 62,-220.68 62,-220.68"></path>
<polygon fill="#333333" fill-opacity="0.600000" stroke="#333333" stroke-width="2" stroke-opacity="0.600000" points="65.5,-222.19 62,-212.19 58.5,-222.19 65.5,-222.19"></polygon>
</g>
</g>
</svg>
