<?xml version="1.0" encoding="UTF-8" standalone="no"?><!-- Generated by graphviz version 12.1.2 (20240928.0832)
 --><!-- Title: ndiag Pages: 1 --><svg width="244pt" height="101pt" viewBox="0.00 0.00 244.18 101.00" xmlns="http://www.w3.org/2000/svg" xmlns:xlink="http://www.w3.org/1999/xlink"><g id="graph0" class="graph" transform="scale(1 1) rotate(0) translate(4 97)"><title>ndiag</title><polygon fill="white" stroke="none" points="-4,4 -4,-97 240.18,-97 240.18,4 -4,4"></polygon><g id="clust1" class="cluster"><title>cluster_app</title><polygon fill="none" stroke="black" stroke-width="2" points="8,-8 8,-85 99.92,-85 99.92,-8 8,-8"></polygon><text text-anchor="middle" x="53.96" y="-68.4" font-family="Arial" font-size="14.00">app</text></g><g id="clust2" class="cluster"><title>cluster_db</title><polygon fill="none" stroke="black" stroke-width="2" points="119.92,-8 119.92,-85 228.18,-85 228.18,-8 119.92,-8"></polygon><text text-anchor="middle" x="174.05" y="-68.4" font-family="Arial" font-size="14.00">db</text></g><!-- app:rails app --><g id="node1" class="node"><title>app:rails app</title><path fill="#ffffff" stroke="#4b75b9" stroke-width="3" d="M79.92,-52C79.92,-52 28,-52 28,-52 22,-52 16,-46 16,-40 16,-40 16,-28 16,-28 16,-22 22,-16 28,-16 28,-16 79.92,-16 79.92,-16 85.92,-16 91.92,-22 91.92,-28 91.92,-28 91.92,-40 91.92,-40 91.92,-46 85.92,-52 79.92,-52"></path><text text-anchor="middle" x="53.96" y="-29.8" font-family="Arial" font-size="14.00" fill="#333333">Rails App</text></g><!-- db:postgresql --><g id="node2" class="node"><title>db:postgresql</title><path fill="#ffffff" stroke="#4b75b9" stroke-width="3" d="M208.18,-52C208.18,-52 139.92,-52 139.92,-52 133.92,-52 127.92,-46 127.92,-40 127.92,-40 127.92,-28 127.92,-28 127.92,-22 133.92,-16 139.92,-16 139.92,-16 208.18,-16 208.18,-16 214.18,-16 220.18,-22 220.18,-28 220.18,-28 220.18,-40 220.18,-40 220.18,-46 214.18,-52 208.18,-52"></path><text text-anchor="middle" x="174.05" y="-29.8" font-family="Arial" font-size="14.00" fill="#333333">PostgreSQL</text></g><!-- app:rails app&#45;&gt;db:postgresql --><g id="edge-0" class="edge"><title>app:rails app-&gt;db:postgresql</title><path fill="none" stroke="#333333" stroke-width="2" stroke-opacity="0.600000" d="M92.29,-34C92.29,-34 116.17,-34 116.17,-34"></path><polygon fill="#333333" fill-opacity="0.600000" stroke="#333333" stroke-width="2" stroke-opacity="0.600000" points="114.65,-37.5 124.65,-34 114.65,-30.5 114.65,-37.5"></polygon></g></g></svg>