<?xml version="1.0" encoding="UTF-8" standalone="no"?><!-- Generated by graphviz version 12.1.2 (20240928.0832)
 --><!-- Title: ndiag Pages: 1 --><svg width="348pt" height="101pt" viewBox="0.00 0.00 347.57 101.00" xmlns="http://www.w3.org/2000/svg" xmlns:xlink="http://www.w3.org/1999/xlink"><g id="graph0" class="graph" transform="scale(1 1) rotate(0) translate(4 97)"><title>ndiag</title><polygon fill="white" stroke="none" points="-4,4 -4,-97 343.57,-97 343.57,4 -4,4"></polygon><g id="clust1" class="cluster"><title>cluster_lb</title><polygon fill="none" stroke="black" stroke-width="2" points="8,-8 8,-85 84.34,-85 84.34,-8 8,-8"></polygon><text text-anchor="middle" x="46.17" y="-68.4" font-family="Arial" font-size="14.00">lb</text></g><g id="clust2" class="cluster"><title>cluster_app</title><polygon fill="none" stroke="black" stroke-width="2" points="239.66,-8 239.66,-85 331.57,-85 331.57,-8 239.66,-8"></polygon><text text-anchor="middle" x="285.62" y="-68.4" font-family="Arial" font-size="14.00">app</text></g><!-- lb:nginx --><g id="node1" class="node"><title>lb:nginx</title><path fill="#ffffff" stroke="#4b75b9" stroke-width="3" d="M64.34,-52C64.34,-52 28,-52 28,-52 22,-52 16,-46 16,-40 16,-40 16,-28 16,-28 16,-22 22,-16 28,-16 28,-16 64.34,-16 64.34,-16 70.34,-16 76.34,-22 76.34,-28 76.34,-28 76.34,-40 76.34,-40 76.34,-46 70.34,-52 64.34,-52"></path><text text-anchor="middle" x="46.17" y="-29.8" font-family="Arial" font-size="14.00" fill="#333333">NGINX</text></g><!-- app:nginx --><g id="node3" class="node"><title>app:nginx</title><ellipse fill="none" stroke="black" cx="162" cy="-34" rx="49.66" ry="18"></ellipse><text text-anchor="middle" x="162" y="-29.8" font-family="Times,serif" font-size="14.00">app:nginx</text></g><!-- lb:nginx&#45;&gt;app:nginx --><g id="edge-0" class="edge"><title>lb:nginx-&gt;app:nginx</title><path fill="none" stroke="#333333" stroke-width="2" stroke-opacity="0.600000" d="M76.6,-34C76.6,-34 100.55,-34 100.55,-34"></path><polygon fill="#333333" fill-opacity="0.600000" stroke="#333333" stroke-width="2" stroke-opacity="0.600000" points="99.03,-37.5 109.03,-34 99.03,-30.5 99.03,-37.5"></polygon></g><!-- app:rails app --><g id="node2" class="node"><title>app:rails app</title><path fill="#ffffff" stroke="#4b75b9" stroke-width="3" d="M311.57,-52C311.57,-52 259.66,-52 259.66,-52 253.66,-52 247.66,-46 247.66,-40 247.66,-40 247.66,-28 247.66,-28 247.66,-22 253.66,-16 259.66,-16 259.66,-16 311.57,-16 311.57,-16 317.57,-16 323.57,-22 323.57,-28 323.57,-28 323.57,-40 323.57,-40 323.57,-46 317.57,-52 311.57,-52"></path><text text-anchor="middle" x="285.62" y="-29.8" font-family="Arial" font-size="14.00" fill="#333333">Rails App</text></g><!-- app:nginx&#45;&gt;app:rails app --><g id="edge-1" class="edge"><title>app:nginx-&gt;app:rails app</title><path fill="none" stroke="#333333" stroke-width="2" stroke-opacity="0.600000" d="M211.92,-34C211.92,-34 235.78,-34 235.78,-34"></path><polygon fill="#333333" fill-opacity="0.600000" stroke="#333333" stroke-width="2" stroke-opacity="0.600000" points="234.27,-37.5 244.27,-34 234.27,-30.5 234.27,-37.5"></polygon></g></g></svg>