<?xml version="1.0" encoding="UTF-8" standalone="no"?>
<!DOCTYPE svg PUBLIC "-//W3C//DTD SVG 1.1//EN"
 "http://www.w3.org/Graphics/SVG/1.1/DTD/svg11.dtd">
<!-- Generated by graphviz version 12.1.2 (20240928.0832)
 -->
<!-- Title: ndiag Pages: 1 -->
<svg width="134pt" height="193pt" viewBox="0.00 0.00 134.11 192.80" xmlns="http://www.w3.org/2000/svg" xmlns:xlink="http://www.w3.org/1999/xlink">
<g id="graph0" class="graph" transform="scale(1 1) rotate(0) translate(4 188.8)">
<title>ndiag</title>
<polygon fill="white" stroke="none" points="-4,4 -4,-188.8 130.11,-188.8 130.11,4 -4,4"></polygon>
<g id="clust1" class="cluster">
<title>cluster_vip_group:lb</title>
<path fill="#ffffff" stroke="#b2cf3e" stroke-width="2" d="M29.06,-64C29.06,-64 97.06,-64 97.06,-64 103.06,-64 109.06,-70 109.06,-76 109.06,-76 109.06,-128.8 109.06,-128.8 109.06,-134.8 103.06,-140.8 97.06,-140.8 97.06,-140.8 29.06,-140.8 29.06,-140.8 23.06,-140.8 17.06,-134.8 17.06,-128.8 17.06,-128.8 17.06,-76 17.06,-76 17.06,-70 23.06,-64 29.06,-64"></path>
<text text-anchor="middle" x="63.06" y="-124.2" font-family="Arial" font-size="14.00" fill="#333333">vip_group:lb</text>
</g>
<!-- vip_group:lb:vip -->
<g id="node1" class="node">
<title>vip_group:lb:vip</title>
<path fill="#ffffff" stroke="#4b75b9" stroke-width="3" d="M78.06,-108C78.06,-108 48.06,-108 48.06,-108 42.06,-108 36.06,-102 36.06,-96 36.06,-96 36.06,-84 36.06,-84 36.06,-78 42.06,-72 48.06,-72 48.06,-72 78.06,-72 78.06,-72 84.06,-72 90.06,-78 90.06,-84 90.06,-84 90.06,-96 90.06,-96 90.06,-102 84.06,-108 78.06,-108"></path>
<text text-anchor="middle" x="63.06" y="-85.8" font-family="Arial" font-size="14.00" fill="#333333">vip</text>
</g>
<!-- lb:nginx -->
<g id="node2" class="node">
<title>lb:nginx</title>
<ellipse fill="none" stroke="black" cx="63.06" cy="-18" rx="43.23" ry="18"></ellipse>
<text text-anchor="middle" x="63.06" y="-13.8" font-family="Times,serif" font-size="14.00">lb:nginx</text>
</g>
<!-- vip_group:lb:vip&#45;&gt;lb:nginx -->
<g id="edge-0" class="edge">
<title>vip_group:lb:vip-&gt;lb:nginx</title>
<path fill="none" stroke="#333333" stroke-width="2" stroke-opacity="0.600000" d="M63.06,-71.83C63.06,-71.83 63.06,-47.93 63.06,-47.93"></path>
<polygon fill="#333333" fill-opacity="0.600000" stroke="#333333" stroke-width="2" stroke-opacity="0.600000" points="66.56,-49.44 63.06,-39.44 59.56,-49.44 66.56,-49.44"></polygon>
</g>
<!-- lb:keepalived -->
<g id="node3" class="node">
<title>lb:keepalived</title>
<ellipse fill="none" stroke="black" cx="63.06" cy="-166.8" rx="63.06" ry="18"></ellipse>
<text text-anchor="middle" x="63.06" y="-162.6" font-family="Times,serif" font-size="14.00">lb:keepalived</text>
</g>
<!-- lb:keepalived&#45;&gt;vip_group:lb:vip -->
<g id="edge-1" class="edge">
<title>lb:keepalived-&gt;vip_group:lb:vip</title>
<path fill="none" stroke="#4b75b9" stroke-width="2" stroke-dasharray="5,2" d="M63.06,-148.6C63.06,-148.6 63.06,-117.34 63.06,-117.34"></path>
<ellipse fill="#4b75b9" stroke="#4b75b9" stroke-width="2" cx="63.06" cy="-113.34" rx="4" ry="4"></ellipse>
</g>
</g>
</svg>
