<?xml version="1.0" encoding="UTF-8" standalone="no"?><!-- Generated by graphviz version 2.40.1 (20161225.0304)
 --><!-- Title: ndiag Pages: 1 --><svg width="145pt" height="101pt" viewBox="0.00 0.00 145.00 100.80" xmlns="http://www.w3.org/2000/svg" xmlns:xlink="http://www.w3.org/1999/xlink"><g id="graph0" class="graph" transform="scale(1 1) rotate(0) translate(4 96.8)"><title>ndiag</title><polygon fill="#ffffff" stroke="transparent" points="-4,4 -4,-96.8 141,-96.8 141,4 -4,4"></polygon><g id="clust1" class="cluster"><title>cluster_service:payment</title><path fill="#ffffff" stroke="#f0ba32" stroke-width="2" d="M20,-8C20,-8 117,-8 117,-8 123,-8 129,-14 129,-20 129,-20 129,-72.8 129,-72.8 129,-78.8 123,-84.8 117,-84.8 117,-84.8 20,-84.8 20,-84.8 14,-84.8 8,-78.8 8,-72.8 8,-72.8 8,-20 8,-20 8,-14 14,-8 20,-8"></path><text text-anchor="middle" x="68.5" y="-68.2" font-family="Arial" font-size="14.00" fill="#333333">Service:Payment</text></g><!-- service:payment:payment api --><g id="node1" class="node"><title>service:payment:payment api</title><path fill="#ffffff" stroke="#4b75b9" stroke-width="3" d="M104.6905,-52C104.6905,-52 31.3095,-52 31.3095,-52 25.3095,-52 19.3095,-46 19.3095,-40 19.3095,-40 19.3095,-28 19.3095,-28 19.3095,-22 25.3095,-16 31.3095,-16 31.3095,-16 104.6905,-16 104.6905,-16 110.6905,-16 116.6905,-22 116.6905,-28 116.6905,-28 116.6905,-40 116.6905,-40 116.6905,-46 110.6905,-52 104.6905,-52"></path><text text-anchor="middle" x="68" y="-29.8" font-family="Arial" font-size="14.00" fill="#333333">Payment API</text></g></g></svg>