<?xml version="1.0" encoding="UTF-8" standalone="no"?><!-- Generated by graphviz version 12.1.2 (20240928.0832)
 --><!-- Title: ndiag Pages: 1 --><svg width="220pt" height="383pt" viewBox="0.00 0.00 220.00 383.20" xmlns="http://www.w3.org/2000/svg" xmlns:xlink="http://www.w3.org/1999/xlink"><g id="graph0" class="graph" transform="scale(1 1) rotate(0) translate(4 379.2)"><title>ndiag</title><polygon fill="white" stroke="none" points="-4,4 -4,-379.2 216,-379.2 216,4 -4,4"></polygon><g id="clust1" class="cluster"><title>cluster_consul:dc1</title><path fill="#ffffff" stroke="#1f91be" stroke-width="2" d="M20,-8C20,-8 192,-8 192,-8 198,-8 204,-14 204,-20 204,-20 204,-355.2 204,-355.2 204,-361.2 198,-367.2 192,-367.2 192,-367.2 20,-367.2 20,-367.2 14,-367.2 8,-361.2 8,-355.2 8,-355.2 8,-20 8,-20 8,-14 14,-8 20,-8"></path><text text-anchor="middle" x="106" y="-350.6" font-family="Arial" font-size="14.00" fill="#333333">Consul:dc1</text></g><g id="clust2" class="cluster"><title>cluster_lb</title><polygon fill="#ffffff" stroke="#333333" stroke-width="2" points="16,-257.6 16,-334.4 196,-334.4 196,-257.6 16,-257.6"></polygon><text text-anchor="middle" x="106" y="-317.8" font-family="Arial" font-size="14.00" fill="#333333">lb</text></g><g id="clust3" class="cluster"><title>cluster_app</title><polygon fill="#ffffff" stroke="#333333" stroke-width="2" points="24,-100.8 24,-249.6 100,-249.6 100,-100.8 24,-100.8"></polygon><text text-anchor="middle" x="62" y="-233" font-family="Arial" font-size="14.00" fill="#333333">app</text></g><g id="clust4" class="cluster"><title>cluster_db</title><polygon fill="#ffffff" stroke="#333333" stroke-width="2" points="16,-16 16,-92.8 124,-92.8 124,-16 16,-16"></polygon><text text-anchor="middle" x="70" y="-76.2" font-family="Arial" font-size="14.00" fill="#333333">db</text></g><!-- lb:nginx --><g id="node1" class="node"><title>lb:nginx</title><path fill="#ffffff" stroke="#4b75b9" stroke-width="3" d="M72.17,-301.6C72.17,-301.6 35.83,-301.6 35.83,-301.6 29.83,-301.6 23.83,-295.6 23.83,-289.6 23.83,-289.6 23.83,-277.6 23.83,-277.6 23.83,-271.6 29.83,-265.6 35.83,-265.6 35.83,-265.6 72.17,-265.6 72.17,-265.6 78.17,-265.6 84.17,-271.6 84.17,-277.6 84.17,-277.6 84.17,-289.6 84.17,-289.6 84.17,-295.6 78.17,-301.6 72.17,-301.6"></path><text text-anchor="middle" x="54" y="-279.4" font-family="Arial" font-size="14.00" fill="#333333">NGINX</text></g><!-- app:nginx --><g id="node3" class="node"><title>app:nginx</title><path fill="#ffffff" stroke="#4b75b9" stroke-width="3" d="M80.17,-216.8C80.17,-216.8 43.83,-216.8 43.83,-216.8 37.83,-216.8 31.83,-210.8 31.83,-204.8 31.83,-204.8 31.83,-192.8 31.83,-192.8 31.83,-186.8 37.83,-180.8 43.83,-180.8 43.83,-180.8 80.17,-180.8 80.17,-180.8 86.17,-180.8 92.17,-186.8 92.17,-192.8 92.17,-192.8 92.17,-204.8 92.17,-204.8 92.17,-210.8 86.17,-216.8 80.17,-216.8"></path><text text-anchor="middle" x="62" y="-194.6" font-family="Arial" font-size="14.00" fill="#333333">NGINX</text></g><!-- lb:nginx&#45;&gt;app:nginx --><g id="edge-0" class="edge"><title>lb:nginx-&gt;app:nginx</title><path fill="none" stroke="#333333" stroke-width="2" stroke-opacity="0.600000" d="M58,-265.2C58,-265.2 58,-228.68 58,-228.68"></path><polygon fill="#333333" fill-opacity="0.600000" stroke="#333333" stroke-width="2" stroke-opacity="0.600000" points="61.5,-230.19 58,-220.19 54.5,-230.19 61.5,-230.19"></polygon></g><!-- lb:keepalived --><g id="node2" class="node"><title>lb:keepalived</title><path fill="#ffffff" stroke="#4b75b9" stroke-width="3" d="M175.64,-301.6C175.64,-301.6 114.36,-301.6 114.36,-301.6 108.36,-301.6 102.36,-295.6 102.36,-289.6 102.36,-289.6 102.36,-277.6 102.36,-277.6 102.36,-271.6 108.36,-265.6 114.36,-265.6 114.36,-265.6 175.64,-265.6 175.64,-265.6 181.64,-265.6 187.64,-271.6 187.64,-277.6 187.64,-277.6 187.64,-289.6 187.64,-289.6 187.64,-295.6 181.64,-301.6 175.64,-301.6"></path><text text-anchor="middle" x="145" y="-279.4" font-family="Arial" font-size="14.00" fill="#333333">Keepalived</text></g><!-- app:app --><g id="node4" class="node"><title>app:app</title><path fill="#ffffff" stroke="#4b75b9" stroke-width="3" d="M78,-144.8C78,-144.8 48,-144.8 48,-144.8 42,-144.8 36,-138.8 36,-132.8 36,-132.8 36,-120.8 36,-120.8 36,-114.8 42,-108.8 48,-108.8 48,-108.8 78,-108.8 78,-108.8 84,-108.8 90,-114.8 90,-120.8 90,-120.8 90,-132.8 90,-132.8 90,-138.8 84,-144.8 78,-144.8"></path><text text-anchor="middle" x="63" y="-122.6" font-family="Arial" font-size="14.00" fill="#333333">App</text></g><!-- app:nginx&#45;&gt;app:app --><g id="edge-1" class="edge"><title>app:nginx-&gt;app:app</title><path fill="none" stroke="#333333" stroke-width="2" stroke-opacity="0.600000" d="M63,-180.63C63,-180.63 63,-156.73 63,-156.73"></path><polygon fill="#333333" fill-opacity="0.600000" stroke="#333333" stroke-width="2" stroke-opacity="0.600000" points="66.5,-158.24 63,-148.24 59.5,-158.24 66.5,-158.24"></polygon></g><!-- db:postgresql --><g id="node5" class="node"><title>db:postgresql</title><path fill="#ffffff" stroke="#4b75b9" stroke-width="3" d="M104.13,-60C104.13,-60 35.87,-60 35.87,-60 29.87,-60 23.87,-54 23.87,-48 23.87,-48 23.87,-36 23.87,-36 23.87,-30 29.87,-24 35.87,-24 35.87,-24 104.13,-24 104.13,-24 110.13,-24 116.13,-30 116.13,-36 116.13,-36 116.13,-48 116.13,-48 116.13,-54 110.13,-60 104.13,-60"></path><text text-anchor="middle" x="70" y="-37.8" font-family="Arial" font-size="14.00" fill="#333333">PostgreSQL</text></g><!-- app:app&#45;&gt;db:postgresql --><g id="edge-2" class="edge"><title>app:app-&gt;db:postgresql</title><path fill="none" stroke="#333333" stroke-width="2" stroke-opacity="0.600000" d="M63,-108.4C63,-108.4 63,-71.88 63,-71.88"></path><polygon fill="#333333" fill-opacity="0.600000" stroke="#333333" stroke-width="2" stroke-opacity="0.600000" points="66.5,-73.39 63,-63.39 59.5,-73.39 66.5,-73.39"></polygon></g></g></svg>