<?xml version="1.0" encoding="UTF-8" standalone="no"?><!-- Generated by graphviz version 12.1.2 (20240928.0832)
 --><!-- Title: ndiag Pages: 1 --><svg width="441pt" height="375pt" viewBox="0.00 0.00 441.35 375.20" xmlns="http://www.w3.org/2000/svg" xmlns:xlink="http://www.w3.org/1999/xlink"><g id="graph0" class="graph" transform="scale(1 1) rotate(0) translate(4 371.2)"><title>ndiag</title><polygon fill="white" stroke="none" points="-4,4 -4,-371.2 437.35,-371.2 437.35,4 -4,4"></polygon><g id="clust1" class="cluster"><title>cluster_vip_group:lb</title><path fill="#ffffff" stroke="#b2cf3e" stroke-width="2" d="M82.35,-164.8C82.35,-164.8 254.35,-164.8 254.35,-164.8 260.35,-164.8 266.35,-170.8 266.35,-176.8 266.35,-176.8 266.35,-347.2 266.35,-347.2 266.35,-353.2 260.35,-359.2 254.35,-359.2 254.35,-359.2 82.35,-359.2 82.35,-359.2 76.35,-359.2 70.35,-353.2 70.35,-347.2 70.35,-347.2 70.35,-176.8 70.35,-176.8 70.35,-170.8 76.35,-164.8 82.35,-164.8"></path><text text-anchor="middle" x="168.35" y="-342.6" font-family="Arial" font-size="14.00" fill="#333333">vip_group:lb</text></g><g id="clust2" class="cluster"><title>cluster_lb</title><polygon fill="#ffffff" stroke="#333333" stroke-width="2" points="78.35,-249.6 78.35,-326.4 258.35,-326.4 258.35,-249.6 78.35,-249.6"></polygon><text text-anchor="middle" x="168.35" y="-309.8" font-family="Arial" font-size="14.00" fill="#333333">lb</text></g><g id="clust3" class="cluster"><title>cluster_service:payment</title><path fill="#ffffff" stroke="#f0ba32" stroke-width="2" d="M200.35,-8C200.35,-8 297.35,-8 297.35,-8 303.35,-8 309.35,-14 309.35,-20 309.35,-20 309.35,-72.8 309.35,-72.8 309.35,-78.8 303.35,-84.8 297.35,-84.8 297.35,-84.8 200.35,-84.8 200.35,-84.8 194.35,-84.8 188.35,-78.8 188.35,-72.8 188.35,-72.8 188.35,-20 188.35,-20 188.35,-14 194.35,-8 200.35,-8"></path><text text-anchor="middle" x="248.85" y="-68.2" font-family="Arial" font-size="14.00" fill="#333333">Service:Payment</text></g><g id="clust5" class="cluster"><title>cluster_app</title><polygon fill="none" stroke="black" stroke-width="2" points="274.35,-92.8 274.35,-241.6 350.35,-241.6 350.35,-92.8 274.35,-92.8"></polygon><text text-anchor="middle" x="312.35" y="-225" font-family="Arial" font-size="14.00">app</text></g><g id="clust6" class="cluster"><title>cluster_db</title><polygon fill="none" stroke="black" stroke-width="2" points="317.35,-8 317.35,-84.8 425.35,-84.8 425.35,-8 317.35,-8"></polygon><text text-anchor="middle" x="371.35" y="-68.2" font-family="Arial" font-size="14.00">db</text></g><!-- lb:nginx --><g id="node1" class="node"><title>lb:nginx</title><path fill="#ffffff" stroke="#4b75b9" stroke-width="3" d="M238.52,-293.6C238.52,-293.6 202.18,-293.6 202.18,-293.6 196.18,-293.6 190.18,-287.6 190.18,-281.6 190.18,-281.6 190.18,-269.6 190.18,-269.6 190.18,-263.6 196.18,-257.6 202.18,-257.6 202.18,-257.6 238.52,-257.6 238.52,-257.6 244.52,-257.6 250.52,-263.6 250.52,-269.6 250.52,-269.6 250.52,-281.6 250.52,-281.6 250.52,-287.6 244.52,-293.6 238.52,-293.6"></path><text text-anchor="middle" x="220.35" y="-271.4" font-family="Arial" font-size="14.00" fill="#333333">NGINX</text></g><!-- app:nginx --><g id="node5" class="node"><title>app:nginx</title><path fill="#ffffff" stroke="#4b75b9" stroke-width="3" d="M330.52,-208.8C330.52,-208.8 294.18,-208.8 294.18,-208.8 288.18,-208.8 282.18,-202.8 282.18,-196.8 282.18,-196.8 282.18,-184.8 282.18,-184.8 282.18,-178.8 288.18,-172.8 294.18,-172.8 294.18,-172.8 330.52,-172.8 330.52,-172.8 336.52,-172.8 342.52,-178.8 342.52,-184.8 342.52,-184.8 342.52,-196.8 342.52,-196.8 342.52,-202.8 336.52,-208.8 330.52,-208.8"></path><text text-anchor="middle" x="312.35" y="-186.6" font-family="Arial" font-size="14.00" fill="#333333">NGINX</text></g><!-- lb:nginx&#45;&gt;app:nginx --><g id="edge-2" class="edge"><title>lb:nginx-&gt;app:nginx</title><path fill="none" stroke="#333333" stroke-width="2" stroke-opacity="0.600000" d="M227.01,-257.32C227.01,-234.05 227.01,-196.8 227.01,-196.8 227.01,-196.8 270.51,-196.8 270.51,-196.8"></path><polygon fill="#333333" fill-opacity="0.600000" stroke="#333333" stroke-width="2" stroke-opacity="0.600000" points="268.99,-200.3 278.99,-196.8 268.99,-193.3 268.99,-200.3"></polygon></g><!-- lb:keepalived --><g id="node2" class="node"><title>lb:keepalived</title><path fill="#ffffff" stroke="#4b75b9" stroke-width="3" d="M159.99,-293.6C159.99,-293.6 98.71,-293.6 98.71,-293.6 92.71,-293.6 86.71,-287.6 86.71,-281.6 86.71,-281.6 86.71,-269.6 86.71,-269.6 86.71,-263.6 92.71,-257.6 98.71,-257.6 98.71,-257.6 159.99,-257.6 159.99,-257.6 165.99,-257.6 171.99,-263.6 171.99,-269.6 171.99,-269.6 171.99,-281.6 171.99,-281.6 171.99,-287.6 165.99,-293.6 159.99,-293.6"></path><text text-anchor="middle" x="129.35" y="-271.4" font-family="Arial" font-size="14.00" fill="#333333">Keepalived</text></g><!-- vip_group:lb:vip --><g id="node3" class="node"><title>vip_group:lb:vip</title><path fill="#ffffff" stroke="#4b75b9" stroke-width="3" d="M144.35,-208.8C144.35,-208.8 114.35,-208.8 114.35,-208.8 108.35,-208.8 102.35,-202.8 102.35,-196.8 102.35,-196.8 102.35,-184.8 102.35,-184.8 102.35,-178.8 108.35,-172.8 114.35,-172.8 114.35,-172.8 144.35,-172.8 144.35,-172.8 150.35,-172.8 156.35,-178.8 156.35,-184.8 156.35,-184.8 156.35,-196.8 156.35,-196.8 156.35,-202.8 150.35,-208.8 144.35,-208.8"></path><text text-anchor="middle" x="129.35" y="-186.6" font-family="Arial" font-size="14.00" fill="#333333">vip</text></g><!-- lb:keepalived&#45;&gt;vip_group:lb:vip --><g id="edge-6" class="edge"><title>lb:keepalived-&gt;vip_group:lb:vip</title><path fill="none" stroke="#4b75b9" stroke-width="2" stroke-dasharray="5,2" d="M129.35,-257.2C129.35,-257.2 129.35,-218.16 129.35,-218.16"></path><ellipse fill="#4b75b9" stroke="#4b75b9" stroke-width="2" cx="129.35" cy="-214.16" rx="4" ry="4"></ellipse></g><!-- vip_group:lb:vip&#45;&gt;lb:nginx --><g id="edge-1" class="edge"><title>vip_group:lb:vip-&gt;lb:nginx</title><path fill="none" stroke="#333333" stroke-width="2" stroke-opacity="0.600000" d="M156.8,-184.8C175.48,-184.8 196.84,-184.8 196.84,-184.8 196.84,-184.8 196.84,-245.71 196.84,-245.71"></path><polygon fill="#333333" fill-opacity="0.600000" stroke="#333333" stroke-width="2" stroke-opacity="0.600000" points="193.34,-244.2 196.84,-254.2 200.34,-244.2 193.34,-244.2"></polygon></g><!-- service:payment:payment api --><g id="node4" class="node"><title>service:payment:payment api</title><path fill="#ffffff" stroke="#4b75b9" stroke-width="3" d="M289.2,-52C289.2,-52 215.5,-52 215.5,-52 209.5,-52 203.5,-46 203.5,-40 203.5,-40 203.5,-28 203.5,-28 203.5,-22 209.5,-16 215.5,-16 215.5,-16 289.2,-16 289.2,-16 295.2,-16 301.2,-22 301.2,-28 301.2,-28 301.2,-40 301.2,-40 301.2,-46 295.2,-52 289.2,-52"></path><text text-anchor="middle" x="252.35" y="-29.8" font-family="Arial" font-size="14.00" fill="#333333">Payment API</text></g><!-- app:app --><g id="node6" class="node"><title>app:app</title><path fill="#ffffff" stroke="#4b75b9" stroke-width="3" d="M327.35,-136.8C327.35,-136.8 297.35,-136.8 297.35,-136.8 291.35,-136.8 285.35,-130.8 285.35,-124.8 285.35,-124.8 285.35,-112.8 285.35,-112.8 285.35,-106.8 291.35,-100.8 297.35,-100.8 297.35,-100.8 327.35,-100.8 327.35,-100.8 333.35,-100.8 339.35,-106.8 339.35,-112.8 339.35,-112.8 339.35,-124.8 339.35,-124.8 339.35,-130.8 333.35,-136.8 327.35,-136.8"></path><text text-anchor="middle" x="312.35" y="-114.6" font-family="Arial" font-size="14.00" fill="#333333">App</text></g><!-- app:nginx&#45;&gt;app:app --><g id="edge-3" class="edge"><title>app:nginx-&gt;app:app</title><path fill="none" stroke="#333333" stroke-width="2" stroke-opacity="0.600000" d="M312.35,-172.63C312.35,-172.63 312.35,-148.73 312.35,-148.73"></path><polygon fill="#333333" fill-opacity="0.600000" stroke="#333333" stroke-width="2" stroke-opacity="0.600000" points="315.85,-150.24 312.35,-140.24 308.85,-150.24 315.85,-150.24"></polygon></g><!-- app:app&#45;&gt;service:payment:payment api --><g id="edge-5" class="edge"><title>app:app-&gt;service:payment:payment api</title><path fill="none" stroke="#333333" stroke-width="2" stroke-opacity="0.600000" d="M293.27,-100.4C293.27,-100.4 293.27,-63.88 293.27,-63.88"></path><polygon fill="#333333" fill-opacity="0.600000" stroke="#333333" stroke-width="2" stroke-opacity="0.600000" points="296.77,-65.39 293.27,-55.39 289.77,-65.39 296.77,-65.39"></polygon></g><!-- db:postgresql --><g id="node7" class="node"><title>db:postgresql</title><path fill="#ffffff" stroke="#4b75b9" stroke-width="3" d="M405.48,-52C405.48,-52 337.22,-52 337.22,-52 331.22,-52 325.22,-46 325.22,-40 325.22,-40 325.22,-28 325.22,-28 325.22,-22 331.22,-16 337.22,-16 337.22,-16 405.48,-16 405.48,-16 411.48,-16 417.48,-22 417.48,-28 417.48,-28 417.48,-40 417.48,-40 417.48,-46 411.48,-52 405.48,-52"></path><text text-anchor="middle" x="371.35" y="-29.8" font-family="Arial" font-size="14.00" fill="#333333">PostgreSQL</text></g><!-- app:app&#45;&gt;db:postgresql --><g id="edge-4" class="edge"><title>app:app-&gt;db:postgresql</title><path fill="none" stroke="#333333" stroke-width="2" stroke-opacity="0.600000" d="M332.28,-100.4C332.28,-100.4 332.28,-63.88 332.28,-63.88"></path><polygon fill="#333333" fill-opacity="0.600000" stroke="#333333" stroke-width="2" stroke-opacity="0.600000" points="335.78,-65.39 332.28,-55.39 328.78,-65.39 335.78,-65.39"></polygon></g><!-- internet --><g id="node8" class="node"><title>internet</title><path fill="none" stroke="black" stroke-width="2" d="M50.7,-293.6C50.7,-293.6 12,-293.6 12,-293.6 6,-293.6 0,-287.6 0,-281.6 0,-281.6 0,-269.6 0,-269.6 0,-263.6 6,-257.6 12,-257.6 12,-257.6 50.7,-257.6 50.7,-257.6 56.7,-257.6 62.7,-263.6 62.7,-269.6 62.7,-269.6 62.7,-281.6 62.7,-281.6 62.7,-287.6 56.7,-293.6 50.7,-293.6"></path><text text-anchor="middle" x="31.35" y="-271.4" font-family="Arial" font-size="14.00">internet</text></g><!-- internet&#45;&gt;vip_group:lb:vip --><g id="edge-0" class="edge"><title>internet-&gt;vip_group:lb:vip</title><path fill="none" stroke="#333333" stroke-width="2" stroke-opacity="0.600000" d="M31.35,-257.2C31.35,-232.26 31.35,-190.8 31.35,-190.8 31.35,-190.8 90.54,-190.8 90.54,-190.8"></path><polygon fill="#333333" fill-opacity="0.600000" stroke="#333333" stroke-width="2" stroke-opacity="0.600000" points="89.02,-194.3 99.02,-190.8 89.02,-187.3 89.02,-194.3"></polygon></g></g></svg>