<?xml version="1.0" encoding="UTF-8" standalone="no"?><!-- Generated by graphviz version 12.1.2 (20240928.0832)
 --><!-- Title: ndiag Pages: 1 --><svg width="100pt" height="222pt" viewBox="0.00 0.00 100.00 221.60" xmlns="http://www.w3.org/2000/svg" xmlns:xlink="http://www.w3.org/1999/xlink"><g id="graph0" class="graph" transform="scale(1 1) rotate(0) translate(4 217.6)"><title>ndiag</title><polygon fill="white" stroke="none" points="-4,4 -4,-217.6 96,-217.6 96,4 -4,4"></polygon><g id="clust1" class="cluster"><title>cluster_lb</title><polygon fill="none" stroke="black" stroke-width="2" points="8,-92.8 8,-169.6 84,-169.6 84,-92.8 8,-92.8"></polygon><text text-anchor="middle" x="46" y="-153" font-family="Arial" font-size="14.00">lb</text></g><g id="clust2" class="cluster"><title>cluster_app</title><polygon fill="none" stroke="#999999" stroke-width="2" points="8,-8 8,-84.8 84,-84.8 84,-8 8,-8"></polygon><text text-anchor="middle" x="46" y="-68.2" font-family="Arial" font-size="14.00" fill="#666666">app</text></g><!-- lb:nginx --><g id="node1" class="node"><title>lb:nginx</title><path fill="#ffffff" stroke="#4b75b9" stroke-width="3" d="M64.17,-136.8C64.17,-136.8 27.83,-136.8 27.83,-136.8 21.83,-136.8 15.83,-130.8 15.83,-124.8 15.83,-124.8 15.83,-112.8 15.83,-112.8 15.83,-106.8 21.83,-100.8 27.83,-100.8 27.83,-100.8 64.17,-100.8 64.17,-100.8 70.17,-100.8 76.17,-106.8 76.17,-112.8 76.17,-112.8 76.17,-124.8 76.17,-124.8 76.17,-130.8 70.17,-136.8 64.17,-136.8"></path><text text-anchor="middle" x="46" y="-114.6" font-family="Arial" font-size="14.00" fill="#333333">NGINX</text></g><!-- app:nginx --><g id="node2" class="node"><title>app:nginx</title><path fill="#ffffff" stroke="#4b75b9" stroke-width="3" d="M64.17,-52C64.17,-52 27.83,-52 27.83,-52 21.83,-52 15.83,-46 15.83,-40 15.83,-40 15.83,-28 15.83,-28 15.83,-22 21.83,-16 27.83,-16 27.83,-16 64.17,-16 64.17,-16 70.17,-16 76.17,-22 76.17,-28 76.17,-28 76.17,-40 76.17,-40 76.17,-46 70.17,-52 64.17,-52"></path><text text-anchor="middle" x="46" y="-29.8" font-family="Arial" font-size="14.00" fill="#333333">NGINX</text></g><!-- lb:nginx&#45;&gt;app:nginx --><g id="edge2" class="edge"><title>lb:nginx-&gt;app:nginx</title><path fill="none" stroke="#333333" stroke-width="2" stroke-opacity="0.600000" d="M46,-100.4C46,-100.4 46,-63.88 46,-63.88"></path><polygon fill="#333333" fill-opacity="0.600000" stroke="#333333" stroke-width="2" stroke-opacity="0.600000" points="49.5,-65.39 46,-55.39 42.5,-65.39 49.5,-65.39"></polygon></g><!-- vip --><g id="node3" class="node"><title>vip</title><path fill="none" stroke="black" stroke-width="2" d="M61,-213.6C61,-213.6 31,-213.6 31,-213.6 25,-213.6 19,-207.6 19,-201.6 19,-201.6 19,-189.6 19,-189.6 19,-183.6 25,-177.6 31,-177.6 31,-177.6 61,-177.6 61,-177.6 67,-177.6 73,-183.6 73,-189.6 73,-189.6 73,-201.6 73,-201.6 73,-207.6 67,-213.6 61,-213.6"></path><text text-anchor="middle" x="46" y="-191.4" font-family="Arial" font-size="14.00">vip</text></g><!-- vip&#45;&gt;lb:nginx --><g id="edge1" class="edge"><title>vip-&gt;lb:nginx</title><path fill="none" stroke="#333333" stroke-width="2" stroke-opacity="0.600000" d="M46,-177.4C46,-177.4 46,-148.65 46,-148.65"></path><polygon fill="#333333" fill-opacity="0.600000" stroke="#333333" stroke-width="2" stroke-opacity="0.600000" points="49.5,-150.16 46,-140.16 42.5,-150.16 49.5,-150.16"></polygon></g></g></svg>