<?xml version="1.0" encoding="UTF-8" standalone="no"?><!-- Generated by graphviz version 2.40.1 (20161225.0304)
 --><!-- Title: ndiag Pages: 1 --><svg width="100pt" height="222pt" viewBox="0.00 0.00 100.00 221.60" xmlns="http://www.w3.org/2000/svg" xmlns:xlink="http://www.w3.org/1999/xlink"><g id="graph0" class="graph" transform="scale(1 1) rotate(0) translate(4 217.6)"><title>ndiag</title><polygon fill="#ffffff" stroke="transparent" points="-4,4 -4,-217.6 96,-217.6 96,4 -4,4"></polygon><g id="clust2" class="cluster"><title>cluster_app</title><polygon fill="none" stroke="#999999" stroke-width="2" points="8,-8 8,-84.8 84,-84.8 84,-8 8,-8"></polygon><text text-anchor="middle" x="46" y="-68.2" font-family="Arial" font-size="14.00" fill="#666666">app</text></g><g id="clust1" class="cluster"><title>cluster_lb</title><polygon fill="none" stroke="#000000" stroke-width="2" points="8,-92.8 8,-169.6 84,-169.6 84,-92.8 8,-92.8"></polygon><text text-anchor="middle" x="46" y="-153" font-family="Arial" font-size="14.00" fill="#000000">lb</text></g><!-- lb:nginx --><g id="node1" class="node"><title>lb:nginx</title><path fill="#ffffff" stroke="#4b75b9" stroke-width="3" d="M64.3319,-136.8C64.3319,-136.8 27.6681,-136.8 27.6681,-136.8 21.6681,-136.8 15.6681,-130.8 15.6681,-124.8 15.6681,-124.8 15.6681,-112.8 15.6681,-112.8 15.6681,-106.8 21.6681,-100.8 27.6681,-100.8 27.6681,-100.8 64.3319,-100.8 64.3319,-100.8 70.3319,-100.8 76.3319,-106.8 76.3319,-112.8 76.3319,-112.8 76.3319,-124.8 76.3319,-124.8 76.3319,-130.8 70.3319,-136.8 64.3319,-136.8"></path><text text-anchor="middle" x="46" y="-114.6" font-family="Arial" font-size="14.00" fill="#333333">NGINX</text></g><!-- app:nginx --><g id="node2" class="node"><title>app:nginx</title><path fill="#ffffff" stroke="#4b75b9" stroke-width="3" d="M64.3319,-52C64.3319,-52 27.6681,-52 27.6681,-52 21.6681,-52 15.6681,-46 15.6681,-40 15.6681,-40 15.6681,-28 15.6681,-28 15.6681,-22 21.6681,-16 27.6681,-16 27.6681,-16 64.3319,-16 64.3319,-16 70.3319,-16 76.3319,-22 76.3319,-28 76.3319,-28 76.3319,-40 76.3319,-40 76.3319,-46 70.3319,-52 64.3319,-52"></path><text text-anchor="middle" x="46" y="-29.8" font-family="Arial" font-size="14.00" fill="#333333">NGINX</text></g><!-- lb:nginx&#45;&gt;app:nginx --><g id="edge2" class="edge"><title>lb:nginx-&gt;app:nginx</title><path fill="none" stroke="#333333" stroke-width="2" stroke-opacity="0.600000" d="M46,-100.3997C46,-100.3997 46,-62.0731 46,-62.0731"></path><polygon fill="#333333" fill-opacity="0.600000" stroke="#333333" stroke-width="2" stroke-opacity="0.600000" points="49.5001,-62.0731 46,-52.0731 42.5001,-62.0731 49.5001,-62.0731"></polygon></g><!-- vip --><g id="node3" class="node"><title>vip</title><path fill="none" stroke="#000000" stroke-width="2" d="M61,-213.6C61,-213.6 31,-213.6 31,-213.6 25,-213.6 19,-207.6 19,-201.6 19,-201.6 19,-189.6 19,-189.6 19,-183.6 25,-177.6 31,-177.6 31,-177.6 61,-177.6 61,-177.6 67,-177.6 73,-183.6 73,-189.6 73,-189.6 73,-201.6 73,-201.6 73,-207.6 67,-213.6 61,-213.6"></path><text text-anchor="middle" x="46" y="-191.4" font-family="Arial" font-size="14.00" fill="#000000">vip</text></g><!-- vip&#45;&gt;lb:nginx --><g id="edge1" class="edge"><title>vip-&gt;lb:nginx</title><path fill="none" stroke="#333333" stroke-width="2" stroke-opacity="0.600000" d="M46,-177.3995C46,-177.3995 46,-146.8699 46,-146.8699"></path><polygon fill="#333333" fill-opacity="0.600000" stroke="#333333" stroke-width="2" stroke-opacity="0.600000" points="49.5001,-146.8698 46,-136.8699 42.5001,-146.8699 49.5001,-146.8698"></polygon></g></g></svg>