<?xml version="1.0" encoding="UTF-8" standalone="no"?>
<!DOCTYPE svg PUBLIC "-//W3C//DTD SVG 1.1//EN"
 "http://www.w3.org/Graphics/SVG/1.1/DTD/svg11.dtd">
<!-- Generated by graphviz version 12.1.2 (20240928.0832)
 -->
<!-- Title: ndiag Pages: 1 -->
<svg width="232pt" height="342pt" viewBox="0.00 0.00 231.85 342.40" xmlns="http://www.w3.org/2000/svg" xmlns:xlink="http://www.w3.org/1999/xlink">
<g id="graph0" class="graph" transform="scale(1 1) rotate(0) translate(4 338.4)">
<title>ndiag</title>
<polygon fill="white" stroke="none" points="-4,4 -4,-338.4 227.85,-338.4 227.85,4 -4,4"></polygon>
<g id="clust1" class="cluster">
<title>cluster_app</title>
<polygon fill="none" stroke="black" stroke-width="2" points="32,-92.8 32,-241.6 108,-241.6 108,-92.8 32,-92.8"></polygon>
<text text-anchor="middle" x="70" y="-225" font-family="Arial" font-size="14.00">app</text>
</g>
<g id="clust2" class="cluster">
<title>cluster_lb</title>
<polygon fill="none" stroke="#999999" stroke-width="2" points="32,-249.6 32,-326.4 108,-326.4 108,-249.6 32,-249.6"></polygon>
<text text-anchor="middle" x="70" y="-309.8" font-family="Arial" font-size="14.00" fill="#666666">lb</text>
</g>
<g id="clust3" class="cluster">
<title>cluster_db</title>
<polygon fill="none" stroke="#999999" stroke-width="2" points="8,-8 8,-84.8 116,-84.8 116,-8 8,-8"></polygon>
<text text-anchor="middle" x="62" y="-68.2" font-family="Arial" font-size="14.00" fill="#666666">db</text>
</g>
<!-- app:nginx -->
<g id="node1" class="node">
<title>app:nginx</title>
<path fill="#ffffff" stroke="#4b75b9" stroke-width="3" d="M88.17,-208.8C88.17,-208.8 51.83,-208.8 51.83,-208.8 45.83,-208.8 39.83,-202.8 39.83,-196.8 39.83,-196.8 39.83,-184.8 39.83,-184.8 39.83,-178.8 45.83,-172.8 51.83,-172.8 51.83,-172.8 88.17,-172.8 88.17,-172.8 94.17,-172.8 100.17,-178.8 100.17,-184.8 100.17,-184.8 100.17,-196.8 100.17,-196.8 100.17,-202.8 94.17,-208.8 88.17,-208.8"></path>
<text text-anchor="middle" x="70" y="-186.6" font-family="Arial" font-size="14.00" fill="#333333">NGINX</text>
</g>
<!-- app:app -->
<g id="node2" class="node">
<title>app:app</title>
<path fill="#ffffff" stroke="#4b75b9" stroke-width="3" d="M85,-136.8C85,-136.8 55,-136.8 55,-136.8 49,-136.8 43,-130.8 43,-124.8 43,-124.8 43,-112.8 43,-112.8 43,-106.8 49,-100.8 55,-100.8 55,-100.8 85,-100.8 85,-100.8 91,-100.8 97,-106.8 97,-112.8 97,-112.8 97,-124.8 97,-124.8 97,-130.8 91,-136.8 85,-136.8"></path>
<text text-anchor="middle" x="70" y="-114.6" font-family="Arial" font-size="14.00" fill="#333333">App</text>
</g>
<!-- app:nginx&#45;&gt;app:app -->
<g id="edge2" class="edge">
<title>app:nginx-&gt;app:app</title>
<path fill="none" stroke="#333333" stroke-width="2" stroke-opacity="0.600000" d="M70,-172.63C70,-172.63 70,-148.73 70,-148.73"></path>
<polygon fill="#333333" fill-opacity="0.600000" stroke="#333333" stroke-width="2" stroke-opacity="0.600000" points="73.5,-150.24 70,-140.24 66.5,-150.24 73.5,-150.24"></polygon>
</g>
<!-- db:postgresql -->
<g id="node4" class="node">
<title>db:postgresql</title>
<path fill="#ffffff" stroke="#4b75b9" stroke-width="3" d="M96.13,-52C96.13,-52 27.87,-52 27.87,-52 21.87,-52 15.87,-46 15.87,-40 15.87,-40 15.87,-28 15.87,-28 15.87,-22 21.87,-16 27.87,-16 27.87,-16 96.13,-16 96.13,-16 102.13,-16 108.13,-22 108.13,-28 108.13,-28 108.13,-40 108.13,-40 108.13,-46 102.13,-52 96.13,-52"></path>
<text text-anchor="middle" x="62" y="-29.8" font-family="Arial" font-size="14.00" fill="#333333">PostgreSQL</text>
</g>
<!-- app:app&#45;&gt;db:postgresql -->
<g id="edge4" class="edge">
<title>app:app-&gt;db:postgresql</title>
<path fill="none" stroke="#333333" stroke-width="2" stroke-opacity="0.600000" d="M70,-100.4C70,-100.4 70,-63.88 70,-63.88"></path>
<polygon fill="#333333" fill-opacity="0.600000" stroke="#333333" stroke-width="2" stroke-opacity="0.600000" points="73.5,-65.39 70,-55.39 66.5,-65.39 73.5,-65.39"></polygon>
</g>
<!-- payment api -->
<g id="node5" class="node">
<title>payment api</title>
<path fill="none" stroke="black" stroke-width="2" d="M211.85,-52C211.85,-52 138.15,-52 138.15,-52 132.15,-52 126.15,-46 126.15,-40 126.15,-40 126.15,-28 126.15,-28 126.15,-22 132.15,-16 138.15,-16 138.15,-16 211.85,-16 211.85,-16 217.85,-16 223.85,-22 223.85,-28 223.85,-28 223.85,-40 223.85,-40 223.85,-46 217.85,-52 211.85,-52"></path>
<text text-anchor="middle" x="175" y="-29.8" font-family="Arial" font-size="14.00">Payment API</text>
</g>
<!-- app:app&#45;&gt;payment api -->
<g id="edge3" class="edge">
<title>app:app-&gt;payment api</title>
<path fill="none" stroke="#333333" stroke-width="2" stroke-opacity="0.600000" d="M97.31,-118.8C128.42,-118.8 175,-118.8 175,-118.8 175,-118.8 175,-63.91 175,-63.91"></path>
<polygon fill="#333333" fill-opacity="0.600000" stroke="#333333" stroke-width="2" stroke-opacity="0.600000" points="178.5,-65.43 175,-55.43 171.5,-65.43 178.5,-65.43"></polygon>
</g>
<!-- lb:nginx -->
<g id="node3" class="node">
<title>lb:nginx</title>
<path fill="#ffffff" stroke="#4b75b9" stroke-width="3" d="M88.17,-293.6C88.17,-293.6 51.83,-293.6 51.83,-293.6 45.83,-293.6 39.83,-287.6 39.83,-281.6 39.83,-281.6 39.83,-269.6 39.83,-269.6 39.83,-263.6 45.83,-257.6 51.83,-257.6 51.83,-257.6 88.17,-257.6 88.17,-257.6 94.17,-257.6 100.17,-263.6 100.17,-269.6 100.17,-269.6 100.17,-281.6 100.17,-281.6 100.17,-287.6 94.17,-293.6 88.17,-293.6"></path>
<text text-anchor="middle" x="70" y="-271.4" font-family="Arial" font-size="14.00" fill="#333333">NGINX</text>
</g>
<!-- lb:nginx&#45;&gt;app:nginx -->
<g id="edge1" class="edge">
<title>lb:nginx-&gt;app:nginx</title>
<path fill="none" stroke="#333333" stroke-width="2" stroke-opacity="0.600000" d="M70,-257.2C70,-257.2 70,-220.68 70,-220.68"></path>
<polygon fill="#333333" fill-opacity="0.600000" stroke="#333333" stroke-width="2" stroke-opacity="0.600000" points="73.5,-222.19 70,-212.19 66.5,-222.19 73.5,-222.19"></polygon>
</g>
</g>
</svg>
