<?xml version="1.0" encoding="UTF-8" standalone="no"?><!-- Generated by graphviz version 2.40.1 (20161225.0304)
 --><!-- Title: ndiag Pages: 1 --><svg width="222pt" height="101pt" viewBox="0.00 0.00 222.25 101.00" xmlns="http://www.w3.org/2000/svg" xmlns:xlink="http://www.w3.org/1999/xlink"><g id="graph0" class="graph" transform="scale(1 1) rotate(0) translate(4 97)"><title>ndiag</title><polygon fill="#ffffff" stroke="transparent" points="-4,4 -4,-97 218.2454,-97 218.2454,4 -4,4"></polygon><g id="clust2" class="cluster"><title>cluster_db</title><polygon fill="none" stroke="#000000" stroke-width="2" points="98,-8 98,-85 206.2454,-85 206.2454,-8 98,-8"></polygon><text text-anchor="middle" x="152.1227" y="-68.4" font-family="Arial" font-size="14.00" fill="#000000">db</text></g><g id="clust1" class="cluster"><title>cluster_app</title><polygon fill="none" stroke="#000000" stroke-width="2" points="8,-8 8,-85 78,-85 78,-8 8,-8"></polygon><text text-anchor="middle" x="43" y="-68.4" font-family="Arial" font-size="14.00" fill="#000000">app</text></g><!-- app:app --><g id="node1" class="node"><title>app:app</title><path fill="#ffffff" stroke="#4b75b9" stroke-width="3" d="M58,-52C58,-52 28,-52 28,-52 22,-52 16,-46 16,-40 16,-40 16,-28 16,-28 16,-22 22,-16 28,-16 28,-16 58,-16 58,-16 64,-16 70,-22 70,-28 70,-28 70,-40 70,-40 70,-46 64,-52 58,-52"></path><text text-anchor="middle" x="43" y="-29.8" font-family="Arial" font-size="14.00" fill="#333333">App</text></g><!-- db:postgresql --><g id="node2" class="node"><title>db:postgresql</title><path fill="#ffffff" stroke="#4b75b9" stroke-width="3" d="M186.3684,-52C186.3684,-52 117.877,-52 117.877,-52 111.877,-52 105.877,-46 105.877,-40 105.877,-40 105.877,-28 105.877,-28 105.877,-22 111.877,-16 117.877,-16 117.877,-16 186.3684,-16 186.3684,-16 192.3684,-16 198.3684,-22 198.3684,-28 198.3684,-28 198.3684,-40 198.3684,-40 198.3684,-46 192.3684,-52 186.3684,-52"></path><text text-anchor="middle" x="152.1227" y="-29.8" font-family="Arial" font-size="14.00" fill="#333333">PostgreSQL</text></g><!-- app:app&#45;&gt;db:postgresql --><g id="edge-0" class="edge"><title>app:app-&gt;db:postgresql</title><path fill="none" stroke="#333333" stroke-width="2" stroke-opacity="0.600000" d="M70.2548,-34C70.2548,-34 95.7027,-34 95.7027,-34"></path><polygon fill="#333333" fill-opacity="0.600000" stroke="#333333" stroke-width="2" stroke-opacity="0.600000" points="95.7027,-37.5001 105.7027,-34 95.7027,-30.5001 95.7027,-37.5001"></polygon></g></g></svg>