<?xml version="1.0" encoding="UTF-8" standalone="no"?><!-- Generated by graphviz version 2.40.1 (20161225.0304)
 --><!-- Title: ndiag Pages: 1 --><svg width="212pt" height="101pt" viewBox="0.00 0.00 211.69 101.00" xmlns="http://www.w3.org/2000/svg" xmlns:xlink="http://www.w3.org/1999/xlink"><g id="graph0" class="graph" transform="scale(1 1) rotate(0) translate(4 97)"><title>ndiag</title><polygon fill="#ffffff" stroke="transparent" points="-4,4 -4,-97 207.69,-97 207.69,4 -4,4"></polygon><g id="clust1" class="cluster"><title>cluster_app</title><polygon fill="none" stroke="#000000" stroke-width="2" points="8,-8 8,-85 78,-85 78,-8 8,-8"></polygon><text text-anchor="middle" x="43" y="-68.4" font-family="Arial" font-size="14.00" fill="#000000">app</text></g><!-- app:app --><g id="node1" class="node"><title>app:app</title><path fill="#ffffff" stroke="#4b75b9" stroke-width="3" d="M58,-52C58,-52 28,-52 28,-52 22,-52 16,-46 16,-40 16,-40 16,-28 16,-28 16,-22 22,-16 28,-16 28,-16 58,-16 58,-16 64,-16 70,-22 70,-28 70,-28 70,-40 70,-40 70,-46 64,-52 58,-52"></path><text text-anchor="middle" x="43" y="-29.8" font-family="Arial" font-size="14.00" fill="#333333">App</text></g><!-- payment api --><g id="node2" class="node"><title>payment api</title><path fill="none" stroke="#000000" stroke-width="2" d="M191.5355,-52C191.5355,-52 118.1545,-52 118.1545,-52 112.1545,-52 106.1545,-46 106.1545,-40 106.1545,-40 106.1545,-28 106.1545,-28 106.1545,-22 112.1545,-16 118.1545,-16 118.1545,-16 191.5355,-16 191.5355,-16 197.5355,-16 203.5355,-22 203.5355,-28 203.5355,-28 203.5355,-40 203.5355,-40 203.5355,-46 197.5355,-52 191.5355,-52"></path><text text-anchor="middle" x="154.845" y="-29.8" font-family="Arial" font-size="14.00" fill="#000000">Payment API</text></g><!-- app:app&#45;&gt;payment api --><g id="edge-0" class="edge"><title>app:app-&gt;payment api</title><path fill="none" stroke="#333333" stroke-width="2" stroke-opacity="0.600000" d="M70.0746,-34C70.0746,-34 95.7322,-34 95.7322,-34"></path><polygon fill="#333333" fill-opacity="0.600000" stroke="#333333" stroke-width="2" stroke-opacity="0.600000" points="95.7322,-37.5001 105.7322,-34 95.7322,-30.5001 95.7322,-37.5001"></polygon></g></g></svg>