<?xml version="1.0" encoding="UTF-8" standalone="no"?>
<!DOCTYPE svg PUBLIC "-//W3C//DTD SVG 1.1//EN"
 "http://www.w3.org/Graphics/SVG/1.1/DTD/svg11.dtd">
<!-- Generated by graphviz version 12.1.2 (20240928.0832)
 -->
<!-- Title: ndiag Pages: 1 -->
<svg width="161pt" height="44pt" viewBox="0.00 0.00 160.70 44.00" xmlns="http://www.w3.org/2000/svg" xmlns:xlink="http://www.w3.org/1999/xlink">
<g id="graph0" class="graph" transform="scale(1 1) rotate(0) translate(4 40)">
<title>ndiag</title>
<polygon fill="white" stroke="none" points="-4,4 -4,-40 156.7,-40 156.7,4 -4,4"></polygon>
<!-- internet -->
<g id="node1" class="node">
<title>internet</title>
<path fill="none" stroke="black" stroke-width="2" d="M50.7,-36C50.7,-36 12,-36 12,-36 6,-36 0,-30 0,-24 0,-24 0,-12 0,-12 0,-6 6,0 12,0 12,0 50.7,0 50.7,0 56.7,0 62.7,-6 62.7,-12 62.7,-12 62.7,-24 62.7,-24 62.7,-30 56.7,-36 50.7,-36"></path>
<text text-anchor="middle" x="31.35" y="-13.8" font-family="Arial" font-size="14.00">internet</text>
</g>
<!-- vip -->
<g id="node2" class="node">
<title>vip</title>
<path fill="none" stroke="black" stroke-width="2" d="M140.7,-36C140.7,-36 110.7,-36 110.7,-36 104.7,-36 98.7,-30 98.7,-24 98.7,-24 98.7,-12 98.7,-12 98.7,-6 104.7,0 110.7,0 110.7,0 140.7,0 140.7,0 146.7,0 152.7,-6 152.7,-12 152.7,-12 152.7,-24 152.7,-24 152.7,-30 146.7,-36 140.7,-36"></path>
<text text-anchor="middle" x="125.7" y="-13.8" font-family="Arial" font-size="14.00">vip</text>
</g>
<!-- internet&#45;&gt;vip -->
<g id="edge-0" class="edge">
<title>internet-&gt;vip</title>
<path fill="none" stroke="#333333" stroke-width="2" stroke-opacity="0.600000" d="M63.03,-18C63.03,-18 86.85,-18 86.85,-18"></path>
<polygon fill="#333333" fill-opacity="0.600000" stroke="#333333" stroke-width="2" stroke-opacity="0.600000" points="85.34,-21.5 95.34,-18 85.34,-14.5 85.34,-21.5"></polygon>
</g>
</g>
</svg>
