<?xml version="1.0" encoding="UTF-8" standalone="no"?>
<!DOCTYPE svg PUBLIC "-//W3C//DTD SVG 1.1//EN"
 "http://www.w3.org/Graphics/SVG/1.1/DTD/svg11.dtd">
<!-- Generated by graphviz version 12.1.2 (20240928.0832)
 -->
<!-- Title: ndiag Pages: 1 -->
<svg width="287pt" height="101pt" viewBox="0.00 0.00 286.68 101.00" xmlns="http://www.w3.org/2000/svg" xmlns:xlink="http://www.w3.org/1999/xlink">
<g id="graph0" class="graph" transform="scale(1 1) rotate(0) translate(4 97)">
<title>ndiag</title>
<polygon fill="white" stroke="none" points="-4,4 -4,-97 282.68,-97 282.68,4 -4,4"></polygon>
<g id="clust1" class="cluster">
<title>cluster_lb</title>
<polygon fill="none" stroke="black" stroke-width="2" points="8,-8 8,-85 84.34,-85 84.34,-8 8,-8"></polygon>
<text text-anchor="middle" x="46.17" y="-68.4" font-family="Arial" font-size="14.00">lb</text>
</g>
<g id="clust2" class="cluster">
<title>cluster_app</title>
<polygon fill="none" stroke="black" stroke-width="2" points="104.34,-8 104.34,-85 270.68,-85 270.68,-8 104.34,-8"></polygon>
<text text-anchor="middle" x="187.51" y="-68.4" font-family="Arial" font-size="14.00">app</text>
</g>
<!-- lb:nginx -->
<g id="node1" class="node">
<title>lb:nginx</title>
<path fill="#ffffff" stroke="#4b75b9" stroke-width="3" d="M64.34,-52C64.34,-52 28,-52 28,-52 22,-52 16,-46 16,-40 16,-40 16,-28 16,-28 16,-22 22,-16 28,-16 28,-16 64.34,-16 64.34,-16 70.34,-16 76.34,-22 76.34,-28 76.34,-28 76.34,-40 76.34,-40 76.34,-46 70.34,-52 64.34,-52"></path>
<text text-anchor="middle" x="46.17" y="-29.8" font-family="Arial" font-size="14.00" fill="#333333">NGINX</text>
</g>
<!-- app:nginx -->
<g id="node2" class="node">
<title>app:nginx</title>
<path fill="#ffffff" stroke="#4b75b9" stroke-width="3" d="M160.68,-52C160.68,-52 124.34,-52 124.34,-52 118.34,-52 112.34,-46 112.34,-40 112.34,-40 112.34,-28 112.34,-28 112.34,-22 118.34,-16 124.34,-16 124.34,-16 160.68,-16 160.68,-16 166.68,-16 172.68,-22 172.68,-28 172.68,-28 172.68,-40 172.68,-40 172.68,-46 166.68,-52 160.68,-52"></path>
<text text-anchor="middle" x="142.51" y="-29.8" font-family="Arial" font-size="14.00" fill="#333333">NGINX</text>
</g>
<!-- lb:nginx&#45;&gt;app:nginx -->
<g id="edge-0" class="edge">
<title>lb:nginx-&gt;app:nginx</title>
<path fill="none" stroke="#333333" stroke-width="2" stroke-opacity="0.600000" d="M76.65,-34C76.65,-34 100.38,-34 100.38,-34"></path>
<polygon fill="#333333" fill-opacity="0.600000" stroke="#333333" stroke-width="2" stroke-opacity="0.600000" points="98.87,-37.5 108.87,-34 98.87,-30.5 98.87,-37.5"></polygon>
</g>
<!-- app:app -->
<g id="node3" class="node">
<title>app:app</title>
<path fill="#ffffff" stroke="#4b75b9" stroke-width="3" d="M250.68,-52C250.68,-52 220.68,-52 220.68,-52 214.68,-52 208.68,-46 208.68,-40 208.68,-40 208.68,-28 208.68,-28 208.68,-22 214.68,-16 220.68,-16 220.68,-16 250.68,-16 250.68,-16 256.68,-16 262.68,-22 262.68,-28 262.68,-28 262.68,-40 262.68,-40 262.68,-46 256.68,-52 250.68,-52"></path>
<text text-anchor="middle" x="235.68" y="-29.8" font-family="Arial" font-size="14.00" fill="#333333">App</text>
</g>
<!-- app:nginx&#45;&gt;app:app -->
<g id="edge-1" class="edge">
<title>app:nginx-&gt;app:app</title>
<path fill="none" stroke="#333333" stroke-width="2" stroke-opacity="0.600000" d="M173.01,-34C173.01,-34 196.73,-34 196.73,-34"></path>
<polygon fill="#333333" fill-opacity="0.600000" stroke="#333333" stroke-width="2" stroke-opacity="0.600000" points="195.22,-37.5 205.22,-34 195.22,-30.5 195.22,-37.5"></polygon>
</g>
</g>
</svg>
