<?xml version="1.0" encoding="UTF-8" standalone="no"?><!-- Generated by graphviz version 12.1.2 (20240928.0832)
 --><!-- Title: ndiag Pages: 1 --><svg width="212pt" height="101pt" viewBox="0.00 0.00 211.70 101.00" xmlns="http://www.w3.org/2000/svg" xmlns:xlink="http://www.w3.org/1999/xlink"><g id="graph0" class="graph" transform="scale(1 1) rotate(0) translate(4 97)"><title>ndiag</title><polygon fill="white" stroke="none" points="-4,4 -4,-97 207.7,-97 207.7,4 -4,4"></polygon><g id="clust1" class="cluster"><title>cluster_app</title><polygon fill="none" stroke="black" stroke-width="2" points="8,-8 8,-85 78,-85 78,-8 8,-8"></polygon><text text-anchor="middle" x="43" y="-68.4" font-family="Arial" font-size="14.00">app</text></g><!-- app:app --><g id="node1" class="node"><title>app:app</title><path fill="#ffffff" stroke="#4b75b9" stroke-width="3" d="M58,-52C58,-52 28,-52 28,-52 22,-52 16,-46 16,-40 16,-40 16,-28 16,-28 16,-22 22,-16 28,-16 28,-16 58,-16 58,-16 64,-16 70,-22 70,-28 70,-28 70,-40 70,-40 70,-46 64,-52 58,-52"></path><text text-anchor="middle" x="43" y="-29.8" font-family="Arial" font-size="14.00" fill="#333333">App</text></g><!-- payment api --><g id="node2" class="node"><title>payment api</title><path fill="none" stroke="black" stroke-width="2" d="M191.7,-52C191.7,-52 118,-52 118,-52 112,-52 106,-46 106,-40 106,-40 106,-28 106,-28 106,-22 112,-16 118,-16 118,-16 191.7,-16 191.7,-16 197.7,-16 203.7,-22 203.7,-28 203.7,-28 203.7,-40 203.7,-40 203.7,-46 197.7,-52 191.7,-52"></path><text text-anchor="middle" x="154.85" y="-29.8" font-family="Arial" font-size="14.00">Payment API</text></g><!-- app:app&#45;&gt;payment api --><g id="edge-0" class="edge"><title>app:app-&gt;payment api</title><path fill="none" stroke="#333333" stroke-width="2" stroke-opacity="0.600000" d="M70.36,-34C70.36,-34 94,-34 94,-34"></path><polygon fill="#333333" fill-opacity="0.600000" stroke="#333333" stroke-width="2" stroke-opacity="0.600000" points="92.49,-37.5 102.49,-34 92.49,-30.5 92.49,-37.5"></polygon></g></g></svg>