<?xml version="1.0" encoding="UTF-8" standalone="no"?>
<!DOCTYPE svg PUBLIC "-//W3C//DTD SVG 1.1//EN"
 "http://www.w3.org/Graphics/SVG/1.1/DTD/svg11.dtd">
<!-- Generated by graphviz version 12.1.2 (20240928.0832)
 -->
<!-- Title: ndiag Pages: 1 -->
<svg width="222pt" height="101pt" viewBox="0.00 0.00 222.26 101.00" xmlns="http://www.w3.org/2000/svg" xmlns:xlink="http://www.w3.org/1999/xlink">
<g id="graph0" class="graph" transform="scale(1 1) rotate(0) translate(4 97)">
<title>ndiag</title>
<polygon fill="white" stroke="none" points="-4,4 -4,-97 218.26,-97 218.26,4 -4,4"></polygon>
<g id="clust1" class="cluster">
<title>cluster_app</title>
<polygon fill="none" stroke="black" stroke-width="2" points="8,-8 8,-85 78,-85 78,-8 8,-8"></polygon>
<text text-anchor="middle" x="43" y="-68.4" font-family="Arial" font-size="14.00">app</text>
</g>
<g id="clust2" class="cluster">
<title>cluster_db</title>
<polygon fill="none" stroke="black" stroke-width="2" points="98,-8 98,-85 206.26,-85 206.26,-8 98,-8"></polygon>
<text text-anchor="middle" x="152.13" y="-68.4" font-family="Arial" font-size="14.00">db</text>
</g>
<!-- app:app -->
<g id="node1" class="node">
<title>app:app</title>
<path fill="#ffffff" stroke="#4b75b9" stroke-width="3" d="M58,-52C58,-52 28,-52 28,-52 22,-52 16,-46 16,-40 16,-40 16,-28 16,-28 16,-22 22,-16 28,-16 28,-16 58,-16 58,-16 64,-16 70,-22 70,-28 70,-28 70,-40 70,-40 70,-46 64,-52 58,-52"></path>
<text text-anchor="middle" x="43" y="-29.8" font-family="Arial" font-size="14.00" fill="#333333">App</text>
</g>
<!-- db:postgresql -->
<g id="node2" class="node">
<title>db:postgresql</title>
<path fill="#ffffff" stroke="#4b75b9" stroke-width="3" d="M186.26,-52C186.26,-52 118,-52 118,-52 112,-52 106,-46 106,-40 106,-40 106,-28 106,-28 106,-22 112,-16 118,-16 118,-16 186.26,-16 186.26,-16 192.26,-16 198.26,-22 198.26,-28 198.26,-28 198.26,-40 198.26,-40 198.26,-46 192.26,-52 186.26,-52"></path>
<text text-anchor="middle" x="152.13" y="-29.8" font-family="Arial" font-size="14.00" fill="#333333">PostgreSQL</text>
</g>
<!-- app:app&#45;&gt;db:postgresql -->
<g id="edge-0" class="edge">
<title>app:app-&gt;db:postgresql</title>
<path fill="none" stroke="#333333" stroke-width="2" stroke-opacity="0.600000" d="M70.26,-34C70.26,-34 94.19,-34 94.19,-34"></path>
<polygon fill="#333333" fill-opacity="0.600000" stroke="#333333" stroke-width="2" stroke-opacity="0.600000" points="92.68,-37.5 102.68,-34 92.68,-30.5 92.68,-37.5"></polygon>
</g>
</g>
</svg>
