<?xml version="1.0" encoding="UTF-8" standalone="no"?><!-- Generated by graphviz version 2.40.1 (20161225.0304)
 --><!-- Title: ndiag Pages: 1 --><svg width="132pt" height="450pt" viewBox="0.00 0.00 132.00 450.40" xmlns="http://www.w3.org/2000/svg" xmlns:xlink="http://www.w3.org/1999/xlink"><g id="graph0" class="graph" transform="scale(1 1) rotate(0) translate(4 446.4)"><title>ndiag</title><polygon fill="#ffffff" stroke="transparent" points="-4,4 -4,-446.4 128,-446.4 128,4 -4,4"></polygon><g id="clust3" class="cluster"><title>cluster_db</title><polygon fill="none" stroke="#000000" stroke-width="2" points="8,-8 8,-84.8 116,-84.8 116,-8 8,-8"></polygon><text text-anchor="middle" x="62" y="-68.2" font-family="Arial" font-size="14.00" fill="#000000">db</text></g><g id="clust2" class="cluster"><title>cluster_app</title><polygon fill="none" stroke="#000000" stroke-width="2" points="16,-92.8 16,-241.6 108,-241.6 108,-92.8 16,-92.8"></polygon><text text-anchor="middle" x="62" y="-225" font-family="Arial" font-size="14.00" fill="#000000">app</text></g><g id="clust1" class="cluster"><title>cluster_lb</title><polygon fill="none" stroke="#000000" stroke-width="2" points="24,-249.6 24,-326.4 100,-326.4 100,-249.6 24,-249.6"></polygon><text text-anchor="middle" x="62" y="-309.8" font-family="Arial" font-size="14.00" fill="#000000">lb</text></g><!-- lb:nginx --><g id="node1" class="node"><title>lb:nginx</title><path fill="#ffffff" stroke="#4b75b9" stroke-width="3" d="M80.3319,-293.6C80.3319,-293.6 43.6681,-293.6 43.6681,-293.6 37.6681,-293.6 31.6681,-287.6 31.6681,-281.6 31.6681,-281.6 31.6681,-269.6 31.6681,-269.6 31.6681,-263.6 37.6681,-257.6 43.6681,-257.6 43.6681,-257.6 80.3319,-257.6 80.3319,-257.6 86.3319,-257.6 92.3319,-263.6 92.3319,-269.6 92.3319,-269.6 92.3319,-281.6 92.3319,-281.6 92.3319,-287.6 86.3319,-293.6 80.3319,-293.6"></path><text text-anchor="middle" x="62" y="-271.4" font-family="Arial" font-size="14.00" fill="#333333">NGINX</text></g><!-- app:nginx --><g id="node2" class="node"><title>app:nginx</title><path fill="#ffffff" stroke="#4b75b9" stroke-width="3" d="M80.3319,-208.8C80.3319,-208.8 43.6681,-208.8 43.6681,-208.8 37.6681,-208.8 31.6681,-202.8 31.6681,-196.8 31.6681,-196.8 31.6681,-184.8 31.6681,-184.8 31.6681,-178.8 37.6681,-172.8 43.6681,-172.8 43.6681,-172.8 80.3319,-172.8 80.3319,-172.8 86.3319,-172.8 92.3319,-178.8 92.3319,-184.8 92.3319,-184.8 92.3319,-196.8 92.3319,-196.8 92.3319,-202.8 86.3319,-208.8 80.3319,-208.8"></path><text text-anchor="middle" x="62" y="-186.6" font-family="Arial" font-size="14.00" fill="#333333">NGINX</text></g><!-- lb:nginx&#45;&gt;app:nginx --><g id="edge-2" class="edge"><title>lb:nginx-&gt;app:nginx</title><path fill="none" stroke="#333333" stroke-width="2" stroke-opacity="0.600000" d="M62,-257.1997C62,-257.1997 62,-218.8731 62,-218.8731"></path><polygon fill="#333333" fill-opacity="0.600000" stroke="#333333" stroke-width="2" stroke-opacity="0.600000" points="65.5001,-218.8731 62,-208.8731 58.5001,-218.8731 65.5001,-218.8731"></polygon></g><!-- app:rails app --><g id="node3" class="node"><title>app:rails app</title><path fill="#ffffff" stroke="#4b75b9" stroke-width="3" d="M87.8949,-136.8C87.8949,-136.8 36.1051,-136.8 36.1051,-136.8 30.1051,-136.8 24.1051,-130.8 24.1051,-124.8 24.1051,-124.8 24.1051,-112.8 24.1051,-112.8 24.1051,-106.8 30.1051,-100.8 36.1051,-100.8 36.1051,-100.8 87.8949,-100.8 87.8949,-100.8 93.8949,-100.8 99.8949,-106.8 99.8949,-112.8 99.8949,-112.8 99.8949,-124.8 99.8949,-124.8 99.8949,-130.8 93.8949,-136.8 87.8949,-136.8"></path><text text-anchor="middle" x="62" y="-114.6" font-family="Arial" font-size="14.00" fill="#333333">Rails App</text></g><!-- app:nginx&#45;&gt;app:rails app --><g id="edge-3" class="edge"><title>app:nginx-&gt;app:rails app</title><path fill="none" stroke="#333333" stroke-width="2" stroke-opacity="0.600000" d="M62,-172.6314C62,-172.6314 62,-147.2133 62,-147.2133"></path><polygon fill="#333333" fill-opacity="0.600000" stroke="#333333" stroke-width="2" stroke-opacity="0.600000" points="65.5001,-147.2132 62,-137.2133 58.5001,-147.2133 65.5001,-147.2132"></polygon></g><!-- db:postgresql --><g id="node4" class="node"><title>db:postgresql</title><path fill="#ffffff" stroke="#4b75b9" stroke-width="3" d="M96.2457,-52C96.2457,-52 27.7543,-52 27.7543,-52 21.7543,-52 15.7543,-46 15.7543,-40 15.7543,-40 15.7543,-28 15.7543,-28 15.7543,-22 21.7543,-16 27.7543,-16 27.7543,-16 96.2457,-16 96.2457,-16 102.2457,-16 108.2457,-22 108.2457,-28 108.2457,-28 108.2457,-40 108.2457,-40 108.2457,-46 102.2457,-52 96.2457,-52"></path><text text-anchor="middle" x="62" y="-29.8" font-family="Arial" font-size="14.00" fill="#333333">PostgreSQL</text></g><!-- app:rails app&#45;&gt;db:postgresql --><g id="edge-4" class="edge"><title>app:rails app-&gt;db:postgresql</title><path fill="none" stroke="#333333" stroke-width="2" stroke-opacity="0.600000" d="M62,-100.3997C62,-100.3997 62,-62.0731 62,-62.0731"></path><polygon fill="#333333" fill-opacity="0.600000" stroke="#333333" stroke-width="2" stroke-opacity="0.600000" points="65.5001,-62.0731 62,-52.0731 58.5001,-62.0731 65.5001,-62.0731"></polygon></g><!-- internet --><g id="node5" class="node"><title>internet</title><path fill="none" stroke="#000000" stroke-width="2" d="M81.1796,-442.4C81.1796,-442.4 42.8204,-442.4 42.8204,-442.4 36.8204,-442.4 30.8204,-436.4 30.8204,-430.4 30.8204,-430.4 30.8204,-418.4 30.8204,-418.4 30.8204,-412.4 36.8204,-406.4 42.8204,-406.4 42.8204,-406.4 81.1796,-406.4 81.1796,-406.4 87.1796,-406.4 93.1796,-412.4 93.1796,-418.4 93.1796,-418.4 93.1796,-430.4 93.1796,-430.4 93.1796,-436.4 87.1796,-442.4 81.1796,-442.4"></path><text text-anchor="middle" x="62" y="-420.2" font-family="Arial" font-size="14.00" fill="#000000">internet</text></g><!-- vip --><g id="node6" class="node"><title>vip</title><path fill="none" stroke="#000000" stroke-width="2" d="M77,-370.4C77,-370.4 47,-370.4 47,-370.4 41,-370.4 35,-364.4 35,-358.4 35,-358.4 35,-346.4 35,-346.4 35,-340.4 41,-334.4 47,-334.4 47,-334.4 77,-334.4 77,-334.4 83,-334.4 89,-340.4 89,-346.4 89,-346.4 89,-358.4 89,-358.4 89,-364.4 83,-370.4 77,-370.4"></path><text text-anchor="middle" x="62" y="-348.2" font-family="Arial" font-size="14.00" fill="#000000">vip</text></g><!-- internet&#45;&gt;vip --><g id="edge-0" class="edge"><title>internet-&gt;vip</title><path fill="none" stroke="#333333" stroke-width="2" stroke-opacity="0.600000" d="M62,-406.2314C62,-406.2314 62,-380.8133 62,-380.8133"></path><polygon fill="#333333" fill-opacity="0.600000" stroke="#333333" stroke-width="2" stroke-opacity="0.600000" points="65.5001,-380.8132 62,-370.8133 58.5001,-380.8133 65.5001,-380.8132"></polygon></g><!-- vip&#45;&gt;lb:nginx --><g id="edge-1" class="edge"><title>vip-&gt;lb:nginx</title><path fill="none" stroke="#333333" stroke-width="2" stroke-opacity="0.600000" d="M62,-334.1995C62,-334.1995 62,-303.6699 62,-303.6699"></path><polygon fill="#333333" fill-opacity="0.600000" stroke="#333333" stroke-width="2" stroke-opacity="0.600000" points="65.5001,-303.6698 62,-293.6699 58.5001,-303.6699 65.5001,-303.6698"></polygon></g></g></svg>