<?xml version="1.0" encoding="UTF-8" standalone="no"?><!-- Generated by graphviz version 2.40.1 (20161225.0304)
 --><!-- Title: ndiag Pages: 1 --><svg width="232pt" height="450pt" viewBox="0.00 0.00 231.84 450.40" xmlns="http://www.w3.org/2000/svg" xmlns:xlink="http://www.w3.org/1999/xlink"><g id="graph0" class="graph" transform="scale(1 1) rotate(0) translate(4 446.4)"><title>ndiag</title><polygon fill="#ffffff" stroke="transparent" points="-4,4 -4,-446.4 227.845,-446.4 227.845,4 -4,4"></polygon><g id="clust3" class="cluster"><title>cluster_db</title><polygon fill="none" stroke="#000000" stroke-width="2" points="8,-8 8,-84.8 116,-84.8 116,-8 8,-8"></polygon><text text-anchor="middle" x="62" y="-68.2" font-family="Arial" font-size="14.00" fill="#000000">db</text></g><g id="clust2" class="cluster"><title>cluster_app</title><polygon fill="none" stroke="#000000" stroke-width="2" points="32,-92.8 32,-241.6 108,-241.6 108,-92.8 32,-92.8"></polygon><text text-anchor="middle" x="70" y="-225" font-family="Arial" font-size="14.00" fill="#000000">app</text></g><g id="clust1" class="cluster"><title>cluster_lb</title><polygon fill="none" stroke="#000000" stroke-width="2" points="32,-249.6 32,-326.4 108,-326.4 108,-249.6 32,-249.6"></polygon><text text-anchor="middle" x="70" y="-309.8" font-family="Arial" font-size="14.00" fill="#000000">lb</text></g><!-- lb:nginx --><g id="node1" class="node"><title>lb:nginx</title><path fill="#ffffff" stroke="#4b75b9" stroke-width="3" d="M88.3319,-293.6C88.3319,-293.6 51.6681,-293.6 51.6681,-293.6 45.6681,-293.6 39.6681,-287.6 39.6681,-281.6 39.6681,-281.6 39.6681,-269.6 39.6681,-269.6 39.6681,-263.6 45.6681,-257.6 51.6681,-257.6 51.6681,-257.6 88.3319,-257.6 88.3319,-257.6 94.3319,-257.6 100.3319,-263.6 100.3319,-269.6 100.3319,-269.6 100.3319,-281.6 100.3319,-281.6 100.3319,-287.6 94.3319,-293.6 88.3319,-293.6"></path><text text-anchor="middle" x="70" y="-271.4" font-family="Arial" font-size="14.00" fill="#333333">NGINX</text></g><!-- app:nginx --><g id="node2" class="node"><title>app:nginx</title><path fill="#ffffff" stroke="#4b75b9" stroke-width="3" d="M88.3319,-208.8C88.3319,-208.8 51.6681,-208.8 51.6681,-208.8 45.6681,-208.8 39.6681,-202.8 39.6681,-196.8 39.6681,-196.8 39.6681,-184.8 39.6681,-184.8 39.6681,-178.8 45.6681,-172.8 51.6681,-172.8 51.6681,-172.8 88.3319,-172.8 88.3319,-172.8 94.3319,-172.8 100.3319,-178.8 100.3319,-184.8 100.3319,-184.8 100.3319,-196.8 100.3319,-196.8 100.3319,-202.8 94.3319,-208.8 88.3319,-208.8"></path><text text-anchor="middle" x="70" y="-186.6" font-family="Arial" font-size="14.00" fill="#333333">NGINX</text></g><!-- lb:nginx&#45;&gt;app:nginx --><g id="edge-2" class="edge"><title>lb:nginx-&gt;app:nginx</title><path fill="none" stroke="#333333" stroke-width="2" stroke-opacity="0.600000" d="M70,-257.1997C70,-257.1997 70,-218.8731 70,-218.8731"></path><polygon fill="#333333" fill-opacity="0.600000" stroke="#333333" stroke-width="2" stroke-opacity="0.600000" points="73.5001,-218.8731 70,-208.8731 66.5001,-218.8731 73.5001,-218.8731"></polygon></g><!-- app:app --><g id="node3" class="node"><title>app:app</title><path fill="#ffffff" stroke="#4b75b9" stroke-width="3" d="M85,-136.8C85,-136.8 55,-136.8 55,-136.8 49,-136.8 43,-130.8 43,-124.8 43,-124.8 43,-112.8 43,-112.8 43,-106.8 49,-100.8 55,-100.8 55,-100.8 85,-100.8 85,-100.8 91,-100.8 97,-106.8 97,-112.8 97,-112.8 97,-124.8 97,-124.8 97,-130.8 91,-136.8 85,-136.8"></path><text text-anchor="middle" x="70" y="-114.6" font-family="Arial" font-size="14.00" fill="#333333">App</text></g><!-- app:nginx&#45;&gt;app:app --><g id="edge-3" class="edge"><title>app:nginx-&gt;app:app</title><path fill="none" stroke="#333333" stroke-width="2" stroke-opacity="0.600000" d="M70,-172.6314C70,-172.6314 70,-147.2133 70,-147.2133"></path><polygon fill="#333333" fill-opacity="0.600000" stroke="#333333" stroke-width="2" stroke-opacity="0.600000" points="73.5001,-147.2132 70,-137.2133 66.5001,-147.2133 73.5001,-147.2132"></polygon></g><!-- db:postgresql --><g id="node4" class="node"><title>db:postgresql</title><path fill="#ffffff" stroke="#4b75b9" stroke-width="3" d="M96.2457,-52C96.2457,-52 27.7543,-52 27.7543,-52 21.7543,-52 15.7543,-46 15.7543,-40 15.7543,-40 15.7543,-28 15.7543,-28 15.7543,-22 21.7543,-16 27.7543,-16 27.7543,-16 96.2457,-16 96.2457,-16 102.2457,-16 108.2457,-22 108.2457,-28 108.2457,-28 108.2457,-40 108.2457,-40 108.2457,-46 102.2457,-52 96.2457,-52"></path><text text-anchor="middle" x="62" y="-29.8" font-family="Arial" font-size="14.00" fill="#333333">PostgreSQL</text></g><!-- app:app&#45;&gt;db:postgresql --><g id="edge-5" class="edge"><title>app:app-&gt;db:postgresql</title><path fill="none" stroke="#333333" stroke-width="2" stroke-opacity="0.600000" d="M70,-100.3997C70,-100.3997 70,-62.0731 70,-62.0731"></path><polygon fill="#333333" fill-opacity="0.600000" stroke="#333333" stroke-width="2" stroke-opacity="0.600000" points="73.5001,-62.0731 70,-52.0731 66.5001,-62.0731 73.5001,-62.0731"></polygon></g><!-- payment api --><g id="node7" class="node"><title>payment api</title><path fill="none" stroke="#000000" stroke-width="2" d="M211.6905,-52C211.6905,-52 138.3095,-52 138.3095,-52 132.3095,-52 126.3095,-46 126.3095,-40 126.3095,-40 126.3095,-28 126.3095,-28 126.3095,-22 132.3095,-16 138.3095,-16 138.3095,-16 211.6905,-16 211.6905,-16 217.6905,-16 223.6905,-22 223.6905,-28 223.6905,-28 223.6905,-40 223.6905,-40 223.6905,-46 217.6905,-52 211.6905,-52"></path><text text-anchor="middle" x="175" y="-29.8" font-family="Arial" font-size="14.00" fill="#000000">Payment API</text></g><!-- app:app&#45;&gt;payment api --><g id="edge-4" class="edge"><title>app:app-&gt;payment api</title><path fill="none" stroke="#333333" stroke-width="2" stroke-opacity="0.600000" d="M97.0401,-118C128.1509,-118 175,-118 175,-118 175,-118 175,-62.2267 175,-62.2267"></path><polygon fill="#333333" fill-opacity="0.600000" stroke="#333333" stroke-width="2" stroke-opacity="0.600000" points="178.5001,-62.2267 175,-52.2267 171.5001,-62.2268 178.5001,-62.2267"></polygon></g><!-- internet --><g id="node5" class="node"><title>internet</title><path fill="none" stroke="#000000" stroke-width="2" d="M89.1796,-442.4C89.1796,-442.4 50.8204,-442.4 50.8204,-442.4 44.8204,-442.4 38.8204,-436.4 38.8204,-430.4 38.8204,-430.4 38.8204,-418.4 38.8204,-418.4 38.8204,-412.4 44.8204,-406.4 50.8204,-406.4 50.8204,-406.4 89.1796,-406.4 89.1796,-406.4 95.1796,-406.4 101.1796,-412.4 101.1796,-418.4 101.1796,-418.4 101.1796,-430.4 101.1796,-430.4 101.1796,-436.4 95.1796,-442.4 89.1796,-442.4"></path><text text-anchor="middle" x="70" y="-420.2" font-family="Arial" font-size="14.00" fill="#000000">internet</text></g><!-- vip --><g id="node6" class="node"><title>vip</title><path fill="none" stroke="#000000" stroke-width="2" d="M85,-370.4C85,-370.4 55,-370.4 55,-370.4 49,-370.4 43,-364.4 43,-358.4 43,-358.4 43,-346.4 43,-346.4 43,-340.4 49,-334.4 55,-334.4 55,-334.4 85,-334.4 85,-334.4 91,-334.4 97,-340.4 97,-346.4 97,-346.4 97,-358.4 97,-358.4 97,-364.4 91,-370.4 85,-370.4"></path><text text-anchor="middle" x="70" y="-348.2" font-family="Arial" font-size="14.00" fill="#000000">vip</text></g><!-- internet&#45;&gt;vip --><g id="edge-0" class="edge"><title>internet-&gt;vip</title><path fill="none" stroke="#333333" stroke-width="2" stroke-opacity="0.600000" d="M70,-406.2314C70,-406.2314 70,-380.8133 70,-380.8133"></path><polygon fill="#333333" fill-opacity="0.600000" stroke="#333333" stroke-width="2" stroke-opacity="0.600000" points="73.5001,-380.8132 70,-370.8133 66.5001,-380.8133 73.5001,-380.8132"></polygon></g><!-- vip&#45;&gt;lb:nginx --><g id="edge-1" class="edge"><title>vip-&gt;lb:nginx</title><path fill="none" stroke="#333333" stroke-width="2" stroke-opacity="0.600000" d="M70,-334.1995C70,-334.1995 70,-303.6699 70,-303.6699"></path><polygon fill="#333333" fill-opacity="0.600000" stroke="#333333" stroke-width="2" stroke-opacity="0.600000" points="73.5001,-303.6698 70,-293.6699 66.5001,-303.6699 73.5001,-303.6698"></polygon></g></g></svg>