<?xml version="1.0" encoding="UTF-8" standalone="no"?>
<!DOCTYPE svg PUBLIC "-//W3C//DTD SVG 1.1//EN"
 "http://www.w3.org/Graphics/SVG/1.1/DTD/svg11.dtd">
<!-- Generated by graphviz version 12.1.2 (20240928.0832)
 -->
<!-- Title: ndiag Pages: 1 -->
<svg width="261pt" height="294pt" viewBox="0.00 0.00 261.00 293.60" xmlns="http://www.w3.org/2000/svg" xmlns:xlink="http://www.w3.org/1999/xlink">
<g id="graph0" class="graph" transform="scale(1 1) rotate(0) translate(4 289.6)">
<title>ndiag</title>
<polygon fill="white" stroke="none" points="-4,4 -4,-289.6 257,-289.6 257,4 -4,4"></polygon>
<g id="clust1" class="cluster">
<title>cluster_service:payment</title>
<path fill="#ffffff" stroke="#f0ba32" stroke-width="2" d="M20,-8C20,-8 117,-8 117,-8 123,-8 129,-14 129,-20 129,-20 129,-72.8 129,-72.8 129,-78.8 123,-84.8 117,-84.8 117,-84.8 20,-84.8 20,-84.8 14,-84.8 8,-78.8 8,-72.8 8,-72.8 8,-20 8,-20 8,-14 14,-8 20,-8"></path>
<text text-anchor="middle" x="68.5" y="-68.2" font-family="Arial" font-size="14.00" fill="#333333">Service:Payment</text>
</g>
<g id="clust2" class="cluster">
<title>cluster_app</title>
<polygon fill="none" stroke="black" stroke-width="2" points="93,-92.8 93,-241.6 169,-241.6 169,-92.8 93,-92.8"></polygon>
<text text-anchor="middle" x="131" y="-225" font-family="Arial" font-size="14.00">app</text>
</g>
<g id="clust3" class="cluster">
<title>cluster_db</title>
<polygon fill="none" stroke="black" stroke-width="2" points="137,-8 137,-84.8 245,-84.8 245,-8 137,-8"></polygon>
<text text-anchor="middle" x="191" y="-68.2" font-family="Arial" font-size="14.00">db</text>
</g>
<!-- service:payment:payment api -->
<g id="node1" class="node">
<title>service:payment:payment api</title>
<path fill="#ffffff" stroke="#4b75b9" stroke-width="3" d="M108.85,-52C108.85,-52 35.15,-52 35.15,-52 29.15,-52 23.15,-46 23.15,-40 23.15,-40 23.15,-28 23.15,-28 23.15,-22 29.15,-16 35.15,-16 35.15,-16 108.85,-16 108.85,-16 114.85,-16 120.85,-22 120.85,-28 120.85,-28 120.85,-40 120.85,-40 120.85,-46 114.85,-52 108.85,-52"></path>
<text text-anchor="middle" x="72" y="-29.8" font-family="Arial" font-size="14.00" fill="#333333">Payment API</text>
</g>
<!-- app:nginx -->
<g id="node2" class="node">
<title>app:nginx</title>
<path fill="#ffffff" stroke="#4b75b9" stroke-width="3" d="M149.17,-208.8C149.17,-208.8 112.83,-208.8 112.83,-208.8 106.83,-208.8 100.83,-202.8 100.83,-196.8 100.83,-196.8 100.83,-184.8 100.83,-184.8 100.83,-178.8 106.83,-172.8 112.83,-172.8 112.83,-172.8 149.17,-172.8 149.17,-172.8 155.17,-172.8 161.17,-178.8 161.17,-184.8 161.17,-184.8 161.17,-196.8 161.17,-196.8 161.17,-202.8 155.17,-208.8 149.17,-208.8"></path>
<text text-anchor="middle" x="131" y="-186.6" font-family="Arial" font-size="14.00" fill="#333333">NGINX</text>
</g>
<!-- app:app -->
<g id="node3" class="node">
<title>app:app</title>
<path fill="#ffffff" stroke="#4b75b9" stroke-width="3" d="M146,-136.8C146,-136.8 116,-136.8 116,-136.8 110,-136.8 104,-130.8 104,-124.8 104,-124.8 104,-112.8 104,-112.8 104,-106.8 110,-100.8 116,-100.8 116,-100.8 146,-100.8 146,-100.8 152,-100.8 158,-106.8 158,-112.8 158,-112.8 158,-124.8 158,-124.8 158,-130.8 152,-136.8 146,-136.8"></path>
<text text-anchor="middle" x="131" y="-114.6" font-family="Arial" font-size="14.00" fill="#333333">App</text>
</g>
<!-- app:nginx&#45;&gt;app:app -->
<g id="edge-1" class="edge">
<title>app:nginx-&gt;app:app</title>
<path fill="none" stroke="#333333" stroke-width="2" stroke-opacity="0.600000" d="M131,-172.63C131,-172.63 131,-148.73 131,-148.73"></path>
<polygon fill="#333333" fill-opacity="0.600000" stroke="#333333" stroke-width="2" stroke-opacity="0.600000" points="134.5,-150.24 131,-140.24 127.5,-150.24 134.5,-150.24"></polygon>
</g>
<!-- app:app&#45;&gt;service:payment:payment api -->
<g id="edge-3" class="edge">
<title>app:app-&gt;service:payment:payment api</title>
<path fill="none" stroke="#333333" stroke-width="2" stroke-opacity="0.600000" d="M112.43,-100.4C112.43,-100.4 112.43,-63.88 112.43,-63.88"></path>
<polygon fill="#333333" fill-opacity="0.600000" stroke="#333333" stroke-width="2" stroke-opacity="0.600000" points="115.93,-65.39 112.43,-55.39 108.93,-65.39 115.93,-65.39"></polygon>
</g>
<!-- db:postgresql -->
<g id="node4" class="node">
<title>db:postgresql</title>
<path fill="#ffffff" stroke="#4b75b9" stroke-width="3" d="M225.13,-52C225.13,-52 156.87,-52 156.87,-52 150.87,-52 144.87,-46 144.87,-40 144.87,-40 144.87,-28 144.87,-28 144.87,-22 150.87,-16 156.87,-16 156.87,-16 225.13,-16 225.13,-16 231.13,-16 237.13,-22 237.13,-28 237.13,-28 237.13,-40 237.13,-40 237.13,-46 231.13,-52 225.13,-52"></path>
<text text-anchor="middle" x="191" y="-29.8" font-family="Arial" font-size="14.00" fill="#333333">PostgreSQL</text>
</g>
<!-- app:app&#45;&gt;db:postgresql -->
<g id="edge-2" class="edge">
<title>app:app-&gt;db:postgresql</title>
<path fill="none" stroke="#333333" stroke-width="2" stroke-opacity="0.600000" d="M151.43,-100.4C151.43,-100.4 151.43,-63.88 151.43,-63.88"></path>
<polygon fill="#333333" fill-opacity="0.600000" stroke="#333333" stroke-width="2" stroke-opacity="0.600000" points="154.93,-65.39 151.43,-55.39 147.93,-65.39 154.93,-65.39"></polygon>
</g>
<!-- lb:nginx -->
<g id="node5" class="node">
<title>lb:nginx</title>
<ellipse fill="none" stroke="black" cx="131" cy="-267.6" rx="43.23" ry="18"></ellipse>
<text text-anchor="middle" x="131" y="-263.4" font-family="Times,serif" font-size="14.00">lb:nginx</text>
</g>
<!-- lb:nginx&#45;&gt;app:nginx -->
<g id="edge-0" class="edge">
<title>lb:nginx-&gt;app:nginx</title>
<path fill="none" stroke="#333333" stroke-width="2" stroke-opacity="0.600000" d="M131,-249.4C131,-249.4 131,-220.65 131,-220.65"></path>
<polygon fill="#333333" fill-opacity="0.600000" stroke="#333333" stroke-width="2" stroke-opacity="0.600000" points="134.5,-222.16 131,-212.16 127.5,-222.16 134.5,-222.16"></polygon>
</g>
</g>
</svg>
