<?xml version="1.0" encoding="UTF-8" standalone="no"?><!-- Generated by graphviz version 12.1.2 (20240928.0832)
 --><!-- Title: ndiag Pages: 1 --><svg width="356pt" height="298pt" viewBox="0.00 0.00 356.00 298.40" xmlns="http://www.w3.org/2000/svg" xmlns:xlink="http://www.w3.org/1999/xlink"><g id="graph0" class="graph" transform="scale(1 1) rotate(0) translate(4 294.4)"><title>ndiag</title><polygon fill="white" stroke="none" points="-4,4 -4,-294.4 352,-294.4 352,4 -4,4"></polygon><g id="clust1" class="cluster"><title>cluster_platform:aws</title><path fill="#ffffff" stroke="#1f91be" stroke-width="2" d="M20,-8C20,-8 328,-8 328,-8 334,-8 340,-14 340,-20 340,-20 340,-270.4 340,-270.4 340,-276.4 334,-282.4 328,-282.4 328,-282.4 20,-282.4 20,-282.4 14,-282.4 8,-276.4 8,-270.4 8,-270.4 8,-20 8,-20 8,-14 14,-8 20,-8"></path><text text-anchor="middle" x="174" y="-265.8" font-family="Arial" font-size="14.00" fill="#333333">platform:aws</text></g><g id="clust2" class="cluster"><title>cluster_lambda</title><polygon fill="#ffffff" stroke="#333333" stroke-width="2" points="166,-100.8 166,-249.6 254,-249.6 254,-100.8 166,-100.8"></polygon><text text-anchor="middle" x="210" y="-233" font-family="Arial" font-size="14.00" fill="#333333">Lambda</text></g><g id="clust3" class="cluster"><title>cluster_s3</title><polygon fill="#ffffff" stroke="#333333" stroke-width="2" points="16,-16 16,-92.8 268,-92.8 268,-16 16,-16"></polygon><text text-anchor="middle" x="142" y="-76.2" font-family="Arial" font-size="14.00" fill="#333333">S3</text></g><!-- lambda:function1 --><g id="node1" class="node"><title>lambda:function1</title><path fill="#ffffff" stroke="#4b75b9" stroke-width="3" d="M234.41,-216.8C234.41,-216.8 185.59,-216.8 185.59,-216.8 179.59,-216.8 173.59,-210.8 173.59,-204.8 173.59,-204.8 173.59,-192.8 173.59,-192.8 173.59,-186.8 179.59,-180.8 185.59,-180.8 185.59,-180.8 234.41,-180.8 234.41,-180.8 240.41,-180.8 246.41,-186.8 246.41,-192.8 246.41,-192.8 246.41,-204.8 246.41,-204.8 246.41,-210.8 240.41,-216.8 234.41,-216.8"></path><text text-anchor="middle" x="210" y="-194.6" font-family="Arial" font-size="14.00" fill="#333333">function1</text></g><!-- lambda:function2 --><g id="node2" class="node"><title>lambda:function2</title><path fill="#ffffff" stroke="#4b75b9" stroke-width="3" d="M234.41,-144.8C234.41,-144.8 185.59,-144.8 185.59,-144.8 179.59,-144.8 173.59,-138.8 173.59,-132.8 173.59,-132.8 173.59,-120.8 173.59,-120.8 173.59,-114.8 179.59,-108.8 185.59,-108.8 185.59,-108.8 234.41,-108.8 234.41,-108.8 240.41,-108.8 246.41,-114.8 246.41,-120.8 246.41,-120.8 246.41,-132.8 246.41,-132.8 246.41,-138.8 240.41,-144.8 234.41,-144.8"></path><text text-anchor="middle" x="210" y="-122.6" font-family="Arial" font-size="14.00" fill="#333333">function2</text></g><!-- lambda:function1&#45;&gt;lambda:function2 --><g id="edge-0" class="edge"><title>lambda:function1-&gt;lambda:function2</title><path fill="none" stroke="#333333" stroke-width="2" stroke-opacity="0.600000" d="M210,-180.63C210,-180.63 210,-156.73 210,-156.73"></path><polygon fill="#333333" fill-opacity="0.600000" stroke="#333333" stroke-width="2" stroke-opacity="0.600000" points="213.5,-158.24 210,-148.24 206.5,-158.24 213.5,-158.24"></polygon></g><!-- s3:ssh key bucket --><g id="node3" class="node"><title>s3:ssh key bucket</title><path fill="#ffffff" stroke="#4b75b9" stroke-width="3" d="M129.97,-60C129.97,-60 36.03,-60 36.03,-60 30.03,-60 24.03,-54 24.03,-48 24.03,-48 24.03,-36 24.03,-36 24.03,-30 30.03,-24 36.03,-24 36.03,-24 129.97,-24 129.97,-24 135.97,-24 141.97,-30 141.97,-36 141.97,-36 141.97,-48 141.97,-48 141.97,-54 135.97,-60 129.97,-60"></path><text text-anchor="middle" x="83" y="-37.8" font-family="Arial" font-size="14.00" fill="#333333">SSH Key bucket</text></g><!-- lambda:function2&#45;&gt;s3:ssh key bucket --><g id="edge-1" class="edge"><title>lambda:function2-&gt;s3:ssh key bucket</title><path fill="none" stroke="#333333" stroke-width="2" stroke-opacity="0.600000" d="M173.27,-126.8C135.76,-126.8 83,-126.8 83,-126.8 83,-126.8 83,-71.91 83,-71.91"></path><polygon fill="#333333" fill-opacity="0.600000" stroke="#333333" stroke-width="2" stroke-opacity="0.600000" points="86.5,-73.43 83,-63.43 79.5,-73.43 86.5,-73.43"></polygon></g><!-- s3:output bucket --><g id="node4" class="node"><title>s3:output bucket</title><path fill="#ffffff" stroke="#4b75b9" stroke-width="3" d="M248.03,-60C248.03,-60 171.97,-60 171.97,-60 165.97,-60 159.97,-54 159.97,-48 159.97,-48 159.97,-36 159.97,-36 159.97,-30 165.97,-24 171.97,-24 171.97,-24 248.03,-24 248.03,-24 254.03,-24 260.03,-30 260.03,-36 260.03,-36 260.03,-48 260.03,-48 260.03,-54 254.03,-60 248.03,-60"></path><text text-anchor="middle" x="210" y="-37.8" font-family="Arial" font-size="14.00" fill="#333333">output bucket</text></g><!-- lambda:function2&#45;&gt;s3:output bucket --><g id="edge-2" class="edge"><title>lambda:function2-&gt;s3:output bucket</title><path fill="none" stroke="#333333" stroke-width="2" stroke-opacity="0.600000" d="M210,-108.4C210,-108.4 210,-71.88 210,-71.88"></path><polygon fill="#333333" fill-opacity="0.600000" stroke="#333333" stroke-width="2" stroke-opacity="0.600000" points="213.5,-73.39 210,-63.39 206.5,-73.39 213.5,-73.39"></polygon></g><!-- platform:aws:kms --><g id="node5" class="node"><title>platform:aws:kms</title><path fill="#ffffff" stroke="#4b75b9" stroke-width="3" d="M320,-60C320,-60 290,-60 290,-60 284,-60 278,-54 278,-48 278,-48 278,-36 278,-36 278,-30 284,-24 290,-24 290,-24 320,-24 320,-24 326,-24 332,-30 332,-36 332,-36 332,-48 332,-48 332,-54 326,-60 320,-60"></path><text text-anchor="middle" x="305" y="-37.8" font-family="Arial" font-size="14.00" fill="#333333">kms</text></g><!-- lambda:function2&#45;&gt;platform:aws:kms --><g id="edge-3" class="edge"><title>lambda:function2-&gt;platform:aws:kms</title><path fill="none" stroke="#333333" stroke-width="2" stroke-opacity="0.600000" d="M246.73,-126.8C273.46,-126.8 305,-126.8 305,-126.8 305,-126.8 305,-71.91 305,-71.91"></path><polygon fill="#333333" fill-opacity="0.600000" stroke="#333333" stroke-width="2" stroke-opacity="0.600000" points="308.5,-73.43 305,-63.43 301.5,-73.43 308.5,-73.43"></polygon></g></g></svg>