<?xml version="1.0" encoding="UTF-8" standalone="no"?><!-- Generated by graphviz version 12.1.2 (20240928.0832)
 --><!-- Title: ndiag Pages: 1 --><svg width="276pt" height="186pt" viewBox="0.00 0.00 276.00 185.60" xmlns="http://www.w3.org/2000/svg" xmlns:xlink="http://www.w3.org/1999/xlink"><g id="graph0" class="graph" transform="scale(1 1) rotate(0) translate(4 181.6)"><title>ndiag</title><polygon fill="white" stroke="none" points="-4,4 -4,-181.6 272,-181.6 272,4 -4,4"></polygon><g id="clust1" class="cluster"><title>cluster_S3</title><polygon fill="none" stroke="black" stroke-width="2" points="8,-8 8,-84.8 260,-84.8 260,-8 8,-8"></polygon><text text-anchor="middle" x="134" y="-68.2" font-family="Arial" font-size="14.00">S3</text></g><g id="clust2" class="cluster"><title>cluster_Lambda</title><polygon fill="none" stroke="#999999" stroke-width="2" points="94,-92.8 94,-169.6 182,-169.6 182,-92.8 94,-92.8"></polygon><text text-anchor="middle" x="138" y="-153" font-family="Arial" font-size="14.00" fill="#666666">Lambda</text></g><!-- s3:ssh key bucket --><g id="node1" class="node"><title>s3:ssh key bucket</title><path fill="#ffffff" stroke="#4b75b9" stroke-width="3" d="M121.97,-52C121.97,-52 28.03,-52 28.03,-52 22.03,-52 16.03,-46 16.03,-40 16.03,-40 16.03,-28 16.03,-28 16.03,-22 22.03,-16 28.03,-16 28.03,-16 121.97,-16 121.97,-16 127.97,-16 133.97,-22 133.97,-28 133.97,-28 133.97,-40 133.97,-40 133.97,-46 127.97,-52 121.97,-52"></path><text text-anchor="middle" x="75" y="-29.8" font-family="Arial" font-size="14.00" fill="#333333">SSH Key bucket</text></g><!-- s3:output bucket --><g id="node2" class="node"><title>s3:output bucket</title><path fill="#ffffff" stroke="#4b75b9" stroke-width="3" d="M240.03,-52C240.03,-52 163.97,-52 163.97,-52 157.97,-52 151.97,-46 151.97,-40 151.97,-40 151.97,-28 151.97,-28 151.97,-22 157.97,-16 163.97,-16 163.97,-16 240.03,-16 240.03,-16 246.03,-16 252.03,-22 252.03,-28 252.03,-28 252.03,-40 252.03,-40 252.03,-46 246.03,-52 240.03,-52"></path><text text-anchor="middle" x="202" y="-29.8" font-family="Arial" font-size="14.00" fill="#333333">output bucket</text></g><!-- lambda:function2 --><g id="node3" class="node"><title>lambda:function2</title><path fill="#ffffff" stroke="#4b75b9" stroke-width="3" d="M162.41,-136.8C162.41,-136.8 113.59,-136.8 113.59,-136.8 107.59,-136.8 101.59,-130.8 101.59,-124.8 101.59,-124.8 101.59,-112.8 101.59,-112.8 101.59,-106.8 107.59,-100.8 113.59,-100.8 113.59,-100.8 162.41,-100.8 162.41,-100.8 168.41,-100.8 174.41,-106.8 174.41,-112.8 174.41,-112.8 174.41,-124.8 174.41,-124.8 174.41,-130.8 168.41,-136.8 162.41,-136.8"></path><text text-anchor="middle" x="138" y="-114.6" font-family="Arial" font-size="14.00" fill="#333333">function2</text></g><!-- lambda:function2&#45;&gt;s3:ssh key bucket --><g id="edge1" class="edge"><title>lambda:function2-&gt;s3:ssh key bucket</title><path fill="none" stroke="#333333" stroke-width="2" stroke-opacity="0.600000" d="M117.78,-100.4C117.78,-100.4 117.78,-63.88 117.78,-63.88"></path><polygon fill="#333333" fill-opacity="0.600000" stroke="#333333" stroke-width="2" stroke-opacity="0.600000" points="121.28,-65.39 117.78,-55.39 114.28,-65.39 121.28,-65.39"></polygon></g><!-- lambda:function2&#45;&gt;s3:output bucket --><g id="edge2" class="edge"><title>lambda:function2-&gt;s3:output bucket</title><path fill="none" stroke="#333333" stroke-width="2" stroke-opacity="0.600000" d="M163.19,-100.4C163.19,-100.4 163.19,-63.88 163.19,-63.88"></path><polygon fill="#333333" fill-opacity="0.600000" stroke="#333333" stroke-width="2" stroke-opacity="0.600000" points="166.69,-65.39 163.19,-55.39 159.69,-65.39 166.69,-65.39"></polygon></g></g></svg>