<?xml version="1.0" encoding="UTF-8" standalone="no"?>
<!DOCTYPE svg PUBLIC "-//W3C//DTD SVG 1.1//EN"
 "http://www.w3.org/Graphics/SVG/1.1/DTD/svg11.dtd">
<!-- Generated by graphviz version 12.1.2 (20240928.0832)
 -->
<!-- Title: ndiag Pages: 1 -->
<svg width="379pt" height="294pt" viewBox="0.00 0.00 379.00 293.60" xmlns="http://www.w3.org/2000/svg" xmlns:xlink="http://www.w3.org/1999/xlink">
<g id="graph0" class="graph" transform="scale(1 1) rotate(0) translate(4 289.6)">
<title>ndiag</title>
<polygon fill="white" stroke="none" points="-4,4 -4,-289.6 375,-289.6 375,4 -4,4"></polygon>
<g id="clust1" class="cluster">
<title>cluster_platform:aws</title>
<path fill="#ffffff" stroke="#1f91be" stroke-width="2" d="M20,-8C20,-8 91,-8 91,-8 97,-8 103,-14 103,-20 103,-20 103,-72.8 103,-72.8 103,-78.8 97,-84.8 91,-84.8 91,-84.8 20,-84.8 20,-84.8 14,-84.8 8,-78.8 8,-72.8 8,-72.8 8,-20 8,-20 8,-14 14,-8 20,-8"></path>
<text text-anchor="middle" x="55.5" y="-68.2" font-family="Arial" font-size="14.00" fill="#333333">platform:aws</text>
</g>
<g id="clust2" class="cluster">
<title>cluster_Lambda</title>
<polygon fill="none" stroke="black" stroke-width="2" points="134,-92.8 134,-241.6 222,-241.6 222,-92.8 134,-92.8"></polygon>
<text text-anchor="middle" x="178" y="-225" font-family="Arial" font-size="14.00">Lambda</text>
</g>
<g id="clust3" class="cluster">
<title>cluster_S3</title>
<polygon fill="none" stroke="#999999" stroke-width="2" points="111,-8 111,-84.8 363,-84.8 363,-8 111,-8"></polygon>
<text text-anchor="middle" x="237" y="-68.2" font-family="Arial" font-size="14.00" fill="#666666">S3</text>
</g>
<!-- platform:aws:kms -->
<g id="node1" class="node">
<title>platform:aws:kms</title>
<path fill="#ffffff" stroke="#4b75b9" stroke-width="3" d="M83,-52C83,-52 53,-52 53,-52 47,-52 41,-46 41,-40 41,-40 41,-28 41,-28 41,-22 47,-16 53,-16 53,-16 83,-16 83,-16 89,-16 95,-22 95,-28 95,-28 95,-40 95,-40 95,-46 89,-52 83,-52"></path>
<text text-anchor="middle" x="68" y="-29.8" font-family="Arial" font-size="14.00" fill="#333333">kms</text>
</g>
<!-- lambda:function1 -->
<g id="node2" class="node">
<title>lambda:function1</title>
<path fill="#ffffff" stroke="#4b75b9" stroke-width="3" d="M202.41,-208.8C202.41,-208.8 153.59,-208.8 153.59,-208.8 147.59,-208.8 141.59,-202.8 141.59,-196.8 141.59,-196.8 141.59,-184.8 141.59,-184.8 141.59,-178.8 147.59,-172.8 153.59,-172.8 153.59,-172.8 202.41,-172.8 202.41,-172.8 208.41,-172.8 214.41,-178.8 214.41,-184.8 214.41,-184.8 214.41,-196.8 214.41,-196.8 214.41,-202.8 208.41,-208.8 202.41,-208.8"></path>
<text text-anchor="middle" x="178" y="-186.6" font-family="Arial" font-size="14.00" fill="#333333">function1</text>
</g>
<!-- lambda:function2 -->
<g id="node3" class="node">
<title>lambda:function2</title>
<path fill="#ffffff" stroke="#4b75b9" stroke-width="3" d="M202.41,-136.8C202.41,-136.8 153.59,-136.8 153.59,-136.8 147.59,-136.8 141.59,-130.8 141.59,-124.8 141.59,-124.8 141.59,-112.8 141.59,-112.8 141.59,-106.8 147.59,-100.8 153.59,-100.8 153.59,-100.8 202.41,-100.8 202.41,-100.8 208.41,-100.8 214.41,-106.8 214.41,-112.8 214.41,-112.8 214.41,-124.8 214.41,-124.8 214.41,-130.8 208.41,-136.8 202.41,-136.8"></path>
<text text-anchor="middle" x="178" y="-114.6" font-family="Arial" font-size="14.00" fill="#333333">function2</text>
</g>
<!-- lambda:function1&#45;&gt;lambda:function2 -->
<g id="edge2" class="edge">
<title>lambda:function1-&gt;lambda:function2</title>
<path fill="none" stroke="#333333" stroke-width="2" stroke-opacity="0.600000" d="M178,-172.63C178,-172.63 178,-148.73 178,-148.73"></path>
<polygon fill="#333333" fill-opacity="0.600000" stroke="#333333" stroke-width="2" stroke-opacity="0.600000" points="181.5,-150.24 178,-140.24 174.5,-150.24 181.5,-150.24"></polygon>
</g>
<!-- lambda:function2&#45;&gt;platform:aws:kms -->
<g id="edge5" class="edge">
<title>lambda:function2-&gt;platform:aws:kms</title>
<path fill="none" stroke="#333333" stroke-width="2" stroke-opacity="0.600000" d="M141.29,-118.8C109.23,-118.8 67.77,-118.8 67.77,-118.8 67.77,-118.8 67.77,-63.91 67.77,-63.91"></path>
<polygon fill="#333333" fill-opacity="0.600000" stroke="#333333" stroke-width="2" stroke-opacity="0.600000" points="71.27,-65.43 67.77,-55.43 64.27,-65.43 71.27,-65.43"></polygon>
</g>
<!-- s3:ssh key bucket -->
<g id="node4" class="node">
<title>s3:ssh key bucket</title>
<path fill="#ffffff" stroke="#4b75b9" stroke-width="3" d="M224.97,-52C224.97,-52 131.03,-52 131.03,-52 125.03,-52 119.03,-46 119.03,-40 119.03,-40 119.03,-28 119.03,-28 119.03,-22 125.03,-16 131.03,-16 131.03,-16 224.97,-16 224.97,-16 230.97,-16 236.97,-22 236.97,-28 236.97,-28 236.97,-40 236.97,-40 236.97,-46 230.97,-52 224.97,-52"></path>
<text text-anchor="middle" x="178" y="-29.8" font-family="Arial" font-size="14.00" fill="#333333">SSH Key bucket</text>
</g>
<!-- lambda:function2&#45;&gt;s3:ssh key bucket -->
<g id="edge3" class="edge">
<title>lambda:function2-&gt;s3:ssh key bucket</title>
<path fill="none" stroke="#333333" stroke-width="2" stroke-opacity="0.600000" d="M178,-100.4C178,-100.4 178,-63.88 178,-63.88"></path>
<polygon fill="#333333" fill-opacity="0.600000" stroke="#333333" stroke-width="2" stroke-opacity="0.600000" points="181.5,-65.39 178,-55.39 174.5,-65.39 181.5,-65.39"></polygon>
</g>
<!-- s3:output bucket -->
<g id="node5" class="node">
<title>s3:output bucket</title>
<path fill="#ffffff" stroke="#4b75b9" stroke-width="3" d="M343.03,-52C343.03,-52 266.97,-52 266.97,-52 260.97,-52 254.97,-46 254.97,-40 254.97,-40 254.97,-28 254.97,-28 254.97,-22 260.97,-16 266.97,-16 266.97,-16 343.03,-16 343.03,-16 349.03,-16 355.03,-22 355.03,-28 355.03,-28 355.03,-40 355.03,-40 355.03,-46 349.03,-52 343.03,-52"></path>
<text text-anchor="middle" x="305" y="-29.8" font-family="Arial" font-size="14.00" fill="#333333">output bucket</text>
</g>
<!-- lambda:function2&#45;&gt;s3:output bucket -->
<g id="edge4" class="edge">
<title>lambda:function2-&gt;s3:output bucket</title>
<path fill="none" stroke="#333333" stroke-width="2" stroke-opacity="0.600000" d="M214.63,-118.8C253.15,-118.8 308.25,-118.8 308.25,-118.8 308.25,-118.8 308.25,-63.91 308.25,-63.91"></path>
<polygon fill="#333333" fill-opacity="0.600000" stroke="#333333" stroke-width="2" stroke-opacity="0.600000" points="311.75,-65.43 308.25,-55.43 304.75,-65.43 311.75,-65.43"></polygon>
</g>
<!-- thirt&#45;party git repository -->
<g id="node6" class="node">
<title>thirt-party git repository</title>
<path fill="none" stroke="black" stroke-width="2" d="M249.46,-285.6C249.46,-285.6 106.54,-285.6 106.54,-285.6 100.54,-285.6 94.54,-279.6 94.54,-273.6 94.54,-273.6 94.54,-261.6 94.54,-261.6 94.54,-255.6 100.54,-249.6 106.54,-249.6 106.54,-249.6 249.46,-249.6 249.46,-249.6 255.46,-249.6 261.46,-255.6 261.46,-261.6 261.46,-261.6 261.46,-273.6 261.46,-273.6 261.46,-279.6 255.46,-285.6 249.46,-285.6"></path>
<text text-anchor="middle" x="178" y="-263.4" font-family="Arial" font-size="14.00">Thirt-party Git repository</text>
</g>
<!-- thirt&#45;party git repository&#45;&gt;lambda:function1 -->
<g id="edge1" class="edge">
<title>thirt-party git repository-&gt;lambda:function1</title>
<path fill="none" stroke="#333333" stroke-width="2" stroke-opacity="0.600000" d="M178,-249.4C178,-249.4 178,-220.65 178,-220.65"></path>
<polygon fill="#333333" fill-opacity="0.600000" stroke="#333333" stroke-width="2" stroke-opacity="0.600000" points="181.5,-222.16 178,-212.16 174.5,-222.16 181.5,-222.16"></polygon>
</g>
</g>
</svg>
