<?xml version="1.0" encoding="UTF-8" standalone="no"?>
<!DOCTYPE svg PUBLIC "-//W3C//DTD SVG 1.1//EN"
 "http://www.w3.org/Graphics/SVG/1.1/DTD/svg11.dtd">
<!-- Generated by graphviz version 12.1.2 (20240928.0832)
 -->
<!-- Title: ndiag Pages: 1 -->
<svg width="517pt" height="101pt" viewBox="0.00 0.00 516.58 101.00" xmlns="http://www.w3.org/2000/svg" xmlns:xlink="http://www.w3.org/1999/xlink">
<g id="graph0" class="graph" transform="scale(1 1) rotate(0) translate(4 97)">
<title>ndiag</title>
<polygon fill="white" stroke="none" points="-4,4 -4,-97 512.58,-97 512.58,4 -4,4"></polygon>
<g id="clust1" class="cluster">
<title>cluster_Lambda</title>
<polygon fill="none" stroke="black" stroke-width="2" points="302.94,-8 302.94,-85 500.58,-85 500.58,-8 302.94,-8"></polygon>
<text text-anchor="middle" x="401.76" y="-68.4" font-family="Arial" font-size="14.00">Lambda</text>
</g>
<!-- lambda:function1 -->
<g id="node1" class="node">
<title>lambda:function1</title>
<path fill="#ffffff" stroke="#4b75b9" stroke-width="3" d="M371.76,-52C371.76,-52 322.94,-52 322.94,-52 316.94,-52 310.94,-46 310.94,-40 310.94,-40 310.94,-28 310.94,-28 310.94,-22 316.94,-16 322.94,-16 322.94,-16 371.76,-16 371.76,-16 377.76,-16 383.76,-22 383.76,-28 383.76,-28 383.76,-40 383.76,-40 383.76,-46 377.76,-52 371.76,-52"></path>
<text text-anchor="middle" x="347.35" y="-29.8" font-family="Arial" font-size="14.00" fill="#333333">function1</text>
</g>
<!-- lambda:function2 -->
<g id="node2" class="node">
<title>lambda:function2</title>
<path fill="#ffffff" stroke="#4b75b9" stroke-width="3" d="M480.58,-52C480.58,-52 431.76,-52 431.76,-52 425.76,-52 419.76,-46 419.76,-40 419.76,-40 419.76,-28 419.76,-28 419.76,-22 425.76,-16 431.76,-16 431.76,-16 480.58,-16 480.58,-16 486.58,-16 492.58,-22 492.58,-28 492.58,-28 492.58,-40 492.58,-40 492.58,-46 486.58,-52 480.58,-52"></path>
<text text-anchor="middle" x="456.17" y="-29.8" font-family="Arial" font-size="14.00" fill="#333333">function2</text>
</g>
<!-- lambda:function1&#45;&gt;lambda:function2 -->
<g id="edge-2" class="edge">
<title>lambda:function1-&gt;lambda:function2</title>
<path fill="none" stroke="#333333" stroke-width="2" stroke-opacity="0.600000" d="M384.19,-34C384.19,-34 407.85,-34 407.85,-34"></path>
<polygon fill="#333333" fill-opacity="0.600000" stroke="#333333" stroke-width="2" stroke-opacity="0.600000" points="406.34,-37.5 416.34,-34 406.34,-30.5 406.34,-37.5"></polygon>
</g>
<!-- git users -->
<g id="node3" class="node">
<title>git users</title>
<path fill="none" stroke="black" stroke-width="2" d="M60.01,-52C60.01,-52 12,-52 12,-52 6,-52 0,-46 0,-40 0,-40 0,-28 0,-28 0,-22 6,-16 12,-16 12,-16 60.01,-16 60.01,-16 66.01,-16 72.01,-22 72.01,-28 72.01,-28 72.01,-40 72.01,-40 72.01,-46 66.01,-52 60.01,-52"></path>
<text text-anchor="middle" x="36.01" y="-29.8" font-family="Arial" font-size="14.00">Git users</text>
</g>
<!-- thirt&#45;party git repository -->
<g id="node4" class="node">
<title>thirt-party git repository</title>
<path fill="none" stroke="black" stroke-width="2" d="M262.94,-52C262.94,-52 120.01,-52 120.01,-52 114.01,-52 108.01,-46 108.01,-40 108.01,-40 108.01,-28 108.01,-28 108.01,-22 114.01,-16 120.01,-16 120.01,-16 262.94,-16 262.94,-16 268.94,-16 274.94,-22 274.94,-28 274.94,-28 274.94,-40 274.94,-40 274.94,-46 268.94,-52 262.94,-52"></path>
<text text-anchor="middle" x="191.48" y="-29.8" font-family="Arial" font-size="14.00">Thirt-party Git repository</text>
</g>
<!-- git users&#45;&gt;thirt&#45;party git repository -->
<g id="edge-0" class="edge">
<title>git users-&gt;thirt-party git repository</title>
<path fill="none" stroke="#333333" stroke-width="2" stroke-opacity="0.600000" d="M72.46,-34C72.46,-34 96.12,-34 96.12,-34"></path>
<polygon fill="#333333" fill-opacity="0.600000" stroke="#333333" stroke-width="2" stroke-opacity="0.600000" points="94.61,-37.5 104.61,-34 94.61,-30.5 94.61,-37.5"></polygon>
</g>
<!-- thirt&#45;party git repository&#45;&gt;lambda:function1 -->
<g id="edge-1" class="edge">
<title>thirt-party git repository-&gt;lambda:function1</title>
<path fill="none" stroke="#333333" stroke-width="2" stroke-opacity="0.600000" d="M275.34,-34C275.34,-34 299.14,-34 299.14,-34"></path>
<polygon fill="#333333" fill-opacity="0.600000" stroke="#333333" stroke-width="2" stroke-opacity="0.600000" points="297.63,-37.5 307.63,-34 297.63,-30.5 297.63,-37.5"></polygon>
</g>
</g>
</svg>
