<?xml version="1.0" encoding="UTF-8" standalone="no"?>
<!DOCTYPE svg PUBLIC "-//W3C//DTD SVG 1.1//EN"
 "http://www.w3.org/Graphics/SVG/1.1/DTD/svg11.dtd">
<!-- Generated by graphviz version 12.1.2 (20240928.0832)
 -->
<!-- Title: ndiag Pages: 1 -->
<svg width="283pt" height="186pt" viewBox="0.00 0.00 283.10 186.00" xmlns="http://www.w3.org/2000/svg" xmlns:xlink="http://www.w3.org/1999/xlink">
<g id="graph0" class="graph" transform="scale(1 1) rotate(0) translate(4 182)">
<title>ndiag</title>
<polygon fill="white" stroke="none" points="-4,4 -4,-182 279.1,-182 279.1,4 -4,4"></polygon>
<g id="clust1" class="cluster">
<title>cluster_Lambda</title>
<polygon fill="none" stroke="black" stroke-width="2" points="8,-8 8,-85 96.82,-85 96.82,-8 8,-8"></polygon>
<text text-anchor="middle" x="52.41" y="-68.4" font-family="Arial" font-size="14.00">Lambda</text>
</g>
<g id="clust2" class="cluster">
<title>cluster_S3</title>
<polygon fill="none" stroke="black" stroke-width="2" points="17.41,-93 17.41,-170 87.41,-170 87.41,-93 17.41,-93"></polygon>
<text text-anchor="middle" x="52.41" y="-153.4" font-family="Arial" font-size="14.00">S3</text>
</g>
<!-- lambda:function2 -->
<g id="node1" class="node">
<title>lambda:function2</title>
<path fill="#ffffff" stroke="#4b75b9" stroke-width="3" d="M76.82,-52C76.82,-52 28,-52 28,-52 22,-52 16,-46 16,-40 16,-40 16,-28 16,-28 16,-22 22,-16 28,-16 28,-16 76.82,-16 76.82,-16 82.82,-16 88.82,-22 88.82,-28 88.82,-28 88.82,-40 88.82,-40 88.82,-46 82.82,-52 76.82,-52"></path>
<text text-anchor="middle" x="52.41" y="-29.8" font-family="Arial" font-size="14.00" fill="#333333">function2</text>
</g>
<!-- s3:output bucket -->
<g id="node3" class="node">
<title>s3:output bucket</title>
<ellipse fill="none" stroke="black" cx="199.96" cy="-34" rx="75.14" ry="18"></ellipse>
<text text-anchor="middle" x="199.96" y="-29.8" font-family="Times,serif" font-size="14.00">s3:output bucket</text>
</g>
<!-- lambda:function2&#45;&gt;s3:output bucket -->
<g id="edge-0" class="edge">
<title>lambda:function2-&gt;s3:output bucket</title>
<path fill="none" stroke="#333333" stroke-width="2" stroke-opacity="0.600000" d="M89.26,-34C89.26,-34 112.9,-34 112.9,-34"></path>
<polygon fill="#333333" fill-opacity="0.600000" stroke="#333333" stroke-width="2" stroke-opacity="0.600000" points="111.39,-37.5 121.39,-34 111.39,-30.5 111.39,-37.5"></polygon>
</g>
<!-- none -->
<g id="node2" class="node">
<title>none</title>
<text text-anchor="middle" x="52.41" y="-114.8" font-family="Times,serif" font-size="14.00">none</text>
</g>
</g>
</svg>
