<?xml version="1.0" encoding="UTF-8" standalone="no"?>
<!DOCTYPE svg PUBLIC "-//W3C//DTD SVG 1.1//EN"
 "http://www.w3.org/Graphics/SVG/1.1/DTD/svg11.dtd">
<!-- Generated by graphviz version 12.1.2 (20240928.0832)
 -->
<!-- Title: ndiag Pages: 1 -->
<svg width="220pt" height="101pt" viewBox="0.00 0.00 220.18 101.00" xmlns="http://www.w3.org/2000/svg" xmlns:xlink="http://www.w3.org/1999/xlink">
<g id="graph0" class="graph" transform="scale(1 1) rotate(0) translate(4 97)">
<title>ndiag</title>
<polygon fill="white" stroke="none" points="-4,4 -4,-97 216.18,-97 216.18,4 -4,4"></polygon>
<g id="clust1" class="cluster">
<title>cluster_platform:aws</title>
<path fill="#ffffff" stroke="#1f91be" stroke-width="2" d="M128.82,-8C128.82,-8 200.18,-8 200.18,-8 206.18,-8 212.18,-14 212.18,-20 212.18,-20 212.18,-73 212.18,-73 212.18,-79 206.18,-85 200.18,-85 200.18,-85 128.82,-85 128.82,-85 122.82,-85 116.82,-79 116.82,-73 116.82,-73 116.82,-20 116.82,-20 116.82,-14 122.82,-8 128.82,-8"></path>
<text text-anchor="middle" x="164.5" y="-68.4" font-family="Arial" font-size="14.00" fill="#333333">platform:aws</text>
</g>
<g id="clust2" class="cluster">
<title>cluster_Lambda</title>
<polygon fill="none" stroke="black" stroke-width="2" points="8,-8 8,-85 96.82,-85 96.82,-8 8,-8"></polygon>
<text text-anchor="middle" x="52.41" y="-68.4" font-family="Arial" font-size="14.00">Lambda</text>
</g>
<!-- platform:aws:kms -->
<g id="node1" class="node">
<title>platform:aws:kms</title>
<path fill="#ffffff" stroke="#4b75b9" stroke-width="3" d="M179,-52C179,-52 149,-52 149,-52 143,-52 137,-46 137,-40 137,-40 137,-28 137,-28 137,-22 143,-16 149,-16 149,-16 179,-16 179,-16 185,-16 191,-22 191,-28 191,-28 191,-40 191,-40 191,-46 185,-52 179,-52"></path>
<text text-anchor="middle" x="164" y="-29.8" font-family="Arial" font-size="14.00" fill="#333333">kms</text>
</g>
<!-- lambda:function2 -->
<g id="node2" class="node">
<title>lambda:function2</title>
<path fill="#ffffff" stroke="#4b75b9" stroke-width="3" d="M76.82,-52C76.82,-52 28,-52 28,-52 22,-52 16,-46 16,-40 16,-40 16,-28 16,-28 16,-22 22,-16 28,-16 28,-16 76.82,-16 76.82,-16 82.82,-16 88.82,-22 88.82,-28 88.82,-28 88.82,-40 88.82,-40 88.82,-46 82.82,-52 76.82,-52"></path>
<text text-anchor="middle" x="52.41" y="-29.8" font-family="Arial" font-size="14.00" fill="#333333">function2</text>
</g>
<!-- lambda:function2&#45;&gt;platform:aws:kms -->
<g id="edge-0" class="edge">
<title>lambda:function2-&gt;platform:aws:kms</title>
<path fill="none" stroke="#333333" stroke-width="2" stroke-opacity="0.600000" d="M89.26,-34C89.26,-34 125.22,-34 125.22,-34"></path>
<polygon fill="#333333" fill-opacity="0.600000" stroke="#333333" stroke-width="2" stroke-opacity="0.600000" points="123.71,-37.5 133.71,-34 123.71,-30.5 123.71,-37.5"></polygon>
</g>
</g>
</svg>
