<?xml version="1.0" encoding="UTF-8" standalone="no"?>
<!DOCTYPE svg PUBLIC "-//W3C//DTD SVG 1.1//EN"
 "http://www.w3.org/Graphics/SVG/1.1/DTD/svg11.dtd">
<!-- Generated by graphviz version 12.1.2 (20240928.0832)
 -->
<!-- Title: ndiag Pages: 1 -->
<svg width="267pt" height="101pt" viewBox="0.00 0.00 266.76 101.00" xmlns="http://www.w3.org/2000/svg" xmlns:xlink="http://www.w3.org/1999/xlink">
<g id="graph0" class="graph" transform="scale(1 1) rotate(0) translate(4 97)">
<title>ndiag</title>
<polygon fill="white" stroke="none" points="-4,4 -4,-97 262.76,-97 262.76,4 -4,4"></polygon>
<g id="clust1" class="cluster">
<title>cluster_Lambda</title>
<polygon fill="none" stroke="black" stroke-width="2" points="8,-8 8,-85 96.82,-85 96.82,-8 8,-8"></polygon>
<text text-anchor="middle" x="52.41" y="-68.4" font-family="Arial" font-size="14.00">Lambda</text>
</g>
<g id="clust2" class="cluster">
<title>cluster_S3</title>
<polygon fill="none" stroke="black" stroke-width="2" points="116.82,-8 116.82,-85 250.76,-85 250.76,-8 116.82,-8"></polygon>
<text text-anchor="middle" x="183.79" y="-68.4" font-family="Arial" font-size="14.00">S3</text>
</g>
<!-- lambda:function2 -->
<g id="node1" class="node">
<title>lambda:function2</title>
<path fill="#ffffff" stroke="#4b75b9" stroke-width="3" d="M76.82,-52C76.82,-52 28,-52 28,-52 22,-52 16,-46 16,-40 16,-40 16,-28 16,-28 16,-22 22,-16 28,-16 28,-16 76.82,-16 76.82,-16 82.82,-16 88.82,-22 88.82,-28 88.82,-28 88.82,-40 88.82,-40 88.82,-46 82.82,-52 76.82,-52"></path>
<text text-anchor="middle" x="52.41" y="-29.8" font-family="Arial" font-size="14.00" fill="#333333">function2</text>
</g>
<!-- s3:ssh key bucket -->
<g id="node2" class="node">
<title>s3:ssh key bucket</title>
<path fill="#ffffff" stroke="#4b75b9" stroke-width="3" d="M230.76,-52C230.76,-52 136.82,-52 136.82,-52 130.82,-52 124.82,-46 124.82,-40 124.82,-40 124.82,-28 124.82,-28 124.82,-22 130.82,-16 136.82,-16 136.82,-16 230.76,-16 230.76,-16 236.76,-16 242.76,-22 242.76,-28 242.76,-28 242.76,-40 242.76,-40 242.76,-46 236.76,-52 230.76,-52"></path>
<text text-anchor="middle" x="183.79" y="-29.8" font-family="Arial" font-size="14.00" fill="#333333">SSH Key bucket</text>
</g>
<!-- lambda:function2&#45;&gt;s3:ssh key bucket -->
<g id="edge-0" class="edge">
<title>lambda:function2-&gt;s3:ssh key bucket</title>
<path fill="none" stroke="#333333" stroke-width="2" stroke-opacity="0.600000" d="M89.01,-34C89.01,-34 113.21,-34 113.21,-34"></path>
<polygon fill="#333333" fill-opacity="0.600000" stroke="#333333" stroke-width="2" stroke-opacity="0.600000" points="111.7,-37.5 121.7,-34 111.7,-30.5 111.7,-37.5"></polygon>
</g>
</g>
</svg>
